# Blender 4.5.8 LTS
# www.blender.org
mtllib cannonAmmo.mtl
o 38Cal
v 7.076692 0.279606 -3.070827
v 7.076692 8.392381 -3.070827
v 7.076690 0.279607 2.871247
v 7.076690 8.392381 2.871246
v -7.076693 0.279606 -3.070828
v -7.076693 8.392381 -3.070829
v -7.076694 0.279607 2.871245
v -7.076694 8.392381 2.871245
vn -1.0000 -0.0000 -0.0000
vn -0.0000 -0.0000 -1.0000
vn -0.0000 -1.0000 -0.0000
vn -0.0000 1.0000 -0.0000
vn 1.0000 -0.0000 -0.0000
vn -0.0000 -0.0000 1.0000
vt 0.270557 0.009783
vt 0.010445 0.237700
vt 0.010445 0.009080
vt 0.010609 0.991247
vt 0.511346 0.761789
vt 0.511346 0.991247
vt 0.511309 0.489890
vt 0.026892 0.756791
vt 0.511309 0.756791
vt 0.007775 0.478587
vt 0.512018 0.252445
vt 0.512018 0.479210
vt 0.301617 0.237978
vt 0.558120 0.011920
vt 0.558120 0.237978
vt 0.794503 0.990960
vt 0.532758 0.495158
vt 0.794503 0.495158
vt 0.270557 0.239521
vt 0.010609 0.761789
vt 0.026892 0.489890
vt 0.007775 0.251822
vt 0.301617 0.011920
vt 0.532757 0.990960
s 1
usemtl 38Cal
f 6/1/1 7/2/1 8/3/1
f 2/4/2 5/5/2 6/6/2
f 5/7/3 3/8/3 7/9/3
f 4/10/4 6/11/4 8/12/4
f 4/13/5 1/14/5 2/15/5
f 8/16/6 3/17/6 4/18/6
f 6/1/1 5/19/1 7/2/1
f 2/4/2 1/20/2 5/5/2
f 5/7/3 1/21/3 3/8/3
f 4/10/4 2/22/4 6/11/4
f 4/13/5 3/23/5 1/14/5
f 8/16/6 7/24/6 3/17/6
