# Blender 4.5.9 LTS
# www.blender.org
mtllib key.mtl
o Cube
v -4.935822 -10.143841 0.734077
v -3.338754 -7.766867 0.734077
v -4.935822 -10.143841 -0.734077
v -3.338754 -7.766867 -0.734077
v 4.935822 -10.143841 0.734077
v 3.338754 -7.766867 0.734077
v 4.935822 -10.143841 -0.734077
v 3.338754 -7.766867 -0.734077
v 6.210902 -8.981551 -0.734077
v 6.210902 -10.143841 -0.734077
v 6.210902 -10.143841 0.734077
v 6.210902 -8.981551 0.734077
v -6.210902 -10.143841 -0.734077
v -6.210902 -10.143841 0.734077
v -6.210902 -8.981551 0.734077
v -6.210902 -8.981551 -0.734077
v -3.338754 -2.387856 0.734077
v -3.338754 -2.387856 -0.734077
v 3.338754 -2.387856 -0.734077
v 3.338754 -2.387856 0.734077
v 6.210902 -1.029532 -0.734077
v 6.210902 -1.029532 0.734077
v -6.210902 -1.029532 0.734077
v -6.210902 -1.029532 -0.734077
v -4.935822 0.160566 0.734077
v -4.935822 0.160566 -0.734077
v 4.935822 0.160566 -0.734077
v 4.935822 0.160566 0.734077
v 6.210902 0.160566 -0.734077
v 6.210902 0.160566 0.734077
v -6.210902 0.160566 0.734077
v -6.210902 0.160566 -0.734077
v -1.025813 -2.387856 0.734077
v -1.025813 -2.387856 -0.734077
v 1.025813 -2.387856 -0.734077
v 1.025813 -2.387856 0.734077
v -1.516503 0.160566 0.734077
v -1.516503 0.160566 -0.734077
v 1.516503 0.160566 -0.734077
v 1.516503 0.160566 0.734077
v 0.000000 -2.387856 0.734077
v 0.000000 -2.387856 -0.734077
v -1.516503 12.382408 -0.734077
v -1.516503 12.382408 0.734077
v 0.000000 0.160566 0.734077
v 0.000000 0.160566 -0.734077
v 1.516503 15.863926 -0.734077
v 1.516503 15.863926 0.734077
v 0.000000 15.863926 0.734077
v 0.000000 15.863926 -0.734077
v -4.555037 14.636684 -0.734077
v -3.720057 16.553596 -0.734077
v -4.555037 14.636684 0.734077
v -3.720057 16.553596 0.734077
v 0.000000 12.729092 0.734077
v -1.516503 9.942581 0.734077
v -1.516503 9.942581 -0.734077
v 0.000000 12.729092 -0.734077
v 1.516503 12.729092 -0.734077
v 1.516503 12.729092 0.734077
v -1.516503 7.755495 0.734077
v -1.516503 7.755495 -0.734077
v 0.000000 9.918989 -0.734077
v 1.516503 9.918989 -0.734077
v 1.516503 9.918989 0.734077
v 0.000000 9.918989 0.734077
v -5.096443 9.617609 0.734077
v -5.096443 9.617609 -0.734077
v -5.096443 8.080467 0.734077
v -5.096443 8.080467 -0.734077
vn -0.0000 -1.0000 -0.0000
vn -0.0000 -0.0000 -1.0000
vn -0.0000 -0.0000 1.0000
vn -0.0000 1.0000 -0.0000
vn 1.0000 -0.0000 -0.0000
vn -1.0000 -0.0000 -0.0000
vn 0.1823 0.9832 -0.0000
vn -0.9168 0.3993 -0.0000
vn -0.5958 -0.8031 -0.0000
vn -0.0904 0.9959 -0.0000
vn -0.0904 -0.9959 -0.0000
vt 0.125000 0.750000
vt 0.125000 0.500000
vt 0.375000 0.250000
vt 0.625000 0.500000
vt 0.375000 0.500000
vt 0.375000 0.750000
vt 0.625000 0.750000
vt 0.625000 1.000000
vt 0.375000 1.000000
vt 0.875000 0.500000
vt 0.625000 0.000000
vt 0.375000 0.000000
vt 0.625000 0.250000
vt 0.875000 0.750000
vt 0.625000 1.000000
vt 0.625000 0.250000
vt 0.625000 1.000000
vt 0.625000 0.250000
s 0
f 1/1/1 13/2/1 3/2/1
f 3/3/2 8/4/2 7/5/2
f 5/6/3 12/7/3 6/7/3
f 5/6/3 2/8/3 1/9/3
f 7/5/1 1/1/1 3/2/1
f 4/10/4 6/7/4 8/4/4
f 9/4/5 11/6/5 10/5/5
f 7/5/1 11/6/1 5/6/1
f 15/8/3 17/8/3 23/8/3
f 7/5/2 9/4/2 10/5/2
f 15/11/6 13/3/6 14/12/6
f 3/3/2 16/13/2 4/13/2
f 1/9/3 15/8/3 14/9/3
f 15/11/6 24/13/6 16/13/6
f 22/7/3 28/7/3 20/7/3
f 23/11/6 32/13/6 24/13/6
f 9/4/5 22/7/5 12/7/5
f 9/4/2 19/4/2 21/4/2
f 6/7/6 19/4/6 8/4/6
f 12/7/3 20/7/3 6/7/3
f 16/13/2 18/13/2 4/13/2
f 4/10/5 17/14/5 2/14/5
f 28/7/4 29/4/4 27/4/4
f 26/10/4 31/14/4 25/14/4
f 25/14/4 38/10/4 26/10/4
f 24/13/2 26/13/2 18/13/2
f 21/4/2 27/4/2 29/4/2
f 21/4/5 30/7/5 22/7/5
f 20/7/3 40/7/3 36/7/3
f 23/8/3 25/8/3 31/8/3
f 36/7/3 45/7/3 41/7/3
f 34/13/2 46/13/2 42/13/2
f 20/7/1 35/4/1 19/4/1
f 19/4/2 39/4/2 27/4/2
f 27/4/4 40/7/4 28/7/4
f 18/10/1 33/14/1 17/14/1
f 17/8/3 37/8/3 25/8/3
f 18/13/2 38/13/2 34/13/2
f 50/4/7 54/7/7 49/7/7
f 42/10/5 45/14/5 41/14/5
f 56/14/6 43/10/6 57/10/6
f 34/10/1 41/14/1 33/14/1
f 33/8/3 45/8/3 37/8/3
f 35/4/2 46/4/2 39/4/2
f 55/8/3 44/8/3 56/15/3
f 36/7/1 42/4/1 35/4/1
f 47/4/4 49/7/4 48/7/4
f 58/13/2 43/13/2 50/13/2
f 58/4/2 47/4/2 59/4/2
f 59/4/5 48/7/5 60/7/5
f 60/7/3 49/7/3 55/7/3
f 53/14/8 52/10/8 51/10/8
f 44/8/3 54/8/3 53/8/3
f 43/13/2 52/13/2 50/13/2
f 44/14/9 51/10/9 43/10/9
f 65/7/3 55/7/3 66/7/3
f 64/4/5 60/7/5 65/7/5
f 63/4/2 59/4/2 64/4/2
f 63/13/2 57/16/2 58/13/2
f 66/8/3 56/15/3 61/17/3
f 57/16/2 70/18/2 68/16/2
f 37/14/6 62/10/6 38/10/6
f 45/8/3 61/17/3 37/8/3
f 46/13/2 62/18/2 63/13/2
f 46/4/2 64/4/2 39/4/2
f 39/4/5 65/7/5 40/7/5
f 40/7/3 66/7/3 45/7/3
f 69/14/6 68/10/6 70/10/6
f 57/10/10 67/14/10 56/14/10
f 61/14/11 70/10/11 62/10/11
f 56/15/3 69/17/3 61/17/3
f 1/1/1 14/1/1 13/2/1
f 3/3/2 4/13/2 8/4/2
f 5/6/3 11/6/3 12/7/3
f 5/6/3 6/7/3 2/8/3
f 7/5/1 5/6/1 1/1/1
f 4/10/4 2/14/4 6/7/4
f 9/4/5 12/7/5 11/6/5
f 7/5/1 10/5/1 11/6/1
f 15/8/3 2/8/3 17/8/3
f 7/5/2 8/4/2 9/4/2
f 15/11/6 16/13/6 13/3/6
f 3/3/2 13/3/2 16/13/2
f 1/9/3 2/8/3 15/8/3
f 15/11/6 23/11/6 24/13/6
f 22/7/3 30/7/3 28/7/3
f 23/11/6 31/11/6 32/13/6
f 9/4/5 21/4/5 22/7/5
f 9/4/2 8/4/2 19/4/2
f 6/7/6 20/7/6 19/4/6
f 12/7/3 22/7/3 20/7/3
f 16/13/2 24/13/2 18/13/2
f 4/10/5 18/10/5 17/14/5
f 28/7/4 30/7/4 29/4/4
f 26/10/4 32/10/4 31/14/4
f 25/14/4 37/14/4 38/10/4
f 24/13/2 32/13/2 26/13/2
f 21/4/2 19/4/2 27/4/2
f 21/4/5 29/4/5 30/7/5
f 20/7/3 28/7/3 40/7/3
f 23/8/3 17/8/3 25/8/3
f 36/7/3 40/7/3 45/7/3
f 34/13/2 38/13/2 46/13/2
f 20/7/1 36/7/1 35/4/1
f 19/4/2 35/4/2 39/4/2
f 27/4/4 39/4/4 40/7/4
f 18/10/1 34/10/1 33/14/1
f 17/8/3 33/8/3 37/8/3
f 18/13/2 26/13/2 38/13/2
f 50/4/7 52/4/7 54/7/7
f 42/10/5 46/10/5 45/14/5
f 56/14/6 44/14/6 43/10/6
f 34/10/1 42/10/1 41/14/1
f 33/8/3 41/8/3 45/8/3
f 35/4/2 42/4/2 46/4/2
f 55/8/3 49/8/3 44/8/3
f 36/7/1 41/7/1 42/4/1
f 47/4/4 50/4/4 49/7/4
f 58/13/2 57/16/2 43/13/2
f 58/4/2 50/4/2 47/4/2
f 59/4/5 47/4/5 48/7/5
f 60/7/3 48/7/3 49/7/3
f 53/14/8 54/14/8 52/10/8
f 44/8/3 49/8/3 54/8/3
f 43/13/2 51/13/2 52/13/2
f 44/14/9 53/14/9 51/10/9
f 65/7/3 60/7/3 55/7/3
f 64/4/5 59/4/5 60/7/5
f 63/4/2 58/4/2 59/4/2
f 63/13/2 62/18/2 57/16/2
f 66/8/3 55/8/3 56/15/3
f 57/16/2 62/18/2 70/18/2
f 37/14/6 61/14/6 62/10/6
f 45/8/3 66/8/3 61/17/3
f 46/13/2 38/13/2 62/18/2
f 46/4/2 63/4/2 64/4/2
f 39/4/5 64/4/5 65/7/5
f 40/7/3 65/7/3 66/7/3
f 69/14/6 67/14/6 68/10/6
f 57/10/10 68/10/10 67/14/10
f 61/14/11 69/14/11 70/10/11
f 56/15/3 67/15/3 69/17/3
