# Blender 4.5.8 LTS
# www.blender.org
mtllib handgunAmmo.mtl
o 7.62Cal
v -8.857680 0.228415 3.672929
v -8.857680 9.509439 3.672927
v -8.857680 0.228415 -3.672927
v -8.857680 9.509439 -3.672929
v 10.653790 0.228415 3.672929
v 10.653790 9.509439 3.672927
v 10.653790 0.228415 -3.672927
v 10.653790 9.509439 -3.672929
vn 1.0000 -0.0000 -0.0000
vn -1.0000 -0.0000 -0.0000
vn -0.0000 -0.0000 -1.0000
vn -0.0000 -1.0000 -0.0000
vn -0.0000 1.0000 -0.0000
vn -0.0000 -0.0000 1.0000
vt 0.001613 0.434064
vt 0.374287 0.715637
vt 0.001613 0.715637
vt 0.001149 0.717081
vt 0.377021 0.999355
vt 0.001149 0.999355
vt 0.377738 0.495065
vt 1.001638 0.215158
vt 1.001638 0.495065
vt 0.379244 0.003341
vt 0.997074 0.231578
vt 0.379244 0.231578
vt 0.995907 0.713740
vt 0.379477 0.510063
vt 0.995907 0.510063
vt 0.379983 0.999583
vt 0.994647 0.715287
vt 0.994647 0.999583
vt 0.374287 0.434064
vt 0.377020 0.717081
vt 0.377738 0.215158
vt 0.997074 0.003341
vt 0.379477 0.713740
vt 0.379983 0.715287
s 1
usemtl 7.62Cal
f 6/1/1 7/2/1 8/3/1
f 4/4/2 1/5/2 2/6/2
f 8/7/3 3/8/3 4/9/3
f 3/10/4 5/11/4 1/12/4
f 2/13/5 8/14/5 4/15/5
f 2/16/6 5/17/6 6/18/6
f 6/1/1 5/19/1 7/2/1
f 4/4/2 3/20/2 1/5/2
f 8/7/3 7/21/3 3/8/3
f 3/10/4 7/22/4 5/11/4
f 2/13/5 6/23/5 8/14/5
f 2/16/6 1/24/6 5/17/6
