# Blender 4.5.9 LTS
# www.blender.org
mtllib Box_T.mtl
o Box_T
v -0.345100 -0.208747 0.224092
v -0.345100 0.208747 0.224092
v -0.345100 -0.208747 -0.224092
v -0.345100 0.208747 -0.224092
v 0.345100 -0.208747 0.224092
v 0.345100 0.208747 0.224092
v 0.345100 -0.208747 -0.224092
v 0.345100 0.208747 -0.224092
v -0.141268 -0.221328 -0.237598
v -0.141268 0.221328 -0.237598
v -0.141268 -0.221328 0.237598
v -0.141268 0.221328 0.237598
v 0.115363 0.206887 -0.222096
v 0.115363 -0.206887 0.222096
v 0.115363 -0.206887 -0.222096
v 0.115363 0.206887 0.222096
v -0.367044 -0.214911 -0.046984
v -0.367044 0.229130 -0.046984
v 0.367045 -0.214911 -0.046984
v 0.367045 0.229130 -0.046984
v -0.150251 0.242511 -0.050000
v -0.150251 -0.228292 -0.050000
v 0.122698 0.227152 -0.046538
v 0.122698 -0.212933 -0.046538
vn -0.9924 -0.0000 -0.1230
vn -0.0087 -0.0000 -1.0000
vn 0.9967 -0.0000 0.0807
vn -0.0661 -0.0000 0.9978
vn -0.0082 -0.9997 0.0222
vn -0.0086 0.9935 -0.1138
vn -0.0658 0.9908 -0.1185
vn -0.0623 -0.9977 0.0269
vn 0.0603 -0.0000 0.9982
vn -0.0661 -0.0000 -0.9978
vn -0.0087 -0.0000 1.0000
vn 0.0599 0.9918 -0.1129
vn 0.0567 -0.9981 0.0232
vn 0.0603 -0.0000 -0.9982
vn 0.0574 -0.9977 -0.0355
vn 0.0577 0.9956 0.0740
vn -0.0632 -0.9971 -0.0413
vn -0.0633 0.9950 0.0775
vn -0.0083 0.9972 0.0747
vn -0.0083 -0.9994 -0.0339
vn 0.9924 -0.0000 -0.1230
vn -0.9967 -0.0000 0.0807
vt 0.151368 0.804506
vt 0.358069 0.804506
vt 0.358069 0.716857
vt 0.151368 0.716857
vt 0.393860 0.113030
vt 0.584585 0.113030
vt 0.584585 0.014142
vt 0.393860 0.014142
vt 0.152673 0.804810
vt 0.356857 0.804810
vt 0.356857 0.937423
vt 0.152673 0.937423
vt 0.386633 0.254057
vt 0.593334 0.254057
vt 0.593334 0.348402
vt 0.386633 0.348402
vt 0.285616 0.113856
vt 0.285616 0.006684
vt 0.151368 0.006684
vt 0.151368 0.113856
vt 0.283830 0.117166
vt 0.283830 0.013345
vt 0.368738 0.013345
vt 0.368738 0.117166
vt 0.283830 0.344378
vt 0.283830 0.252983
vt 0.368738 0.252983
vt 0.368738 0.344378
vt 0.285616 0.348402
vt 0.285616 0.254057
vt 0.151368 0.254057
vt 0.151368 0.348402
vt 0.386633 0.113856
vt 0.593334 0.113856
vt 0.393860 0.329449
vt 0.584585 0.329449
vt 0.584585 0.242395
vt 0.393860 0.242395
vt 0.386633 0.006684
vt 0.593334 0.006684
vt 0.373264 0.254057
vt 0.373264 0.113856
vt 0.153780 0.252983
vt 0.153780 0.117166
vt 0.373264 0.348402
vt 0.153780 0.344378
vt 0.153780 0.013345
vt 0.373264 0.006684
vt 0.152673 0.718229
vt 0.356857 0.718229
vt 0.151368 0.938753
vt 0.358069 0.938753
s 0
usemtl Trash_01
f 17/1/1 18/2/1 4/3/1 3/4/1
f 15/5/2 13/6/2 8/7/2 7/8/2
f 19/9/3 20/10/3 6/11/3 5/12/3
f 11/13/4 12/14/4 2/15/4 1/16/4
f 24/17/5 19/18/5 5/19/5 14/20/5
f 23/21/6 20/22/6 8/23/6 13/24/6
f 18/25/7 21/26/7 10/27/7 4/28/7
f 17/29/8 22/30/8 11/31/8 1/32/8
f 14/33/9 16/34/9 12/14/9 11/13/9
f 3/35/10 4/36/10 10/37/10 9/38/10
f 5/39/11 6/40/11 16/34/11 14/33/11
f 21/26/12 23/21/12 13/24/12 10/27/12
f 22/30/13 24/17/13 14/20/13 11/31/13
f 9/38/14 10/37/14 13/6/14 15/5/14
f 9/41/15 15/42/15 24/17/15 22/30/15
f 12/43/16 16/44/16 23/21/16 21/26/16
f 3/45/17 9/41/17 22/30/17 17/29/17
f 2/46/18 12/43/18 21/26/18 18/25/18
f 16/44/19 6/47/19 20/22/19 23/21/19
f 15/42/20 7/48/20 19/18/20 24/17/20
f 7/49/21 8/50/21 20/10/21 19/9/21
f 1/51/22 2/52/22 18/2/22 17/1/22
