# Blender 4.5.9 LTS
# www.blender.org
mtllib Box_T_03.mtl
o Box_T_03
v -0.345100 -0.220862 0.224091
v -0.345100 0.196631 0.224091
v -0.345100 -0.220862 -0.224093
v -0.345100 0.196631 -0.224093
v 0.345100 -0.220862 0.224091
v 0.345100 0.196631 0.224091
v 0.345100 -0.220862 -0.224093
v 0.345100 0.196631 -0.224093
v -0.345100 0.098259 0.404696
v -0.345100 0.098259 -0.404693
v 0.345100 0.098259 0.404696
v 0.345100 0.098259 -0.404693
v -0.495141 0.098259 0.224091
v -0.495141 0.098259 -0.224093
v 0.495141 0.098259 0.224091
v 0.495141 0.098259 -0.224093
v -0.345100 -0.220862 0.224091
v -0.345100 0.196631 0.224091
v -0.345100 -0.220862 -0.224093
v -0.345100 0.196631 -0.224093
v 0.345100 -0.220862 0.224091
v 0.345100 0.196631 0.224091
v 0.345100 -0.220862 -0.224093
v 0.345100 0.196631 -0.224093
v -0.345100 0.098259 0.404696
v -0.345100 0.098259 -0.404693
v 0.345100 0.098259 0.404696
v 0.345100 0.098259 -0.404693
v -0.495141 0.098259 0.224091
v -0.495141 0.098259 -0.224093
v 0.495141 0.098259 0.224091
v 0.495141 0.098259 -0.224093
v -0.337826 -0.213589 0.216818
v -0.342021 0.208318 0.220536
v -0.337826 -0.213589 -0.216819
v -0.342021 0.208318 -0.220537
v 0.337826 -0.213589 0.216818
v 0.342021 0.208318 0.220536
v 0.337826 -0.213589 -0.216819
v 0.342021 0.208318 -0.220537
v -0.345100 0.109322 0.410722
v -0.345100 0.109322 -0.410719
v 0.345100 0.109322 0.410722
v 0.345100 0.109322 -0.410719
v -0.502049 0.108794 0.224091
v -0.502049 0.108794 -0.224093
v 0.502049 0.108794 0.224091
v 0.502049 0.108794 -0.224093
v -0.337826 -0.213589 0.216818
v -0.342021 0.208318 0.220536
v -0.337826 -0.213589 -0.216819
v -0.342021 0.208318 -0.220537
v 0.337826 -0.213589 0.216818
v 0.342021 0.208318 0.220536
v 0.337826 -0.213589 -0.216819
v 0.342021 0.208318 -0.220537
v -0.345100 0.109322 0.410722
v -0.345100 0.109322 -0.410719
v 0.345100 0.109322 0.410722
v 0.345100 0.109322 -0.410719
v -0.502049 0.108794 0.224091
v -0.502049 0.108794 -0.224093
v 0.502049 0.108794 0.224091
v 0.502049 0.108794 -0.224093
vn -1.0000 -0.0000 -0.0000
vn -0.0000 -0.0000 -1.0000
vn 1.0000 -0.0000 -0.0000
vn -0.0000 -0.0000 1.0000
vn -0.0000 -1.0000 -0.0000
vn -0.0000 -0.8782 -0.4783
vn -0.0000 -0.8782 0.4783
vn -0.5483 -0.8363 -0.0000
vn 0.5483 -0.8363 -0.0000
vn 1.0000 0.0099 -0.0000
vn -0.0000 0.0088 1.0000
vn -1.0000 0.0099 -0.0000
vn -0.0000 0.0088 -1.0000
vn -0.0000 1.0000 -0.0000
vn -0.0000 0.8870 0.4617
vn -0.0000 0.8870 -0.4617
vn 0.5281 0.8492 -0.0000
vn -0.5281 0.8492 -0.0000
vn -0.0000 -0.4783 -0.8782
vn -0.0000 -0.4783 0.8782
vn -0.9900 0.1275 0.0597
vn 0.9900 0.1275 0.0597
vn 0.9900 0.1275 -0.0597
vn -0.9900 0.1275 -0.0597
vn -0.8363 -0.5483 -0.0000
vn 0.8363 -0.5483 -0.0000
vn 0.0806 0.1439 0.9863
vn 0.0806 0.1439 -0.9863
vn -0.0806 0.1439 -0.9863
vn -0.0806 0.1439 0.9863
vt 0.151368 0.938753
vt 0.358069 0.938753
vt 0.358069 0.716857
vt 0.151368 0.716857
vt 0.393860 0.329449
vt 0.584585 0.329449
vt 0.584585 0.014142
vt 0.393860 0.014142
vt 0.152673 0.718229
vt 0.356857 0.718229
vt 0.356857 0.937423
vt 0.152673 0.937423
vt 0.386633 0.006684
vt 0.593334 0.006684
vt 0.593334 0.348402
vt 0.386633 0.348402
vt 0.373264 0.348402
vt 0.373264 0.006684
vt 0.151368 0.006684
vt 0.151368 0.348402
vt 0.696120 0.348402
vt 0.696120 0.006684
vt 0.606702 0.006684
vt 0.606702 0.348402
vt 0.479777 0.361771
vt 0.479777 0.703489
vt 0.569192 0.703489
vt 0.569192 0.361771
vt 0.006684 0.591813
vt 0.006684 0.813709
vt 0.080970 0.813709
vt 0.080970 0.591813
vt 0.820907 0.851508
vt 0.820907 0.629612
vt 0.746621 0.629612
vt 0.746621 0.851508
s 0
usemtl Trash_01
f 1/1/1 2/2/1 4/3/1 3/4/1
f 3/5/2 4/6/2 8/7/2 7/8/2
f 7/9/3 8/10/3 6/11/3 5/12/3
f 5/13/4 6/14/4 2/15/4 1/16/4
f 3/17/5 7/18/5 5/19/5 1/20/5
f 2/21/6 6/22/6 11/23/6 9/24/6
f 8/25/7 4/26/7 10/27/7 12/28/7
f 6/29/8 8/30/8 16/31/8 15/32/8
f 4/33/9 2/34/9 13/35/9 14/36/9
f 17/1/1 18/2/1 20/3/1 19/4/1
f 19/5/2 20/6/2 24/7/2 23/8/2
f 23/9/3 24/10/3 22/11/3 21/12/3
f 21/13/4 22/14/4 18/15/4 17/16/4
f 19/17/5 23/18/5 21/19/5 17/20/5
f 18/21/6 22/22/6 27/23/6 25/24/6
f 24/25/7 20/26/7 26/27/7 28/28/7
f 22/29/8 24/30/8 32/31/8 31/32/8
f 20/33/9 18/34/9 29/35/9 30/36/9
f 33/1/10 35/4/10 36/3/10 34/2/10
f 35/5/11 39/8/11 40/7/11 36/6/11
f 39/9/12 37/12/12 38/11/12 40/10/12
f 37/13/13 33/16/13 34/15/13 38/14/13
f 35/17/14 33/20/14 37/19/14 39/18/14
f 34/21/15 41/24/15 43/23/15 38/22/15
f 40/25/16 44/28/16 42/27/16 36/26/16
f 38/29/17 47/32/17 48/31/17 40/30/17
f 36/33/18 46/36/18 45/35/18 34/34/18
f 49/1/10 51/4/10 52/3/10 50/2/10
f 51/5/11 55/8/11 56/7/11 52/6/11
f 55/9/12 53/12/12 54/11/12 56/10/12
f 53/13/13 49/16/13 50/15/13 54/14/13
f 51/17/14 49/20/14 53/19/14 55/18/14
f 50/21/15 57/24/15 59/23/15 54/22/15
f 56/25/16 60/28/16 58/27/16 52/26/16
f 54/29/17 63/32/17 64/31/17 56/30/17
f 52/33/18 62/36/18 61/35/18 50/34/18
f 12/28/19 10/27/19 42/27/19 44/28/19
f 9/24/20 11/23/20 43/23/20 41/24/20
f 2/21/21 9/24/21 41/24/21 34/21/21
f 11/23/22 6/22/22 38/22/22 43/23/22
f 8/25/23 12/28/23 44/28/23 40/25/23
f 10/27/24 4/26/24 36/26/24 42/27/24
f 14/36/25 13/35/25 45/35/25 46/36/25
f 15/32/26 16/31/26 48/31/26 47/32/26
f 6/29/27 15/32/27 47/32/27 38/29/27
f 16/31/28 8/30/28 40/30/28 48/31/28
f 4/33/29 14/36/29 46/36/29 36/33/29
f 13/35/30 2/34/30 34/34/30 45/35/30
f 28/28/19 26/27/19 58/27/19 60/28/19
f 25/24/20 27/23/20 59/23/20 57/24/20
f 18/21/21 25/24/21 57/24/21 50/21/21
f 27/23/22 22/22/22 54/22/22 59/23/22
f 24/25/23 28/28/23 60/28/23 56/25/23
f 26/27/24 20/26/24 52/26/24 58/27/24
f 30/36/25 29/35/25 61/35/25 62/36/25
f 31/32/26 32/31/26 64/31/26 63/32/26
f 22/29/27 31/32/27 63/32/27 54/29/27
f 32/31/28 24/30/28 56/30/28 64/31/28
f 20/33/29 30/36/29 62/36/29 52/33/29
f 29/35/30 18/34/30 50/34/30 61/35/30
