# Blender 4.5.9 LTS
# www.blender.org
mtllib Box_T_01.mtl
o Box_T_01
v -0.344272 -0.090259 0.196436
v -0.344272 0.129605 0.196436
v -0.344272 -0.097728 -0.183387
v -0.311046 0.092282 -0.178590
v 0.345927 -0.091391 0.196436
v 0.333810 0.065016 0.158955
v 0.345927 -0.090401 -0.183387
v 0.345927 0.119441 -0.183387
v 0.120084 -0.102843 -0.183387
v 0.120084 0.130678 -0.183387
v 0.120084 -0.090810 0.196436
v 0.107967 0.056274 0.158955
v -0.112094 -0.095086 -0.183387
v -0.112094 0.119496 0.196436
v -0.112094 0.106736 -0.183387
v -0.112094 -0.100371 0.196436
v -0.344272 -0.093353 0.006525
v -0.311046 0.107679 0.011321
v 0.345927 -0.092527 0.006525
v 0.345927 0.126601 0.006525
v 0.120084 0.074195 0.006525
v 0.120084 -0.119538 0.006525
v -0.112094 -0.102046 0.006525
v -0.112094 0.074195 0.006525
vn -0.9858 0.1677 -0.0087
vn -0.0000 -0.0000 -1.0000
vn 0.9985 0.0364 0.0418
vn -0.0000 -0.0000 1.0000
vn 0.0582 -0.9952 0.0782
vn -0.0900 0.9876 0.1283
vn -0.0501 0.9724 0.2279
vn -0.0170 -0.9967 0.0798
vn -0.0043 0.2395 0.9709
vn -0.0116 0.0132 -0.9998
vn -0.0405 -0.9991 0.0125
vn 0.0488 0.9978 0.0450
vn 0.0944 0.1042 0.9901
vn 0.0973 0.9811 -0.1672
vn -0.0130 -0.9999 -0.0068
vn -0.0542 -0.9966 -0.0621
vn 0.1320 0.9885 -0.0744
vn -0.1302 0.9619 0.2405
vn 0.0869 -0.9950 -0.0493
vn 1.0000 -0.0000 -0.0000
vn -0.9925 0.0794 -0.0932
vt 0.371437 0.810883
vt 0.485058 0.810883
vt 0.485058 0.716858
vt 0.371437 0.716858
vt 0.354595 0.475902
vt 0.464463 0.475903
vt 0.464463 0.367781
vt 0.354595 0.367781
vt 0.372278 0.809777
vt 0.480662 0.809777
vt 0.480662 0.899469
vt 0.372278 0.899469
vt 0.352787 0.588537
vt 0.466408 0.588537
vt 0.466408 0.703489
vt 0.352787 0.703489
vt 0.245393 0.473586
vt 0.245393 0.361771
vt 0.151368 0.361771
vt 0.151368 0.473586
vt 0.246014 0.474996
vt 0.246014 0.365118
vt 0.338410 0.365118
vt 0.338410 0.474996
vt 0.246014 0.587956
vt 0.338410 0.587956
vt 0.245393 0.588537
vt 0.151368 0.588537
vt 0.352787 0.361771
vt 0.466408 0.361771
vt 0.466408 0.473586
vt 0.352787 0.473586
vt 0.354595 0.587057
vt 0.464463 0.587057
vt 0.354595 0.698212
vt 0.464463 0.698212
vt 0.245393 0.703489
vt 0.151368 0.703489
vt 0.246014 0.700916
vt 0.338410 0.700916
vt 0.153617 0.700916
vt 0.153617 0.587956
vt 0.339418 0.703489
vt 0.339418 0.588537
vt 0.339418 0.473586
vt 0.153617 0.474996
vt 0.153617 0.365118
vt 0.339418 0.361771
vt 0.372278 0.720086
vt 0.480662 0.720086
vt 0.371437 0.904908
vt 0.485058 0.904908
s 0
usemtl Trash_01
f 17/1/1 18/2/1 4/3/1 3/4/1
f 9/5/2 10/6/2 8/7/2 7/8/2
f 19/9/3 20/10/3 6/11/3 5/12/3
f 16/13/4 14/14/4 2/15/4 1/16/4
f 22/17/5 19/18/5 5/19/5 11/20/5
f 21/21/6 20/22/6 8/23/6 10/24/6
f 24/25/7 21/21/7 10/24/7 15/26/7
f 23/27/8 22/17/8 11/20/8 16/28/8
f 5/29/9 6/30/9 12/31/9 11/32/9
f 13/33/2 15/34/2 10/6/2 9/5/2
f 3/35/10 4/36/10 15/34/10 13/33/10
f 17/37/11 23/27/11 16/28/11 1/38/11
f 18/39/12 24/25/12 15/26/12 4/40/12
f 11/32/13 12/31/13 14/14/13 16/13/13
f 2/41/14 14/42/14 24/25/14 18/39/14
f 3/43/15 13/44/15 23/27/15 17/37/15
f 13/44/16 9/45/16 22/17/16 23/27/16
f 14/42/17 12/46/17 21/21/17 24/25/17
f 12/46/18 6/47/18 20/22/18 21/21/18
f 9/45/19 7/48/19 19/18/19 22/17/19
f 7/49/20 8/50/20 20/10/20 19/9/20
f 1/51/21 2/52/21 18/2/21 17/1/21
