# Blender 4.5.9 LTS
# www.blender.org
mtllib Box_T_02.mtl
o Box_T_02
v -0.345100 -0.116091 0.189910
v -0.345100 0.113399 0.189910
v -0.345100 -0.116091 -0.189913
v -0.345100 0.113399 -0.189913
v 0.345100 -0.116091 0.189910
v 0.345100 0.113399 0.189910
v 0.345100 -0.116091 -0.189913
v 0.345100 0.113399 -0.189913
v -0.345100 0.022046 0.328596
v -0.345100 0.022046 -0.328591
v 0.345100 0.022046 0.328596
v 0.345100 0.022046 -0.328591
v -0.468387 0.022046 0.189910
v -0.468387 0.022046 -0.189913
v 0.468387 0.022046 0.189910
v 0.468387 0.022046 -0.189913
v -0.337826 -0.108818 0.182637
v -0.342181 0.125217 0.186665
v -0.337826 -0.108818 -0.182640
v -0.342181 0.125217 -0.186669
v 0.337826 -0.108818 0.182637
v 0.342181 0.125217 0.186665
v 0.337826 -0.108818 -0.182640
v 0.342181 0.125217 -0.186669
v -0.345100 0.032566 0.335526
v -0.345100 0.032566 -0.335521
v 0.345100 0.032566 0.335526
v 0.345100 0.032566 -0.335521
v -0.475887 0.032168 0.189910
v -0.475887 0.032168 -0.189913
v 0.475887 0.032168 0.189910
v 0.475887 0.032168 -0.189913
vn -1.0000 -0.0000 -0.0000
vn -0.0000 -0.0000 -1.0000
vn 1.0000 -0.0000 -0.0000
vn -0.0000 -0.0000 1.0000
vn -0.0000 -1.0000 -0.0000
vn -0.0000 -0.8351 -0.5501
vn -0.0000 -0.8351 0.5501
vn -0.5954 -0.8035 -0.0000
vn 0.5954 -0.8035 -0.0000
vn 0.9998 0.0186 -0.0000
vn -0.0000 0.0172 0.9999
vn -0.9998 0.0186 -0.0000
vn -0.0000 0.0172 -0.9999
vn -0.0000 1.0000 -0.0000
vn -0.0000 0.8490 0.5284
vn -0.0000 0.8490 -0.5284
vn 0.5712 0.8208 -0.0000
vn -0.5712 0.8208 -0.0000
vn -0.0000 -0.5501 -0.8351
vn -0.0000 -0.5501 0.8351
vn -0.9908 0.1186 0.0658
vn 0.9908 0.1186 0.0658
vn 0.9908 0.1186 -0.0658
vn -0.9908 0.1186 -0.0658
vn -0.8035 -0.5954 -0.0000
vn 0.8035 -0.5953 -0.0000
vn 0.0804 0.1294 0.9883
vn 0.0804 0.1294 -0.9883
vn -0.0804 0.1294 -0.9883
vn -0.0804 0.1294 0.9883
vt 0.371437 0.904908
vt 0.485058 0.904908
vt 0.485058 0.716858
vt 0.371437 0.716858
vt 0.354595 0.698212
vt 0.464463 0.698212
vt 0.464463 0.367781
vt 0.354595 0.367781
vt 0.372278 0.720086
vt 0.480662 0.720086
vt 0.480662 0.899469
vt 0.372278 0.899469
vt 0.352787 0.361771
vt 0.466408 0.361771
vt 0.466408 0.703489
vt 0.352787 0.703489
vt 0.339418 0.703489
vt 0.339418 0.361771
vt 0.151368 0.361771
vt 0.151368 0.703489
vt 0.651224 0.703489
vt 0.651224 0.361771
vt 0.582561 0.361771
vt 0.582561 0.703489
vt 0.664593 0.361771
vt 0.664593 0.703489
vt 0.733253 0.703489
vt 0.733253 0.361771
vt 0.820666 0.361771
vt 0.820666 0.549822
vt 0.881706 0.549822
vt 0.881706 0.361771
vt 0.895315 0.817663
vt 0.895315 0.629612
vt 0.834276 0.629612
vt 0.834276 0.817663
s 0
usemtl Trash_01
f 1/1/1 2/2/1 4/3/1 3/4/1
f 3/5/2 4/6/2 8/7/2 7/8/2
f 7/9/3 8/10/3 6/11/3 5/12/3
f 5/13/4 6/14/4 2/15/4 1/16/4
f 3/17/5 7/18/5 5/19/5 1/20/5
f 2/21/6 6/22/6 11/23/6 9/24/6
f 8/25/7 4/26/7 10/27/7 12/28/7
f 6/29/8 8/30/8 16/31/8 15/32/8
f 4/33/9 2/34/9 13/35/9 14/36/9
f 17/1/10 19/4/10 20/3/10 18/2/10
f 19/5/11 23/8/11 24/7/11 20/6/11
f 23/9/12 21/12/12 22/11/12 24/10/12
f 21/13/13 17/16/13 18/15/13 22/14/13
f 19/17/14 17/20/14 21/19/14 23/18/14
f 18/21/15 25/24/15 27/23/15 22/22/15
f 24/25/16 28/28/16 26/27/16 20/26/16
f 22/29/17 31/32/17 32/31/17 24/30/17
f 20/33/18 30/36/18 29/35/18 18/34/18
f 12/28/19 10/27/19 26/27/19 28/28/19
f 9/24/20 11/23/20 27/23/20 25/24/20
f 2/21/21 9/24/21 25/24/21 18/21/21
f 11/23/22 6/22/22 22/22/22 27/23/22
f 8/25/23 12/28/23 28/28/23 24/25/23
f 10/27/24 4/26/24 20/26/24 26/27/24
f 14/36/25 13/35/25 29/35/25 30/36/25
f 15/32/26 16/31/26 32/31/26 31/32/26
f 6/29/27 15/32/27 31/32/27 22/29/27
f 16/31/28 8/30/28 24/30/28 32/31/28
f 4/33/29 14/36/29 30/36/29 20/33/29
f 13/35/30 2/34/30 18/34/30 29/35/30
