# Blender 4.5.9 LTS
# www.blender.org
mtllib Brick.mtl
o Brick
v 0.103164 0.034304 -0.051809
v 0.103164 -0.034304 -0.051809
v 0.103164 0.034304 0.051809
v 0.103164 -0.034304 0.051809
v -0.103164 0.034304 -0.051809
v -0.103164 -0.034304 -0.051809
v -0.103164 0.034304 0.051809
v -0.103164 -0.034304 0.051809
vn 1.0000 -0.0000 -0.0000
vn -0.0000 -0.0000 1.0000
vn -1.0000 -0.0000 -0.0000
vn -0.0000 -0.0000 -1.0000
vn -0.0000 1.0000 -0.0000
vn -0.0000 -1.0000 -0.0000
vt 0.123885 0.752101
vt 0.123885 0.796725
vt 0.094339 0.796725
vt 0.094339 0.752101
vt 0.723896 0.716857
vt 0.723896 0.805714
vt 0.694349 0.805714
vt 0.694349 0.716857
vt 0.850213 0.607814
vt 0.850213 0.563190
vt 0.820666 0.563190
vt 0.820666 0.607814
vt 0.680981 0.805714
vt 0.680981 0.716858
vt 0.651434 0.716858
vt 0.651434 0.805714
vt 0.593442 0.716858
vt 0.638066 0.716858
vt 0.638066 0.805714
vt 0.593442 0.805714
vt 0.535449 0.805714
vt 0.580073 0.805714
vt 0.580073 0.716858
vt 0.535449 0.716858
s 0
usemtl Trash_01
f 1/1/1 3/2/1 4/3/1 2/4/1
f 3/5/2 7/6/2 8/7/2 4/8/2
f 7/9/3 5/10/3 6/11/3 8/12/3
f 5/13/4 1/14/4 2/15/4 6/16/4
f 3/17/5 1/18/5 5/19/5 7/20/5
f 8/21/6 6/22/6 2/23/6 4/24/6
