# Blender 4.5.9 LTS
# www.blender.org
mtllib Bricks.mtl
o Bricks
v -0.063137 0.090316 -0.147174
v -0.039219 0.026810 -0.137074
v -0.103447 0.090316 -0.051719
v -0.079529 0.026810 -0.041618
v -0.239076 0.012235 -0.221472
v -0.215158 -0.051271 -0.211371
v -0.279386 0.012235 -0.126016
v -0.255468 -0.051271 -0.115916
v 0.004791 0.016691 0.059150
v 0.004791 -0.051916 0.059150
v 0.004791 0.016691 0.162768
v 0.004791 -0.051916 0.162768
v -0.151692 0.016691 0.059150
v -0.201537 -0.051916 0.059150
v -0.151692 0.016691 0.162768
v -0.201537 -0.051916 0.162768
v -0.014985 0.016691 -0.222553
v -0.014985 -0.051916 -0.222553
v 0.029797 0.019115 -0.151695
v 0.075772 -0.051916 -0.172556
v -0.114541 0.016691 -0.041833
v -0.114541 -0.051916 -0.041833
v -0.023784 0.016691 0.008164
v -0.023784 -0.051916 0.008164
v 0.011484 0.016691 0.108174
v 0.011484 -0.051916 0.108174
v 0.077633 0.016691 0.028419
v 0.077633 -0.051916 0.028419
v 0.168034 0.019756 0.231069
v 0.170296 -0.051916 0.239893
v 0.188241 0.005544 0.130439
v 0.236445 -0.051916 0.160138
v 0.033161 0.016691 0.025720
v 0.033161 -0.051917 0.025720
v 0.031450 0.016691 -0.077883
v 0.031450 -0.051917 -0.077883
v 0.239461 0.016691 0.022314
v 0.239461 -0.051917 0.022314
v 0.237750 0.016691 -0.081290
v 0.194336 -0.051917 -0.081290
v -0.009218 0.082856 0.060246
v -0.035840 0.016624 0.123717
v -0.096359 0.085231 0.039610
v -0.096359 0.016624 0.039610
v 0.131639 0.085231 0.003209
v 0.131639 0.016624 0.003209
v 0.071120 0.085231 -0.080898
v 0.071120 0.016624 -0.080898
vn 0.8527 0.3784 0.3601
vn -0.3890 -0.0000 0.9212
vn -0.8527 -0.3784 -0.3601
vn 0.3890 -0.0000 -0.9212
vn -0.3486 0.9256 -0.1472
vn 0.3486 -0.9256 0.1472
vn 1.0000 -0.0000 -0.0000
vn -0.0000 -0.0000 1.0000
vn -0.8090 0.5878 -0.0000
vn -0.0000 -0.0000 -1.0000
vn -0.0000 1.0000 -0.0000
vn -0.0000 -1.0000 -0.0000
vn 0.6289 0.3134 -0.7116
vn 0.8865 0.2321 0.4003
vn -0.4825 -0.0000 0.8759
vn -0.8759 -0.0000 -0.4825
vn -0.0173 0.9999 -0.0007
vn -0.7697 -0.0000 -0.6384
vn 0.6553 0.0734 -0.7518
vn 0.8267 0.4310 0.3618
vn -0.6279 0.0388 0.7773
vn 0.0686 0.9966 -0.0457
vn -0.9999 -0.0000 0.0165
vn -0.0185 0.0058 -0.9998
vn 0.9320 -0.2949 -0.2107
vn 0.0165 -0.0000 0.9999
vn -0.5129 0.4464 0.7332
vn -0.5841 -0.0000 -0.8117
vn 0.8117 -0.0000 -0.5841
vn 0.4749 0.2963 0.8287
vn 0.0030 0.9998 0.0185
vt 0.123885 0.752101
vt 0.123885 0.796725
vt 0.094339 0.796725
vt 0.094339 0.752101
vt 0.723896 0.716857
vt 0.723896 0.805714
vt 0.694349 0.805714
vt 0.694349 0.716857
vt 0.850213 0.607814
vt 0.850213 0.563190
vt 0.820666 0.563190
vt 0.820666 0.607814
vt 0.680981 0.805714
vt 0.680981 0.716858
vt 0.651434 0.716858
vt 0.651434 0.805714
vt 0.593442 0.716858
vt 0.638066 0.716858
vt 0.638066 0.805714
vt 0.593442 0.805714
vt 0.535449 0.805714
vt 0.580073 0.805714
vt 0.580073 0.716858
vt 0.535449 0.716858
s 0
usemtl Trash_01
f 1/1/1 3/2/1 4/3/1 2/4/1
f 3/5/2 7/6/2 8/7/2 4/8/2
f 7/9/3 5/10/3 6/11/3 8/12/3
f 5/13/4 1/14/4 2/15/4 6/16/4
f 3/17/5 1/18/5 5/19/5 7/20/5
f 8/21/6 6/22/6 2/23/6 4/24/6
f 9/1/7 11/2/7 12/3/7 10/4/7
f 11/5/8 15/6/8 16/7/8 12/8/8
f 15/9/9 13/10/9 14/11/9 16/12/9
f 13/13/10 9/14/10 10/15/10 14/16/10
f 11/17/11 9/18/11 13/19/11 15/20/11
f 16/21/12 14/22/12 10/23/12 12/24/12
f 17/1/13 19/2/13 20/3/13 18/4/13
f 19/5/14 23/6/14 24/7/14 20/8/14
f 23/9/15 21/10/15 22/11/15 24/12/15
f 21/13/16 17/14/16 18/15/16 22/16/16
f 19/17/17 17/18/17 21/19/17 23/20/17
f 24/21/12 22/22/12 18/23/12 20/24/12
f 25/1/18 27/2/18 28/3/18 26/4/18
f 27/5/19 31/6/19 32/7/19 28/8/19
f 31/9/20 29/10/20 30/11/20 32/12/20
f 29/13/21 25/14/21 26/15/21 30/16/21
f 27/17/22 25/18/22 29/19/22 31/20/22
f 32/21/12 30/22/12 26/23/12 28/24/12
f 33/1/23 35/2/23 36/3/23 34/4/23
f 35/5/24 39/6/24 40/7/24 36/8/24
f 39/9/25 37/10/25 38/11/25 40/12/25
f 37/13/26 33/14/26 34/15/26 38/16/26
f 35/17/11 33/18/11 37/19/11 39/20/11
f 40/21/12 38/22/12 34/23/12 36/24/12
f 41/1/27 43/2/27 44/3/27 42/4/27
f 43/5/28 47/6/28 48/7/28 44/8/28
f 47/9/29 45/10/29 46/11/29 48/12/29
f 45/13/30 41/14/30 42/15/30 46/16/30
f 43/17/31 41/18/31 45/19/31 47/20/31
f 48/21/12 46/22/12 42/23/12 44/24/12
