# Blender 4.5.9 LTS
# www.blender.org
mtllib Cylinder.mtl
o Cylinder
v 0.000000 -3.221735 0.387535
v 0.000000 3.038133 0.387535
v 0.033167 -3.221735 0.411632
v 0.033167 3.038133 0.411632
v 0.020498 -3.221735 0.450622
v 0.020498 3.038133 0.450622
v -0.020498 -3.221735 0.450622
v -0.020498 3.038133 0.450622
v -0.033167 -3.221735 0.411632
v -0.033167 3.038133 0.411632
v 0.499725 -4.419161 0.387535
v 0.532892 -4.419161 0.411632
v 0.520223 -4.419161 0.450622
v 0.479227 -4.419161 0.450622
v 0.466558 -4.419161 0.411632
v 0.000000 -3.221735 -0.387535
v 0.000000 3.038133 -0.387535
v 0.033167 -3.221735 -0.411632
v 0.033167 3.038133 -0.411632
v 0.020498 -3.221735 -0.450622
v 0.020498 3.038133 -0.450622
v -0.020498 -3.221735 -0.450622
v -0.020498 3.038133 -0.450622
v -0.033167 -3.221735 -0.411632
v -0.033167 3.038133 -0.411632
v 0.499725 -4.419161 -0.387535
v 0.532892 -4.419161 -0.411632
v 0.520223 -4.419161 -0.450622
v 0.479227 -4.419161 -0.450622
v 0.466558 -4.419161 -0.411632
v -0.000000 -3.103441 -0.425060
v -0.000000 -3.103441 0.425062
v 0.025628 -3.122061 -0.425060
v 0.025628 -3.122061 0.425062
v 0.015839 -3.152189 -0.425060
v 0.015839 -3.152189 0.425062
v -0.015839 -3.152189 -0.425060
v -0.015839 -3.152189 0.425062
v -0.025629 -3.122061 -0.425060
v -0.025629 -3.122061 0.425062
v -0.000000 -2.615962 -0.425060
v -0.000000 -2.615962 0.425062
v 0.025628 -2.634582 -0.425060
v 0.025628 -2.634582 0.425062
v 0.015839 -2.664710 -0.425060
v 0.015839 -2.664710 0.425062
v -0.015839 -2.664710 -0.425060
v -0.015839 -2.664710 0.425062
v -0.025629 -2.634582 -0.425060
v -0.025629 -2.634582 0.425062
v -0.000000 -2.128483 -0.425060
v -0.000000 -2.128483 0.425062
v 0.025628 -2.147103 -0.425060
v 0.025628 -2.147103 0.425062
v 0.015839 -2.177231 -0.425060
v 0.015839 -2.177231 0.425062
v -0.015839 -2.177231 -0.425060
v -0.015839 -2.177231 0.425062
v -0.025629 -2.147103 -0.425060
v -0.025629 -2.147103 0.425062
v -0.000000 -1.641003 -0.425060
v -0.000000 -1.641003 0.425062
v 0.025628 -1.659624 -0.425060
v 0.025628 -1.659624 0.425062
v 0.015839 -1.689751 -0.425060
v 0.015839 -1.689751 0.425062
v -0.015839 -1.689751 -0.425060
v -0.015839 -1.689751 0.425062
v -0.025629 -1.659624 -0.425060
v -0.025629 -1.659624 0.425062
v -0.000000 -1.153524 -0.425060
v -0.000000 -1.153524 0.425062
v 0.025628 -1.172144 -0.425060
v 0.025628 -1.172144 0.425062
v 0.015839 -1.202272 -0.425060
v 0.015839 -1.202272 0.425062
v -0.015839 -1.202272 -0.425060
v -0.015839 -1.202272 0.425062
v -0.025629 -1.172144 -0.425060
v -0.025629 -1.172144 0.425062
v -0.000000 -0.666045 -0.425060
v -0.000000 -0.666045 0.425062
v 0.025628 -0.684665 -0.425060
v 0.025628 -0.684665 0.425062
v 0.015839 -0.714793 -0.425060
v 0.015839 -0.714793 0.425062
v -0.015839 -0.714793 -0.425060
v -0.015839 -0.714793 0.425062
v -0.025629 -0.684665 -0.425060
v -0.025629 -0.684665 0.425062
v -0.000000 -0.178565 -0.425060
v -0.000000 -0.178565 0.425062
v 0.025628 -0.197186 -0.425060
v 0.025628 -0.197186 0.425062
v 0.015839 -0.227313 -0.425060
v 0.015839 -0.227313 0.425062
v -0.015839 -0.227313 -0.425060
v -0.015839 -0.227313 0.425062
v -0.025629 -0.197186 -0.425060
v -0.025629 -0.197186 0.425062
v -0.000000 0.308914 -0.425060
v -0.000000 0.308914 0.425062
v 0.025628 0.290294 -0.425060
v 0.025628 0.290294 0.425062
v 0.015839 0.260166 -0.425060
v 0.015839 0.260166 0.425062
v -0.015839 0.260166 -0.425060
v -0.015839 0.260166 0.425062
v -0.025629 0.290294 -0.425060
v -0.025629 0.290294 0.425062
v -0.000000 0.796393 -0.425060
v -0.000000 0.796393 0.425062
v 0.025628 0.777773 -0.425060
v 0.025628 0.777773 0.425062
v 0.015839 0.747645 -0.425060
v 0.015839 0.747645 0.425062
v -0.015839 0.747645 -0.425060
v -0.015839 0.747645 0.425062
v -0.025629 0.777773 -0.425060
v -0.025629 0.777773 0.425062
v -0.000000 1.283873 -0.425060
v -0.000000 1.283873 0.425062
v 0.025628 1.265253 -0.425060
v 0.025628 1.265253 0.425062
v 0.015839 1.235125 -0.425060
v 0.015839 1.235125 0.425062
v -0.015839 1.235125 -0.425060
v -0.015839 1.235125 0.425062
v -0.025629 1.265253 -0.425060
v -0.025629 1.265253 0.425062
v -0.000000 1.771352 -0.425060
v -0.000000 1.771352 0.425062
v 0.025628 1.752732 -0.425060
v 0.025628 1.752732 0.425062
v 0.015839 1.722604 -0.425060
v 0.015839 1.722604 0.425062
v -0.015839 1.722604 -0.425060
v -0.015839 1.722604 0.425062
v -0.025629 1.752732 -0.425060
v -0.025629 1.752732 0.425062
v -0.000000 2.258832 -0.425060
v -0.000000 2.258832 0.425062
v 0.025628 2.240211 -0.425060
v 0.025628 2.240211 0.425062
v 0.015839 2.210084 -0.425060
v 0.015839 2.210084 0.425062
v -0.015839 2.210084 -0.425060
v -0.015839 2.210084 0.425062
v -0.025629 2.240211 -0.425060
v -0.025629 2.240211 0.425062
v -0.000000 2.746311 -0.425060
v -0.000000 2.746311 0.425062
v 0.025628 2.727691 -0.425060
v 0.025628 2.727691 0.425062
v 0.015839 2.697563 -0.425060
v 0.015839 2.697563 0.425062
v -0.015839 2.697563 -0.425060
v -0.015839 2.697563 0.425062
v -0.025629 2.727691 -0.425060
v -0.025629 2.727691 0.425062
v 0.156732 -3.594713 -0.425060
v 0.156732 -3.594713 0.425062
v 0.125950 -3.587232 -0.425060
v 0.125950 -3.587232 0.425062
v 0.123553 -3.555644 -0.425060
v 0.123553 -3.555644 0.425062
v 0.152854 -3.543604 -0.425060
v 0.152854 -3.543604 0.425062
v 0.173360 -3.567750 -0.425060
v 0.173360 -3.567750 0.425062
v 0.342015 -4.045608 -0.425060
v 0.342015 -4.045608 0.425062
v 0.311233 -4.038126 -0.425060
v 0.311233 -4.038126 0.425062
v 0.308837 -4.006539 -0.425060
v 0.308837 -4.006539 0.425062
v 0.338138 -3.994498 -0.425060
v 0.338138 -3.994498 0.425062
v 0.358643 -4.018645 -0.425060
v 0.358643 -4.018645 0.425062
v -0.121660 2.804059 0.435902
v -0.121660 2.840124 0.435902
v -0.121660 2.804059 0.399837
v -0.121660 2.840124 0.399837
v 0.001551 2.804059 0.435902
v 0.001551 2.840124 0.435902
v 0.001551 2.804059 0.399837
v 0.001551 2.840124 0.399837
v -0.121660 2.804059 -0.400417
v -0.121660 2.840124 -0.400417
v -0.121660 2.804059 -0.436482
v -0.121660 2.840124 -0.436482
v 0.001551 2.804059 -0.400417
v 0.001551 2.840124 -0.400417
v 0.001551 2.804059 -0.436482
v 0.001551 2.840124 -0.436482
v -0.121660 0.964715 0.435902
v -0.121660 1.000781 0.435902
v -0.121660 0.964715 0.399837
v -0.121660 1.000781 0.399837
v 0.001551 0.964715 0.435902
v 0.001551 1.000781 0.435902
v 0.001551 0.964715 0.399837
v 0.001551 1.000781 0.399837
v -0.121660 0.964715 -0.400417
v -0.121660 1.000781 -0.400417
v -0.121660 0.964715 -0.436482
v -0.121660 1.000781 -0.436482
v 0.001551 0.964715 -0.400417
v 0.001551 1.000781 -0.400417
v 0.001551 0.964715 -0.436482
v 0.001551 1.000781 -0.436482
v -0.121660 -0.874629 0.435902
v -0.121660 -0.838563 0.435902
v -0.121660 -0.874629 0.399837
v -0.121660 -0.838563 0.399837
v 0.001551 -0.874629 0.435902
v 0.001551 -0.838563 0.435902
v 0.001551 -0.874629 0.399837
v 0.001551 -0.838563 0.399837
v -0.121660 -0.874629 -0.400417
v -0.121660 -0.838563 -0.400417
v -0.121660 -0.874629 -0.436482
v -0.121660 -0.838563 -0.436482
v 0.001551 -0.874629 -0.400417
v 0.001551 -0.838563 -0.400417
v 0.001551 -0.874629 -0.436482
v 0.001551 -0.838563 -0.436482
v -0.251244 -2.713972 0.435902
v -0.251244 -2.677907 0.435902
v -0.251244 -2.713972 0.399837
v -0.251244 -2.677907 0.399837
v 0.001551 -2.713972 0.435902
v 0.001551 -2.677907 0.435902
v 0.001551 -2.713972 0.399837
v 0.001551 -2.677907 0.399837
v -0.251244 -2.713972 -0.400417
v -0.251244 -2.677907 -0.400417
v -0.251244 -2.713972 -0.436482
v -0.251244 -2.677907 -0.436482
v 0.001551 -2.713972 -0.400417
v 0.001551 -2.677907 -0.400417
v 0.001551 -2.713972 -0.436482
v 0.001551 -2.677907 -0.436482
vn -0.0720 -0.0300 -0.9970
vn -0.0000 -0.0000 -1.0000
vn 0.9511 -0.0000 -0.3090
vn 0.9229 0.1985 -0.3299
vn 0.5878 -0.0000 0.8090
vn 0.5276 0.1017 0.8434
vn -0.5878 -0.0000 0.8090
vn -0.6212 -0.1296 0.7728
vn -0.0000 1.0000 -0.0000
vn -0.9511 -0.0000 -0.3090
vn -0.9409 -0.1777 -0.2884
vn -0.6358 -0.7314 -0.2467
vn -0.3534 -0.6666 0.6563
vn -0.0000 -1.0000 -0.0000
vn 0.6442 0.2688 0.7161
vn 0.8926 0.3725 -0.2538
vn -0.5709 -0.2382 -0.7857
vn 0.5709 0.2382 -0.7857
vn -0.0720 -0.0300 0.9970
vn 0.9229 0.1985 0.3299
vn 0.9511 -0.0000 0.3090
vn -0.0000 -0.0000 1.0000
vn 0.5276 0.1017 -0.8434
vn 0.5878 -0.0000 -0.8090
vn -0.6212 -0.1296 -0.7728
vn -0.5878 -0.0000 -0.8090
vn -0.9409 -0.1777 0.2884
vn -0.9511 -0.0000 0.3090
vn -0.3534 -0.6666 -0.6563
vn -0.6358 -0.7314 0.2467
vn 0.8926 0.3725 0.2538
vn 0.6442 0.2688 -0.7161
vn -0.5709 -0.2382 0.7857
vn 0.5709 0.2382 0.7857
vn 0.9511 0.3090 -0.0000
vn 0.5878 -0.8090 -0.0000
vn -0.5878 -0.8090 -0.0000
vn -0.9511 0.3090 -0.0000
vn 0.3801 -0.9250 -0.0000
vn -0.7622 -0.6473 -0.0000
vn -0.8512 0.5249 -0.0000
vn 0.2362 0.9717 -0.0000
vn 0.9971 0.0757 -0.0000
vt 0.470262 -0.660001
vt 0.470262 2.272106
vt 0.485797 2.272106
vt 0.485797 -0.660001
vt 0.302312 -0.660001
vt 0.302312 2.272106
vt 0.284049 2.272106
vt 0.284049 -0.660001
vt 0.479863 -0.660001
vt 0.479863 2.272106
vt 0.460660 2.272106
vt 0.460660 -0.660001
vt 0.485797 0.243330
vt 0.470262 0.254618
vt 0.454726 0.243330
vt 0.460660 0.225068
vt 0.479863 0.225068
vt 0.454726 -0.660001
vt 0.454726 2.272106
vt 0.302312 -1.220872
vt 0.284049 -1.220872
vt 0.704331 0.254618
vt 0.719867 0.243330
vt 0.713933 0.225068
vt 0.694730 0.225068
vt 0.688796 0.243330
vt 0.704331 -1.220872
vt 0.688796 -1.220872
vt 0.719867 -1.220872
vt 0.694730 -1.220872
vt 0.713933 -1.220872
vt 0.687927 -0.660001
vt 0.706190 -0.660001
vt 0.706190 2.272106
vt 0.687927 2.272106
vt 0.485797 0.628945
vt 0.479863 0.647208
vt 0.460660 0.647208
vt 0.454726 0.628945
vt 0.470262 0.617658
vt 0.706190 -1.220872
vt 0.687927 -1.220872
vt 0.704331 0.617658
vt 0.688796 0.628945
vt 0.694730 0.647208
vt 0.713933 0.647208
vt 0.719867 0.628945
vt 0.470262 0.635235
vt 0.470262 0.237040
vt 0.482266 0.237040
vt 0.482266 0.635235
vt 0.694216 -0.613314
vt 0.296022 -0.613314
vt 0.296022 -0.627426
vt 0.694216 -0.627426
vt 0.477681 0.635235
vt 0.477681 0.237040
vt 0.462842 0.237040
vt 0.462842 0.635235
vt 0.482266 -0.613314
vt 0.470262 -0.604592
vt 0.458257 -0.613314
vt 0.462842 -0.627426
vt 0.477681 -0.627426
vt 0.458257 0.635235
vt 0.458257 0.237040
vt 0.470262 0.237040
vt 0.482266 0.237040
vt 0.694216 -0.384980
vt 0.296021 -0.384980
vt 0.296021 -0.399092
vt 0.694216 -0.399092
vt 0.477681 0.237040
vt 0.462842 0.237040
vt 0.482266 -0.384980
vt 0.470262 -0.376258
vt 0.458257 -0.384980
vt 0.462842 -0.399092
vt 0.477681 -0.399092
vt 0.458257 0.237040
vt 0.470262 -0.376258
vt 0.694216 -0.156646
vt 0.296021 -0.156646
vt 0.296021 -0.170757
vt 0.694216 -0.170757
vt 0.482266 -0.156646
vt 0.470262 -0.147924
vt 0.458257 -0.156646
vt 0.462842 -0.170757
vt 0.477681 -0.170757
vt 0.694216 0.071688
vt 0.296021 0.071688
vt 0.296021 0.057577
vt 0.694216 0.057577
vt 0.482266 0.071688
vt 0.470262 0.080410
vt 0.458257 0.071688
vt 0.462842 0.057577
vt 0.477681 0.057577
vt 0.694216 0.300023
vt 0.296021 0.300023
vt 0.296021 0.285911
vt 0.694216 0.285911
vt 0.482266 0.300023
vt 0.470262 0.308744
vt 0.458257 0.300023
vt 0.462842 0.285911
vt 0.477681 0.285911
vt 0.694216 0.528357
vt 0.296021 0.528357
vt 0.296021 0.514245
vt 0.694216 0.514245
vt 0.482266 0.528357
vt 0.470262 0.537078
vt 0.458257 0.528357
vt 0.462842 0.514245
vt 0.477681 0.514245
vt 0.694216 0.756691
vt 0.296021 0.756691
vt 0.296021 0.742579
vt 0.694216 0.742579
vt 0.482266 0.756691
vt 0.470262 0.765412
vt 0.458257 0.756691
vt 0.462842 0.742579
vt 0.477681 0.742579
vt 0.694216 0.985025
vt 0.296021 0.985025
vt 0.296021 0.970913
vt 0.694216 0.970913
vt 0.482266 0.985025
vt 0.470262 0.993746
vt 0.458257 0.985025
vt 0.462842 0.970913
vt 0.477681 0.970913
vt 0.694216 1.213359
vt 0.296021 1.213359
vt 0.296021 1.199247
vt 0.694216 1.199247
vt 0.482266 1.213359
vt 0.470262 1.222080
vt 0.458257 1.213359
vt 0.462842 1.199247
vt 0.477681 1.199247
vt 0.694216 1.441693
vt 0.296021 1.441693
vt 0.296021 1.427581
vt 0.694216 1.427581
vt 0.482266 1.441693
vt 0.470262 1.450415
vt 0.458257 1.441693
vt 0.462842 1.427581
vt 0.477681 1.427581
vt 0.694216 1.670027
vt 0.296021 1.670027
vt 0.296021 1.655915
vt 0.694216 1.655915
vt 0.482266 1.670027
vt 0.470262 1.678748
vt 0.458257 1.670027
vt 0.462842 1.655915
vt 0.477681 1.655915
vt 0.694216 1.898361
vt 0.296021 1.898361
vt 0.296021 1.884249
vt 0.694216 1.884249
vt 0.482266 1.898361
vt 0.470262 1.907083
vt 0.458257 1.898361
vt 0.462842 1.884249
vt 0.477681 1.884249
vt 0.694216 2.126696
vt 0.296021 2.126696
vt 0.296021 2.112583
vt 0.694216 2.112583
vt 0.482266 2.126696
vt 0.470262 2.135417
vt 0.458257 2.126696
vt 0.462842 2.112583
vt 0.477681 2.112583
vt 0.543674 0.635235
vt 0.543674 0.237040
vt 0.529256 0.237040
vt 0.529256 0.635235
vt 0.694216 -0.831198
vt 0.296022 -0.831198
vt 0.296022 -0.816403
vt 0.694216 -0.816403
vt 0.528134 0.635235
vt 0.528134 0.237040
vt 0.541858 0.237040
vt 0.541858 0.635235
vt 0.529256 -0.831198
vt 0.543674 -0.834703
vt 0.551463 -0.822073
vt 0.541858 -0.810763
vt 0.528134 -0.816403
vt 0.694216 -0.810763
vt 0.296022 -0.810763
vt 0.296022 -0.822073
vt 0.694216 -0.822073
vt 0.296022 -0.834703
vt 0.694216 -0.834703
vt 0.541858 -0.810763
vt 0.630461 0.635235
vt 0.630461 0.237040
vt 0.616042 0.237040
vt 0.616042 0.635235
vt 0.694216 -1.042396
vt 0.296021 -1.042396
vt 0.296021 -1.027601
vt 0.694216 -1.027601
vt 0.614920 0.635235
vt 0.614920 0.237040
vt 0.628644 0.237040
vt 0.628644 0.635235
vt 0.616042 -1.042396
vt 0.630461 -1.045901
vt 0.638249 -1.033271
vt 0.628644 -1.021961
vt 0.614920 -1.027601
vt 0.694216 -1.021961
vt 0.296021 -1.021961
vt 0.296021 -1.033271
vt 0.694216 -1.033271
vt 0.296021 -1.045901
vt 0.694216 -1.045901
vt 0.472799 1.710242
vt 0.472799 1.726166
vt 0.527201 1.726166
vt 0.527201 1.710242
vt 0.472799 0.323330
vt 0.527201 0.323330
vt 0.527201 0.307406
vt 0.472799 0.307406
vt 0.472799 0.692594
vt 0.527201 0.692594
vt 0.527201 0.676670
vt 0.472799 0.676670
vt 0.472799 0.898106
vt 0.472799 0.914030
vt 0.527201 0.914030
vt 0.527201 0.898106
vt 0.472799 0.085970
vt 0.472799 0.101894
vt 0.527201 0.101894
vt 0.527201 0.085970
vt 0.415583 -0.726166
vt 0.415583 -0.710242
vt 0.527201 -0.710242
vt 0.527201 -0.726166
vt 0.415583 -0.726166
vt 0.415583 0.323330
vt 0.415583 0.307406
vt 0.415583 0.692594
vt 0.415583 0.676670
s 1
usemtl Metal
f 1/1/1 2/2/2 4/3/3 3/4/4
f 3/5/4 4/6/3 6/7/5 5/8/6
f 5/9/6 6/10/5 8/11/7 7/12/8
f 4/13/9 2/14/9 10/15/9 8/16/9 6/17/9
f 7/8/8 8/7/7 10/6/10 9/5/11
f 9/18/11 10/19/10 2/2/2 1/1/1
f 7/8/8 9/5/11 15/20/12 14/21/13
f 11/22/14 12/23/14 13/24/14 14/25/13 15/26/12
f 3/5/4 5/8/6 13/21/15 12/20/16
f 9/18/11 1/1/1 11/27/17 15/28/12
f 1/1/1 3/4/4 12/29/16 11/27/18
f 5/9/6 7/12/8 14/30/13 13/31/15
f 16/1/19 18/4/20 19/3/21 17/2/22
f 18/32/20 20/33/23 21/34/24 19/35/21
f 20/9/23 22/12/25 23/11/26 21/10/24
f 19/36/9 21/37/9 23/38/9 25/39/9 17/40/9
f 22/33/25 24/32/27 25/35/28 23/34/26
f 24/18/27 16/1/19 17/2/22 25/19/28
f 22/33/25 29/41/29 30/42/30 24/32/27
f 26/43/14 30/44/30 29/45/29 28/46/14 27/47/14
f 18/32/20 27/42/31 28/41/32 20/33/23
f 24/18/27 30/28/30 26/27/33 16/1/19
f 16/1/19 26/27/34 27/29/31 18/4/20
f 20/9/23 28/31/32 29/30/29 22/12/25
f 31/48/9 32/49/9 34/50/35 33/51/35
f 33/52/35 34/53/35 36/54/36 35/55/36
f 35/56/36 36/57/36 38/58/37 37/59/37
f 34/60/22 32/61/22 40/62/22 38/63/22 36/64/22
f 37/55/37 38/54/37 40/53/38 39/52/38
f 39/65/38 40/66/38 32/49/9 31/48/9
f 31/61/2 33/60/2 35/64/2 37/63/2 39/62/2
f 41/48/9 42/67/9 44/68/35 43/51/35
f 43/69/35 44/70/35 46/71/36 45/72/36
f 45/56/36 46/73/36 48/74/37 47/59/37
f 44/75/22 42/76/22 50/77/22 48/78/22 46/79/22
f 47/72/37 48/71/37 50/70/38 49/69/38
f 49/65/38 50/80/38 42/67/9 41/48/9
f 41/81/2 43/75/2 45/79/2 47/78/2 49/77/2
f 51/48/9 52/67/9 54/68/35 53/51/35
f 53/82/35 54/83/35 56/84/36 55/85/36
f 55/56/36 56/73/36 58/74/37 57/59/37
f 54/86/22 52/87/22 60/88/22 58/89/22 56/90/22
f 57/85/37 58/84/37 60/83/38 59/82/38
f 59/65/38 60/80/38 52/67/9 51/48/9
f 51/87/2 53/86/2 55/90/2 57/89/2 59/88/2
f 61/48/9 62/67/9 64/68/35 63/51/35
f 63/91/35 64/92/35 66/93/36 65/94/36
f 65/56/36 66/73/36 68/74/37 67/59/37
f 64/95/22 62/96/22 70/97/22 68/98/22 66/99/22
f 67/94/37 68/93/37 70/92/38 69/91/38
f 69/65/38 70/80/38 62/67/9 61/48/9
f 61/96/2 63/95/2 65/99/2 67/98/2 69/97/2
f 71/48/9 72/67/9 74/68/35 73/51/35
f 73/100/35 74/101/35 76/102/36 75/103/36
f 75/56/36 76/73/36 78/74/37 77/59/37
f 74/104/22 72/105/22 80/106/22 78/107/22 76/108/22
f 77/103/37 78/102/37 80/101/38 79/100/38
f 79/65/38 80/80/38 72/67/9 71/48/9
f 71/105/2 73/104/2 75/108/2 77/107/2 79/106/2
f 81/48/9 82/67/9 84/68/35 83/51/35
f 83/109/35 84/110/35 86/111/36 85/112/36
f 85/56/36 86/73/36 88/74/37 87/59/37
f 84/113/22 82/114/22 90/115/22 88/116/22 86/117/22
f 87/112/37 88/111/37 90/110/38 89/109/38
f 89/65/38 90/80/38 82/67/9 81/48/9
f 81/114/2 83/113/2 85/117/2 87/116/2 89/115/2
f 91/48/9 92/67/9 94/68/35 93/51/35
f 93/118/35 94/119/35 96/120/36 95/121/36
f 95/56/36 96/73/36 98/74/37 97/59/37
f 94/122/22 92/123/22 100/124/22 98/125/22 96/126/22
f 97/121/37 98/120/37 100/119/38 99/118/38
f 99/65/38 100/80/38 92/67/9 91/48/9
f 91/123/2 93/122/2 95/126/2 97/125/2 99/124/2
f 101/48/9 102/67/9 104/68/35 103/51/35
f 103/127/35 104/128/35 106/129/36 105/130/36
f 105/56/36 106/73/36 108/74/37 107/59/37
f 104/131/22 102/132/22 110/133/22 108/134/22 106/135/22
f 107/130/37 108/129/37 110/128/38 109/127/38
f 109/65/38 110/80/38 102/67/9 101/48/9
f 101/132/2 103/131/2 105/135/2 107/134/2 109/133/2
f 111/48/9 112/67/9 114/68/35 113/51/35
f 113/136/35 114/137/35 116/138/36 115/139/36
f 115/56/36 116/73/36 118/74/37 117/59/37
f 114/140/22 112/141/22 120/142/22 118/143/22 116/144/22
f 117/139/37 118/138/37 120/137/38 119/136/38
f 119/65/38 120/80/38 112/67/9 111/48/9
f 111/141/2 113/140/2 115/144/2 117/143/2 119/142/2
f 121/48/9 122/67/9 124/68/35 123/51/35
f 123/145/35 124/146/35 126/147/36 125/148/36
f 125/56/36 126/73/36 128/74/37 127/59/37
f 124/149/22 122/150/22 130/151/22 128/152/22 126/153/22
f 127/148/37 128/147/37 130/146/38 129/145/38
f 129/65/38 130/80/38 122/67/9 121/48/9
f 121/150/2 123/149/2 125/153/2 127/152/2 129/151/2
f 131/48/9 132/67/9 134/68/35 133/51/35
f 133/154/35 134/155/35 136/156/36 135/157/36
f 135/56/36 136/73/36 138/74/37 137/59/37
f 134/158/22 132/159/22 140/160/22 138/161/22 136/162/22
f 137/157/37 138/156/37 140/155/38 139/154/38
f 139/65/38 140/80/38 132/67/9 131/48/9
f 131/159/2 133/158/2 135/162/2 137/161/2 139/160/2
f 141/48/9 142/67/9 144/68/35 143/51/35
f 143/163/35 144/164/35 146/165/36 145/166/36
f 145/56/36 146/73/36 148/74/37 147/59/37
f 144/167/22 142/168/22 150/169/22 148/170/22 146/171/22
f 147/166/37 148/165/37 150/164/38 149/163/38
f 149/65/38 150/80/38 142/67/9 141/48/9
f 141/168/2 143/167/2 145/171/2 147/170/2 149/169/2
f 151/48/9 152/67/9 154/68/35 153/51/35
f 153/172/35 154/173/35 156/174/36 155/175/36
f 155/56/36 156/73/36 158/74/37 157/59/37
f 154/176/22 152/177/22 160/178/22 158/179/22 156/180/22
f 157/175/37 158/174/37 160/173/38 159/172/38
f 159/65/38 160/80/38 152/67/9 151/48/9
f 151/177/2 153/176/2 155/180/2 157/179/2 159/178/2
f 161/181/39 162/182/39 164/183/40 163/184/40
f 163/185/40 164/186/40 166/187/41 165/188/41
f 165/189/41 166/190/41 168/191/42 167/192/42
f 164/193/22 162/194/22 170/195/22 168/196/22 166/197/22
f 167/198/42 168/199/42 170/200/43 169/201/43
f 169/201/43 170/200/43 162/202/39 161/203/39
f 161/194/2 163/193/2 165/197/2 167/204/2 169/195/2
f 171/205/39 172/206/39 174/207/40 173/208/40
f 173/209/40 174/210/40 176/211/41 175/212/41
f 175/213/41 176/214/41 178/215/42 177/216/42
f 174/217/22 172/218/22 180/219/22 178/220/22 176/221/22
f 177/222/42 178/223/42 180/224/43 179/225/43
f 179/225/43 180/224/43 172/226/39 171/227/39
f 171/218/2 173/217/2 175/221/2 177/220/2 179/219/2
s 0
f 183/228/2 184/229/2 188/230/2 187/231/2
f 185/231/22 186/230/22 182/229/22 181/228/22
f 183/232/14 187/233/14 185/234/14 181/235/14
f 188/233/9 184/232/9 182/235/9 186/234/9
f 191/228/2 192/229/2 196/230/2 195/231/2
f 193/231/22 194/230/22 190/229/22 189/228/22
f 191/236/14 195/237/14 193/238/14 189/239/14
f 196/237/9 192/236/9 190/239/9 194/238/9
f 199/240/2 200/241/2 204/242/2 203/243/2
f 201/243/22 202/242/22 198/241/22 197/240/22
f 199/232/14 203/233/14 201/234/14 197/235/14
f 204/233/9 200/232/9 198/235/9 202/234/9
f 207/240/2 208/241/2 212/242/2 211/243/2
f 209/243/22 210/242/22 206/241/22 205/240/22
f 207/236/14 211/237/14 209/238/14 205/239/14
f 212/237/9 208/236/9 206/239/9 210/238/9
f 215/244/2 216/245/2 220/246/2 219/247/2
f 217/247/22 218/246/22 214/245/22 213/244/22
f 215/232/14 219/233/14 217/234/14 213/235/14
f 220/233/9 216/232/9 214/235/9 218/234/9
f 223/244/2 224/245/2 228/246/2 227/247/2
f 225/247/22 226/246/22 222/245/22 221/244/22
f 223/236/14 227/237/14 225/238/14 221/239/14
f 228/237/9 224/236/9 222/239/9 226/238/9
f 231/248/2 232/249/2 236/250/2 235/251/2
f 233/251/22 234/250/22 230/249/22 229/252/22
f 231/253/14 235/233/14 233/234/14 229/254/14
f 236/233/9 232/253/9 230/254/9 234/234/9
f 239/248/2 240/249/2 244/250/2 243/251/2
f 241/251/22 242/250/22 238/249/22 237/252/22
f 239/255/14 243/237/14 241/238/14 237/256/14
f 244/237/9 240/255/9 238/256/9 242/238/9
