# Blender 4.5.9 LTS
# www.blender.org
mtllib debris_04.mtl
o debris_04
v 1.586649 0.000000 1.278142
v 1.586649 0.000000 -1.278141
v -1.586649 0.000000 1.278141
v -1.586649 0.000000 -1.278142
v -0.673014 0.000000 0.521692
v 0.673014 0.000000 0.521692
v 1.088960 0.000000 -0.339303
v -1.088960 0.000000 -0.339304
v 0.000000 0.000000 -0.871428
v -0.240467 0.156670 0.074012
v 0.240467 0.156670 0.074012
v 0.389083 0.156670 -0.233620
v 0.000000 0.156670 -0.423748
v -0.389083 0.156670 -0.233621
vn 0.0530 0.9985 -0.0155
vn -0.0000 0.9857 -0.1685
vn -0.0000 0.9769 -0.2137
vn 0.1482 0.9845 -0.0943
vn -0.0000 1.0000 -0.0000
vn -0.0530 0.9985 -0.0155
vn 0.0458 0.9968 0.0661
vn -0.0458 0.9968 0.0661
vn 0.0726 0.9846 0.1593
vn -0.1482 0.9845 -0.0943
vn -0.0726 0.9846 0.1593
vt 0.631154 0.172958
vt 0.836841 0.500000
vt 0.663795 0.500000
vt 0.590303 0.383148
vt 0.994051 0.023489
vt 0.994051 0.976511
vt 0.631154 0.827042
vt 0.005949 0.976511
vt 0.005949 0.023489
vt 0.298346 0.297877
vt 0.298346 0.702123
vt 0.471392 0.427782
vt 0.590303 0.616852
vt 0.471392 0.572218
s 1
usemtl debris_03
f 7/1/1 9/2/2 13/3/3 12/4/4
f 2/5/5 4/6/5 8/7/6 9/2/2 7/1/1
f 3/8/5 1/9/5 6/10/7 5/11/8
f 4/6/5 3/8/5 5/11/8 8/7/6
f 1/9/5 2/5/5 7/1/1 6/10/7
f 11/12/9 12/4/4 13/3/3 14/13/10 10/14/11
f 9/2/2 8/7/6 14/13/10 13/3/3
f 5/11/8 6/10/7 11/12/9 10/14/11
f 8/7/6 5/11/8 10/14/11 14/13/10
f 6/10/7 7/1/1 12/4/4 11/12/9
