# Blender 4.5.9 LTS
# www.blender.org
mtllib debris_01.mtl
o debris_01
v -0.757515 -0.032388 0.716845
v -0.496534 0.040174 0.459910
v -0.856882 -0.032388 -0.832718
v -0.576761 0.040174 -0.559503
v 0.726940 -0.032388 0.984921
v 0.454854 0.040174 0.676350
v 0.958162 -0.032388 -0.674759
v 0.641539 0.040174 -0.431970
v -0.076166 -0.032388 -1.016302
v -0.059857 0.040174 -0.707725
v -0.076166 -0.032388 0.984921
v -0.059857 0.040174 0.676350
v -1.046388 -0.032388 0.272182
v -0.729765 0.040174 0.174925
v 0.958162 -0.032388 0.272182
v 0.641539 0.040174 0.174925
v -0.034044 0.126522 0.081029
v 1.590100 -0.029668 0.884634
v 1.581190 -0.029668 0.781072
v 1.462010 -0.029668 0.820059
v 1.466466 -0.029668 0.887998
v 1.444438 -0.029668 0.186051
v 1.427697 -0.029668 0.172264
v 1.413911 -0.029668 0.088555
v 1.451331 -0.029668 0.075753
v 1.533066 -0.029668 0.113175
v 1.544883 -0.029668 0.175217
v 1.260905 -0.029668 -0.008966
v 1.206081 -0.029668 -0.043909
v 1.205140 -0.029668 -0.016746
v 1.207109 -0.029668 -0.073852
v 1.250439 -0.029668 -0.124084
v 1.343991 -0.029668 -0.094535
v 1.354823 -0.029668 -0.013786
v 1.332174 -0.029668 0.000984
v 1.141800 -0.029668 -0.084879
v 1.013193 -0.029668 -0.166848
v 1.045609 -0.029668 -0.017692
v 0.996370 -0.029668 -0.138809
v 1.028861 -0.029668 -0.192974
v 1.111582 -0.029668 -0.207744
v 1.162795 -0.029668 -0.268791
v 1.247484 -0.029668 -0.237281
v 1.179530 -0.029668 -0.111232
v 0.903479 -0.029668 -0.131278
v 0.922054 -0.029668 -0.201302
v 0.604838 -0.029668 -0.248458
v 0.600551 -0.029668 -0.175582
v 0.347686 0.031336 -0.402441
v 0.134331 0.029276 -0.571663
v 0.063782 0.048825 -0.475369
v 0.177573 0.049928 -0.385085
v 0.250887 0.045136 -0.368327
v 0.326541 0.037797 -0.369048
v 0.109608 0.032116 -0.568102
v 0.383397 0.020421 -0.458854
v 0.336373 0.020968 -0.488617
v 0.319244 0.015677 -0.540775
v 0.204058 0.019495 -0.595034
v 0.182452 0.023748 -0.578589
v -0.073450 0.091518 -0.128192
v -0.023850 0.090856 -0.116186
v 0.053574 0.088190 -0.209114
v 0.053880 0.087737 -0.239703
v -0.033237 0.087964 -0.324736
v -0.138291 0.089554 -0.337295
v -0.131254 0.090331 -0.276031
v -0.165998 0.091388 -0.243873
v -0.292951 -0.029668 -0.008285
v -0.304426 -0.029668 0.051003
v -0.407703 -0.029668 0.049088
v -0.468904 -0.029668 -0.015937
v -0.465079 -0.029668 -0.059921
v -0.380928 -0.029668 -0.052276
v -0.124648 -0.029668 0.429680
v -0.105523 -0.029668 0.504280
v -0.143775 -0.029668 0.532966
v -0.279563 -0.029668 0.510017
v -0.313989 -0.029668 0.448814
v -0.300602 -0.029668 0.420135
v 0.424245 -0.029668 0.521484
v 0.401294 -0.029668 0.395271
v 0.433807 -0.029668 0.343628
v 0.483533 -0.029668 0.343628
v 0.613585 -0.029668 0.404831
v 0.613584 -0.029668 0.448814
v 0.535172 -0.029668 0.458381
v 0.500746 -0.029668 0.546356
v 0.495011 -0.029668 1.456694
v 0.461542 -0.029668 1.425521
v 0.447773 -0.029668 1.358954
v 0.505148 -0.029668 1.301581
v 0.555639 -0.029668 1.230437
v 0.619899 -0.029668 1.232734
v 0.655229 -0.029668 1.323355
v 0.619712 -0.029668 1.427687
v 0.053851 -0.029668 0.808914
v 0.026608 -0.029668 0.770874
v 0.061922 -0.029668 0.779334
v -0.075346 -0.029668 0.883842
v -0.134760 -0.029668 0.732208
v 0.031190 -0.029668 0.892020
v -0.575095 -0.029668 -1.020714
v -0.806419 -0.029668 -1.187004
v -0.546744 -0.029668 -1.161095
v -0.671856 -0.029668 -1.240837
v -0.678789 -0.029668 -0.985106
v -0.815772 -0.029668 -1.116278
v -0.822737 -0.029668 -1.165037
v -0.603333 -0.029668 -0.988585
v -0.792557 -0.029668 -1.205666
v -0.544123 -0.029668 -1.082614
v -0.617261 -0.029668 -1.256750
v -0.585918 -0.029668 -1.249784
v -1.028604 -0.029668 -0.671728
v -1.198944 -0.029668 -0.871313
v -1.072327 -0.029668 -0.893431
v -0.966687 -0.029668 -0.761107
v -0.964365 -0.029668 -0.725119
v -1.105991 -0.029668 -0.664748
v -1.186092 -0.029668 -0.786642
v -1.053752 -0.029668 -0.650824
v -1.118670 -0.029668 -0.276542
v -0.912811 -0.029668 -0.412955
v -0.840943 -0.029668 -0.347182
v -0.816581 -0.029668 -0.341086
v -0.838518 -0.029668 -0.233915
v -0.948135 -0.029668 -0.160812
v -0.996860 -0.029668 -0.219283
v -1.080909 -0.029668 -0.194915
v -1.363923 -0.029668 0.791679
v -1.476341 -0.029668 0.623786
v -1.403342 -0.029668 0.486549
v -1.235447 -0.029668 0.473404
v -1.172669 -0.029668 0.632545
v -1.177048 -0.029668 0.701164
v 0.498500 0.051430 1.449706
v 0.467099 0.051430 1.420458
v 0.454180 0.051430 1.358003
v 0.508011 0.051430 1.304174
v 0.555383 0.051430 1.237425
v 0.615674 0.051430 1.239580
v 0.648822 0.051430 1.324604
v 0.615498 0.051430 1.422491
v 1.588636 0.027198 0.881781
v 1.577684 0.028802 0.781740
v 1.464331 0.011697 0.821762
v 1.470183 0.010457 0.887420
v 1.450984 0.011210 0.175722
v 1.437378 0.011210 0.164517
v 1.426173 0.011210 0.096482
v 1.456586 0.011210 0.086078
v 1.523017 0.011210 0.116492
v 1.532621 0.011210 0.166917
v 1.260905 0.009218 -0.008966
v 1.206081 0.009218 -0.043909
v 1.205140 0.009218 -0.016746
v 1.207109 0.009218 -0.073852
v 1.250439 0.009218 -0.124084
v 1.343991 0.009218 -0.094535
v 1.354823 0.009218 -0.013786
v 1.332174 0.009218 0.000984
v 1.263700 0.024466 -0.016672
v 1.216911 0.024466 -0.046493
v 1.216108 0.024466 -0.023312
v 1.217789 0.024466 -0.072049
v 1.254769 0.024466 -0.114919
v 1.334610 0.024466 -0.089701
v 1.343855 0.024466 -0.020785
v 1.324525 0.024466 -0.008180
v 1.142168 0.015749 -0.087567
v 1.017134 0.010193 -0.163784
v 1.051343 0.008449 -0.021177
v 1.001591 0.008518 -0.136530
v 1.031609 0.011754 -0.189177
v 1.110617 0.016979 -0.204969
v 1.158442 0.021484 -0.264588
v 1.240308 0.025693 -0.235975
v 1.177793 0.018613 -0.113608
v 0.903484 0.022179 -0.131730
v 0.921833 0.022714 -0.201811
v 0.604849 0.007182 -0.247961
v 0.600781 0.007350 -0.175073
v 0.361916 0.060175 -0.398919
v 0.128763 0.057924 -0.583844
v 0.051668 0.079287 -0.478614
v 0.176018 0.080493 -0.379953
v 0.256135 0.075256 -0.361640
v 0.338809 0.067237 -0.362427
v 0.101746 0.061027 -0.579952
v 0.400941 0.048248 -0.460567
v 0.349553 0.048846 -0.493091
v 0.330835 0.043064 -0.550090
v 0.204961 0.047236 -0.609383
v 0.181350 0.051884 -0.591413
v 0.368833 0.132424 -0.408520
v 0.135680 0.130173 -0.593444
v 0.058585 0.151536 -0.488215
v 0.182935 0.152741 -0.389553
v 0.263052 0.147505 -0.371240
v 0.345726 0.139485 -0.372028
v 0.108663 0.133276 -0.589553
v 0.407858 0.120496 -0.470167
v 0.356470 0.121094 -0.502692
v 0.337752 0.115312 -0.559690
v 0.211878 0.119484 -0.618983
v 0.188266 0.124132 -0.601013
v 0.344631 0.154251 -0.428278
v 0.156862 0.152437 -0.577206
v 0.094773 0.169642 -0.492460
v 0.194918 0.170613 -0.413003
v 0.259440 0.166396 -0.398255
v 0.326021 0.159937 -0.398889
v 0.135104 0.154937 -0.574072
v 0.376059 0.144645 -0.477925
v 0.334674 0.145126 -0.504119
v 0.319600 0.140470 -0.550022
v 0.218227 0.143829 -0.597774
v 0.199212 0.147573 -0.583302
v -0.074090 0.107526 -0.123248
v -0.021877 0.106829 -0.110610
v 0.059625 0.104022 -0.208432
v 0.059947 0.103546 -0.240632
v -0.031758 0.103785 -0.330144
v -0.142345 0.105458 -0.343364
v -0.134938 0.106277 -0.278874
v -0.171512 0.107389 -0.245021
v -0.074694 0.144484 -0.127708
v -0.024988 0.153281 -0.113256
v 0.056060 0.174550 -0.205294
v 0.057317 0.176674 -0.236672
v -0.028005 0.165539 -0.327678
v -0.133682 0.146038 -0.345079
v -0.128475 0.143266 -0.281907
v -0.164550 0.134366 -0.250398
v -0.073841 0.160064 -0.145037
v -0.033157 0.167264 -0.133209
v 0.033180 0.184672 -0.208540
v 0.034208 0.186410 -0.234222
v -0.035626 0.177297 -0.308708
v -0.122120 0.161336 -0.322951
v -0.117859 0.159067 -0.271245
v -0.147386 0.151782 -0.245456
v -0.574967 0.044901 -1.020893
v -0.806486 0.038830 -1.186800
v -0.546858 0.045672 -1.161322
v -0.672059 0.042386 -1.240856
v -0.678565 0.042162 -0.985114
v -0.815718 0.038572 -1.116058
v -0.822762 0.038396 -1.164806
v -0.603141 0.044152 -0.988717
v -0.792660 0.039198 -1.205485
v -0.544108 0.045728 -1.082845
v -0.617509 0.043828 -1.256859
v -0.586166 0.044653 -1.249946
v -1.034795 0.032080 -0.683447
v -1.185255 0.032080 -0.859738
v -1.073415 0.032080 -0.879274
v -0.980105 0.032080 -0.762394
v -0.978054 0.032080 -0.730606
v -1.103151 0.032080 -0.677281
v -1.173903 0.032080 -0.784949
v -1.057009 0.032080 -0.664982
v -1.118655 0.027941 -0.278109
v -0.911815 0.042854 -0.412203
v -0.840548 0.042057 -0.345783
v -0.816255 0.042645 -0.339445
v -0.839068 0.036152 -0.232654
v -0.949213 0.028186 -0.160786
v -0.997413 0.029461 -0.219677
v -1.081602 0.025031 -0.196210
v -1.365117 0.038947 0.791315
v -1.475948 0.024240 0.623013
v -1.402003 0.022922 0.486290
v -1.234358 0.033240 0.474023
v -1.172991 0.044339 0.633327
v -1.177912 0.047083 0.701854
v 0.430056 0.009988 0.516141
v 0.408708 0.009988 0.398744
v 0.438950 0.009988 0.350708
v 0.485203 0.009988 0.350708
v 0.606171 0.009988 0.407636
v 0.606171 0.009988 0.448547
v 0.533235 0.009988 0.457446
v 0.501214 0.009988 0.539276
v 0.053884 0.033426 0.811018
v 0.027440 0.038380 0.772738
v 0.062566 0.037693 0.781923
v -0.076819 0.021073 0.882222
v -0.133068 0.041519 0.730759
v 0.029509 0.021436 0.892763
v -0.136112 0.027187 0.435994
v -0.119564 0.027187 0.500545
v -0.152662 0.027187 0.525367
v -0.270160 0.027187 0.505509
v -0.299948 0.027187 0.452551
v -0.288364 0.027187 0.427735
v -0.292951 0.012618 -0.008285
v -0.304426 0.012618 0.051003
v -0.407703 0.012618 0.049088
v -0.468904 0.003492 -0.015937
v -0.465079 0.003492 -0.059921
v -0.380928 0.012618 -0.052276
v 0.180503 0.090054 -0.056600
v 0.344668 0.072110 -0.173019
v 0.482482 0.054277 -0.103361
v 0.499218 0.049482 0.064146
v 0.342647 0.067331 0.130736
v 0.274446 0.075631 0.128013
v 0.189080 0.158142 -0.056676
v 0.351921 0.125520 -0.171760
v 0.489087 0.106422 -0.101165
v 0.506185 0.111979 0.066282
v 0.350755 0.140891 0.131647
v 0.282963 0.151914 0.128426
v -0.652206 -0.009097 0.543492
v -0.512690 0.035173 0.325718
v -0.455172 0.031606 0.440610
v -0.549780 0.002680 0.578022
v -0.583144 -0.003649 0.590159
v -0.681178 -0.005791 0.471469
v -0.589051 0.019852 0.361335
v -0.679245 -0.011230 0.525223
v -0.652077 0.054001 0.540819
v -0.528844 0.093104 0.348462
v -0.478039 0.089953 0.449945
v -0.561605 0.064403 0.571319
v -0.591075 0.058813 0.582039
v -0.677667 0.056921 0.477202
v -0.596293 0.079571 0.379922
v -0.675960 0.052117 0.524682
v -0.076238 0.012277 -0.809424
v -0.101190 0.017534 -0.771453
v -0.164257 0.017407 -0.746091
v -0.230358 0.003676 -0.791098
v -0.308822 -0.009288 -0.826960
v -0.317466 -0.021832 -0.889431
v -0.234421 -0.024922 -0.939974
v -0.125890 -0.013491 -0.924587
v -0.089924 0.090730 -0.826616
v -0.113334 0.095662 -0.790991
v -0.172505 0.095543 -0.767196
v -0.234524 0.082660 -0.809422
v -0.308141 0.070497 -0.843069
v -0.316251 0.058728 -0.901681
v -0.238336 0.055829 -0.949102
v -0.136508 0.066554 -0.934665
v -0.965616 -0.013082 0.273127
v -1.091670 -0.020130 0.187573
v -1.062881 -0.026660 0.337329
v -1.109059 -0.023558 0.215052
v -1.075475 -0.016937 0.161969
v -0.992829 -0.008040 0.149664
v -0.940458 0.000823 0.090266
v -0.856928 0.006916 0.124188
v -0.927464 -0.007756 0.247943
v -0.969623 0.032239 0.273275
v -1.091714 0.019644 0.193221
v -1.060818 0.011976 0.336387
v -1.107647 0.014725 0.219850
v -1.076875 0.024225 0.168410
v -0.998410 0.038021 0.155301
v -0.949882 0.050942 0.097507
v -0.869505 0.061131 0.128718
v -0.933854 0.040186 0.248520
v 0.699216 -0.029668 -1.279273
v 0.598177 -0.029668 -1.254869
v 0.654666 -0.029668 -1.142920
v 0.721160 -0.029668 -1.157556
v 0.004683 -0.029668 -1.386753
v -0.006425 -0.029668 -1.368127
v -0.087104 -0.029668 -1.341892
v -0.105395 -0.029668 -1.376957
v -0.080709 -0.029668 -1.463396
v -0.021153 -0.029668 -1.484421
v -0.160470 -0.029668 -1.175945
v -0.186758 -0.029668 -1.116484
v -0.159764 -0.029668 -1.119644
v -0.216515 -0.029668 -1.112991
v -0.272700 -0.029668 -1.148263
v -0.257576 -0.029668 -1.245197
v -0.179379 -0.029668 -1.268067
v -0.161366 -0.029668 -1.247900
v -0.217581 -0.029668 -1.046767
v -0.279248 -0.029668 -0.907282
v -0.136675 -0.029668 -0.961790
v -0.248995 -0.029668 -0.894874
v -0.307435 -0.029668 -0.918837
v -0.334494 -0.029668 -0.998390
v -0.402557 -0.029668 -1.039826
v -0.384161 -0.029668 -1.128294
v -0.249316 -0.029668 -1.080098
v -0.221657 0.014245 -0.776868
v -0.292679 0.007705 -0.789571
v -0.316315 0.043000 -0.471695
v -0.243503 0.047995 -0.473369
v -0.375872 0.064927 -0.192304
v -0.499715 0.064927 0.050232
v -0.389924 0.064927 0.101002
v -0.323842 0.064927 -0.028358
v -0.322267 0.064927 -0.103699
v -0.338478 0.064927 -0.177963
v -0.491125 0.064927 0.073858
v -0.439041 0.064927 -0.216521
v -0.458877 0.064927 -0.164521
v -0.507010 0.064927 -0.137594
v -0.537138 0.064927 -0.013826
v -0.516430 0.064927 0.004245
v -0.087022 0.064927 0.107997
v -0.083144 0.064927 0.057108
v -0.187322 0.064927 -0.004406
v -0.217567 0.064927 0.000201
v -0.287503 0.064927 0.099846
v -0.283014 0.064927 0.205565
v -0.223669 0.064927 0.188785
v -0.186339 0.064927 0.217922
v 0.066666 0.064927 0.380581
v 0.127006 0.064927 0.382997
v 0.140666 0.064927 0.485384
v 0.085598 0.064927 0.555679
v 0.041540 0.064927 0.558522
v 0.036425 0.064927 0.474179
v 0.474291 0.064927 0.148242
v 0.545160 0.064927 0.118102
v 0.579280 0.064927 0.151596
v 0.577041 0.064927 0.289293
v 0.521720 0.064927 0.332542
v 0.491353 0.064927 0.323627
v 0.489329 0.001346 -0.694724
v 0.365261 0.005815 -0.662420
v 0.311350 -0.003224 -0.689551
v 0.307618 -0.016119 -0.737430
v 0.358856 -0.049126 -0.867601
v 0.402692 -0.048609 -0.871157
v 0.418113 -0.028162 -0.796429
v 0.508377 -0.018200 -0.770395
v 1.403814 -0.029668 -0.639505
v 1.378036 -0.029668 -0.601723
v 1.314302 -0.029668 -0.578086
v 1.248943 -0.029668 -0.626167
v 1.171007 -0.029668 -0.665368
v 1.163600 -0.029668 -0.729242
v 1.247868 -0.029668 -0.777816
v 1.356358 -0.029668 -0.758415
v 0.822319 -0.008637 -0.085331
v 0.788816 -0.008637 -0.052670
v 0.791861 -0.008637 -0.088856
v 0.915849 -0.008637 0.031108
v 0.774891 -0.008637 0.112681
v 0.907890 -0.008637 -0.075445
v -0.884190 -0.029668 0.791480
v -1.013748 -0.029668 1.045208
v -1.027240 -0.029668 0.784592
v -1.087232 -0.029668 0.920286
v -0.833372 -0.029668 0.888628
v -0.942419 -0.029668 1.043803
v -0.989574 -0.029668 1.058032
v -0.848175 -0.029668 0.814557
v -1.034285 -0.029668 1.034314
v -0.950049 -0.029668 0.770183
v -1.111184 -0.029668 0.868710
v -1.109018 -0.029668 0.836676
v -0.470889 -0.029668 1.187261
v -0.642545 -0.029668 1.385715
v -0.683479 -0.029668 1.263873
v -0.568572 -0.029668 1.139511
v -0.533345 -0.029668 1.131796
v -0.452334 -0.029668 1.262715
v -0.560776 -0.029668 1.360258
v -0.446436 -0.029668 1.208975
v -0.066646 -0.029668 1.216787
v -0.232504 -0.029668 1.033820
v -0.178304 -0.029668 0.952866
v -0.175947 -0.029668 0.927864
v -0.066694 -0.029668 0.933411
v 0.022083 -0.029668 1.030770
v -0.028384 -0.029668 1.087744
v 0.008364 -0.029668 1.167165
v 1.026326 -0.029668 1.298377
v 0.877278 -0.029668 1.434796
v 0.730613 -0.029668 1.383297
v 0.692333 -0.029668 1.219296
v 0.840206 -0.029668 1.133268
v 0.908701 -0.029668 1.127264
v 1.396380 0.051430 -0.641902
v 1.372194 0.051430 -0.606454
v 1.312397 0.051430 -0.584277
v 1.251076 0.051430 -0.629388
v 1.177953 0.051430 -0.666168
v 1.171004 0.051430 -0.726096
v 1.250067 0.051430 -0.771670
v 1.351856 0.051430 -0.753467
v 0.696616 0.027198 -1.277396
v 0.599365 0.028802 -1.251504
v 0.656001 0.011697 -1.145470
v 0.720029 0.010457 -1.161143
v -0.006513 0.011210 -1.391669
v -0.015541 0.011210 -1.376531
v -0.081113 0.011210 -1.355208
v -0.095979 0.011210 -1.383708
v -0.075915 0.011210 -1.453961
v -0.027512 0.011210 -1.471049
v -0.160470 0.009218 -1.175945
v -0.186758 0.009218 -1.116484
v -0.159764 0.009218 -1.119644
v -0.216515 0.009218 -1.112991
v -0.272700 0.009218 -1.148263
v -0.257576 0.009218 -1.245197
v -0.179379 0.009218 -1.268067
v -0.161366 0.009218 -1.247900
v -0.168509 0.024466 -1.177548
v -0.190945 0.024466 -1.126801
v -0.167907 0.024466 -1.129499
v -0.216341 0.024466 -1.123821
v -0.264291 0.024466 -1.153923
v -0.251384 0.024466 -1.236651
v -0.184647 0.024466 -1.256169
v -0.169274 0.024466 -1.238958
v -0.220294 0.015749 -1.046726
v -0.276812 0.010193 -0.911639
v -0.140984 0.008449 -0.966934
v -0.247529 0.008518 -0.900378
v -0.304096 0.011754 -0.922125
v -0.331605 0.016979 -0.997854
v -0.397747 0.021484 -1.036156
v -0.381789 0.025693 -1.121397
v -0.251403 0.018613 -1.078022
v -0.225769 0.065588 -0.782813
v -0.296869 0.059602 -0.795349
v -0.318423 0.079541 -0.475994
v -0.245627 0.084677 -0.477904
v -0.370922 0.094270 -0.204997
v -0.506257 0.094270 0.060044
v -0.386278 0.094270 0.115526
v -0.314065 0.094270 -0.025838
v -0.312344 0.094270 -0.108170
v -0.330058 0.094270 -0.189325
v -0.496871 0.094270 0.085863
v -0.439953 0.094270 -0.231461
v -0.461630 0.094270 -0.174636
v -0.514229 0.094270 -0.145211
v -0.547152 0.094270 -0.009957
v -0.524523 0.094270 0.009791
v -0.370922 0.167481 -0.204997
v -0.506257 0.167481 0.060044
v -0.386278 0.167481 0.115526
v -0.314065 0.167481 -0.025838
v -0.312344 0.167481 -0.108170
v -0.330058 0.167481 -0.189325
v -0.496871 0.167481 0.085863
v -0.439953 0.167481 -0.231461
v -0.461630 0.167481 -0.174636
v -0.514229 0.167481 -0.145211
v -0.547152 0.167481 -0.009957
v -0.524523 0.167481 0.009791
v -0.382269 0.189325 -0.175900
v -0.491260 0.189325 0.037550
v -0.394635 0.189325 0.082232
v -0.336479 0.189325 -0.031615
v -0.335093 0.189325 -0.097921
v -0.349359 0.189325 -0.163279
v -0.483701 0.189325 0.058343
v -0.437862 0.189325 -0.197213
v -0.455319 0.189325 -0.151449
v -0.497681 0.189325 -0.127751
v -0.524195 0.189325 -0.018825
v -0.505971 0.189325 -0.002921
v -0.081765 0.080848 0.108063
v -0.077683 0.080848 0.054493
v -0.187349 0.080848 -0.010261
v -0.219187 0.080848 -0.005411
v -0.292806 0.080848 0.099482
v -0.288080 0.080848 0.210769
v -0.225609 0.080848 0.193106
v -0.186313 0.080848 0.223777
v -0.085436 0.117852 0.109905
v -0.078999 0.127275 0.058654
v -0.182471 0.151252 -0.006238
v -0.213603 0.153855 -0.002405
v -0.289916 0.142614 0.096265
v -0.290467 0.121589 0.203075
v -0.229006 0.117982 0.187744
v -0.192274 0.108014 0.218156
v -0.102408 0.133696 0.112070
v -0.097139 0.141408 0.070122
v -0.181829 0.161033 0.017010
v -0.207310 0.163164 0.020147
v -0.269771 0.153963 0.100906
v -0.270222 0.136755 0.188328
v -0.219917 0.133802 0.175780
v -0.189852 0.125644 0.200672
v -0.884387 0.044901 0.791380
v -1.013536 0.038830 1.045243
v -1.027447 0.045672 0.784740
v -1.087220 0.042386 0.920490
v -0.833414 0.042162 0.888408
v -0.942211 0.038572 1.043717
v -0.989342 0.038396 1.058021
v -0.848335 0.044152 0.814388
v -1.034090 0.039198 1.034389
v -0.950279 0.045728 0.770202
v -1.111255 0.043828 0.868972
v -1.109140 0.044653 0.836946
v -0.481541 0.032080 1.195147
v -0.633163 0.032080 1.370440
v -0.669319 0.032080 1.262817
v -0.567824 0.032080 1.152969
v -0.536707 0.032080 1.146155
v -0.465151 0.032080 1.261795
v -0.560937 0.032080 1.347954
v -0.459942 0.032080 1.214326
v -0.068197 0.027941 1.217009
v -0.231911 0.042854 1.032722
v -0.176981 0.042057 0.952265
v -0.174373 0.042645 0.927295
v -0.065365 0.036152 0.933765
v 0.022271 0.028186 1.031831
v -0.028690 0.029461 1.088350
v 0.007187 0.025031 1.168045
v 1.026147 0.038947 1.299612
v 0.876454 0.024240 1.434524
v 0.730155 0.022922 1.382012
v 0.692781 0.033240 1.218126
v 0.841028 0.044339 1.133469
v 0.909514 0.047083 1.128014
v 0.482288 0.038073 -0.710101
v 0.366886 0.042229 -0.680054
v 0.316740 0.033822 -0.705290
v 0.313269 0.021828 -0.749825
v 0.360928 -0.008874 -0.870904
v 0.401703 -0.008393 -0.874211
v 0.416046 0.010626 -0.804703
v 0.500005 0.019892 -0.780487
v 0.824394 0.054456 -0.085681
v 0.790533 0.059410 -0.053773
v 0.794324 0.058723 -0.089882
v 0.914469 0.042103 0.032808
v 0.773205 0.062549 0.111225
v 0.908878 0.042467 -0.073894
v 0.482259 0.121782 0.158625
v 0.543582 0.121782 0.132544
v 0.573106 0.121782 0.161527
v 0.571169 0.121782 0.280676
v 0.523300 0.121782 0.318099
v 0.497023 0.121782 0.310385
v 0.066666 0.107213 0.380581
v 0.127006 0.107213 0.382997
v 0.140666 0.107213 0.485384
v 0.085598 0.098087 0.555679
v 0.041540 0.098087 0.558522
v 0.036425 0.107213 0.474179
vn -0.1963 0.9794 0.0466
vn -0.1705 0.9848 0.0340
vn -0.1193 0.9868 -0.1099
vn -0.1393 0.9816 -0.1310
vn 0.0059 0.9765 -0.2154
vn 0.0100 0.9848 -0.1733
vn 0.1312 0.9872 -0.0908
vn 0.1490 0.9825 -0.1114
vn 0.2079 0.9775 0.0368
vn 0.1720 0.9847 0.0271
vn 0.0846 0.9874 0.1340
vn 0.1077 0.9841 0.1413
vn -0.0405 0.9749 0.2189
vn -0.0409 0.9819 0.1849
vn -0.1128 0.9832 0.1432
vn -0.1337 0.9779 0.1610
vn -0.0058 0.9998 0.0163
vn -0.0000 -1.0000 -0.0000
vn -0.1673 -0.8661 -0.4711
vn 0.3745 -0.8370 0.3990
vn 0.2205 -0.7142 0.6643
vn -0.1381 -0.6997 0.7010
vn -0.3403 -0.6653 0.6645
vn -0.6983 -0.6658 0.2629
vn -0.4322 -0.7890 -0.4366
vn -0.3164 -0.8320 -0.4557
vn -0.1409 -0.8071 -0.5733
vn 0.4141 -0.8443 -0.3401
vn 0.4370 -0.8608 -0.2608
vn 0.5712 -0.8130 -0.1129
vn 0.5910 -0.7640 -0.2588
vn 0.5911 -0.7686 0.2444
vn 0.2027 -0.7320 0.6505
vn -0.3850 -0.7317 0.5625
vn -0.7147 -0.6987 -0.0311
vn -0.6169 -0.7544 -0.2243
vn -0.5225 -0.7182 -0.4596
vn 0.2797 -0.7673 -0.5771
vn 0.7451 0.6668 -0.0140
vn 0.4469 0.6387 -0.6264
vn -0.3483 0.6423 -0.6827
vn -0.0000 1.0000 -0.0000
vn -0.7329 0.6411 -0.2277
vn -0.6421 0.6780 0.3578
vn -0.1914 0.6501 0.7353
vn 0.5147 0.6431 0.5670
vn -0.4310 0.0761 -0.8991
vn -0.7632 0.0476 -0.6444
vn -0.7631 0.0476 -0.6446
vn -0.9583 0.0725 -0.2764
vn -0.8661 0.0900 0.4917
vn 0.6678 0.0821 0.7398
vn 0.9966 0.0791 -0.0246
vn 0.5744 0.0985 -0.8126
vn -0.2619 0.0940 0.9605
vn -0.7011 0.5686 -0.4302
vn -0.7253 0.6849 0.0695
vn -0.1384 0.9899 0.0310
vn -0.8328 0.0577 -0.5506
vn -0.9944 0.0726 0.0774
vn 0.9945 0.0410 -0.0967
vn 0.0348 0.0345 0.9988
vn -0.3229 0.0186 -0.9463
vn 0.5466 0.7040 -0.4535
vn 0.0589 0.7186 -0.6929
vn -0.6043 0.7126 -0.3564
vn -0.5856 0.7409 0.3288
vn -0.1817 0.7307 0.6581
vn 0.5695 0.7007 0.4297
vn -0.2914 0.2779 0.9153
vn 0.1044 0.2279 0.9681
vn 0.7777 0.2384 -0.5817
vn 0.0196 0.2425 -0.9700
vn -0.8063 0.3363 -0.4866
vn -0.8256 0.2875 0.4855
vn 0.9515 0.2486 -0.1812
vn 0.7457 0.2692 -0.6095
vn -0.2730 0.2626 -0.9255
vn -0.1357 0.8073 -0.5743
vn 0.4231 0.8124 -0.4014
vn 0.2297 0.2871 0.9299
vn 0.8603 0.3115 0.4036
vn 0.4914 0.8479 0.1990
vn 0.0771 0.8368 0.5421
vn -0.1382 -0.0000 0.9904
vn 0.2178 -0.0000 0.9760
vn -0.1342 0.2397 0.9615
vn 0.9091 -0.0000 0.4167
vn 0.7654 -0.0000 -0.6435
vn -0.2730 -0.0000 -0.9620
vn -0.9312 -0.0000 -0.3645
vn -0.8962 0.2833 -0.3414
vn -0.7656 -0.0000 0.6433
vn -0.7374 0.3009 0.6048
vn -0.9994 -0.0000 -0.0345
vn -0.9528 0.3019 -0.0329
vn -0.4603 0.8876 -0.0159
vn -0.4029 0.8271 0.3920
vn -0.0715 0.8560 0.5120
vn -0.4928 0.8443 -0.2104
vn -0.6026 0.7356 -0.3094
vn -0.7556 0.6545 -0.0281
vn -0.6731 0.6835 0.2826
vn -0.0606 0.9978 0.0268
vn -0.4562 0.6567 -0.6005
vn 0.3364 0.0849 -0.9379
vn -0.2300 0.0566 -0.9715
vn -0.2804 0.0530 -0.9584
vn -0.5752 0.1042 -0.8113
vn -0.8581 0.1236 -0.4984
vn -0.9854 0.1514 -0.0782
vn -0.9137 0.1372 0.3825
vn 0.7494 0.0683 0.6586
vn 0.8815 0.0806 0.4653
vn 0.7576 0.0690 0.6490
vn -0.5198 0.0415 -0.8533
vn -0.5143 0.0422 -0.8566
vn 0.5800 0.0346 0.8139
vn 0.5799 0.0363 0.8139
vn 0.5807 0.0177 0.8139
vn -0.0482 0.9988 -0.0050
vn -0.9984 0.0040 -0.0572
vn -0.7784 0.0026 0.6277
vn -0.7611 0.0025 0.6486
vn 0.5502 0.0027 0.8350
vn 0.9670 0.0044 0.2549
vn 0.5669 0.0028 0.8238
vn 0.1456 0.0002 -0.9894
vn -0.1304 -0.2811 -0.9508
vn -0.4053 -0.2452 -0.8807
vn -0.3207 0.3319 -0.8871
vn -0.0748 0.2500 -0.9654
vn 0.4712 -0.1381 0.8711
vn 0.8038 -0.2221 0.5519
vn 0.7922 0.4474 0.4150
vn 0.4968 0.4711 0.7289
vn -0.9705 -0.0935 0.2224
vn -0.6091 -0.2385 -0.7564
vn -0.1058 -0.0265 0.9940
vn 0.7215 -0.3155 -0.6163
vn 0.9349 -0.3184 -0.1568
vn -0.4333 -0.0022 0.9013
vn 0.7474 -0.2963 -0.5947
vn -0.1674 -0.2680 -0.9488
vn 0.7308 0.2181 -0.6468
vn 0.0434 0.8240 -0.5649
vn 0.4004 0.8151 -0.4187
vn -0.0446 0.5146 0.8562
vn 0.2463 0.9421 0.2274
vn 0.0423 0.9641 0.2621
vn -0.3568 0.5192 0.7766
vn -0.8469 0.5164 0.1265
vn 0.7303 0.2172 -0.6477
vn 0.9310 0.2888 -0.2235
vn -0.5149 0.3558 -0.7799
vn -0.1067 0.2702 -0.9569
vn 0.0280 0.8671 -0.4973
vn -0.1182 0.8742 -0.4710
vn -0.2823 0.9593 0.0056
vn -0.0887 0.9644 0.2493
vn 0.3437 0.9384 0.0360
vn 0.4826 0.8078 -0.3385
vn 0.4203 0.8421 -0.3380
vn -0.0641 0.8795 -0.4715
vn -0.9955 -0.0854 -0.0416
vn -0.5304 -0.0720 0.8447
vn -0.5356 0.3890 0.7495
vn -0.9164 0.3732 -0.1448
vn 0.4234 -0.1585 -0.8920
vn 0.9178 -0.1556 -0.3653
vn 0.9289 -0.1505 0.3383
vn 0.3069 -0.1354 0.9420
vn -0.9313 -0.0751 -0.3564
vn 0.1264 -0.1664 -0.9779
vn -0.9939 0.0234 0.1080
vn 0.7801 0.5174 0.3518
vn 0.7970 0.5283 -0.2927
vn 0.1553 0.9826 -0.1023
vn 0.1391 0.9685 0.2066
vn -0.8696 0.4416 -0.2207
vn -0.5755 0.4390 -0.6900
vn 0.3580 0.4772 -0.8025
vn 0.2109 0.4387 0.8735
vn 0.0092 0.9623 -0.2719
vn -0.4829 0.8580 -0.1750
vn -0.4974 0.8622 -0.0958
vn -0.5795 0.8143 0.0324
vn -0.4263 0.8269 0.3667
vn -0.0681 0.9090 0.4113
vn -0.0264 0.9997 0.0002
vn 0.4332 0.0003 0.9013
vn 0.8299 0.0001 0.5579
vn 0.8309 0.0001 0.5565
vn 0.4399 0.0003 0.8980
vn 0.6343 0.0001 -0.7731
vn -0.0327 -0.0014 -0.9995
vn -0.0296 -0.0014 -0.9996
vn 0.6371 0.0001 -0.7708
vn -0.8895 -0.0000 0.4570
vn -0.3511 0.0006 0.9363
vn -0.3440 0.0006 0.9390
vn -0.8877 -0.0000 0.4603
vn 0.9770 0.0005 0.2132
vn 0.9748 0.0009 -0.2232
vn 0.9748 0.0009 -0.2233
vn 0.9774 0.0005 0.2114
vn -0.9693 0.0006 -0.2459
vn -0.5713 0.0006 -0.8207
vn -0.8033 0.0010 -0.5956
vn -0.5686 0.0006 -0.8226
vn -0.2806 -0.0006 -0.9598
vn 0.4029 0.7764 0.4847
vn 0.6517 0.7041 0.2820
vn 0.6472 0.7149 -0.2648
vn 0.2724 0.6881 -0.6725
vn -0.5985 0.6823 -0.4198
vn -0.6410 0.7237 0.2555
vn -0.4267 0.7038 0.5680
vn 0.1525 0.7020 0.6957
vn -0.9240 0.1730 0.3410
vn -0.5608 0.1894 0.8060
vn 0.8940 0.2322 0.3832
vn 0.9211 0.1931 -0.3380
vn 0.3288 0.2166 -0.9192
vn -0.1680 0.2175 -0.9615
vn 0.2097 0.2290 0.9506
vn -0.9711 0.1877 0.1474
vn 0.6256 0.2056 0.7526
vn -0.0379 0.9979 0.0526
vn 0.4794 0.0121 -0.8775
vn 0.0770 0.0022 -0.9970
vn 0.1016 0.0023 -0.9948
vn 0.4745 0.0123 -0.8802
vn -0.4111 0.0148 0.9115
vn -0.3011 0.0050 0.9536
vn -0.3006 0.0050 0.9537
vn -0.4226 0.0147 0.9062
vn -0.1404 -0.0068 0.9901
vn 0.8299 -0.0022 0.5579
vn 0.8331 -0.0023 0.5531
vn -0.1436 -0.0068 0.9896
vn 0.2473 0.0192 -0.9687
vn -0.9638 0.0028 -0.2666
vn -0.9503 0.0026 -0.3115
vn 0.9788 -0.0027 0.2046
vn -0.0646 0.9969 -0.0446
vn -0.4462 0.5859 -0.6764
vn -0.8123 0.5829 0.0188
vn 0.9883 0.0029 -0.1528
vn 0.5262 0.0020 -0.8503
vn 0.5637 0.0018 -0.8259
vn 0.9898 0.0031 -0.1427
vn -0.5517 0.0083 -0.8340
vn -0.9987 0.0054 0.0515
vn 0.8306 0.0066 0.5569
vn 0.8255 0.0065 0.5644
vn -0.2576 0.0025 0.9662
vn -0.2420 0.0026 0.9703
vn -0.5525 0.6807 0.4811
vn 0.3584 0.6364 0.6830
vn 0.5501 0.6345 0.5429
vn 0.6166 0.6755 -0.4044
vn 0.1591 0.7198 -0.6757
vn -0.3430 0.6923 -0.6348
vn -0.6968 0.7061 -0.1259
vn 0.3915 0.1572 0.9066
vn 0.6057 0.0483 0.7942
vn 0.6181 0.0487 0.7846
vn 0.7694 0.1480 0.6214
vn 0.8350 0.1926 -0.5155
vn 0.2050 0.1637 -0.9650
vn -0.4785 0.2141 -0.8516
vn -0.9606 0.1968 -0.1964
vn -0.7376 0.1952 0.6464
vn -0.0173 0.9900 0.1401
vn -0.7588 0.5415 0.3620
vn -0.4918 0.5566 0.6695
vn 0.4475 0.5438 0.7099
vn 0.2431 0.0137 -0.9699
vn 0.2430 -0.0015 -0.9700
vn 0.2431 0.0139 -0.9699
vn 0.9617 -0.0041 0.2742
vn 0.9618 -0.0148 0.2735
vn 0.9617 -0.0047 0.2741
vn 0.5783 0.0084 0.8158
vn -0.9340 0.0107 0.3571
vn -0.5910 0.0097 0.8066
vn 0.2432 0.0292 -0.9695
vn -0.4063 0.6796 0.6107
vn 0.1488 0.6877 0.7106
vn 0.6783 0.6929 0.2445
vn 0.4491 0.6719 -0.5889
vn -0.3480 0.6801 -0.6452
vn -0.7081 0.7048 0.0435
vn -0.5308 0.2235 -0.8175
vn -0.9710 0.2386 0.0181
vn -0.5861 0.1599 0.7943
vn 0.2591 0.1676 0.9512
vn 0.9161 0.2470 0.3159
vn 0.6410 0.2112 -0.7380
vn -0.0475 0.9988 -0.0100
vn 0.8970 -0.0000 -0.4421
vn 0.2736 -0.0000 -0.9618
vn 0.2800 -0.0000 -0.9600
vn -0.9962 -0.0000 -0.0866
vn -0.9447 -0.0000 0.3280
vn -0.9400 -0.0000 0.3412
vn -0.4051 -0.0000 0.9143
vn 0.6292 -0.0000 0.7772
vn -0.3922 -0.0000 0.9199
vn 0.0905 -0.0000 -0.9959
vn -0.1201 -0.9926 -0.0164
vn 0.1626 0.9855 -0.0493
vn 0.7320 0.5092 -0.4528
vn 0.0335 0.5964 -0.8020
vn 0.1737 -0.0344 0.9842
vn 0.8558 -0.1099 0.5055
vn 0.8324 -0.1079 0.5436
vn 0.1638 -0.0330 0.9859
vn 0.8166 -0.0811 -0.5714
vn -0.0724 0.0307 -0.9969
vn -0.5336 0.0572 0.8438
vn -0.5412 0.0582 0.8389
vn -0.9644 0.1232 -0.2341
vn -0.9680 0.1234 -0.2185
vn 0.1484 -0.9834 -0.1048
vn -0.4571 0.6566 0.5999
vn -0.1828 0.6059 0.7743
vn 0.3314 0.7108 0.6204
vn 0.6127 0.7765 0.1471
vn 0.1228 0.7780 -0.6161
vn -0.5344 0.7050 -0.4663
vn -0.7650 0.6192 -0.1774
vn -0.7180 0.5617 0.4110
vn -0.6153 0.1653 -0.7708
vn -0.9525 0.0802 -0.2939
vn -0.1384 0.1104 0.9842
vn 0.5573 0.1944 0.8072
vn 0.9323 0.3520 0.0835
vn 0.8285 0.3891 -0.4027
vn -0.8724 0.0494 0.4863
vn -0.4480 0.2157 -0.8676
vn -0.5615 0.0362 0.8267
vn 0.0768 -0.9795 0.1861
vn -0.1913 0.5060 -0.8410
vn -0.7403 0.5110 -0.4369
vn -0.6610 0.6686 0.3405
vn -0.0768 0.9795 -0.1861
vn -0.1487 0.7625 0.6297
vn 0.4084 0.8057 0.4291
vn 0.7050 0.7058 -0.0694
vn 0.4204 0.5529 -0.7194
vn -0.8161 0.1211 0.5650
vn -0.5074 0.1693 0.8449
vn -0.5075 0.1692 0.8449
vn -0.1146 0.2477 0.9620
vn 0.6231 0.2795 0.7305
vn 0.6073 -0.0194 -0.7942
vn -0.1993 -0.1196 -0.9726
vn -0.9034 -0.0511 -0.4257
vn 0.9809 0.1846 0.0613
vn 0.0977 -0.9933 -0.0621
vn -0.6643 0.6928 -0.2807
vn -0.8150 0.5793 -0.0096
vn -0.7430 0.5960 0.3046
vn -0.1584 0.9835 0.0869
vn -0.5041 0.6473 -0.5717
vn 0.3482 0.1773 -0.9205
vn -0.2118 0.0970 -0.9725
vn -0.2620 0.0876 -0.9611
vn -0.5637 0.1007 -0.8199
vn -0.8542 0.0727 -0.5148
vn -0.9934 0.0608 -0.0975
vn -0.9314 0.0239 0.3633
vn 0.7236 0.0972 0.6833
vn 0.8584 0.1346 0.4951
vn 0.7320 0.0993 0.6740
vn -0.5014 0.0465 -0.8639
vn -0.4959 0.0479 -0.8670
vn 0.5548 0.0375 0.8312
vn 0.5545 0.0391 0.8312
vn 0.5571 0.0207 0.8302
vn 0.0706 -0.9908 0.1153
vn -0.5528 -0.8087 0.2010
vn 0.1926 -0.8429 -0.5024
vn 0.4976 -0.7711 -0.3973
vn 0.6036 -0.7955 -0.0535
vn 0.6119 -0.7759 0.1538
vn 0.2903 -0.7575 0.5847
vn -0.4575 -0.7622 0.4579
vn -0.5044 -0.7912 0.3458
vn -0.6484 -0.7347 0.1998
vn -0.5334 -0.7495 -0.3921
vn -0.4632 -0.7740 -0.4317
vn -0.3382 -0.7336 -0.5895
vn -0.3633 -0.7500 -0.5526
vn 0.1332 -0.7620 -0.6337
vn 0.5969 -0.7379 -0.3150
vn 0.6044 -0.7462 0.2791
vn 0.0720 -0.7102 0.7003
vn -0.1353 -0.7613 0.6341
vn -0.3821 -0.7201 0.5792
vn -0.6276 -0.7539 -0.1942
vn 0.0323 -0.9657 0.2576
vn -0.1260 0.6669 -0.7345
vn -0.6865 0.6387 -0.3475
vn -0.6225 0.6423 0.4471
vn -0.1148 0.6411 0.7588
vn 0.4504 0.6780 0.5809
vn 0.7558 0.6501 0.0785
vn 0.4830 0.6431 -0.5942
vn -0.8240 0.0761 0.5615
vn -0.5221 0.0476 0.8515
vn -0.5223 0.0476 0.8514
vn -0.1290 0.0725 0.9890
vn 0.6165 0.0900 0.7822
vn 0.6308 0.0821 -0.7716
vn -0.1744 0.0791 -0.9815
vn -0.8899 0.0985 -0.4454
vn 0.9890 0.0940 0.1143
vn -0.3198 0.5686 0.7579
vn 0.1779 0.6849 0.7066
vn 0.0515 0.9899 0.1322
vn -0.4189 0.0577 0.9062
vn 0.2263 0.0726 0.9714
vn -0.2453 0.0410 -0.9686
vn 0.9822 0.0345 -0.1848
vn -0.8868 0.0186 0.4617
vn -0.5306 0.7040 -0.4721
vn -0.6939 0.7186 0.0461
vn -0.2613 0.7126 0.6510
vn 0.4133 0.7409 0.5294
vn 0.6779 0.7307 0.0806
vn 0.3391 0.7007 -0.6277
vn 0.9488 0.2779 0.1502
vn 0.9413 0.2279 -0.2490
vn -0.6922 0.2384 -0.6812
vn -0.9619 0.2425 0.1267
vn -0.3596 0.3362 0.8704
vn 0.6043 0.2875 0.7431
vn -0.3225 0.2486 -0.9134
vn -0.7148 0.2692 -0.6454
vn -0.8738 0.2626 0.4093
vn -0.5473 0.8073 0.2207
vn -0.4605 0.8124 -0.3578
vn 0.8847 0.2871 -0.3672
vn 0.2695 0.3115 -0.9112
vn 0.1227 0.8479 -0.5158
vn 0.5243 0.8368 -0.1579
vn 0.9999 -0.0000 -0.0125
vn 0.9321 -0.0000 -0.3623
vn 0.9708 0.2397 -0.0121
vn 0.2750 -0.0000 -0.9614
vn -0.7515 -0.0000 -0.6598
vn -0.9099 -0.0000 0.4148
vn -0.2201 -0.0000 0.9755
vn -0.2026 0.2833 0.9374
vn 0.7512 -0.0000 0.6600
vn 0.7089 0.3009 0.6379
vn 0.1164 -0.0000 0.9932
vn 0.1110 0.3019 0.9468
vn 0.0536 0.8876 0.4575
vn 0.4482 0.8271 0.3392
vn 0.5170 0.8560 -0.0065
vn -0.1338 0.8443 0.5188
vn -0.2151 0.7356 0.6424
vn 0.0860 0.6545 0.7512
vn 0.3807 0.6835 0.6228
vn 0.0356 0.9978 0.0559
vn -0.5250 0.6567 0.5414
vn -0.9778 0.0849 -0.1913
vn -0.9258 0.0566 0.3737
vn -0.9052 0.0530 0.4216
vn -0.7155 0.1042 0.6908
vn -0.3635 0.1236 0.9233
vn 0.0711 0.1514 0.9859
vn 0.5158 0.1372 0.8457
vn 0.5383 0.0683 -0.8400
vn 0.3272 0.0806 -0.9415
vn 0.5275 0.0690 -0.8467
vn -0.7653 0.0415 0.6424
vn -0.7694 0.0422 0.6374
vn 0.7173 0.0346 -0.6959
vn 0.7173 0.0363 -0.6959
vn 0.7172 0.0177 -0.6966
vn -0.0720 0.9952 -0.0670
vn 0.0160 0.1207 0.9926
vn 0.6814 0.1349 0.7194
vn 0.7009 0.1340 0.7006
vn 0.7901 -0.0122 -0.6128
vn 0.1823 -0.0964 -0.9785
vn 0.7777 -0.0149 -0.6285
vn -0.9949 -0.0781 -0.0638
vn -0.9393 -0.1651 0.3009
vn -0.8135 -0.1648 0.5577
vn -0.7510 0.4135 0.5148
vn -0.8858 0.3662 0.2849
vn 0.7353 -0.2060 -0.6457
vn 0.3496 -0.2156 -0.9117
vn 0.3175 0.4620 -0.8281
vn 0.6820 0.4163 -0.6013
vn 0.3872 -0.2131 0.8970
vn -0.6531 -0.1937 0.7321
vn 0.9810 -0.1665 -0.0993
vn -0.7822 -0.1624 -0.6015
vn -0.3774 -0.2053 -0.9030
vn 0.9570 -0.1612 0.2410
vn -0.7634 -0.1438 -0.6298
vn -0.9283 -0.1559 0.3375
vn -0.7351 0.3691 -0.5687
vn -0.4352 0.8914 0.1267
vn -0.3628 0.8971 -0.2522
vn 0.9153 0.3914 -0.0952
vn 0.3124 0.9232 -0.2238
vn 0.3882 0.9211 -0.0300
vn 0.8982 0.3768 0.2263
vn 0.3604 0.4130 0.8364
vn -0.7359 0.3682 -0.5681
vn -0.3519 0.4022 -0.8452
vn -0.6064 0.4047 0.6845
vn -0.8686 0.3820 0.3157
vn -0.3603 0.9236 0.1310
vn -0.3058 0.9133 0.2690
vn 0.2006 0.9193 0.3387
vn 0.4008 0.9106 0.1006
vn 0.1076 0.9538 -0.2806
vn -0.3016 0.8872 -0.3492
vn -0.2842 0.9150 -0.2862
vn -0.3159 0.9238 0.2165
vn 0.1172 -0.1016 0.9879
vn 0.9175 -0.0933 0.3867
vn 0.8323 0.3689 0.4137
vn 0.0106 0.3598 0.9330
vn -0.9509 -0.1383 -0.2768
vn -0.5105 -0.1348 -0.8493
vn 0.1822 -0.1397 -0.9733
vn 0.8781 -0.1440 -0.4562
vn -0.2036 -0.0856 0.9753
vn -0.9882 -0.1499 0.0301
vn 0.2664 0.0050 0.9638
vn 0.2308 0.5253 -0.8190
vn -0.4077 0.5459 -0.7320
vn -0.1090 0.9864 -0.1228
vn 0.1982 0.9676 -0.1566
vn -0.0707 0.4301 0.9000
vn -0.5810 0.4392 0.6852
vn -0.8413 0.4949 -0.2175
vn 0.8358 0.4294 -0.3422
vn -0.2533 0.9662 0.0484
vn -0.0806 0.8522 0.5170
vn -0.0000 0.8550 0.5187
vn 0.1389 0.8039 0.5784
vn 0.4445 0.8141 0.3736
vn 0.4324 0.9016 0.0141
vn 0.0042 0.9997 0.0260
vn 0.8258 0.0003 -0.5640
vn 0.4265 0.0001 -0.9045
vn 0.4250 0.0001 -0.9052
vn 0.8215 0.0003 -0.5701
vn -0.8598 0.0001 -0.5107
vn -0.9831 -0.0014 0.1829
vn -0.9837 -0.0014 0.1798
vn -0.8579 0.0001 -0.5137
vn 0.5857 -0.0000 0.8105
vn 0.9785 0.0006 0.2061
vn 0.9801 0.0006 0.1987
vn 0.5888 -0.0000 0.8083
vn 0.0637 0.0005 -0.9980
vn -0.3674 0.0009 -0.9301
vn -0.3675 0.0009 -0.9300
vn 0.0618 0.0005 -0.9981
vn -0.0971 0.0006 0.9953
vn -0.7254 0.0006 0.6884
vn -0.4678 0.0010 0.8838
vn -0.7276 0.0006 0.6860
vn -0.9066 -0.0006 0.4220
vn 0.4185 0.7764 -0.4713
vn 0.1806 0.7041 -0.6868
vn -0.3593 0.7149 -0.5999
vn -0.7059 0.6881 -0.1681
vn -0.3249 0.6823 0.6549
vn 0.3492 0.7237 0.5953
vn 0.6258 0.7038 0.3363
vn 0.6648 0.7020 -0.2555
vn 0.4763 0.1730 0.8621
vn 0.8813 0.1894 0.4330
vn 0.2442 0.2322 -0.9415
vn -0.4729 0.1931 -0.8597
vn -0.9583 0.2166 -0.1866
vn -0.9252 0.2175 0.3108
vn 0.9082 0.2290 -0.3504
vn 0.2920 0.1877 0.9378
vn 0.6498 0.2056 -0.7318
vn 0.0577 0.9979 0.0295
vn -0.9397 0.0121 -0.3418
vn -0.9973 0.0022 0.0740
vn -0.9988 0.0023 0.0494
vn -0.9416 0.0123 -0.3365
vn 0.9630 0.0148 0.2691
vn 0.9881 0.0050 0.1540
vn 0.9881 0.0050 0.1536
vn 0.9595 0.0147 0.2813
vn 0.9999 -0.0068 -0.0103
vn 0.4266 -0.0022 -0.9044
vn 0.4214 -0.0023 -0.9069
vn 1.0000 -0.0068 -0.0071
vn -0.9949 0.0192 -0.0986
vn -0.1184 0.0028 0.9930
vn -0.1648 0.0026 0.9863
vn 0.0549 -0.0027 -0.9985
vn -0.0343 0.9969 0.0706
vn -0.6015 0.5859 0.5430
vn 0.1409 0.5829 0.8002
vn -0.2999 0.0029 -0.9540
vn -0.9199 0.0020 -0.3922
vn -0.9014 0.0018 -0.4329
vn -0.2901 0.0031 -0.9570
vn -0.7414 0.0083 0.6710
vn 0.2013 0.0055 0.9795
vn 0.4254 0.0066 -0.9050
vn 0.4336 0.0065 -0.9011
vn 0.9940 0.0025 0.1091
vn 0.9956 0.0026 0.0931
vn 0.4990 0.8063 0.3178
vn 0.6333 0.5297 -0.5643
vn -0.0323 0.9657 -0.2576
vn 0.4793 0.4765 -0.7370
vn -0.4711 0.4877 -0.7350
vn -0.7086 0.6459 -0.2840
vn -0.6293 0.7501 0.2033
vn -0.0960 0.8611 0.4993
vn 0.8691 0.0610 -0.4908
vn 0.7445 -0.1011 -0.6599
vn 0.7340 -0.1041 -0.6711
vn 0.5568 -0.0493 -0.8292
vn -0.5827 -0.0366 -0.8119
vn -0.9824 0.0935 -0.1615
vn -0.8197 0.3208 0.4744
vn -0.1300 0.4368 0.8901
vn 0.6933 0.3874 0.6077
vn 0.1411 0.9900 -0.0040
vn 0.4721 0.5415 0.6956
vn 0.7359 0.5566 0.3854
vn 0.6344 0.5438 -0.5493
vn -0.9955 0.0137 -0.0943
vn -0.9956 -0.0015 -0.0942
vn -0.9954 0.0139 -0.0943
vn 0.1262 -0.0041 -0.9920
vn 0.1256 -0.0148 -0.9920
vn 0.1262 -0.0047 -0.9920
vn 0.7194 0.0084 -0.6945
vn 0.4937 0.0107 0.8696
vn 0.8864 0.0097 0.4628
vn -0.9951 0.0292 -0.0944
vn 0.6650 0.6796 0.3097
vn 0.6801 0.6877 -0.2541
vn 0.1396 0.6929 -0.7074
vn -0.6498 0.6719 -0.3553
vn -0.5854 0.6801 0.4412
vn 0.1497 0.7048 0.6935
vn -0.7282 0.2235 0.6479
vn 0.1641 0.2386 0.9572
vn 0.8735 0.1599 0.4598
vn 0.9013 0.1676 -0.3994
vn 0.1744 0.2470 -0.9532
vn -0.8261 0.2112 -0.5225
vn -0.0027 0.9988 0.0484
vn -0.5722 -0.0000 -0.8201
vn -0.9921 -0.0000 -0.1256
vn -0.9912 -0.0000 -0.1323
vn 0.0644 -0.0000 0.9979
vn 0.4665 -0.0000 0.8845
vn 0.4789 -0.0000 0.8779
vn 0.9648 -0.0000 0.2628
vn 0.6736 -0.0000 -0.7391
vn 0.9685 -0.0000 0.2492
vn -0.9982 -0.0000 0.0605
vt 0.277706 0.414870
vt 0.347929 0.443631
vt 0.381864 0.660816
vt 0.319736 0.741611
vt 0.492891 0.795900
vt 0.496508 0.704648
vt 0.652071 0.623102
vt 0.722294 0.694899
vt 0.722294 0.414870
vt 0.652071 0.443631
vt 0.610666 0.295350
vt 0.671012 0.204100
vt 0.492891 0.204100
vt 0.496508 0.295350
vt 0.399658 0.359356
vt 0.341775 0.283375
vt 0.502233 0.471398
vt 0.915567 0.297274
vt 0.938599 0.307319
vt 0.940321 0.280634
vt 0.916428 0.279767
vt 0.842168 0.544465
vt 0.841539 0.526447
vt 0.820073 0.530109
vt 0.817273 0.535051
vt 0.818571 0.559219
vt 0.827004 0.560290
vt 0.754897 0.611859
vt 0.766508 0.601992
vt 0.754698 0.604189
vt 0.755115 0.620315
vt 0.764292 0.634500
vt 0.784105 0.626156
vt 0.786400 0.603353
vt 0.781603 0.599182
vt 0.717615 0.638537
vt 0.746010 0.614407
vt 0.724772 0.594628
vt 0.713900 0.630283
vt 0.721074 0.646228
vt 0.739338 0.650576
vt 0.750645 0.668548
vt 0.769344 0.659272
vt 0.754340 0.622165
vt 0.618952 0.663829
vt 0.689992 0.649749
vt 0.685832 0.628840
vt 0.617992 0.642069
vt 0.499543 0.751217
vt 0.546686 0.706031
vt 0.542463 0.696136
vt 0.526290 0.694760
vt 0.510461 0.698428
vt 0.485317 0.722536
vt 0.494288 0.749815
vt 0.509773 0.753946
vt 0.514246 0.758991
vt 0.539366 0.745227
vt 0.543496 0.730547
vt 0.553819 0.722747
vt 0.500215 0.663836
vt 0.500215 0.654840
vt 0.483343 0.627279
vt 0.472377 0.630660
vt 0.451709 0.664399
vt 0.459302 0.673960
vt 0.457614 0.691955
vt 0.480812 0.688578
vt 0.383375 0.602299
vt 0.399896 0.591285
vt 0.397741 0.576441
vt 0.378347 0.576920
vt 0.366855 0.593201
vt 0.367573 0.604213
vt 0.407307 0.426713
vt 0.399775 0.444566
vt 0.402704 0.452931
vt 0.441198 0.450147
vt 0.445382 0.428386
vt 0.437014 0.420019
vt 0.576793 0.427231
vt 0.572160 0.461201
vt 0.578723 0.475100
vt 0.588760 0.475100
vt 0.615013 0.458628
vt 0.615013 0.446790
vt 0.599184 0.444215
vt 0.592235 0.420537
vt 0.629260 0.161983
vt 0.621748 0.132561
vt 0.595374 0.124381
vt 0.588295 0.133172
vt 0.585382 0.151944
vt 0.597518 0.168124
vt 0.608197 0.188187
vt 0.621788 0.187539
vt 0.481259 0.330668
vt 0.475339 0.341689
vt 0.483012 0.339238
vt 0.476335 0.306592
vt 0.453187 0.308962
vt 0.440278 0.352890
vt 0.281423 0.968980
vt 0.332258 0.920256
vt 0.326052 0.910842
vt 0.309471 0.909822
vt 0.279368 0.948257
vt 0.277837 0.962544
vt 0.310994 0.984754
vt 0.338488 0.961389
vt 0.339064 0.938393
vt 0.284469 0.974448
vt 0.322992 0.989416
vt 0.329879 0.987375
vt 0.222192 0.814144
vt 0.191276 0.862443
vt 0.214256 0.867795
vt 0.233429 0.835774
vt 0.233851 0.827065
vt 0.217627 0.809086
vt 0.208146 0.812455
vt 0.193608 0.841953
vt 0.267220 0.700189
vt 0.272098 0.698561
vt 0.267705 0.669944
vt 0.245752 0.650424
vt 0.235995 0.666037
vt 0.219162 0.659530
vt 0.211600 0.681326
vt 0.252827 0.717752
vt 0.144685 0.342527
vt 0.121831 0.388035
vt 0.136671 0.425234
vt 0.170803 0.428797
vt 0.183565 0.385661
vt 0.182675 0.367062
vt 0.627905 0.161631
vt 0.620894 0.185608
vt 0.608142 0.186216
vt 0.598123 0.167392
vt 0.586738 0.152212
vt 0.589470 0.134600
vt 0.596112 0.126351
vt 0.620857 0.134026
vt 0.631249 0.144849
vt 0.616201 0.144849
vt 0.615653 0.167719
vt 0.629771 0.167719
vt 0.604067 0.144849
vt 0.589988 0.144849
vt 0.591058 0.167719
vt 0.604268 0.167719
vt 0.589529 0.144849
vt 0.611596 0.144849
vt 0.611332 0.167719
vt 0.590628 0.167719
vt 0.621788 0.144849
vt 0.608197 0.144849
vt 0.608142 0.167719
vt 0.620894 0.167719
vt 0.597518 0.144849
vt 0.585382 0.144849
vt 0.586738 0.167719
vt 0.598123 0.167719
vt 0.588295 0.144849
vt 0.595374 0.144849
vt 0.596112 0.167719
vt 0.589470 0.167719
vt 0.621748 0.144849
vt 0.620857 0.167719
vt 0.630763 0.144849
vt 0.629315 0.167719
vt 0.916015 0.296835
vt 0.917146 0.279916
vt 0.940038 0.281369
vt 0.937921 0.307148
vt 0.930742 0.286010
vt 0.917612 0.286010
vt 0.917724 0.296349
vt 0.930412 0.296669
vt 0.918262 0.286010
vt 0.938276 0.286010
vt 0.938147 0.301076
vt 0.918813 0.300663
vt 0.916428 0.286010
vt 0.940321 0.286010
vt 0.940038 0.300663
vt 0.917146 0.296349
vt 0.938599 0.286010
vt 0.915567 0.286010
vt 0.916015 0.296669
vt 0.937921 0.301076
vt 0.839909 0.544212
vt 0.827585 0.557073
vt 0.820730 0.556203
vt 0.819675 0.536560
vt 0.821952 0.532543
vt 0.839398 0.529567
vt 0.821803 0.539751
vt 0.842729 0.533079
vt 0.842211 0.545248
vt 0.825203 0.550671
vt 0.840267 0.533864
vt 0.823239 0.539293
vt 0.826370 0.550299
vt 0.840210 0.545886
vt 0.837908 0.534616
vt 0.820469 0.540176
vt 0.824119 0.551017
vt 0.838293 0.546497
vt 0.819853 0.540372
vt 0.832779 0.536251
vt 0.834124 0.547827
vt 0.823619 0.551176
vt 0.815443 0.541779
vt 0.820034 0.552319
vt 0.818315 0.540863
vt 0.822368 0.551575
vt 0.784105 0.620178
vt 0.764292 0.620178
vt 0.765209 0.624484
vt 0.782119 0.624484
vt 0.781603 0.620178
vt 0.786400 0.620178
vt 0.784077 0.624484
vt 0.779983 0.624484
vt 0.766508 0.609197
vt 0.781603 0.609197
vt 0.766508 0.620178
vt 0.760433 0.609197
vt 0.777535 0.609197
vt 0.777535 0.620178
vt 0.760433 0.620178
vt 0.783793 0.609197
vt 0.773154 0.609197
vt 0.773154 0.620178
vt 0.783793 0.620178
vt 0.754698 0.609197
vt 0.754698 0.620178
vt 0.786400 0.609197
vt 0.784105 0.609197
vt 0.764292 0.609197
vt 0.766812 0.609197
vt 0.766812 0.620178
vt 0.761060 0.609197
vt 0.761060 0.620178
vt 0.757191 0.612589
vt 0.757021 0.606043
vt 0.767100 0.604168
vt 0.779983 0.601770
vt 0.784077 0.605329
vt 0.782119 0.624790
vt 0.765209 0.631912
vt 0.757377 0.619806
vt 0.767360 0.624484
vt 0.772772 0.624484
vt 0.762450 0.624484
vt 0.767100 0.624484
vt 0.776511 0.624484
vt 0.761915 0.624484
vt 0.781852 0.624484
vt 0.757021 0.624484
vt 0.718485 0.637635
vt 0.715053 0.629612
vt 0.726038 0.595654
vt 0.746091 0.615198
vt 0.753957 0.622864
vt 0.767760 0.658888
vt 0.749684 0.667311
vt 0.739125 0.649760
vt 0.721681 0.645111
vt 0.769344 0.623439
vt 0.750645 0.623439
vt 0.749684 0.638498
vt 0.767760 0.639737
vt 0.752603 0.623439
vt 0.746834 0.623439
vt 0.746158 0.635174
vt 0.751764 0.635633
vt 0.740644 0.623439
vt 0.713902 0.623439
vt 0.714672 0.634660
vt 0.740140 0.634680
vt 0.734555 0.623439
vt 0.762386 0.623439
vt 0.762097 0.639737
vt 0.735080 0.637652
vt 0.739338 0.623439
vt 0.721074 0.623439
vt 0.721681 0.635633
vt 0.739125 0.637171
vt 0.746010 0.623439
vt 0.754340 0.623439
vt 0.753957 0.637652
vt 0.746091 0.636809
vt 0.769342 0.623439
vt 0.755864 0.623439
vt 0.755251 0.637171
vt 0.768414 0.638498
vt 0.724772 0.623439
vt 0.726038 0.634660
vt 0.618955 0.663681
vt 0.618043 0.641917
vt 0.685833 0.628975
vt 0.689942 0.649901
vt 0.667113 0.638514
vt 0.650792 0.638514
vt 0.650678 0.649567
vt 0.667001 0.649517
vt 0.640871 0.638514
vt 0.656552 0.638514
vt 0.656667 0.654155
vt 0.640972 0.653995
vt 0.617992 0.638514
vt 0.685832 0.638514
vt 0.685833 0.653995
vt 0.618043 0.649567
vt 0.689992 0.638514
vt 0.618952 0.638514
vt 0.618955 0.649517
vt 0.689942 0.654155
vt 0.513752 0.717536
vt 0.508864 0.717536
vt 0.508864 0.738347
vt 0.513752 0.738347
vt 0.494374 0.717536
vt 0.502484 0.717536
vt 0.502484 0.738347
vt 0.494374 0.738347
vt 0.536772 0.709194
vt 0.516313 0.709194
vt 0.516011 0.717536
vt 0.538369 0.717536
vt 0.526290 0.709194
vt 0.542463 0.709194
vt 0.544588 0.717536
vt 0.526914 0.717536
vt 0.539366 0.709194
vt 0.514246 0.709194
vt 0.541203 0.717536
vt 0.503935 0.709194
vt 0.516471 0.709194
vt 0.516184 0.717536
vt 0.496514 0.709194
vt 0.509773 0.709194
vt 0.485317 0.709194
vt 0.510461 0.709194
vt 0.509616 0.717536
vt 0.482139 0.717536
vt 0.553819 0.709194
vt 0.543496 0.709194
vt 0.545716 0.717536
vt 0.556997 0.717536
vt 0.499543 0.709194
vt 0.494288 0.709194
vt 0.491942 0.717536
vt 0.497685 0.717536
vt 0.522322 0.709194
vt 0.533331 0.709194
vt 0.534608 0.717536
vt 0.522577 0.717536
vt 0.541203 0.746929
vt 0.513752 0.761971
vt 0.514884 0.755140
vt 0.536991 0.743026
vt 0.526914 0.691780
vt 0.544588 0.693284
vt 0.539717 0.699823
vt 0.525484 0.698611
vt 0.509616 0.738347
vt 0.482139 0.738347
vt 0.545716 0.738347
vt 0.556997 0.738347
vt 0.491942 0.738347
vt 0.497685 0.738347
vt 0.526914 0.738347
vt 0.534608 0.738347
vt 0.522577 0.738347
vt 0.516011 0.738347
vt 0.538369 0.738347
vt 0.544588 0.738347
vt 0.541203 0.738347
vt 0.516184 0.738347
vt 0.501945 0.748298
vt 0.497320 0.747064
vt 0.489425 0.723057
vt 0.511553 0.701839
vt 0.543434 0.708531
vt 0.549711 0.723242
vt 0.540626 0.730107
vt 0.510947 0.750700
vt 0.549203 0.704097
vt 0.556997 0.722363
vt 0.508864 0.756458
vt 0.482139 0.722133
vt 0.509616 0.695788
vt 0.540626 0.744557
vt 0.549711 0.744557
vt 0.497685 0.753476
vt 0.491942 0.751943
vt 0.545716 0.730888
vt 0.479605 0.650032
vt 0.452968 0.650032
vt 0.453829 0.660913
vt 0.480718 0.658020
vt 0.500215 0.645350
vt 0.480812 0.645350
vt 0.481068 0.650032
vt 0.501492 0.650032
vt 0.451576 0.645350
vt 0.472246 0.645350
vt 0.472058 0.650032
vt 0.450299 0.650032
vt 0.459302 0.645350
vt 0.451709 0.645350
vt 0.450432 0.650032
vt 0.458424 0.650032
vt 0.457614 0.645350
vt 0.456648 0.650032
vt 0.478994 0.645350
vt 0.479160 0.650032
vt 0.472377 0.645350
vt 0.483343 0.645350
vt 0.483732 0.650032
vt 0.472188 0.650032
vt 0.479416 0.645350
vt 0.454112 0.645350
vt 0.500083 0.645350
vt 0.486587 0.645350
vt 0.487154 0.650032
vt 0.501360 0.650032
vt 0.500453 0.653348
vt 0.500651 0.662568
vt 0.495525 0.661737
vt 0.495363 0.654191
vt 0.487716 0.660951
vt 0.501625 0.662012
vt 0.481673 0.668194
vt 0.500651 0.671500
vt 0.471128 0.670734
vt 0.450724 0.663684
vt 0.451856 0.658020
vt 0.459706 0.660951
vt 0.458405 0.662012
vt 0.478043 0.671500
vt 0.482869 0.663684
vt 0.471908 0.660913
vt 0.479992 0.683470
vt 0.460947 0.687473
vt 0.462012 0.672294
vt 0.455587 0.664656
vt 0.472000 0.635313
vt 0.480971 0.631924
vt 0.471908 0.630284
vt 0.482869 0.626143
vt 0.457602 0.665572
vt 0.479609 0.663204
vt 0.485337 0.665603
vt 0.496721 0.666471
vt 0.481673 0.689121
vt 0.459706 0.675466
vt 0.451856 0.666134
vt 0.458405 0.694011
vt 0.281408 0.968920
vt 0.277832 0.962476
vt 0.279379 0.948192
vt 0.309520 0.909824
vt 0.326095 0.910881
vt 0.332286 0.920308
vt 0.310949 0.984759
vt 0.284447 0.974395
vt 0.339067 0.938461
vt 0.338463 0.961455
vt 0.329825 0.987422
vt 0.322937 0.989448
vt 0.279354 0.938589
vt 0.286415 0.938589
vt 0.286454 0.960439
vt 0.279383 0.960219
vt 0.329879 0.938589
vt 0.322992 0.938589
vt 0.322937 0.960124
vt 0.329825 0.960366
vt 0.279368 0.938589
vt 0.309471 0.938589
vt 0.309520 0.959636
vt 0.279379 0.958584
vt 0.300018 0.938589
vt 0.317265 0.938589
vt 0.317314 0.960664
vt 0.300069 0.960681
vt 0.326052 0.938589
vt 0.326095 0.960219
vt 0.336755 0.938589
vt 0.336790 0.960366
vt 0.318131 0.938589
vt 0.307416 0.938589
vt 0.307367 0.958584
vt 0.318080 0.958533
vt 0.327059 0.938589
vt 0.322958 0.938589
vt 0.322913 0.958660
vt 0.327020 0.958768
vt 0.310994 0.938589
vt 0.310949 0.959702
vt 0.284469 0.938589
vt 0.284447 0.958768
vt 0.221068 0.816980
vt 0.231366 0.828392
vt 0.230994 0.836085
vt 0.214059 0.864369
vt 0.193760 0.859642
vt 0.195821 0.841543
vt 0.208662 0.815488
vt 0.217036 0.812512
vt 0.215198 0.830969
vt 0.193074 0.830969
vt 0.195349 0.845912
vt 0.214890 0.845912
vt 0.204031 0.830969
vt 0.210563 0.830969
vt 0.210797 0.845912
vt 0.205027 0.845912
vt 0.214256 0.830969
vt 0.191276 0.830969
vt 0.193760 0.845912
vt 0.214059 0.845912
vt 0.208146 0.830969
vt 0.217627 0.830969
vt 0.217036 0.845912
vt 0.208662 0.845912
vt 0.230565 0.830969
vt 0.228464 0.845912
vt 0.222192 0.830969
vt 0.233851 0.830969
vt 0.231366 0.845912
vt 0.221068 0.845912
vt 0.234579 0.830969
vt 0.232010 0.845912
vt 0.267299 0.699815
vt 0.253026 0.717551
vt 0.211603 0.681745
vt 0.219023 0.659876
vt 0.235884 0.666142
vt 0.245537 0.650417
vt 0.267595 0.669607
vt 0.272164 0.698123
vt 0.267220 0.674402
vt 0.252827 0.674402
vt 0.253026 0.693767
vt 0.267299 0.693554
vt 0.219162 0.674402
vt 0.235995 0.674402
vt 0.235884 0.690191
vt 0.219023 0.689008
vt 0.245752 0.674402
vt 0.267705 0.674402
vt 0.267595 0.691977
vt 0.245537 0.689850
vt 0.272098 0.674402
vt 0.272164 0.693711
vt 0.211600 0.674402
vt 0.211603 0.689785
vt 0.239813 0.674402
vt 0.223466 0.674402
vt 0.223725 0.689008
vt 0.240127 0.689785
vt 0.228346 0.674402
vt 0.216636 0.674402
vt 0.216631 0.689850
vt 0.228425 0.690191
vt 0.231276 0.674402
vt 0.252739 0.674402
vt 0.252411 0.693711
vt 0.231024 0.691977
vt 0.144442 0.342626
vt 0.182499 0.366874
vt 0.183499 0.385449
vt 0.171024 0.428629
vt 0.136944 0.425304
vt 0.121911 0.388245
vt 0.152697 0.375260
vt 0.185049 0.375260
vt 0.184923 0.392312
vt 0.152538 0.395320
vt 0.182377 0.375260
vt 0.154478 0.375260
vt 0.154635 0.389872
vt 0.182430 0.389515
vt 0.138748 0.375260
vt 0.138608 0.396064
vt 0.170803 0.375260
vt 0.136671 0.375260
vt 0.136944 0.389515
vt 0.171024 0.392312
vt 0.120347 0.375260
vt 0.120421 0.393858
vt 0.144685 0.375260
vt 0.182675 0.375260
vt 0.182499 0.396064
vt 0.144442 0.393858
vt 0.577966 0.428669
vt 0.592330 0.422442
vt 0.598793 0.444467
vt 0.613516 0.446862
vt 0.613516 0.457873
vt 0.589098 0.473195
vt 0.579761 0.473195
vt 0.573656 0.460266
vt 0.573125 0.442482
vt 0.590883 0.442482
vt 0.591072 0.453155
vt 0.574554 0.453155
vt 0.592815 0.442482
vt 0.601693 0.442482
vt 0.601127 0.453155
vt 0.592869 0.453155
vt 0.588760 0.442482
vt 0.578723 0.442482
vt 0.579761 0.453155
vt 0.589098 0.453155
vt 0.603623 0.442482
vt 0.578146 0.442482
vt 0.579224 0.453155
vt 0.602922 0.453155
vt 0.576793 0.442482
vt 0.592235 0.442482
vt 0.592330 0.453155
vt 0.577966 0.453155
vt 0.599184 0.442482
vt 0.615013 0.442482
vt 0.613516 0.453155
vt 0.598793 0.453155
vt 0.615013 0.442482
vt 0.614048 0.442482
vt 0.612618 0.453155
vt 0.481266 0.330059
vt 0.483152 0.338488
vt 0.475520 0.341149
vt 0.440645 0.353310
vt 0.452867 0.309431
vt 0.475969 0.306377
vt 0.475339 0.319532
vt 0.440278 0.319532
vt 0.440645 0.340155
vt 0.475520 0.339246
vt 0.462333 0.319532
vt 0.468760 0.319532
vt 0.468198 0.339047
vt 0.461876 0.337810
vt 0.444276 0.319532
vt 0.444115 0.334337
vt 0.479000 0.319532
vt 0.446053 0.319532
vt 0.446405 0.334232
vt 0.479315 0.340155
vt 0.483012 0.319532
vt 0.483152 0.339047
vt 0.453187 0.319532
vt 0.476335 0.319532
vt 0.475969 0.334337
vt 0.452867 0.334232
vt 0.409364 0.428028
vt 0.435069 0.422235
vt 0.442310 0.429476
vt 0.438690 0.448305
vt 0.405381 0.450714
vt 0.402847 0.443476
vt 0.434921 0.428183
vt 0.428647 0.428183
vt 0.427829 0.444767
vt 0.433258 0.444767
vt 0.407307 0.428183
vt 0.437014 0.428183
vt 0.435069 0.444767
vt 0.409364 0.444767
vt 0.416512 0.428183
vt 0.432833 0.428183
vt 0.431452 0.444767
vt 0.417329 0.444767
vt 0.441198 0.428183
vt 0.402704 0.428183
vt 0.405381 0.444767
vt 0.438690 0.444767
vt 0.415257 0.428183
vt 0.416243 0.444767
vt 0.445382 0.428183
vt 0.442310 0.444767
vt 0.399896 0.585033
vt 0.383375 0.585033
vt 0.383375 0.595621
vt 0.399896 0.595621
vt 0.393790 0.585033
vt 0.385531 0.585033
vt 0.385531 0.593336
vt 0.393790 0.593336
vt 0.378347 0.585033
vt 0.397741 0.585033
vt 0.397741 0.595621
vt 0.378347 0.595621
vt 0.367573 0.585033
vt 0.367573 0.593336
vt 0.373320 0.585033
vt 0.373320 0.595621
vt 0.372961 0.585033
vt 0.384094 0.585033
vt 0.384094 0.595621
vt 0.372961 0.595621
s 1
usemtl debris_01
f 13/1/1 14/2/2 4/3/3 3/4/4
f 9/5/5 10/6/6 8/7/7 7/8/8
f 15/9/9 16/10/10 6/11/11 5/12/12
f 11/13/13 12/14/14 2/15/15 1/16/16
f 2/15/15 12/14/14 17/17/17
f 4/3/3 14/2/2 17/17/17
f 5/12/12 6/11/11 12/14/14 11/13/13
f 3/4/4 4/3/3 10/6/6 9/5/5
f 10/6/6 4/3/3 17/17/17
f 12/14/14 6/11/11 17/17/17
f 7/8/8 8/7/7 16/10/10 15/9/9
f 1/16/16 2/15/15 14/2/2 13/1/1
f 8/7/7 10/6/6 17/17/17
f 16/10/10 8/7/7 17/17/17
f 14/2/2 2/15/15 17/17/17
f 6/11/11 16/10/10 17/17/17
f 20/18/18 19/19/18 18/20/18 21/21/18
f 26/22/18 27/23/18 22/24/18 23/25/18 24/26/18 25/27/18
f 29/28/18 28/29/18 30/30/18
f 28/29/18 29/28/18 31/31/18 32/32/18 33/33/18 34/34/18 35/35/18
f 37/36/18 36/37/18 38/38/18 39/39/18
f 36/37/18 37/36/18 40/40/18 41/41/18 42/42/18 43/43/18 44/44/18
f 47/45/18 46/46/18 45/47/18 48/48/18
f 50/49/19 49/50/20 54/51/21 53/52/22 52/53/23 51/54/24 55/55/25
f 49/50/20 50/49/19 60/56/26 59/57/27 58/58/28 57/59/29 56/60/30
f 64/61/31 63/62/32 62/63/33 61/64/34 68/65/35 67/66/36 66/67/37 65/68/38
f 74/69/18 69/70/18 70/71/18 71/72/18 72/73/18 73/74/18
f 78/75/18 79/76/18 80/77/18 75/78/18 76/79/18 77/80/18
f 81/81/18 82/82/18 83/83/18 84/84/18 85/85/18 86/86/18 87/87/18 88/88/18
f 95/89/18 96/90/18 89/91/18 90/92/18 91/93/18 92/94/18 93/95/18 94/96/18
f 97/97/18 98/98/18 99/99/18
f 98/98/18 97/97/18 102/100/18 100/101/18 101/102/18
f 104/103/18 103/104/18 110/105/18 107/106/18 108/107/18 109/108/18
f 106/109/18 105/110/18 112/111/18 103/104/18 104/103/18 111/112/18
f 105/110/18 106/109/18 113/113/18 114/114/18
f 115/115/18 116/116/18 117/117/18 118/118/18 119/119/18
f 116/116/18 115/115/18 122/120/18 120/121/18 121/122/18
f 125/123/18 126/124/18 127/125/18 128/126/18 129/127/18 130/128/18 123/129/18 124/130/18
f 131/131/18 132/132/18 133/133/18 134/134/18 135/135/18 136/136/18
f 143/137/39 142/138/40 141/139/41 140/140/42 139/141/43 138/142/44 137/143/45 144/144/46
f 93/145/47 92/146/48 140/147/49 141/148/41
f 91/149/50 90/150/51 138/151/44 139/152/43
f 96/153/52 95/154/53 143/155/39 144/156/46
f 94/157/54 93/158/47 141/159/41 142/160/40
f 92/161/48 91/162/50 139/163/43 140/164/49
f 90/165/51 89/166/55 137/167/45 138/168/44
f 89/166/55 96/169/52 144/170/46 137/167/45
f 95/154/53 94/171/54 142/172/40 143/155/39
f 147/173/56 148/174/57 145/175/58 146/176/58
f 20/177/59 21/178/60 148/179/57 147/180/56
f 18/181/61 19/182/61 146/183/61 145/184/61
f 21/185/62 18/186/62 145/187/62 148/188/62
f 19/189/63 20/190/59 147/191/56 146/192/63
f 153/193/64 152/194/65 151/195/66 150/196/67 149/197/68 154/198/69
f 22/199/70 27/200/71 154/201/69 149/202/68
f 26/203/72 25/204/73 152/205/65 153/206/64
f 24/207/74 23/208/75 150/209/67 151/210/66
f 27/211/76 26/212/72 153/213/64 154/214/69
f 25/204/73 24/215/74 151/216/66 152/205/65
f 23/217/75 22/199/70 149/202/68 150/218/67
f 160/219/77 159/220/78 167/221/79 168/222/80
f 162/223/81 161/224/82 169/225/83 170/226/84
f 28/227/85 35/228/86 162/223/81 155/229/87
f 34/230/88 33/231/89 160/232/77 161/233/82
f 32/234/90 31/235/91 158/236/92 159/237/78
f 30/238/93 28/227/85 155/229/87 157/239/94
f 35/228/86 34/240/88 161/224/82 162/223/81
f 33/241/89 32/242/90 159/220/78 160/219/77
f 31/235/91 29/243/95 156/244/96 158/236/92
f 29/243/95 30/245/93 157/246/94 156/244/96
f 164/247/97 165/248/98 163/249/99
f 163/249/99 170/250/84 169/251/83 168/252/80 167/253/79 166/254/100 164/247/97
f 158/236/92 156/244/96 164/255/97 166/256/100
f 156/244/96 157/246/94 165/257/98 164/255/97
f 155/229/87 162/223/81 170/226/84 163/258/99
f 161/233/82 160/232/77 168/259/80 169/260/83
f 159/237/78 158/236/92 166/256/100 167/261/79
f 157/239/94 155/229/87 163/258/99 165/262/98
f 172/263/101 174/264/102 173/265/103 171/266/104
f 171/266/104 179/267/104 178/268/104 177/269/104 176/270/104 175/271/105 172/263/101
f 43/272/106 42/273/107 177/274/108 178/275/106
f 40/276/109 37/277/110 172/278/101 175/279/105
f 39/280/111 38/281/112 173/282/103 174/283/102
f 44/284/113 43/285/114 178/286/114 179/287/115
f 41/288/116 40/289/109 175/290/105 176/291/117
f 37/277/110 39/280/111 174/283/102 172/278/101
f 36/292/118 44/293/113 179/294/115 171/295/119
f 42/296/107 41/297/116 176/298/117 177/299/108
f 38/300/120 36/292/118 171/295/119 173/301/120
f 182/302/121 183/303/121 180/304/121 181/305/121
f 47/306/122 48/307/123 183/308/124 182/309/122
f 45/310/125 46/311/126 181/312/126 180/313/127
f 48/314/123 45/315/125 180/316/127 183/317/124
f 46/318/128 47/319/128 182/320/128 181/321/128
f 194/322/129 195/323/130 207/324/131 206/325/132
f 189/326/133 184/327/134 196/328/135 201/329/136
f 55/330/25 51/331/24 186/332/137 190/333/138
f 53/334/22 54/335/21 189/336/133 188/337/139
f 58/338/28 59/339/27 194/322/129 193/340/140
f 49/341/20 56/342/30 191/343/141 184/327/134
f 54/344/21 49/341/20 184/327/134 189/326/133
f 59/339/27 60/345/26 195/323/130 194/322/129
f 51/346/24 52/347/23 187/348/142 186/349/137
f 56/350/30 57/351/29 192/352/143 191/353/141
f 50/354/19 55/355/25 190/356/138 185/357/144
f 60/345/26 50/354/19 185/357/144 195/323/130
f 52/347/23 53/334/22 188/337/139 187/348/142
f 57/358/29 58/359/28 193/360/140 192/361/143
f 205/362/145 206/363/132 218/364/146 217/365/147
f 200/366/148 201/367/136 213/368/149 212/369/150
f 186/349/137 187/348/142 199/370/151 198/371/152
f 191/353/141 192/352/143 204/372/153 203/373/154
f 185/357/144 190/356/138 202/374/155 197/375/156
f 195/323/130 185/357/144 197/375/156 207/324/131
f 187/348/142 188/337/139 200/376/148 199/370/151
f 192/361/143 193/360/140 205/377/145 204/378/153
f 190/333/138 186/332/137 198/379/152 202/380/155
f 188/337/139 189/336/133 201/381/136 200/376/148
f 193/340/140 194/322/129 206/325/132 205/382/145
f 184/327/134 191/343/141 203/383/154 196/328/135
f 209/384/157 214/385/158 210/386/159 211/387/160 212/369/150 213/368/149 208/388/161
f 208/388/161 215/389/162 216/390/163 217/365/147 218/364/146 219/391/164 209/384/157
f 196/392/135 203/393/154 215/389/162 208/388/161
f 201/367/136 196/392/135 208/388/161 213/368/149
f 206/363/132 207/394/131 219/391/164 218/364/146
f 198/395/152 199/396/151 211/387/160 210/386/159
f 203/373/154 204/372/153 216/397/163 215/398/162
f 197/399/156 202/400/155 214/385/158 209/384/157
f 207/394/131 197/399/156 209/384/157 219/391/164
f 199/396/151 200/366/148 212/369/150 211/387/160
f 204/401/153 205/362/145 217/365/147 216/390/163
f 202/400/155 198/395/152 210/386/159 214/385/158
f 227/402/165 220/403/166 228/404/167 235/405/168
f 64/406/31 65/407/38 224/408/169 223/409/170
f 62/410/33 63/411/32 222/412/171 221/413/172
f 67/414/36 68/415/35 227/416/165 226/417/173
f 65/407/38 66/418/37 225/419/174 224/408/169
f 63/411/32 64/420/31 223/421/170 222/412/171
f 61/422/34 62/423/33 221/424/172 220/425/166
f 68/426/35 61/427/34 220/403/166 227/402/165
f 66/428/37 67/429/36 226/430/173 225/431/175
f 230/432/176 231/433/177 239/434/178 238/435/179
f 225/431/175 226/430/173 234/436/180 233/437/181
f 223/409/170 224/408/169 232/438/182 231/439/177
f 221/413/172 222/412/171 230/440/176 229/441/183
f 226/417/173 227/416/165 235/442/168 234/443/180
f 224/408/169 225/419/174 233/444/181 232/438/182
f 222/412/171 223/421/170 231/445/177 230/440/176
f 220/425/166 221/424/172 229/446/183 228/447/167
f 239/434/178 240/448/184 241/449/185 242/450/186 243/451/187 236/452/188 237/453/189 238/435/179
f 228/454/167 229/455/183 237/453/189 236/452/188
f 235/405/168 228/404/167 236/456/188 243/457/187
f 233/437/181 234/436/180 242/458/186 241/459/185
f 231/433/177 232/460/182 240/448/184 239/434/178
f 229/455/183 230/432/176 238/435/179 237/453/189
f 234/461/180 235/462/168 243/451/187 242/450/186
f 232/460/182 233/463/181 241/449/185 240/448/184
f 245/464/190 250/465/190 249/466/190 248/467/190 251/468/190 244/469/190
f 247/470/190 252/471/190 245/464/190 244/469/190 253/472/190 246/473/190
f 246/473/190 255/474/190 254/475/190 247/470/190
f 110/476/191 103/477/192 244/478/193 251/479/194
f 114/480/195 113/481/196 254/482/197 255/483/198
f 108/484/199 107/485/200 248/486/201 249/487/202
f 112/488/203 105/489/204 246/490/205 253/491/206
f 107/485/200 110/492/191 251/493/194 248/486/201
f 105/489/204 114/494/195 255/495/198 246/490/205
f 109/496/207 108/497/199 249/498/202 250/499/207
f 103/477/192 112/488/203 253/491/206 244/478/193
f 111/500/208 104/501/209 245/502/209 252/503/210
f 104/501/209 109/496/207 250/499/207 245/502/209
f 113/481/196 106/504/211 247/505/211 254/482/197
f 106/504/211 111/506/208 252/507/210 247/505/211
f 256/508/212 260/509/213 259/510/214 258/511/215 257/512/216
f 257/512/216 262/513/217 261/514/218 263/515/219 256/508/212
f 121/516/220 120/517/221 261/518/218 262/519/217
f 119/520/222 118/521/223 259/522/214 260/523/213
f 117/524/224 116/525/225 257/526/216 258/527/215
f 120/528/221 122/529/226 263/530/219 261/531/218
f 116/532/227 121/516/220 262/519/217 257/533/216
f 115/534/228 119/535/222 260/536/213 256/537/212
f 118/521/223 117/538/224 258/539/215 259/522/214
f 122/529/226 115/534/228 256/537/212 263/530/219
f 266/540/229 265/541/229 264/542/229 271/543/229 270/544/229 269/545/229 268/546/229 267/547/229
f 125/548/230 124/549/231 265/550/232 266/551/233
f 130/552/234 129/553/235 270/554/236 271/555/237
f 128/556/238 127/557/239 268/558/240 269/559/241
f 126/560/242 125/548/230 266/551/233 267/561/242
f 124/549/231 123/562/243 264/563/244 265/550/232
f 123/564/243 130/565/234 271/566/237 264/567/244
f 129/568/235 128/569/238 269/570/241 270/571/236
f 127/572/239 126/573/245 267/574/245 268/575/240
f 272/576/246 277/577/246 276/578/246 275/579/246 274/580/247 273/581/248
f 135/582/249 134/583/250 275/584/251 276/585/252
f 133/586/253 132/587/254 273/588/248 274/589/247
f 136/590/255 135/582/249 276/585/252 277/591/256
f 134/592/250 133/593/253 274/594/247 275/595/251
f 132/587/254 131/596/257 272/597/258 273/588/248
f 131/598/257 136/599/255 277/600/256 272/601/258
f 278/602/259 285/603/260 284/604/42 283/605/261 282/606/262 281/607/263 280/608/264 279/609/265
f 88/610/266 87/611/267 284/612/268 285/613/260
f 86/614/269 85/615/270 282/616/262 283/617/261
f 84/618/271 83/619/272 280/620/264 281/621/263
f 82/622/273 81/623/274 278/624/259 279/625/265
f 81/626/274 88/627/266 285/628/260 278/629/259
f 87/630/267 86/631/269 283/632/261 284/633/268
f 85/634/270 84/618/271 281/621/263 282/632/262
f 83/635/272 82/622/273 279/625/265 280/636/264
f 286/637/275 288/638/275 287/639/275
f 287/639/275 290/640/276 289/641/277 291/642/278 286/637/275
f 98/643/279 101/644/280 290/645/280 287/646/281
f 97/647/282 99/648/283 288/649/283 286/650/284
f 102/651/285 97/647/282 286/650/284 291/652/278
f 101/653/286 100/654/287 289/655/277 290/656/276
f 99/657/288 98/643/279 287/646/281 288/658/288
f 100/659/287 102/660/285 291/661/278 289/662/277
f 295/663/289 294/664/290 293/665/291 292/666/292 297/667/293 296/668/294
f 80/669/295 79/670/296 296/671/294 297/672/293
f 78/673/297 77/674/298 294/675/290 295/676/289
f 76/677/299 75/678/300 292/679/292 293/680/291
f 75/681/300 80/682/295 297/683/293 292/684/292
f 79/670/296 78/685/297 295/686/289 296/671/294
f 77/674/298 76/687/299 293/688/291 294/675/290
f 303/69/301 302/74/301 301/73/301 300/72/301 299/71/301 298/70/301
f 69/689/302 74/690/303 303/691/304 298/692/302
f 73/693/305 72/694/306 301/695/307 302/696/305
f 71/697/308 70/698/309 299/699/309 300/700/310
f 74/690/303 73/701/311 302/702/311 303/691/304
f 72/694/306 71/703/308 300/704/310 301/695/307
f 70/705/309 69/706/302 298/707/302 299/708/309
f 304/131/312 305/132/312 306/133/312 307/134/312 308/135/312 309/136/312
f 310/576/313 315/577/313 314/578/313 313/579/313 312/580/314 311/581/315
f 308/582/316 307/583/317 313/584/318 314/585/319
f 306/586/320 305/587/321 311/588/315 312/589/314
f 309/590/322 308/582/316 314/585/319 315/591/323
f 307/592/317 306/593/320 312/594/314 313/595/318
f 305/587/321 304/596/324 310/597/325 311/588/315
f 304/598/324 309/599/322 315/600/323 310/601/325
f 316/115/326 317/116/326 318/117/326 319/118/326 320/119/326
f 317/116/326 316/115/326 323/120/326 321/121/326 322/122/326
f 324/508/327 328/509/328 327/510/329 326/511/330 325/512/331
f 325/512/331 330/513/332 329/514/333 331/515/334 324/508/327
f 322/516/335 321/517/336 329/518/333 330/519/332
f 320/520/337 319/521/338 327/522/329 328/523/328
f 318/524/339 317/525/340 325/526/331 326/527/330
f 321/528/336 323/529/341 331/530/334 329/531/333
f 317/532/342 322/516/335 330/519/332 325/533/331
f 316/534/343 320/535/337 328/536/328 324/537/327
f 319/521/338 318/538/339 326/539/330 327/522/329
f 323/529/341 316/534/343 324/537/327 331/530/334
f 338/89/344 339/90/344 332/91/344 333/92/344 334/93/344 335/94/344 336/95/344 337/96/344
f 346/137/345 345/138/346 344/139/347 343/140/348 342/141/349 341/142/350 340/143/351 347/144/352
f 336/145/353 335/146/354 343/147/355 344/148/347
f 334/149/356 333/150/357 341/151/350 342/152/349
f 339/153/358 338/154/359 346/155/345 347/156/352
f 337/157/360 336/158/353 344/159/347 345/160/346
f 335/161/354 334/162/356 342/163/349 343/164/355
f 333/165/357 332/166/361 340/167/351 341/168/350
f 332/166/361 339/169/358 347/170/352 340/167/351
f 338/154/359 337/171/360 345/172/346 346/155/345
f 349/36/362 348/37/362 350/38/362 351/39/362
f 348/37/362 349/36/362 352/40/362 353/41/362 354/42/362 355/43/362 356/44/362
f 358/263/363 360/264/364 359/265/365 357/266/366
f 357/266/366 365/267/366 364/268/366 363/269/366 362/270/366 361/271/367 358/263/363
f 355/272/368 354/273/369 363/274/370 364/275/368
f 352/276/371 349/277/372 358/278/363 361/279/367
f 351/280/373 350/281/374 359/282/365 360/283/364
f 356/284/375 355/285/376 364/286/376 365/287/377
f 353/288/378 352/289/371 361/290/367 362/291/379
f 349/277/372 351/280/373 360/283/364 358/278/363
f 348/292/380 356/293/375 365/294/377 357/295/381
f 354/296/369 353/297/378 362/298/379 363/299/370
f 350/300/382 348/292/380 357/295/381 359/301/382
f 368/18/18 367/19/18 366/20/18 369/21/18
f 374/22/18 375/23/18 370/24/18 371/25/18 372/26/18 373/27/18
f 377/28/18 376/29/18 378/30/18
f 376/29/18 377/28/18 379/31/18 380/32/18 381/33/18 382/34/18 383/35/18
f 385/36/18 384/37/18 386/38/18 387/39/18
f 384/37/18 385/36/18 388/40/18 389/41/18 390/42/18 391/43/18 392/44/18
f 395/45/383 394/46/383 393/47/383 396/48/383
f 398/49/384 397/50/385 402/51/386 401/52/387 400/53/388 399/54/389 403/55/390
f 397/50/385 398/49/384 408/56/391 407/57/392 406/58/393 405/59/394 404/60/395
f 412/61/396 411/62/397 410/63/398 409/64/399 416/65/400 415/66/401 414/67/402 413/68/403
f 422/69/18 417/70/18 418/71/18 419/72/18 420/73/18 421/74/18
f 426/75/18 427/76/18 428/77/18 423/78/18 424/79/18 425/80/18
f 429/81/404 430/82/404 431/83/404 432/84/404 433/85/404 434/86/404 435/87/404 436/88/404
f 443/89/18 444/90/18 437/91/18 438/92/18 439/93/18 440/94/18 441/95/18 442/96/18
f 445/97/18 446/98/18 447/99/18
f 446/98/18 445/97/18 450/100/18 448/101/18 449/102/18
f 452/103/18 451/104/18 458/105/18 455/106/18 456/107/18 457/108/18
f 454/109/18 453/110/18 460/111/18 451/104/18 452/103/18 459/112/18
f 453/110/18 454/109/18 461/113/18 462/114/18
f 463/115/18 464/116/18 465/117/18 466/118/18 467/119/18
f 464/116/18 463/115/18 470/120/18 468/121/18 469/122/18
f 473/123/18 474/124/18 475/125/18 476/126/18 477/127/18 478/128/18 471/129/18 472/130/18
f 479/131/18 480/132/18 481/133/18 482/134/18 483/135/18 484/136/18
f 491/137/405 490/138/406 489/139/407 488/140/42 487/141/408 486/142/409 485/143/410 492/144/411
f 441/145/412 440/146/413 488/147/414 489/148/407
f 439/149/415 438/150/416 486/151/409 487/152/408
f 444/153/417 443/154/418 491/155/405 492/156/411
f 442/157/419 441/158/412 489/159/407 490/160/406
f 440/161/413 439/162/415 487/163/408 488/164/414
f 438/165/416 437/166/420 485/167/410 486/168/409
f 437/166/420 444/169/417 492/170/411 485/167/410
f 443/154/418 442/171/419 490/172/406 491/155/405
f 495/173/421 496/174/422 493/175/423 494/176/423
f 368/177/424 369/178/425 496/179/422 495/180/421
f 366/181/426 367/182/426 494/183/426 493/184/426
f 369/185/427 366/186/427 493/187/427 496/188/427
f 367/189/428 368/190/424 495/191/421 494/192/428
f 501/193/429 500/194/430 499/195/431 498/196/432 497/197/433 502/198/434
f 370/199/435 375/200/436 502/201/434 497/202/433
f 374/203/437 373/204/438 500/205/430 501/206/429
f 372/207/439 371/208/440 498/209/432 499/210/431
f 375/211/441 374/212/437 501/213/429 502/214/434
f 373/204/438 372/215/439 499/216/431 500/205/430
f 371/217/440 370/199/435 497/202/433 498/218/432
f 508/219/442 507/220/443 515/221/444 516/222/445
f 510/223/446 509/224/447 517/225/448 518/226/449
f 376/227/450 383/228/451 510/223/446 503/229/452
f 382/230/453 381/231/454 508/232/442 509/233/447
f 380/234/455 379/235/456 506/236/457 507/237/443
f 378/238/458 376/227/450 503/229/452 505/239/459
f 383/228/451 382/240/453 509/224/447 510/223/446
f 381/241/454 380/242/455 507/220/443 508/219/442
f 379/235/456 377/243/460 504/244/461 506/236/457
f 377/243/460 378/245/458 505/246/459 504/244/461
f 512/247/462 513/248/463 511/249/464
f 511/249/464 518/250/449 517/251/448 516/252/445 515/253/444 514/254/465 512/247/462
f 506/236/457 504/244/461 512/255/462 514/256/465
f 504/244/461 505/246/459 513/257/463 512/255/462
f 503/229/452 510/223/446 518/226/449 511/258/464
f 509/233/447 508/232/442 516/259/445 517/260/448
f 507/237/443 506/236/457 514/256/465 515/261/444
f 505/239/459 503/229/452 511/258/464 513/262/463
f 520/263/466 522/264/467 521/265/468 519/266/469
f 519/266/469 527/267/469 526/268/469 525/269/469 524/270/469 523/271/470 520/263/466
f 391/272/471 390/273/472 525/274/473 526/275/471
f 388/276/474 385/277/475 520/278/466 523/279/470
f 387/280/476 386/281/477 521/282/468 522/283/467
f 392/284/478 391/285/479 526/286/479 527/287/480
f 389/288/481 388/289/474 523/290/470 524/291/482
f 385/277/475 387/280/476 522/283/467 520/278/466
f 384/292/483 392/293/478 527/294/480 519/295/484
f 390/296/472 389/297/481 524/298/482 525/299/473
f 386/300/485 384/292/483 519/295/484 521/301/485
f 530/302/486 531/303/486 528/304/486 529/305/486
f 395/306/487 396/307/488 531/308/489 530/309/487
f 393/310/490 394/311/491 529/312/491 528/313/492
f 396/314/488 393/315/490 528/316/492 531/317/489
f 394/318/493 395/319/493 530/320/493 529/321/493
f 542/322/494 543/323/495 555/324/496 554/325/497
f 537/326/498 532/327/499 544/328/500 549/329/501
f 403/330/390 399/331/389 534/332/502 538/333/503
f 401/334/387 402/335/386 537/336/498 536/337/504
f 406/338/393 407/339/392 542/322/494 541/340/505
f 397/341/385 404/342/395 539/343/506 532/327/499
f 402/344/386 397/341/385 532/327/499 537/326/498
f 407/339/392 408/345/391 543/323/495 542/322/494
f 399/346/389 400/347/388 535/348/507 534/349/502
f 404/350/395 405/351/394 540/352/508 539/353/506
f 398/354/384 403/355/390 538/356/503 533/357/509
f 408/345/391 398/354/384 533/357/509 543/323/495
f 400/347/388 401/334/387 536/337/504 535/348/507
f 405/358/394 406/359/393 541/360/505 540/361/508
f 553/362/510 554/363/497 566/364/511 565/365/512
f 548/366/513 549/367/501 561/368/514 560/369/515
f 534/349/502 535/348/507 547/370/516 546/371/517
f 539/353/506 540/352/508 552/372/518 551/373/519
f 533/357/509 538/356/503 550/374/520 545/375/521
f 543/323/495 533/357/509 545/375/521 555/324/496
f 535/348/507 536/337/504 548/376/513 547/370/516
f 540/361/508 541/360/505 553/377/510 552/378/518
f 538/333/503 534/332/502 546/379/517 550/380/520
f 536/337/504 537/336/498 549/381/501 548/376/513
f 541/340/505 542/322/494 554/325/497 553/382/510
f 532/327/499 539/343/506 551/383/519 544/328/500
f 557/384/522 562/385/523 558/386/524 559/387/525 560/369/515 561/368/514 556/388/526
f 556/388/526 563/389/527 564/390/528 565/365/512 566/364/511 567/391/529 557/384/522
f 544/392/500 551/393/519 563/389/527 556/388/526
f 549/367/501 544/392/500 556/388/526 561/368/514
f 554/363/497 555/394/496 567/391/529 566/364/511
f 546/395/517 547/396/516 559/387/525 558/386/524
f 551/373/519 552/372/518 564/397/528 563/398/527
f 545/399/521 550/400/520 562/385/523 557/384/522
f 555/394/496 545/399/521 557/384/522 567/391/529
f 547/396/516 548/366/513 560/369/515 559/387/525
f 552/401/518 553/362/510 565/365/512 564/390/528
f 550/400/520 546/395/517 558/386/524 562/385/523
f 575/402/530 568/403/531 576/404/532 583/405/533
f 412/406/396 413/407/403 572/408/534 571/409/535
f 410/410/398 411/411/397 570/412/536 569/413/537
f 415/414/401 416/415/400 575/416/530 574/417/538
f 413/407/403 414/418/402 573/419/539 572/408/534
f 411/411/397 412/420/396 571/421/535 570/412/536
f 409/422/399 410/423/398 569/424/537 568/425/531
f 416/426/400 409/427/399 568/403/531 575/402/530
f 414/428/402 415/429/401 574/430/538 573/431/540
f 578/432/541 579/433/542 587/434/543 586/435/544
f 573/431/540 574/430/538 582/436/545 581/437/546
f 571/409/535 572/408/534 580/438/547 579/439/542
f 569/413/537 570/412/536 578/440/541 577/441/548
f 574/417/538 575/416/530 583/442/533 582/443/545
f 572/408/534 573/419/539 581/444/546 580/438/547
f 570/412/536 571/421/535 579/445/542 578/440/541
f 568/425/531 569/424/537 577/446/548 576/447/532
f 587/434/543 588/448/549 589/449/550 590/450/551 591/451/552 584/452/553 585/453/554 586/435/544
f 576/454/532 577/455/548 585/453/554 584/452/553
f 583/405/533 576/404/532 584/456/553 591/457/552
f 581/437/546 582/436/545 590/458/551 589/459/550
f 579/433/542 580/460/547 588/448/549 587/434/543
f 577/455/548 578/432/541 586/435/544 585/453/554
f 582/461/545 583/462/533 591/451/552 590/450/551
f 580/460/547 581/463/546 589/449/550 588/448/549
f 593/464/555 598/465/555 597/466/555 596/467/555 599/468/555 592/469/555
f 595/470/555 600/471/555 593/464/555 592/469/555 601/472/555 594/473/555
f 594/473/555 603/474/555 602/475/555 595/470/555
f 458/476/556 451/477/557 592/478/558 599/479/559
f 462/480/560 461/481/561 602/482/562 603/483/563
f 456/484/564 455/485/565 596/486/566 597/487/567
f 460/488/568 453/489/569 594/490/570 601/491/571
f 455/485/565 458/492/556 599/493/559 596/486/566
f 453/489/569 462/494/560 603/495/563 594/490/570
f 457/496/572 456/497/564 597/498/567 598/499/572
f 451/477/557 460/488/568 601/491/571 592/478/558
f 459/500/573 452/501/574 593/502/574 600/503/575
f 452/501/574 457/496/572 598/499/572 593/502/574
f 461/481/561 454/504/576 595/505/576 602/482/562
f 454/504/576 459/506/573 600/507/575 595/505/576
f 604/508/577 608/509/578 607/510/579 606/511/580 605/512/581
f 605/512/581 610/513/582 609/514/583 611/515/584 604/508/577
f 469/516/585 468/517/586 609/518/583 610/519/582
f 467/520/587 466/521/588 607/522/579 608/523/578
f 465/524/589 464/525/590 605/526/581 606/527/580
f 468/528/586 470/529/591 611/530/584 609/531/583
f 464/532/592 469/516/585 610/519/582 605/533/581
f 463/534/593 467/535/587 608/536/578 604/537/577
f 466/521/588 465/538/589 606/539/580 607/522/579
f 470/529/591 463/534/593 604/537/577 611/530/584
f 614/540/594 613/541/594 612/542/594 619/543/594 618/544/594 617/545/594 616/546/594 615/547/594
f 473/548/595 472/549/596 613/550/597 614/551/598
f 478/552/599 477/553/600 618/554/601 619/555/602
f 476/556/603 475/557/604 616/558/605 617/559/606
f 474/560/607 473/548/595 614/551/598 615/561/607
f 472/549/596 471/562/608 612/563/609 613/550/597
f 471/564/608 478/565/599 619/566/602 612/567/609
f 477/568/600 476/569/603 617/570/606 618/571/601
f 475/572/604 474/573/610 615/574/610 616/575/605
f 620/576/611 625/577/611 624/578/611 623/579/611 622/580/612 621/581/613
f 483/582/614 482/583/615 623/584/616 624/585/617
f 481/586/618 480/587/619 621/588/613 622/589/612
f 484/590/620 483/582/614 624/585/617 625/591/621
f 482/592/615 481/593/618 622/594/612 623/595/616
f 480/587/619 479/596/622 620/597/623 621/588/613
f 479/598/622 484/599/620 625/600/621 620/601/623
f 626/602/624 633/603/625 632/604/626 631/605/627 630/606/628 629/607/629 628/608/630 627/609/631
f 436/610/632 435/611/633 632/612/634 633/613/625
f 434/614/635 433/615/636 630/616/628 631/617/627
f 432/618/637 431/619/638 628/620/630 629/621/629
f 430/622/639 429/623/640 626/624/624 627/625/631
f 429/626/640 436/627/632 633/628/625 626/629/624
f 435/630/633 434/631/635 631/632/627 632/633/634
f 433/634/636 432/618/637 629/621/629 630/632/628
f 431/635/638 430/622/639 627/625/631 628/636/630
f 634/637/641 636/638/641 635/639/641
f 635/639/641 638/640/642 637/641/643 639/642/644 634/637/641
f 446/643/645 449/644/646 638/645/646 635/646/647
f 445/647/648 447/648/649 636/649/649 634/650/650
f 450/651/651 445/647/648 634/650/650 639/652/644
f 449/653/652 448/654/653 637/655/643 638/656/642
f 447/657/654 446/643/645 635/646/647 636/658/654
f 448/659/653 450/660/651 639/661/644 637/662/643
f 643/663/655 642/664/656 641/665/657 640/666/658 645/667/659 644/668/660
f 428/669/661 427/670/662 644/671/660 645/672/659
f 426/673/663 425/674/664 642/675/656 643/676/655
f 424/677/665 423/678/666 640/679/658 641/680/657
f 423/681/666 428/682/661 645/683/659 640/684/658
f 427/670/662 426/685/663 643/686/655 644/671/660
f 425/674/664 424/687/665 641/688/657 642/675/656
f 651/69/667 650/74/667 649/73/667 648/72/667 647/71/667 646/70/667
f 417/689/668 422/690/669 651/691/670 646/692/668
f 421/693/671 420/694/672 649/695/673 650/696/671
f 419/697/674 418/698/675 647/699/675 648/700/676
f 422/690/669 421/701/677 650/702/677 651/691/670
f 420/694/672 419/703/674 648/704/676 649/695/673
f 418/705/675 417/706/668 646/707/668 647/708/675
