# Blender 4.5.9 LTS
# www.blender.org
mtllib debris.mtl
o debris
v -0.637413 0.151204 -0.936076
v -0.752774 0.313024 -0.954573
v -0.624566 0.164017 -0.919062
v -0.761137 0.340171 -0.946894
v -0.642597 0.148294 -0.911707
v -0.776662 0.322799 -0.943465
v -0.987827 0.549558 -1.027407
v -0.994673 0.533356 -1.043228
v -1.005376 0.534234 -1.022321
v -1.059209 0.716636 -1.473183
v -1.065615 0.699163 -1.490705
v -1.077170 0.700702 -1.467945
v 1.465065 -0.267161 1.767546
v 1.465065 -0.135568 1.767546
v 1.405089 -0.233263 1.716809
v 1.405089 -0.169466 1.716809
v 1.498384 -0.267161 1.640241
v 1.498384 -0.135568 1.640241
v 1.421242 -0.233263 1.655091
v 1.421242 -0.169466 1.655091
v 1.532688 -0.238581 1.755702
v 1.532687 -0.164148 1.755702
v 1.551534 -0.164148 1.683694
v 1.551534 -0.238581 1.683694
v 0.639974 -0.265973 0.358613
v 0.686367 -0.265973 -0.117417
v 1.335174 -0.240266 0.373807
v 1.093203 -0.265973 0.391721
v 0.699383 -0.237089 -0.414312
v 0.686367 0.004484 -0.117417
v 0.854966 -0.019956 -0.402947
v 0.699383 -0.103309 -0.414312
v 0.690677 -0.004344 -0.215724
v 0.659514 0.029114 0.158110
v 0.639974 -0.095206 0.358613
v 1.093204 -0.035265 0.391721
v 1.325427 -0.208754 -0.042600
v 1.369764 -0.240266 0.018881
v 1.097387 -0.265973 -0.042288
v 1.139596 -0.229078 -0.084309
v 1.087236 -0.204916 -0.337298
v 1.025389 -0.237089 -0.390497
v 1.087236 -0.048953 -0.337298
v 1.025388 -0.017521 -0.390497
v 1.097405 0.014410 -0.042409
v 1.139596 -0.025740 -0.084309
v 1.325427 -0.020545 -0.042600
v 1.320335 0.020638 0.007627
v 1.369765 -0.014790 0.018874
v 1.290712 0.047816 0.311665
v 1.341599 0.011046 0.307884
v 1.335174 -0.029829 0.373807
v 1.284295 0.006951 0.377574
v -0.690071 -0.114292 -0.023216
v -0.435695 -0.142909 0.202629
v -0.498364 -0.178579 0.063227
v -0.701847 0.012392 -0.002117
v -0.449506 0.005673 0.227376
v -0.522002 0.075730 0.105582
v -0.672528 -0.084264 -0.193721
v -0.463936 -0.118539 -0.256796
v -0.375283 -0.037651 -0.360218
v -0.684304 0.042420 -0.172622
v -0.487574 0.135770 -0.214441
v -0.389094 0.110931 -0.335471
v -0.218158 -0.166718 0.225286
v -0.192371 -0.251596 0.056673
v -0.009541 -0.112086 0.251452
v 0.045380 -0.120344 0.104250
v -0.238874 0.056155 0.262405
v -0.233804 0.194151 0.130912
v -0.023352 0.036496 0.276198
v 0.024664 0.102529 0.141369
v -0.165065 -0.194956 -0.215017
v -0.159989 -0.057250 -0.346375
v 0.072611 -0.068010 -0.168207
v 0.047342 -0.007088 -0.311804
v -0.206498 0.250791 -0.140779
v -0.180705 0.165623 -0.309256
v 0.051894 0.154864 -0.131087
v 0.033531 0.141494 -0.287057
v -0.399233 -0.098349 1.231764
v -0.361342 -0.146373 1.090520
v -0.271134 -0.128818 1.324149
v -0.205244 -0.222897 1.177615
v -0.394761 -0.055399 1.225980
v -0.353397 -0.070062 1.080243
v -0.260756 -0.029134 1.310724
v -0.183250 -0.011641 1.149165
v -0.275340 -0.168316 0.906123
v -0.077376 -0.215914 0.904123
v 0.086576 -0.206259 0.782077
v -0.269218 -0.109518 0.898205
v -0.063405 -0.081728 0.886052
v 0.094373 -0.131376 0.771993
v -0.019671 -0.150345 1.469634
v 0.054851 -0.250569 1.304426
v 0.156387 -0.135885 1.530491
v 0.246198 -0.187976 1.382505
v -0.005621 -0.015401 1.451461
v 0.082950 0.019319 1.268080
v 0.165754 -0.045922 1.518376
v 0.260248 -0.053032 1.364332
v 0.179590 -0.265455 1.040780
v 0.270975 -0.230241 0.851520
v 0.358685 -0.218813 1.116050
v 0.416974 -0.220342 0.938906
v 0.205343 -0.018102 1.007469
v 0.282679 -0.117832 0.836382
v 0.371566 -0.095094 1.099389
v 0.424783 -0.145346 0.928806
v -0.154848 -0.251817 0.625479
v 0.071028 -0.227747 0.626267
v -0.101194 -0.011306 0.618614
v 0.116447 0.062013 0.645193
v 0.214844 0.198429 0.541640
v -0.188648 -0.253390 0.534956
v -0.018676 -0.231921 0.386018
v -0.146261 -0.013403 0.497916
v -0.000040 0.056593 0.333214
v 0.140305 0.194961 0.342007
v 0.397558 -0.231647 0.537495
v 0.591410 -0.245307 0.408182
v 0.483106 -0.002950 0.672243
v 0.449948 0.168017 0.510990
v 0.664529 -0.042524 0.434104
v 0.640778 0.131306 0.383206
v 0.285750 -0.236849 0.238045
v 0.516871 -0.248775 0.208549
v 0.259490 -0.013354 0.073342
v 0.338140 0.162815 0.211540
v 0.552721 -0.047727 0.134654
v 0.566239 0.127838 0.183573
v -0.058948 0.005998 -0.173556
v 0.200590 -0.175387 0.029484
v 0.170946 -0.026916 0.013762
v 0.144212 -0.195640 -0.103110
v 0.022128 -0.061119 -0.091762
v -0.055999 0.114135 -0.188251
v 0.209453 0.149662 -0.014689
v 0.121222 0.219363 -0.125686
v 0.218221 0.360829 -0.244762
v -0.073177 -0.013364 -0.318885
v 0.118427 -0.227360 -0.373363
v -0.006731 -0.101505 -0.394739
v 0.148200 -0.242186 -0.514789
v 0.118531 -0.099636 -0.531868
v -0.070228 0.094773 -0.333580
v 0.089531 0.177400 -0.453487
v 0.203510 0.340812 -0.395005
v 0.157002 0.080610 -0.558656
v 0.403977 -0.189670 0.012299
v 0.408455 -0.036007 -0.005474
v 0.390105 -0.221721 -0.123711
v 0.581185 -0.191240 -0.006108
v 0.605907 -0.044338 -0.027163
v 0.588073 -0.214270 -0.144087
v 0.653799 -0.065109 -0.170395
v 0.413552 0.161450 -0.035417
v 0.414883 0.293592 -0.077908
v 0.404070 0.363173 -0.224621
v 0.590008 0.132342 -0.050081
v 0.602791 0.207744 -0.182885
v 0.559136 0.346532 -0.276858
v 0.363936 -0.249199 -0.394491
v 0.350794 -0.253907 -0.534386
v 0.354427 -0.109523 -0.557285
v 0.561323 -0.245952 -0.414250
v 0.626470 -0.100994 -0.439941
v 0.527509 -0.257988 -0.550262
v 0.551563 -0.116981 -0.572615
v 0.366639 0.234756 -0.573568
v 0.382033 0.333188 -0.449688
v 0.360330 0.095841 -0.581915
v 0.572595 0.170674 -0.488958
v 0.544465 0.326568 -0.426705
v 0.536344 0.066016 -0.594293
v -1.094691 -0.108084 0.701166
v -0.846127 -0.177981 0.826972
v -1.094978 0.000993 0.668396
v -0.860586 0.139083 0.663552
v -1.094173 -0.152300 0.553989
v -0.880599 -0.230970 0.513451
v -1.094460 -0.043222 0.521219
v -0.834051 0.111639 0.456225
v -0.527243 -0.202534 0.877256
v -0.323160 -0.161605 0.808621
v -0.528097 0.175753 0.706990
v -0.314763 0.104110 0.672353
v -0.526113 -0.254643 0.496302
v -0.313441 -0.182820 0.531895
v -0.527270 0.149271 0.412581
v -0.323149 0.099470 0.450866
v 0.709476 -0.237116 0.467144
v 0.571567 -0.225008 0.788719
v 0.674325 -0.255954 0.650046
v 0.707520 -0.201511 0.465315
v 0.568173 -0.163203 0.785544
v 0.668755 -0.154523 0.644836
v 0.803987 -0.233455 0.437393
v 0.957730 -0.235632 0.572384
v 1.147879 -0.187109 0.626553
v 0.802032 -0.197849 0.435564
v 0.952408 -0.138728 0.567406
v 1.144899 -0.132850 0.623766
v 0.624118 -0.226223 0.962602
v 0.773531 -0.275005 0.919306
v 0.672082 -0.200815 1.109813
v 0.818603 -0.215673 1.069785
v 0.619144 -0.135649 0.957949
v 0.762656 -0.076968 0.909134
v 0.668844 -0.141855 1.106785
v 0.813224 -0.117722 1.064754
v 1.066173 -0.218025 0.850041
v 1.179181 -0.180239 0.726835
v 1.016427 -0.197153 1.001715
v 1.059664 -0.099500 0.843953
v 1.176201 -0.125980 0.724048
v 1.012493 -0.125511 0.998035
v -1.385368 -0.203195 0.290547
v -1.296070 -0.201372 -0.179325
v -0.695146 -0.244918 0.368312
v -0.939085 -0.247383 0.363982
v -1.253415 -0.169952 -0.473167
v -1.270393 0.067798 -0.173401
v -1.079602 0.030979 -0.443203
v -1.240714 -0.036808 -0.470237
v -1.258016 0.059897 -0.271100
v -1.319741 0.091256 0.099101
v -1.369155 -0.033240 0.294287
v -0.917182 -0.017773 0.369035
v -0.663933 -0.207104 -0.046511
v -0.628566 -0.243559 0.017977
v -0.895454 -0.242042 -0.067816
v -0.846285 -0.208840 -0.105082
v -0.872882 -0.176391 -0.361145
v -0.932405 -0.201736 -0.420346
v -0.858075 -0.021170 -0.357728
v -0.911561 0.016787 -0.415536
v -0.868806 0.037007 -0.061793
v -0.826981 -0.006470 -0.100628
v -0.646064 -0.019790 -0.042389
v -0.651772 0.021023 0.008073
v -0.607158 -0.019156 0.022909
v -0.706218 0.046907 0.308773
v -0.658920 0.005450 0.308746
v -0.675167 -0.035483 0.372921
v -0.722455 0.005984 0.372935
v 0.345189 0.497394 -0.725371
v 0.079713 0.534029 -0.643579
v 0.165456 0.480898 -0.723708
v 0.379205 0.487141 -0.625654
v 0.119610 0.522004 -0.526626
v 0.233742 0.460317 -0.523534
v 0.406199 0.372704 -0.759004
v 0.279942 0.245337 -0.783952
v 0.281070 0.119872 -0.749799
v 0.440216 0.362451 -0.659287
v 0.348228 0.224756 -0.583778
v 0.320967 0.107847 -0.632846
v -0.082354 0.455408 -0.630832
v -0.058541 0.354667 -0.748048
v -0.218626 0.365024 -0.559745
v -0.202036 0.247203 -0.609939
v -0.022509 0.437371 -0.455402
v 0.061148 0.318593 -0.397187
v -0.178730 0.353000 -0.442791
v -0.142191 0.229167 -0.434509
v 0.041478 0.154249 -0.795197
v 0.125002 0.035622 -0.737152
v -0.102833 0.047318 -0.660544
v -0.014798 -0.047735 -0.666664
v 0.161167 0.118175 -0.444337
v 0.184846 0.017585 -0.561721
v -0.042988 0.029281 -0.485113
v 0.025099 -0.059760 -0.549711
v -0.587332 0.167281 0.240754
v -0.541735 0.170821 0.093784
v -0.461350 0.112344 0.324319
v -0.385205 0.075333 0.158498
v -0.584902 0.209818 0.249855
v -0.537418 0.246399 0.109954
v -0.455710 0.211070 0.345442
v -0.373252 0.284559 0.203264
v -0.447883 0.215153 -0.082586
v -0.247762 0.178309 -0.089901
v -0.080101 0.234357 -0.192940
v -0.444556 0.273387 -0.070127
v -0.240170 0.311206 -0.061467
v -0.075864 0.308520 -0.177073
v -0.214707 0.052568 0.467350
v -0.128930 0.016351 0.282356
v -0.042041 0.052265 0.538731
v 0.055832 0.056150 0.386793
v -0.207072 0.186216 0.495945
v -0.113660 0.283646 0.339545
v -0.036951 0.141363 0.557794
v 0.063467 0.189797 0.415388
v 0.006167 0.095323 0.035774
v 0.102581 0.195293 -0.125845
v 0.179642 0.120596 0.131607
v 0.244500 0.180695 -0.032593
v 0.020162 0.340300 0.088189
v 0.108941 0.306622 -0.102026
v 0.186642 0.243126 0.157823
v 0.248743 0.254970 -0.016702
v 0.692084 0.083582 -1.139301
v 0.525267 0.160456 -1.005650
v 0.630205 -0.094316 -0.980256
v 0.483196 -0.051958 -0.806925
v 0.330895 -0.160914 -0.744096
v 0.655763 0.036780 -1.215654
v 0.428873 0.036246 -1.208292
v 0.581778 -0.156718 -1.082062
v 0.358022 -0.213254 -1.070069
v 0.250797 -0.264126 -0.912480
v 0.226198 0.270043 -0.891341
v -0.002309 0.315957 -0.878567
v 0.237579 0.168170 -0.631976
v 0.140113 -0.046885 -0.656129
v -0.053475 0.189663 -0.709539
v -0.083429 0.017309 -0.656922
v 0.106051 0.115225 -1.143917
v -0.082407 0.212745 -1.046952
v -0.002715 -0.141466 -1.137129
v 0.019967 -0.201703 -0.908706
v -0.173622 0.034845 -0.962115
v -0.163526 -0.085903 -0.825306
v -0.870080 0.061743 -0.643806
v -0.610542 -0.119642 -0.440766
v -0.640185 0.028829 -0.456488
v -0.666920 -0.139895 -0.573361
v -0.789004 -0.005374 -0.562013
v -0.867131 0.169880 -0.658501
v -0.601678 0.205407 -0.484939
v -0.689910 0.275108 -0.595936
v -0.592911 0.416573 -0.715012
v -0.884309 0.042381 -0.789135
v -0.692705 -0.171615 -0.843613
v -0.817862 -0.045760 -0.864990
v -0.662931 -0.186441 -0.985039
v -0.692600 -0.043891 -1.002119
v -0.881360 0.150518 -0.803830
v -0.721601 0.233145 -0.923737
v -0.607622 0.396557 -0.865255
v -0.654130 0.136355 -1.028906
v -0.407154 -0.133925 -0.457951
v -0.402676 0.019738 -0.475724
v -0.421026 -0.165976 -0.593962
v -0.229947 -0.135495 -0.476358
v -0.205225 0.011407 -0.497414
v -0.223059 -0.158525 -0.614337
v -0.157332 -0.009364 -0.640645
v -0.397580 0.217195 -0.505667
v -0.396249 0.349337 -0.548158
v -0.407062 0.418918 -0.694871
v -0.221124 0.188087 -0.520331
v -0.208341 0.263489 -0.653136
v -0.251996 0.402277 -0.747108
v -0.447196 -0.193454 -0.864741
v -0.460338 -0.198162 -1.004636
v -0.456705 -0.053778 -1.027535
v -0.249808 -0.190207 -0.884500
v -0.184662 -0.045249 -0.910191
v -0.283622 -0.202243 -1.020512
v -0.259568 -0.061236 -1.042865
v -0.444492 0.290501 -1.043819
v -0.429098 0.388933 -0.919938
v -0.450801 0.151586 -1.052166
v -0.238536 0.226419 -0.959208
v -0.266667 0.382313 -0.896955
v -0.274788 0.121761 -1.064543
v 0.753227 0.144111 1.010712
v 0.539129 0.261351 0.859341
v 0.713960 0.066401 1.084138
v 0.458517 -0.023733 1.058522
v 0.821266 0.032881 0.929380
v 0.694464 0.009739 0.737465
v 0.782000 -0.044828 1.002806
v 0.517025 -0.198620 0.956380
v 0.270805 0.283941 0.679590
v 0.105961 0.183512 0.575782
v 0.153017 -0.035919 0.916038
v 0.021248 -0.056919 0.731540
v 0.418395 -0.031719 0.517051
v 0.198167 -0.054119 0.465548
v 0.260768 -0.286006 0.801038
v 0.102709 -0.250937 0.661757
v 0.668319 -0.119741 -1.061482
v 0.967895 -0.060924 -0.890103
v 0.799510 -0.067514 -0.938581
v 0.676304 -0.154516 -1.062847
v 0.981755 -0.121288 -0.892473
v 0.822256 -0.166579 -0.942470
v 0.577869 -0.141847 -1.027406
v 0.537068 -0.141114 -0.826910
v 0.430990 -0.207908 -0.666500
v 0.585854 -0.176622 -1.028772
v 0.558799 -0.235757 -0.830625
v 0.443158 -0.260902 -0.668581
v 1.029117 -0.040188 -0.720338
v 0.876774 -0.021251 -0.665458
v 1.083836 -0.048962 -0.573552
v 0.942857 -0.062221 -0.516629
v 1.049428 -0.128649 -0.723811
v 0.921184 -0.214668 -0.673051
v 1.097058 -0.106547 -0.575813
v 0.964822 -0.157887 -0.520384
v 0.619839 -0.130692 -0.540198
v 0.467125 -0.203489 -0.567717
v 0.752416 -0.120002 -0.449510
v 0.646419 -0.246453 -0.544742
v 0.479293 -0.256483 -0.569797
v 0.768482 -0.189973 -0.452257
v -1.711003 -0.277438 0.812549
v -1.711003 -0.125291 0.812549
v -1.671810 -0.238245 0.730612
v -1.671809 -0.164484 0.730612
v -1.558856 -0.277438 0.812549
v -1.558856 -0.125291 0.812549
v -1.598049 -0.238245 0.730612
v -1.598049 -0.164484 0.730612
v -1.677959 -0.244394 0.884719
v -1.677959 -0.158335 0.884719
v -1.591900 -0.158335 0.884719
v -1.591900 -0.244394 0.884719
v -1.649953 -0.293175 -0.279843
v -1.649952 -0.109554 -0.279843
v -1.742489 -0.245874 -0.338606
v -1.742489 -0.156855 -0.338606
v -1.628042 -0.293175 -0.462152
v -1.628042 -0.109554 -0.462152
v -1.731867 -0.245874 -0.426989
v -1.731867 -0.156855 -0.426989
v -1.558717 -0.253296 -0.309045
v -1.558717 -0.149434 -0.309045
v -1.546323 -0.149434 -0.412165
v -1.546323 -0.253296 -0.412165
v -0.668819 -0.280798 -1.098577
v -0.668819 -0.121931 -1.098577
v -0.749547 -0.239874 -1.148353
v -0.749547 -0.162855 -1.148353
v -0.651954 -0.280798 -1.256546
v -0.651955 -0.121931 -1.256546
v -0.741371 -0.239874 -1.224936
v -0.741371 -0.162855 -1.224936
v -0.590225 -0.246294 -1.124886
v -0.590225 -0.156435 -1.124886
v -0.580686 -0.156435 -1.214238
v -0.580686 -0.246294 -1.214238
v 1.299645 -0.285237 -0.263149
v 1.299645 -0.117492 -0.263149
v 1.287772 -0.242026 -0.362582
v 1.287772 -0.160703 -0.362582
v 1.441319 -0.285237 -0.352963
v 1.441319 -0.117492 -0.352963
v 1.356455 -0.242026 -0.406124
v 1.356455 -0.160703 -0.406124
v 1.373017 -0.248805 -0.215453
v 1.373017 -0.153924 -0.215453
v 1.453153 -0.153924 -0.266255
v 1.453153 -0.248805 -0.266255
v -0.667366 -0.263778 -0.271890
v -0.667366 -0.138951 -0.271890
v -0.734361 -0.231623 -0.304520
v -0.734361 -0.171107 -0.304520
v -0.666483 -0.263778 -0.396713
v -0.666483 -0.138951 -0.396713
v -0.733933 -0.231623 -0.365035
v -0.733933 -0.171106 -0.365035
v -0.607965 -0.236667 -0.298581
v -0.607965 -0.166062 -0.298581
v -0.607465 -0.166062 -0.369185
v -0.607465 -0.236667 -0.369185
v 0.489227 -0.270687 1.447816
v 0.489227 -0.132042 1.447816
v 0.542276 -0.234972 1.384284
v 0.542276 -0.167757 1.384284
v 0.623577 -0.270687 1.482057
v 0.623577 -0.132042 1.482057
v 0.607409 -0.234972 1.400884
v 0.607409 -0.167757 1.400884
v 0.502164 -0.240575 1.518981
v 0.502164 -0.162154 1.518981
v 0.578156 -0.162154 1.538349
v 0.578156 -0.240575 1.538349
v -1.299700 -0.267161 1.855771
v -1.299700 -0.135568 1.855771
v -1.276010 -0.233263 1.780870
v -1.276010 -0.169466 1.780870
v -1.169391 -0.267161 1.837429
v -1.169391 -0.135568 1.837429
v -1.212836 -0.233263 1.771978
v -1.212836 -0.169466 1.771978
v -1.262699 -0.238581 1.913598
v -1.262699 -0.164148 1.913598
v -1.188992 -0.164148 1.903224
v -1.188992 -0.238581 1.903224
v -0.819000 -0.267161 1.459717
v -0.819000 -0.135568 1.459718
v -0.878975 -0.233263 1.408980
v -0.878975 -0.169466 1.408980
v -0.785680 -0.267161 1.332412
v -0.785680 -0.135568 1.332413
v -0.862822 -0.233263 1.347263
v -0.862822 -0.169466 1.347263
v -0.751377 -0.238581 1.447873
v -0.751377 -0.164148 1.447873
v -0.732531 -0.164148 1.375866
v -0.732531 -0.238581 1.375866
v 1.860762 -0.259919 -0.776007
v 1.860762 -0.142809 -0.776007
v 1.807388 -0.229752 -0.821160
v 1.807388 -0.172977 -0.821160
v 1.890414 -0.259919 -0.889301
v 1.890414 -0.142809 -0.889301
v 1.821763 -0.229752 -0.876085
v 1.821763 -0.172977 -0.876085
v 1.920942 -0.234485 -0.786547
v 1.920942 -0.168244 -0.786547
v 1.937714 -0.168244 -0.850630
v 1.937714 -0.234485 -0.850630
v 2.025624 -0.055317 1.036390
v 2.017974 -0.069064 0.873149
v 1.991050 -0.086201 0.941461
v 2.036830 0.005544 1.033362
v 2.031117 0.002316 0.869598
v 2.013546 0.035972 0.935384
v 1.961099 -0.040891 1.087548
v 1.869438 -0.057357 1.036965
v 1.804132 -0.018498 1.041165
v 1.972305 0.019970 1.084521
v 1.891934 0.064816 1.030887
v 1.817276 0.052883 1.037614
v 1.952799 -0.080503 0.790733
v 1.886159 -0.121279 0.838421
v 1.891823 -0.054257 0.710207
v 1.822774 -0.058224 0.740694
v 1.972514 0.026568 0.785407
v 1.925589 0.092863 0.827769
v 1.904966 0.017123 0.706656
v 1.842489 0.048847 0.735368
v 1.783558 -0.094069 0.920161
v 1.736678 -0.027913 0.962476
v 1.719935 -0.033082 0.822717
v 1.679024 -0.003815 0.879574
v 1.822989 0.120073 0.909510
v 1.756393 0.079158 0.957151
v 1.739650 0.073989 0.817391
v 1.692168 0.067566 0.876023
v -2.010821 -0.128488 0.272544
v -2.138909 -0.093781 0.430875
v -2.094786 -0.097669 0.337366
v -2.010779 -0.149007 0.277324
v -2.138836 -0.129400 0.439171
v -2.094667 -0.156126 0.350982
v -2.022136 -0.141532 0.216644
v -2.135074 -0.141099 0.173962
v -2.218503 -0.180513 0.097040
v -2.022094 -0.162052 0.221423
v -2.134959 -0.196946 0.186971
v -2.218439 -0.211783 0.104324
v -2.243571 -0.081545 0.450520
v -2.261165 -0.070371 0.356605
v -2.334234 -0.086723 0.468545
v -2.354090 -0.094546 0.381056
v -2.243464 -0.133744 0.462678
v -2.260932 -0.184502 0.383190
v -2.334164 -0.120702 0.476460
v -2.353975 -0.150997 0.394205
v -2.309888 -0.134949 0.195126
v -2.279451 -0.177905 0.108769
v -2.375220 -0.128641 0.263796
v -2.309749 -0.203257 0.211038
v -2.279387 -0.209176 0.116053
v -2.375135 -0.169930 0.273413
v 0.120055 -0.066707 -1.690597
v 0.207714 -0.096148 -1.612588
v 0.123469 -0.020763 -1.703972
v 0.219434 0.037402 -1.680690
v 0.136123 -0.085331 -1.750471
v 0.227458 -0.118468 -1.743966
v 0.139537 -0.039386 -1.763846
v 0.252578 0.025843 -1.762253
v 0.332145 -0.106490 -1.557754
v 0.422642 -0.089250 -1.563713
v 0.350142 0.052848 -1.627178
v 0.440743 0.022671 -1.618296
v 0.373651 -0.128439 -1.712756
v 0.456415 -0.098187 -1.675348
v 0.382200 0.041694 -1.746971
v 0.461193 0.020717 -1.709389
v -0.037042 0.318297 -0.006014
v -0.014593 0.469079 0.032522
v -0.026691 0.313786 0.011703
v -0.003785 0.456536 0.045455
v -0.047607 0.315744 0.011965
v -0.024654 0.458082 0.047330
v 0.014028 0.575323 0.145773
v 0.003219 0.587866 0.132840
v -0.006841 0.576870 0.147648
v 0.103274 0.416254 -0.699335
v 0.170551 0.604915 -0.701924
v 0.117991 0.413330 -0.677171
v 0.183306 0.590729 -0.683150
v 0.092431 0.421058 -0.675340
v 0.157972 0.598415 -0.679210
v 0.224762 0.718109 -0.753566
v 0.208502 0.706894 -0.771628
v 0.198765 0.724468 -0.753944
v 0.243243 0.667932 -0.963974
v 0.217399 0.661638 -0.960988
v 0.225596 0.674444 -0.983016
v 0.437719 0.150484 -1.031451
v 0.421261 0.133016 -1.043301
v 0.411449 0.155489 -1.032574
v 0.623855 0.119860 0.891579
v 0.655498 0.269325 0.928768
v 0.633659 0.114900 0.909487
v 0.665302 0.256265 0.941986
v 0.612911 0.118207 0.909438
v 0.644554 0.259175 0.943555
v 0.689443 0.291786 1.013071
v 0.679638 0.308025 1.022103
v 0.668695 0.291057 1.016296
v 0.729983 0.183537 1.253068
v 0.720178 0.202025 1.254933
v 0.709235 0.184144 1.256319
v 0.788540 0.176760 1.628075
v 0.778736 0.195248 1.629941
v 0.767792 0.177367 1.631326
v -0.156526 0.241833 0.209749
v -0.063093 0.358823 0.257787
v -0.144786 0.241618 0.192327
v -0.059071 0.354012 0.237735
v -0.139625 0.229402 0.208623
v -0.052667 0.341194 0.253100
v 0.014755 0.380695 0.210617
v 0.031668 0.383135 0.222841
v 0.020992 0.365042 0.223166
v 0.169857 0.285699 0.015992
v 0.181482 0.291147 0.032622
v 0.176711 0.270958 0.029300
v 0.485312 0.245259 -0.191272
v 0.496937 0.250706 -0.174641
v 0.492166 0.230517 -0.177964
v 0.539240 0.127232 -0.285033
v 0.756089 0.258169 -0.398894
v 0.535436 0.132067 -0.258125
v 0.772969 0.277241 -0.388254
v 0.518668 0.143659 -0.276735
v 0.755856 0.283908 -0.408860
v 1.270615 0.229110 -0.820389
v 1.261570 0.211125 -0.839273
v 1.254208 0.237680 -0.840865
v 1.641032 0.427289 -1.042092
v 1.631988 0.409303 -1.060977
v 1.624625 0.435858 -1.062569
v -0.633894 0.183046 -0.851934
v -0.832399 0.396489 -0.923987
v -0.620532 0.194923 -0.834623
v -0.827022 0.413724 -0.907172
v -0.638823 0.179085 -0.827788
v -0.843439 0.398890 -0.902264
v -1.017534 0.657532 -0.828978
v -1.033000 0.648998 -0.845483
v -1.034071 0.643678 -0.821779
v -1.157057 0.927002 -0.611366
v -1.173627 0.917764 -0.627909
v -1.175432 0.911364 -0.603612
v -0.503421 0.306695 -0.928690
v -0.618782 0.468515 -0.947187
v -0.490574 0.319508 -0.911676
v -0.627145 0.495662 -0.939507
v -0.508605 0.303785 -0.904321
v -0.642670 0.478290 -0.936079
v -0.854967 0.705748 -1.019573
v -0.859199 0.687529 -1.035252
v -0.871883 0.691061 -1.014566
v -0.942515 1.134226 -0.963788
v -0.947545 1.115190 -0.979950
v -0.960835 1.117734 -0.958310
v -0.637998 0.099252 -0.977403
v -0.940342 0.295882 -1.100168
v -0.644626 0.070643 -0.989006
v -0.954323 0.274529 -1.118295
v -0.624495 0.089943 -1.004496
v -0.935972 0.292817 -1.130775
v -1.235732 0.357094 -1.397530
v -1.233020 0.386470 -1.389127
v -1.217708 0.373755 -1.412704
v -1.655606 0.062480 -1.767107
v -1.652153 0.093243 -1.759248
v -1.635375 0.081219 -1.783652
v -0.648680 0.157435 -0.696313
v -0.882226 0.234505 -0.756747
v -0.654316 0.132079 -0.714240
v -0.914469 0.231218 -0.775284
v -0.638800 0.156897 -0.726562
v -0.897518 0.255003 -0.781591
v -1.259145 0.439049 -0.817260
v -1.247249 0.458359 -0.797596
v -1.244701 0.463868 -0.826795
v -1.487531 0.881693 -0.631042
v -1.474552 0.901526 -0.608904
v -1.472440 0.907183 -0.640782
v -0.706425 0.008365 -0.819930
v -0.939971 0.085435 -0.880364
v -0.712061 -0.016991 -0.837857
v -0.972214 0.082147 -0.898901
v -0.696545 0.007826 -0.850179
v -0.955263 0.105932 -0.905208
v -1.317921 0.290883 -0.942014
v -1.302781 0.307890 -0.921026
v -1.304063 0.314740 -0.951348
v -1.867561 0.207316 -1.020670
v -1.851856 0.225725 -0.999241
v -1.851838 0.233366 -1.030711
v 0.953015 -0.033282 -0.118329
v 1.002877 0.142768 0.042919
v 0.969072 -0.053152 -0.098096
v 1.018767 0.115406 0.050717
v 0.936882 -0.049197 -0.094910
v 0.986654 0.117613 0.055804
v 1.060046 0.202839 0.273368
v 1.044156 0.230200 0.265569
v 1.027933 0.205046 0.278455
v -0.745605 0.005605 0.625362
v -1.036134 -0.007702 0.699993
v -0.737641 0.023071 0.641197
v -1.036560 0.007100 0.719727
v -0.734320 -0.001271 0.646536
v -1.033751 -0.015118 0.723207
v -1.271391 0.015957 0.935662
v -1.282411 -0.000991 0.922405
v -1.268216 -0.005776 0.941561
v -1.427861 0.077148 1.269141
v -1.439063 0.058901 1.255906
v -1.424286 0.052847 1.275389
v -1.125323 -0.087451 -0.318314
v -1.317735 -0.086500 -0.434583
v -1.135895 -0.062825 -0.304745
v -1.315205 -0.061358 -0.418340
v -1.141360 -0.089943 -0.293037
v -1.321766 -0.087373 -0.404828
v -1.417846 -0.004139 -0.401271
v -1.444692 -0.017563 -0.400078
v -1.422054 -0.027723 -0.383148
v -1.523284 0.229871 -0.119880
v -1.545812 0.211358 -0.127100
v -1.528951 0.205765 -0.102876
v -1.862805 0.524335 0.184427
v -1.885333 0.505822 0.177207
v -1.868472 0.500229 0.201431
v -1.141769 0.021085 0.247814
v -0.977929 0.030709 0.362663
v -1.148091 -0.000727 0.261980
v -0.991115 0.007850 0.367135
v -1.156694 0.023344 0.269917
v -1.000753 0.030939 0.376643
v -0.846074 0.042878 0.392406
v -0.852338 0.059525 0.372406
v -0.854658 0.067648 0.397803
v -0.758732 0.088635 0.203177
v -0.772650 0.100974 0.183930
v -0.767981 0.113435 0.207153
v -0.420345 0.210256 0.180640
v -0.434262 0.222595 0.161393
v -0.429594 0.235056 0.184616
v -0.417037 0.135195 0.046718
v -0.344475 0.312854 -0.043516
v -0.415119 0.124040 0.022837
v -0.333103 0.329060 -0.067712
v -0.395353 0.121060 0.040373
v -0.318080 0.326089 -0.047927
v -0.219601 0.642337 -0.129331
v -0.225254 0.647070 -0.105300
v -0.201855 0.640749 -0.111316
v -0.168395 1.124632 -0.090407
v -0.175585 1.129433 -0.064662
v -0.150203 1.122838 -0.071762
v 0.359607 0.175503 0.461640
v 0.391657 0.328146 0.481563
v 0.360901 0.179458 0.441046
v 0.388342 0.323958 0.461243
v 0.377984 0.173408 0.451675
v 0.406252 0.317931 0.470426
v 0.418317 0.381532 0.409433
v 0.435057 0.393553 0.413518
v 0.436299 0.372701 0.415764
v 0.497130 0.358946 0.155980
v 0.510329 0.371303 0.166681
v 0.515446 0.351288 0.162858
v 0.510273 0.149679 -0.119084
v 0.523472 0.162035 -0.108382
v 0.528589 0.142020 -0.112206
v -0.543360 0.227319 -0.649271
v -0.473982 0.364775 -0.617390
v -0.524054 0.220309 -0.653694
v -0.460191 0.351430 -0.625943
v -0.531697 0.218453 -0.634212
v -0.466428 0.348779 -0.606056
v -0.350785 0.392402 -0.567594
v -0.346586 0.412126 -0.548667
v -0.364699 0.391853 -0.554774
v -0.069892 0.400588 -0.397865
v -0.080855 0.418114 -0.394114
v -0.079927 0.402988 -0.379563
v 0.176795 0.215736 -0.241018
v 0.165831 0.233261 -0.237267
v 0.166760 0.218135 -0.222716
v -0.069561 0.252710 0.192066
v -0.069321 0.266557 0.484114
v -0.093887 0.262927 0.190560
v -0.087226 0.268689 0.509654
v -0.073043 0.279052 0.194121
v -0.065308 0.280750 0.510071
v -0.068141 0.185790 0.837657
v -0.045597 0.176233 0.831979
v -0.047069 0.199427 0.841116
v 0.061306 -0.054543 1.240432
v 0.085155 -0.065547 1.233525
v 0.083050 -0.040484 1.243799
vn 0.1892 -0.5090 -0.8397
vn 0.0193 -0.1777 -0.9839
vn 0.9356 0.1628 0.3135
vn 0.6527 0.6943 0.3032
vn -0.1957 -0.8027 0.5633
vn -0.6027 -0.4464 0.6614
vn 0.3611 0.8691 0.3380
vn 0.1376 -0.7428 -0.6552
vn -0.8364 -0.1715 0.5206
vn 0.4681 0.8383 -0.2795
vn -0.0025 -0.1801 -0.9837
vn -0.9916 -0.0780 -0.1028
vn -0.2371 -0.6673 0.7060
vn -0.1406 0.6656 0.7329
vn -0.8636 -0.4617 0.2026
vn -0.8841 0.3941 0.2511
vn 0.1244 -0.6658 -0.7357
vn 0.2221 0.6667 -0.7115
vn -0.6593 -0.4470 -0.6046
vn -0.6356 0.3906 -0.6659
vn 0.6264 -0.3963 0.6713
vn 0.6512 0.4527 0.6091
vn 0.8585 0.4676 -0.2106
vn 0.8789 -0.3998 -0.2601
vn -0.6334 -0.5752 0.5176
vn -0.6960 -0.7131 -0.0845
vn 0.5670 -0.5081 0.6483
vn 0.0246 -0.6606 0.7503
vn -0.5522 -0.5513 -0.6255
vn -0.7175 0.6873 -0.1132
vn -0.0446 0.6368 -0.7697
vn -0.5964 0.2567 -0.7605
vn -0.7086 0.6899 -0.1483
vn -0.6785 0.7289 0.0917
vn -0.6582 0.3190 0.6819
vn -0.0691 0.4466 0.8920
vn 0.4671 -0.3423 -0.8152
vn 0.7527 -0.5964 -0.2787
vn 0.1492 -0.9790 -0.1387
vn 0.5867 -0.5817 -0.5634
vn 0.8190 -0.3414 -0.4611
vn 0.3237 -0.5802 -0.7474
vn 0.8184 0.3861 -0.4257
vn 0.3615 0.6004 -0.7134
vn 0.1801 0.9398 -0.2903
vn 0.5547 0.5525 -0.6221
vn 0.4833 0.3832 -0.7872
vn 0.3444 0.8861 -0.3102
vn 0.8755 0.4198 -0.2392
vn 0.2710 0.9256 0.2643
vn 0.8387 0.5075 0.1976
vn 0.6748 0.2398 0.6980
vn 0.1667 0.5457 0.8212
vn -0.7467 -0.6089 0.2677
vn -0.4975 -0.5201 0.6942
vn -0.4940 -0.8005 0.3393
vn -0.8256 0.2816 0.4890
vn -0.5198 0.1474 0.8415
vn -0.6297 0.5367 0.5617
vn -0.6455 -0.4696 -0.6023
vn -0.3837 -0.6151 -0.6888
vn -0.3142 -0.2512 -0.9155
vn -0.7335 0.4591 -0.5011
vn -0.5300 0.7214 -0.4456
vn -0.3502 0.4358 -0.8291
vn -0.0170 -0.6385 0.7694
vn 0.0852 -0.9934 0.0772
vn 0.4870 -0.4227 0.7643
vn 0.8479 -0.4908 0.2004
vn -0.1095 0.3469 0.9315
vn -0.0474 0.9043 0.4242
vn 0.4485 0.2988 0.8424
vn 0.7261 0.5683 0.3869
vn 0.1392 -0.8973 -0.4189
vn 0.1598 -0.3419 -0.9260
vn 0.8844 -0.4196 -0.2043
vn 0.6358 -0.1614 -0.7548
vn 0.0071 0.9979 -0.0650
vn 0.0673 0.6443 -0.7618
vn 0.7710 0.6368 -0.0100
vn 0.6117 0.5331 -0.5845
vn -0.8704 -0.3397 0.3564
vn -0.8078 -0.5624 -0.1765
vn -0.5470 -0.4349 0.7153
vn -0.3116 -0.9413 0.1298
vn -0.7898 0.5590 0.2525
vn -0.7140 0.6061 -0.3504
vn -0.4408 0.7034 0.5576
vn -0.1477 0.9799 -0.1341
vn -0.5557 -0.5232 -0.6461
vn -0.2748 -0.7535 -0.5972
vn -0.1893 -0.5513 -0.8126
vn -0.4353 0.3805 -0.8159
vn -0.2531 0.6283 -0.7356
vn -0.0563 0.3418 -0.9381
vn -0.3453 -0.4434 0.8271
vn -0.0630 -0.9642 0.2576
vn 0.2037 -0.3245 0.9237
vn 0.6295 -0.6027 0.4904
vn -0.2340 0.7092 0.6651
vn 0.1121 0.9935 0.0190
vn 0.3681 0.5220 0.7695
vn 0.7337 0.5818 0.3511
vn 0.0431 -0.9988 -0.0213
vn 0.3007 -0.6965 -0.6515
vn 0.7201 -0.6339 0.2820
vn 0.7784 -0.5633 -0.2770
vn 0.2094 0.9529 -0.2193
vn 0.4150 0.4691 -0.7796
vn 0.8180 0.5534 0.1569
vn 0.8611 0.3657 -0.3532
vn -0.5248 -0.5606 0.6405
vn 0.0138 -0.6781 0.7348
vn -0.4859 0.4806 0.7300
vn -0.2133 0.4309 0.8768
vn -0.1514 0.8938 0.4221
vn -0.7790 -0.6120 -0.1364
vn -0.4537 -0.7153 -0.5315
vn -0.8510 0.4800 -0.2130
vn -0.7428 0.3993 -0.5374
vn -0.3884 0.8952 -0.2186
vn 0.1837 -0.7946 0.5787
vn 0.6241 -0.7654 0.1570
vn 0.4045 0.1118 0.9077
vn 0.3417 0.8439 0.4135
vn 0.9661 -0.0293 0.2564
vn 0.7576 0.6514 0.0411
vn -0.2394 -0.8060 -0.5413
vn 0.3561 -0.7638 -0.5384
vn -0.2695 0.0305 -0.9625
vn -0.0231 0.8334 -0.5522
vn 0.5512 -0.0565 -0.8324
vn 0.5617 0.6149 -0.5536
vn -0.8634 -0.2175 0.4553
vn -0.2722 -0.5319 0.8019
vn -0.3522 0.0662 0.9336
vn -0.4762 -0.8149 0.3304
vn -0.7527 -0.2824 0.5947
vn -0.7778 0.4764 0.4099
vn -0.2268 0.3496 0.9090
vn -0.5426 0.6340 0.5511
vn -0.3955 0.8984 0.1910
vn -0.9278 -0.3077 -0.2108
vn -0.5049 -0.8627 -0.0288
vn -0.8424 -0.4106 -0.3490
vn -0.3973 -0.7206 -0.5683
vn -0.5255 -0.1740 -0.8328
vn -0.8541 0.3739 -0.3616
vn -0.6563 0.4872 -0.5761
vn -0.4473 0.8321 -0.3280
vn -0.4078 0.1102 -0.9064
vn 0.0572 -0.5557 0.8294
vn 0.0987 0.1300 0.9866
vn -0.0219 -0.9874 0.1570
vn 0.4658 -0.4863 0.7393
vn 0.6615 0.0511 0.7482
vn 0.5910 -0.7931 0.1474
vn 0.9951 -0.0695 0.0699
vn 0.1145 0.3852 0.9157
vn 0.1455 0.7048 0.6943
vn 0.1154 0.9508 0.2875
vn 0.6147 0.3330 0.7150
vn 0.8471 0.4451 0.2904
vn 0.6474 0.7582 0.0778
vn -0.0291 -0.9958 0.0869
vn -0.0907 -0.7498 -0.6554
vn -0.0971 -0.1335 -0.9863
vn 0.5656 -0.8222 -0.0641
vn 0.9641 -0.1134 -0.2401
vn 0.3207 -0.6777 -0.6617
vn 0.5044 -0.1654 -0.8475
vn -0.0066 0.5134 -0.8581
vn 0.0328 0.8489 -0.5276
vn -0.0742 0.1404 -0.9873
vn 0.7660 0.3395 -0.5459
vn 0.6034 0.6976 -0.3863
vn 0.4614 0.1240 -0.8785
vn -0.7519 -0.3204 0.5762
vn -0.2941 -0.4210 0.8580
vn -0.7418 0.5337 0.4060
vn -0.3180 0.8398 0.4400
vn -0.7233 -0.5770 -0.3793
vn -0.2430 -0.7836 -0.5718
vn -0.7044 0.2071 -0.6789
vn -0.2806 0.5223 -0.8053
vn 0.0889 -0.4107 0.9074
vn 0.6866 -0.2535 0.6814
vn 0.0925 0.8451 0.5266
vn 0.7272 0.5934 0.3449
vn 0.0697 -0.7859 -0.6144
vn 0.6952 -0.5374 -0.4774
vn 0.1078 0.5660 -0.8173
vn 0.6810 0.4267 -0.5952
vn -0.5725 -0.6185 -0.5382
vn -0.8208 -0.5634 -0.0941
vn -0.5710 -0.7736 -0.2747
vn -0.6284 0.4085 -0.6620
vn -0.8931 0.4123 -0.1799
vn -0.6483 0.6576 -0.3838
vn 0.1537 -0.5543 -0.8180
vn 0.4046 -0.7169 -0.5678
vn 0.6325 -0.4787 -0.6089
vn 0.1502 0.4539 -0.8783
vn 0.2487 0.6732 -0.6964
vn 0.5578 0.5646 -0.6083
vn -0.7085 -0.6382 0.3011
vn -0.0201 -0.9904 0.1370
vn -0.4189 -0.4389 0.7949
vn 0.2199 -0.5547 0.8025
vn -0.7823 0.5793 0.2289
vn -0.1112 0.9935 0.0251
vn -0.3930 0.4400 0.8074
vn 0.1609 0.6433 0.7485
vn 0.6607 -0.6763 0.3257
vn 0.8835 -0.4253 0.1962
vn 0.6202 -0.4086 0.6697
vn 0.5498 0.7872 0.2794
vn 0.7687 0.6298 0.1118
vn 0.5829 0.5589 0.5898
vn -0.7174 -0.5335 0.4480
vn -0.7397 -0.6534 -0.1612
vn 0.4451 -0.5744 0.6870
vn -0.1062 -0.6755 0.7296
vn -0.5386 -0.4919 -0.6841
vn -0.6233 0.7653 -0.1606
vn 0.0843 0.6537 -0.7520
vn -0.4899 0.3240 -0.8093
vn -0.6108 0.7672 -0.1958
vn -0.5999 0.7986 0.0475
vn -0.6800 0.3744 0.6304
vn -0.1070 0.4397 0.8917
vn 0.5035 -0.3762 -0.7778
vn 0.7050 -0.6741 -0.2206
vn 0.0662 -0.9870 -0.1465
vn 0.5739 -0.6311 -0.5220
vn 0.8205 -0.4159 -0.3921
vn 0.3299 -0.6053 -0.7244
vn 0.8846 0.3169 -0.3422
vn 0.4750 0.5822 -0.6599
vn 0.2928 0.9219 -0.2537
vn 0.6571 0.5077 -0.5572
vn 0.5822 0.3523 -0.7327
vn 0.4510 0.8542 -0.2587
vn 0.9270 0.3432 -0.1511
vn 0.3314 0.8926 0.3057
vn 0.8584 0.4264 0.2851
vn 0.6240 0.1618 0.7645
vn 0.1454 0.5199 0.8418
vn 0.3294 0.7830 -0.5277
vn -0.0609 0.9683 -0.2423
vn -0.0103 0.7195 -0.6944
vn 0.5949 0.7061 0.3839
vn 0.1413 0.8860 0.4416
vn 0.4511 0.5942 0.6659
vn 0.6442 0.0347 -0.7641
vn 0.3977 -0.1046 -0.9115
vn 0.5816 -0.4699 -0.6640
vn 0.9845 -0.0305 0.1726
vn 0.8558 -0.2351 0.4609
vn 0.8430 -0.5371 0.0294
vn -0.5532 0.7757 -0.3038
vn -0.4385 0.2665 -0.8583
vn -0.9295 0.3676 -0.0307
vn -0.9455 -0.1817 -0.2703
vn -0.1988 0.6604 0.7241
vn 0.1576 0.1142 0.9809
vn -0.6544 0.3109 0.6893
vn -0.5923 -0.2614 0.7621
vn -0.2341 -0.1606 -0.9589
vn 0.1478 -0.6868 -0.7117
vn -0.7658 -0.5235 -0.3734
vn -0.3062 -0.8649 -0.3978
vn 0.3583 -0.3142 0.8791
vn 0.5035 -0.8028 0.3193
vn -0.4358 -0.6131 0.6589
vn -0.1090 -0.9431 0.3141
vn -0.8698 -0.4593 0.1801
vn -0.7690 -0.5041 -0.3930
vn -0.5539 -0.6602 0.5072
vn -0.2657 -0.9409 -0.2101
vn -0.8225 0.4020 0.4023
vn -0.7305 0.6636 -0.1611
vn -0.4996 0.4529 0.7384
vn -0.1940 0.9615 0.1947
vn -0.4924 -0.3148 -0.8115
vn -0.2120 -0.5219 -0.8262
vn -0.1170 -0.2716 -0.9553
vn -0.4285 0.6172 -0.6599
vn -0.2529 0.8326 -0.4928
vn -0.0332 0.6281 -0.7774
vn -0.3594 -0.6967 0.6208
vn -0.0211 -0.9960 -0.0865
vn 0.1803 -0.6035 0.7767
vn 0.6419 -0.7099 0.2897
vn -0.2992 0.4329 0.8503
vn 0.0578 0.9329 0.3556
vn 0.2937 0.2662 0.9181
vn 0.6842 0.4650 0.5619
vn 0.0960 -0.9312 -0.3518
vn 0.3633 -0.4234 -0.8299
vn 0.7384 -0.6687 0.0870
vn 0.8109 -0.3991 -0.4279
vn 0.1685 0.9778 0.1249
vn 0.4264 0.7084 -0.5624
vn 0.7801 0.5024 0.3729
vn 0.8598 0.4818 -0.1693
vn 0.8259 0.5282 -0.1972
vn 0.5302 0.8441 0.0803
vn 0.8070 -0.3471 0.4778
vn 0.7126 -0.1174 0.6917
vn 0.3160 -0.6574 0.6841
vn 0.5113 0.1441 -0.8472
vn 0.0267 0.2020 -0.9790
vn 0.4264 -0.8456 -0.3212
vn 0.1462 -0.8504 -0.5054
vn 0.0604 -0.9862 0.1544
vn 0.3163 0.9485 0.0192
vn -0.2680 0.9634 -0.0003
vn 0.3050 0.4365 0.8464
vn -0.0335 -0.4032 0.9145
vn -0.5142 0.5401 0.6663
vn -0.5679 -0.2102 0.7958
vn -0.1282 0.3702 -0.9201
vn -0.5480 0.5992 -0.5837
vn -0.4483 -0.5163 -0.7297
vn -0.4179 -0.9027 0.1023
vn -0.9596 -0.0385 -0.2787
vn -0.8096 -0.5075 0.2950
vn 0.0327 0.8489 -0.5276
vn 0.5804 0.7059 0.4060
vn 0.2028 0.9773 0.0605
vn 0.2324 0.1724 0.9572
vn -0.2424 -0.0038 0.9702
vn 0.9802 0.0583 -0.1894
vn 0.7396 -0.0333 -0.6722
vn 0.6921 -0.5695 0.4434
vn 0.1804 -0.8907 0.4173
vn -0.1008 0.9763 -0.1916
vn -0.5985 0.6150 -0.5134
vn -0.6135 0.0095 0.7896
vn -0.9814 -0.0688 0.1790
vn 0.4802 -0.0988 -0.8716
vn -0.1824 -0.2116 -0.9602
vn -0.1563 -0.9663 0.2044
vn -0.5793 -0.7706 -0.2655
vn 0.0392 0.5672 -0.8226
vn 0.4978 0.6231 -0.6033
vn 0.1317 0.7785 -0.6136
vn 0.1921 -0.4108 -0.8913
vn 0.6631 -0.2911 -0.6896
vn 0.4335 -0.5814 -0.6885
vn -0.7329 0.3787 -0.5651
vn -0.8003 0.5504 -0.2379
vn -0.9588 0.2737 -0.0763
vn -0.5070 -0.6196 -0.5991
vn -0.4681 -0.8041 -0.3666
vn -0.6718 -0.7279 -0.1375
vn 0.6092 0.7603 -0.2252
vn -0.1145 0.9911 0.0674
vn 0.6837 0.6269 0.3736
vn 0.1798 0.6328 0.7532
vn 0.8732 -0.3971 -0.2826
vn 0.3112 -0.9501 -0.0213
vn 0.8972 -0.2293 0.3774
vn 0.4485 -0.5222 0.7254
vn -0.4741 0.5839 0.6590
vn -0.6457 0.3050 0.7000
vn -0.1804 0.4154 0.8915
vn -0.1008 -0.7918 0.6024
vn -0.4395 -0.6748 0.5928
vn -0.0212 -0.5026 0.8643
vn -0.7151 -0.6990 -0.0081
vn -0.7158 0.6983 -0.0022
vn -0.4373 -0.4398 -0.7845
vn -0.4038 0.3990 -0.8233
vn 0.7157 -0.6983 -0.0164
vn 0.7152 0.6988 -0.0081
vn 0.4040 -0.3992 -0.8230
vn 0.4457 0.4313 -0.7844
vn -0.4521 -0.4374 0.7774
vn -0.4097 0.4047 0.8175
vn 0.4435 0.4459 0.7775
vn 0.4096 -0.4045 0.8177
vn -0.1457 -0.6658 0.7318
vn -0.0447 0.6650 0.7455
vn -0.8302 -0.4568 0.3194
vn -0.8392 0.3923 0.3767
vn 0.0284 -0.6654 -0.7460
vn 0.1299 0.6653 -0.7352
vn -0.7326 -0.4533 -0.5077
vn -0.7234 0.3917 -0.5686
vn 0.7150 -0.3974 0.5751
vn 0.7251 0.4590 0.5133
vn 0.8242 0.4626 -0.3266
vn 0.8327 -0.3980 -0.3850
vn -0.1366 -0.6657 0.7336
vn -0.0353 0.6650 0.7460
vn -0.8262 -0.4563 0.3305
vn -0.8339 0.3921 0.3885
vn 0.0191 -0.6654 -0.7462
vn 0.1208 0.6652 -0.7368
vn -0.7391 -0.4538 -0.4978
vn -0.7312 0.3919 -0.5584
vn 0.7230 -0.3975 0.5651
vn 0.7316 0.4596 0.5035
vn 0.8200 0.4621 -0.3377
vn 0.8273 -0.3978 -0.3967
vn -0.6216 -0.6884 0.3739
vn -0.5908 0.6861 0.4246
vn -0.7698 -0.4642 -0.4381
vn -0.7914 0.3998 -0.4624
vn 0.5805 -0.6856 -0.4393
vn 0.6138 0.6876 -0.3879
vn -0.0866 -0.4118 -0.9071
vn -0.0152 0.4025 -0.9153
vn 0.0055 -0.4083 0.9128
vn 0.0786 0.4172 0.9054
vn 0.7713 0.4704 0.4288
vn 0.7935 -0.4056 0.4536
vn -0.0675 -0.6654 0.7434
vn 0.0344 0.6655 0.7456
vn -0.7912 -0.4521 0.4118
vn -0.7891 0.3911 0.4737
vn -0.0505 -0.6660 -0.7442
vn 0.0513 0.6651 -0.7450
vn -0.7831 -0.4579 -0.4209
vn -0.7853 0.3930 -0.4784
vn 0.7778 -0.3987 0.4858
vn 0.7761 0.4637 0.4274
vn 0.7845 0.4579 -0.4183
vn 0.7817 -0.3967 -0.4813
vn -0.6922 -0.6981 -0.1830
vn -0.6877 0.6974 -0.2017
vn -0.2438 -0.4257 -0.8714
vn -0.1884 0.4008 -0.8966
vn 0.6925 -0.6976 0.1837
vn 0.6959 0.6984 0.1672
vn 0.5961 -0.3984 -0.6971
vn 0.6124 0.4451 -0.6534
vn -0.6167 -0.4512 0.6450
vn -0.6004 0.4040 0.6902
vn 0.2518 0.4317 0.8662
vn 0.1953 -0.4062 0.8927
vn -0.7105 -0.6978 0.0906
vn -0.7085 0.6970 0.1105
vn -0.5353 -0.4472 -0.7165
vn -0.5163 0.3989 -0.7578
vn 0.7057 -0.6967 -0.1288
vn 0.7086 0.6975 -0.1067
vn 0.2865 -0.4008 -0.8702
vn 0.3404 0.4234 -0.8396
vn -0.3477 -0.4294 0.8335
vn -0.2929 0.4062 0.8655
vn 0.5405 0.4534 0.7087
vn 0.5214 -0.4045 0.7513
vn 0.8585 0.4675 -0.2106
vn 0.7237 -0.5869 0.3630
vn 0.8489 -0.5042 -0.1583
vn 0.5544 -0.8198 0.1437
vn 0.8746 0.3902 0.2878
vn 0.9563 0.2203 -0.1923
vn 0.8187 0.5711 0.0600
vn -0.0269 -0.4084 0.9124
vn -0.2013 -0.6225 0.7563
vn -0.4524 -0.2367 0.8598
vn 0.2167 0.4714 0.8549
vn 0.0417 0.7424 0.6687
vn -0.2842 0.4285 0.8577
vn 0.5459 -0.6527 -0.5254
vn -0.0472 -0.9888 -0.1415
vn 0.1149 -0.4185 -0.9009
vn -0.4414 -0.5117 -0.7371
vn 0.7242 0.3821 -0.5740
vn 0.3628 0.8985 -0.2472
vn 0.3133 0.2701 -0.9104
vn -0.2242 0.5486 -0.8055
vn -0.4139 -0.8939 0.1724
vn -0.7580 -0.3776 0.5319
vn -0.7479 -0.4602 -0.4783
vn -0.9681 -0.2483 0.0333
vn -0.0121 0.9976 0.0675
vn -0.5824 0.6527 0.4845
vn -0.5497 0.6135 -0.5669
vn -0.8611 0.5083 -0.0119
vn 0.7822 0.6150 0.0997
vn 0.5404 0.6263 0.5619
vn 0.5519 0.8019 0.2289
vn 0.8294 -0.3972 0.3928
vn 0.5187 -0.2901 0.8042
vn 0.6108 -0.5993 0.5174
vn 0.6331 0.4454 -0.6331
vn 0.3508 0.5540 -0.7550
vn 0.2416 0.3158 -0.9175
vn 0.6707 -0.5953 -0.4425
vn 0.4315 -0.8172 -0.3822
vn 0.2063 -0.7016 -0.6820
vn 0.1246 0.7527 0.6465
vn -0.0398 0.9907 -0.1301
vn -0.4396 0.5873 0.6796
vn -0.7578 0.6503 0.0539
vn 0.1350 -0.4087 0.9026
vn -0.0419 -0.9477 0.3164
vn -0.4878 -0.2993 0.8200
vn -0.7498 -0.5701 0.3359
vn -0.5511 0.6249 -0.5529
vn -0.5166 0.3087 -0.7987
vn -0.8349 0.4069 -0.3706
vn -0.5485 -0.8100 -0.2072
vn -0.5410 -0.6823 -0.4917
vn -0.8278 -0.5518 -0.1008
vn -0.8693 -0.3347 0.3637
vn -0.4984 -0.4398 0.7471
vn -0.8255 0.5333 0.1848
vn -0.4176 0.8465 0.3303
vn -0.6073 -0.5674 -0.5562
vn -0.0929 -0.7868 -0.6102
vn -0.5041 0.2105 -0.8376
vn -0.0682 0.5251 -0.8483
vn -0.1378 -0.4266 0.8939
vn 0.4873 -0.2582 0.8342
vn -0.0413 0.8494 0.5262
vn 0.6208 0.5842 0.5228
vn 0.2212 -0.7926 -0.5683
vn 0.7989 -0.5400 -0.2650
vn 0.3070 0.5740 -0.7592
vn 0.8029 0.4421 -0.4000
vn -0.1339 -0.3160 -0.9393
vn 0.0658 0.4609 -0.8850
vn 0.6554 -0.6983 0.2878
vn 0.9264 -0.2857 0.2454
vn -0.7647 -0.5672 0.3059
vn -0.8586 -0.1114 0.5004
vn 0.7589 0.1750 0.6272
vn 0.1726 0.9365 -0.3052
vn -0.5960 0.1174 0.7943
vn -0.3098 -0.4878 -0.8161
vn -0.2140 -0.3134 -0.9252
vn 0.5252 -0.7346 0.4296
vn 0.8430 -0.0577 0.5349
vn -0.7857 -0.3510 0.5094
vn -0.6057 0.4064 0.6841
vn 0.8902 0.3989 0.2200
vn -0.5433 -0.7764 -0.3196
vn -0.4175 0.8753 0.2440
vn 0.8648 0.5009 -0.0346
vn -0.8269 -0.5330 0.1793
vn -0.3374 0.3427 -0.8768
vn 0.7116 0.6166 0.3368
vn -0.7259 0.6876 0.0150
vn -0.2463 0.1071 -0.9633
vn -0.1420 -0.3186 -0.9372
vn 0.0712 0.6380 -0.7668
vn 0.5942 -0.7417 0.3111
vn 0.9561 -0.2894 0.0458
vn -0.7956 -0.5235 0.3050
vn -0.8928 -0.0129 0.4502
vn 0.9310 -0.2261 -0.2865
vn 0.2035 0.9761 0.0767
vn -0.9280 -0.3382 0.1561
vn 0.8143 -0.5186 -0.2607
vn 0.1642 0.9638 0.2101
vn -0.8182 -0.5750 -0.0004
vn 0.7967 -0.3705 0.4775
vn 0.1974 0.7891 0.5817
vn -0.6309 -0.4216 0.6513
vn -0.9238 -0.2140 0.3174
vn -0.2916 0.5173 0.8046
vn -0.2057 -0.1479 -0.9674
vn -0.2109 0.3246 -0.9220
vn 0.1086 -0.9771 0.1827
vn 0.4663 -0.6833 0.5619
vn -0.5749 0.4230 -0.7003
vn 0.5169 0.6942 0.5009
vn 0.2212 -0.8711 0.4385
vn -0.6301 0.1262 -0.7662
vn 0.6271 0.6513 0.4273
vn -0.1574 -0.9625 0.2210
vn 0.0598 0.1352 -0.9890
vn 0.8162 0.5601 0.1419
vn 0.4613 -0.8806 -0.1085
vn -0.1135 -0.8800 -0.4612
vn 0.0104 -0.8724 -0.4887
vn -0.2263 -0.2835 0.9319
vn 0.4597 0.3209 0.8281
vn -0.9958 0.0305 -0.0859
vn -0.5230 0.7596 -0.3867
vn 0.5763 0.1621 0.8010
vn -0.1158 -0.9019 -0.4160
vn -0.5674 0.5711 -0.5932
vn 0.8001 0.4188 0.4296
vn 0.4161 -0.5423 -0.7299
vn 0.0850 0.7404 -0.6667
vn 0.2416 -0.5981 -0.7641
vn -0.1481 -0.2014 -0.9683
vn 0.9047 0.2305 0.3582
vn 0.7338 0.6695 0.1157
vn -0.1726 -0.6900 0.7029
vn -0.6255 -0.5093 0.5911
vn 0.8328 0.5499 0.0636
vn -0.4626 0.1190 -0.8785
vn -0.5082 -0.6311 0.5861
vn 0.4908 0.7549 0.4351
vn -0.6679 0.5024 -0.5490
vn -0.5061 -0.1001 0.8566
vn 0.0185 -0.1767 -0.9841
vn 0.6504 0.6946 0.3074
vn -0.6010 -0.4428 0.6653
vn 0.8691 0.3834 0.3126
vn -0.1583 -0.2120 -0.9644
vn -0.8393 -0.3462 0.4192
vn 0.4032 0.8826 0.2419
vn -0.0441 0.3346 -0.9413
vn -0.7305 0.1977 0.6537
vn 0.3994 0.2757 0.8743
vn -0.0974 0.6420 0.7605
vn -0.0792 -0.9678 0.2387
vn -0.5722 -0.8003 0.1789
vn 0.8812 0.0092 -0.4727
vn 0.6054 0.3420 -0.7187
vn -0.2377 -0.8233 0.5155
vn -0.4249 0.8262 0.3700
vn 0.5453 0.3240 -0.7731
vn -0.6059 -0.7872 -0.1148
vn -0.8664 0.4838 0.1233
vn 0.1683 -0.0784 -0.9826
vn 0.3468 0.1739 0.9217
vn -0.0914 0.2657 0.9597
vn 0.1450 -0.9894 0.0062
vn -0.4178 -0.8852 -0.2049
vn 0.8668 0.3095 -0.3910
vn 0.4457 0.5124 -0.7340
vn -0.7056 -0.6520 -0.2774
vn 0.2185 0.0158 0.9757
vn 0.2287 0.4637 -0.8559
vn -0.9733 -0.2187 0.0697
vn 0.0212 0.4687 0.8831
vn 0.1255 0.8788 -0.4603
vn -0.0926 0.2661 0.9595
vn -0.4173 -0.8842 -0.2096
vn 0.4436 0.5089 -0.7378
vn -0.0311 -0.9663 -0.2556
vn -0.0384 0.4137 0.9096
vn 0.1923 0.7146 -0.6726
vn -0.7531 -0.6271 -0.1987
vn -0.4511 0.0921 0.8877
vn -0.3184 0.4456 -0.8367
vn -0.1060 0.1223 -0.9868
vn 0.1216 0.8159 -0.5653
vn 0.6216 -0.7591 -0.1933
vn 0.9271 -0.3744 0.0163
vn -0.7928 -0.6076 0.0477
vn -0.8565 -0.3024 0.4182
vn 0.7943 -0.1462 0.5897
vn 0.2147 0.9534 0.2119
vn -0.5900 -0.1923 0.7842
vn 0.2127 -0.1213 -0.9696
vn -0.3979 -0.2515 -0.8823
vn 0.6245 0.7764 0.0849
vn 0.0688 0.9652 0.2521
vn 0.7482 -0.5120 0.4220
vn 0.2958 -0.7825 0.5480
vn 0.2504 0.9617 0.1115
vn -0.7543 -0.3236 -0.5712
vn 0.4451 -0.7854 0.4301
vn 0.0404 0.8089 0.5866
vn -0.9622 -0.2681 -0.0485
vn 0.0484 -0.4277 0.9026
vn 0.8718 -0.2840 -0.3990
vn -0.0353 -0.4804 -0.8763
vn 0.4949 0.8106 0.3131
vn 0.2629 0.9327 -0.2469
vn 0.0560 -0.3766 0.9247
vn -0.2906 -0.6605 0.6923
vn 0.4499 0.7908 -0.4150
vn -0.7876 -0.2316 -0.5710
vn -0.0186 -0.7060 0.7080
vn 0.6692 0.7156 -0.2001
vn -0.8932 -0.1758 -0.4138
vn 0.3373 -0.5783 0.7429
vn 0.2086 0.9576 0.1988
vn -0.9830 -0.0247 -0.1818
vn -0.1820 -0.1591 0.9703
vn -0.0128 0.2966 -0.9549
vn 0.1765 0.3690 -0.9125
vn -0.4760 -0.8414 -0.2559
vn 0.0736 -0.9538 0.2914
vn -0.8975 0.3217 0.3016
vn -0.3524 0.4301 0.8312
vn 0.6049 -0.6799 0.4145
vn -0.6531 -0.0403 -0.7562
vn 0.2269 0.6338 0.7395
vn 0.2873 -0.9547 0.0771
vn -0.5309 -0.1224 -0.8385
vn -0.1612 0.8874 0.4319
vn 0.8781 -0.4074 0.2509
vn 0.2803 0.2364 -0.9303
vn 0.4389 0.7875 0.4326
vn -0.6826 0.0039 0.7308
vn -0.6125 0.4945 0.6167
vn -0.5288 -0.6532 -0.5419
vn -0.2676 -0.1828 -0.9460
vn 0.4249 -0.6777 0.6001
vn 0.8748 -0.2795 0.3957
vn -0.1410 -0.0358 -0.9894
vn -0.6501 0.1980 0.7336
vn 0.9502 -0.1862 0.2500
vn -0.0558 0.5227 -0.8507
vn -0.4187 0.6014 0.6805
vn 0.8485 0.4684 0.2464
vn -0.5429 -0.5478 0.6365
vn -0.1755 0.3609 0.9159
vn -0.5046 -0.3531 -0.7878
vn -0.7006 0.1117 -0.7048
vn 0.7064 -0.6970 -0.1235
vn 0.9445 -0.2896 0.1552
vn -0.9337 -0.0492 -0.3547
vn 0.3235 0.8795 0.3490
vn 0.7966 -0.5680 0.2068
vn -0.9571 0.0032 -0.2897
vn 0.5084 0.8486 -0.1466
vn 0.7419 -0.6290 0.2324
vn -0.6142 -0.3576 -0.7035
vn 0.5018 0.6198 -0.6034
vn 0.4888 -0.8030 -0.3410
vn -0.9263 -0.1910 -0.3249
vn -0.6070 0.7755 -0.1734
vn 0.2787 -0.5571 -0.7823
vn 0.4959 -0.0602 -0.8663
vn -0.2089 -0.6796 0.7032
vn -0.1486 -0.3594 0.9213
vn 0.4322 -0.2665 -0.8615
vn -0.0964 0.9950 -0.0252
vn -0.3297 -0.4968 0.8028
vn 0.5147 -0.2880 -0.8076
vn 0.2094 0.9753 0.0703
vn -0.4677 -0.2350 0.8521
vn 0.7552 -0.5644 -0.3334
vn 0.6152 0.7547 0.2280
vn 0.0577 -0.4008 0.9144
vn 0.5019 -0.6608 -0.5581
vn 0.6057 -0.7950 -0.0328
vn -0.6910 -0.2112 -0.6913
vn -0.9877 -0.1478 -0.0511
vn 0.4590 0.7165 -0.5253
vn 0.5253 0.8486 0.0623
vn -0.9837 -0.1373 0.1161
vn 0.4937 -0.7728 -0.3988
vn 0.4630 0.8446 0.2690
vn -0.7011 -0.3945 0.5940
vn 0.5186 -0.8469 0.1175
vn 0.4996 0.4485 0.7411
vt 0.511920 0.700082
vt 0.527070 0.731272
vt 0.525005 0.733046
vt 0.509856 0.701855
vt 0.512080 0.699945
vt 0.527168 0.731188
vt 0.524784 0.733235
vt 0.509696 0.701993
vt 0.524982 0.733066
vt 0.527046 0.731292
vt 0.519058 0.717844
vt 0.518918 0.714071
vt 0.516535 0.716118
vt 0.448016 0.523335
vt 0.421874 0.523335
vt 0.428609 0.542088
vt 0.441282 0.542088
vt 0.593903 0.539480
vt 0.593903 0.556362
vt 0.606576 0.556362
vt 0.606576 0.539480
vt 0.471846 0.542088
vt 0.459173 0.542088
vt 0.452438 0.523335
vt 0.478580 0.523335
vt 0.417453 0.404258
vt 0.391311 0.404258
vt 0.396988 0.387740
vt 0.411775 0.387740
vt 0.428609 0.423011
vt 0.441282 0.423011
vt 0.448016 0.404258
vt 0.421874 0.404258
vt 0.410718 0.423011
vt 0.398045 0.423011
vt 0.589481 0.467125
vt 0.589481 0.486822
vt 0.574694 0.486822
vt 0.574694 0.467125
vt 0.458116 0.506818
vt 0.472903 0.506818
vt 0.442339 0.506818
vt 0.427552 0.506818
vt 0.442339 0.387740
vt 0.427552 0.387740
vt 0.144458 0.682570
vt 0.144458 0.721228
vt 0.169247 0.749372
vt 0.203312 0.743797
vt 0.203312 0.682570
vt 0.150895 0.736028
vt 0.150895 0.688389
vt 0.194776 0.688389
vt 0.194777 0.739433
vt 0.159045 0.745282
vt 0.235025 0.731699
vt 0.204666 0.736954
vt 0.204666 0.690922
vt 0.235025 0.696392
vt 0.150944 0.721228
vt 0.150944 0.682570
vt 0.206846 0.682570
vt 0.206846 0.734798
vt 0.206846 0.690922
vt 0.206846 0.736954
vt 0.230103 0.738130
vt 0.230103 0.695523
vt 0.148994 0.719394
vt 0.168184 0.738264
vt 0.189204 0.738815
vt 0.189204 0.689108
vt 0.148994 0.689108
vt 0.150298 0.748421
vt 0.150944 0.732316
vt 0.150944 0.686941
vt 0.230079 0.671926
vt 0.230079 0.721996
vt 0.202179 0.726614
vt 0.189204 0.782255
vt 0.168184 0.781576
vt 0.202178 0.726594
vt 0.206846 0.655726
vt 0.150944 0.653921
vt 0.215403 0.741798
vt 0.239828 0.719394
vt 0.239828 0.689108
vt 0.148994 0.780956
vt 0.189204 0.782255
vt 0.137102 0.686941
vt 0.137102 0.653921
vt 0.211566 0.655726
vt 0.242515 0.661072
vt 0.242514 0.671926
vt 0.134505 0.780956
vt 0.136242 0.748421
vt 0.160067 0.781576
vt 0.236266 0.688389
vt 0.236266 0.736028
vt 0.230080 0.744355
vt 0.230079 0.747453
vt 0.236266 0.739433
vt 0.236266 0.720946
vt 0.206846 0.734120
vt 0.230103 0.730271
vt 0.197414 0.731699
vt 0.197414 0.696392
vt 0.202179 0.746044
vt 0.236266 0.673352
vt 0.236266 0.720947
vt 0.157975 0.753606
vt 0.149826 0.744355
vt 0.197414 0.774559
vt 0.201776 0.695523
vt 0.201776 0.738130
vt 0.236266 0.662495
vt 0.242169 0.491692
vt 0.242169 0.530624
vt 0.289986 0.530624
vt 0.282943 0.492917
vt 0.242169 0.601475
vt 0.242169 0.640361
vt 0.282821 0.639264
vt 0.289895 0.601475
vt 0.200878 0.492805
vt 0.185480 0.524354
vt 0.185815 0.607574
vt 0.201437 0.639152
vt 0.148239 0.543790
vt 0.148239 0.588023
vt 0.164143 0.546103
vt 0.164143 0.584551
vt 0.187827 0.598661
vt 0.187827 0.532854
vt 0.148239 0.549760
vt 0.185480 0.532854
vt 0.185480 0.598661
vt 0.148239 0.582542
vt 0.250304 0.533738
vt 0.250304 0.599545
vt 0.274010 0.586025
vt 0.274010 0.547576
vt 0.185815 0.599545
vt 0.185815 0.533738
vt 0.192535 0.536481
vt 0.192535 0.594154
vt 0.164227 0.584387
vt 0.164227 0.545939
vt 0.242169 0.536052
vt 0.282943 0.545939
vt 0.282943 0.584387
vt 0.242169 0.593724
vt 0.274094 0.547412
vt 0.274094 0.585861
vt 0.245725 0.595259
vt 0.245725 0.537586
vt 0.242169 0.595934
vt 0.282821 0.585861
vt 0.282821 0.547412
vt 0.242169 0.538262
vt 0.202419 0.549760
vt 0.202419 0.582542
vt 0.235626 0.582542
vt 0.235626 0.549760
vt 0.200878 0.546103
vt 0.200878 0.584551
vt 0.201437 0.586025
vt 0.201437 0.547576
vt 0.451725 0.645220
vt 0.440063 0.617856
vt 0.418167 0.641413
vt 0.435155 0.669431
vt 0.402138 0.710622
vt 0.383069 0.679172
vt 0.358400 0.705710
vt 0.378173 0.731910
vt 0.354722 0.632420
vt 0.335033 0.599947
vt 0.316423 0.624931
vt 0.331467 0.657438
vt 0.389448 0.593325
vt 0.360729 0.577360
vt 0.420189 0.584845
vt 0.423682 0.603709
vt 0.419426 0.596689
vt 0.400400 0.614725
vt 0.407962 0.627197
vt 0.425421 0.601838
vt 0.409357 0.626883
vt 0.399478 0.610590
vt 0.421165 0.594819
vt 0.373508 0.668167
vt 0.360210 0.646236
vt 0.340639 0.671979
vt 0.348059 0.684218
vt 0.423936 0.591026
vt 0.397322 0.606311
vt 0.410619 0.628243
vt 0.429763 0.600636
vt 0.409664 0.630004
vt 0.396291 0.607949
vt 0.420121 0.588473
vt 0.429036 0.603177
vt 0.375697 0.667014
vt 0.351013 0.687115
vt 0.342097 0.672412
vt 0.362324 0.644959
vt 0.348094 0.684391
vt 0.340662 0.672134
vt 0.360692 0.644880
vt 0.372952 0.665101
vt 0.361321 0.643304
vt 0.343313 0.669281
vt 0.350745 0.681539
vt 0.372461 0.661676
vt 0.376281 0.642293
vt 0.382108 0.651903
vt 0.387519 0.621544
vt 0.394940 0.633783
vt 0.373737 0.668528
vt 0.355644 0.720103
vt 0.331682 0.697911
vt 0.347198 0.652008
vt 0.394994 0.598218
vt 0.364040 0.605271
vt 0.430653 0.571409
vt 0.416033 0.562308
vt 0.389424 0.596277
vt 0.428224 0.620429
vt 0.409296 0.690662
vt 0.360935 0.660559
vt 0.352956 0.711153
vt 0.385197 0.731222
vt 0.392793 0.604493
vt 0.365150 0.602106
vt 0.350083 0.645052
vt 0.369248 0.671607
vt 0.434462 0.622786
vt 0.384077 0.591423
vt 0.412388 0.564312
vt 0.431881 0.576446
vt 0.372444 0.672213
vt 0.350163 0.645232
vt 0.365229 0.602286
vt 0.395044 0.607794
vt 0.461204 0.590425
vt 0.438627 0.626905
vt 0.422855 0.570828
vt 0.408308 0.690047
vt 0.389267 0.733756
vt 0.458349 0.616714
vt 0.431188 0.575695
vt 0.416027 0.596031
vt 0.446978 0.631967
vt 0.407748 0.681076
vt 0.422814 0.638130
vt 0.385510 0.618635
vt 0.417751 0.638704
vt 0.156797 0.785422
vt 0.156661 0.808869
vt 0.171251 0.805125
vt 0.173278 0.784831
vt 0.205699 0.785505
vt 0.207672 0.805125
vt 0.222257 0.808869
vt 0.222141 0.786320
vt 0.173278 0.784681
vt 0.173278 0.808869
vt 0.156739 0.808869
vt 0.156848 0.785322
vt 0.200824 0.784420
vt 0.221948 0.785322
vt 0.224405 0.808869
vt 0.200824 0.808869
vt 0.200824 0.785413
vt 0.200824 0.807495
vt 0.224378 0.807495
vt 0.221948 0.785611
vt 0.200824 0.789273
vt 0.224554 0.804554
vt 0.219776 0.816988
vt 0.200824 0.810866
vt 0.221948 0.836943
vt 0.224554 0.851625
vt 0.200824 0.862027
vt 0.200824 0.840434
vt 0.222193 0.786220
vt 0.222335 0.808869
vt 0.205699 0.808869
vt 0.205699 0.785355
vt 0.224295 0.808869
vt 0.221874 0.786220
vt 0.200824 0.785767
vt 0.200824 0.850681
vt 0.200824 0.872789
vt 0.221874 0.872652
vt 0.224322 0.850681
vt 0.200824 0.846914
vt 0.219776 0.840989
vt 0.224510 0.853503
vt 0.200824 0.868506
vt 0.224510 0.852204
vt 0.221874 0.837908
vt 0.200824 0.841562
vt 0.200824 0.863155
vt 0.176562 0.785422
vt 0.172537 0.808869
vt 0.176562 0.785542
vt 0.171452 0.807495
vt 0.167033 0.802746
vt 0.179119 0.816891
vt 0.167033 0.850171
vt 0.176562 0.837277
vt 0.172656 0.808869
vt 0.176642 0.786320
vt 0.171512 0.850681
vt 0.176642 0.872583
vt 0.179119 0.840955
vt 0.167073 0.855207
vt 0.176642 0.837816
vt 0.167073 0.850440
vt 0.156286 0.804796
vt 0.156381 0.853310
vt 0.147294 0.817391
vt 0.147294 0.840668
vt 0.169712 0.850171
vt 0.180332 0.875261
vt 0.198397 0.875261
vt 0.209096 0.850440
vt 0.207817 0.852204
vt 0.198422 0.875161
vt 0.180404 0.875161
vt 0.171070 0.851625
vt 0.156797 0.837277
vt 0.147294 0.817024
vt 0.156286 0.805125
vt 0.147294 0.834275
vt 0.222141 0.837816
vt 0.156381 0.805125
vt 0.156848 0.836943
vt 0.222193 0.837908
vt 0.180707 0.817024
vt 0.180707 0.834275
vt 0.198181 0.834275
vt 0.198181 0.817024
vt 0.592654 0.657990
vt 0.611740 0.687757
vt 0.650467 0.664529
vt 0.616448 0.597575
vt 0.657856 0.537061
vt 0.705031 0.610637
vt 0.729295 0.564932
vt 0.694315 0.513889
vt 0.622544 0.612493
vt 0.651967 0.648213
vt 0.702334 0.522883
vt 0.727539 0.565706
vt 0.700556 0.603657
vt 0.664590 0.547564
vt 0.587388 0.649777
vt 0.610657 0.588543
vt 0.652210 0.658759
vt 0.601534 0.671839
vt 0.660115 0.660922
vt 0.610416 0.602066
vt 0.652218 0.528269
vt 0.689147 0.505830
vt 0.726922 0.561232
vt 0.703299 0.607935
vt 0.710669 0.619430
vt 0.732986 0.574201
vt 0.697812 0.515831
vt 0.659633 0.539833
vt 0.636819 0.593542
vt 0.650964 0.615604
vt 0.673312 0.590180
vt 0.659166 0.568118
vt 0.660817 0.557918
vt 0.696763 0.615410
vt 0.658361 0.639231
vt 0.614023 0.591295
vt 0.546347 0.289363
vt 0.546347 0.331617
vt 0.579514 0.331617
vt 0.578592 0.290046
vt 0.508933 0.289948
vt 0.487548 0.328023
vt 0.489946 0.408948
vt 0.512930 0.454827
vt 0.534671 0.454827
vt 0.551458 0.414644
vt 0.453982 0.352527
vt 0.453982 0.379801
vt 0.578520 0.389293
vt 0.455078 0.363377
vt 0.455078 0.380426
vt 0.483662 0.383274
vt 0.483662 0.355295
vt 0.453982 0.362509
vt 0.487548 0.355295
vt 0.487548 0.383274
vt 0.453982 0.372331
vt 0.544415 0.357694
vt 0.544415 0.384425
vt 0.578858 0.382344
vt 0.578858 0.367377
vt 0.489946 0.384425
vt 0.489946 0.357694
vt 0.486360 0.358257
vt 0.486360 0.385276
vt 0.455151 0.380239
vt 0.455151 0.363975
vt 0.546347 0.359802
vt 0.578592 0.363975
vt 0.578592 0.380239
vt 0.546347 0.384787
vt 0.548691 0.389673
vt 0.548691 0.356978
vt 0.551458 0.389673
vt 0.578520 0.381078
vt 0.578520 0.361316
vt 0.551458 0.356978
vt 0.502058 0.362509
vt 0.502058 0.372331
vt 0.522533 0.372331
vt 0.522533 0.362509
vt 0.529659 0.361316
vt 0.529659 0.381078
vt 0.508933 0.363377
vt 0.508933 0.380426
vt 0.512930 0.382344
vt 0.534671 0.382344
vt 0.534671 0.367377
vt 0.512930 0.367377
vt 0.509144 0.523335
vt 0.483002 0.523335
vt 0.489737 0.542088
vt 0.502410 0.542088
vt 0.593903 0.560784
vt 0.593903 0.577666
vt 0.606576 0.577666
vt 0.606576 0.560784
vt 0.532974 0.542088
vt 0.520300 0.542088
vt 0.513566 0.523335
vt 0.539708 0.523335
vt 0.417453 0.443950
vt 0.391311 0.443950
vt 0.396988 0.427433
vt 0.411775 0.427433
vt 0.428609 0.462703
vt 0.441282 0.462703
vt 0.448016 0.443950
vt 0.421874 0.443950
vt 0.410718 0.462703
vt 0.398045 0.462703
vt 0.589481 0.491244
vt 0.589481 0.510940
vt 0.574694 0.510940
vt 0.574694 0.491244
vt 0.519244 0.506818
vt 0.534031 0.506818
vt 0.503467 0.506818
vt 0.488680 0.506818
vt 0.442339 0.427433
vt 0.427552 0.427433
vt 0.570272 0.404258
vt 0.544130 0.404258
vt 0.550864 0.423011
vt 0.563538 0.423011
vt 0.593903 0.582088
vt 0.593903 0.598969
vt 0.606576 0.598969
vt 0.606576 0.582088
vt 0.563538 0.462703
vt 0.550864 0.462703
vt 0.544130 0.443950
vt 0.570272 0.443950
vt 0.478580 0.404258
vt 0.452438 0.404258
vt 0.458116 0.387740
vt 0.472903 0.387740
vt 0.459173 0.462703
vt 0.471846 0.462703
vt 0.478580 0.443950
vt 0.452438 0.443950
vt 0.471846 0.423011
vt 0.459173 0.423011
vt 0.589481 0.515362
vt 0.589481 0.535058
vt 0.574694 0.535058
vt 0.574694 0.515362
vt 0.549808 0.427433
vt 0.564595 0.427433
vt 0.564595 0.387740
vt 0.549808 0.387740
vt 0.472903 0.427433
vt 0.458116 0.427433
vt 0.570272 0.483643
vt 0.544130 0.483643
vt 0.550864 0.502396
vt 0.563538 0.502396
vt 0.391311 0.586203
vt 0.391311 0.603084
vt 0.403984 0.603084
vt 0.403984 0.586203
vt 0.563538 0.542088
vt 0.550864 0.542088
vt 0.544130 0.523335
vt 0.570272 0.523335
vt 0.417453 0.483643
vt 0.391311 0.483643
vt 0.396988 0.467125
vt 0.411775 0.467125
vt 0.428609 0.502396
vt 0.441282 0.502396
vt 0.448016 0.483643
vt 0.421874 0.483643
vt 0.410718 0.502396
vt 0.398045 0.502396
vt 0.589481 0.539480
vt 0.589481 0.559177
vt 0.574694 0.559177
vt 0.574694 0.539480
vt 0.549808 0.506818
vt 0.564595 0.506818
vt 0.564595 0.467125
vt 0.549808 0.467125
vt 0.442339 0.467125
vt 0.427552 0.467125
vt 0.417453 0.563028
vt 0.391311 0.563028
vt 0.398045 0.581781
vt 0.410718 0.581781
vt 0.408406 0.586203
vt 0.408406 0.603084
vt 0.421080 0.603084
vt 0.421080 0.586203
vt 0.441282 0.581781
vt 0.428609 0.581781
vt 0.421874 0.563028
vt 0.448016 0.563028
vt 0.478580 0.483643
vt 0.452438 0.483643
vt 0.458116 0.467125
vt 0.472903 0.467125
vt 0.489737 0.423011
vt 0.502410 0.423011
vt 0.509144 0.404258
vt 0.483002 0.404258
vt 0.471846 0.502396
vt 0.459173 0.502396
vt 0.589481 0.563599
vt 0.589481 0.583295
vt 0.574694 0.583295
vt 0.574694 0.563599
vt 0.427552 0.546510
vt 0.442339 0.546510
vt 0.411775 0.546510
vt 0.396988 0.546510
vt 0.503467 0.387740
vt 0.488680 0.387740
vt 0.498974 0.478718
vt 0.498974 0.521282
vt 0.516183 0.510318
vt 0.516183 0.489682
vt 0.492254 0.489682
vt 0.492254 0.510318
vt 0.507746 0.510318
vt 0.507746 0.489682
vt 0.515977 0.498634
vt 0.484023 0.498634
vt 0.490963 0.478443
vt 0.509037 0.478443
vt 0.492254 0.521557
vt 0.507746 0.521557
vt 0.509037 0.487962
vt 0.509037 0.512038
vt 0.490963 0.512038
vt 0.490963 0.487962
vt 0.483817 0.512038
vt 0.483817 0.487962
vt 0.478580 0.563028
vt 0.452438 0.563028
vt 0.459173 0.581781
vt 0.471846 0.581781
vt 0.425502 0.586203
vt 0.425502 0.603084
vt 0.438175 0.603084
vt 0.438175 0.586203
vt 0.502410 0.581781
vt 0.489737 0.581781
vt 0.483002 0.563028
vt 0.509144 0.563028
vt 0.509144 0.443950
vt 0.483002 0.443950
vt 0.488680 0.427433
vt 0.503467 0.427433
vt 0.489737 0.502396
vt 0.502410 0.502396
vt 0.509144 0.483643
vt 0.483002 0.483643
vt 0.502410 0.462703
vt 0.489737 0.462703
vt 0.608689 0.467125
vt 0.608689 0.486822
vt 0.593903 0.486822
vt 0.593903 0.467125
vt 0.488680 0.546510
vt 0.503467 0.546510
vt 0.472903 0.546510
vt 0.458116 0.546510
vt 0.503467 0.467125
vt 0.488680 0.467125
vt 0.539708 0.563028
vt 0.513566 0.563028
vt 0.520300 0.581781
vt 0.532974 0.581781
vt 0.442597 0.586203
vt 0.442597 0.603084
vt 0.455271 0.603084
vt 0.455271 0.586203
vt 0.563538 0.581781
vt 0.550864 0.581781
vt 0.544130 0.563028
vt 0.570272 0.563028
vt 0.539708 0.404258
vt 0.513566 0.404258
vt 0.519244 0.387740
vt 0.534031 0.387740
vt 0.520300 0.462703
vt 0.532974 0.462703
vt 0.539708 0.443950
vt 0.513566 0.443950
vt 0.532974 0.423011
vt 0.520300 0.423011
vt 0.608689 0.491244
vt 0.608689 0.510940
vt 0.593903 0.510940
vt 0.593903 0.491244
vt 0.549808 0.546510
vt 0.564595 0.546510
vt 0.534031 0.546510
vt 0.519244 0.546510
vt 0.534031 0.427433
vt 0.519244 0.427433
vt 0.600836 0.404258
vt 0.574694 0.404258
vt 0.581428 0.423011
vt 0.594102 0.423011
vt 0.459693 0.586203
vt 0.459693 0.603084
vt 0.472367 0.603084
vt 0.472367 0.586203
vt 0.594102 0.462703
vt 0.581428 0.462703
vt 0.574694 0.443950
vt 0.600836 0.443950
vt 0.539708 0.483643
vt 0.513566 0.483643
vt 0.519244 0.467125
vt 0.534031 0.467125
vt 0.398045 0.542088
vt 0.410718 0.542088
vt 0.417453 0.523335
vt 0.391311 0.523335
vt 0.532974 0.502396
vt 0.520300 0.502396
vt 0.608689 0.515362
vt 0.608689 0.535058
vt 0.593903 0.535058
vt 0.593903 0.515362
vt 0.580372 0.427433
vt 0.595158 0.427433
vt 0.595158 0.387740
vt 0.580372 0.387740
vt 0.411775 0.506818
vt 0.396988 0.506818
vt 0.239468 0.509823
vt 0.239452 0.529377
vt 0.263548 0.529121
vt 0.259241 0.511871
vt 0.258333 0.513253
vt 0.262626 0.530466
vt 0.238518 0.530759
vt 0.238566 0.511134
vt 0.239368 0.599096
vt 0.239454 0.618789
vt 0.259118 0.616619
vt 0.263387 0.599298
vt 0.263536 0.598515
vt 0.259217 0.615834
vt 0.239629 0.618062
vt 0.239515 0.598323
vt 0.206454 0.511090
vt 0.198658 0.526634
vt 0.227077 0.529761
vt 0.226989 0.509926
vt 0.227759 0.511321
vt 0.227830 0.531124
vt 0.199416 0.528019
vt 0.207208 0.512482
vt 0.198817 0.602109
vt 0.206724 0.617654
vt 0.226974 0.618925
vt 0.227055 0.599118
vt 0.227070 0.598200
vt 0.226983 0.618016
vt 0.206753 0.616705
vt 0.198836 0.601178
vt 0.178779 0.552911
vt 0.178835 0.575088
vt 0.197650 0.584892
vt 0.197477 0.543165
vt 0.241894 0.546845
vt 0.241894 0.582370
vt 0.265784 0.582367
vt 0.265904 0.546848
vt 0.198055 0.542860
vt 0.198220 0.584587
vt 0.179360 0.574783
vt 0.179401 0.552606
vt 0.265081 0.545484
vt 0.265122 0.581003
vt 0.241144 0.581007
vt 0.241142 0.545482
vt 0.177688 0.557462
vt 0.177688 0.576740
vt 0.189564 0.583815
vt 0.189564 0.550819
vt 0.177409 0.559295
vt 0.196082 0.550819
vt 0.196082 0.583815
vt 0.177409 0.575732
vt 0.246392 0.551262
vt 0.246392 0.584258
vt 0.258279 0.577479
vt 0.258279 0.558200
vt 0.176375 0.575732
vt 0.195215 0.584258
vt 0.195215 0.551262
vt 0.176375 0.559295
vt 0.195432 0.552637
vt 0.195432 0.581555
vt 0.181238 0.576658
vt 0.181238 0.557379
vt 0.232208 0.552422
vt 0.252652 0.557379
vt 0.252652 0.576658
vt 0.232208 0.581339
vt 0.254001 0.558118
vt 0.254001 0.577396
vt 0.239776 0.582109
vt 0.239776 0.553191
vt 0.232212 0.582447
vt 0.252595 0.577396
vt 0.252595 0.558118
vt 0.232212 0.553530
vt 0.209126 0.559295
vt 0.209126 0.575732
vt 0.225776 0.575732
vt 0.225776 0.559295
vt 0.230899 0.553191
vt 0.230899 0.582109
vt 0.204229 0.581555
vt 0.204229 0.552637
vt 0.210383 0.557462
vt 0.231086 0.552422
vt 0.231086 0.581339
vt 0.210383 0.576740
vt 0.210537 0.577479
vt 0.230961 0.582447
vt 0.230961 0.553530
vt 0.210537 0.558200
vt 0.197449 0.543464
vt 0.197643 0.585189
vt 0.225861 0.582134
vt 0.225903 0.546606
vt 0.226565 0.545729
vt 0.226610 0.581257
vt 0.198308 0.584312
vt 0.198174 0.542587
vt 0.556454 0.313825
vt 0.556310 0.338994
vt 0.576070 0.338685
vt 0.575075 0.314891
vt 0.575484 0.314635
vt 0.576518 0.338450
vt 0.556749 0.338739
vt 0.556903 0.313580
vt 0.531076 0.314668
vt 0.518433 0.337035
vt 0.553121 0.339118
vt 0.553087 0.314045
vt 0.552519 0.314378
vt 0.552639 0.339596
vt 0.517977 0.337554
vt 0.530680 0.315286
vt 0.520581 0.390547
vt 0.534146 0.417585
vt 0.546969 0.417673
vt 0.556878 0.393917
vt 0.556639 0.392821
vt 0.546710 0.416598
vt 0.533927 0.416468
vt 0.520347 0.389446
vt 0.498737 0.355316
vt 0.498785 0.371397
vt 0.519986 0.388602
vt 0.518566 0.340851
vt 0.556231 0.343942
vt 0.559196 0.392907
vt 0.575035 0.377881
vt 0.575944 0.344016
vt 0.517586 0.340628
vt 0.519001 0.388380
vt 0.497774 0.371181
vt 0.497785 0.355088
vt 0.576959 0.344046
vt 0.576307 0.378054
vt 0.560365 0.393023
vt 0.557359 0.344035
vt 0.487506 0.363931
vt 0.487506 0.373991
vt 0.504372 0.375672
vt 0.504372 0.359162
vt 0.492033 0.363419
vt 0.511839 0.359162
vt 0.511839 0.375672
vt 0.492033 0.369214
vt 0.559501 0.360578
vt 0.559501 0.376351
vt 0.579825 0.375123
vt 0.579825 0.366291
vt 0.490271 0.369214
vt 0.511493 0.376351
vt 0.511493 0.360578
vt 0.490272 0.363419
vt 0.515008 0.360909
vt 0.515008 0.376853
vt 0.496592 0.373881
vt 0.496592 0.364284
vt 0.554356 0.361822
vt 0.573383 0.364284
vt 0.573383 0.373881
vt 0.554356 0.376564
vt 0.579995 0.366291
vt 0.579995 0.375123
vt 0.562194 0.379448
vt 0.562194 0.360155
vt 0.569004 0.379448
vt 0.584973 0.374376
vt 0.584973 0.362715
vt 0.569004 0.360155
vt 0.525032 0.363419
vt 0.525032 0.369214
vt 0.537114 0.369214
vt 0.537114 0.363419
vt 0.541898 0.362715
vt 0.541898 0.374376
vt 0.516348 0.376853
vt 0.516348 0.360909
vt 0.531645 0.363931
vt 0.553722 0.361822
vt 0.553722 0.376564
vt 0.531645 0.373991
vt 0.534270 0.375123
vt 0.547099 0.375123
vt 0.547099 0.366291
vt 0.534270 0.366291
vt 0.518894 0.341318
vt 0.520357 0.388991
vt 0.556591 0.392455
vt 0.553634 0.343366
vt 0.553221 0.343233
vt 0.556112 0.392299
vt 0.519944 0.388861
vt 0.518435 0.341165
vt 0.625816 0.625977
vt 0.632993 0.636596
vt 0.647075 0.628251
vt 0.634604 0.603732
vt 0.664005 0.571062
vt 0.681324 0.598011
vt 0.690343 0.581243
vt 0.677244 0.562594
vt 0.630272 0.612100
vt 0.641053 0.625185
vt 0.626154 0.639828
vt 0.619431 0.628662
vt 0.674054 0.553457
vt 0.683229 0.569513
vt 0.673376 0.583216
vt 0.660200 0.562656
vt 0.629081 0.621669
vt 0.637683 0.599010
vt 0.652916 0.624709
vt 0.634428 0.629273
vt 0.634409 0.631102
vt 0.655841 0.627220
vt 0.637628 0.605675
vt 0.629141 0.623351
vt 0.660300 0.570112
vt 0.673723 0.561918
vt 0.687810 0.582154
vt 0.679050 0.599291
vt 0.681114 0.602166
vt 0.689182 0.585655
vt 0.676536 0.564136
vt 0.662450 0.572984
vt 0.644120 0.601119
vt 0.649303 0.609202
vt 0.657490 0.599888
vt 0.652307 0.591805
vt 0.652913 0.588068
vt 0.666082 0.609131
vt 0.652013 0.617859
vt 0.635768 0.600296
vt 0.639518 0.596858
vt 0.654744 0.574886
vt 0.673459 0.603971
vt 0.654741 0.622672
vt 0.657757 0.624610
vt 0.676277 0.609327
vt 0.657580 0.580242
vt 0.639548 0.602982
vt 0.640917 0.599287
vt 0.653373 0.623762
vt 0.673372 0.604081
vt 0.656081 0.577066
vt 0.653279 0.574531
vt 0.666518 0.595107
vt 0.648613 0.611389
vt 0.637887 0.598325
vt 0.518912 0.714135
vt 0.519051 0.717908
vt 0.516528 0.716182
s 1
usemtl debris
f 1/1/1 2/2/2 4/3/4 3/4/3
f 3/5/3 4/6/4 6/7/6 5/8/5
f 5/4/5 6/9/6 2/10/2 1/1/1
f 1/11/1 3/12/3 5/13/5
f 2/10/2 6/9/6 9/9/9 8/10/8
f 8/10/8 9/9/9 12/9/12 11/10/11
f 6/7/6 4/6/4 7/6/7 9/7/9
f 4/3/4 2/2/2 8/2/8 7/3/7
f 10/6/10 11/10/11 12/7/12
f 9/7/9 7/6/7 10/6/10 12/7/12
f 7/3/7 8/2/8 11/2/11 10/3/10
f 13/14/13 14/15/14 16/16/16 15/17/15
f 15/18/15 16/19/16 20/20/20 19/21/19
f 19/22/19 20/23/20 18/24/18 17/25/17
f 18/26/18 14/27/14 22/28/22 23/29/23
f 15/30/15 19/31/19 17/32/17 13/33/13
f 20/34/20 16/35/16 14/27/14 18/26/18
f 24/36/24 23/37/23 22/38/22 21/39/21
f 17/25/17 18/24/18 23/40/23 24/41/24
f 14/15/14 13/14/13 21/42/21 22/43/22
f 13/33/13 17/32/17 24/44/24 21/45/21
f 25/46/25 35/47/35 34/48/34 30/49/30 26/50/26
f 52/51/52 27/52/27 38/53/38 49/54/49 51/55/51
f 43/56/43 46/57/46 40/58/40 41/59/41
f 35/60/35 25/61/25 28/62/28 36/63/36
f 40/64/40 46/65/46 47/66/47 37/67/37
f 32/68/32 31/69/31 44/70/44 42/71/42 29/72/29
f 33/73/33 30/74/30 34/75/34 50/76/50 48/77/48 45/78/45 44/79/44 31/80/31
f 26/74/26 39/81/39 28/82/28 25/83/25
f 26/50/26 30/49/30 33/84/33 32/85/32 29/86/29
f 39/81/39 26/74/26 29/87/29 42/88/42
f 34/89/34 35/90/35 36/91/36 53/92/53 50/93/50
f 32/94/32 33/95/33 31/96/31
f 36/63/36 28/62/28 27/97/27 52/98/52 53/99/53
f 47/66/47 48/100/48 49/101/49
f 38/102/38 39/81/39 40/103/40 37/104/37
f 42/71/42 44/70/44 43/105/43 41/106/41
f 45/107/45 48/100/48 47/66/47 46/65/46
f 48/77/48 50/76/50 51/108/51 49/109/49
f 50/110/50 53/111/53 52/51/52 51/55/51
f 39/81/39 42/88/42 41/112/41 40/103/40
f 37/113/37 47/114/47 49/54/49 38/53/38
f 44/79/44 45/78/45 46/103/46 43/112/43
f 39/81/39 38/102/38 27/115/27 28/82/28
f 66/116/66 67/117/67 69/118/69 68/119/68
f 72/119/72 73/118/73 71/117/71 70/116/70
f 74/120/74 75/121/75 77/122/77 76/123/76
f 80/123/80 81/122/81 79/121/79 78/120/78
f 55/124/55 56/125/56 67/117/67 66/116/66
f 70/116/70 71/117/71 59/125/59 58/124/58
f 61/126/61 62/127/62 75/121/75 74/120/74
f 78/120/78 79/121/79 65/127/65 64/126/64
f 54/128/54 60/129/60 61/126/61 56/125/56
f 67/117/67 74/120/74 76/123/76 69/118/69
f 59/125/59 64/126/64 63/129/63 57/128/57
f 73/118/73 80/123/80 78/120/78 71/117/71
f 55/130/55 58/131/58 59/132/59 56/133/56
f 54/134/54 56/135/56 59/136/59 57/137/57
f 61/138/61 64/139/64 65/140/65 62/141/62
f 63/137/63 64/142/64 61/143/61 60/134/60
f 69/144/69 73/145/73 72/146/72 68/147/68
f 66/148/66 68/149/68 72/150/72 70/151/70
f 77/152/77 81/153/81 80/154/80 76/155/76
f 79/156/79 81/157/81 77/158/77 75/159/75
f 54/160/54 57/161/57 63/162/63 60/163/60
f 76/155/76 80/154/80 73/145/73 69/144/69
f 55/164/55 66/148/66 70/151/70 58/165/58
f 65/166/65 79/156/79 75/159/75 62/167/62
f 56/125/56 61/126/61 74/120/74 67/117/67
f 71/117/71 78/120/78 64/126/64 59/125/59
f 82/168/82 83/169/83 85/170/85 84/171/84
f 88/171/88 89/170/89 87/169/87 86/168/86
f 96/172/96 97/173/97 99/174/99 98/175/98
f 102/175/102 103/174/103 101/173/101 100/172/100
f 104/176/104 105/177/105 107/178/107 106/179/106
f 110/179/110 111/178/111 109/177/109 108/176/108
f 84/171/84 85/170/85 97/173/97 96/172/96
f 100/172/100 101/173/101 89/170/89 88/171/88
f 91/180/91 92/181/92 105/177/105 104/176/104
f 108/176/108 109/177/109 95/181/95 94/180/94
f 83/169/83 90/182/90 91/180/91 85/170/85
f 97/173/97 104/176/104 106/179/106 99/174/99
f 89/170/89 94/180/94 93/182/93 87/169/87
f 103/174/103 110/179/110 108/176/108 101/173/101
f 82/183/82 86/184/86 87/185/87 83/186/83
f 82/187/82 84/188/84 88/189/88 86/190/86
f 91/191/91 94/192/94 95/193/95 92/194/92
f 93/195/93 94/196/94 91/197/91 90/198/90
f 99/199/99 103/200/103 102/201/102 98/202/98
f 96/203/96 98/204/98 102/205/102 100/206/100
f 107/207/107 111/208/111 110/209/110 106/210/106
f 109/211/109 111/212/111 107/213/107 105/214/105
f 83/186/83 87/185/87 93/215/93 90/216/90
f 106/210/106 110/209/110 103/200/103 99/199/99
f 84/188/84 96/203/96 100/206/100 88/189/88
f 95/217/95 109/211/109 105/214/105 92/218/92
f 85/170/85 91/180/91 104/176/104 97/173/97
f 101/173/101 108/176/108 94/180/94 89/170/89
f 124/219/124 126/220/126 127/221/127 125/222/125
f 131/222/131 133/221/133 132/220/132 130/219/130
f 115/223/115 124/219/124 125/222/125 116/224/116
f 121/224/121 131/222/131 130/219/130 120/223/120
f 112/225/112 117/226/117 118/227/118 113/228/113
f 122/229/122 128/230/128 129/231/129 123/232/123
f 115/233/115 116/234/116 121/235/121 120/236/120
f 115/237/115 120/238/120 119/239/119 114/240/114
f 132/241/132 133/242/133 127/243/127 126/244/126
f 127/232/127 133/231/133 131/230/131 125/229/125
f 112/245/112 113/246/113 115/223/115 114/247/114
f 119/247/119 120/223/120 118/246/118 117/245/117
f 122/248/122 123/249/123 126/220/126 124/219/124
f 130/219/130 132/220/132 129/249/129 128/248/128
f 112/250/112 114/251/114 119/252/119 117/253/117
f 129/254/129 132/241/132 126/244/126 123/255/123
f 113/246/113 122/248/122 124/219/124 115/223/115
f 120/223/120 130/219/130 128/248/128 118/246/118
f 113/228/113 118/227/118 128/230/128 122/229/122
f 125/229/125 131/230/131 121/256/121 116/257/116
f 135/258/135 136/259/136 138/260/138 137/261/137
f 144/262/144 145/263/145 147/264/147 146/265/146
f 157/266/157 158/267/158 156/268/156 155/269/155
f 152/270/152 155/271/155 156/272/156 153/273/153
f 152/274/152 154/275/154 157/276/157 155/277/155
f 160/278/160 163/279/163 164/280/164 161/281/161
f 162/282/162 163/283/163 160/284/160 159/285/159
f 170/286/170 171/287/171 169/288/169 168/289/168
f 167/273/167 171/290/171 170/291/170 166/292/166
f 165/293/165 166/294/166 170/295/170 168/296/168
f 173/297/173 176/298/176 175/299/175 172/300/172
f 175/301/175 177/302/177 174/303/174 172/304/172
f 135/305/135 152/270/152 153/273/153 136/306/136
f 135/307/135 137/308/137 154/275/154 152/274/152
f 141/309/141 160/278/160 161/281/161 142/310/142
f 159/285/159 160/284/160 141/311/141 140/312/140
f 147/313/147 167/273/167 166/292/166 146/314/146
f 144/315/144 146/316/146 166/294/166 165/293/165
f 150/317/150 173/297/173 172/300/172 149/318/149
f 172/304/172 174/303/174 151/319/151 149/320/149
f 137/308/137 138/321/138 145/322/145 144/315/144
f 134/323/134 143/324/143 145/322/145 138/321/138
f 168/289/168 169/288/169 158/267/158 157/266/157
f 154/275/154 165/293/165 168/296/168 157/276/157
f 141/325/141 142/326/142 150/327/150 149/328/149
f 141/309/141 149/318/149 148/324/148 139/323/139
f 175/329/175 176/330/176 164/331/164 163/332/163
f 164/280/164 176/298/176 173/297/173 161/281/161
f 136/259/136 140/333/140 141/325/141 138/260/138
f 134/334/134 138/335/138 141/311/141 139/336/139
f 145/263/145 149/328/149 151/337/151 147/264/147
f 148/336/148 149/320/149 145/338/145 143/334/143
f 158/267/158 163/332/163 162/339/162 156/268/156
f 153/273/153 156/272/156 162/282/162 159/285/159
f 171/287/171 177/340/177 175/329/175 169/288/169
f 174/303/174 177/302/177 171/290/171 167/273/167
f 134/341/134 139/342/139 148/343/148 143/344/143
f 169/288/169 175/329/175 163/332/163 158/267/158
f 136/306/136 153/273/153 159/285/159 140/312/140
f 151/319/151 174/303/174 167/273/167 147/313/147
f 137/308/137 144/315/144 165/293/165 154/275/154
f 161/281/161 173/297/173 150/317/150 142/310/142
f 178/345/178 182/346/182 183/347/183 179/348/179
f 186/349/186 190/350/190 191/351/191 187/352/187
f 181/353/181 185/354/185 184/346/184 180/345/180
f 189/355/189 193/356/193 192/357/192 188/358/188
f 178/359/178 179/360/179 181/361/181 180/362/180
f 184/362/184 185/363/185 183/364/183 182/359/182
f 186/365/186 187/366/187 189/367/189 188/368/188
f 192/369/192 193/370/193 191/371/191 190/372/190
f 178/373/178 180/374/180 184/375/184 182/376/182
f 191/377/191 193/378/193 189/379/189 187/380/187
f 179/360/179 186/365/186 188/368/188 181/361/181
f 185/363/185 192/369/192 190/372/190 183/364/183
f 179/348/179 183/347/183 190/350/190 186/349/186
f 188/358/188 192/357/192 185/354/185 181/353/181
f 206/381/206 207/382/207 209/383/209 208/384/208
f 212/384/212 213/383/213 211/382/211 210/381/210
f 195/385/195 196/386/196 207/382/207 206/381/206
f 210/381/210 211/382/211 199/386/199 198/385/198
f 201/387/201 202/388/202 215/389/215 214/390/214
f 217/390/217 218/389/218 205/388/205 204/387/204
f 194/391/194 200/392/200 201/387/201 196/386/196
f 207/382/207 214/390/214 216/393/216 209/383/209
f 199/386/199 204/387/204 203/392/203 197/391/197
f 213/383/213 219/393/219 217/390/217 211/382/211
f 195/394/195 198/395/198 199/396/199 196/397/196
f 194/398/194 196/399/196 199/400/199 197/401/197
f 201/402/201 204/403/204 205/404/205 202/405/202
f 203/401/203 204/406/204 201/407/201 200/398/200
f 209/408/209 213/409/213 212/410/212 208/411/208
f 206/412/206 208/413/208 212/414/212 210/415/210
f 215/405/215 218/404/218 217/416/217 214/417/214
f 217/418/217 219/419/219 216/420/216 214/421/214
f 194/422/194 197/423/197 203/424/203 200/425/200
f 216/426/216 219/427/219 213/409/213 209/408/209
f 195/428/195 206/412/206 210/415/210 198/429/198
f 205/430/205 218/431/218 215/432/215 202/433/202
f 196/386/196 201/387/201 214/390/214 207/382/207
f 211/382/211 217/390/217 204/387/204 199/386/199
f 220/46/220 230/47/230 229/48/229 225/49/225 221/50/221
f 247/51/247 222/52/222 233/53/233 244/54/244 246/55/246
f 238/56/238 241/57/241 235/58/235 236/59/236
f 230/60/230 220/61/220 223/62/223 231/63/231
f 235/64/235 241/65/241 242/66/242 232/67/232
f 227/68/227 226/69/226 239/70/239 237/71/237 224/72/224
f 228/73/228 225/74/225 229/75/229 245/76/245 243/77/243 240/78/240 239/79/239 226/80/226
f 221/74/221 234/81/234 223/82/223 220/83/220
f 221/50/221 225/49/225 228/84/228 227/85/227 224/86/224
f 234/81/234 221/74/221 224/87/224 237/88/237
f 229/89/229 230/90/230 231/91/231 248/92/248 245/93/245
f 227/94/227 228/95/228 226/96/226
f 231/63/231 223/62/223 222/97/222 247/98/247 248/99/248
f 242/66/242 243/100/243 244/101/244
f 233/102/233 234/81/234 235/103/235 232/104/232
f 237/71/237 239/70/239 238/105/238 236/106/236
f 240/107/240 243/100/243 242/66/242 241/65/241
f 243/77/243 245/76/245 246/108/246 244/109/244
f 245/110/245 248/111/248 247/51/247 246/55/246
f 234/81/234 237/88/237 236/112/236 235/103/235
f 232/113/232 242/114/242 244/54/244 233/53/233
f 239/79/239 240/78/240 241/103/241 238/112/238
f 234/81/234 233/102/233 222/115/222 223/82/223
f 261/116/261 262/117/262 264/118/264 263/119/263
f 267/119/267 268/118/268 266/117/266 265/116/265
f 269/120/269 270/121/270 272/122/272 271/123/271
f 275/123/275 276/122/276 274/121/274 273/120/273
f 250/124/250 251/125/251 262/117/262 261/116/261
f 265/116/265 266/117/266 254/125/254 253/124/253
f 256/126/256 257/127/257 270/121/270 269/120/269
f 273/120/273 274/121/274 260/127/260 259/126/259
f 249/128/249 255/129/255 256/126/256 251/125/251
f 262/117/262 269/120/269 271/123/271 264/118/264
f 254/125/254 259/126/259 258/129/258 252/128/252
f 268/118/268 275/123/275 273/120/273 266/117/266
f 250/130/250 253/131/253 254/132/254 251/133/251
f 249/134/249 251/135/251 254/136/254 252/137/252
f 256/138/256 259/139/259 260/140/260 257/141/257
f 258/137/258 259/142/259 256/143/256 255/134/255
f 264/144/264 268/145/268 267/146/267 263/147/263
f 261/148/261 263/149/263 267/150/267 265/151/265
f 272/152/272 276/153/276 275/154/275 271/155/271
f 274/156/274 276/157/276 272/158/272 270/159/270
f 249/160/249 252/161/252 258/162/258 255/163/255
f 271/155/271 275/154/275 268/145/268 264/144/264
f 250/164/250 261/148/261 265/151/265 253/165/253
f 260/166/260 274/156/274 270/159/270 257/167/257
f 251/125/251 256/126/256 269/120/269 262/117/262
f 266/117/266 273/120/273 259/126/259 254/125/254
f 277/168/277 278/169/278 280/170/280 279/171/279
f 283/171/283 284/170/284 282/169/282 281/168/281
f 291/172/291 292/173/292 294/174/294 293/175/293
f 297/175/297 298/174/298 296/173/296 295/172/295
f 299/176/299 300/177/300 302/178/302 301/179/301
f 305/179/305 306/178/306 304/177/304 303/176/303
f 279/171/279 280/170/280 292/173/292 291/172/291
f 295/172/295 296/173/296 284/170/284 283/171/283
f 286/180/286 287/181/287 300/177/300 299/176/299
f 303/176/303 304/177/304 290/181/290 289/180/289
f 278/169/278 285/182/285 286/180/286 280/170/280
f 292/173/292 299/176/299 301/179/301 294/174/294
f 284/170/284 289/180/289 288/182/288 282/169/282
f 298/174/298 305/179/305 303/176/303 296/173/296
f 277/183/277 281/184/281 282/185/282 278/186/278
f 277/187/277 279/188/279 283/189/283 281/190/281
f 286/191/286 289/192/289 290/193/290 287/194/287
f 288/195/288 289/196/289 286/197/286 285/198/285
f 294/199/294 298/200/298 297/201/297 293/202/293
f 291/203/291 293/204/293 297/205/297 295/206/295
f 302/207/302 306/208/306 305/209/305 301/210/301
f 304/211/304 306/212/306 302/213/302 300/214/300
f 278/186/278 282/185/282 288/215/288 285/216/285
f 301/210/301 305/209/305 298/200/298 294/199/294
f 279/188/279 291/203/291 295/206/295 283/189/283
f 290/217/290 304/211/304 300/214/300 287/218/287
f 280/170/280 286/180/286 299/176/299 292/173/292
f 296/173/296 303/176/303 289/180/289 284/170/284
f 319/219/319 321/220/321 322/221/322 320/222/320
f 326/222/326 328/221/328 327/220/327 325/219/325
f 310/223/310 319/219/319 320/222/320 311/224/311
f 316/224/316 326/222/326 325/219/325 315/223/315
f 307/225/307 312/226/312 313/227/313 308/228/308
f 317/229/317 323/230/323 324/231/324 318/232/318
f 310/233/310 311/234/311 316/235/316 315/236/315
f 310/237/310 315/238/315 314/239/314 309/240/309
f 327/241/327 328/242/328 322/243/322 321/244/321
f 322/232/322 328/231/328 326/230/326 320/229/320
f 307/245/307 308/246/308 310/223/310 309/247/309
f 314/247/314 315/223/315 313/246/313 312/245/312
f 317/248/317 318/249/318 321/220/321 319/219/319
f 325/219/325 327/220/327 324/249/324 323/248/323
f 307/250/307 309/251/309 314/252/314 312/253/312
f 324/254/324 327/241/327 321/244/321 318/255/318
f 308/246/308 317/248/317 319/219/319 310/223/310
f 315/223/315 325/219/325 323/248/323 313/246/313
f 308/228/308 313/227/313 323/230/323 317/229/317
f 320/229/320 326/230/326 316/256/316 311/257/311
f 330/258/135 331/259/136 333/260/138 332/261/137
f 339/262/144 340/263/145 342/264/147 341/265/146
f 352/266/157 353/267/158 351/268/156 350/269/155
f 347/270/152 350/271/155 351/272/156 348/273/153
f 347/274/152 349/275/154 352/276/157 350/277/155
f 355/278/160 358/279/163 359/280/164 356/281/161
f 357/282/162 358/283/163 355/284/160 354/285/159
f 365/286/170 366/287/171 364/288/169 363/289/168
f 362/273/167 366/290/171 365/291/170 361/292/166
f 360/293/165 361/294/166 365/295/170 363/296/168
f 368/297/329 371/298/176 370/299/175 367/300/172
f 370/301/175 372/302/177 369/303/174 367/304/172
f 330/305/135 347/270/152 348/273/153 331/306/136
f 330/307/135 332/308/137 349/275/154 347/274/152
f 336/309/141 355/278/160 356/281/161 337/310/142
f 354/285/159 355/284/160 336/311/141 335/312/140
f 342/313/147 362/273/167 361/292/166 341/314/146
f 339/315/144 341/316/146 361/294/166 360/293/165
f 345/317/150 368/297/329 367/300/172 344/318/149
f 367/304/172 369/303/174 346/319/151 344/320/149
f 332/308/137 333/321/138 340/322/145 339/315/144
f 329/323/134 338/324/143 340/322/145 333/321/138
f 363/289/168 364/288/169 353/267/158 352/266/157
f 349/275/154 360/293/165 363/296/168 352/276/157
f 336/325/141 337/326/142 345/327/150 344/328/149
f 336/309/141 344/318/149 343/324/148 334/323/139
f 370/329/175 371/330/176 359/331/164 358/332/163
f 359/280/164 371/298/176 368/297/329 356/281/161
f 331/259/136 335/333/140 336/325/141 333/260/138
f 329/334/134 333/335/138 336/311/141 334/336/139
f 340/263/145 344/328/149 346/337/151 342/264/147
f 343/336/148 344/320/149 340/338/145 338/334/143
f 353/267/158 358/332/163 357/339/162 351/268/156
f 348/273/153 351/272/156 357/282/162 354/285/159
f 366/287/171 372/340/177 370/329/175 364/288/169
f 369/303/174 372/302/177 366/290/171 362/273/167
f 329/341/134 334/342/139 343/343/148 338/344/143
f 364/288/169 370/329/175 358/332/163 353/267/158
f 331/306/136 348/273/153 354/285/159 335/312/140
f 346/319/151 369/303/174 362/273/167 342/313/147
f 332/308/137 339/315/144 360/293/165 349/275/154
f 356/281/161 368/297/329 345/317/150 337/310/142
f 373/345/330 377/346/334 378/347/335 374/348/331
f 381/349/338 385/350/342 386/351/343 382/352/339
f 376/353/333 380/354/337 379/346/336 375/345/332
f 384/355/341 388/356/345 387/357/344 383/358/340
f 373/359/330 374/360/331 376/361/333 375/362/332
f 379/362/336 380/363/337 378/364/335 377/359/334
f 381/365/338 382/366/339 384/367/341 383/368/340
f 387/369/344 388/370/345 386/371/343 385/372/342
f 373/373/330 375/374/332 379/375/336 377/376/334
f 386/377/343 388/378/345 384/379/341 382/380/339
f 374/360/331 381/365/338 383/368/340 376/361/333
f 380/363/337 387/369/344 385/372/342 378/364/335
f 374/348/331 378/347/335 385/350/342 381/349/338
f 383/358/340 387/357/344 380/354/337 376/353/333
f 401/381/358 402/382/359 404/383/361 403/384/360
f 407/384/364 408/383/365 406/382/363 405/381/362
f 390/385/347 391/386/348 402/382/359 401/381/358
f 405/381/362 406/382/363 394/386/351 393/385/350
f 396/387/353 397/388/354 410/389/367 409/390/366
f 412/390/369 413/389/370 400/388/357 399/387/356
f 389/391/346 395/392/352 396/387/353 391/386/348
f 402/382/359 409/390/366 411/393/368 404/383/361
f 394/386/351 399/387/356 398/392/355 392/391/349
f 408/383/365 414/393/371 412/390/369 406/382/363
f 390/394/347 393/395/350 394/396/351 391/397/348
f 389/398/346 391/399/348 394/400/351 392/401/349
f 396/402/353 399/403/356 400/404/357 397/405/354
f 398/401/355 399/406/356 396/407/353 395/398/352
f 404/408/361 408/409/365 407/410/364 403/411/360
f 401/412/358 403/413/360 407/414/364 405/415/362
f 410/405/367 413/404/370 412/416/369 409/417/366
f 412/418/369 414/419/371 411/420/368 409/421/366
f 389/422/346 392/423/349 398/424/355 395/425/352
f 411/426/368 414/427/371 408/409/365 404/408/361
f 390/428/347 401/412/358 405/415/362 393/429/350
f 400/430/357 413/431/370 410/432/367 397/433/354
f 391/386/348 396/387/353 409/390/366 402/382/359
f 406/382/363 412/390/369 399/387/356 394/386/351
f 415/434/372 416/435/373 418/436/375 417/437/374
f 417/438/374 418/439/375 422/440/379 421/441/378
f 421/442/378 422/443/379 420/444/377 419/445/376
f 420/446/377 416/447/373 424/448/381 425/449/382
f 417/450/374 421/451/378 419/452/376 415/453/372
f 422/454/379 418/455/375 416/447/373 420/446/377
f 426/456/383 425/457/382 424/458/381 423/459/380
f 419/445/376 420/444/377 425/460/382 426/461/383
f 416/435/373 415/434/372 423/462/380 424/463/381
f 415/453/372 419/452/376 426/464/383 423/465/380
f 427/466/384 428/467/385 430/468/387 429/469/386
f 429/470/386 430/471/387 434/472/391 433/473/390
f 433/474/390 434/475/391 432/476/389 431/477/388
f 432/478/389 428/479/385 436/480/393 437/481/394
f 429/482/386 433/483/390 431/484/388 427/485/384
f 434/486/391 430/487/387 428/479/385 432/478/389
f 438/488/395 437/489/394 436/490/393 435/491/392
f 431/477/388 432/476/389 437/492/394 438/493/395
f 428/467/385 427/466/384 435/494/392 436/495/393
f 427/485/384 431/484/388 438/496/395 435/497/392
f 439/498/396 440/499/397 442/500/399 441/501/398
f 441/502/398 442/503/399 446/504/403 445/505/402
f 445/506/402 446/507/403 444/508/401 443/509/400
f 444/510/401 440/511/397 448/512/405 449/513/406
f 441/514/398 445/515/402 443/516/400 439/517/396
f 446/518/403 442/519/399 440/511/397 444/510/401
f 450/520/407 449/521/406 448/522/405 447/523/404
f 443/509/400 444/508/401 449/524/406 450/525/407
f 440/499/397 439/498/396 447/526/404 448/527/405
f 439/517/396 443/516/400 450/528/407 447/529/404
f 451/530/408 452/531/409 454/532/411 453/533/410
f 453/534/410 454/535/411 458/536/415 457/537/414
f 457/538/414 458/539/415 456/540/413 455/541/412
f 456/542/413 452/543/409 460/544/417 461/545/418
f 453/546/410 457/547/414 455/548/412 451/549/408
f 458/550/415 454/551/411 452/543/409 456/542/413
f 462/552/419 461/553/418 460/554/417 459/555/416
f 455/541/412 456/540/413 461/556/418 462/557/419
f 452/531/409 451/530/408 459/558/416 460/559/417
f 451/549/408 455/548/412 462/560/419 459/561/416
f 463/562/420 464/563/421 466/564/423 465/565/422
f 465/566/422 466/567/423 470/568/427 469/569/426
f 469/565/426 470/564/427 468/563/425 467/562/424
f 468/570/425 464/571/421 472/572/429 473/573/430
f 465/574/422 469/575/426 467/570/424 463/571/420
f 470/575/427 466/574/423 464/571/421 468/570/425
f 474/576/431 473/577/430 472/578/429 471/579/428
f 467/562/424 468/563/425 473/580/430 474/581/431
f 464/563/421 463/562/420 471/581/428 472/580/429
f 463/571/420 467/570/424 474/573/431 471/572/428
f 475/582/432 476/583/433 478/584/435 477/585/434
f 477/586/434 478/587/435 482/588/439 481/589/438
f 481/590/438 482/591/439 480/592/437 479/593/436
f 480/594/437 476/595/433 484/596/441 485/597/442
f 477/598/434 481/599/438 479/600/436 475/601/432
f 482/602/439 478/603/435 476/595/433 480/594/437
f 486/604/443 485/605/442 484/606/441 483/607/440
f 479/593/436 480/592/437 485/608/442 486/609/443
f 476/583/433 475/582/432 483/610/440 484/611/441
f 475/601/432 479/600/436 486/612/443 483/613/440
f 487/562/444 488/563/445 490/564/447 489/565/446
f 489/566/446 490/567/447 494/568/451 493/569/450
f 493/565/450 494/564/451 492/563/449 491/562/448
f 492/570/449 488/571/445 496/572/453 497/573/454
f 489/574/446 493/575/450 491/570/448 487/571/444
f 494/575/451 490/574/447 488/571/445 492/570/449
f 498/576/455 497/577/454 496/578/453 495/579/452
f 491/562/448 492/563/449 497/580/454 498/581/455
f 488/563/445 487/562/444 495/581/452 496/580/453
f 487/571/444 491/570/448 498/573/455 495/572/452
f 499/614/13 500/615/14 502/616/16 501/617/15
f 501/618/15 502/619/16 506/620/20 505/621/19
f 505/622/19 506/623/20 504/624/18 503/625/17
f 504/626/18 500/627/14 508/628/22 509/629/456
f 501/630/15 505/631/19 503/632/17 499/633/13
f 506/634/20 502/635/16 500/627/14 504/626/18
f 510/636/24 509/637/456 508/638/22 507/639/21
f 503/625/17 504/624/18 509/640/456 510/641/24
f 500/615/14 499/614/13 507/642/21 508/643/22
f 499/633/13 503/632/17 510/644/24 507/645/21
f 511/646/13 512/647/14 514/648/16 513/649/15
f 513/650/15 514/651/16 518/652/20 517/653/19
f 517/654/19 518/655/20 516/656/18 515/657/17
f 516/658/18 512/659/14 520/660/22 521/661/456
f 513/662/15 517/663/19 515/664/17 511/665/13
f 518/666/20 514/667/16 512/659/14 516/658/18
f 522/668/24 521/669/456 520/670/22 519/671/21
f 515/657/17 516/656/18 521/672/456 522/673/24
f 512/647/14 511/646/13 519/674/21 520/675/22
f 511/665/13 515/664/17 522/676/24 519/677/21
f 535/678/469 536/679/470 538/680/472 537/681/471
f 541/682/475 542/683/476 540/684/474 539/685/473
f 543/686/477 544/687/478 546/688/480 545/689/479
f 549/690/483 550/691/484 548/692/482 547/693/481
f 524/694/458 525/695/459 536/696/470 535/697/469
f 539/698/473 540/699/474 528/700/462 527/701/461
f 530/702/464 531/703/465 544/704/478 543/705/477
f 547/706/481 548/707/482 534/708/468 533/709/467
f 523/710/457 529/711/463 530/712/464 525/713/459
f 536/714/470 543/715/477 545/716/479 538/717/472
f 528/718/462 533/719/467 532/720/466 526/721/460
f 542/722/476 549/723/483 547/724/481 540/725/474
f 524/726/458 527/727/461 528/728/462 525/729/459
f 523/730/457 525/731/459 528/732/462 526/733/460
f 530/734/464 533/735/467 534/736/468 531/737/465
f 532/738/466 533/739/467 530/740/464 529/741/463
f 538/742/472 542/743/476 541/744/475 537/745/471
f 535/746/469 537/747/471 541/748/475 539/749/473
f 546/750/480 550/751/484 549/752/483 545/753/479
f 548/754/482 550/755/484 546/756/480 544/757/478
f 523/758/457 526/759/460 532/760/466 529/761/463
f 545/762/479 549/763/483 542/764/476 538/765/472
f 524/766/458 535/767/469 539/768/473 527/769/461
f 534/770/468 548/771/482 544/772/478 531/773/465
f 525/774/459 530/775/464 543/776/477 536/777/470
f 540/778/474 547/779/481 533/780/467 528/781/462
f 563/782/497 564/783/498 566/784/500 565/785/499
f 569/786/503 570/787/504 568/788/502 567/789/501
f 552/790/486 553/791/487 564/792/498 563/793/497
f 567/794/501 568/795/502 556/796/490 555/797/489
f 558/798/492 559/799/493 572/800/506 571/801/505
f 574/802/508 575/803/509 562/804/496 561/805/495
f 551/806/485 557/807/491 558/808/492 553/809/487
f 564/810/498 571/811/505 573/812/507 566/813/500
f 556/814/490 561/815/495 560/816/494 554/817/488
f 570/818/504 576/819/510 574/820/508 568/821/502
f 552/822/486 555/823/489 556/824/490 553/825/487
f 551/826/485 553/827/487 556/828/490 554/829/488
f 558/830/492 561/831/495 562/832/496 559/833/493
f 560/834/494 561/835/495 558/836/492 557/837/491
f 566/838/500 570/839/504 569/840/503 565/841/499
f 563/842/497 565/843/499 569/844/503 567/845/501
f 572/846/506 575/847/509 574/848/508 571/849/505
f 574/850/508 576/851/510 573/852/507 571/853/505
f 551/854/485 554/855/488 560/856/494 557/857/491
f 573/858/507 576/859/510 570/860/504 566/861/500
f 552/862/486 563/863/497 567/864/501 555/865/489
f 562/866/496 575/867/509 572/868/506 559/869/493
f 553/870/487 558/871/492 571/872/505 564/873/498
f 568/874/502 574/875/508 561/876/495 556/877/490
f 577/878/511 581/879/515 582/880/516 578/881/512
f 585/882/519 589/883/523 590/884/524 586/885/520
f 580/886/514 584/887/518 583/888/517 579/889/513
f 588/890/522 592/891/526 591/892/525 587/893/521
f 577/894/511 578/895/512 580/896/514 579/897/513
f 583/898/517 584/899/518 582/900/516 581/901/515
f 585/902/519 586/903/520 588/904/522 587/905/521
f 591/906/525 592/907/526 590/908/524 589/909/523
f 577/910/511 579/911/513 583/912/517 581/913/515
f 590/914/524 592/915/526 588/916/522 586/917/520
f 578/918/512 585/919/519 587/920/521 580/921/514
f 584/922/518 591/923/525 589/924/523 582/925/516
f 578/926/512 582/927/516 589/928/523 585/929/519
f 587/930/521 591/931/525 584/932/518 580/933/514
f 593/1/527 594/2/528 596/3/530 595/4/529
f 595/5/529 596/6/530 598/7/532 597/8/531
f 594/10/528 598/9/532 601/9/535 600/10/534
f 597/4/531 598/9/532 594/10/528 593/1/527
f 593/11/527 595/12/529 597/13/531
f 599/934/533 600/935/534 601/936/535
f 598/7/532 596/6/530 599/6/533 601/7/535
f 596/3/530 594/2/528 600/2/534 599/3/533
f 602/1/536 603/2/537 605/3/539 604/4/538
f 604/5/538 605/6/539 607/7/541 606/8/540
f 603/10/537 607/9/541 610/9/544 609/10/543
f 606/4/540 607/9/541 603/10/537 602/1/536
f 602/11/536 604/12/538 606/13/540
f 609/10/543 610/9/544 613/9/547 612/10/546
f 607/7/541 605/6/539 608/6/542 610/7/544
f 605/3/539 603/2/537 609/2/543 608/3/542
f 612/10/546 613/9/547 616/9/550 615/10/549
f 610/7/544 608/6/542 611/6/545 613/7/547
f 608/3/542 609/2/543 612/2/546 611/3/545
f 614/934/548 615/935/549 616/936/550
f 613/7/547 611/6/545 614/6/548 616/7/550
f 611/3/545 612/2/546 615/2/549 614/3/548
f 617/1/551 618/2/552 620/3/554 619/4/553
f 619/5/553 620/6/554 622/7/556 621/8/555
f 618/10/552 622/9/556 625/9/559 624/10/558
f 621/4/555 622/9/556 618/10/552 617/1/551
f 617/11/551 619/12/553 621/13/555
f 624/10/558 625/9/559 628/9/562 627/10/561
f 622/7/556 620/6/554 623/6/557 625/7/559
f 620/3/554 618/2/552 624/2/558 623/3/557
f 627/10/561 628/9/562 631/9/565 630/10/564
f 625/7/559 623/6/557 626/6/560 628/7/562
f 623/3/557 624/2/558 627/2/561 626/3/560
f 629/934/563 630/935/564 631/936/565
f 628/7/562 626/6/560 629/6/563 631/7/565
f 626/3/560 627/2/561 630/2/564 629/3/563
f 632/1/566 633/2/567 635/3/569 634/4/568
f 634/5/568 635/6/569 637/7/571 636/8/570
f 633/10/567 637/9/571 640/9/574 639/10/573
f 636/4/570 637/9/571 633/10/567 632/1/566
f 632/11/566 634/12/568 636/13/570
f 639/10/573 640/9/574 643/9/577 642/10/576
f 637/7/571 635/6/569 638/6/572 640/7/574
f 635/3/569 633/2/567 639/2/573 638/3/572
f 642/10/576 643/9/577 646/9/580 645/10/579
f 640/7/574 638/6/572 641/6/575 643/7/577
f 638/3/572 639/2/573 642/2/576 641/3/575
f 644/934/578 645/935/579 646/936/580
f 643/7/577 641/6/575 644/6/578 646/7/580
f 641/3/575 642/2/576 645/2/579 644/3/578
f 647/1/581 648/2/582 650/3/584 649/4/583
f 649/5/583 650/6/584 652/7/586 651/8/585
f 651/4/585 652/9/586 648/10/582 647/1/581
f 647/11/581 649/12/583 651/13/585
f 648/10/582 652/9/586 655/9/589 654/10/588
f 654/10/588 655/9/589 658/9/592 657/10/591
f 652/7/586 650/6/584 653/6/587 655/7/589
f 650/3/584 648/2/582 654/2/588 653/3/587
f 656/6/590 657/10/591 658/7/592
f 655/7/589 653/6/587 656/6/590 658/7/592
f 653/3/587 654/2/588 657/2/591 656/3/590
f 659/1/593 660/2/594 662/3/596 661/4/595
f 661/5/595 662/6/596 664/7/598 663/8/597
f 663/4/597 664/9/598 660/10/594 659/1/593
f 659/11/593 661/12/595 663/13/597
f 660/10/594 664/9/598 667/9/601 666/10/600
f 666/10/600 667/9/601 670/9/604 669/10/603
f 664/7/598 662/6/596 665/6/599 667/7/601
f 662/3/596 660/2/594 666/2/600 665/3/599
f 668/6/602 669/10/603 670/7/604
f 667/7/601 665/6/599 668/6/602 670/7/604
f 665/3/599 666/2/600 669/2/603 668/3/602
f 671/1/1 672/2/605 674/3/606 673/4/3
f 673/5/3 674/6/606 676/7/607 675/8/5
f 675/4/5 676/9/607 672/10/605 671/1/1
f 671/11/1 673/12/3 675/13/5
f 672/10/605 676/9/607 679/9/610 678/10/609
f 678/10/609 679/9/610 682/9/613 681/10/612
f 676/7/607 674/6/606 677/6/608 679/7/610
f 674/3/606 672/2/605 678/2/609 677/3/608
f 680/6/611 681/10/612 682/7/613
f 679/7/610 677/6/608 680/6/611 682/7/613
f 677/3/608 678/2/609 681/2/612 680/3/611
f 683/1/614 684/2/615 686/3/617 685/4/616
f 685/5/616 686/6/617 688/7/619 687/8/618
f 687/4/618 688/9/619 684/10/615 683/1/614
f 683/11/614 685/12/616 687/13/618
f 684/10/615 688/9/619 691/9/622 690/10/621
f 690/10/621 691/9/622 694/9/625 693/10/624
f 688/7/619 686/6/617 689/6/620 691/7/622
f 686/3/617 684/2/615 690/2/621 689/3/620
f 692/6/623 693/10/624 694/7/625
f 691/7/622 689/6/620 692/6/623 694/7/625
f 689/3/620 690/2/621 693/2/624 692/3/623
f 695/1/626 696/2/627 698/3/629 697/4/628
f 697/5/628 698/6/629 700/7/631 699/8/630
f 699/4/630 700/9/631 696/10/627 695/1/626
f 695/11/626 697/12/628 699/13/630
f 696/10/627 700/9/631 703/9/634 702/10/633
f 702/10/633 703/9/634 706/9/637 705/10/636
f 700/7/631 698/6/629 701/6/632 703/7/634
f 698/3/629 696/2/627 702/2/633 701/3/632
f 704/6/635 705/10/636 706/7/637
f 703/7/634 701/6/632 704/6/635 706/7/637
f 701/3/632 702/2/633 705/2/636 704/3/635
f 707/1/626 708/2/638 710/3/639 709/4/628
f 709/5/628 710/6/639 712/7/640 711/8/630
f 711/4/630 712/9/640 708/10/638 707/1/626
f 707/11/626 709/12/628 711/13/630
f 708/10/638 712/9/640 715/9/643 714/10/642
f 714/10/642 715/9/643 718/9/646 717/10/645
f 712/7/640 710/6/639 713/6/641 715/7/643
f 710/3/639 708/2/638 714/2/642 713/3/641
f 716/6/644 717/10/645 718/7/646
f 715/7/643 713/6/641 716/6/644 718/7/646
f 713/3/641 714/2/642 717/2/645 716/3/644
f 719/1/647 720/2/648 722/3/650 721/4/649
f 721/5/649 722/6/650 724/7/652 723/8/651
f 720/10/648 724/9/652 727/9/655 726/10/654
f 723/4/651 724/9/652 720/10/648 719/1/647
f 719/11/647 721/12/649 723/13/651
f 725/934/653 726/935/654 727/936/655
f 724/7/652 722/6/650 725/6/653 727/7/655
f 722/3/650 720/2/648 726/2/654 725/3/653
f 728/1/656 729/2/657 731/3/659 730/4/658
f 730/5/658 731/6/659 733/7/661 732/8/660
f 732/4/660 733/9/661 729/10/657 728/1/656
f 728/11/656 730/12/658 732/13/660
f 729/10/657 733/9/661 736/9/664 735/10/663
f 735/10/663 736/9/664 739/9/667 738/10/666
f 733/7/661 731/6/659 734/6/662 736/7/664
f 731/3/659 729/2/657 735/2/663 734/3/662
f 737/6/665 738/10/666 739/7/667
f 736/7/664 734/6/662 737/6/665 739/7/667
f 734/3/662 735/2/663 738/2/666 737/3/665
f 740/1/668 741/2/669 743/3/671 742/4/670
f 742/5/670 743/6/671 745/7/673 744/8/672
f 741/10/669 745/9/673 748/9/676 747/10/675
f 744/4/672 745/9/673 741/10/669 740/1/668
f 740/11/668 742/12/670 744/13/672
f 747/10/675 748/9/676 751/9/679 750/10/678
f 745/7/673 743/6/671 746/6/674 748/7/676
f 743/3/671 741/2/669 747/2/675 746/3/674
f 750/10/678 751/9/679 754/9/682 753/10/681
f 748/7/676 746/6/674 749/6/677 751/7/679
f 746/3/674 747/2/675 750/2/678 749/3/677
f 752/934/680 753/935/681 754/936/682
f 751/7/679 749/6/677 752/6/680 754/7/682
f 749/3/677 750/2/678 753/2/681 752/3/680
f 755/1/683 756/2/684 758/3/686 757/4/685
f 757/5/685 758/6/686 760/7/688 759/8/687
f 756/10/684 760/9/688 763/9/691 762/10/690
f 759/4/687 760/9/688 756/10/684 755/1/683
f 755/11/683 757/12/685 759/13/687
f 762/10/690 763/9/691 766/9/694 765/10/693
f 760/7/688 758/6/686 761/6/689 763/7/691
f 758/3/686 756/2/684 762/2/690 761/3/689
f 765/10/693 766/9/694 769/9/697 768/10/696
f 763/7/691 761/6/689 764/6/692 766/7/694
f 761/3/689 762/2/690 765/2/693 764/3/692
f 767/934/695 768/935/696 769/936/697
f 766/7/694 764/6/692 767/6/695 769/7/697
f 764/3/692 765/2/693 768/2/696 767/3/695
f 770/1/698 771/2/699 773/3/701 772/4/700
f 772/5/700 773/6/701 775/7/703 774/8/702
f 774/4/702 775/9/703 771/10/699 770/1/698
f 770/11/698 772/12/700 774/13/702
f 771/10/699 775/9/703 778/9/706 777/10/705
f 777/10/705 778/9/706 781/9/709 780/10/708
f 775/7/703 773/6/701 776/6/704 778/7/706
f 773/3/701 771/2/699 777/2/705 776/3/704
f 779/6/707 780/10/708 781/7/709
f 778/7/706 776/6/704 779/6/707 781/7/709
f 776/3/704 777/2/705 780/2/708 779/3/707
f 782/1/710 783/2/711 785/3/713 784/4/712
f 784/5/712 785/6/713 787/7/715 786/8/714
f 783/10/711 787/9/715 790/9/718 789/10/717
f 786/4/714 787/9/715 783/10/711 782/1/710
f 782/11/710 784/12/712 786/13/714
f 789/10/717 790/9/718 793/9/721 792/10/720
f 787/7/715 785/6/713 788/6/716 790/7/718
f 785/3/713 783/2/711 789/2/717 788/3/716
f 792/10/720 793/9/721 796/9/724 795/10/723
f 790/7/718 788/6/716 791/6/719 793/7/721
f 788/3/716 789/2/717 792/2/720 791/3/719
f 794/934/722 795/935/723 796/936/724
f 793/7/721 791/6/719 794/6/722 796/7/724
f 791/3/719 792/2/720 795/2/723 794/3/722
f 797/1/725 798/2/726 800/3/728 799/4/727
f 799/5/727 800/6/728 802/7/730 801/8/729
f 798/10/726 802/9/730 805/9/733 804/10/732
f 801/4/729 802/9/730 798/10/726 797/1/725
f 797/11/725 799/12/727 801/13/729
f 804/10/732 805/9/733 808/9/736 807/10/735
f 802/7/730 800/6/728 803/6/731 805/7/733
f 800/3/728 798/2/726 804/2/732 803/3/731
f 807/10/735 808/9/736 811/9/739 810/10/738
f 805/7/733 803/6/731 806/6/734 808/7/736
f 803/3/731 804/2/732 807/2/735 806/3/734
f 809/934/737 810/935/738 811/936/739
f 808/7/736 806/6/734 809/6/737 811/7/739
f 806/3/734 807/2/735 810/2/738 809/3/737
f 812/1/740 813/2/741 815/3/743 814/4/742
f 814/5/742 815/6/743 817/7/745 816/8/744
f 816/4/744 817/9/745 813/10/741 812/1/740
f 812/11/740 814/12/742 816/13/744
f 813/10/741 817/9/745 820/9/748 819/10/747
f 819/10/747 820/9/748 823/9/751 822/10/750
f 817/7/745 815/6/743 818/6/746 820/7/748
f 815/3/743 813/2/741 819/2/747 818/3/746
f 821/6/749 822/10/750 823/7/751
f 820/7/748 818/6/746 821/6/749 823/7/751
f 818/3/746 819/2/747 822/2/750 821/3/749
