# Blender 4.5.9 LTS
# www.blender.org
mtllib debris_03.mtl
o debris_03
v -0.757817 0.000000 0.738252
v 0.777382 0.000000 0.575208
v -1.131360 0.000000 -0.279672
v 0.829556 0.000000 -0.412164
v 0.091305 0.000000 0.751295
v -0.427158 0.000000 -0.737266
v -1.198052 0.000000 0.249112
v 0.946948 0.000000 0.106620
v -0.604413 0.053025 0.560835
v 0.558307 0.053025 0.437350
v -0.887325 0.053025 -0.210113
v 0.597822 0.053025 -0.310459
v 0.038690 0.053025 0.570714
v -0.353980 0.053025 -0.556683
v -0.937835 0.053025 0.190374
v 0.686731 0.053025 0.082454
v -0.106313 0.110601 0.066350
v -1.365302 -0.044421 0.286866
v -0.856415 -0.044421 0.852283
v 0.125122 -0.044421 0.867361
v 0.918190 -0.044421 0.663814
v 1.114198 -0.044421 0.122152
v 0.978500 -0.044421 -0.477533
v -0.474192 -0.044421 -0.853333
v -1.288210 -0.044421 -0.324380
v 0.113925 0.043915 -1.470793
v -0.027993 0.031834 -1.311719
v 0.069817 0.028358 -1.160791
v 0.151298 0.028604 -1.104403
v 0.849707 -0.045102 -0.191096
v 0.585554 -0.045102 -0.169717
v 0.563971 -0.045102 -0.274794
v 0.638291 -0.045102 -0.389860
v 0.805675 -0.045102 -0.418695
v 0.546670 0.005859 -0.297065
v 0.530840 -0.020311 -0.441499
v 0.464166 -0.036406 -0.548745
v 0.340407 -0.033812 -0.574960
v 0.308228 -0.008945 -0.452992
v 0.268274 0.011100 -0.359205
v 0.261487 0.027707 -0.272996
v 0.352886 0.030645 -0.227795
v 0.195869 -0.045102 0.996122
v 0.207382 -0.045102 0.792179
v 0.460396 -0.045102 0.808979
v 0.426706 -0.045102 0.926321
v 0.378701 -0.045102 0.939617
v 0.341764 -0.045102 0.991263
v 0.275066 -0.045102 0.985815
v -0.029701 0.093533 0.066719
v -0.140289 0.095492 0.072264
v -0.211163 0.094839 0.044420
v -0.216434 0.088464 -0.061747
v -0.191494 0.084011 -0.128999
v -0.037993 0.083719 -0.096769
v -0.395045 0.025541 0.665239
v -0.620606 0.025541 0.637417
v -0.606970 0.025541 0.470585
v -0.520311 0.025541 0.466512
v -0.487568 0.025541 0.425145
v -0.420155 0.025541 0.397764
v -0.363136 0.025541 0.461736
v -0.790589 -0.045102 1.100344
v -1.084960 -0.045102 1.152624
v -1.116758 -0.045102 0.995581
v -1.004667 -0.045102 0.938972
v -0.945511 -0.045102 0.969646
v -0.816870 -0.045102 0.990729
v -1.313146 -0.045102 0.560245
v -1.470041 -0.045102 0.748251
v -1.517400 -0.045102 0.767285
v -1.649770 -0.045102 0.662513
v -1.657430 -0.045102 0.583783
v -1.408242 -0.045102 0.272362
v -1.359844 -0.045102 0.326819
v -1.366936 -0.045102 0.420784
v -1.220170 -0.045102 0.057825
v -1.478114 -0.045102 0.052465
v -1.231381 -0.045102 0.113625
v -1.480737 -0.045102 0.075042
v -1.474741 -0.045102 0.023272
v -1.347426 -0.045102 -0.147779
v -1.182866 -0.045102 -0.127871
v -0.590678 0.066077 -0.043529
v -0.646834 0.062667 -0.033019
v -0.826740 0.049491 -0.132191
v -0.773958 0.051289 -0.225239
v -0.706709 0.055585 -0.225319
v -0.569170 0.065587 -0.153719
v -0.980528 0.002722 -0.138680
v -1.100387 0.002722 -0.212336
v -0.893465 0.002722 -0.530038
v -0.760833 0.002722 -0.499296
v 0.146548 -0.045102 -1.104408
v 0.066629 -0.045102 -1.162988
v -0.026976 -0.045102 -1.316599
v 0.119432 -0.045102 -1.472019
v 0.194146 -0.045102 -1.424576
v 0.306434 -0.045102 -1.256178
v 0.300514 -0.045102 -1.183681
v 0.352369 -0.045102 -0.669038
v 0.200548 -0.045102 -0.728396
v 0.067661 -0.045102 -0.782125
v 0.155588 -0.045102 -1.002546
v 0.405545 -0.045102 -0.907609
v 0.414661 -0.045102 -0.806842
v 0.002104 0.064187 -0.309130
v -0.062671 0.066687 -0.327566
v -0.046207 0.034965 -0.477092
v -0.003665 0.034839 -0.457465
v 0.059856 0.024677 -0.477635
v 0.092915 0.027434 -0.448220
v 0.063329 0.045580 -0.372290
v -0.025213 -0.045102 0.931919
v 0.046266 -0.045102 0.999455
v 0.018869 -0.045102 1.047911
v -0.156926 -0.045102 1.051243
v -0.249640 -0.045102 0.980050
v -0.115678 -0.045102 0.827435
v -0.446043 -0.045102 -1.251736
v -0.436940 -0.045102 -1.332053
v -0.122911 -0.045102 -1.121392
v -0.156129 -0.045102 -1.084144
v -0.303708 -0.045102 -1.124337
v -0.319351 -0.045102 -1.446934
v -0.163236 -0.045102 -1.351400
v -0.205651 -0.045102 -1.276582
v -0.140721 -0.045102 -1.202765
v -0.484197 -0.045102 -1.285884
v 0.189892 0.044468 -1.425388
v 0.306781 0.041002 -1.260188
v 0.302895 0.037582 -1.187634
v -0.436503 0.023137 -1.252098
v -0.427866 0.023137 -1.328298
v -0.129932 0.023137 -1.128434
v -0.161448 0.023137 -1.093096
v -0.301463 0.023137 -1.131229
v -0.316304 0.023137 -1.437291
v -0.168191 0.023137 -1.346653
v -0.208432 0.023137 -1.275670
v -0.146830 0.023137 -1.205636
v -0.472701 0.023137 -1.284495
v -0.983222 0.092613 -0.141907
v -1.100757 0.088924 -0.216578
v -0.891019 0.073796 -0.527575
v -0.760178 0.075425 -0.495144
v -1.220170 0.047395 0.057825
v -1.478114 0.047395 0.052465
v -1.231381 0.047395 0.113625
v -1.480737 0.047395 0.075042
v -1.474741 0.047395 0.023272
v -1.347426 0.047395 -0.147779
v -1.182866 0.047395 -0.127871
v -1.313312 0.067561 0.560966
v -1.471160 0.072676 0.748102
v -1.518614 0.073439 0.766882
v -1.650443 0.072300 0.661437
v -1.657701 0.070730 0.582684
v -1.406934 0.062341 0.272647
v -1.358816 0.063092 0.327347
v -1.366387 0.065093 0.421253
v -0.790589 0.038143 1.100344
v -1.084960 0.038143 1.152624
v -1.116758 0.038143 0.995581
v -1.004667 0.038143 0.938972
v -0.945511 0.038143 0.969646
v -0.816870 0.038143 0.990729
v -0.393293 0.096649 0.663907
v -0.619106 0.089173 0.639329
v -0.608037 0.094230 0.472383
v -0.521507 0.097506 0.467071
v -0.489423 0.099832 0.425256
v -0.422482 0.103042 0.396923
v -0.364526 0.103376 0.460047
v -0.025213 0.030933 0.931919
v 0.046266 0.030933 0.999455
v 0.018869 0.030933 1.047911
v -0.156926 0.030933 1.051243
v -0.249640 0.030933 0.980050
v -0.115678 0.030933 0.827435
v -0.595680 0.144344 -0.044854
v -0.651835 0.140934 -0.034344
v -0.831741 0.127758 -0.133516
v -0.778960 0.129556 -0.226564
v -0.711711 0.133852 -0.226643
v -0.574172 0.143854 -0.155044
v -0.028903 0.147930 0.063413
v -0.139492 0.149889 0.068958
v -0.210365 0.149236 0.041114
v -0.215636 0.142861 -0.065053
v -0.190696 0.138408 -0.132305
v -0.037195 0.138115 -0.100075
v 0.008757 0.107373 -0.323004
v -0.053725 0.107613 -0.338623
v -0.041009 0.090170 -0.483949
v 0.000182 0.090860 -0.466411
v 0.060669 0.086313 -0.488124
v 0.092969 0.088446 -0.460784
v 0.066161 0.098063 -0.386257
v 0.544703 0.106615 -0.322299
v 0.528774 0.085532 -0.458789
v 0.465186 0.072090 -0.559519
v 0.348362 0.073131 -0.582932
v 0.318887 0.092768 -0.467159
v 0.281887 0.108481 -0.377964
v 0.276092 0.121718 -0.296314
v 0.362550 0.124835 -0.254572
v 0.849707 0.064087 -0.191096
v 0.585554 0.064087 -0.169717
v 0.563971 0.064087 -0.274794
v 0.638291 0.064087 -0.389860
v 0.805675 0.064087 -0.418695
v 0.195869 0.055235 0.996122
v 0.207382 0.055235 0.792179
v 0.460396 0.055235 0.808979
v 0.426706 0.055235 0.926321
v 0.378701 0.055235 0.939617
v 0.341764 0.055235 0.991263
v 0.275066 0.055235 0.985815
v 0.352369 0.070914 -0.669038
v 0.200548 0.070914 -0.728396
v 0.067661 0.070914 -0.782125
v 0.155588 0.070914 -1.002546
v 0.405545 0.070914 -0.907609
v 0.414661 0.070914 -0.806842
v 1.177634 0.043915 -0.551735
v 0.964826 0.031834 -0.564287
v 0.907186 0.028358 -0.393923
v 0.913540 0.028604 -0.295038
v 0.630867 -0.045102 0.819413
v 0.450162 -0.045102 0.625558
v 0.519158 -0.045102 0.543420
v 0.655507 -0.045102 0.530282
v 0.782000 -0.045102 0.643632
v 0.530623 0.022238 0.510134
v 0.634120 0.015332 0.405075
v 0.676182 0.016651 0.284929
v 0.618395 0.029588 0.173109
v 0.502147 0.040766 0.226880
v 0.403123 0.051147 0.256558
v 0.331065 0.057175 0.306807
v 0.353431 0.049189 0.406012
v 0.998400 -0.045102 0.636340
v 1.083347 -0.045102 0.450573
v 1.312896 -0.045102 0.558305
v 1.238810 -0.045102 0.655339
v 1.189259 -0.045102 0.650252
v 1.136058 -0.045102 0.684913
v 1.075917 -0.045102 0.655564
v -0.144573 0.059373 0.443997
v -0.216479 0.069553 0.360389
v -0.237668 0.076546 0.287582
v -0.156715 0.078620 0.218430
v -0.088171 0.077310 0.196873
v -0.020017 0.062584 0.337370
v -0.814392 0.041878 0.374119
v -0.931397 0.045692 0.179320
v -0.791576 0.045391 0.087293
v -0.734994 0.043920 0.153040
v -0.682241 0.043347 0.153348
v -0.619152 0.042193 0.189580
v -0.634428 0.041252 0.273897
v -1.399773 -0.045102 0.334756
v -1.623461 -0.045102 0.136384
v -1.520058 -0.045102 0.013986
v -1.406103 -0.045102 0.066744
v -1.393441 -0.045102 0.132165
v -1.330135 -0.045102 0.246118
v -1.300593 -0.045102 -0.410185
v -1.545384 -0.045102 -0.416525
v -1.589701 -0.045102 -0.441846
v -1.589701 -0.045102 -0.610662
v -1.532722 -0.045102 -0.665531
v -1.133883 -0.045102 -0.663419
v -1.146546 -0.045102 -0.591672
v -1.224625 -0.045102 -0.538915
v -0.848940 -0.045102 -0.649099
v -1.004825 -0.045102 -0.854680
v -0.899651 -0.045102 -0.623258
v -1.024155 -0.045102 -0.842725
v -0.979841 -0.045102 -0.870153
v -0.766704 -0.045102 -0.876485
v -0.680183 -0.045102 -0.735097
v -0.376386 0.056072 -0.217015
v -0.420006 0.050753 -0.253683
v -0.456895 0.030608 -0.455198
v -0.351499 0.033665 -0.473350
v -0.308946 0.040327 -0.421526
v -0.277478 0.055629 -0.270136
v -0.452538 -0.045102 -0.657232
v -0.469172 -0.045102 -0.796926
v -0.091639 -0.045102 -0.831853
v -0.033429 -0.045102 -0.708776
v 0.910597 -0.045102 -0.298765
v 0.906929 -0.045102 -0.397787
v 0.969282 -0.045102 -0.566518
v 1.182014 -0.045102 -0.548177
v 1.191182 -0.045102 -0.460150
v 1.128831 -0.045102 -0.267591
v 1.068312 -0.045102 -0.227239
v 1.387230 -0.045102 0.407129
v 1.267424 -0.045102 0.296586
v 1.163204 -0.045102 0.198179
v 1.325323 -0.045102 0.024875
v 1.523586 -0.045102 0.204272
v 1.495403 -0.045102 0.301446
v 0.087608 0.089342 -0.043596
v 0.060158 0.092338 -0.105072
v 0.188613 0.083424 -0.189068
v 0.200719 0.081854 -0.143834
v 0.257768 0.076895 -0.108257
v 0.256019 0.076423 -0.063956
v 0.177034 0.082251 -0.037546
v -0.792695 -0.045102 0.830361
v -0.801289 -0.045102 0.928322
v -0.856286 -0.045102 0.936913
v -0.968002 -0.045102 0.801140
v -0.969721 -0.045102 0.684258
v -0.766915 -0.045102 0.694581
v 0.632008 -0.045102 -0.854855
v 0.700635 -0.045102 -0.897564
v 0.730350 -0.045102 -0.520590
v 0.680528 -0.045102 -0.523519
v 0.620452 -0.045102 -0.664182
v 0.863693 -0.045102 -0.876661
v 0.885673 -0.045102 -0.694959
v 0.800685 -0.045102 -0.681783
v 0.783102 -0.045102 -0.585058
v 0.635105 -0.045102 -0.905965
v 1.189179 0.044468 -0.463989
v 1.132190 0.041002 -0.269808
v 1.072888 0.037582 -0.227826
v 0.638213 0.023137 -0.847599
v 0.703322 0.023137 -0.888118
v 0.731514 0.023137 -0.530466
v 0.684246 0.023137 -0.533246
v 0.627249 0.023137 -0.666699
v 0.858022 0.023137 -0.868286
v 0.878876 0.023137 -0.695898
v 0.798244 0.023137 -0.683397
v 0.781562 0.023137 -0.591630
v 0.641151 0.023137 -0.896089
v -0.451680 0.044788 -0.661346
v -0.466076 0.041100 -0.799849
v -0.092052 0.025972 -0.828406
v -0.036278 0.027601 -0.705686
v -0.848940 0.047395 -0.649099
v -1.004825 0.047395 -0.854680
v -0.899651 0.047395 -0.623258
v -1.024155 0.047395 -0.842725
v -0.979841 0.047395 -0.870153
v -0.766704 0.047395 -0.876485
v -0.680183 0.047395 -0.735097
v -1.301262 0.067561 -0.409867
v -1.545961 0.072676 -0.417494
v -1.590138 0.073439 -0.443048
v -1.589275 0.072300 -0.611858
v -1.532029 0.070730 -0.666426
v -1.133294 0.062341 -0.662216
v -1.146321 0.063092 -0.590539
v -1.224652 0.065093 -0.538194
v -1.399773 0.038143 0.334756
v -1.623461 0.038143 0.136384
v -1.520058 0.038143 0.013986
v -1.406103 0.038143 0.066744
v -1.393441 0.038143 0.132165
v -1.330135 0.038143 0.246118
v -0.811497 0.112945 0.375611
v -0.931293 0.109290 0.182512
v -0.792909 0.114089 0.088460
v -0.735396 0.115895 0.153386
v -0.682670 0.117659 0.152929
v -0.619088 0.119721 0.188245
v -0.633115 0.119098 0.272781
v -0.792695 0.030933 0.830361
v -0.801289 0.030933 0.928322
v -0.856286 0.030933 0.936913
v -0.968002 0.030933 0.801140
v -0.969721 0.030933 0.684258
v -0.766915 0.030933 0.694581
v -0.379883 0.134104 -0.224176
v -0.423503 0.128785 -0.260843
v -0.460392 0.108640 -0.462358
v -0.354996 0.111697 -0.480510
v -0.312442 0.118360 -0.428686
v -0.280975 0.133661 -0.277296
v -0.142121 0.113634 0.448495
v -0.214027 0.123814 0.364887
v -0.235217 0.130807 0.292080
v -0.154263 0.132882 0.222928
v -0.085719 0.131572 0.201371
v -0.017565 0.116845 0.341868
v 0.096590 0.134293 -0.044322
v 0.068757 0.134718 -0.102401
v 0.189720 0.139180 -0.185669
v 0.202447 0.138678 -0.142744
v 0.257989 0.139394 -0.110105
v 0.257420 0.138584 -0.067745
v 0.182412 0.136278 -0.040654
v 0.542713 0.125309 0.505379
v 0.639683 0.122451 0.405797
v 0.678478 0.125404 0.292409
v 0.622984 0.136054 0.187509
v 0.513558 0.142675 0.238888
v 0.420218 0.149171 0.267472
v 0.352523 0.152377 0.315249
v 0.374445 0.145285 0.408502
v 0.630867 0.064087 0.819413
v 0.450162 0.064087 0.625558
v 0.519158 0.064087 0.543420
v 0.655507 0.064087 0.530282
v 0.782000 0.064087 0.643632
v 0.998400 0.055235 0.636340
v 1.083347 0.055235 0.450573
v 1.312896 0.055235 0.558305
v 1.238810 0.055235 0.655339
v 1.189259 0.055235 0.650252
v 1.136058 0.055235 0.684913
v 1.075917 0.055235 0.655564
v 1.387230 0.070914 0.407129
v 1.267424 0.070914 0.296586
v 1.163204 0.070914 0.198179
v 1.325323 0.070914 0.024875
v 1.523586 0.070914 0.204272
v 1.495403 0.070914 0.301446
vn 0.1582 0.9602 0.2300
vn 0.0360 0.9368 0.3480
vn 0.0451 0.9373 0.3456
vn 0.1878 0.9646 0.1851
vn -0.2209 0.9590 -0.1777
vn -0.0271 0.9372 -0.3477
vn -0.0679 0.9407 -0.3325
vn -0.2355 0.9630 -0.1307
vn 0.1712 0.9513 -0.2563
vn 0.2104 0.9620 -0.1743
vn -0.2381 0.9676 0.0836
vn -0.2409 0.9679 0.0715
vn 0.1471 0.9891 0.0082
vn 0.1081 0.9825 -0.1518
vn 0.0027 1.0000 0.0044
vn -0.0616 0.9834 0.1707
vn 0.0219 0.9797 0.1992
vn 0.0999 0.9856 0.1365
vn 0.1640 0.9771 -0.1357
vn -0.0536 0.9638 -0.2613
vn -0.0194 0.9786 -0.2047
vn -0.1835 0.9778 -0.1017
vn -0.1321 0.9860 -0.1015
vn 0.0356 0.9616 0.2720
vn 0.1463 0.9787 0.1440
vn 0.1985 0.9800 0.0132
vn -0.1043 0.9740 0.2009
vn -0.1873 0.9807 0.0555
vn -0.1420 0.9887 0.0482
vn 0.2554 0.9667 0.0141
vn 0.2552 0.9667 0.0170
vn -0.0951 0.9526 0.2889
vn -0.1335 0.9570 0.2574
vn 0.5195 0.0968 -0.8490
vn -0.1209 0.1442 -0.9821
vn -0.0765 0.6451 -0.7603
vn 0.3499 0.7420 -0.5718
vn -0.0000 -1.0000 -0.0000
vn 0.9543 0.1261 0.2708
vn 0.8960 0.0617 -0.4398
vn 0.6525 0.6769 -0.3405
vn 0.7277 0.6636 0.1735
vn 0.2922 0.1467 0.9450
vn 0.2039 0.6601 0.7230
vn -0.0596 -0.9811 0.1843
vn -0.6928 0.1311 -0.7091
vn -0.4606 0.7520 -0.4715
vn -0.7718 0.6353 0.0265
vn -0.4482 0.7405 0.5008
vn -0.0146 -0.9981 0.0607
vn -0.3444 0.6968 0.6292
vn -0.0000 1.0000 -0.0000
vn -0.7316 0.0027 0.6817
vn -0.0864 0.0121 0.9962
vn -0.0460 0.5910 0.8054
vn -0.5485 0.6457 0.5312
vn -0.1126 0.0179 -0.9935
vn -0.9933 -0.0105 -0.1151
vn -0.9964 -0.0107 -0.0842
vn -0.1471 0.0169 -0.9890
vn 0.9668 -0.0056 -0.2553
vn 0.6931 0.0167 -0.7207
vn 0.6848 0.0175 -0.7286
vn 0.9600 -0.0050 -0.2800
vn 0.0638 -0.9978 0.0169
vn 0.8299 -0.0067 0.5579
vn 0.8577 -0.0074 0.5140
vn -0.0937 -0.9760 0.1967
vn -0.0343 0.9984 0.0452
vn -0.4727 0.1039 0.8751
vn -0.6638 0.0967 0.7416
vn 0.9942 0.0418 -0.0992
vn 0.8696 0.0288 0.4930
vn 0.9935 0.0419 -0.1058
vn -0.0003 0.9988 -0.0488
vn 0.1730 0.6351 -0.7528
vn -0.2870 0.5869 -0.7571
vn -0.5300 0.0267 0.8476
vn 0.8499 0.0077 0.5269
vn -0.3731 0.0269 -0.9274
vn -0.8335 0.0047 -0.5525
vn 0.2327 0.0397 -0.9717
vn -0.3943 -0.0000 -0.9190
vn -0.9296 -0.0000 -0.3685
vn 0.9804 -0.0000 0.1970
vn -0.1529 -0.0000 0.9882
vn 0.1201 -0.0000 -0.9928
vn -0.9934 -0.0000 -0.1151
vn -0.9933 -0.0000 -0.1154
vn 0.0079 0.9998 -0.0207
vn 0.9477 -0.0072 -0.3192
vn 0.7492 -0.0056 -0.6624
vn 0.9502 -0.0072 -0.3116
vn -0.9584 -0.0010 -0.2855
vn -0.8779 -0.0017 0.4788
vn -0.8788 -0.0017 0.4772
vn -0.9587 -0.0010 -0.2842
vn -0.1424 0.0033 0.9898
vn 0.5869 0.0044 0.8097
vn 0.5828 0.0044 0.8126
vn -0.1507 0.0033 0.9886
vn 0.9898 -0.0037 -0.1426
vn 0.9892 -0.0037 -0.1467
vn -0.7792 0.0013 -0.6268
vn 0.9866 0.0017 0.1634
vn 0.9847 0.0017 0.1744
vn 0.0054 -0.0000 -1.0000
vn -0.8997 -0.0000 -0.4365
vn 0.1749 -0.0000 0.9846
vn 0.9724 -0.0000 -0.2332
vn 0.6809 -0.0000 -0.7324
vn 0.3150 -0.0000 -0.9491
vn -0.9801 -0.0000 0.1985
vn -0.0361 0.9990 0.0279
vn -0.1153 -0.0015 0.9933
vn 0.9592 0.0040 -0.2828
vn 0.2308 -0.0048 -0.9730
vn 0.2187 -0.0050 -0.9758
vn 0.9538 0.0042 -0.3005
vn -0.6029 -0.0148 -0.7977
vn -0.4674 0.0011 -0.8841
vn -0.4693 0.0010 -0.8830
vn -0.6024 -0.0148 -0.7981
vn -0.6913 0.0142 -0.7224
vn -0.9973 0.0053 -0.0737
vn -0.6955 0.0142 -0.7184
vn 0.9891 0.0006 0.1473
vn 0.5121 -0.0000 0.8590
vn 0.9888 -0.0000 -0.1490
vn -0.7515 -0.0000 -0.6597
vn -0.3126 -0.0000 0.9499
vn 0.7223 -0.0000 -0.6916
vn 0.7560 -0.0000 -0.6546
vn -0.6090 -0.0000 0.7931
vn -0.0638 0.9978 -0.0169
vn 0.8991 0.0501 -0.4348
vn 0.2372 -0.0013 -0.9715
vn -0.5018 -0.0467 -0.8637
vn -0.8675 -0.0638 -0.4933
vn -0.1591 0.0065 0.9872
vn 0.7023 0.0569 0.7096
vn -0.4818 -0.0160 0.8761
vn 0.0146 0.9981 -0.0607
vn 0.7599 -0.0505 -0.6480
vn -0.4837 -0.0460 -0.8740
vn -0.9883 0.0052 -0.1525
vn -0.8120 0.0473 0.5817
vn -0.1608 0.0622 0.9850
vn 0.0510 0.0598 0.9969
vn 0.9986 -0.0177 -0.0496
vn 0.0329 0.9927 -0.1163
vn -0.7116 0.6848 -0.1571
vn -0.6019 0.7225 0.3401
vn 0.2745 0.7317 0.6239
vn 0.6488 0.7042 0.2884
vn 0.2643 0.2597 0.9288
vn 0.8518 0.0905 0.5160
vn 0.9708 -0.0518 -0.2341
vn 0.2102 -0.1649 -0.9637
vn 0.1778 -0.1648 -0.9702
vn 0.9597 -0.0594 -0.2748
vn 0.0318 -0.1620 -0.9863
vn 0.4013 -0.1608 -0.9017
vn 0.0296 -0.1620 -0.9864
vn -0.8047 0.2870 0.5197
vn -0.9854 0.1230 -0.1180
vn 0.1641 0.6117 -0.7739
vn -0.6320 0.6988 -0.3351
vn -0.6609 0.6955 -0.2819
vn -0.6345 0.7272 0.2618
vn 0.0037 0.7815 0.6239
vn 0.6967 0.6538 0.2953
vn 0.0403 0.9868 -0.1571
vn 0.4596 0.5289 -0.7135
vn -0.9652 0.0871 -0.2465
vn -0.8529 0.2462 0.4605
vn -0.9636 0.0583 -0.2608
vn -0.9434 0.0527 -0.3274
vn 0.9451 -0.0348 -0.3250
vn 0.5698 -0.0859 -0.8173
vn 0.9439 -0.0353 -0.3285
vn -0.0483 0.2788 0.9591
vn 0.1998 -0.0932 -0.9754
vn 0.8511 0.1424 0.5053
vn -0.9829 -0.0000 -0.1844
vn -0.6002 -0.0000 0.7999
vn 0.9818 -0.0000 -0.1899
vn -0.5513 -0.0000 -0.8343
vn 0.0807 -0.0000 0.9967
vn -0.1698 -0.0000 -0.9855
vn 0.1291 -0.0000 0.9916
vn 0.0240 -0.0000 0.9997
vn 0.4207 -0.0000 0.9072
vn 0.5729 -0.0000 0.8196
vn 0.7038 -0.0000 0.7104
vn 0.9612 -0.0000 0.2760
vn -0.9984 -0.0000 -0.0564
vn 0.0663 -0.0000 -0.9978
vn 0.9112 -0.0000 0.4119
vn 0.9861 -0.0000 0.1664
vn 0.7967 -0.0000 -0.6044
vn 0.3551 -0.0000 -0.9348
vn -0.3748 -0.0000 0.9271
vn -0.3695 -0.0000 0.9292
vn -0.9288 -0.0000 -0.3705
vn -0.3641 -0.0000 0.9313
vn 0.9881 0.0968 -0.1195
vn 0.6951 0.1442 -0.7043
vn 0.5487 0.6451 -0.5318
vn 0.6655 0.7420 -0.0805
vn 0.3800 0.1261 0.9164
vn 0.9009 0.0617 0.4296
vn 0.6720 0.6769 0.3003
vn 0.3156 0.6635 0.6783
vn -0.5597 0.1467 0.8156
vn -0.4403 0.6601 0.6086
vn -0.1198 -0.9914 -0.0528
vn 0.1261 0.1311 -0.9833
vn 0.0838 0.7520 -0.6538
vn -0.4998 0.6353 -0.5888
vn -0.6708 0.7405 -0.0406
vn -0.0450 -0.9956 -0.0825
vn -0.0108 -0.9999 -0.0131
vn -0.7071 0.6968 0.1204
vn -0.9886 0.0027 -0.1506
vn -0.8348 0.0121 0.5505
vn -0.6601 0.5910 0.4637
vn -0.7570 0.6457 -0.1004
vn 0.7091 0.0179 -0.7049
vn -0.5262 -0.0105 -0.8503
vn -0.5524 -0.0107 -0.8335
vn 0.6842 0.0169 -0.7291
vn 0.8003 -0.0056 0.5996
vn 0.9952 0.0167 0.0962
vn 0.9962 0.0175 0.0848
vn 0.8153 -0.0050 0.5790
vn 0.0446 -0.9948 0.0913
vn 0.0776 -0.0067 0.9970
vn 0.1293 -0.0074 0.9916
vn -0.0781 -0.9968 -0.0137
vn -0.0567 0.9984 0.0012
vn -0.9795 0.1039 0.1725
vn -0.9935 0.0967 -0.0602
vn 0.6948 0.0418 0.7180
vn 0.1531 0.0288 0.9878
vn 0.6996 0.0419 0.7133
vn 0.0381 0.9988 -0.0306
vn 0.6977 0.6351 -0.3316
vn 0.4156 0.5869 -0.6949
vn -0.9935 0.0267 0.1105
vn 0.1143 0.0077 0.9934
vn 0.4956 0.0269 -0.8681
vn -0.0841 0.0048 -0.9964
vn 0.9064 0.0397 -0.4206
vn 0.4759 -0.0000 -0.8795
vn -0.2880 -0.0000 -0.9576
vn 0.4540 -0.0000 0.8910
vn -0.8698 -0.0000 0.4934
vn 0.8530 -0.0000 -0.5220
vn -0.5263 -0.0000 -0.8503
vn -0.5260 -0.0000 -0.8505
vn 0.0211 0.9998 -0.0066
vn 0.8384 -0.0072 0.5449
vn 0.9843 -0.0056 0.1763
vn 0.8340 -0.0072 0.5517
vn -0.3710 -0.0010 -0.9286
vn -0.9203 -0.0017 -0.3912
vn -0.9196 -0.0017 -0.3929
vn -0.3721 -0.0010 -0.9282
vn -0.8645 0.0033 0.5026
vn -0.2706 0.0044 0.9627
vn -0.2755 0.0044 0.9613
vn -0.8686 0.0033 0.4954
vn 0.7261 -0.0037 0.6876
vn 0.7289 -0.0037 0.6846
vn 0.0079 0.0013 -1.0000
vn 0.4842 0.0017 0.8750
vn 0.4743 0.0017 0.8803
vn 0.7874 -0.0000 -0.6164
vn -0.2161 -0.0000 -0.9764
vn -0.6635 -0.0000 0.7482
vn 0.7863 -0.0000 0.6178
vn 0.9968 -0.0000 0.0793
vn 0.9397 -0.0000 -0.3421
vn -0.7639 -0.0000 -0.6453
vn -0.0334 0.9994 0.0018
vn -0.8535 0.0009 0.5211
vn 0.8136 -0.0123 0.5813
vn 0.9086 -0.0091 -0.4176
vn 0.9033 -0.0091 -0.4288
vn 0.8242 -0.0121 0.5662
vn 0.2569 -0.0049 -0.9664
vn 0.4086 0.0086 -0.9127
vn 0.4066 0.0086 -0.9136
vn 0.2575 -0.0049 -0.9663
vn 0.1435 0.0256 -0.9893
vn -0.5561 0.0222 -0.8308
vn 0.1378 0.0257 -0.9901
vn 0.4931 -0.0161 0.8698
vn -0.3557 -0.0000 0.9346
vn 0.7305 -0.0000 0.6829
vn 0.0508 -0.0000 -0.9987
vn -0.9388 -0.0000 0.3444
vn 0.9906 -0.0000 0.1371
vn 0.9824 -0.0000 0.1865
vn -0.9999 -0.0000 0.0147
vn -0.0446 0.9948 -0.0913
vn 0.9048 0.0789 0.4185
vn 0.9021 0.0008 -0.4316
vn 0.3516 -0.0699 -0.9335
vn -0.1662 -0.0975 -0.9813
vn -0.8649 0.0073 0.5019
vn -0.1057 0.0862 0.9907
vn -0.9828 -0.0273 0.1826
vn 0.0450 0.9956 0.0825
vn 0.9777 -0.0608 0.2011
vn 0.3977 0.0579 -0.9157
vn -0.4824 0.0940 -0.8709
vn -0.9569 0.0667 -0.2826
vn -0.8791 0.0002 0.4766
vn -0.7592 -0.0196 0.6506
vn 0.6489 -0.0919 0.7553
vn -0.0239 0.9995 0.0188
vn -0.4243 0.6762 -0.6023
vn -0.7380 0.6443 -0.2006
vn -0.3985 0.6412 0.6558
vn 0.0982 0.6758 0.7305
vn -0.5735 0.1296 0.8089
vn 0.1364 0.0425 0.9897
vn 0.8016 0.0156 0.5977
vn 0.8886 -0.0148 -0.4584
vn 0.8730 -0.0149 -0.4875
vn 0.8265 0.0138 0.5628
vn 0.7922 -0.0147 -0.6101
vn 0.9624 -0.0134 -0.2714
vn 0.7908 -0.0147 -0.6119
vn -0.9449 0.1806 -0.2729
vn -0.5525 0.1058 -0.8267
vn 0.6649 0.6935 -0.2774
vn -0.1815 0.7703 -0.6113
vn -0.2407 0.7620 -0.6011
vn -0.6471 0.7237 -0.2396
vn -0.5291 0.6956 0.4861
vn 0.1697 0.5707 0.8034
vn 0.0862 0.9947 0.0554
vn 0.8093 0.5870 -0.0212
vn -0.4222 0.1724 -0.8899
vn -0.9088 0.2349 -0.3449
vn -0.4084 0.1456 -0.9011
vn -0.3437 0.1472 -0.9275
vn 0.8489 -0.0478 0.5264
vn 0.9970 -0.0152 -0.0760
vn 0.8509 -0.0478 0.5232
vn -0.7904 0.1587 0.5917
vn 0.8869 0.0186 -0.4616
vn 0.1358 0.0290 0.9903
vn -0.4654 -0.0000 -0.8851
vn -0.9997 -0.0000 0.0258
vn 0.7583 -0.0000 0.6519
vn 0.3120 -0.0000 -0.9501
vn -0.7315 -0.0000 0.6819
vn 0.6674 -0.0000 -0.7447
vn -0.2407 -0.0000 0.9706
vn -0.3415 -0.0000 0.9399
vn 0.0617 -0.0000 0.9981
vn 0.2353 -0.0000 0.9719
vn 0.3970 -0.0000 0.9178
vn 0.7948 -0.0000 0.6068
vn -0.9094 -0.0000 -0.4159
vn 0.4249 -0.0000 -0.9053
vn 0.6988 -0.0000 0.7153
vn 0.8579 -0.0000 0.5138
vn 0.9620 -0.0000 -0.2730
vn 0.6709 -0.0000 -0.7415
vn -0.6865 -0.0000 0.7271
vn -0.6823 -0.0000 0.7310
vn -0.7303 -0.0000 -0.6831
vn -0.6781 -0.0000 0.7350
vt 0.683249 0.346248
vt 0.544011 0.298600
vt 0.550874 0.267192
vt 0.711825 0.322272
vt 0.295873 0.577576
vt 0.438790 0.701400
vt 0.429244 0.732808
vt 0.264041 0.589674
vt 0.693837 0.613428
vt 0.724065 0.631117
vt 0.282338 0.434489
vt 0.248395 0.424273
vt 0.664851 0.479586
vt 0.646807 0.585907
vt 0.503904 0.483944
vt 0.402816 0.350137
vt 0.533332 0.347464
vt 0.638788 0.383552
vt 0.453641 0.652535
vt 0.345400 0.558754
vt 0.717662 0.473047
vt 0.371683 0.302129
vt 0.335149 0.450383
vt 0.751605 0.468844
vt 0.351673 0.271272
vt 0.607166 0.683589
vt 0.607166 0.634359
vt 0.621033 0.636628
vt 0.621033 0.683335
vt 0.541829 0.251207
vt 0.556939 0.275192
vt 0.586801 0.279029
vt 0.614504 0.245930
vt 0.581404 0.194600
vt 0.607166 0.730833
vt 0.607166 0.713366
vt 0.621033 0.711585
vt 0.621033 0.728157
vt 0.605801 0.668887
vt 0.616467 0.668887
vt 0.616716 0.688365
vt 0.606597 0.688365
vt 0.583478 0.388038
vt 0.597580 0.354886
vt 0.589044 0.318269
vt 0.566406 0.285611
vt 0.525213 0.315300
vt 0.519275 0.344989
vt 0.535232 0.360825
vt 0.557500 0.370718
vt 0.645012 0.668887
vt 0.610106 0.668887
vt 0.610681 0.688365
vt 0.643798 0.688365
vt 0.663866 0.274969
vt 0.651234 0.291361
vt 0.688107 0.325954
vt 0.719858 0.264501
vt 0.694935 0.250843
vt 0.686058 0.259492
vt 0.672060 0.258583
vt 0.610681 0.728531
vt 0.597371 0.730807
vt 0.596743 0.716966
vt 0.409918 0.425536
vt 0.425891 0.385552
vt 0.399813 0.353388
vt 0.383514 0.376859
vt 0.378299 0.397724
vt 0.395249 0.418586
vt 0.214055 0.388511
vt 0.244503 0.415576
vt 0.256959 0.396506
vt 0.268492 0.396506
vt 0.282332 0.386052
vt 0.279103 0.361447
vt 0.239889 0.331926
vt 0.594395 0.665331
vt 0.606597 0.627239
vt 0.616716 0.626446
vt 0.627430 0.643904
vt 0.631001 0.670097
vt 0.648263 0.673665
vt 0.643798 0.722871
vt 0.683927 0.563767
vt 0.662232 0.563767
vt 0.661415 0.585299
vt 0.683081 0.585227
vt 0.098335 0.348082
vt 0.049545 0.405773
vt 0.072099 0.441370
vt 0.096954 0.426027
vt 0.099716 0.407000
vt 0.113525 0.373860
vt 0.712858 0.563767
vt 0.666250 0.563767
vt 0.665274 0.586242
vt 0.711899 0.589772
vt 0.069423 0.660273
vt 0.163964 0.659605
vt 0.160963 0.636930
vt 0.142455 0.620256
vt 0.124447 0.579570
vt 0.066422 0.581574
vt 0.055917 0.589577
vt 0.055917 0.642931
vt 0.196742 0.717477
vt 0.231480 0.656394
vt 0.220180 0.648716
vt 0.192435 0.713925
vt 0.202310 0.722074
vt 0.249806 0.723956
vt 0.269087 0.681946
vt 0.655402 0.563767
vt 0.697590 0.563767
vt 0.698432 0.589933
vt 0.655887 0.588921
vt 0.334323 0.533565
vt 0.328215 0.591527
vt 0.350850 0.595360
vt 0.359472 0.580032
vt 0.364861 0.536440
vt 0.343305 0.522547
vt 0.653393 0.563767
vt 0.687947 0.563767
vt 0.688950 0.587922
vt 0.654037 0.585299
vt 0.327724 0.659617
vt 0.324057 0.700681
vt 0.407293 0.710949
vt 0.420126 0.674769
vt 0.714867 0.595333
vt 0.701206 0.539082
vt 0.687947 0.527294
vt 0.653393 0.548189
vt 0.652589 0.577115
vt 0.666250 0.626406
vt 0.712858 0.621049
vt 0.720895 0.563767
vt 0.720406 0.586242
vt 0.716877 0.563767
vt 0.717656 0.589772
vt 0.747602 0.348211
vt 0.739644 0.384383
vt 0.784498 0.402228
vt 0.800413 0.335189
vt 0.785945 0.316862
vt 0.757007 0.307215
vt 0.701206 0.563767
vt 0.701942 0.588921
vt 0.491230 0.483156
vt 0.491494 0.470847
vt 0.475403 0.462053
vt 0.456674 0.462060
vt 0.450079 0.478583
vt 0.475667 0.504259
vt 0.478832 0.491950
vt 0.202831 0.229017
vt 0.249216 0.225869
vt 0.243320 0.184463
vt 0.241354 0.154590
vt 0.228775 0.151970
vt 0.203224 0.193374
vt 0.714428 0.596455
vt 0.711899 0.622088
vt 0.665274 0.625755
vt 0.652645 0.575987
vt 0.654037 0.547100
vt 0.688950 0.527465
vt 0.701942 0.539729
vt 0.595414 0.719037
vt 0.610106 0.731228
vt 0.645012 0.725261
vt 0.649718 0.673397
vt 0.631524 0.669637
vt 0.627759 0.642028
vt 0.616467 0.623627
vt 0.605801 0.624463
vt 0.592940 0.664613
vt 0.596077 0.733626
vt 0.607166 0.691928
vt 0.607166 0.730039
vt 0.621033 0.727404
vt 0.621033 0.691246
vt 0.607166 0.626419
vt 0.607166 0.640267
vt 0.621033 0.642233
vt 0.621033 0.629095
vt 0.607166 0.665723
vt 0.607166 0.642697
vt 0.621033 0.644538
vt 0.621033 0.666385
vt 0.607166 0.692831
vt 0.607166 0.710585
vt 0.621033 0.708947
vt 0.621033 0.692103
vt 0.607166 0.687159
vt 0.621033 0.686722
vt 0.327914 0.660826
vt 0.419498 0.673860
vt 0.407202 0.709936
vt 0.324740 0.701541
vt 0.383641 0.672070
vt 0.352842 0.672070
vt 0.353749 0.698495
vt 0.384285 0.697411
vt 0.327724 0.672070
vt 0.420126 0.672070
vt 0.419498 0.693442
vt 0.327914 0.698495
vt 0.407293 0.672070
vt 0.324057 0.672070
vt 0.324740 0.697411
vt 0.407202 0.692963
vt 0.364206 0.672070
vt 0.391341 0.672070
vt 0.390581 0.692963
vt 0.363525 0.693442
vt 0.249806 0.672594
vt 0.202310 0.672594
vt 0.202310 0.700077
vt 0.249806 0.700077
vt 0.220180 0.672594
vt 0.231480 0.672594
vt 0.231480 0.700077
vt 0.220180 0.700077
vt 0.251453 0.672594
vt 0.202546 0.672594
vt 0.202546 0.700077
vt 0.251453 0.700077
vt 0.227469 0.672594
vt 0.258976 0.672594
vt 0.258976 0.700077
vt 0.227469 0.700077
vt 0.196742 0.672594
vt 0.196742 0.700077
vt 0.192435 0.672594
vt 0.192435 0.700077
vt 0.269087 0.672594
vt 0.269087 0.700077
vt 0.069588 0.660556
vt 0.056018 0.643309
vt 0.055814 0.589957
vt 0.066285 0.581880
vt 0.124289 0.579470
vt 0.142448 0.620027
vt 0.161016 0.636571
vt 0.164104 0.659225
vt 0.122646 0.601280
vt 0.139653 0.601280
vt 0.139368 0.635238
vt 0.122378 0.635475
vt 0.069423 0.601280
vt 0.055917 0.601280
vt 0.056018 0.638385
vt 0.069588 0.637889
vt 0.066422 0.601280
vt 0.066285 0.638504
vt 0.055814 0.638745
vt 0.142455 0.601280
vt 0.160963 0.601280
vt 0.161016 0.635475
vt 0.142448 0.636107
vt 0.163964 0.601280
vt 0.164104 0.635238
vt 0.127148 0.601280
vt 0.087132 0.601280
vt 0.087417 0.638745
vt 0.127431 0.638385
vt 0.124447 0.601280
vt 0.124289 0.636888
vt 0.079627 0.601280
vt 0.110141 0.601280
vt 0.109970 0.636107
vt 0.079551 0.636888
vt 0.096954 0.382621
vt 0.072099 0.382621
vt 0.072099 0.406831
vt 0.096954 0.406831
vt 0.049545 0.382621
vt 0.098335 0.382621
vt 0.098335 0.406831
vt 0.049545 0.406831
vt 0.046552 0.382621
vt 0.065885 0.382621
vt 0.065885 0.406831
vt 0.046552 0.406831
vt 0.090741 0.382621
vt 0.105010 0.382621
vt 0.105010 0.406831
vt 0.090741 0.406831
vt 0.116518 0.382621
vt 0.089820 0.382621
vt 0.089820 0.406831
vt 0.116518 0.406831
vt 0.213931 0.387823
vt 0.240355 0.331766
vt 0.279203 0.362070
vt 0.282160 0.386736
vt 0.268221 0.396910
vt 0.256700 0.396678
vt 0.244050 0.415494
vt 0.259262 0.362327
vt 0.216822 0.362327
vt 0.216703 0.383054
vt 0.258745 0.380875
vt 0.238964 0.362327
vt 0.257417 0.362327
vt 0.257930 0.384917
vt 0.239431 0.385015
vt 0.268492 0.362327
vt 0.256959 0.362327
vt 0.256700 0.383304
vt 0.268221 0.383982
vt 0.244503 0.362327
vt 0.214055 0.362327
vt 0.213931 0.380875
vt 0.244050 0.382349
vt 0.239889 0.362327
vt 0.279103 0.362327
vt 0.279203 0.385015
vt 0.240355 0.383054
vt 0.282332 0.362327
vt 0.282160 0.384917
vt 0.265258 0.362327
vt 0.279560 0.362327
vt 0.279499 0.382349
vt 0.265387 0.383304
vt 0.228775 0.178900
vt 0.241354 0.178900
vt 0.241354 0.202087
vt 0.228775 0.202087
vt 0.249216 0.178900
vt 0.202831 0.178900
vt 0.202831 0.202087
vt 0.249216 0.202087
vt 0.228184 0.178900
vt 0.197131 0.178900
vt 0.197131 0.202087
vt 0.228184 0.202087
vt 0.199096 0.178900
vt 0.221501 0.178900
vt 0.221501 0.202087
vt 0.199096 0.202087
vt 0.252556 0.178900
vt 0.252556 0.202087
vt 0.254916 0.178900
vt 0.254916 0.202087
vt 0.329652 0.547802
vt 0.362346 0.547802
vt 0.362346 0.570105
vt 0.329652 0.570105
vt 0.350850 0.547802
vt 0.328215 0.547802
vt 0.328215 0.570105
vt 0.350850 0.570105
vt 0.334323 0.547802
vt 0.343305 0.547802
vt 0.343305 0.570105
vt 0.334323 0.570105
vt 0.364861 0.547802
vt 0.364861 0.570105
vt 0.373843 0.547802
vt 0.373843 0.570105
vt 0.370968 0.547802
vt 0.327497 0.547802
vt 0.327497 0.570105
vt 0.370968 0.570105
vt 0.399162 0.381591
vt 0.429151 0.381591
vt 0.429151 0.397333
vt 0.399162 0.397333
vt 0.395249 0.381591
vt 0.378299 0.381591
vt 0.378299 0.397333
vt 0.395249 0.397333
vt 0.392642 0.381591
vt 0.375039 0.381591
vt 0.375039 0.397333
vt 0.392642 0.397333
vt 0.399813 0.381591
vt 0.425891 0.381591
vt 0.425891 0.397333
vt 0.399813 0.397333
vt 0.409918 0.381591
vt 0.409918 0.397333
vt 0.408292 0.381591
vt 0.408292 0.397333
vt 0.490223 0.483818
vt 0.478272 0.491813
vt 0.475027 0.503468
vt 0.451202 0.478104
vt 0.457786 0.462535
vt 0.475586 0.463141
vt 0.490710 0.472068
vt 0.456674 0.474505
vt 0.475403 0.474505
vt 0.475586 0.489568
vt 0.457786 0.487142
vt 0.461555 0.474505
vt 0.470786 0.474505
vt 0.471283 0.491807
vt 0.462470 0.491731
vt 0.477382 0.474505
vt 0.486614 0.474505
vt 0.486020 0.489979
vt 0.477279 0.490279
vt 0.467357 0.474505
vt 0.454964 0.474505
vt 0.455321 0.487142
vt 0.466997 0.486436
vt 0.491494 0.474505
vt 0.490710 0.491731
vt 0.491230 0.474505
vt 0.478832 0.474505
vt 0.478272 0.490279
vt 0.490223 0.491807
vt 0.475667 0.474505
vt 0.450079 0.474505
vt 0.451202 0.486436
vt 0.475027 0.489979
vt 0.581686 0.385320
vt 0.557345 0.368730
vt 0.536451 0.359172
vt 0.521530 0.344088
vt 0.527302 0.316197
vt 0.566253 0.288687
vt 0.587355 0.319684
vt 0.595162 0.354256
vt 0.535232 0.320486
vt 0.519275 0.320486
vt 0.521530 0.349824
vt 0.536451 0.350548
vt 0.583478 0.320486
vt 0.557500 0.320486
vt 0.557345 0.351521
vt 0.581686 0.352674
vt 0.544510 0.320486
vt 0.571974 0.320486
vt 0.571501 0.353164
vt 0.545572 0.352686
vt 0.564550 0.320486
vt 0.542284 0.320486
vt 0.542957 0.349980
vt 0.563875 0.349824
vt 0.596837 0.320486
vt 0.594799 0.352674
vt 0.520017 0.320486
vt 0.522324 0.351626
vt 0.525213 0.320486
vt 0.566406 0.320486
vt 0.566253 0.351626
vt 0.527302 0.349980
vt 0.606950 0.220872
vt 0.588961 0.220872
vt 0.588961 0.252756
vt 0.606950 0.252756
vt 0.546505 0.220872
vt 0.585003 0.220872
vt 0.585003 0.252756
vt 0.546505 0.252756
vt 0.586801 0.220872
vt 0.556939 0.220872
vt 0.556939 0.252756
vt 0.586801 0.252756
vt 0.614504 0.220872
vt 0.614504 0.252756
vt 0.651234 0.273634
vt 0.663866 0.273634
vt 0.663866 0.303163
vt 0.651234 0.303163
vt 0.672060 0.273634
vt 0.686058 0.273634
vt 0.686058 0.303163
vt 0.672060 0.303163
vt 0.694935 0.273634
vt 0.719858 0.273634
vt 0.719858 0.303163
vt 0.694935 0.303163
vt 0.688107 0.273634
vt 0.688107 0.303163
vt 0.675473 0.273634
vt 0.663184 0.273634
vt 0.663184 0.303163
vt 0.675473 0.303163
vt 0.667623 0.273634
vt 0.713713 0.273634
vt 0.713713 0.303163
vt 0.667623 0.303163
vt 0.758587 0.372084
vt 0.758587 0.333500
vt 0.781470 0.333500
vt 0.781470 0.372084
vt 0.758587 0.374254
vt 0.758587 0.307215
vt 0.781470 0.307215
vt 0.781470 0.374254
vt 0.758587 0.325060
vt 0.758587 0.361232
vt 0.781470 0.361232
vt 0.781470 0.325060
vt 0.758587 0.314209
vt 0.781470 0.314209
vt 0.758587 0.335429
vt 0.758587 0.395234
vt 0.781470 0.395234
vt 0.781470 0.335429
vt 0.758587 0.402228
vt 0.781470 0.402228
s 1
usemtl debris_02
f 2/1/1 5/2/2 20/3/3 21/4/4
f 3/5/5 6/6/6 24/7/7 25/8/8
f 6/6/6 4/9/9 23/10/10 24/7/7
f 7/11/11 3/5/5 25/8/8 18/12/12
f 16/13/13 12/14/14 17/15/15
f 9/16/16 13/17/17 17/15/15
f 10/18/18 16/13/13 17/15/15
f 13/17/17 10/18/18 17/15/15
f 4/9/19 6/6/20 14/19/21 12/14/14
f 6/6/20 3/5/22 11/20/23 14/19/21
f 5/2/24 2/1/25 10/18/18 13/17/17
f 2/1/25 8/21/26 16/13/13 10/18/18
f 1/22/27 5/2/24 13/17/17 9/16/16
f 8/21/26 4/9/19 12/14/14 16/13/13
f 7/11/28 1/22/27 9/16/16 15/23/29
f 3/5/22 7/11/28 15/23/29 11/20/23
f 15/23/29 9/16/16 17/15/15
f 11/20/23 15/23/29 17/15/15
f 12/14/14 14/19/21 17/15/15
f 14/19/21 11/20/23 17/15/15
f 8/21/30 2/1/1 21/4/4 22/24/31
f 5/2/2 1/22/32 19/25/33 20/3/3
f 4/9/9 8/21/30 22/24/31 23/10/10
f 1/22/32 7/11/11 18/12/12 19/25/33
f 126/26/34 125/27/35 138/28/36 139/29/37
f 31/30/38 32/31/38 33/32/38 34/33/38 30/34/38
f 122/35/39 128/36/40 141/37/41 135/38/42
f 123/39/43 122/40/39 135/41/42 136/42/44
f 38/43/45 37/44/45 36/45/45 35/46/45 42/47/45 41/48/45 40/49/45 39/50/45
f 125/51/35 121/52/46 134/53/47 138/54/36
f 49/55/38 43/56/38 44/57/38 45/58/38 46/59/38 47/60/38 48/61/38
f 134/62/47 142/63/48 133/64/49
f 54/65/50 55/66/50 50/67/50 51/68/50 52/69/50 53/70/50
f 57/71/38 58/72/38 59/73/38 60/74/38 61/75/38 62/76/38 56/77/38
f 133/64/49 137/78/51 136/79/44 135/80/42 141/81/41 140/82/52 139/83/37 138/84/36 134/62/47
f 95/85/53 94/86/54 29/87/55 28/88/56
f 63/89/38 64/90/38 65/91/38 66/92/38 67/93/38 68/94/38
f 97/95/57 96/96/58 27/97/59 26/98/60
f 73/99/38 74/100/38 75/101/38 76/102/38 69/103/38 70/104/38 71/105/38 72/106/38
f 78/107/38 77/108/38 79/109/38 80/110/38
f 77/108/38 78/107/38 81/111/38 82/112/38 83/113/38
f 99/114/61 98/115/62 130/116/63 131/117/64
f 85/118/65 86/119/65 87/120/65 88/121/65 89/122/65 84/123/65
f 94/124/54 100/125/66 132/126/67 29/127/55
f 90/128/38 91/129/38 92/130/38 93/131/38
f 98/132/38 99/133/38 100/134/38 94/135/38 95/136/38 96/137/38 97/138/38
f 96/139/58 95/85/53 28/88/56 27/140/59
f 98/115/62 97/141/57 26/142/60 130/116/63
f 102/143/38 103/144/38 104/145/38 105/146/38 106/147/38 101/148/38
f 100/125/66 99/149/61 131/150/64 132/126/67
f 111/151/68 112/152/68 113/153/68 107/154/68 108/155/68 109/156/68 110/157/68
f 118/158/38 119/159/38 114/160/38 115/161/38 116/162/38 117/163/38
f 130/164/69 26/165/69 27/166/69 28/167/56 29/168/55 132/169/69 131/170/69
f 120/171/38 121/172/38 125/173/38 126/174/38 127/175/38 128/176/38 122/177/38 123/178/38 124/179/38
f 121/172/38 120/171/38 129/180/38
f 124/181/70 123/182/43 136/183/44 137/184/51
f 129/185/71 120/186/71 133/187/49 142/188/48
f 127/189/72 126/190/73 139/191/73 140/192/74
f 120/186/71 124/181/70 137/184/51 133/187/49
f 121/193/46 129/194/46 142/195/48 134/196/47
f 128/36/40 127/197/72 140/198/74 141/37/41
f 143/199/75 146/200/76 145/201/77 144/202/75
f 91/203/78 90/204/78 143/205/78 144/206/78
f 90/207/79 93/208/79 146/209/79 143/210/79
f 92/211/80 91/212/81 144/213/81 145/214/77
f 93/215/82 92/216/80 145/217/77 146/218/76
f 148/107/52 150/110/52 149/109/52 147/108/52
f 147/108/52 153/113/52 152/112/52 151/111/52 148/107/52
f 82/219/83 81/220/84 151/221/84 152/222/83
f 79/223/85 77/224/85 147/225/85 149/226/85
f 80/227/86 79/228/86 149/229/86 150/230/86
f 83/231/87 82/232/83 152/233/83 153/234/87
f 81/220/84 78/235/88 148/236/88 151/221/84
f 78/235/88 80/237/89 150/238/89 148/236/88
f 77/224/85 83/239/85 153/240/85 147/225/85
f 158/241/90 157/242/90 156/243/90 155/244/90 154/245/90 161/246/90 160/247/90 159/248/90
f 75/249/91 74/250/92 159/251/92 160/252/93
f 73/253/94 72/254/95 157/255/96 158/256/97
f 71/254/98 70/257/99 155/258/100 156/259/101
f 76/260/102 75/261/91 160/262/93 161/263/103
f 74/264/104 73/253/94 158/256/97 159/265/104
f 72/266/95 71/267/98 156/268/101 157/269/96
f 70/257/99 69/270/105 154/271/106 155/258/100
f 69/272/105 76/273/102 161/274/103 154/275/106
f 162/89/52 167/94/52 166/93/52 165/92/52 164/91/52 163/90/52
f 66/276/107 65/277/108 164/278/108 165/279/107
f 64/280/109 63/281/109 162/282/109 163/283/109
f 63/284/110 68/285/111 167/286/111 162/287/110
f 67/288/112 66/289/107 165/290/107 166/291/112
f 65/292/108 64/293/113 163/294/113 164/295/108
f 68/285/111 67/288/112 166/291/112 167/286/111
f 169/296/114 168/297/114 174/298/114 173/299/114 172/300/114 171/301/114 170/302/114
f 57/303/115 56/304/115 168/305/115 169/306/115
f 62/307/116 61/308/117 173/309/118 174/310/119
f 60/311/120 59/312/121 171/313/122 172/314/123
f 58/315/124 57/316/125 169/317/125 170/318/126
f 56/319/127 62/320/116 174/321/119 168/322/127
f 61/323/117 60/311/120 172/314/123 173/324/118
f 59/325/121 58/326/124 170/327/126 171/328/122
f 179/158/52 178/163/52 177/162/52 176/161/52 175/160/52 180/159/52
f 116/329/128 115/330/129 176/331/129 177/332/128
f 119/333/130 118/334/130 179/335/130 180/336/130
f 117/337/131 116/338/128 177/339/128 178/340/131
f 115/341/129 114/342/132 175/343/132 176/344/129
f 114/342/132 119/345/133 180/346/133 175/343/132
f 118/347/134 117/337/131 178/340/131 179/348/134
f 182/118/135 181/123/135 186/122/135 185/121/135 184/120/135 183/119/135
f 89/349/136 88/350/137 185/351/137 186/352/136
f 87/353/138 86/354/139 183/355/139 184/356/138
f 85/357/140 84/358/141 181/359/141 182/360/140
f 84/358/141 89/361/136 186/362/136 181/359/141
f 88/350/137 87/363/138 184/364/138 185/351/137
f 86/365/142 85/366/140 182/367/140 183/368/142
f 191/65/143 190/70/143 189/69/143 188/68/143 187/67/143 192/66/143
f 55/369/144 54/370/145 191/371/145 192/372/144
f 53/373/146 52/374/147 189/375/147 190/376/146
f 51/377/148 50/378/149 187/379/149 188/380/148
f 50/381/150 55/382/144 192/383/144 187/384/150
f 54/385/145 53/373/146 190/376/146 191/386/145
f 52/387/147 51/377/148 188/380/148 189/388/147
f 197/389/151 196/390/151 195/391/152 194/392/153 193/393/154 199/394/155 198/395/151
f 107/396/156 113/397/157 199/398/155 193/399/154
f 112/400/158 111/401/159 197/402/160 198/403/161
f 110/404/162 109/405/163 195/406/163 196/407/164
f 108/408/165 107/409/156 193/410/154 194/411/153
f 113/397/157 112/412/158 198/413/161 199/398/155
f 111/414/159 110/415/162 196/416/164 197/417/160
f 109/418/166 108/419/165 194/420/153 195/421/152
f 203/422/167 204/423/168 205/424/169 206/425/170 207/426/171 200/427/172 201/428/173 202/429/174
f 40/430/175 41/431/176 206/432/170 205/433/169
f 38/434/177 39/435/178 204/436/168 203/437/177
f 36/438/179 37/439/180 202/440/174 201/441/181
f 41/442/176 42/443/182 207/444/171 206/445/170
f 39/435/178 40/430/175 205/433/169 204/436/168
f 37/439/180 38/446/183 203/447/167 202/440/174
f 35/448/184 36/438/179 201/441/181 200/449/172
f 42/450/182 35/451/184 200/452/172 207/453/171
f 209/30/52 208/34/52 212/33/52 211/32/52 210/31/52
f 32/454/185 31/455/186 209/456/186 210/457/185
f 30/458/187 34/459/187 212/460/187 208/461/187
f 33/462/188 32/463/185 210/464/185 211/465/188
f 31/455/186 30/458/189 208/461/189 209/456/186
f 34/466/190 33/462/188 211/465/188 212/467/190
f 219/55/52 218/61/52 217/60/52 216/59/52 215/58/52 214/57/52 213/56/52
f 43/468/191 49/469/192 219/470/192 213/471/191
f 48/472/193 47/473/194 217/474/194 218/475/193
f 46/476/195 45/477/196 215/478/196 216/479/195
f 44/480/197 43/468/197 213/471/197 214/481/197
f 49/482/192 48/483/193 218/484/193 219/485/192
f 47/473/194 46/476/195 216/479/195 217/474/194
f 45/486/198 44/487/198 214/488/198 215/489/198
f 221/143/52 220/148/52 225/147/52 224/146/52 223/145/52 222/144/52
f 101/490/199 106/491/200 225/492/200 220/493/199
f 105/494/201 104/495/202 223/496/202 224/497/201
f 103/498/203 102/499/204 221/500/204 222/501/203
f 106/491/200 105/502/201 224/503/201 225/492/200
f 104/504/205 103/505/205 222/506/205 223/507/205
f 102/499/204 101/508/206 220/509/206 221/500/204
f 326/26/207 325/27/208 338/28/209 339/29/210
f 231/30/38 232/31/38 233/32/38 234/33/38 230/34/38
f 322/35/211 328/36/212 341/37/213 335/38/214
f 323/39/215 322/40/211 335/41/214 336/42/216
f 238/43/217 237/44/217 236/45/217 235/46/217 242/47/217 241/48/217 240/49/217 239/50/217
f 325/51/208 321/52/218 334/53/219 338/54/209
f 249/55/38 243/56/38 244/57/38 245/58/38 246/59/38 247/60/38 248/61/38
f 334/62/219 342/63/220 333/64/221
f 254/65/222 255/66/222 250/67/222 251/68/222 252/69/222 253/70/222
f 257/71/223 258/72/223 259/73/223 260/74/223 261/75/223 262/76/223 256/77/223
f 333/64/221 337/78/224 336/79/216 335/80/214 341/81/213 340/82/52 339/83/210 338/84/209 334/62/219
f 295/85/225 294/86/226 229/87/227 228/88/228
f 263/89/38 264/90/38 265/91/38 266/92/38 267/93/38 268/94/38
f 297/95/229 296/96/230 227/97/231 226/98/232
f 273/99/38 274/100/38 275/101/38 276/102/38 269/103/38 270/104/38 271/105/38 272/106/38
f 278/107/38 277/108/38 279/109/38 280/110/38
f 277/108/38 278/107/38 281/111/38 282/112/38 283/113/38
f 299/114/233 298/115/234 330/116/235 331/117/236
f 285/118/237 286/119/237 287/120/237 288/121/237 289/122/237 284/123/237
f 294/124/226 300/125/238 332/126/239 229/127/227
f 290/128/38 291/129/38 292/130/38 293/131/38
f 298/132/38 299/133/38 300/134/38 294/135/38 295/136/38 296/137/38 297/138/38
f 296/139/230 295/85/225 228/88/228 227/140/231
f 298/115/234 297/141/229 226/142/232 330/116/235
f 302/143/38 303/144/38 304/145/38 305/146/38 306/147/38 301/148/38
f 300/125/238 299/149/233 331/150/236 332/126/239
f 311/151/240 312/152/240 313/153/240 307/154/240 308/155/240 309/156/240 310/157/240
f 318/158/38 319/159/38 314/160/38 315/161/38 316/162/38 317/163/38
f 330/164/241 226/165/241 227/166/241 228/167/228 229/168/227 332/169/241 331/170/241
f 320/171/38 321/172/38 325/173/38 326/174/38 327/175/38 328/176/38 322/177/38 323/178/38 324/179/38
f 321/172/38 320/171/38 329/180/38
f 324/181/242 323/182/215 336/183/216 337/184/224
f 329/185/243 320/186/243 333/187/221 342/188/220
f 327/189/244 326/190/245 339/191/245 340/192/246
f 320/186/243 324/181/242 337/184/224 333/187/221
f 321/193/218 329/194/218 342/195/220 334/196/219
f 328/36/212 327/197/244 340/198/246 341/37/213
f 343/199/247 346/200/248 345/201/249 344/202/247
f 291/203/250 290/204/250 343/205/250 344/206/250
f 290/207/251 293/208/251 346/209/251 343/210/251
f 292/211/252 291/212/253 344/213/253 345/214/249
f 293/215/254 292/216/252 345/217/249 346/218/248
f 348/107/52 350/110/52 349/109/52 347/108/52
f 347/108/52 353/113/52 352/112/52 351/111/52 348/107/52
f 282/219/255 281/220/256 351/221/256 352/222/255
f 279/223/257 277/224/257 347/225/257 349/226/257
f 280/227/258 279/228/258 349/229/258 350/230/258
f 283/231/259 282/232/255 352/233/255 353/234/259
f 281/220/256 278/235/260 348/236/260 351/221/256
f 278/235/260 280/237/261 350/238/261 348/236/260
f 277/224/257 283/239/257 353/240/257 347/225/257
f 358/241/262 357/242/262 356/243/262 355/244/262 354/245/262 361/246/262 360/247/262 359/248/262
f 275/249/263 274/250/264 359/251/264 360/252/265
f 273/253/266 272/254/267 357/255/268 358/256/269
f 271/254/270 270/257/271 355/258/272 356/259/273
f 276/260/274 275/261/263 360/262/265 361/263/275
f 274/264/276 273/253/266 358/256/269 359/265/276
f 272/266/267 271/267/270 356/268/273 357/269/268
f 270/257/271 269/270/277 354/271/278 355/258/272
f 269/272/277 276/273/274 361/274/275 354/275/278
f 362/89/52 367/94/52 366/93/52 365/92/52 364/91/52 363/90/52
f 266/276/279 265/277/280 364/278/280 365/279/279
f 264/280/281 263/281/281 362/282/281 363/283/281
f 263/284/282 268/285/283 367/286/283 362/287/282
f 267/288/284 266/289/279 365/290/279 366/291/284
f 265/292/280 264/293/285 363/294/285 364/295/280
f 268/285/283 267/288/284 366/291/284 367/286/283
f 369/296/286 368/297/286 374/298/286 373/299/286 372/300/286 371/301/286 370/302/286
f 257/303/287 256/304/287 368/305/287 369/306/287
f 262/307/288 261/308/289 373/309/290 374/310/291
f 260/311/292 259/312/293 371/313/294 372/314/295
f 258/315/296 257/316/297 369/317/297 370/318/298
f 256/319/299 262/320/288 374/321/291 368/322/299
f 261/323/289 260/311/292 372/314/295 373/324/290
f 259/325/293 258/326/296 370/327/298 371/328/294
f 379/158/52 378/163/52 377/162/52 376/161/52 375/160/52 380/159/52
f 316/329/300 315/330/301 376/331/301 377/332/300
f 319/333/302 318/334/302 379/335/302 380/336/302
f 317/337/303 316/338/300 377/339/300 378/340/303
f 315/341/301 314/342/304 375/343/304 376/344/301
f 314/342/304 319/345/305 380/346/305 375/343/304
f 318/347/306 317/337/303 378/340/303 379/348/306
f 382/118/307 381/123/307 386/122/307 385/121/307 384/120/307 383/119/307
f 289/349/308 288/350/309 385/351/309 386/352/308
f 287/353/310 286/354/311 383/355/311 384/356/310
f 285/357/312 284/358/313 381/359/313 382/360/312
f 284/358/313 289/361/308 386/362/308 381/359/313
f 288/350/309 287/363/310 384/364/310 385/351/309
f 286/365/314 285/366/312 382/367/312 383/368/314
f 391/65/315 390/70/315 389/69/315 388/68/315 387/67/315 392/66/315
f 255/369/316 254/370/317 391/371/317 392/372/316
f 253/373/318 252/374/319 389/375/319 390/376/318
f 251/377/320 250/378/321 387/379/321 388/380/320
f 250/381/322 255/382/316 392/383/316 387/384/322
f 254/385/317 253/373/318 390/376/318 391/386/317
f 252/387/319 251/377/320 388/380/320 389/388/319
f 397/389/323 396/390/323 395/391/324 394/392/325 393/393/326 399/394/327 398/395/323
f 307/396/328 313/397/329 399/398/327 393/399/326
f 312/400/330 311/401/331 397/402/332 398/403/333
f 310/404/334 309/405/335 395/406/335 396/407/336
f 308/408/337 307/409/328 393/410/326 394/411/325
f 313/397/329 312/412/330 398/413/333 399/398/327
f 311/414/331 310/415/334 396/416/336 397/417/332
f 309/418/338 308/419/337 394/420/325 395/421/324
f 403/422/339 404/423/340 405/424/341 406/425/342 407/426/343 400/427/344 401/428/345 402/429/346
f 240/430/347 241/431/348 406/432/342 405/433/341
f 238/434/349 239/435/350 404/436/340 403/437/349
f 236/438/351 237/439/352 402/440/346 401/441/353
f 241/442/348 242/443/354 407/444/343 406/445/342
f 239/435/350 240/430/347 405/433/341 404/436/340
f 237/439/352 238/446/355 403/447/339 402/440/346
f 235/448/356 236/438/351 401/441/353 400/449/344
f 242/450/354 235/451/356 400/452/344 407/453/343
f 409/30/52 408/34/52 412/33/52 411/32/52 410/31/52
f 232/454/357 231/455/358 409/456/358 410/457/357
f 230/458/359 234/459/359 412/460/359 408/461/359
f 233/462/360 232/463/357 410/464/357 411/465/360
f 231/455/358 230/458/361 408/461/361 409/456/358
f 234/466/362 233/462/360 411/465/360 412/467/362
f 419/55/52 418/61/52 417/60/52 416/59/52 415/58/52 414/57/52 413/56/52
f 243/468/363 249/469/364 419/470/364 413/471/363
f 248/472/365 247/473/366 417/474/366 418/475/365
f 246/476/367 245/477/368 415/478/368 416/479/367
f 244/480/369 243/468/369 413/471/369 414/481/369
f 249/482/364 248/483/365 418/484/365 419/485/364
f 247/473/366 246/476/367 416/479/367 417/474/366
f 245/486/370 244/487/370 414/488/370 415/489/370
f 421/143/52 420/148/52 425/147/52 424/146/52 423/145/52 422/144/52
f 301/490/371 306/491/372 425/492/372 420/493/371
f 305/494/373 304/495/374 423/496/374 424/497/373
f 303/498/375 302/499/376 421/500/376 422/501/375
f 306/491/372 305/502/373 424/503/373 425/492/372
f 304/504/377 303/505/377 422/506/377 423/507/377
f 302/499/376 301/508/378 420/509/378 421/500/376
