# Blender 4.5.9 LTS
# www.blender.org
mtllib debris_02.mtl
o debris_02
v 1.781467 0.000000 0.693839
v 1.772557 0.000000 0.590278
v 1.653377 0.000000 0.629264
v 1.657833 0.000000 0.697204
v 1.273214 0.000000 -0.086128
v 1.256473 0.000000 -0.099915
v 1.242687 0.000000 -0.183624
v 1.280107 0.000000 -0.196426
v 1.361843 0.000000 -0.159004
v 1.373660 0.000000 -0.096962
v 1.089681 0.000000 -0.281145
v 1.034857 0.000000 -0.316087
v 1.033916 0.000000 -0.288925
v 1.035885 0.000000 -0.346031
v 1.079216 0.000000 -0.396263
v 1.172767 0.000000 -0.366714
v 1.183600 0.000000 -0.285965
v 1.160950 0.000000 -0.271194
v 0.970577 0.000000 -0.357057
v 0.841970 0.000000 -0.439027
v 0.874385 0.000000 -0.289871
v 0.825147 0.000000 -0.410987
v 0.857637 0.000000 -0.465152
v 0.940358 0.000000 -0.479922
v 0.991571 0.000000 -0.540969
v 1.076260 0.000000 -0.509460
v 1.008307 0.000000 -0.383411
v 0.732255 0.000000 -0.403457
v 0.750830 0.000000 -0.473480
v 0.433614 0.000000 -0.520637
v 0.429328 0.000000 -0.447761
v 0.168820 0.000000 -0.631682
v -0.052300 0.000000 -0.790637
v -0.119025 0.000000 -0.689743
v -0.001092 0.000000 -0.604935
v 0.073153 0.000000 -0.592032
v 0.149011 0.000000 -0.596874
v -0.076950 0.000000 -0.785703
v 0.202274 0.000000 -0.690484
v 0.153854 0.000000 -0.717924
v 0.134483 0.000000 -0.769564
v 0.016663 0.000000 -0.817986
v -0.004320 0.000000 -0.800236
v -0.171556 0.000000 -0.391349
v -0.121830 0.000000 -0.379852
v -0.045330 0.000000 -0.473579
v -0.045330 0.000000 -0.504173
v -0.133306 0.000000 -0.588317
v -0.238495 0.000000 -0.599799
v -0.230844 0.000000 -0.538604
v -0.265270 0.000000 -0.506087
v -0.464175 0.000000 -0.280464
v -0.475650 0.000000 -0.221176
v -0.578927 0.000000 -0.223091
v -0.640127 0.000000 -0.288116
v -0.636303 0.000000 -0.332099
v -0.552151 0.000000 -0.324455
v -0.295872 0.000000 0.157501
v -0.276747 0.000000 0.232101
v -0.314998 0.000000 0.260788
v -0.450787 0.000000 0.237838
v -0.485212 0.000000 0.176635
v -0.471825 0.000000 0.147957
v 0.253022 0.000000 0.249305
v 0.230071 0.000000 0.123092
v 0.262584 0.000000 0.071449
v 0.312310 0.000000 0.071449
v 0.442361 0.000000 0.132652
v 0.442361 0.000000 0.176635
v 0.363948 0.000000 0.186203
v 0.329523 0.000000 0.274177
v 0.323787 0.000000 1.184515
v 0.290318 0.000000 1.153342
v 0.276549 0.000000 1.086775
v 0.333924 0.000000 1.029402
v 0.384415 0.000000 0.958258
v 0.448675 0.000000 0.960555
v 0.484006 0.000000 1.051177
v 0.448488 0.000000 1.155509
v -0.117373 0.000000 0.536735
v -0.144616 0.000000 0.498695
v -0.109302 0.000000 0.507156
v -0.246569 0.000000 0.611663
v -0.305984 0.000000 0.460029
v -0.140033 0.000000 0.619842
v -0.746319 0.000000 -1.292892
v -0.977643 0.000000 -1.459183
v -0.717968 0.000000 -1.433274
v -0.843079 0.000000 -1.513016
v -0.850012 0.000000 -1.257284
v -0.986996 0.000000 -1.388456
v -0.993961 0.000000 -1.437216
v -0.774557 0.000000 -1.260763
v -0.963781 0.000000 -1.477845
v -0.715347 0.000000 -1.354793
v -0.788484 0.000000 -1.528928
v -0.757142 0.000000 -1.521963
v -1.199827 0.000000 -0.943907
v -1.370168 0.000000 -1.143492
v -1.243550 0.000000 -1.165610
v -1.137911 0.000000 -1.033286
v -1.135589 0.000000 -0.997298
v -1.277215 0.000000 -0.936926
v -1.357315 0.000000 -1.058821
v -1.224976 0.000000 -0.923003
v -1.289893 0.000000 -0.548720
v -1.084035 0.000000 -0.685134
v -1.012166 0.000000 -0.619361
v -0.987804 0.000000 -0.613265
v -1.009741 0.000000 -0.506094
v -1.119359 0.000000 -0.432990
v -1.168083 0.000000 -0.491462
v -1.252133 0.000000 -0.467094
v -1.535147 0.000000 0.519500
v -1.647565 0.000000 0.351608
v -1.574566 0.000000 0.214370
v -1.406671 0.000000 0.201225
v -1.343892 0.000000 0.360366
v -1.348271 0.000000 0.428985
v 0.327277 0.081097 1.177527
v 0.295875 0.081097 1.148279
v 0.282956 0.081097 1.085824
v 0.336788 0.081097 1.031996
v 0.384160 0.081097 0.965246
v 0.444451 0.081097 0.967401
v 0.477598 0.081097 1.052425
v 0.444275 0.081097 1.150312
v 1.780003 0.056866 0.690986
v 1.769051 0.058470 0.590945
v 1.655698 0.041365 0.630967
v 1.661550 0.040125 0.696625
v 1.279760 0.040878 -0.096456
v 1.266154 0.040878 -0.107661
v 1.254949 0.040878 -0.175696
v 1.285363 0.040878 -0.186101
v 1.351793 0.040878 -0.155686
v 1.361397 0.040878 -0.105261
v 1.089681 0.038885 -0.281145
v 1.034857 0.038885 -0.316087
v 1.033916 0.038885 -0.288925
v 1.035885 0.038885 -0.346031
v 1.079216 0.038885 -0.396263
v 1.172767 0.038885 -0.366714
v 1.183600 0.038885 -0.285965
v 1.160950 0.038885 -0.271194
v 1.092477 0.054134 -0.288850
v 1.045688 0.054134 -0.318672
v 1.044884 0.054134 -0.295490
v 1.046565 0.054134 -0.344227
v 1.083545 0.054134 -0.387098
v 1.163386 0.054134 -0.361879
v 1.172632 0.054134 -0.292964
v 1.153301 0.054134 -0.280358
v 0.970945 0.045417 -0.359746
v 0.845910 0.039861 -0.435962
v 0.880119 0.038117 -0.293356
v 0.830368 0.038186 -0.408709
v 0.860385 0.041422 -0.461356
v 0.939393 0.046647 -0.477147
v 0.987219 0.051152 -0.536767
v 1.069084 0.055361 -0.508154
v 1.006570 0.048280 -0.385787
v 0.732261 0.051847 -0.403909
v 0.750609 0.052382 -0.473990
v 0.433625 0.036850 -0.520139
v 0.429557 0.037018 -0.447251
v 0.180623 0.029343 -0.624877
v -0.061015 0.029343 -0.798582
v -0.133932 0.029343 -0.688326
v -0.005055 0.029343 -0.595649
v 0.076078 0.029343 -0.581548
v 0.158976 0.029343 -0.586839
v -0.087952 0.029343 -0.793191
v 0.217181 0.029343 -0.689135
v 0.164268 0.029343 -0.719122
v 0.143100 0.029343 -0.775553
v 0.014347 0.029343 -0.828469
v -0.008584 0.029343 -0.809072
v 0.180623 0.102554 -0.624877
v -0.061015 0.102554 -0.798582
v -0.133932 0.102554 -0.688326
v -0.005055 0.102554 -0.595649
v 0.076078 0.102554 -0.581548
v 0.158976 0.102554 -0.586839
v -0.087952 0.102554 -0.793191
v 0.217181 0.102554 -0.689135
v 0.164268 0.102554 -0.719122
v 0.143100 0.102554 -0.775553
v 0.014347 0.102554 -0.828469
v -0.008584 0.102554 -0.809072
v 0.153567 0.124398 -0.640476
v -0.041036 0.124398 -0.780369
v -0.099760 0.124398 -0.691574
v 0.004031 0.124398 -0.616937
v 0.069372 0.124398 -0.605581
v 0.136133 0.124398 -0.609842
v -0.062730 0.124398 -0.776027
v 0.183008 0.124398 -0.692226
v 0.140395 0.124398 -0.716376
v 0.123347 0.124398 -0.761823
v 0.019656 0.124398 -0.804438
v 0.001189 0.124398 -0.788817
v -0.172412 0.015921 -0.386163
v -0.120068 0.015921 -0.374060
v -0.039537 0.015921 -0.472723
v -0.039537 0.015921 -0.504928
v -0.132147 0.015921 -0.593505
v -0.242877 0.015921 -0.605592
v -0.234823 0.015921 -0.541173
v -0.271062 0.015921 -0.506944
v -0.173680 0.052925 -0.390069
v -0.123983 0.062348 -0.375987
v -0.044249 0.086325 -0.468507
v -0.043350 0.088928 -0.499861
v -0.129402 0.077687 -0.590163
v -0.234911 0.056662 -0.606793
v -0.229011 0.053055 -0.543723
v -0.264608 0.043087 -0.511990
v -0.173265 0.068769 -0.407173
v -0.132588 0.076481 -0.395648
v -0.067328 0.096106 -0.471373
v -0.066592 0.098237 -0.497036
v -0.137024 0.089036 -0.570946
v -0.223381 0.071827 -0.584557
v -0.218552 0.068875 -0.532936
v -0.247687 0.060717 -0.506963
v -0.746190 0.074569 -1.293072
v -0.977710 0.068498 -1.458979
v -0.718082 0.075339 -1.433500
v -0.843283 0.072054 -1.513035
v -0.849788 0.071830 -1.257292
v -0.986942 0.068239 -1.388237
v -0.993985 0.068064 -1.436985
v -0.774365 0.073819 -1.260896
v -0.963883 0.068866 -1.477664
v -0.715332 0.075396 -1.355024
v -0.788733 0.073496 -1.529038
v -0.757390 0.074321 -1.522124
v -1.206019 0.061748 -0.955625
v -1.356479 0.061748 -1.131916
v -1.244639 0.061748 -1.151453
v -1.151329 0.061748 -1.034572
v -1.149278 0.061748 -1.002785
v -1.274375 0.061748 -0.949459
v -1.345126 0.061748 -1.057128
v -1.228232 0.061748 -0.937161
v -1.289878 0.057608 -0.550288
v -1.083038 0.072521 -0.684382
v -1.011772 0.071725 -0.617962
v -0.987479 0.072312 -0.611624
v -1.010292 0.065820 -0.504833
v -1.120436 0.057854 -0.432965
v -1.168637 0.059129 -0.491855
v -1.252826 0.054698 -0.468389
v -1.536341 0.068614 0.519137
v -1.647172 0.053908 0.350834
v -1.573226 0.052590 0.214111
v -1.405582 0.062908 0.201844
v -1.344214 0.074006 0.361149
v -1.349135 0.076750 0.429676
v 0.258833 0.039656 0.243963
v 0.237484 0.039656 0.126565
v 0.267727 0.039656 0.078529
v 0.313979 0.039656 0.078529
v 0.434947 0.039656 0.135457
v 0.434947 0.039656 0.176369
v 0.362011 0.039656 0.185268
v 0.329990 0.039656 0.267097
v -0.117339 0.063093 0.538840
v -0.143784 0.068047 0.500559
v -0.108658 0.067361 0.509745
v -0.248042 0.050741 0.610043
v -0.304292 0.071186 0.458581
v -0.141715 0.051104 0.620585
v -0.307336 0.056855 0.163815
v -0.290787 0.056855 0.228366
v -0.323886 0.056855 0.253189
v -0.441384 0.056855 0.233331
v -0.471172 0.056855 0.180372
v -0.459588 0.056855 0.155556
v -0.464175 0.042286 -0.280464
v -0.475650 0.042286 -0.221176
v -0.578927 0.042286 -0.223091
v -0.640127 0.033160 -0.288116
v -0.636303 0.033160 -0.332099
v -0.552151 0.042286 -0.324455
vn -0.0000 -1.0000 -0.0000
vn -0.1154 -0.8087 -0.5768
vn 0.4676 -0.8429 0.2661
vn 0.3179 -0.7711 0.5517
vn -0.0381 -0.7955 0.6048
vn -0.2442 -0.7759 0.5817
vn -0.6218 -0.7575 0.1989
vn -0.3838 -0.7622 -0.5212
vn -0.2659 -0.7912 -0.5507
vn -0.0999 -0.7347 -0.6711
vn 0.4680 -0.7495 -0.4683
vn 0.4965 -0.7740 -0.3929
vn 0.6337 -0.7336 -0.2456
vn 0.6011 -0.7500 -0.2760
vn 0.6064 -0.7620 0.2271
vn 0.2216 -0.7379 0.6375
vn -0.3669 -0.7462 0.5554
vn -0.7032 -0.7102 -0.0343
vn -0.6065 -0.7613 -0.2293
vn -0.5151 -0.7201 -0.4650
vn 0.2865 -0.7539 -0.5912
vn 0.7451 0.6668 -0.0140
vn 0.4469 0.6387 -0.6264
vn -0.3483 0.6423 -0.6827
vn -0.0000 1.0000 -0.0000
vn -0.7329 0.6411 -0.2277
vn -0.6421 0.6780 0.3578
vn -0.1914 0.6501 0.7353
vn 0.5147 0.6431 0.5670
vn -0.4310 0.0761 -0.8991
vn -0.7632 0.0476 -0.6444
vn -0.7631 0.0476 -0.6446
vn -0.9583 0.0725 -0.2764
vn -0.8661 0.0900 0.4917
vn 0.6678 0.0821 0.7398
vn 0.9966 0.0791 -0.0246
vn 0.5744 0.0985 -0.8126
vn -0.2619 0.0940 0.9605
vn -0.7011 0.5686 -0.4302
vn -0.7253 0.6849 0.0695
vn -0.1384 0.9899 0.0310
vn -0.8328 0.0577 -0.5506
vn -0.9944 0.0726 0.0774
vn 0.9945 0.0410 -0.0967
vn 0.0348 0.0345 0.9988
vn -0.3229 0.0186 -0.9463
vn 0.5466 0.7040 -0.4535
vn 0.0589 0.7186 -0.6929
vn -0.6043 0.7126 -0.3564
vn -0.5856 0.7409 0.3288
vn -0.1817 0.7307 0.6581
vn 0.5695 0.7007 0.4297
vn -0.2914 0.2779 0.9153
vn 0.1044 0.2279 0.9681
vn 0.7777 0.2384 -0.5817
vn 0.0196 0.2425 -0.9700
vn -0.8063 0.3363 -0.4866
vn -0.8256 0.2875 0.4855
vn 0.9515 0.2486 -0.1812
vn 0.7457 0.2692 -0.6095
vn -0.2730 0.2626 -0.9255
vn -0.1357 0.8073 -0.5743
vn 0.4231 0.8124 -0.4014
vn 0.2297 0.2871 0.9299
vn 0.8603 0.3115 0.4036
vn 0.4914 0.8479 0.1990
vn 0.0771 0.8368 0.5421
vn -0.1382 -0.0000 0.9904
vn 0.2178 -0.0000 0.9760
vn -0.1342 0.2397 0.9615
vn 0.9091 -0.0000 0.4167
vn 0.7654 -0.0000 -0.6435
vn -0.2730 -0.0000 -0.9620
vn -0.9312 -0.0000 -0.3645
vn -0.8962 0.2833 -0.3414
vn -0.7656 -0.0000 0.6433
vn -0.7374 0.3009 0.6048
vn -0.9994 -0.0000 -0.0345
vn -0.9528 0.3019 -0.0329
vn -0.4603 0.8876 -0.0159
vn -0.4029 0.8271 0.3920
vn -0.0715 0.8560 0.5120
vn -0.4928 0.8443 -0.2104
vn -0.6026 0.7356 -0.3094
vn -0.7556 0.6545 -0.0281
vn -0.6731 0.6835 0.2826
vn -0.0606 0.9978 0.0268
vn -0.4562 0.6567 -0.6005
vn 0.3364 0.0849 -0.9379
vn -0.2300 0.0566 -0.9715
vn -0.2804 0.0530 -0.9584
vn -0.5752 0.1042 -0.8113
vn -0.8581 0.1236 -0.4984
vn -0.9854 0.1514 -0.0782
vn -0.9137 0.1372 0.3825
vn 0.7494 0.0683 0.6586
vn 0.8815 0.0806 0.4653
vn 0.7576 0.0690 0.6490
vn -0.5198 0.0415 -0.8533
vn -0.5143 0.0422 -0.8566
vn 0.5800 0.0346 0.8139
vn 0.5799 0.0363 0.8139
vn 0.5807 0.0177 0.8139
vn -0.0482 0.9988 -0.0050
vn -0.9984 0.0040 -0.0572
vn -0.7784 0.0026 0.6277
vn -0.7611 0.0025 0.6486
vn 0.5502 0.0027 0.8350
vn 0.9670 0.0044 0.2549
vn 0.5669 0.0028 0.8238
vn 0.1456 0.0002 -0.9894
vn -0.1560 -0.1651 -0.9739
vn -0.4288 -0.1648 -0.8882
vn -0.3959 0.4135 -0.8199
vn -0.1482 0.3662 -0.9186
vn 0.5277 -0.2060 0.8241
vn 0.8487 -0.2156 0.4829
vn 0.7708 0.4620 0.4386
vn 0.4918 0.4163 0.7648
vn -0.9451 -0.2131 0.2477
vn -0.6254 -0.1937 -0.7559
vn -0.0496 -0.1665 0.9848
vn 0.7124 -0.1624 -0.6827
vn 0.9495 -0.2053 -0.2371
vn -0.3824 -0.1612 0.9098
vn 0.7375 -0.1438 -0.6598
vn -0.1938 -0.1559 -0.9686
vn 0.6729 0.3691 -0.6410
vn -0.0597 0.8914 -0.4494
vn 0.3040 0.8971 -0.3207
vn -0.0438 0.3914 0.9192
vn 0.1742 0.9232 0.3426
vn -0.0288 0.9211 0.3883
vn -0.3590 0.3768 0.8539
vn -0.8811 0.4130 0.2303
vn 0.6725 0.3682 -0.6420
vn 0.8886 0.4022 -0.2206
vn -0.5854 0.4047 -0.7025
vn -0.1813 0.3820 -0.9062
vn -0.0752 0.9236 -0.3759
vn -0.2199 0.9133 -0.3429
vn -0.3650 0.9193 0.1473
vn -0.1598 0.9106 0.3811
vn 0.2612 0.9538 0.1486
vn 0.3907 0.8872 -0.2456
vn 0.3258 0.9150 -0.2379
vn -0.1665 0.9238 -0.3449
vn -0.9943 -0.1016 -0.0329
vn -0.5204 -0.0933 0.8488
vn -0.5344 0.3689 0.7605
vn -0.9239 0.3598 -0.1300
vn 0.4168 -0.1383 -0.8984
vn 0.9165 -0.1348 -0.3767
vn 0.9348 -0.1397 0.3267
vn 0.3188 -0.1440 0.9368
vn -0.9335 -0.0856 -0.3481
vn 0.1191 -0.1499 -0.9815
vn -0.9930 0.0050 0.1183
vn 0.7749 0.5253 0.3515
vn 0.7850 0.5459 -0.2928
vn 0.1378 0.9864 -0.0893
vn 0.1250 0.9676 0.2195
vn -0.8791 0.4301 -0.2055
vn -0.5898 0.4392 -0.6776
vn 0.3418 0.4949 -0.7989
vn 0.2125 0.4294 0.8778
vn -0.0097 0.9662 -0.2577
vn -0.4990 0.8522 -0.1575
vn -0.5127 0.8550 -0.0781
vn -0.5927 0.8039 0.0502
vn -0.4363 0.8141 0.3832
vn -0.0790 0.9016 0.4253
vn -0.0264 0.9997 0.0002
vn 0.4332 0.0003 0.9013
vn 0.8299 0.0001 0.5579
vn 0.8309 0.0001 0.5565
vn 0.4399 0.0003 0.8980
vn 0.6343 0.0001 -0.7731
vn -0.0327 -0.0014 -0.9995
vn -0.0296 -0.0014 -0.9996
vn 0.6371 0.0001 -0.7708
vn -0.8895 -0.0000 0.4570
vn -0.3511 0.0006 0.9363
vn -0.3440 0.0006 0.9390
vn -0.8877 -0.0000 0.4603
vn 0.9770 0.0005 0.2132
vn 0.9748 0.0009 -0.2232
vn 0.9748 0.0009 -0.2233
vn 0.9774 0.0005 0.2114
vn -0.9693 0.0006 -0.2459
vn -0.5713 0.0006 -0.8207
vn -0.8033 0.0010 -0.5956
vn -0.5686 0.0006 -0.8226
vn -0.2806 -0.0006 -0.9598
vn 0.4029 0.7764 0.4847
vn 0.6517 0.7041 0.2820
vn 0.6472 0.7149 -0.2648
vn 0.2724 0.6881 -0.6725
vn -0.5985 0.6823 -0.4198
vn -0.6410 0.7237 0.2555
vn -0.4267 0.7038 0.5680
vn 0.1525 0.7020 0.6957
vn -0.9240 0.1730 0.3410
vn -0.5608 0.1894 0.8060
vn 0.8940 0.2322 0.3832
vn 0.9211 0.1931 -0.3380
vn 0.3288 0.2166 -0.9192
vn -0.1680 0.2175 -0.9615
vn 0.2097 0.2290 0.9506
vn -0.9711 0.1877 0.1474
vn 0.6256 0.2056 0.7526
vn -0.0379 0.9979 0.0526
vn 0.4794 0.0121 -0.8775
vn 0.0770 0.0022 -0.9970
vn 0.1016 0.0023 -0.9948
vn 0.4745 0.0123 -0.8802
vn -0.4111 0.0148 0.9115
vn -0.3011 0.0050 0.9536
vn -0.3006 0.0050 0.9537
vn -0.4226 0.0147 0.9062
vn -0.1404 -0.0068 0.9901
vn 0.8299 -0.0022 0.5579
vn 0.8331 -0.0023 0.5531
vn -0.1436 -0.0068 0.9896
vn 0.2473 0.0192 -0.9687
vn -0.9638 0.0028 -0.2666
vn -0.9503 0.0026 -0.3115
vn 0.9788 -0.0027 0.2046
vn -0.0646 0.9969 -0.0446
vn -0.4462 0.5859 -0.6764
vn -0.8123 0.5829 0.0188
vn 0.9883 0.0029 -0.1528
vn 0.5262 0.0020 -0.8503
vn 0.5637 0.0018 -0.8259
vn 0.9898 0.0031 -0.1427
vn -0.5517 0.0083 -0.8340
vn -0.9987 0.0055 0.0515
vn 0.8306 0.0066 0.5569
vn 0.8255 0.0065 0.5644
vn -0.2576 0.0025 0.9662
vn -0.2420 0.0026 0.9703
vn -0.5525 0.6807 0.4811
vn 0.3584 0.6364 0.6830
vn 0.5501 0.6345 0.5429
vn 0.6166 0.6755 -0.4044
vn 0.1591 0.7198 -0.6757
vn -0.3430 0.6923 -0.6348
vn -0.6968 0.7061 -0.1259
vn 0.3915 0.1572 0.9066
vn 0.6057 0.0483 0.7942
vn 0.6181 0.0487 0.7846
vn 0.7694 0.1480 0.6214
vn 0.8350 0.1926 -0.5155
vn 0.2050 0.1637 -0.9650
vn -0.4785 0.2141 -0.8516
vn -0.9606 0.1968 -0.1964
vn -0.7376 0.1952 0.6464
vn -0.0173 0.9900 0.1401
vn -0.7588 0.5415 0.3620
vn -0.4918 0.5566 0.6695
vn 0.4475 0.5438 0.7099
vn 0.2431 0.0137 -0.9699
vn 0.2430 -0.0015 -0.9700
vn 0.2431 0.0139 -0.9699
vn 0.9617 -0.0041 0.2742
vn 0.9618 -0.0148 0.2735
vn 0.9617 -0.0047 0.2741
vn 0.5783 0.0084 0.8158
vn -0.9340 0.0107 0.3571
vn -0.5910 0.0097 0.8066
vn 0.2432 0.0292 -0.9695
vn -0.4063 0.6796 0.6107
vn 0.1488 0.6877 0.7106
vn 0.6783 0.6929 0.2445
vn 0.4491 0.6719 -0.5889
vn -0.3480 0.6801 -0.6452
vn -0.7081 0.7048 0.0435
vn -0.5308 0.2235 -0.8175
vn -0.9710 0.2386 0.0181
vn -0.5861 0.1599 0.7943
vn 0.2591 0.1676 0.9512
vn 0.9161 0.2470 0.3159
vn 0.6410 0.2112 -0.7380
vn -0.0475 0.9988 -0.0100
vn 0.8970 -0.0000 -0.4421
vn 0.2736 -0.0000 -0.9618
vn 0.2800 -0.0000 -0.9600
vn -0.9962 -0.0000 -0.0866
vn -0.9447 -0.0000 0.3280
vn -0.9400 -0.0000 0.3412
vn -0.4051 -0.0000 0.9143
vn 0.6292 -0.0000 0.7772
vn -0.3922 -0.0000 0.9199
vn 0.0905 -0.0000 -0.9959
vt 0.915567 0.297274
vt 0.938599 0.307319
vt 0.940321 0.280634
vt 0.916428 0.279767
vt 0.842168 0.544465
vt 0.841539 0.526447
vt 0.820073 0.530109
vt 0.817273 0.535051
vt 0.818571 0.559219
vt 0.827004 0.560290
vt 0.754897 0.611859
vt 0.766508 0.601992
vt 0.754698 0.604189
vt 0.755115 0.620315
vt 0.764292 0.634500
vt 0.784105 0.626156
vt 0.786400 0.603353
vt 0.781603 0.599182
vt 0.717615 0.638537
vt 0.746010 0.614407
vt 0.724772 0.594628
vt 0.713900 0.630283
vt 0.721074 0.646228
vt 0.739338 0.650576
vt 0.750645 0.668548
vt 0.769344 0.659272
vt 0.754340 0.622165
vt 0.618952 0.663829
vt 0.689992 0.649749
vt 0.685832 0.628840
vt 0.617992 0.642069
vt 0.499543 0.751217
vt 0.546686 0.706031
vt 0.542463 0.696136
vt 0.526290 0.694760
vt 0.510461 0.698428
vt 0.485317 0.722536
vt 0.494288 0.749815
vt 0.509773 0.753946
vt 0.514246 0.758991
vt 0.539366 0.745227
vt 0.543496 0.730547
vt 0.553819 0.722747
vt 0.500215 0.663836
vt 0.500215 0.654840
vt 0.483343 0.627279
vt 0.472377 0.630660
vt 0.451709 0.664399
vt 0.459302 0.673960
vt 0.457614 0.691955
vt 0.480812 0.688578
vt 0.383375 0.602299
vt 0.399896 0.591285
vt 0.397741 0.576441
vt 0.378347 0.576920
vt 0.366855 0.593201
vt 0.367573 0.604213
vt 0.407307 0.426713
vt 0.399775 0.444566
vt 0.402704 0.452931
vt 0.441198 0.450147
vt 0.445382 0.428386
vt 0.437014 0.420019
vt 0.576793 0.427231
vt 0.572160 0.461201
vt 0.578723 0.475100
vt 0.588760 0.475100
vt 0.615013 0.458628
vt 0.615013 0.446790
vt 0.599184 0.444215
vt 0.592235 0.420537
vt 0.629260 0.161983
vt 0.621748 0.132561
vt 0.595374 0.124381
vt 0.588295 0.133172
vt 0.585382 0.151944
vt 0.597518 0.168124
vt 0.608197 0.188187
vt 0.621788 0.187539
vt 0.481259 0.330668
vt 0.475339 0.341689
vt 0.483012 0.339238
vt 0.476335 0.306592
vt 0.453187 0.308962
vt 0.440278 0.352890
vt 0.281423 0.968980
vt 0.332258 0.920256
vt 0.326052 0.910842
vt 0.309471 0.909822
vt 0.279368 0.948257
vt 0.277837 0.962544
vt 0.310994 0.984754
vt 0.338488 0.961389
vt 0.339064 0.938393
vt 0.284469 0.974448
vt 0.322992 0.989416
vt 0.329879 0.987375
vt 0.222192 0.814144
vt 0.191276 0.862443
vt 0.214256 0.867795
vt 0.233429 0.835774
vt 0.233851 0.827065
vt 0.217627 0.809086
vt 0.208146 0.812455
vt 0.193608 0.841953
vt 0.267220 0.700189
vt 0.272098 0.698561
vt 0.267705 0.669944
vt 0.245752 0.650424
vt 0.235995 0.666037
vt 0.219162 0.659530
vt 0.211600 0.681326
vt 0.252827 0.717752
vt 0.144685 0.342527
vt 0.121831 0.388035
vt 0.136671 0.425234
vt 0.170803 0.428797
vt 0.183565 0.385661
vt 0.182675 0.367062
vt 0.627905 0.161631
vt 0.620894 0.185608
vt 0.608142 0.186216
vt 0.598123 0.167392
vt 0.586738 0.152212
vt 0.589470 0.134600
vt 0.596112 0.126351
vt 0.620857 0.134026
vt 0.631249 0.144849
vt 0.616201 0.144849
vt 0.615653 0.167719
vt 0.629771 0.167719
vt 0.604067 0.144849
vt 0.589988 0.144849
vt 0.591058 0.167719
vt 0.604268 0.167719
vt 0.589529 0.144849
vt 0.611596 0.144849
vt 0.611332 0.167719
vt 0.590628 0.167719
vt 0.621788 0.144849
vt 0.608197 0.144849
vt 0.608142 0.167719
vt 0.620894 0.167719
vt 0.597518 0.144849
vt 0.585382 0.144849
vt 0.586738 0.167719
vt 0.598123 0.167719
vt 0.588295 0.144849
vt 0.595374 0.144849
vt 0.596112 0.167719
vt 0.589470 0.167719
vt 0.621748 0.144849
vt 0.620857 0.167719
vt 0.630763 0.144849
vt 0.629315 0.167719
vt 0.916015 0.296835
vt 0.917146 0.279916
vt 0.940038 0.281369
vt 0.937921 0.307148
vt 0.930742 0.286010
vt 0.917612 0.286010
vt 0.917724 0.296349
vt 0.930412 0.296669
vt 0.918262 0.286010
vt 0.938276 0.286010
vt 0.938147 0.301076
vt 0.918813 0.300663
vt 0.916428 0.286010
vt 0.940321 0.286010
vt 0.940038 0.300663
vt 0.917146 0.296349
vt 0.938599 0.286010
vt 0.915567 0.286010
vt 0.916015 0.296669
vt 0.937921 0.301076
vt 0.839909 0.544212
vt 0.827585 0.557073
vt 0.820730 0.556203
vt 0.819675 0.536560
vt 0.821952 0.532543
vt 0.839398 0.529567
vt 0.821803 0.539751
vt 0.842729 0.533079
vt 0.842211 0.545248
vt 0.825203 0.550671
vt 0.840267 0.533864
vt 0.823239 0.539293
vt 0.826370 0.550299
vt 0.840210 0.545886
vt 0.837908 0.534616
vt 0.820469 0.540176
vt 0.824119 0.551017
vt 0.838293 0.546497
vt 0.819853 0.540372
vt 0.832779 0.536251
vt 0.834124 0.547827
vt 0.823619 0.551176
vt 0.815443 0.541779
vt 0.820034 0.552319
vt 0.818315 0.540863
vt 0.822368 0.551575
vt 0.784105 0.620178
vt 0.764292 0.620178
vt 0.765209 0.624484
vt 0.782119 0.624484
vt 0.781603 0.620178
vt 0.786400 0.620178
vt 0.784077 0.624484
vt 0.779983 0.624484
vt 0.766508 0.609197
vt 0.781603 0.609197
vt 0.766508 0.620178
vt 0.760433 0.609197
vt 0.777535 0.609197
vt 0.777535 0.620178
vt 0.760433 0.620178
vt 0.783793 0.609197
vt 0.773154 0.609197
vt 0.773154 0.620178
vt 0.783793 0.620178
vt 0.754698 0.609197
vt 0.754698 0.620178
vt 0.786400 0.609197
vt 0.784105 0.609197
vt 0.764292 0.609197
vt 0.766812 0.609197
vt 0.766812 0.620178
vt 0.761060 0.609197
vt 0.761060 0.620178
vt 0.757191 0.612589
vt 0.757021 0.606043
vt 0.767100 0.604168
vt 0.779983 0.601770
vt 0.784077 0.605329
vt 0.782119 0.624790
vt 0.765209 0.631912
vt 0.757377 0.619806
vt 0.767360 0.624484
vt 0.772772 0.624484
vt 0.762450 0.624484
vt 0.767100 0.624484
vt 0.776511 0.624484
vt 0.761915 0.624484
vt 0.781852 0.624484
vt 0.757021 0.624484
vt 0.718485 0.637635
vt 0.715053 0.629612
vt 0.726038 0.595654
vt 0.746091 0.615198
vt 0.753957 0.622864
vt 0.767760 0.658888
vt 0.749684 0.667311
vt 0.739125 0.649760
vt 0.721681 0.645111
vt 0.769344 0.623439
vt 0.750645 0.623439
vt 0.749684 0.638498
vt 0.767760 0.639737
vt 0.752603 0.623439
vt 0.746834 0.623439
vt 0.746158 0.635174
vt 0.751764 0.635633
vt 0.740644 0.623439
vt 0.713902 0.623439
vt 0.714672 0.634660
vt 0.740140 0.634680
vt 0.734555 0.623439
vt 0.762386 0.623439
vt 0.762097 0.639737
vt 0.735080 0.637652
vt 0.739338 0.623439
vt 0.721074 0.623439
vt 0.721681 0.635633
vt 0.739125 0.637171
vt 0.746010 0.623439
vt 0.754340 0.623439
vt 0.753957 0.637652
vt 0.746091 0.636809
vt 0.769342 0.623439
vt 0.755864 0.623439
vt 0.755251 0.637171
vt 0.768414 0.638498
vt 0.724772 0.623439
vt 0.726038 0.634660
vt 0.618955 0.663681
vt 0.618043 0.641917
vt 0.685833 0.628975
vt 0.689942 0.649901
vt 0.667113 0.638514
vt 0.650792 0.638514
vt 0.650678 0.649567
vt 0.667001 0.649517
vt 0.640871 0.638514
vt 0.656552 0.638514
vt 0.656667 0.654155
vt 0.640972 0.653995
vt 0.617992 0.638514
vt 0.685832 0.638514
vt 0.685833 0.653995
vt 0.618043 0.649567
vt 0.689992 0.638514
vt 0.618952 0.638514
vt 0.618955 0.649517
vt 0.689942 0.654155
vt 0.513752 0.717536
vt 0.508864 0.717536
vt 0.508864 0.738347
vt 0.513752 0.738347
vt 0.494374 0.717536
vt 0.502484 0.717536
vt 0.502484 0.738347
vt 0.494374 0.738347
vt 0.536772 0.709194
vt 0.516313 0.709194
vt 0.516011 0.717536
vt 0.538369 0.717536
vt 0.526290 0.709194
vt 0.542463 0.709194
vt 0.544588 0.717536
vt 0.526914 0.717536
vt 0.539366 0.709194
vt 0.514246 0.709194
vt 0.541203 0.717536
vt 0.503935 0.709194
vt 0.516471 0.709194
vt 0.516184 0.717536
vt 0.496514 0.709194
vt 0.509773 0.709194
vt 0.485317 0.709194
vt 0.510461 0.709194
vt 0.509616 0.717536
vt 0.482139 0.717536
vt 0.553819 0.709194
vt 0.543496 0.709194
vt 0.545716 0.717536
vt 0.556997 0.717536
vt 0.499543 0.709194
vt 0.494288 0.709194
vt 0.491942 0.717536
vt 0.497685 0.717536
vt 0.522322 0.709194
vt 0.533331 0.709194
vt 0.534608 0.717536
vt 0.522577 0.717536
vt 0.541203 0.746929
vt 0.513752 0.761971
vt 0.514884 0.755140
vt 0.536991 0.743026
vt 0.526914 0.691780
vt 0.544588 0.693284
vt 0.539717 0.699823
vt 0.525484 0.698611
vt 0.509616 0.738347
vt 0.482139 0.738347
vt 0.545716 0.738347
vt 0.556997 0.738347
vt 0.491942 0.738347
vt 0.497685 0.738347
vt 0.526914 0.738347
vt 0.534608 0.738347
vt 0.522577 0.738347
vt 0.516011 0.738347
vt 0.538369 0.738347
vt 0.544588 0.738347
vt 0.541203 0.738347
vt 0.516184 0.738347
vt 0.501945 0.748298
vt 0.497320 0.747064
vt 0.489425 0.723057
vt 0.511553 0.701839
vt 0.543434 0.708531
vt 0.549711 0.723242
vt 0.540626 0.730107
vt 0.510947 0.750700
vt 0.549203 0.704097
vt 0.556997 0.722363
vt 0.508864 0.756458
vt 0.482139 0.722133
vt 0.509616 0.695788
vt 0.540626 0.744557
vt 0.549711 0.744557
vt 0.497685 0.753476
vt 0.491942 0.751943
vt 0.545716 0.730888
vt 0.479605 0.650032
vt 0.452968 0.650032
vt 0.453829 0.660913
vt 0.480718 0.658020
vt 0.500215 0.645350
vt 0.480812 0.645350
vt 0.481068 0.650032
vt 0.501492 0.650032
vt 0.451576 0.645350
vt 0.472246 0.645350
vt 0.472058 0.650032
vt 0.450299 0.650032
vt 0.459302 0.645350
vt 0.451709 0.645350
vt 0.450432 0.650032
vt 0.458424 0.650032
vt 0.457614 0.645350
vt 0.456648 0.650032
vt 0.478994 0.645350
vt 0.479160 0.650032
vt 0.472377 0.645350
vt 0.483343 0.645350
vt 0.483732 0.650032
vt 0.472188 0.650032
vt 0.479416 0.645350
vt 0.454112 0.645350
vt 0.500083 0.645350
vt 0.486587 0.645350
vt 0.487154 0.650032
vt 0.501360 0.650032
vt 0.500453 0.653348
vt 0.500651 0.662568
vt 0.495525 0.661737
vt 0.495363 0.654191
vt 0.487716 0.660951
vt 0.501625 0.662012
vt 0.481673 0.668194
vt 0.500651 0.671500
vt 0.471128 0.670734
vt 0.450724 0.663684
vt 0.451856 0.658020
vt 0.459706 0.660951
vt 0.458405 0.662012
vt 0.478043 0.671500
vt 0.482869 0.663684
vt 0.471908 0.660913
vt 0.479992 0.683470
vt 0.460947 0.687473
vt 0.462012 0.672294
vt 0.455587 0.664656
vt 0.472000 0.635313
vt 0.480971 0.631924
vt 0.471908 0.630284
vt 0.482869 0.626143
vt 0.457602 0.665572
vt 0.479609 0.663204
vt 0.485337 0.665603
vt 0.496721 0.666471
vt 0.481673 0.689121
vt 0.459706 0.675466
vt 0.451856 0.666134
vt 0.458405 0.694011
vt 0.281408 0.968920
vt 0.277832 0.962476
vt 0.279379 0.948192
vt 0.309520 0.909824
vt 0.326095 0.910881
vt 0.332286 0.920308
vt 0.310949 0.984759
vt 0.284447 0.974395
vt 0.339067 0.938461
vt 0.338463 0.961455
vt 0.329825 0.987422
vt 0.322937 0.989448
vt 0.279354 0.938589
vt 0.286415 0.938589
vt 0.286454 0.960439
vt 0.279383 0.960219
vt 0.329879 0.938589
vt 0.322992 0.938589
vt 0.322937 0.960124
vt 0.329825 0.960366
vt 0.279368 0.938589
vt 0.309471 0.938589
vt 0.309520 0.959636
vt 0.279379 0.958584
vt 0.300018 0.938589
vt 0.317265 0.938589
vt 0.317314 0.960664
vt 0.300069 0.960681
vt 0.326052 0.938589
vt 0.326095 0.960219
vt 0.336755 0.938589
vt 0.336790 0.960366
vt 0.318131 0.938589
vt 0.307416 0.938589
vt 0.307367 0.958584
vt 0.318080 0.958533
vt 0.327059 0.938589
vt 0.322958 0.938589
vt 0.322913 0.958660
vt 0.327020 0.958768
vt 0.310994 0.938589
vt 0.310949 0.959702
vt 0.284469 0.938589
vt 0.284447 0.958768
vt 0.221068 0.816980
vt 0.231366 0.828392
vt 0.230994 0.836085
vt 0.214059 0.864369
vt 0.193760 0.859642
vt 0.195821 0.841543
vt 0.208662 0.815488
vt 0.217036 0.812512
vt 0.215198 0.830969
vt 0.193074 0.830969
vt 0.195349 0.845912
vt 0.214890 0.845912
vt 0.204031 0.830969
vt 0.210563 0.830969
vt 0.210797 0.845912
vt 0.205027 0.845912
vt 0.214256 0.830969
vt 0.191276 0.830969
vt 0.193760 0.845912
vt 0.214059 0.845912
vt 0.208146 0.830969
vt 0.217627 0.830969
vt 0.217036 0.845912
vt 0.208662 0.845912
vt 0.230565 0.830969
vt 0.228464 0.845912
vt 0.222192 0.830969
vt 0.233851 0.830969
vt 0.231366 0.845912
vt 0.221068 0.845912
vt 0.234579 0.830969
vt 0.232010 0.845912
vt 0.267299 0.699815
vt 0.253026 0.717551
vt 0.211603 0.681745
vt 0.219023 0.659876
vt 0.235884 0.666142
vt 0.245537 0.650417
vt 0.267595 0.669607
vt 0.272164 0.698123
vt 0.267220 0.674402
vt 0.252827 0.674402
vt 0.253026 0.693767
vt 0.267299 0.693554
vt 0.219162 0.674402
vt 0.235995 0.674402
vt 0.235884 0.690191
vt 0.219023 0.689008
vt 0.245752 0.674402
vt 0.267705 0.674402
vt 0.267595 0.691977
vt 0.245537 0.689850
vt 0.272098 0.674402
vt 0.272164 0.693711
vt 0.211600 0.674402
vt 0.211603 0.689785
vt 0.239813 0.674402
vt 0.223466 0.674402
vt 0.223725 0.689008
vt 0.240127 0.689785
vt 0.228346 0.674402
vt 0.216636 0.674402
vt 0.216631 0.689850
vt 0.228425 0.690191
vt 0.231276 0.674402
vt 0.252739 0.674402
vt 0.252411 0.693711
vt 0.231024 0.691977
vt 0.144442 0.342626
vt 0.182499 0.366874
vt 0.183499 0.385449
vt 0.171024 0.428629
vt 0.136944 0.425304
vt 0.121911 0.388245
vt 0.152697 0.375260
vt 0.185049 0.375260
vt 0.184923 0.392312
vt 0.152538 0.395320
vt 0.182377 0.375260
vt 0.154478 0.375260
vt 0.154635 0.389872
vt 0.182430 0.389515
vt 0.138748 0.375260
vt 0.138608 0.396064
vt 0.170803 0.375260
vt 0.136671 0.375260
vt 0.136944 0.389515
vt 0.171024 0.392312
vt 0.120347 0.375260
vt 0.120421 0.393858
vt 0.144685 0.375260
vt 0.182675 0.375260
vt 0.182499 0.396064
vt 0.144442 0.393858
vt 0.577966 0.428669
vt 0.592330 0.422442
vt 0.598793 0.444467
vt 0.613516 0.446862
vt 0.613516 0.457873
vt 0.589098 0.473195
vt 0.579761 0.473195
vt 0.573656 0.460266
vt 0.573125 0.442482
vt 0.590883 0.442482
vt 0.591072 0.453155
vt 0.574554 0.453155
vt 0.592815 0.442482
vt 0.601693 0.442482
vt 0.601127 0.453155
vt 0.592869 0.453155
vt 0.588760 0.442482
vt 0.578723 0.442482
vt 0.579761 0.453155
vt 0.589098 0.453155
vt 0.603623 0.442482
vt 0.578146 0.442482
vt 0.579224 0.453155
vt 0.602922 0.453155
vt 0.576793 0.442482
vt 0.592235 0.442482
vt 0.592330 0.453155
vt 0.577966 0.453155
vt 0.599184 0.442482
vt 0.615013 0.442482
vt 0.613516 0.453155
vt 0.598793 0.453155
vt 0.615013 0.442482
vt 0.614048 0.442482
vt 0.612618 0.453155
vt 0.481266 0.330059
vt 0.483152 0.338488
vt 0.475520 0.341149
vt 0.440645 0.353310
vt 0.452867 0.309431
vt 0.475969 0.306377
vt 0.475339 0.319532
vt 0.440278 0.319532
vt 0.440645 0.340155
vt 0.475520 0.339246
vt 0.462333 0.319532
vt 0.468760 0.319532
vt 0.468198 0.339047
vt 0.461876 0.337810
vt 0.444276 0.319532
vt 0.444115 0.334337
vt 0.479000 0.319532
vt 0.446053 0.319532
vt 0.446405 0.334232
vt 0.479315 0.340155
vt 0.483012 0.319532
vt 0.483152 0.339047
vt 0.453187 0.319532
vt 0.476335 0.319532
vt 0.475969 0.334337
vt 0.452867 0.334232
vt 0.409364 0.428028
vt 0.435069 0.422235
vt 0.442310 0.429476
vt 0.438690 0.448305
vt 0.405381 0.450714
vt 0.402847 0.443476
vt 0.434921 0.428183
vt 0.428647 0.428183
vt 0.427829 0.444767
vt 0.433258 0.444767
vt 0.407307 0.428183
vt 0.437014 0.428183
vt 0.435069 0.444767
vt 0.409364 0.444767
vt 0.416512 0.428183
vt 0.432833 0.428183
vt 0.431452 0.444767
vt 0.417329 0.444767
vt 0.441198 0.428183
vt 0.402704 0.428183
vt 0.405381 0.444767
vt 0.438690 0.444767
vt 0.415257 0.428183
vt 0.416243 0.444767
vt 0.445382 0.428183
vt 0.442310 0.444767
vt 0.399896 0.585033
vt 0.383375 0.585033
vt 0.383375 0.595621
vt 0.399896 0.595621
vt 0.393790 0.585033
vt 0.385531 0.585033
vt 0.385531 0.593336
vt 0.393790 0.593336
vt 0.378347 0.585033
vt 0.397741 0.585033
vt 0.397741 0.595621
vt 0.378347 0.595621
vt 0.367573 0.585033
vt 0.367573 0.593336
vt 0.373320 0.585033
vt 0.373320 0.595621
vt 0.372961 0.585033
vt 0.384094 0.585033
vt 0.384094 0.595621
vt 0.372961 0.595621
s 1
usemtl debris_01
f 3/1/1 2/2/1 1/3/1 4/4/1
f 9/5/1 10/6/1 5/7/1 6/8/1 7/9/1 8/10/1
f 12/11/1 11/12/1 13/13/1
f 11/12/1 12/11/1 14/14/1 15/15/1 16/16/1 17/17/1 18/18/1
f 20/19/1 19/20/1 21/21/1 22/22/1
f 19/20/1 20/19/1 23/23/1 24/24/1 25/25/1 26/26/1 27/27/1
f 30/28/1 29/29/1 28/30/1 31/31/1
f 33/32/2 32/33/3 37/34/4 36/35/5 35/36/6 34/37/7 38/38/8
f 32/33/3 33/32/2 43/39/9 42/40/10 41/41/11 40/42/12 39/43/13
f 47/44/14 46/45/15 45/46/16 44/47/17 51/48/18 50/49/19 49/50/20 48/51/21
f 57/52/1 52/53/1 53/54/1 54/55/1 55/56/1 56/57/1
f 61/58/1 62/59/1 63/60/1 58/61/1 59/62/1 60/63/1
f 64/64/1 65/65/1 66/66/1 67/67/1 68/68/1 69/69/1 70/70/1 71/71/1
f 78/72/1 79/73/1 72/74/1 73/75/1 74/76/1 75/77/1 76/78/1 77/79/1
f 80/80/1 81/81/1 82/82/1
f 81/81/1 80/80/1 85/83/1 83/84/1 84/85/1
f 87/86/1 86/87/1 93/88/1 90/89/1 91/90/1 92/91/1
f 89/92/1 88/93/1 95/94/1 86/87/1 87/86/1 94/95/1
f 88/93/1 89/92/1 96/96/1 97/97/1
f 98/98/1 99/99/1 100/100/1 101/101/1 102/102/1
f 99/99/1 98/98/1 105/103/1 103/104/1 104/105/1
f 108/106/1 109/107/1 110/108/1 111/109/1 112/110/1 113/111/1 106/112/1 107/113/1
f 114/114/1 115/115/1 116/116/1 117/117/1 118/118/1 119/119/1
f 126/120/22 125/121/23 124/122/24 123/123/25 122/124/26 121/125/27 120/126/28 127/127/29
f 76/128/30 75/129/31 123/130/32 124/131/24
f 74/132/33 73/133/34 121/134/27 122/135/26
f 79/136/35 78/137/36 126/138/22 127/139/29
f 77/140/37 76/141/30 124/142/24 125/143/23
f 75/144/31 74/145/33 122/146/26 123/147/32
f 73/148/34 72/149/38 120/150/28 121/151/27
f 72/149/38 79/152/35 127/153/29 120/150/28
f 78/137/36 77/154/37 125/155/23 126/138/22
f 130/156/39 131/157/40 128/158/41 129/159/41
f 3/160/42 4/161/43 131/162/40 130/163/39
f 1/164/44 2/165/44 129/166/44 128/167/44
f 4/168/45 1/169/45 128/170/45 131/171/45
f 2/172/46 3/173/42 130/174/39 129/175/46
f 136/176/47 135/177/48 134/178/49 133/179/50 132/180/51 137/181/52
f 5/182/53 10/183/54 137/184/52 132/185/51
f 9/186/55 8/187/56 135/188/48 136/189/47
f 7/190/57 6/191/58 133/192/50 134/193/49
f 10/194/59 9/195/55 136/196/47 137/197/52
f 8/187/56 7/198/57 134/199/49 135/188/48
f 6/200/58 5/182/53 132/185/51 133/201/50
f 143/202/60 142/203/61 150/204/62 151/205/63
f 145/206/64 144/207/65 152/208/66 153/209/67
f 11/210/68 18/211/69 145/206/64 138/212/70
f 17/213/71 16/214/72 143/215/60 144/216/65
f 15/217/73 14/218/74 141/219/75 142/220/61
f 13/221/76 11/210/68 138/212/70 140/222/77
f 18/211/69 17/223/71 144/207/65 145/206/64
f 16/224/72 15/225/73 142/203/61 143/202/60
f 14/218/74 12/226/78 139/227/79 141/219/75
f 12/226/78 13/228/76 140/229/77 139/227/79
f 147/230/80 148/231/81 146/232/82
f 146/232/82 153/233/67 152/234/66 151/235/63 150/236/62 149/237/83 147/230/80
f 141/219/75 139/227/79 147/238/80 149/239/83
f 139/227/79 140/229/77 148/240/81 147/238/80
f 138/212/70 145/206/64 153/209/67 146/241/82
f 144/216/65 143/215/60 151/242/63 152/243/66
f 142/220/61 141/219/75 149/239/83 150/244/62
f 140/222/77 138/212/70 146/241/82 148/245/81
f 155/246/84 157/247/85 156/248/86 154/249/87
f 154/249/87 162/250/87 161/251/87 160/252/87 159/253/87 158/254/88 155/246/84
f 26/255/89 25/256/90 160/257/91 161/258/89
f 23/259/92 20/260/93 155/261/84 158/262/88
f 22/263/94 21/264/95 156/265/86 157/266/85
f 27/267/96 26/268/97 161/269/97 162/270/98
f 24/271/99 23/272/92 158/273/88 159/274/100
f 20/260/93 22/263/94 157/266/85 155/261/84
f 19/275/101 27/276/96 162/277/98 154/278/102
f 25/279/90 24/280/99 159/281/100 160/282/91
f 21/283/103 19/275/101 154/278/102 156/284/103
f 165/285/104 166/286/104 163/287/104 164/288/104
f 30/289/105 31/290/106 166/291/107 165/292/105
f 28/293/108 29/294/109 164/295/109 163/296/110
f 31/297/106 28/298/108 163/299/110 166/300/107
f 29/301/111 30/302/111 165/303/111 164/304/111
f 177/305/112 178/306/113 190/307/114 189/308/115
f 172/309/116 167/310/117 179/311/118 184/312/119
f 38/313/8 34/314/7 169/315/120 173/316/121
f 36/317/5 37/318/4 172/319/116 171/320/122
f 41/321/11 42/322/10 177/305/112 176/323/123
f 32/324/3 39/325/13 174/326/124 167/310/117
f 37/327/4 32/324/3 167/310/117 172/309/116
f 42/322/10 43/328/9 178/306/113 177/305/112
f 34/329/7 35/330/6 170/331/125 169/332/120
f 39/333/13 40/334/12 175/335/126 174/336/124
f 33/337/2 38/338/8 173/339/121 168/340/127
f 43/328/9 33/337/2 168/340/127 178/306/113
f 35/330/6 36/317/5 171/320/122 170/331/125
f 40/341/12 41/342/11 176/343/123 175/344/126
f 188/345/128 189/346/115 201/347/129 200/348/130
f 183/349/131 184/350/119 196/351/132 195/352/133
f 169/332/120 170/331/125 182/353/134 181/354/135
f 174/336/124 175/335/126 187/355/136 186/356/137
f 168/340/127 173/339/121 185/357/138 180/358/139
f 178/306/113 168/340/127 180/358/139 190/307/114
f 170/331/125 171/320/122 183/359/131 182/353/134
f 175/344/126 176/343/123 188/360/128 187/361/136
f 173/316/121 169/315/120 181/362/135 185/363/138
f 171/320/122 172/319/116 184/364/119 183/359/131
f 176/323/123 177/305/112 189/308/115 188/365/128
f 167/310/117 174/326/124 186/366/137 179/311/118
f 192/367/140 197/368/141 193/369/142 194/370/143 195/352/133 196/351/132 191/371/144
f 191/371/144 198/372/145 199/373/146 200/348/130 201/347/129 202/374/147 192/367/140
f 179/375/118 186/376/137 198/372/145 191/371/144
f 184/350/119 179/375/118 191/371/144 196/351/132
f 189/346/115 190/377/114 202/374/147 201/347/129
f 181/378/135 182/379/134 194/370/143 193/369/142
f 186/356/137 187/355/136 199/380/146 198/381/145
f 180/382/139 185/383/138 197/368/141 192/367/140
f 190/377/114 180/382/139 192/367/140 202/374/147
f 182/379/134 183/349/131 195/352/133 194/370/143
f 187/384/136 188/345/128 200/348/130 199/373/146
f 185/383/138 181/378/135 193/369/142 197/368/141
f 210/385/148 203/386/149 211/387/150 218/388/151
f 47/389/14 48/390/21 207/391/152 206/392/153
f 45/393/16 46/394/15 205/395/154 204/396/155
f 50/397/19 51/398/18 210/399/148 209/400/156
f 48/390/21 49/401/20 208/402/157 207/391/152
f 46/394/15 47/403/14 206/404/153 205/395/154
f 44/405/17 45/406/16 204/407/155 203/408/149
f 51/409/18 44/410/17 203/386/149 210/385/148
f 49/411/20 50/412/19 209/413/156 208/414/158
f 213/415/159 214/416/160 222/417/161 221/418/162
f 208/414/158 209/413/156 217/419/163 216/420/164
f 206/392/153 207/391/152 215/421/165 214/422/160
f 204/396/155 205/395/154 213/423/159 212/424/166
f 209/400/156 210/399/148 218/425/151 217/426/163
f 207/391/152 208/402/157 216/427/164 215/421/165
f 205/395/154 206/404/153 214/428/160 213/423/159
f 203/408/149 204/407/155 212/429/166 211/430/150
f 222/417/161 223/431/167 224/432/168 225/433/169 226/434/170 219/435/171 220/436/172 221/418/162
f 211/437/150 212/438/166 220/436/172 219/435/171
f 218/388/151 211/387/150 219/439/171 226/440/170
f 216/420/164 217/419/163 225/441/169 224/442/168
f 214/416/160 215/443/165 223/431/167 222/417/161
f 212/438/166 213/415/159 221/418/162 220/436/172
f 217/444/163 218/445/151 226/434/170 225/433/169
f 215/443/165 216/446/164 224/432/168 223/431/167
f 228/447/173 233/448/173 232/449/173 231/450/173 234/451/173 227/452/173
f 230/453/173 235/454/173 228/447/173 227/452/173 236/455/173 229/456/173
f 229/456/173 238/457/173 237/458/173 230/453/173
f 93/459/174 86/460/175 227/461/176 234/462/177
f 97/463/178 96/464/179 237/465/180 238/466/181
f 91/467/182 90/468/183 231/469/184 232/470/185
f 95/471/186 88/472/187 229/473/188 236/474/189
f 90/468/183 93/475/174 234/476/177 231/469/184
f 88/472/187 97/477/178 238/478/181 229/473/188
f 92/479/190 91/480/182 232/481/185 233/482/190
f 86/460/175 95/471/186 236/474/189 227/461/176
f 94/483/191 87/484/192 228/485/192 235/486/193
f 87/484/192 92/479/190 233/482/190 228/485/192
f 96/464/179 89/487/194 230/488/194 237/465/180
f 89/487/194 94/489/191 235/490/193 230/488/194
f 239/491/195 243/492/196 242/493/197 241/494/198 240/495/199
f 240/495/199 245/496/200 244/497/201 246/498/202 239/491/195
f 104/499/203 103/500/204 244/501/201 245/502/200
f 102/503/205 101/504/206 242/505/197 243/506/196
f 100/507/207 99/508/208 240/509/199 241/510/198
f 103/511/204 105/512/209 246/513/202 244/514/201
f 99/515/210 104/499/203 245/502/200 240/516/199
f 98/517/211 102/518/205 243/519/196 239/520/195
f 101/504/206 100/521/207 241/522/198 242/505/197
f 105/512/209 98/517/211 239/520/195 246/513/202
f 249/523/212 248/524/212 247/525/212 254/526/212 253/527/212 252/528/212 251/529/212 250/530/212
f 108/531/213 107/532/214 248/533/215 249/534/216
f 113/535/217 112/536/218 253/537/219 254/538/220
f 111/539/221 110/540/222 251/541/223 252/542/224
f 109/543/225 108/531/213 249/534/216 250/544/225
f 107/532/214 106/545/226 247/546/227 248/533/215
f 106/547/226 113/548/217 254/549/220 247/550/227
f 112/551/218 111/552/221 252/553/224 253/554/219
f 110/555/222 109/556/228 250/557/228 251/558/223
f 255/559/229 260/560/229 259/561/229 258/562/229 257/563/230 256/564/231
f 118/565/232 117/566/233 258/567/234 259/568/235
f 116/569/236 115/570/237 256/571/231 257/572/230
f 119/573/238 118/565/232 259/568/235 260/574/239
f 117/575/233 116/576/236 257/577/230 258/578/234
f 115/570/237 114/579/240 255/580/241 256/571/231
f 114/581/240 119/582/238 260/583/239 255/584/241
f 261/585/242 268/586/243 267/587/25 266/588/244 265/589/245 264/590/246 263/591/247 262/592/248
f 71/593/249 70/594/250 267/595/251 268/596/243
f 69/597/252 68/598/253 265/599/245 266/600/244
f 67/601/254 66/602/255 263/603/247 264/604/246
f 65/605/256 64/606/257 261/607/242 262/608/248
f 64/609/257 71/610/249 268/611/243 261/612/242
f 70/613/250 69/614/252 266/615/244 267/616/251
f 68/617/253 67/601/254 264/604/246 265/615/245
f 66/618/255 65/605/256 262/608/248 263/619/247
f 269/620/258 271/621/258 270/622/258
f 270/622/258 273/623/259 272/624/260 274/625/261 269/620/258
f 81/626/262 84/627/263 273/628/263 270/629/264
f 80/630/265 82/631/266 271/632/266 269/633/267
f 85/634/268 80/630/265 269/633/267 274/635/261
f 84/636/269 83/637/270 272/638/260 273/639/259
f 82/640/271 81/626/262 270/629/264 271/641/271
f 83/642/270 85/643/268 274/644/261 272/645/260
f 278/646/272 277/647/273 276/648/274 275/649/275 280/650/276 279/651/277
f 63/652/278 62/653/279 279/654/277 280/655/276
f 61/656/280 60/657/281 277/658/273 278/659/272
f 59/660/282 58/661/283 275/662/275 276/663/274
f 58/664/283 63/665/278 280/666/276 275/667/275
f 62/653/279 61/668/280 278/669/272 279/654/277
f 60/657/281 59/670/282 276/671/274 277/658/273
f 286/52/284 285/57/284 284/56/284 283/55/284 282/54/284 281/53/284
f 52/672/285 57/673/286 286/674/287 281/675/285
f 56/676/288 55/677/289 284/678/290 285/679/288
f 54/680/291 53/681/292 282/682/292 283/683/293
f 57/673/286 56/684/294 285/685/294 286/674/287
f 55/677/289 54/686/291 283/687/293 284/678/290
f 53/688/292 52/689/285 281/690/285 282/691/292
