# Blender 4.5.9 LTS
# www.blender.org
mtllib debris_05.mtl
o debris_05
v 1.177634 0.043915 -0.479264
v 0.964826 0.031834 -0.491816
v 0.907186 0.028358 -0.321452
v 0.913540 0.028604 -0.222567
v 0.630867 -0.045102 0.891884
v 0.450162 -0.045102 0.698029
v 0.519158 -0.045102 0.615891
v 0.655507 -0.045102 0.602754
v 0.782000 -0.045102 0.716103
v 0.543800 -0.045102 0.584679
v 0.644008 -0.045102 0.476258
v 0.681792 -0.045102 0.354691
v 0.619367 -0.045102 0.244630
v 0.504374 -0.045102 0.302132
v 0.405807 -0.045102 0.334977
v 0.335169 -0.045102 0.387552
v 0.361455 -0.045102 0.486115
v 0.895709 -0.045102 0.554848
v 1.062767 -0.045102 0.437303
v 1.206622 -0.045102 0.646119
v 1.093705 -0.045102 0.692528
v 1.053486 -0.045102 0.663140
v 0.990066 -0.045102 0.666230
v 0.952943 -0.045102 0.610551
v -0.138447 -0.045102 0.382898
v -0.213687 -0.045102 0.301637
v -0.237765 -0.045102 0.229394
v -0.159515 -0.045102 0.157167
v -0.091797 -0.045102 0.133104
v -0.018061 -0.045102 0.271539
v -0.813119 -0.045102 0.447335
v -0.931294 -0.045102 0.253206
v -0.792017 -0.045102 0.160356
v -0.735040 -0.045102 0.225778
v -0.682283 -0.045102 0.225778
v -0.618975 -0.045102 0.261644
v -0.633747 -0.045102 0.346055
v -1.399773 -0.045102 0.407228
v -1.623461 -0.045102 0.208856
v -1.520058 -0.045102 0.086458
v -1.406103 -0.045102 0.139215
v -1.393441 -0.045102 0.204637
v -1.330135 -0.045102 0.318590
v -1.300594 -0.045102 -0.337713
v -1.545384 -0.045102 -0.344053
v -1.589701 -0.045102 -0.369375
v -1.589701 -0.045102 -0.538190
v -1.532722 -0.045102 -0.593060
v -1.133883 -0.045102 -0.590948
v -1.146546 -0.045102 -0.519201
v -1.224625 -0.045102 -0.466444
v -0.848940 -0.045102 -0.576627
v -1.004825 -0.045102 -0.782209
v -0.899651 -0.045102 -0.550786
v -1.024155 -0.045102 -0.770254
v -0.979841 -0.045102 -0.797682
v -0.766704 -0.045102 -0.804013
v -0.680183 -0.045102 -0.662625
v -0.383376 -0.045102 -0.148138
v -0.425495 -0.045102 -0.186888
v -0.454135 -0.045102 -0.390737
v -0.347996 -0.045102 -0.404218
v -0.307564 -0.045102 -0.350309
v -0.282294 -0.045102 -0.196997
v -0.452538 -0.045102 -0.584760
v -0.469172 -0.045102 -0.724454
v -0.091639 -0.045102 -0.759381
v -0.033429 -0.045102 -0.636304
v 0.910597 -0.045102 -0.226294
v 0.906929 -0.045102 -0.325315
v 0.969282 -0.045102 -0.494047
v 1.182014 -0.045102 -0.475706
v 1.191182 -0.045102 -0.387678
v 1.128831 -0.045102 -0.195120
v 1.068312 -0.045102 -0.154768
v 1.347067 -0.045102 0.553086
v 1.299385 -0.045102 0.397203
v 1.259040 -0.045102 0.259660
v 1.486444 -0.045102 0.191804
v 1.567134 -0.045102 0.446717
v 1.493779 -0.045102 0.516404
v 0.094835 -0.045102 0.034021
v 0.063175 -0.045102 -0.025473
v 0.186013 -0.045102 -0.117918
v 0.201210 -0.045102 -0.073599
v 0.260729 -0.045102 -0.041937
v 0.261995 -0.045102 0.002382
v 0.184746 -0.045102 0.034044
v -0.792695 -0.045102 0.902833
v -0.801289 -0.045102 1.000794
v -0.856286 -0.045102 1.009385
v -0.968002 -0.045102 0.873612
v -0.969721 -0.045102 0.756730
v -0.766915 -0.045102 0.767052
v 0.658338 -0.045102 -0.782384
v 0.726965 -0.045102 -0.825092
v 0.756680 -0.045102 -0.448118
v 0.706858 -0.045102 -0.451048
v 0.646781 -0.045102 -0.591711
v 0.890023 -0.045102 -0.804189
v 0.912003 -0.045102 -0.622487
v 0.827014 -0.045102 -0.609311
v 0.809431 -0.045102 -0.512586
v 0.661434 -0.045102 -0.833493
v 1.189179 0.044468 -0.391518
v 1.132190 0.041002 -0.197336
v 1.072888 0.037582 -0.155354
v 0.664543 0.023137 -0.775127
v 0.729652 0.023137 -0.815647
v 0.757844 0.023137 -0.457995
v 0.710576 0.023137 -0.460774
v 0.653578 0.023137 -0.594227
v 0.884352 0.023137 -0.795815
v 0.905206 0.023137 -0.623427
v 0.824573 0.023137 -0.610926
v 0.807892 0.023137 -0.519158
v 0.667480 0.023137 -0.823617
v -0.451680 0.044788 -0.588875
v -0.466076 0.041100 -0.727378
v -0.092052 0.025972 -0.755935
v -0.036278 0.027601 -0.633214
v -0.848940 0.047395 -0.576627
v -1.004825 0.047395 -0.782209
v -0.899651 0.047395 -0.550786
v -1.024155 0.047395 -0.770254
v -0.979841 0.047395 -0.797682
v -0.766704 0.047395 -0.804013
v -0.680183 0.047395 -0.662625
v -1.301262 0.067561 -0.337396
v -1.545961 0.072676 -0.345023
v -1.590138 0.073439 -0.370577
v -1.589275 0.072300 -0.539386
v -1.532029 0.070730 -0.593954
v -1.133294 0.062341 -0.589745
v -1.146321 0.063092 -0.518067
v -1.224652 0.065093 -0.465722
v -1.399773 0.038143 0.407228
v -1.623461 0.038143 0.208856
v -1.520058 0.038143 0.086458
v -1.406103 0.038143 0.139215
v -1.393441 0.038143 0.204637
v -1.330135 0.038143 0.318590
v -0.810987 0.026005 0.447883
v -0.931862 0.018529 0.255568
v -0.794089 0.023587 0.160636
v -0.736221 0.026862 0.225188
v -0.683521 0.029189 0.224392
v -0.619759 0.032399 0.259298
v -0.633286 0.032732 0.343917
v -0.792695 0.030933 0.902833
v -0.801289 0.030933 1.000794
v -0.856286 0.030933 1.009385
v -0.968002 0.030933 0.873612
v -0.969721 0.030933 0.756730
v -0.766915 0.030933 0.767052
v -0.383376 0.033336 -0.148138
v -0.425495 0.033336 -0.186888
v -0.454135 0.033336 -0.390737
v -0.347996 0.033336 -0.404218
v -0.307564 0.033336 -0.350309
v -0.282294 0.033336 -0.196997
v -0.138447 0.009400 0.382898
v -0.213687 0.009400 0.301637
v -0.237765 0.009400 0.229394
v -0.159515 0.009400 0.157167
v -0.091797 0.009400 0.133104
v -0.018061 0.009400 0.271539
v 0.100174 0.000398 0.032310
v 0.068564 -0.002147 -0.023746
v 0.182944 0.010612 -0.115069
v 0.198520 0.011693 -0.073105
v 0.255895 0.017192 -0.044319
v 0.258232 0.016920 -0.002014
v 0.185625 0.009133 0.030127
v 0.543120 0.058278 0.574467
v 0.636532 0.061800 0.471562
v 0.671090 0.063385 0.356784
v 0.611436 0.061758 0.253654
v 0.503690 0.057931 0.308734
v 0.411199 0.054703 0.340462
v 0.345154 0.052297 0.390541
v 0.370703 0.052815 0.483137
v 0.630867 0.064087 0.891884
v 0.450162 0.064087 0.698029
v 0.519158 0.064087 0.615891
v 0.655507 0.064087 0.602754
v 0.782000 0.064087 0.716103
v 0.895709 0.055235 0.554848
v 1.062767 0.055235 0.437303
v 1.206622 0.055235 0.646119
v 1.093705 0.055235 0.692528
v 1.053486 0.055235 0.663140
v 0.990066 0.055235 0.666230
v 0.952943 0.055235 0.610551
v 1.347067 0.070914 0.553086
v 1.299385 0.070914 0.397203
v 1.259040 0.070914 0.259660
v 1.486444 0.070914 0.191804
v 1.567134 0.070914 0.446717
v 1.493779 0.070914 0.516404
vn 0.9881 0.0968 -0.1195
vn 0.6951 0.1442 -0.7043
vn 0.5487 0.6451 -0.5318
vn 0.6655 0.7420 -0.0805
vn -0.0000 -1.0000 -0.0000
vn 0.3800 0.1261 0.9164
vn 0.9009 0.0617 0.4296
vn 0.6720 0.6769 0.3003
vn 0.3156 0.6636 0.6783
vn -0.5597 0.1467 0.8156
vn -0.4403 0.6601 0.6086
vn 0.1261 0.1311 -0.9833
vn 0.0838 0.7520 -0.6538
vn -0.4998 0.6353 -0.5888
vn -0.6708 0.7405 -0.0406
vn -0.7071 0.6968 0.1204
vn -0.0000 1.0000 -0.0000
vn -0.9886 0.0027 -0.1506
vn -0.8348 0.0121 0.5505
vn -0.6601 0.5910 0.4637
vn -0.7570 0.6457 -0.1004
vn 0.7091 0.0179 -0.7049
vn -0.5262 -0.0105 -0.8503
vn -0.5524 -0.0107 -0.8335
vn 0.6842 0.0169 -0.7291
vn 0.8003 -0.0056 0.5996
vn 0.9952 0.0167 0.0962
vn 0.9962 0.0175 0.0848
vn 0.8153 -0.0050 0.5790
vn 0.0776 -0.0067 0.9970
vn 0.1293 -0.0074 0.9916
vn -0.0567 0.9984 0.0012
vn -0.9795 0.1039 0.1725
vn -0.9935 0.0967 -0.0602
vn 0.6948 0.0418 0.7180
vn 0.1531 0.0288 0.9878
vn 0.6996 0.0419 0.7133
vn 0.0381 0.9988 -0.0306
vn 0.6977 0.6351 -0.3316
vn 0.4156 0.5869 -0.6949
vn -0.9935 0.0267 0.1105
vn 0.1143 0.0077 0.9934
vn 0.4956 0.0269 -0.8681
vn -0.0841 0.0048 -0.9964
vn 0.9064 0.0397 -0.4206
vn 0.4759 -0.0000 -0.8795
vn -0.2880 -0.0000 -0.9576
vn 0.4540 -0.0000 0.8910
vn -0.8698 -0.0000 0.4934
vn 0.8530 -0.0000 -0.5220
vn -0.5263 -0.0000 -0.8503
vn -0.5260 -0.0000 -0.8505
vn 0.0211 0.9998 -0.0066
vn 0.8384 -0.0072 0.5449
vn 0.9843 -0.0056 0.1763
vn 0.8340 -0.0072 0.5517
vn -0.3710 -0.0010 -0.9286
vn -0.9203 -0.0017 -0.3912
vn -0.9196 -0.0017 -0.3929
vn -0.3721 -0.0010 -0.9282
vn -0.8645 0.0033 0.5026
vn -0.2706 0.0044 0.9627
vn -0.2754 0.0044 0.9613
vn -0.8686 0.0033 0.4954
vn 0.7261 -0.0037 0.6876
vn 0.7289 -0.0037 0.6846
vn 0.0079 0.0013 -1.0000
vn 0.4842 0.0017 0.8750
vn 0.4743 0.0017 0.8803
vn 0.7874 -0.0000 -0.6164
vn -0.2161 -0.0000 -0.9764
vn -0.6635 -0.0000 0.7482
vn 0.7863 -0.0000 0.6178
vn 0.9968 -0.0000 0.0793
vn 0.9397 -0.0000 -0.3421
vn -0.7639 -0.0000 -0.6453
vn -0.0443 0.9990 -0.0110
vn -0.8504 -0.0015 0.5261
vn 0.8170 0.0040 0.5766
vn 0.9062 -0.0048 -0.4229
vn 0.9009 -0.0050 -0.4341
vn 0.8276 0.0042 0.5613
vn 0.2513 -0.0148 -0.9678
vn 0.4031 0.0011 -0.9151
vn 0.4012 0.0010 -0.9160
vn 0.2519 -0.0148 -0.9676
vn 0.1374 0.0142 -0.9904
vn -0.5611 0.0053 -0.8277
vn 0.1317 0.0142 -0.9912
vn 0.4983 0.0006 0.8670
vn -0.3557 -0.0000 0.9346
vn 0.7305 -0.0000 0.6829
vn 0.0508 -0.0000 -0.9987
vn -0.9388 -0.0000 0.3444
vn 0.9906 -0.0000 0.1371
vn 0.9824 -0.0000 0.1865
vn -0.9999 -0.0000 0.0147
vn 0.8876 -0.0000 0.4605
vn 0.9197 -0.0000 -0.3926
vn 0.3899 -0.0000 -0.9209
vn -0.1260 -0.0000 -0.9920
vn -0.8855 -0.0000 0.4647
vn -0.1462 -0.0000 0.9893
vn -0.9903 -0.0000 0.1391
vn 0.9860 -0.0000 0.1667
vn 0.3616 -0.0000 -0.9323
vn -0.5171 -0.0000 -0.8559
vn -0.9685 -0.0000 -0.2492
vn -0.8606 -0.0000 0.5093
vn -0.7338 -0.0000 0.6794
vn 0.6790 -0.0000 0.7341
vn -0.1014 0.9948 0.0120
vn -0.5158 0.6326 -0.5777
vn -0.7983 0.5818 -0.1555
vn -0.4029 0.6170 0.6759
vn 0.0933 0.6913 0.7165
vn -0.5264 0.0954 0.8449
vn 0.1986 0.0666 0.9778
vn 0.8361 0.0864 0.5417
vn 0.8543 0.0484 -0.5175
vn 0.8368 0.0467 -0.5455
vn 0.8587 0.0860 0.5052
vn 0.7482 0.0389 -0.6623
vn 0.9401 0.0581 -0.3360
vn 0.7467 0.0388 -0.6640
vn -0.9724 0.1025 -0.2097
vn -0.6133 0.0510 -0.7882
vn 0.5666 0.7525 -0.3356
vn -0.2929 0.7097 -0.6408
vn -0.3504 0.6949 -0.6280
vn -0.7375 0.6274 -0.2500
vn -0.5941 0.6519 0.4713
vn 0.1243 0.6285 0.7678
vn -0.0336 0.9994 0.0037
vn 0.7309 0.6777 -0.0802
vn -0.4679 0.0734 -0.8807
vn -0.9410 0.1058 -0.3214
vn -0.4512 0.0478 -0.8911
vn -0.3881 0.0558 -0.9199
vn 0.8646 0.0821 0.4957
vn 0.9886 0.1003 -0.1127
vn 0.8664 0.0822 0.4925
vn -0.7848 0.0939 0.6126
vn 0.8631 0.1002 -0.4950
vn 0.1624 0.0973 0.9819
vn -0.4654 -0.0000 -0.8851
vn -0.9997 -0.0000 0.0258
vn 0.7583 -0.0000 0.6519
vn 0.3120 -0.0000 -0.9501
vn -0.7315 -0.0000 0.6819
vn 0.6674 -0.0000 -0.7447
vn -0.6975 -0.0000 0.7166
vn -0.7690 -0.0000 0.6392
vn -0.4502 -0.0000 0.8929
vn -0.2871 -0.0000 0.9579
vn -0.1203 -0.0000 0.9927
vn 0.3801 -0.0000 0.9249
vn -0.5754 -0.0000 -0.8178
vn 0.8235 -0.0000 -0.5673
vn 0.2426 -0.0000 0.9701
vn 0.4815 -0.0000 0.8764
vn 0.9684 -0.0000 0.2496
vn 0.9534 -0.0000 -0.3018
vn -0.9596 -0.0000 0.2815
vn -0.9579 -0.0000 0.2870
vn -0.2859 -0.0000 -0.9582
vn -0.9563 -0.0000 0.2925
vt 0.607166 0.683589
vt 0.607166 0.634359
vt 0.621033 0.636628
vt 0.621033 0.683335
vt 0.541829 0.251207
vt 0.556939 0.275192
vt 0.586801 0.279029
vt 0.614504 0.245930
vt 0.581404 0.194600
vt 0.607166 0.730833
vt 0.607166 0.713366
vt 0.621033 0.711585
vt 0.621033 0.728157
vt 0.605801 0.668887
vt 0.616467 0.668887
vt 0.616716 0.688365
vt 0.606597 0.688365
vt 0.583478 0.388038
vt 0.597580 0.354886
vt 0.589044 0.318269
vt 0.566406 0.285611
vt 0.525213 0.315300
vt 0.519275 0.344989
vt 0.535232 0.360825
vt 0.557500 0.370718
vt 0.645012 0.668887
vt 0.610106 0.668887
vt 0.610681 0.688365
vt 0.643798 0.688365
vt 0.663866 0.274969
vt 0.651234 0.291361
vt 0.688107 0.325954
vt 0.719858 0.264501
vt 0.694935 0.250843
vt 0.686058 0.259492
vt 0.672060 0.258583
vt 0.610681 0.728531
vt 0.597371 0.730807
vt 0.596743 0.716966
vt 0.409918 0.425536
vt 0.425891 0.385552
vt 0.399813 0.353388
vt 0.383514 0.376859
vt 0.378299 0.397724
vt 0.395249 0.418586
vt 0.214055 0.388511
vt 0.244503 0.415576
vt 0.256959 0.396506
vt 0.268492 0.396506
vt 0.282332 0.386052
vt 0.279103 0.361447
vt 0.239889 0.331926
vt 0.594395 0.665331
vt 0.606597 0.627239
vt 0.616716 0.626446
vt 0.627430 0.643904
vt 0.631001 0.670097
vt 0.648263 0.673665
vt 0.643798 0.722871
vt 0.683927 0.563767
vt 0.662232 0.563767
vt 0.661415 0.585299
vt 0.683081 0.585227
vt 0.098335 0.348082
vt 0.049545 0.405773
vt 0.072099 0.441370
vt 0.096954 0.426027
vt 0.099716 0.407000
vt 0.113525 0.373860
vt 0.712858 0.563767
vt 0.666250 0.563767
vt 0.665274 0.586242
vt 0.711899 0.589772
vt 0.069423 0.660273
vt 0.163964 0.659605
vt 0.160963 0.636930
vt 0.142455 0.620256
vt 0.124447 0.579570
vt 0.066422 0.581574
vt 0.055917 0.589577
vt 0.055917 0.642931
vt 0.196742 0.717477
vt 0.231480 0.656394
vt 0.220180 0.648716
vt 0.192435 0.713925
vt 0.202310 0.722074
vt 0.249806 0.723956
vt 0.269087 0.681946
vt 0.655402 0.563767
vt 0.697590 0.563767
vt 0.698432 0.589933
vt 0.655887 0.588921
vt 0.334323 0.533565
vt 0.328215 0.591527
vt 0.350850 0.595360
vt 0.359472 0.580032
vt 0.364861 0.536440
vt 0.343305 0.522547
vt 0.653393 0.563767
vt 0.687947 0.563767
vt 0.688950 0.587922
vt 0.654037 0.585299
vt 0.327724 0.659617
vt 0.324057 0.700681
vt 0.407293 0.710949
vt 0.420126 0.674769
vt 0.714867 0.595333
vt 0.701206 0.539082
vt 0.687947 0.527294
vt 0.653393 0.548189
vt 0.652589 0.577115
vt 0.666250 0.626406
vt 0.712858 0.621049
vt 0.720895 0.563767
vt 0.720406 0.586242
vt 0.716877 0.563767
vt 0.717656 0.589772
vt 0.747602 0.348211
vt 0.739644 0.384383
vt 0.784498 0.402228
vt 0.800413 0.335189
vt 0.785945 0.316862
vt 0.757007 0.307215
vt 0.701206 0.563767
vt 0.701942 0.588921
vt 0.491230 0.483156
vt 0.491494 0.470847
vt 0.475403 0.462053
vt 0.456674 0.462060
vt 0.450079 0.478583
vt 0.475667 0.504259
vt 0.478832 0.491950
vt 0.202831 0.229017
vt 0.249216 0.225869
vt 0.243320 0.184463
vt 0.241354 0.154590
vt 0.228775 0.151970
vt 0.203224 0.193374
vt 0.714428 0.596455
vt 0.711899 0.622088
vt 0.665274 0.625755
vt 0.652645 0.575987
vt 0.654037 0.547100
vt 0.688950 0.527465
vt 0.701942 0.539729
vt 0.595414 0.719037
vt 0.610106 0.731228
vt 0.645012 0.725261
vt 0.649718 0.673397
vt 0.631524 0.669637
vt 0.627759 0.642028
vt 0.616467 0.623627
vt 0.605801 0.624463
vt 0.592940 0.664613
vt 0.596077 0.733626
vt 0.607166 0.691928
vt 0.607166 0.730039
vt 0.621033 0.727404
vt 0.621033 0.691246
vt 0.607166 0.626419
vt 0.607166 0.640267
vt 0.621033 0.642233
vt 0.621033 0.629095
vt 0.607166 0.665723
vt 0.607166 0.642697
vt 0.621033 0.644538
vt 0.621033 0.666385
vt 0.607166 0.692831
vt 0.607166 0.710585
vt 0.621033 0.708947
vt 0.621033 0.692103
vt 0.607166 0.687159
vt 0.621033 0.686722
vt 0.327914 0.660826
vt 0.419498 0.673860
vt 0.407202 0.709936
vt 0.324740 0.701541
vt 0.383641 0.672070
vt 0.352842 0.672070
vt 0.353749 0.698495
vt 0.384285 0.697411
vt 0.327724 0.672070
vt 0.420126 0.672070
vt 0.419498 0.693442
vt 0.327914 0.698495
vt 0.407293 0.672070
vt 0.324057 0.672070
vt 0.324740 0.697411
vt 0.407202 0.692963
vt 0.364206 0.672070
vt 0.391341 0.672070
vt 0.390581 0.692963
vt 0.363525 0.693442
vt 0.249806 0.672594
vt 0.202310 0.672594
vt 0.202310 0.700077
vt 0.249806 0.700077
vt 0.220180 0.672594
vt 0.231480 0.672594
vt 0.231480 0.700077
vt 0.220180 0.700077
vt 0.251453 0.672594
vt 0.202546 0.672594
vt 0.202546 0.700077
vt 0.251453 0.700077
vt 0.227469 0.672594
vt 0.258976 0.672594
vt 0.258976 0.700077
vt 0.227469 0.700077
vt 0.196742 0.672594
vt 0.196742 0.700077
vt 0.192435 0.672594
vt 0.192435 0.700077
vt 0.269087 0.672594
vt 0.269087 0.700077
vt 0.069588 0.660556
vt 0.056018 0.643309
vt 0.055814 0.589957
vt 0.066285 0.581880
vt 0.124289 0.579470
vt 0.142448 0.620027
vt 0.161016 0.636571
vt 0.164104 0.659225
vt 0.122646 0.601280
vt 0.139653 0.601280
vt 0.139368 0.635238
vt 0.122378 0.635475
vt 0.069423 0.601280
vt 0.055917 0.601280
vt 0.056018 0.638385
vt 0.069588 0.637889
vt 0.066422 0.601280
vt 0.066285 0.638504
vt 0.055814 0.638745
vt 0.142455 0.601280
vt 0.160963 0.601280
vt 0.161016 0.635475
vt 0.142448 0.636107
vt 0.163964 0.601280
vt 0.164104 0.635238
vt 0.127148 0.601280
vt 0.087132 0.601280
vt 0.087417 0.638745
vt 0.127431 0.638385
vt 0.124447 0.601280
vt 0.124289 0.636888
vt 0.079627 0.601280
vt 0.110141 0.601280
vt 0.109970 0.636107
vt 0.079551 0.636888
vt 0.096954 0.382621
vt 0.072099 0.382621
vt 0.072099 0.406831
vt 0.096954 0.406831
vt 0.049545 0.382621
vt 0.098335 0.382621
vt 0.098335 0.406831
vt 0.049545 0.406831
vt 0.046552 0.382621
vt 0.065885 0.382621
vt 0.065885 0.406831
vt 0.046552 0.406831
vt 0.090741 0.382621
vt 0.105010 0.382621
vt 0.105010 0.406831
vt 0.090741 0.406831
vt 0.116518 0.382621
vt 0.089820 0.382621
vt 0.089820 0.406831
vt 0.116518 0.406831
vt 0.213931 0.387823
vt 0.240355 0.331766
vt 0.279203 0.362070
vt 0.282160 0.386736
vt 0.268221 0.396910
vt 0.256700 0.396678
vt 0.244050 0.415494
vt 0.259262 0.362327
vt 0.216822 0.362327
vt 0.216703 0.383054
vt 0.258745 0.380875
vt 0.238964 0.362327
vt 0.257417 0.362327
vt 0.257930 0.384917
vt 0.239431 0.385015
vt 0.268492 0.362327
vt 0.256959 0.362327
vt 0.256700 0.383304
vt 0.268221 0.383982
vt 0.244503 0.362327
vt 0.214055 0.362327
vt 0.213931 0.380875
vt 0.244050 0.382349
vt 0.239889 0.362327
vt 0.279103 0.362327
vt 0.279203 0.385015
vt 0.240355 0.383054
vt 0.282332 0.362327
vt 0.282160 0.384917
vt 0.265258 0.362327
vt 0.279560 0.362327
vt 0.279499 0.382349
vt 0.265387 0.383304
vt 0.228775 0.178900
vt 0.241354 0.178900
vt 0.241354 0.202087
vt 0.228775 0.202087
vt 0.249216 0.178900
vt 0.202831 0.178900
vt 0.202831 0.202087
vt 0.249216 0.202087
vt 0.228184 0.178900
vt 0.197131 0.178900
vt 0.197131 0.202087
vt 0.228184 0.202087
vt 0.199096 0.178900
vt 0.221501 0.178900
vt 0.221501 0.202087
vt 0.199096 0.202087
vt 0.252556 0.178900
vt 0.252556 0.202087
vt 0.254916 0.178900
vt 0.254916 0.202087
vt 0.329652 0.547802
vt 0.362346 0.547802
vt 0.362346 0.570105
vt 0.329652 0.570105
vt 0.350850 0.547802
vt 0.328215 0.547802
vt 0.328215 0.570105
vt 0.350850 0.570105
vt 0.334323 0.547802
vt 0.343305 0.547802
vt 0.343305 0.570105
vt 0.334323 0.570105
vt 0.364861 0.547802
vt 0.364861 0.570105
vt 0.373843 0.547802
vt 0.373843 0.570105
vt 0.370968 0.547802
vt 0.327497 0.547802
vt 0.327497 0.570105
vt 0.370968 0.570105
vt 0.399162 0.381591
vt 0.429151 0.381591
vt 0.429151 0.397333
vt 0.399162 0.397333
vt 0.395249 0.381591
vt 0.378299 0.381591
vt 0.378299 0.397333
vt 0.395249 0.397333
vt 0.392642 0.381591
vt 0.375039 0.381591
vt 0.375039 0.397333
vt 0.392642 0.397333
vt 0.399813 0.381591
vt 0.425891 0.381591
vt 0.425891 0.397333
vt 0.399813 0.397333
vt 0.409918 0.381591
vt 0.409918 0.397333
vt 0.408292 0.381591
vt 0.408292 0.397333
vt 0.490223 0.483818
vt 0.478272 0.491813
vt 0.475027 0.503468
vt 0.451202 0.478104
vt 0.457786 0.462535
vt 0.475586 0.463141
vt 0.490710 0.472068
vt 0.456674 0.474505
vt 0.475403 0.474505
vt 0.475586 0.489568
vt 0.457786 0.487142
vt 0.461555 0.474505
vt 0.470786 0.474505
vt 0.471283 0.491807
vt 0.462470 0.491731
vt 0.477382 0.474505
vt 0.486614 0.474505
vt 0.486020 0.489979
vt 0.477279 0.490279
vt 0.467357 0.474505
vt 0.454964 0.474505
vt 0.455321 0.487142
vt 0.466997 0.486436
vt 0.491494 0.474505
vt 0.490710 0.491731
vt 0.491230 0.474505
vt 0.478832 0.474505
vt 0.478272 0.490279
vt 0.490223 0.491807
vt 0.475667 0.474505
vt 0.450079 0.474505
vt 0.451202 0.486436
vt 0.475027 0.489979
vt 0.581686 0.385320
vt 0.557345 0.368730
vt 0.536451 0.359172
vt 0.521530 0.344088
vt 0.527302 0.316197
vt 0.566253 0.288687
vt 0.587355 0.319684
vt 0.595162 0.354256
vt 0.535232 0.320486
vt 0.519275 0.320486
vt 0.521530 0.349824
vt 0.536451 0.350548
vt 0.583478 0.320486
vt 0.557500 0.320486
vt 0.557345 0.351521
vt 0.581686 0.352674
vt 0.544510 0.320486
vt 0.571974 0.320486
vt 0.571501 0.353164
vt 0.545572 0.352686
vt 0.564550 0.320486
vt 0.542284 0.320486
vt 0.542957 0.349980
vt 0.563875 0.349824
vt 0.596837 0.320486
vt 0.594799 0.352674
vt 0.520017 0.320486
vt 0.522324 0.351626
vt 0.525213 0.320486
vt 0.566406 0.320486
vt 0.566253 0.351626
vt 0.527302 0.349980
vt 0.606950 0.220872
vt 0.588961 0.220872
vt 0.588961 0.252756
vt 0.606950 0.252756
vt 0.546505 0.220872
vt 0.585003 0.220872
vt 0.585003 0.252756
vt 0.546505 0.252756
vt 0.586801 0.220872
vt 0.556939 0.220872
vt 0.556939 0.252756
vt 0.586801 0.252756
vt 0.614504 0.220872
vt 0.614504 0.252756
vt 0.651234 0.273634
vt 0.663866 0.273634
vt 0.663866 0.303163
vt 0.651234 0.303163
vt 0.672060 0.273634
vt 0.686058 0.273634
vt 0.686058 0.303163
vt 0.672060 0.303163
vt 0.694935 0.273634
vt 0.719858 0.273634
vt 0.719858 0.303163
vt 0.694935 0.303163
vt 0.688107 0.273634
vt 0.688107 0.303163
vt 0.675473 0.273634
vt 0.663184 0.273634
vt 0.663184 0.303163
vt 0.675473 0.303163
vt 0.667623 0.273634
vt 0.713713 0.273634
vt 0.713713 0.303163
vt 0.667623 0.303163
vt 0.758587 0.372084
vt 0.758587 0.333500
vt 0.781470 0.333500
vt 0.781470 0.372084
vt 0.758587 0.374254
vt 0.758587 0.307215
vt 0.781470 0.307215
vt 0.781470 0.374254
vt 0.758587 0.325060
vt 0.758587 0.361232
vt 0.781470 0.361232
vt 0.781470 0.325060
vt 0.758587 0.314209
vt 0.781470 0.314209
vt 0.758587 0.335429
vt 0.758587 0.395234
vt 0.781470 0.395234
vt 0.781470 0.335429
vt 0.758587 0.402228
vt 0.781470 0.402228
s 1
usemtl debris_02
f 101/1/1 100/2/2 113/3/3 114/4/4
f 6/5/5 7/6/5 8/7/5 9/8/5 5/9/5
f 97/10/6 103/11/7 116/12/8 110/13/9
f 98/14/10 97/15/6 110/16/9 111/17/11
f 13/18/5 12/19/5 11/20/5 10/21/5 17/22/5 16/23/5 15/24/5 14/25/5
f 100/26/2 96/27/12 109/28/13 113/29/3
f 24/30/5 18/31/5 19/32/5 20/33/5 21/34/5 22/35/5 23/36/5
f 109/37/13 117/38/14 108/39/15
f 29/40/5 30/41/5 25/42/5 26/43/5 27/44/5 28/45/5
f 32/46/5 33/47/5 34/48/5 35/49/5 36/50/5 37/51/5 31/52/5
f 108/39/15 112/53/16 111/54/11 110/55/9 116/56/8 115/57/17 114/58/4 113/59/3 109/37/13
f 70/60/18 69/61/19 4/62/20 3/63/21
f 38/64/5 39/65/5 40/66/5 41/67/5 42/68/5 43/69/5
f 72/70/22 71/71/23 2/72/24 1/73/25
f 48/74/5 49/75/5 50/76/5 51/77/5 44/78/5 45/79/5 46/80/5 47/81/5
f 53/82/5 52/83/5 54/84/5 55/85/5
f 52/83/5 53/82/5 56/86/5 57/87/5 58/88/5
f 74/89/26 73/90/27 105/91/28 106/92/29
f 60/93/5 61/94/5 62/95/5 63/96/5 64/97/5 59/98/5
f 69/99/19 75/100/30 107/101/31 4/102/20
f 65/103/5 66/104/5 67/105/5 68/106/5
f 73/107/5 74/108/5 75/109/5 69/110/5 70/111/5 71/112/5 72/113/5
f 71/114/23 70/60/18 3/63/21 2/115/24
f 73/90/27 72/116/22 1/117/25 105/91/28
f 77/118/5 78/119/5 79/120/5 80/121/5 81/122/5 76/123/5
f 75/100/30 74/124/26 106/125/29 107/101/31
f 86/126/5 87/127/5 88/128/5 82/129/5 83/130/5 84/131/5 85/132/5
f 93/133/5 94/134/5 89/135/5 90/136/5 91/137/5 92/138/5
f 105/139/32 1/140/32 2/141/32 3/142/21 4/143/20 107/144/32 106/145/32
f 95/146/5 96/147/5 100/148/5 101/149/5 102/150/5 103/151/5 97/152/5 98/153/5 99/154/5
f 96/147/5 95/146/5 104/155/5
f 99/156/33 98/157/10 111/158/11 112/159/16
f 104/160/34 95/161/34 108/162/15 117/163/14
f 102/164/35 101/165/36 114/166/36 115/167/37
f 95/161/34 99/156/33 112/159/16 108/162/15
f 96/168/12 104/169/12 117/170/14 109/171/13
f 103/11/7 102/172/35 115/173/37 116/12/8
f 118/174/38 121/175/39 120/176/40 119/177/38
f 66/178/41 65/179/41 118/180/41 119/181/41
f 65/182/42 68/183/42 121/184/42 118/185/42
f 67/186/43 66/187/44 119/188/44 120/189/40
f 68/190/45 67/191/43 120/192/40 121/193/39
f 123/82/17 125/85/17 124/84/17 122/83/17
f 122/83/17 128/88/17 127/87/17 126/86/17 123/82/17
f 57/194/46 56/195/47 126/196/47 127/197/46
f 54/198/48 52/199/48 122/200/48 124/201/48
f 55/202/49 54/203/49 124/204/49 125/205/49
f 58/206/50 57/207/46 127/208/46 128/209/50
f 56/195/47 53/210/51 123/211/51 126/196/47
f 53/210/51 55/212/52 125/213/52 123/211/51
f 52/199/48 58/214/48 128/215/48 122/200/48
f 133/216/53 132/217/53 131/218/53 130/219/53 129/220/53 136/221/53 135/222/53 134/223/53
f 50/224/54 49/225/55 134/226/55 135/227/56
f 48/228/57 47/229/58 132/230/59 133/231/60
f 46/229/61 45/232/62 130/233/63 131/234/64
f 51/235/65 50/236/54 135/237/56 136/238/66
f 49/239/67 48/228/57 133/231/60 134/240/67
f 47/241/58 46/242/61 131/243/64 132/244/59
f 45/232/62 44/245/68 129/246/69 130/233/63
f 44/247/68 51/248/65 136/249/66 129/250/69
f 137/64/17 142/69/17 141/68/17 140/67/17 139/66/17 138/65/17
f 41/251/70 40/252/71 139/253/71 140/254/70
f 39/255/72 38/256/72 137/257/72 138/258/72
f 38/259/73 43/260/74 142/261/74 137/262/73
f 42/263/75 41/264/70 140/265/70 141/266/75
f 40/267/71 39/268/76 138/269/76 139/270/71
f 43/260/74 42/263/75 141/266/75 142/261/74
f 144/271/77 143/272/77 149/273/77 148/274/77 147/275/77 146/276/77 145/277/77
f 32/278/78 31/279/78 143/280/78 144/281/78
f 37/282/79 36/283/80 148/284/81 149/285/82
f 35/286/83 34/287/84 146/288/85 147/289/86
f 33/290/87 32/291/88 144/292/88 145/293/89
f 31/294/90 37/295/79 149/296/82 143/297/90
f 36/298/80 35/286/83 147/289/86 148/299/81
f 34/300/84 33/301/87 145/302/89 146/303/85
f 154/133/17 153/138/17 152/137/17 151/136/17 150/135/17 155/134/17
f 91/304/91 90/305/92 151/306/92 152/307/91
f 94/308/93 93/309/93 154/310/93 155/311/93
f 92/312/94 91/313/91 152/314/91 153/315/94
f 90/316/92 89/317/95 150/318/95 151/319/92
f 89/317/95 94/320/96 155/321/96 150/318/95
f 93/322/97 92/312/94 153/315/94 154/323/97
f 157/93/17 156/98/17 161/97/17 160/96/17 159/95/17 158/94/17
f 64/324/98 63/325/99 160/326/99 161/327/98
f 62/328/100 61/329/101 158/330/101 159/331/100
f 60/332/102 59/333/103 156/334/103 157/335/102
f 59/333/103 64/336/98 161/337/98 156/334/103
f 63/325/99 62/338/100 159/339/100 160/326/99
f 61/340/104 60/341/102 157/342/102 158/343/104
f 166/40/17 165/45/17 164/44/17 163/43/17 162/42/17 167/41/17
f 30/344/105 29/345/106 166/346/106 167/347/105
f 28/348/107 27/349/108 164/350/108 165/351/107
f 26/352/109 25/353/110 162/354/110 163/355/109
f 25/356/111 30/357/105 167/358/105 162/359/111
f 29/360/106 28/348/107 165/351/107 166/361/106
f 27/362/108 26/352/109 163/355/109 164/363/108
f 172/364/112 171/365/112 170/366/113 169/367/114 168/368/115 174/369/116 173/370/112
f 82/371/117 88/372/118 174/373/116 168/374/115
f 87/375/119 86/376/120 172/377/121 173/378/122
f 85/379/123 84/380/124 170/381/124 171/382/125
f 83/383/126 82/384/117 168/385/115 169/386/114
f 88/372/118 87/387/119 173/388/122 174/373/116
f 86/389/120 85/390/123 171/391/125 172/392/121
f 84/393/127 83/394/126 169/395/114 170/396/113
f 178/397/128 179/398/129 180/399/130 181/400/131 182/401/132 175/402/133 176/403/134 177/404/135
f 15/405/136 16/406/137 181/407/131 180/408/130
f 13/409/138 14/410/139 179/411/129 178/412/138
f 11/413/140 12/414/141 177/415/135 176/416/142
f 16/417/137 17/418/143 182/419/132 181/420/131
f 14/410/139 15/405/136 180/408/130 179/411/129
f 12/414/141 13/421/144 178/422/128 177/415/135
f 10/423/145 11/413/140 176/416/142 175/424/133
f 17/425/143 10/426/145 175/427/133 182/428/132
f 184/5/17 183/9/17 187/8/17 186/7/17 185/6/17
f 7/429/146 6/430/147 184/431/147 185/432/146
f 5/433/148 9/434/148 187/435/148 183/436/148
f 8/437/149 7/438/146 185/439/146 186/440/149
f 6/430/147 5/433/150 183/436/150 184/431/147
f 9/441/151 8/437/149 186/440/149 187/442/151
f 194/30/17 193/36/17 192/35/17 191/34/17 190/33/17 189/32/17 188/31/17
f 18/443/152 24/444/153 194/445/153 188/446/152
f 23/447/154 22/448/155 192/449/155 193/450/154
f 21/451/156 20/452/157 190/453/157 191/454/156
f 19/455/158 18/443/158 188/446/158 189/456/158
f 24/457/153 23/458/154 193/459/154 194/460/153
f 22/448/155 21/451/156 191/454/156 192/449/155
f 20/461/159 19/462/159 189/463/159 190/464/159
f 196/118/17 195/123/17 200/122/17 199/121/17 198/120/17 197/119/17
f 76/465/160 81/466/161 200/467/161 195/468/160
f 80/469/162 79/470/163 198/471/163 199/472/162
f 78/473/164 77/474/165 196/475/165 197/476/164
f 81/466/161 80/477/162 199/478/162 200/467/161
f 79/479/166 78/480/166 197/481/166 198/482/166
f 77/474/165 76/483/167 195/484/167 196/475/165
