# Blender 4.5.9 LTS
# www.blender.org
mtllib door_metal_01.mtl
o door_metal_01
v -0.024785 -1.241598 -0.000084
v -0.024785 1.075715 -0.000084
v -0.024785 -1.241598 -1.005911
v -0.024785 1.075715 -1.005911
v 0.055356 1.075715 -1.005911
v 0.055356 1.075715 -0.000084
v 0.055356 -1.241598 -1.005911
v 0.055356 -1.241598 -0.000084
vn -1.0000 -0.0000 -0.0000
vn 1.0000 -0.0000 -0.0000
vn -0.0000 -0.0000 1.0000
vn -0.0000 1.0000 -0.0000
vn -0.0000 -1.0000 -0.0000
vn -0.0000 -0.0000 -1.0000
vt 0.005226 0.001662
vt 0.994774 0.001662
vt 0.994774 0.998338
vt 0.005226 0.998338
vt 0.932428 0.998338
vt 0.932428 0.001662
vt 0.990796 0.001662
vt 0.990796 0.998338
vt 0.539422 0.846764
vt 0.539422 0.414159
vt 0.460578 0.414159
vt 0.460578 0.846764
s 0
usemtl door_metal_01
f 3/1/1 1/2/1 2/3/1 4/4/1
f 7/1/2 5/4/2 6/3/2 8/2/2
f 2/5/3 1/6/3 8/7/3 6/8/3
f 4/9/4 2/10/4 6/11/4 5/12/4
f 1/10/5 3/9/5 7/12/5 8/11/5
f 3/6/6 4/5/6 5/8/6 7/7/6
