# Blender 4.5.9 LTS
# www.blender.org
mtllib door_metal.mtl
o door_metal
v -0.024785 -1.241598 -0.000084
v -0.024785 1.075715 -0.000084
v -0.024785 -1.241598 -1.005911
v -0.024785 1.075715 -1.005911
v 0.055356 1.075715 -1.005911
v 0.055356 1.075715 -0.000084
v 0.055356 -1.241598 -1.005911
v 0.055356 -1.241598 -0.000084
vn -1.0000 -0.0000 -0.0000
vn 1.0000 -0.0000 -0.0000
vn -0.0000 -0.0000 1.0000
vn -0.0000 1.0000 -0.0000
vn -0.0000 -1.0000 -0.0000
vn -0.0000 -0.0000 -1.0000
vt 0.963308 0.009094
vt 0.036692 0.009094
vt 0.036692 0.990905
vt 0.963308 0.990905
vt 0.536915 0.009094
vt 0.536915 0.990905
vt 0.463085 0.990905
vt 0.463085 0.009094
vt 0.536915 0.713077
vt 0.536915 0.286923
vt 0.463085 0.286923
vt 0.463085 0.713077
vt 0.536915 0.286923
vt 0.536915 0.713077
vt 0.463085 0.713077
vt 0.463085 0.286923
s 0
usemtl door_metal
f 3/1/1 1/2/1 2/3/1 4/4/1
f 7/1/2 5/4/2 6/3/2 8/2/2
f 2/5/3 1/6/3 8/7/3 6/8/3
f 4/9/4 2/10/4 6/11/4 5/12/4
f 1/13/5 3/14/5 7/15/5 8/16/5
f 3/6/6 4/5/6 5/8/6 7/7/6
