# Blender 4.5.9 LTS
# www.blender.org
mtllib Garbage_bag.mtl
o Garbage_bag
v 0.000000 -0.150895 -0.171882
v -0.005456 -0.085647 -0.263873
v 0.135238 -0.150895 -0.106755
v 0.205175 -0.096497 -0.162304
v 0.168639 -0.150895 0.039585
v 0.257196 -0.099177 0.065919
v 0.075052 -0.150895 0.156940
v 0.111435 -0.091668 0.248940
v -0.075052 -0.150895 0.156940
v -0.122347 -0.079625 0.248940
v -0.168639 -0.150895 0.039585
v -0.268108 -0.072116 0.065919
v -0.135238 -0.150895 -0.106755
v -0.216086 -0.074796 -0.162304
v 0.221098 0.043392 -0.175636
v -0.007603 0.030378 -0.285951
v 0.277582 0.046606 0.072238
v 0.119316 0.037600 0.271018
v -0.134522 0.023156 0.271018
v -0.292788 0.014150 0.072238
v -0.236303 0.017364 -0.175636
v 0.188637 0.140168 -0.151095
v -0.006642 0.152069 -0.245311
v 0.236867 0.137229 0.060606
v 0.101730 0.145464 0.230378
v -0.115013 0.158673 0.230378
v -0.250151 0.166908 0.060606
v -0.201921 0.163969 -0.151095
v 0.106916 0.230240 -0.089218
v -0.004436 0.229519 -0.142843
v 0.134418 0.230418 0.031278
v 0.057359 0.229919 0.127908
v -0.066232 0.229119 0.127908
v -0.143291 0.228621 0.031278
v -0.115789 0.228799 -0.089218
v -0.006492 0.253957 -0.021747
v -0.000852 0.253994 0.002966
v -0.026664 0.253827 -0.004142
v -0.043244 0.317928 -0.026498
v -0.044132 0.317581 0.017514
v -0.078495 0.296186 -0.005365
v 0.039411 0.294922 -0.012108
v 0.051026 0.283759 0.007464
v 0.042919 0.309115 0.010322
vn -0.0153 -0.9264 -0.3763
vn -0.0099 -0.4988 -0.8667
vn 0.2603 -0.9384 -0.2273
vn 0.6708 -0.5050 -0.5431
vn 0.3192 -0.9451 0.0701
vn 0.8340 -0.5165 0.1941
vn 0.1348 -0.9415 0.3090
vn 0.3615 -0.5217 0.7728
vn -0.1745 -0.9304 0.3224
vn -0.3760 -0.5247 0.7637
vn -0.3837 -0.9202 0.0782
vn -0.8312 -0.5233 0.1879
vn -0.3124 -0.9183 -0.2432
vn -0.6756 -0.5097 -0.5327
vn 0.7770 0.1100 -0.6198
vn -0.0040 0.0626 -0.9980
vn 0.9663 0.1251 0.2251
vn 0.4271 0.0941 0.8993
vn -0.4355 0.0409 0.8993
vn -0.9744 0.0065 0.2248
vn -0.7848 0.0172 -0.6195
vn 0.6551 0.5508 -0.5172
vn 0.0098 0.5480 -0.8364
vn 0.8048 0.5654 0.1803
vn 0.3627 0.5745 0.7337
vn -0.3455 0.5796 0.7381
vn -0.7947 0.5786 0.1836
vn -0.6412 0.5641 -0.5203
vn 0.3879 0.8733 -0.2947
vn 0.0234 0.8883 -0.4587
vn 0.4729 0.8759 0.0962
vn 0.2153 0.8937 0.3937
vn -0.1580 0.9125 0.3772
vn -0.3839 0.9191 0.0887
vn -0.3128 0.9087 -0.2763
vn 0.2836 0.9564 -0.0703
vn 0.1174 0.9901 -0.0768
vn -0.5224 0.8491 0.0785
vn 0.0429 0.6459 -0.7622
vn 0.0858 0.6523 0.7531
vn -0.9936 -0.1046 0.0424
vn -0.3584 -0.2929 0.8864
vn -0.8058 0.3527 -0.4757
vn -0.1917 -0.9127 -0.3610
vt 0.548725 0.284435
vt 0.558415 0.342671
vt 0.675519 0.249240
vt 0.623926 0.224500
vt 0.675519 0.099279
vt 0.623953 0.128336
vt 0.558415 0.005713
vt 0.548787 0.068358
vt 0.412388 0.038998
vt 0.455029 0.089729
vt 0.347400 0.174071
vt 0.413280 0.176357
vt 0.702465 0.358827
vt 0.701195 0.493940
vt 0.775305 0.499835
vt 0.792539 0.354097
vt 0.412388 0.309218
vt 0.454979 0.263009
vt 0.429103 0.994287
vt 0.436640 0.867032
vt 0.494795 0.860387
vt 0.498561 0.969213
vt 0.346492 0.978995
vt 0.343310 0.861687
vt 0.666499 0.982761
vt 0.663066 0.836580
vt 0.607756 0.833181
vt 0.607561 0.991995
vt 0.177385 0.891662
vt 0.178794 0.741698
vt 0.261764 0.741696
vt 0.242635 0.903453
vt 0.699926 0.629053
vt 0.758071 0.645572
vt 0.347056 0.715515
vt 0.436786 0.708218
vt 0.666499 0.719280
vt 0.600491 0.705910
vt 0.795516 0.318270
vt 0.686944 0.231629
vt 0.749551 0.205235
vt 0.811475 0.254578
vt 0.853159 0.503962
vt 0.853159 0.378625
vt 0.509986 0.841782
vt 0.513461 0.977376
vt 0.330053 0.757145
vt 0.330053 0.896259
vt 0.498561 0.724800
vt 0.853159 0.629299
vt 0.513985 0.732964
vt 0.749520 0.126055
vt 0.817329 0.164777
vt 0.686944 0.092528
vt 0.795516 0.005713
vt 0.811405 0.076661
vt 0.930903 0.036557
vt 0.991156 0.161834
vt 0.922988 0.165574
vt 0.888605 0.094249
vt 0.930903 0.287208
vt 0.888662 0.236927
vt 0.834464 0.164009
vt 0.827424 0.178644
vt 0.382092 0.796078
vt 0.380694 0.808926
vt 0.404312 0.844720
vt 0.420466 0.823670
vt 0.382483 0.792486
vt 0.420187 0.824214
vt 0.397129 0.857725
vt 0.412960 0.857576
vt 0.416327 0.898534
vt 0.388130 0.898534
vt 0.412941 0.936290
vt 0.412941 0.909959
vt 0.436831 0.921304
vt 0.435102 0.786453
vt 0.445197 0.800321
vt 0.475242 0.800832
vt 0.480625 0.787321
vt 0.420466 0.768183
vt 0.404835 0.761363
vt 0.452237 0.785686
vt 0.485282 0.790260
vt 0.388130 0.964939
vt 0.400878 0.975173
vt 0.400878 0.958168
s 1
usemtl Garbage_bag
f 1/1/1 2/2/2 4/3/4 3/4/3
f 3/4/3 4/3/4 6/5/6 5/6/5
f 5/6/5 6/5/6 8/7/8 7/8/7
f 7/8/7 8/7/8 10/9/10 9/10/9
f 9/10/9 10/9/10 12/11/12 11/12/11
f 4/13/4 2/14/2 16/15/16 15/16/15
f 11/12/11 12/11/12 14/17/14 13/18/13
f 13/18/13 14/17/14 2/2/2 1/1/1
f 1/1/1 3/4/3 5/6/5 7/8/7 9/10/9 11/12/11 13/18/13
f 18/19/18 17/20/17 24/21/24 25/22/25
f 8/23/8 6/24/6 17/20/17 18/19/18
f 14/25/14 12/26/12 20/27/20 21/28/21
f 10/29/10 8/30/8 18/31/18 19/32/19
f 2/14/2 14/33/14 21/34/21 16/15/16
f 6/24/6 4/35/4 15/36/15 17/20/17
f 12/26/12 10/37/10 19/38/19 20/27/20
f 23/39/23 28/40/28 35/41/35 30/42/30
f 15/16/15 16/15/16 23/43/23 22/44/22
f 21/28/21 20/27/20 27/45/27 28/46/28
f 19/32/19 18/31/18 25/47/25 26/48/26
f 17/20/17 15/36/15 22/49/22 24/21/24
f 16/15/16 21/34/21 28/50/28 23/43/23
f 20/27/20 19/38/19 26/51/26 27/45/27
f 35/41/35 34/52/34 38/53/38
f 27/54/27 26/55/26 33/56/33 34/52/34
f 25/57/25 24/58/24 31/59/31 32/60/32
f 22/61/22 23/39/23 30/42/30 29/62/29
f 28/40/28 27/54/27 34/52/34 35/41/35
f 26/55/26 25/57/25 32/60/32 33/56/33
f 24/58/24 22/61/22 29/62/29 31/59/31
f 33/56/33 32/60/32 37/63/37 38/53/38
f 31/59/31 29/62/29 36/64/36 37/63/37
f 30/42/30 35/41/35 38/53/38 36/64/36
f 34/52/34 33/56/33 38/53/38
f 32/60/32 31/59/31 37/63/37
f 29/62/29 30/42/30 36/64/36
f 36/65/36 38/66/38 41/67/41 39/68/39
f 38/66/38 37/69/37 40/70/40 41/67/41
f 37/71/37 36/72/36 39/73/39 40/74/40
f 39/75/39 41/76/41 40/77/40
f 38/78/38 36/79/36 42/80/42 44/81/44
f 37/69/37 38/66/38 44/82/44 43/83/43
f 36/79/36 37/84/37 43/85/43 42/80/42
f 43/86/43 44/87/44 42/88/42
