# Blender 4.5.9 LTS
# www.blender.org
mtllib Garbage_bag_001.mtl
o Garbage_bag_001
v 0.000000 -0.150895 -0.171882
v -0.005456 -0.085647 -0.263873
v 0.135238 -0.150895 -0.102953
v 0.205175 -0.096497 -0.162304
v 0.168639 -0.150895 0.080139
v 0.257196 -0.099177 0.103369
v 0.075052 -0.150895 0.233291
v 0.111435 -0.091668 0.343428
v -0.075052 -0.150895 0.230345
v -0.122347 -0.079625 0.343428
v -0.168639 -0.150895 0.079804
v -0.268108 -0.072116 0.103369
v -0.135238 -0.150895 -0.103187
v -0.216086 -0.074796 -0.162304
v 0.217913 0.053987 -0.171185
v -0.006098 0.034318 -0.279659
v 0.273879 0.058673 0.101960
v 0.119564 0.044062 0.360061
v -0.131853 0.025583 0.362110
v -0.289444 0.015416 0.103206
v -0.232689 0.018509 -0.172904
v 0.164366 0.173989 -0.137636
v -0.010697 0.157168 -0.215606
v 0.212296 0.179773 0.074740
v 0.094430 0.173072 0.269976
v -0.097554 0.157023 0.271408
v -0.218021 0.141886 0.088432
v -0.179373 0.141541 -0.128264
v 0.063007 0.249718 -0.077634
v -0.025141 0.225928 -0.117429
v 0.087422 0.258608 0.028218
v 0.029718 0.245904 0.122138
v -0.066653 0.221173 0.129904
v -0.129121 0.203037 0.044203
v -0.110647 0.205153 -0.069643
v -0.028550 0.248020 -0.018738
v -0.023543 0.249843 0.002469
v -0.043845 0.244478 -0.001793
v -0.069903 0.290686 -0.024266
v -0.069445 0.291479 0.013032
v -0.092655 0.267422 -0.002951
v -0.000486 0.289242 -0.014340
v 0.011254 0.283339 0.002938
v 0.000025 0.301644 0.003609
vn -0.0156 -0.9275 -0.3734
vn -0.0105 -0.4791 -0.8777
vn 0.2651 -0.9402 -0.2140
vn 0.6834 -0.4894 -0.5417
vn 0.3149 -0.9476 0.0536
vn 0.8503 -0.5017 0.1588
vn 0.1564 -0.9506 0.2681
vn 0.4064 -0.5209 0.7507
vn -0.2003 -0.9402 0.2756
vn -0.4212 -0.5202 0.7430
vn -0.3767 -0.9244 0.0593
vn -0.8503 -0.5023 0.1572
vn -0.3181 -0.9197 -0.2302
vn -0.6898 -0.4909 -0.5322
vn 0.7736 0.1765 -0.6086
vn -0.0110 0.1588 -0.9873
vn 0.9658 0.1909 0.1755
vn 0.4574 0.2209 0.8614
vn -0.4788 0.1881 0.8575
vn -0.9763 0.1378 0.1669
vn -0.7869 0.1339 -0.6024
vn 0.5725 0.6435 -0.5082
vn -0.0621 0.6222 -0.7804
vn 0.7283 0.6754 0.1158
vn 0.3197 0.7371 0.5954
vn -0.3820 0.7207 0.5785
vn -0.7479 0.6506 0.1319
vn -0.6381 0.6239 -0.4512
vn 0.1918 0.9295 -0.3152
vn -0.1758 0.8742 -0.4526
vn 0.2779 0.9600 0.0327
vn 0.0436 0.9586 0.2813
vn -0.3193 0.9101 0.2641
vn -0.5162 0.8552 0.0468
vn -0.4751 0.8428 -0.2529
vn 0.0284 0.9932 -0.1132
vn -0.1217 0.9842 -0.1288
vn -0.7147 0.6897 0.1166
vn -0.1486 0.5851 -0.7972
vn -0.0485 0.6903 0.7219
vn -0.9365 -0.3314 0.1144
vn -0.2475 -0.3302 0.9109
vn -0.8741 0.1188 -0.4711
vn 0.0112 -0.9506 -0.3103
vt 0.208159 0.343411
vt 0.216054 0.401918
vt 0.335975 0.312130
vt 0.284699 0.283426
vt 0.335975 0.138696
vt 0.283159 0.164202
vt 0.214781 0.005713
vt 0.205465 0.079436
vt 0.067800 0.034493
vt 0.111457 0.099767
vt 0.005713 0.203364
vt 0.071150 0.205934
vt 0.699926 0.660188
vt 0.699926 0.795306
vt 0.776658 0.799671
vt 0.796625 0.656998
vt 0.071125 0.363991
vt 0.114677 0.316870
vt 0.595081 0.354097
vt 0.587389 0.519534
vt 0.509986 0.537754
vt 0.513017 0.412640
vt 0.682139 0.363875
vt 0.688501 0.517612
vt 0.498561 0.689432
vt 0.495219 0.519253
vt 0.439145 0.519893
vt 0.438853 0.696793
vt 0.015262 0.741696
vt 0.165233 0.741696
vt 0.165960 0.828804
vt 0.005713 0.808694
vt 0.699926 0.930425
vt 0.759075 0.944123
vt 0.688501 0.687823
vt 0.592156 0.694485
vt 0.498561 0.365421
vt 0.431048 0.354097
vt 0.102271 0.730270
vt 0.005713 0.656211
vt 0.055652 0.626969
vt 0.104205 0.666726
vt 0.855106 0.806663
vt 0.871638 0.695212
vt 0.358217 0.530131
vt 0.359763 0.668949
vt 0.145628 0.910516
vt 0.023325 0.893920
vt 0.515063 0.673768
vt 0.839548 0.914067
vt 0.347400 0.413006
vt 0.056806 0.553089
vt 0.105416 0.591691
vt 0.005713 0.515194
vt 0.102273 0.413343
vt 0.105845 0.506064
vt 0.223195 0.435841
vt 0.275571 0.572234
vt 0.191581 0.587529
vt 0.165752 0.521803
vt 0.221453 0.700787
vt 0.164276 0.651543
vt 0.118700 0.591287
vt 0.113156 0.604099
vt 0.624715 0.478547
vt 0.625541 0.468523
vt 0.606470 0.439711
vt 0.593833 0.456291
vt 0.624023 0.481890
vt 0.593373 0.456655
vt 0.425076 0.522873
vt 0.419533 0.535684
vt 0.392830 0.534519
vt 0.397314 0.511047
vt 0.633375 0.608619
vt 0.618184 0.621954
vt 0.633375 0.632519
vt 0.595723 0.570862
vt 0.606758 0.571967
vt 0.606758 0.598526
vt 0.596167 0.607646
vt 0.593373 0.501635
vt 0.606018 0.507055
vt 0.593373 0.574570
vt 0.595350 0.595939
s 1
usemtl Garbage_bag
f 1/1/1 2/2/2 4/3/4 3/4/3
f 3/4/3 4/3/4 6/5/6 5/6/5
f 5/6/5 6/5/6 8/7/8 7/8/7
f 7/8/7 8/7/8 10/9/10 9/10/9
f 9/10/9 10/9/10 12/11/12 11/12/11
f 4/13/4 2/14/2 16/15/16 15/16/15
f 11/12/11 12/11/12 14/17/14 13/18/13
f 13/18/13 14/17/14 2/2/2 1/1/1
f 1/1/1 3/4/3 5/6/5 7/8/7 9/10/9 11/12/11 13/18/13
f 18/19/18 17/20/17 24/21/24 25/22/25
f 8/23/8 6/24/6 17/20/17 18/19/18
f 14/25/14 12/26/12 20/27/20 21/28/21
f 10/29/10 8/30/8 18/31/18 19/32/19
f 2/14/2 14/33/14 21/34/21 16/15/16
f 6/24/6 4/35/4 15/36/15 17/20/17
f 12/26/12 10/37/10 19/38/19 20/27/20
f 23/39/23 28/40/28 35/41/35 30/42/30
f 15/16/15 16/15/16 23/43/23 22/44/22
f 21/28/21 20/27/20 27/45/27 28/46/28
f 19/32/19 18/31/18 25/47/25 26/48/26
f 17/20/17 15/36/15 22/49/22 24/21/24
f 16/15/16 21/34/21 28/50/28 23/43/23
f 20/27/20 19/38/19 26/51/26 27/45/27
f 35/41/35 34/52/34 38/53/38
f 27/54/27 26/55/26 33/56/33 34/52/34
f 25/57/25 24/58/24 31/59/31 32/60/32
f 22/61/22 23/39/23 30/42/30 29/62/29
f 28/40/28 27/54/27 34/52/34 35/41/35
f 26/55/26 25/57/25 32/60/32 33/56/33
f 24/58/24 22/61/22 29/62/29 31/59/31
f 33/56/33 32/60/32 37/63/37 38/53/38
f 31/59/31 29/62/29 36/64/36 37/63/37
f 30/42/30 35/41/35 38/53/38 36/64/36
f 34/52/34 33/56/33 38/53/38
f 32/60/32 31/59/31 37/63/37
f 29/62/29 30/42/30 36/64/36
f 36/65/36 38/66/38 41/67/41 39/68/39
f 38/66/38 37/69/37 40/70/40 41/67/41
f 37/71/37 36/72/36 39/73/39 40/74/40
f 39/75/39 41/76/41 40/77/40
f 38/78/38 36/79/36 42/80/42 44/81/44
f 37/69/37 38/66/38 44/82/44 43/83/43
f 36/79/36 37/84/37 43/85/43 42/80/42
f 43/85/43 44/81/44 42/80/42
