# Blender 4.5.9 LTS
# www.blender.org
mtllib Pipe_P_001.mtl
o Pipe_P_001
v -0.015173 -0.015173 -0.000000
v -0.015173 0.125678 -0.000000
v -0.007586 -0.015173 -0.013140
v -0.007586 0.125678 -0.013140
v 0.007586 -0.015173 -0.013140
v 0.007586 0.125678 -0.013140
v 0.015173 -0.015173 0.000000
v 0.015173 0.125678 0.000000
v 0.007586 -0.015173 0.013140
v 0.007586 0.125678 0.013140
v -0.007586 -0.015173 0.013140
v -0.007586 0.125678 0.013140
v 0.023539 0.095672 0.027245
v 0.023539 0.117799 0.027245
v -0.023554 0.095672 0.027245
v -0.023554 0.117799 0.027245
v 0.018731 0.095672 -0.033794
v 0.018731 0.117799 -0.033794
v -0.018746 0.095672 -0.033794
v -0.018746 0.117799 -0.033794
v -0.013860 0.100227 0.255086
v 0.013845 0.100227 0.255086
v 0.013845 0.113244 0.255086
v -0.013860 0.113244 0.255086
v -0.033538 0.095672 0.003699
v -0.033538 0.117799 0.003699
v 0.033523 0.095672 0.003699
v 0.033523 0.117799 0.003699
vn -0.8660 -0.0000 -0.5000
vn -0.0000 -0.0000 -1.0000
vn 0.8660 -0.0000 -0.5000
vn 0.8660 -0.0000 0.5000
vn -0.0000 1.0000 -0.0000
vn -0.0000 -0.0000 1.0000
vn -0.8660 -0.0000 0.5000
vn -0.0000 -1.0000 -0.0000
vn -0.0000 1.0000 0.0087
vn -0.0000 0.9998 0.0200
vn -0.9999 -0.0000 0.0126
vn -0.9302 -0.0000 -0.3670
vn 0.9999 -0.0000 0.0126
vn 0.9753 -0.0000 0.2211
vn -0.0000 -1.0000 0.0087
vn -0.0000 -0.9998 0.0200
vn -0.9753 -0.0000 0.2211
vn -0.9991 -0.0000 0.0425
vn 0.9991 -0.0000 0.0425
vn 0.9302 -0.0000 -0.3670
vt 0.298952 0.388863
vt 0.298952 0.693839
vt 0.317754 0.693839
vt 0.317754 0.388863
vt 0.309808 0.388863
vt 0.309808 0.693839
vt 0.288097 0.693839
vt 0.288097 0.388863
vt 0.280151 0.693839
vt 0.280151 0.388863
vt 0.317754 0.557777
vt 0.298952 0.574203
vt 0.280151 0.557777
vt 0.280151 0.524925
vt 0.298952 0.508499
vt 0.317754 0.524925
vt 0.921006 0.919421
vt 0.862517 0.919421
vt 0.874557 0.636446
vt 0.908966 0.636446
vt 0.905501 0.948666
vt 0.878021 0.948666
vt 0.878021 0.995231
vt 0.905501 0.995231
vt 0.905501 0.839112
vt 0.878021 0.839112
vt 0.878021 0.792565
vt 0.905501 0.792565
vt 0.878021 0.919421
vt 0.905501 0.919421
vt 0.850117 0.948666
vt 0.868488 0.995231
vt 0.915035 0.995231
vt 0.933405 0.948666
vt 0.899845 0.798634
vt 0.883678 0.798634
vt 0.883678 0.833043
vt 0.899845 0.833043
vt 0.899845 0.636446
vt 0.883678 0.636446
s 1
usemtl Pipes
f 1/1/1 2/2/1 4/3/1 3/4/1
f 3/5/2 4/6/2 6/7/2 5/8/2
f 5/4/3 6/3/3 8/2/3 7/1/3
f 7/1/4 8/2/4 10/9/4 9/10/4
f 4/11/5 2/12/5 12/13/5 10/14/5 8/15/5 6/16/5
f 9/8/6 10/7/6 12/6/6 11/5/6
f 11/10/7 12/9/7 2/2/7 1/1/7
f 1/12/8 3/11/8 5/16/8 7/15/8 9/14/8 11/13/8
f 14/17/9 16/18/9 24/19/10 23/20/10
f 25/21/11 26/22/11 20/23/12 19/24/12
f 19/25/2 20/26/2 18/27/2 17/28/2
f 27/21/13 28/22/13 14/29/14 13/30/14
f 25/31/8 19/32/8 17/33/8 27/34/8
f 26/31/5 16/18/9 14/17/9 28/34/5
f 22/35/6 23/36/6 24/37/6 21/38/6
f 15/18/15 13/17/15 22/20/16 21/19/16
f 16/29/17 15/30/17 21/39/18 24/40/18
f 13/30/14 14/29/14 23/40/19 22/39/19
f 20/32/5 26/31/5 28/34/5 18/33/5
f 15/18/15 25/31/8 27/34/8 13/17/15
f 17/24/20 18/23/20 28/22/13 27/21/13
f 15/30/17 16/29/17 26/22/11 25/21/11
