# Blender 4.5.9 LTS
# www.blender.org
mtllib Pipe_010.mtl
o Pipe_010
v -0.016125 0.031626 0.172863
v -0.016125 -0.000610 0.172863
v -0.004987 0.031626 0.157534
v -0.004987 -0.000610 0.157534
v 0.013033 0.031626 0.163389
v 0.013033 -0.000610 0.163389
v 0.013033 0.031626 0.182337
v 0.013033 -0.000610 0.182337
v -0.004987 0.031626 0.188192
v -0.004987 -0.000610 0.188192
v -0.016125 0.031626 -0.172865
v -0.016125 -0.000610 -0.172865
v -0.004987 0.031626 -0.157535
v -0.004987 -0.000610 -0.157535
v 0.013033 0.031626 -0.163391
v 0.013033 -0.000610 -0.163391
v 0.013033 0.031626 -0.182339
v 0.013033 -0.000610 -0.182339
v -0.004987 0.031626 -0.188194
v -0.004987 -0.000610 -0.188194
v -0.197769 -0.035328 -0.000001
v -0.139843 -0.035328 -0.139845
v 0.000000 -0.035328 -0.197770
v 0.139844 -0.035328 -0.139845
v 0.197769 -0.035328 -0.000001
v 0.139844 -0.035328 0.139842
v 0.000000 -0.035328 0.197767
v -0.139843 -0.035328 0.139842
v 0.155671 0.031626 0.000015
v 0.155671 -0.000610 0.000015
v 0.166808 0.031626 -0.015314
v 0.166808 -0.000610 -0.015314
v 0.184828 0.031626 -0.009459
v 0.184828 -0.000610 -0.009459
v 0.184828 0.031626 0.009489
v 0.184828 -0.000610 0.009489
v 0.166808 0.031626 0.015344
v 0.166808 -0.000610 0.015344
v -0.155670 0.031626 0.000015
v -0.155670 -0.000610 0.000015
v -0.166807 0.031626 -0.015314
v -0.166807 -0.000610 -0.015314
v -0.184828 0.031626 -0.009459
v -0.184828 -0.000610 -0.009459
v -0.184828 0.031626 0.009489
v -0.184828 -0.000610 0.009489
v -0.166807 0.031626 0.015344
v -0.166807 -0.000610 0.015344
v -0.133627 0.031626 0.110834
v -0.133627 -0.000610 0.110834
v -0.114912 0.031626 0.107870
v -0.114912 -0.000610 0.107870
v -0.106310 0.031626 0.124753
v -0.106310 -0.000610 0.124753
v -0.119708 0.031626 0.138151
v -0.119708 -0.000610 0.138151
v -0.136591 0.031626 0.129549
v -0.136591 -0.000610 0.129549
v 0.110839 0.031626 -0.133632
v 0.110839 -0.000610 -0.133632
v 0.107875 0.031626 -0.114917
v 0.107875 -0.000610 -0.114917
v 0.124758 0.031626 -0.106315
v 0.124758 -0.000610 -0.106315
v 0.138156 0.031626 -0.119713
v 0.138156 -0.000610 -0.119713
v 0.129554 0.031626 -0.136596
v 0.129554 -0.000610 -0.136596
v 0.110073 0.031626 0.110090
v 0.110073 -0.000610 0.110090
v 0.128787 0.031626 0.107126
v 0.128787 -0.000610 0.107126
v 0.137389 0.031626 0.124009
v 0.137389 -0.000610 0.124009
v 0.123991 0.031626 0.137407
v 0.123991 -0.000610 0.137407
v 0.107108 0.031626 0.128805
v 0.107108 -0.000610 0.128805
v -0.110078 0.031626 -0.110061
v -0.110078 -0.000610 -0.110061
v -0.107114 0.031626 -0.128776
v -0.107114 -0.000610 -0.128776
v -0.123997 0.031626 -0.137378
v -0.123997 -0.000610 -0.137378
v -0.137395 0.031626 -0.123979
v -0.137395 -0.000610 -0.123979
v -0.128793 0.031626 -0.107097
v -0.128793 -0.000610 -0.107097
v -0.139843 0.001997 0.139842
v -0.197769 0.001997 -0.000001
v 0.000000 0.001997 0.197768
v 0.139844 0.001997 0.139842
v 0.197769 0.001997 -0.000001
v 0.139844 0.001997 -0.139845
v 0.000000 0.001997 -0.197770
v -0.139843 0.001997 -0.139845
vn -0.8090 -0.0000 -0.5878
vn 0.3090 -0.0000 -0.9511
vn 1.0000 -0.0000 -0.0000
vn -0.0000 -1.0000 -0.0000
vn 0.3090 -0.0000 0.9511
vn -0.8090 -0.0000 0.5878
vn -0.0000 1.0000 -0.0000
vn -0.0000 -0.0000 -1.0000
vn 0.7071 -0.0000 -0.7071
vn -0.7071 -0.0000 -0.7071
vn -1.0000 -0.0000 -0.0000
vn -0.7071 -0.0000 0.7071
vn -0.0000 -0.0000 1.0000
vn 0.7071 -0.0000 0.7071
vn 0.8090 -0.0000 -0.5878
vn -0.3090 -0.0000 -0.9511
vn -0.3090 -0.0000 0.9511
vn 0.8090 -0.0000 0.5878
vn -0.1564 -0.0000 -0.9877
vn 0.8910 -0.0000 -0.4540
vn -0.4540 -0.0000 0.8910
vn -0.9877 -0.0000 -0.1564
vn 0.9877 -0.0000 0.1564
vn 0.4540 -0.0000 -0.8910
vn -0.8910 -0.0000 0.4540
vn 0.1564 -0.0000 0.9877
vt 0.735827 0.673934
vt 0.757351 0.673934
vt 0.757351 0.719199
vt 0.735827 0.719199
vt 0.740659 0.673934
vt 0.715356 0.673934
vt 0.715356 0.719199
vt 0.740659 0.719199
vt 0.749130 0.673934
vt 0.722524 0.673934
vt 0.722524 0.719199
vt 0.749130 0.719199
vt 0.757351 0.701399
vt 0.749130 0.676095
vt 0.722524 0.676095
vt 0.714302 0.701399
vt 0.735827 0.717037
vt 0.714302 0.673934
vt 0.714302 0.719199
vt 0.807508 0.109224
vt 0.807508 0.211552
vt 0.780196 0.211552
vt 0.780196 0.109224
vt 0.807508 0.006897
vt 0.780196 0.006897
vt 0.807508 0.109224
vt 0.807508 0.327673
vt 0.807508 0.225346
vt 0.780196 0.225346
vt 0.780196 0.327673
vt 0.807508 0.430000
vt 0.780196 0.430000
vt 0.807508 0.327673
vt 0.085026 0.728151
vt 0.194793 0.728151
vt 0.272410 0.805768
vt 0.272410 0.915534
vt 0.194793 0.993151
vt 0.085026 0.993151
vt 0.007409 0.915534
vt 0.007409 0.805767
vt 0.195973 0.993103
vt 0.085215 0.993103
vt 0.006897 0.914785
vt 0.006897 0.804027
vt 0.085215 0.725709
vt 0.195973 0.725709
vt 0.274291 0.804027
vt 0.274291 0.914785
s 1
usemtl Pipes
f 1/1/1 3/2/1 4/3/1 2/4/1
f 3/5/2 5/6/2 6/7/2 4/8/2
f 5/9/3 7/10/3 8/11/3 6/12/3
f 4/13/4 6/14/4 8/15/4 10/16/4 2/17/4
f 7/6/5 9/5/5 10/8/5 8/7/5
f 9/18/6 1/1/6 2/4/6 10/19/6
f 1/17/7 9/16/7 7/15/7 5/14/7 3/13/7
f 11/1/6 12/4/6 14/3/6 13/2/6
f 13/5/5 14/8/5 16/7/5 15/6/5
f 15/9/3 16/12/3 18/11/3 17/10/3
f 14/13/4 12/17/4 20/16/4 18/15/4 16/14/4
f 17/6/2 18/7/2 20/8/2 19/5/2
f 19/18/1 20/19/1 12/4/1 11/1/1
f 11/17/7 13/13/7 15/14/7 17/15/7 19/16/7
f 95/20/8 94/21/9 24/22/9 23/23/8
f 96/24/10 95/20/8 23/23/8 22/25/10
f 90/26/11 96/24/10 22/25/10 21/23/11
f 89/21/12 90/26/11 21/23/11 28/22/12
f 91/27/13 89/28/12 28/29/12 27/30/13
f 92/31/14 91/27/13 27/30/13 26/32/14
f 93/33/3 92/31/14 26/32/14 25/30/3
f 94/28/9 93/33/3 25/30/3 24/29/9
f 29/1/1 31/2/1 32/3/1 30/4/1
f 31/5/2 33/6/2 34/7/2 32/8/2
f 33/9/3 35/10/3 36/11/3 34/12/3
f 32/13/4 34/14/4 36/15/4 38/16/4 30/17/4
f 35/6/5 37/5/5 38/8/5 36/7/5
f 37/18/6 29/1/6 30/4/6 38/19/6
f 29/17/7 37/16/7 35/15/7 33/14/7 31/13/7
f 39/1/15 40/4/15 42/3/15 41/2/15
f 41/5/16 42/8/16 44/7/16 43/6/16
f 43/9/11 44/12/11 46/11/11 45/10/11
f 42/13/4 40/17/4 48/16/4 46/15/4 44/14/4
f 45/6/17 46/7/17 48/8/17 47/5/17
f 47/18/18 48/19/18 40/4/18 39/1/18
f 39/17/7 41/13/7 43/14/7 45/15/7 47/16/7
f 49/1/19 51/2/19 52/3/19 50/4/19
f 51/5/20 53/6/20 54/7/20 52/8/20
f 53/9/14 55/10/14 56/11/14 54/12/14
f 52/13/4 54/14/4 56/15/4 58/16/4 50/17/4
f 55/6/21 57/5/21 58/8/21 56/7/21
f 57/18/22 49/1/22 50/4/22 58/19/22
f 49/17/7 57/16/7 55/15/7 53/14/7 51/13/7
f 59/1/22 60/4/22 62/3/22 61/2/22
f 61/5/21 62/8/21 64/7/21 63/6/21
f 63/9/14 64/12/14 66/11/14 65/10/14
f 62/13/4 60/17/4 68/16/4 66/15/4 64/14/4
f 65/6/20 66/7/20 68/8/20 67/5/20
f 67/18/19 68/19/19 60/4/19 59/1/19
f 59/17/7 61/13/7 63/14/7 65/15/7 67/16/7
f 69/1/19 71/2/19 72/3/19 70/4/19
f 71/5/20 73/6/20 74/7/20 72/8/20
f 73/9/14 75/10/14 76/11/14 74/12/14
f 72/13/4 74/14/4 76/15/4 78/16/4 70/17/4
f 75/6/21 77/5/21 78/8/21 76/7/21
f 77/18/22 69/1/22 70/4/22 78/19/22
f 69/17/7 77/16/7 75/15/7 73/14/7 71/13/7
f 79/1/23 80/4/23 82/3/23 81/2/23
f 81/5/24 82/8/24 84/7/24 83/6/24
f 83/9/10 84/12/10 86/11/10 85/10/10
f 82/13/4 80/17/4 88/16/4 86/15/4 84/14/4
f 85/6/25 86/7/25 88/8/25 87/5/25
f 87/18/26 88/19/26 80/4/26 79/1/26
f 79/17/7 81/13/7 83/14/7 85/15/7 87/16/7
f 28/34/4 21/35/4 22/36/4 23/37/4 24/38/4 25/39/4 26/40/4 27/41/4
f 90/42/7 89/43/7 91/44/7 92/45/7 93/46/7 94/47/7 95/48/7 96/49/7
