# Blender 4.5.9 LTS
# www.blender.org
mtllib Pipe.mtl
o Pipe
v -0.016219 0.173872 -0.454758
v -0.016219 0.173872 -0.487182
v -0.005017 0.158454 -0.454758
v -0.005017 0.158454 -0.487182
v 0.013109 0.164343 -0.454758
v 0.013109 0.164343 -0.487182
v 0.013109 0.183401 -0.454758
v 0.013109 0.183401 -0.487182
v -0.005017 0.189291 -0.454758
v -0.005017 0.189291 -0.487182
v -0.016219 -0.173872 -0.454758
v -0.016219 -0.173872 -0.487182
v -0.005017 -0.158454 -0.454758
v -0.005017 -0.158454 -0.487182
v 0.013109 -0.164343 -0.454758
v 0.013109 -0.164343 -0.487182
v 0.013109 -0.183401 -0.454758
v 0.013109 -0.183401 -0.487182
v -0.005017 -0.189291 -0.454758
v -0.005017 -0.189291 -0.487182
v -0.016219 0.173872 0.454760
v -0.016219 0.173872 0.487184
v -0.005017 0.158454 0.454760
v -0.005017 0.158454 0.487184
v 0.013109 0.164343 0.454760
v 0.013109 0.164343 0.487184
v 0.013109 0.183401 0.454760
v 0.013109 0.183401 0.487184
v -0.005017 0.189291 0.454760
v -0.005017 0.189291 0.487184
v -0.016219 -0.173872 0.454760
v -0.016219 -0.173872 0.487184
v -0.005017 -0.158454 0.454760
v -0.005017 -0.158454 0.487184
v 0.013109 -0.164343 0.454760
v 0.013109 -0.164343 0.487184
v 0.013109 -0.183401 0.454760
v 0.013109 -0.183401 0.487184
v -0.005017 -0.189291 0.454760
v -0.005017 -0.189291 0.487184
v -0.152134 -0.000001 -0.484560
v -0.107575 -0.107576 -0.484560
v 0.000000 -0.152134 -0.484560
v 0.107575 -0.107576 -0.484560
v 0.152134 -0.000001 -0.484560
v 0.107575 0.107574 -0.484560
v 0.000000 0.152133 -0.484560
v -0.107575 0.107574 -0.484560
v -0.152134 -0.000001 0.484562
v -0.107575 -0.107575 0.484562
v 0.000000 -0.152134 0.484562
v 0.107575 -0.107575 0.484562
v 0.152134 -0.000001 0.484562
v 0.107575 0.107574 0.484562
v 0.000000 0.152133 0.484562
v -0.107575 0.107574 0.484562
v -0.198923 -0.000001 -0.484560
v -0.140660 -0.140660 -0.484560
v 0.000000 -0.198923 -0.484560
v 0.140660 -0.140660 -0.484560
v 0.198923 -0.000001 -0.484560
v 0.140660 0.140659 -0.484560
v 0.000000 0.198922 -0.484560
v -0.140660 0.140659 -0.484560
v -0.198923 -0.000001 0.484562
v -0.140660 -0.140660 0.484562
v 0.000000 -0.198923 0.484562
v 0.140660 -0.140660 0.484562
v 0.198923 -0.000001 0.484562
v 0.140660 0.140659 0.484562
v 0.000000 0.198922 0.484562
v -0.140660 0.140659 0.484562
v -0.198923 -0.000001 -0.522103
v -0.140660 -0.140660 -0.522103
v 0.000000 -0.198923 -0.522103
v 0.140660 -0.140660 -0.522103
v 0.198923 -0.000001 -0.522103
v 0.140660 0.140659 -0.522103
v 0.000000 0.198922 -0.522103
v -0.140660 0.140659 -0.522103
v -0.198923 -0.000001 0.522105
v -0.140659 -0.140660 0.522105
v 0.000000 -0.198923 0.522105
v 0.140660 -0.140660 0.522105
v 0.198923 -0.000001 0.522105
v 0.140660 0.140659 0.522105
v 0.000000 0.198922 0.522105
v -0.140659 0.140659 0.522105
v -0.152134 -0.000001 0.000001
v -0.107575 -0.107575 0.000001
v 0.000000 -0.152134 0.000001
v 0.107575 -0.107575 0.000001
v 0.152134 -0.000001 0.000001
v 0.107575 0.107574 0.000001
v 0.000000 0.152133 0.000001
v -0.107575 0.107574 0.000001
v 0.156578 0.000016 -0.454758
v 0.156578 0.000016 -0.487182
v 0.167781 -0.015403 -0.454758
v 0.167781 -0.015403 -0.487182
v 0.185906 -0.009513 -0.454758
v 0.185906 -0.009513 -0.487182
v 0.185906 0.009545 -0.454758
v 0.185906 0.009545 -0.487182
v 0.167781 0.015435 -0.454758
v 0.167781 0.015435 -0.487182
v -0.156578 0.000016 -0.454758
v -0.156578 0.000016 -0.487182
v -0.167781 -0.015403 -0.454758
v -0.167781 -0.015403 -0.487182
v -0.185906 -0.009513 -0.454758
v -0.185906 -0.009513 -0.487182
v -0.185906 0.009545 -0.454758
v -0.185906 0.009545 -0.487182
v -0.167781 0.015435 -0.454758
v -0.167781 0.015435 -0.487182
v 0.156579 0.000016 0.454760
v 0.156579 0.000016 0.487184
v 0.167781 -0.015403 0.454760
v 0.167781 -0.015403 0.487184
v 0.185906 -0.009513 0.454760
v 0.185906 -0.009513 0.487184
v 0.185906 0.009545 0.454760
v 0.185906 0.009545 0.487184
v 0.167781 0.015435 0.454760
v 0.167781 0.015435 0.487184
v -0.156578 0.000016 0.454760
v -0.156578 0.000016 0.487184
v -0.167781 -0.015403 0.454760
v -0.167781 -0.015403 0.487184
v -0.185906 -0.009513 0.454760
v -0.185906 -0.009513 0.487184
v -0.185906 0.009545 0.454760
v -0.185906 0.009545 0.487184
v -0.167781 0.015435 0.454760
v -0.167781 0.015435 0.487184
v -0.134407 0.111482 -0.454758
v -0.134407 0.111482 -0.487183
v -0.115583 0.108500 -0.454758
v -0.115583 0.108500 -0.487183
v -0.106931 0.125481 -0.454758
v -0.106931 0.125481 -0.487183
v -0.120407 0.138958 -0.454758
v -0.120407 0.138958 -0.487183
v -0.137388 0.130306 -0.454758
v -0.137388 0.130306 -0.487183
v 0.111486 -0.134411 -0.454758
v 0.111486 -0.134411 -0.487183
v 0.108504 -0.115587 -0.454758
v 0.108504 -0.115587 -0.487183
v 0.125486 -0.106935 -0.454758
v 0.125486 -0.106935 -0.487183
v 0.138962 -0.120411 -0.454758
v 0.138962 -0.120411 -0.487183
v 0.130310 -0.137392 -0.454758
v 0.130310 -0.137392 -0.487183
v -0.134407 0.111482 0.454760
v -0.134407 0.111482 0.487184
v -0.115583 0.108500 0.454760
v -0.115583 0.108500 0.487184
v -0.106930 0.125482 0.454760
v -0.106930 0.125482 0.487184
v -0.120407 0.138958 0.454760
v -0.120407 0.138958 0.487184
v -0.137388 0.130306 0.454760
v -0.137388 0.130306 0.487184
v 0.111486 -0.134411 0.454760
v 0.111486 -0.134411 0.487184
v 0.108504 -0.115587 0.454760
v 0.108504 -0.115587 0.487184
v 0.125486 -0.106935 0.454760
v 0.125486 -0.106935 0.487184
v 0.138962 -0.120411 0.454760
v 0.138962 -0.120411 0.487184
v 0.130310 -0.137392 0.454760
v 0.130310 -0.137392 0.487184
v 0.110714 0.110733 -0.454758
v 0.110714 0.110733 -0.487183
v 0.129538 0.107752 -0.454758
v 0.129538 0.107752 -0.487183
v 0.138191 0.124733 -0.454758
v 0.138191 0.124733 -0.487183
v 0.124714 0.138209 -0.454758
v 0.124714 0.138209 -0.487183
v 0.107733 0.129557 -0.454758
v 0.107733 0.129557 -0.487183
v -0.110721 -0.110702 -0.454758
v -0.110721 -0.110702 -0.487183
v -0.107739 -0.129526 -0.454758
v -0.107739 -0.129526 -0.487183
v -0.124721 -0.138178 -0.454758
v -0.124721 -0.138178 -0.487183
v -0.138197 -0.124702 -0.454758
v -0.138197 -0.124702 -0.487183
v -0.129545 -0.107721 -0.454758
v -0.129545 -0.107721 -0.487183
v 0.110715 0.110733 0.454760
v 0.110715 0.110733 0.487184
v 0.129538 0.107752 0.454760
v 0.129538 0.107752 0.487184
v 0.138191 0.124733 0.454760
v 0.138191 0.124733 0.487184
v 0.124714 0.138209 0.454760
v 0.124714 0.138209 0.487184
v 0.107733 0.129557 0.454760
v 0.107733 0.129557 0.487184
v -0.110721 -0.110702 0.454760
v -0.110721 -0.110702 0.487184
v -0.107739 -0.129526 0.454760
v -0.107739 -0.129526 0.487184
v -0.124721 -0.138178 0.454760
v -0.124721 -0.138178 0.487184
v -0.138197 -0.124702 0.454760
v -0.138197 -0.124702 0.487184
v -0.129545 -0.107721 0.454760
v -0.129545 -0.107721 0.487184
v -0.016219 0.224760 0.173873
v -0.016219 0.257184 0.173873
v -0.005017 0.224760 0.158455
v -0.005017 0.257184 0.158455
v 0.013109 0.224760 0.164344
v 0.013109 0.257184 0.164344
v 0.013109 0.224760 0.183402
v 0.013109 0.257184 0.183402
v -0.005017 0.224760 0.189292
v -0.005017 0.257184 0.189292
v -0.016219 0.224760 -0.173871
v -0.016219 0.257184 -0.173871
v -0.005017 0.224760 -0.158453
v -0.005017 0.257184 -0.158453
v 0.013109 0.224760 -0.164342
v 0.013109 0.257184 -0.164342
v 0.013109 0.224760 -0.183400
v 0.013109 0.257184 -0.183400
v -0.005017 0.224760 -0.189290
v -0.005017 0.257184 -0.189290
v -0.152134 0.254562 0.000000
v -0.107575 0.254562 -0.107574
v 0.000000 0.254562 -0.152133
v 0.107575 0.254562 -0.107574
v 0.152134 0.254562 0.000000
v 0.107575 0.254562 0.107575
v 0.000000 0.254562 0.152134
v -0.107575 0.254562 0.107575
v -0.198923 0.254562 0.000000
v -0.140660 0.254562 -0.140659
v 0.000000 0.254562 -0.198922
v 0.140660 0.254562 -0.140659
v 0.198923 0.254562 0.000000
v 0.140660 0.254562 0.140660
v 0.000000 0.254562 0.198923
v -0.140660 0.254562 0.140660
v -0.198923 0.292105 0.000000
v -0.140659 0.292105 -0.140659
v 0.000000 0.292105 -0.198922
v 0.140660 0.292105 -0.140659
v 0.198923 0.292105 0.000000
v 0.140660 0.292105 0.140660
v 0.000000 0.292105 0.198923
v -0.140660 0.292105 0.140660
v -0.152134 0.000001 0.000000
v -0.107575 0.000001 -0.107574
v 0.000000 0.000001 -0.152133
v 0.107575 0.000001 -0.107574
v 0.152134 0.000001 0.000001
v 0.107575 0.000001 0.107575
v 0.000000 0.000001 0.152134
v -0.107575 0.000001 0.107575
v 0.156578 0.224760 0.000017
v 0.156578 0.257184 0.000017
v 0.167781 0.224760 -0.015401
v 0.167781 0.257184 -0.015402
v 0.185906 0.224760 -0.009512
v 0.185906 0.257184 -0.009512
v 0.185906 0.224760 0.009546
v 0.185906 0.257184 0.009546
v 0.167781 0.224760 0.015436
v 0.167781 0.257184 0.015436
v -0.156578 0.224760 0.000017
v -0.156578 0.257184 0.000017
v -0.167781 0.224760 -0.015402
v -0.167781 0.257184 -0.015402
v -0.185906 0.224760 -0.009512
v -0.185906 0.257184 -0.009512
v -0.185906 0.224760 0.009546
v -0.185906 0.257184 0.009546
v -0.167781 0.224760 0.015436
v -0.167781 0.257184 0.015436
v -0.134407 0.224760 0.111483
v -0.134407 0.257184 0.111483
v -0.115583 0.224760 0.108501
v -0.115583 0.257184 0.108501
v -0.106930 0.224760 0.125483
v -0.106930 0.257184 0.125483
v -0.120407 0.224760 0.138959
v -0.120407 0.257184 0.138959
v -0.137388 0.224760 0.130307
v -0.137388 0.257184 0.130307
v 0.111486 0.224760 -0.134410
v 0.111486 0.257184 -0.134410
v 0.108504 0.224760 -0.115586
v 0.108504 0.257184 -0.115586
v 0.125486 0.224760 -0.106933
v 0.125486 0.257184 -0.106933
v 0.138962 0.224760 -0.120410
v 0.138962 0.257184 -0.120410
v 0.130310 0.224760 -0.137391
v 0.130310 0.257184 -0.137391
v 0.110715 0.224760 0.110734
v 0.110715 0.257184 0.110734
v 0.129538 0.224760 0.107753
v 0.129538 0.257184 0.107753
v 0.138191 0.224760 0.124734
v 0.138191 0.257184 0.124734
v 0.124714 0.224760 0.138210
v 0.124714 0.257184 0.138210
v 0.107733 0.224760 0.129558
v 0.107733 0.257184 0.129558
v -0.110721 0.224760 -0.110701
v -0.110721 0.257184 -0.110701
v -0.107739 0.224760 -0.129525
v -0.107739 0.257184 -0.129525
v -0.124721 0.224760 -0.138177
v -0.124721 0.257184 -0.138177
v -0.138197 0.224760 -0.124701
v -0.138197 0.257184 -0.124701
v -0.129545 0.224760 -0.107720
v -0.129545 0.257184 -0.107720
vn -0.8090 -0.5878 -0.0000
vn 0.3090 -0.9511 -0.0000
vn 1.0000 -0.0000 -0.0000
vn -0.0000 -0.0000 -1.0000
vn 0.3090 0.9511 -0.0000
vn -0.8090 0.5878 -0.0000
vn -0.0000 -0.0000 1.0000
vn -1.0000 -0.0000 -0.0000
vn -0.7071 -0.7071 -0.0000
vn -0.0000 -1.0000 -0.0000
vn 0.7071 -0.7071 -0.0000
vn 0.7071 0.7071 -0.0000
vn -0.0000 1.0000 -0.0000
vn -0.7071 0.7071 -0.0000
vn 0.8090 -0.5878 -0.0000
vn -0.3090 -0.9511 -0.0000
vn -0.3090 0.9511 -0.0000
vn 0.8090 0.5878 -0.0000
vn -0.1564 -0.9877 -0.0000
vn 0.8910 -0.4540 -0.0000
vn -0.4540 0.8910 -0.0000
vn -0.9877 -0.1564 -0.0000
vn 0.9877 0.1564 -0.0000
vn 0.4540 -0.8910 -0.0000
vn -0.8910 0.4540 -0.0000
vn 0.1564 0.9877 -0.0000
vn -0.8090 -0.0000 -0.5878
vn 0.3090 -0.0000 -0.9511
vn 0.3090 -0.0000 0.9511
vn -0.8090 -0.0000 0.5878
vn 0.7071 -0.0000 -0.7071
vn -0.7071 -0.0000 -0.7071
vn -0.7071 -0.0000 0.7071
vn 0.7071 -0.0000 0.7071
vn 0.8090 -0.0000 -0.5878
vn -0.3090 -0.0000 -0.9511
vn -0.3090 -0.0000 0.9511
vn 0.8090 -0.0000 0.5878
vn -0.1564 -0.0000 -0.9877
vn 0.8910 -0.0000 -0.4540
vn -0.4540 -0.0000 0.8910
vn -0.9877 -0.0000 -0.1564
vn 0.9877 -0.0000 0.1564
vn 0.4540 -0.0000 -0.8910
vn -0.8910 -0.0000 0.4540
vn 0.1564 -0.0000 0.9877
vt 0.735827 0.673934
vt 0.735827 0.719199
vt 0.757351 0.719199
vt 0.757351 0.673934
vt 0.740659 0.673934
vt 0.740659 0.719199
vt 0.715356 0.719199
vt 0.715356 0.673934
vt 0.749130 0.673934
vt 0.749130 0.719199
vt 0.722524 0.719199
vt 0.722524 0.673934
vt 0.757351 0.701399
vt 0.735827 0.717037
vt 0.714302 0.701399
vt 0.722524 0.676095
vt 0.749130 0.676095
vt 0.714302 0.673934
vt 0.714302 0.719199
vt 0.425779 0.359406
vt 0.425779 0.711914
vt 0.504037 0.711914
vt 0.504037 0.359406
vt 0.674349 0.359406
vt 0.674349 0.711914
vt 0.596090 0.711914
vt 0.596090 0.359406
vt 0.517832 0.711914
vt 0.517832 0.359406
vt 0.766402 0.373200
vt 0.766402 0.725709
vt 0.688143 0.725709
vt 0.688143 0.373200
vt 0.255467 0.359406
vt 0.255467 0.711915
vt 0.177209 0.711915
vt 0.177209 0.359406
vt 0.006897 0.359406
vt 0.006897 0.711915
vt 0.085156 0.711914
vt 0.085156 0.359406
vt 0.688143 0.006897
vt 0.688143 0.359406
vt 0.766402 0.359406
vt 0.766402 0.006897
vt 0.347520 0.359406
vt 0.347520 0.711914
vt 0.243073 0.901019
vt 0.243073 0.815985
vt 0.274642 0.802909
vt 0.274642 0.914095
vt 0.038344 0.901759
vt 0.098241 0.961656
vt 0.085215 0.993103
vt 0.006897 0.914785
vt 0.182945 0.961147
vt 0.196022 0.992715
vt 0.038344 0.817053
vt 0.006897 0.804027
vt 0.097912 0.961147
vt 0.084836 0.992715
vt 0.098241 0.757156
vt 0.085215 0.725709
vt 0.037784 0.901019
vt 0.006216 0.914095
vt 0.182947 0.757156
vt 0.195973 0.725709
vt 0.037784 0.815985
vt 0.006216 0.802909
vt 0.242844 0.817053
vt 0.274291 0.804027
vt 0.097912 0.755858
vt 0.084836 0.724289
vt 0.242844 0.901759
vt 0.274291 0.914785
vt 0.182945 0.755858
vt 0.196022 0.724289
vt 0.182947 0.961656
vt 0.195973 0.993103
vt 0.779460 0.303450
vt 0.779461 0.425801
vt 0.812117 0.425801
vt 0.812117 0.303450
vt 0.807508 0.109224
vt 0.807508 0.211552
vt 0.780196 0.211552
vt 0.780196 0.109224
vt 0.779461 0.181099
vt 0.812117 0.181099
vt 0.807508 0.006897
vt 0.780196 0.006897
vt 0.779461 0.303450
vt 0.812117 0.425801
vt 0.812117 0.303450
vt 0.807508 0.109224
vt 0.779461 0.303450
vt 0.807508 0.327673
vt 0.807508 0.225346
vt 0.780196 0.225346
vt 0.780196 0.327673
vt 0.807508 0.430000
vt 0.780196 0.430000
vt 0.807508 0.327673
vt 0.423544 0.726323
vt 0.535265 0.726323
vt 0.614263 0.805322
vt 0.614263 0.917042
vt 0.535265 0.996041
vt 0.423544 0.996041
vt 0.344545 0.917042
vt 0.344545 0.805322
vt 0.425838 0.993103
vt 0.536596 0.993103
vt 0.614914 0.914785
vt 0.614914 0.804026
vt 0.536596 0.725709
vt 0.425838 0.725709
vt 0.347520 0.804027
vt 0.347520 0.914785
vt 0.347520 0.006897
vt 0.425779 0.006897
vt 0.085156 0.006897
vt 0.163414 0.359406
vt 0.163414 0.006897
vt 0.006897 0.006897
vt 0.255467 0.006897
vt 0.177209 0.006897
vt 0.333726 0.006897
vt 0.333726 0.359406
vt 0.596090 0.006897
vt 0.517832 0.006897
vt 0.674349 0.006897
vt 0.504037 0.006897
vt 0.347520 0.091254
vt 0.425779 0.091254
vt 0.425779 0.275049
vt 0.347520 0.275049
vt 0.085156 0.091254
vt 0.163414 0.091254
vt 0.163414 0.275049
vt 0.085156 0.275049
vt 0.006897 0.091254
vt 0.006897 0.275049
vt 0.255467 0.091254
vt 0.177209 0.091254
vt 0.177209 0.275049
vt 0.255467 0.275049
vt 0.333726 0.091254
vt 0.333726 0.275049
vt 0.596090 0.091254
vt 0.517832 0.091254
vt 0.517832 0.275049
vt 0.596090 0.275049
vt 0.674349 0.091254
vt 0.674349 0.275049
vt 0.504037 0.091254
vt 0.504037 0.275049
s 0
usemtl Pipes
f 1/1/1 2/2/1 4/3/1 3/4/1
f 3/5/2 4/6/2 6/7/2 5/8/2
f 5/9/3 6/10/3 8/11/3 7/12/3
f 4/13/4 2/14/4 10/15/4 8/16/4 6/17/4
f 7/8/5 8/7/5 10/6/5 9/5/5
f 9/18/6 10/19/6 2/2/6 1/1/6
f 1/14/7 3/13/7 5/17/7 7/16/7 9/15/7
f 11/1/6 13/4/6 14/3/6 12/2/6
f 13/5/5 15/8/5 16/7/5 14/6/5
f 15/9/3 17/12/3 18/11/3 16/10/3
f 14/13/4 16/17/4 18/16/4 20/15/4 12/14/4
f 17/8/2 19/5/2 20/6/2 18/7/2
f 19/18/1 11/1/1 12/2/1 20/19/1
f 11/14/7 19/15/7 17/16/7 15/17/7 13/13/7
f 21/1/1 23/4/1 24/3/1 22/2/1
f 23/5/2 25/8/2 26/7/2 24/6/2
f 25/9/3 27/12/3 28/11/3 26/10/3
f 24/13/7 26/17/7 28/16/7 30/15/7 22/14/7
f 27/8/5 29/5/5 30/6/5 28/7/5
f 29/18/6 21/1/6 22/2/6 30/19/6
f 21/14/4 29/15/4 27/16/4 25/17/4 23/13/4
f 31/1/6 32/2/6 34/3/6 33/4/6
f 33/5/5 34/6/5 36/7/5 35/8/5
f 35/9/3 36/10/3 38/11/3 37/12/3
f 34/13/7 32/14/7 40/15/7 38/16/7 36/17/7
f 37/8/2 38/7/2 40/6/2 39/5/2
f 39/18/1 40/19/1 32/2/1 31/1/1
f 31/14/4 33/13/4 35/17/4 37/16/4 39/15/4
s 1
f 89/20/8 41/21/8 42/22/9 90/23/9
f 90/24/9 42/25/9 43/26/10 91/27/10
f 91/27/10 43/26/10 44/28/11 92/29/11
f 92/30/11 44/31/11 45/32/3 93/33/3
f 93/34/3 45/35/3 46/36/12 94/37/12
f 94/38/12 46/39/12 47/40/13 95/41/13
f 95/42/13 47/43/13 48/44/14 96/45/14
f 96/46/14 48/47/14 41/21/8 89/20/8
f 43/48/7 42/49/7 58/50/7 59/51/7
f 55/52/4 56/53/4 72/54/4 71/55/4
f 44/56/7 43/48/7 59/51/7 60/57/7
f 54/58/4 55/52/4 71/55/4 70/59/4
f 45/60/7 44/56/7 60/57/7 61/61/7
f 53/62/4 54/58/4 70/59/4 69/63/4
f 46/64/7 45/60/7 61/61/7 62/65/7
f 52/66/4 53/62/4 69/63/4 68/67/4
f 47/68/7 46/64/7 62/65/7 63/69/7
f 51/70/4 52/66/4 68/67/4 67/71/4
f 48/72/7 47/68/7 63/69/7 64/73/7
f 50/74/4 51/70/4 67/71/4 66/75/4
f 42/49/7 41/76/7 57/77/7 58/50/7
f 41/76/7 48/72/7 64/73/7 57/77/7
f 49/78/4 50/74/4 66/75/4 65/79/4
f 56/53/4 49/78/4 65/79/4 72/54/4
f 63/80/13 62/81/12 78/82/12 79/83/13
f 67/84/10 68/85/11 84/86/11 83/87/10
f 64/88/14 63/80/13 79/83/13 80/89/14
f 66/90/9 67/84/10 83/87/10 82/91/9
f 57/92/8 64/81/14 80/93/14 73/94/8
f 58/88/9 57/92/8 73/94/8 74/89/9
f 65/95/8 66/90/9 82/91/9 81/87/8
f 72/85/14 65/95/8 81/87/8 88/86/14
f 59/96/10 58/88/9 74/89/9 75/94/10
f 71/97/13 72/98/14 88/99/14 87/100/13
f 60/81/11 59/96/10 75/94/10 76/82/11
f 70/101/12 71/97/13 87/100/13 86/102/12
f 61/92/3 60/88/11 76/89/11 77/94/3
f 69/103/3 70/101/12 86/102/12 85/100/3
f 62/81/12 61/92/3 77/94/3 78/93/12
f 68/98/11 69/103/3 85/100/3 84/99/11
f 74/104/4 73/105/4 80/106/4 79/107/4 78/108/4 77/109/4 76/110/4 75/111/4
f 88/112/7 81/113/7 82/114/7 83/115/7 84/116/7 85/117/7 86/118/7 87/119/7
f 56/120/14 96/46/14 89/20/8 49/121/8
f 55/122/13 95/41/13 96/123/14 56/124/14
f 54/125/12 94/38/12 95/41/13 55/122/13
f 53/126/3 93/34/3 94/37/12 54/127/12
f 52/128/11 92/129/11 93/34/3 53/126/3
f 51/130/10 91/27/10 92/29/11 52/131/11
f 50/132/9 90/24/9 91/27/10 51/130/10
f 49/121/8 89/20/8 90/23/9 50/133/9
s 0
f 97/1/1 98/2/1 100/3/1 99/4/1
f 99/5/2 100/6/2 102/7/2 101/8/2
f 101/9/3 102/10/3 104/11/3 103/12/3
f 100/13/4 98/14/4 106/15/4 104/16/4 102/17/4
f 103/8/5 104/7/5 106/6/5 105/5/5
f 105/18/6 106/19/6 98/2/6 97/1/6
f 97/14/7 99/13/7 101/17/7 103/16/7 105/15/7
f 107/1/15 109/4/15 110/3/15 108/2/15
f 109/5/16 111/8/16 112/7/16 110/6/16
f 111/9/8 113/12/8 114/11/8 112/10/8
f 110/13/4 112/17/4 114/16/4 116/15/4 108/14/4
f 113/8/17 115/5/17 116/6/17 114/7/17
f 115/18/18 107/1/18 108/2/18 116/19/18
f 107/14/7 115/15/7 113/16/7 111/17/7 109/13/7
f 117/1/1 119/4/1 120/3/1 118/2/1
f 119/5/2 121/8/2 122/7/2 120/6/2
f 121/9/3 123/12/3 124/11/3 122/10/3
f 120/13/7 122/17/7 124/16/7 126/15/7 118/14/7
f 123/8/5 125/5/5 126/6/5 124/7/5
f 125/18/6 117/1/6 118/2/6 126/19/6
f 117/14/4 125/15/4 123/16/4 121/17/4 119/13/4
f 127/1/15 128/2/15 130/3/15 129/4/15
f 129/5/16 130/6/16 132/7/16 131/8/16
f 131/9/8 132/10/8 134/11/8 133/12/8
f 130/13/7 128/14/7 136/15/7 134/16/7 132/17/7
f 133/8/17 134/7/17 136/6/17 135/5/17
f 135/18/18 136/19/18 128/2/18 127/1/18
f 127/14/4 129/13/4 131/17/4 133/16/4 135/15/4
f 137/1/19 138/2/19 140/3/19 139/4/19
f 139/5/20 140/6/20 142/7/20 141/8/20
f 141/9/12 142/10/12 144/11/12 143/12/12
f 140/13/4 138/14/4 146/15/4 144/16/4 142/17/4
f 143/8/21 144/7/21 146/6/21 145/5/21
f 145/18/22 146/19/22 138/2/22 137/1/22
f 137/14/7 139/13/7 141/17/7 143/16/7 145/15/7
f 147/1/22 149/4/22 150/3/22 148/2/22
f 149/5/21 151/8/21 152/7/21 150/6/21
f 151/9/12 153/12/12 154/11/12 152/10/12
f 150/13/4 152/17/4 154/16/4 156/15/4 148/14/4
f 153/8/20 155/5/20 156/6/20 154/7/20
f 155/18/19 147/1/19 148/2/19 156/19/19
f 147/14/7 155/15/7 153/16/7 151/17/7 149/13/7
f 157/1/19 159/4/19 160/3/19 158/2/19
f 159/5/20 161/8/20 162/7/20 160/6/20
f 161/9/12 163/12/12 164/11/12 162/10/12
f 160/13/7 162/17/7 164/16/7 166/15/7 158/14/7
f 163/8/21 165/5/21 166/6/21 164/7/21
f 165/18/22 157/1/22 158/2/22 166/19/22
f 157/14/4 165/15/4 163/16/4 161/17/4 159/13/4
f 167/1/22 168/2/22 170/3/22 169/4/22
f 169/5/21 170/6/21 172/7/21 171/8/21
f 171/9/12 172/10/12 174/11/12 173/12/12
f 170/13/7 168/14/7 176/15/7 174/16/7 172/17/7
f 173/8/20 174/7/20 176/6/20 175/5/20
f 175/18/19 176/19/19 168/2/19 167/1/19
f 167/14/4 169/13/4 171/17/4 173/16/4 175/15/4
f 177/1/19 178/2/19 180/3/19 179/4/19
f 179/5/20 180/6/20 182/7/20 181/8/20
f 181/9/12 182/10/12 184/11/12 183/12/12
f 180/13/4 178/14/4 186/15/4 184/16/4 182/17/4
f 183/8/21 184/7/21 186/6/21 185/5/21
f 185/18/22 186/19/22 178/2/22 177/1/22
f 177/14/7 179/13/7 181/17/7 183/16/7 185/15/7
f 187/1/23 189/4/23 190/3/23 188/2/23
f 189/5/24 191/8/24 192/7/24 190/6/24
f 191/9/9 193/12/9 194/11/9 192/10/9
f 190/13/4 192/17/4 194/16/4 196/15/4 188/14/4
f 193/8/25 195/5/25 196/6/25 194/7/25
f 195/18/26 187/1/26 188/2/26 196/19/26
f 187/14/7 195/15/7 193/16/7 191/17/7 189/13/7
f 197/1/19 199/4/19 200/3/19 198/2/19
f 199/5/20 201/8/20 202/7/20 200/6/20
f 201/9/12 203/12/12 204/11/12 202/10/12
f 200/13/7 202/17/7 204/16/7 206/15/7 198/14/7
f 203/8/21 205/5/21 206/6/21 204/7/21
f 205/18/22 197/1/22 198/2/22 206/19/22
f 197/14/4 205/15/4 203/16/4 201/17/4 199/13/4
f 207/1/23 208/2/23 210/3/23 209/4/23
f 209/5/24 210/6/24 212/7/24 211/8/24
f 211/9/9 212/10/9 214/11/9 213/12/9
f 210/13/7 208/14/7 216/15/7 214/16/7 212/17/7
f 213/8/25 214/7/25 216/6/25 215/5/25
f 215/18/26 216/19/26 208/2/26 207/1/26
f 207/14/4 209/13/4 211/17/4 213/16/4 215/15/4
f 217/1/27 218/2/27 220/3/27 219/4/27
f 219/5/28 220/6/28 222/7/28 221/8/28
f 221/9/3 222/10/3 224/11/3 223/12/3
f 220/13/13 218/14/13 226/15/13 224/16/13 222/17/13
f 223/8/29 224/7/29 226/6/29 225/5/29
f 225/18/30 226/19/30 218/2/30 217/1/30
f 217/14/10 219/13/10 221/17/10 223/16/10 225/15/10
f 227/1/30 229/4/30 230/3/30 228/2/30
f 229/5/29 231/8/29 232/7/29 230/6/29
f 231/9/3 233/12/3 234/11/3 232/10/3
f 230/13/13 232/17/13 234/16/13 236/15/13 228/14/13
f 233/8/28 235/5/28 236/6/28 234/7/28
f 235/18/27 227/1/27 228/2/27 236/19/27
f 227/14/10 235/15/10 233/16/10 231/17/10 229/13/10
s 1
f 243/52/10 251/55/10 252/54/10 244/53/10
f 242/58/10 250/59/10 251/55/10 243/52/10
f 241/62/10 249/63/10 250/59/10 242/58/10
f 240/66/10 248/67/10 249/63/10 241/62/10
f 239/70/10 247/71/10 248/67/10 240/66/10
f 238/74/10 246/75/10 247/71/10 239/70/10
f 237/78/10 245/79/10 246/75/10 238/74/10
f 244/53/10 252/54/10 245/79/10 237/78/10
f 247/84/4 255/87/4 256/86/31 248/85/31
f 246/90/32 254/91/32 255/87/4 247/84/4
f 245/95/8 253/87/8 254/91/32 246/90/32
f 252/85/33 260/86/33 253/87/8 245/95/8
f 251/97/7 259/100/7 260/99/33 252/98/33
f 250/101/34 258/102/34 259/100/7 251/97/7
f 249/103/3 257/100/3 258/102/34 250/101/34
f 248/98/31 256/99/31 257/100/3 249/103/3
f 260/112/13 259/119/13 258/118/13 257/117/13 256/116/13 255/115/13 254/114/13 253/113/13
f 244/134/33 237/135/8 261/136/8 268/137/33
f 243/138/7 244/139/33 268/140/33 267/141/7
f 242/142/34 243/138/7 267/141/7 266/143/34
f 241/144/3 242/145/34 266/146/34 265/147/3
f 240/148/31 241/144/3 265/147/3 264/149/31
f 239/150/4 240/151/31 264/152/31 263/153/4
f 238/154/32 239/150/4 263/153/4 262/155/32
f 237/135/8 238/156/32 262/157/32 261/136/8
s 0
f 269/1/27 270/2/27 272/3/27 271/4/27
f 271/5/28 272/6/28 274/7/28 273/8/28
f 273/9/3 274/10/3 276/11/3 275/12/3
f 272/13/13 270/14/13 278/15/13 276/16/13 274/17/13
f 275/8/29 276/7/29 278/6/29 277/5/29
f 277/18/30 278/19/30 270/2/30 269/1/30
f 269/14/10 271/13/10 273/17/10 275/16/10 277/15/10
f 279/1/35 281/4/35 282/3/35 280/2/35
f 281/5/36 283/8/36 284/7/36 282/6/36
f 283/9/8 285/12/8 286/11/8 284/10/8
f 282/13/13 284/17/13 286/16/13 288/15/13 280/14/13
f 285/8/37 287/5/37 288/6/37 286/7/37
f 287/18/38 279/1/38 280/2/38 288/19/38
f 279/14/10 287/15/10 285/16/10 283/17/10 281/13/10
f 289/1/39 290/2/39 292/3/39 291/4/39
f 291/5/40 292/6/40 294/7/40 293/8/40
f 293/9/34 294/10/34 296/11/34 295/12/34
f 292/13/13 290/14/13 298/15/13 296/16/13 294/17/13
f 295/8/41 296/7/41 298/6/41 297/5/41
f 297/18/42 298/19/42 290/2/42 289/1/42
f 289/14/10 291/13/10 293/17/10 295/16/10 297/15/10
f 299/1/42 301/4/42 302/3/42 300/2/42
f 301/5/41 303/8/41 304/7/41 302/6/41
f 303/9/34 305/12/34 306/11/34 304/10/34
f 302/13/13 304/17/13 306/16/13 308/15/13 300/14/13
f 305/8/40 307/5/40 308/6/40 306/7/40
f 307/18/39 299/1/39 300/2/39 308/19/39
f 299/14/10 307/15/10 305/16/10 303/17/10 301/13/10
f 309/1/39 310/2/39 312/3/39 311/4/39
f 311/5/40 312/6/40 314/7/40 313/8/40
f 313/9/34 314/10/34 316/11/34 315/12/34
f 312/13/13 310/14/13 318/15/13 316/16/13 314/17/13
f 315/8/41 316/7/41 318/6/41 317/5/41
f 317/18/42 318/19/42 310/2/42 309/1/42
f 309/14/10 311/13/10 313/17/10 315/16/10 317/15/10
f 319/1/43 321/4/43 322/3/43 320/2/43
f 321/5/44 323/8/44 324/7/44 322/6/44
f 323/9/32 325/12/32 326/11/32 324/10/32
f 322/13/13 324/17/13 326/16/13 328/15/13 320/14/13
f 325/8/45 327/5/45 328/6/45 326/7/45
f 327/18/46 319/1/46 320/2/46 328/19/46
f 319/14/10 327/15/10 325/16/10 323/17/10 321/13/10
