# Blender 4.5.9 LTS
# www.blender.org
mtllib Pipe_008.mtl
o Pipe_008
v -0.152141 0.000000 -0.251704
v -0.107582 0.000000 -0.144129
v -0.000007 0.000000 -0.099570
v 0.107567 0.000000 -0.144129
v 0.152126 0.000000 -0.251704
v 0.107567 0.000000 -0.359279
v -0.000007 0.000000 -0.403838
v -0.107582 0.000000 -0.359279
v -0.152134 -0.099996 -0.232266
v -0.107575 -0.058829 -0.132880
v -0.000000 -0.041777 -0.091713
v 0.107574 -0.058829 -0.132880
v 0.152133 -0.099997 -0.232266
v 0.107574 -0.141164 -0.331652
v -0.000000 -0.158215 -0.372819
v -0.107575 -0.141164 -0.331652
v -0.152127 -0.184943 -0.176041
v -0.107568 -0.108876 -0.099974
v 0.000007 -0.077368 -0.068466
v 0.107581 -0.108876 -0.099974
v 0.152140 -0.184943 -0.176041
v 0.107581 -0.261010 -0.252108
v 0.000007 -0.292518 -0.283616
v -0.107568 -0.261010 -0.252108
v -0.152120 -0.241907 -0.091588
v -0.107561 -0.142521 -0.050421
v 0.000014 -0.101354 -0.033369
v 0.107588 -0.142521 -0.050421
v 0.152147 -0.241907 -0.091588
v 0.107588 -0.341293 -0.132755
v 0.000014 -0.382460 -0.149807
v -0.107561 -0.341293 -0.132755
v -0.152127 -0.262216 0.008235
v -0.107568 -0.154641 0.008235
v 0.000007 -0.110082 0.008235
v 0.107581 -0.154641 0.008235
v 0.152140 -0.262216 0.008235
v 0.107581 -0.369791 0.008235
v 0.000007 -0.414350 0.008235
v -0.107568 -0.369791 0.008235
v -0.016226 -0.088344 0.162994
v -0.016226 -0.088344 0.195418
v -0.005024 -0.103762 0.162994
v -0.005024 -0.103762 0.195418
v 0.013102 -0.097873 0.162994
v 0.013102 -0.097873 0.195418
v 0.013102 -0.078814 0.162994
v 0.013102 -0.078814 0.195418
v -0.005024 -0.072925 0.162994
v -0.005024 -0.072925 0.195418
v -0.016226 -0.436088 0.162994
v -0.016226 -0.436088 0.195418
v -0.005024 -0.420669 0.162994
v -0.005024 -0.420669 0.195418
v 0.013102 -0.426559 0.162994
v 0.013102 -0.426559 0.195418
v 0.013102 -0.445617 0.162994
v 0.013102 -0.445617 0.195418
v -0.005024 -0.451507 0.162994
v -0.005024 -0.451507 0.195418
v -0.152141 -0.262216 0.192796
v -0.107582 -0.369791 0.192796
v -0.000007 -0.414350 0.192796
v 0.107568 -0.369791 0.192796
v 0.152127 -0.262216 0.192796
v 0.107568 -0.154642 0.192796
v -0.000007 -0.110083 0.192796
v -0.107582 -0.154642 0.192796
v -0.198930 -0.262216 0.192796
v -0.140667 -0.402876 0.192796
v -0.000007 -0.461139 0.192796
v 0.140652 -0.402876 0.192796
v 0.198916 -0.262216 0.192796
v 0.140652 -0.121557 0.192796
v -0.000007 -0.063294 0.192796
v -0.140667 -0.121557 0.192796
v -0.198930 -0.262216 0.230339
v -0.140667 -0.402876 0.230339
v -0.000007 -0.461139 0.230339
v 0.140652 -0.402876 0.230339
v 0.198916 -0.262216 0.230339
v 0.140652 -0.121557 0.230339
v -0.000007 -0.063294 0.230339
v -0.140667 -0.121557 0.230339
v 0.156571 -0.262200 0.162994
v 0.156571 -0.262200 0.195418
v 0.167773 -0.277618 0.162994
v 0.167773 -0.277618 0.195418
v 0.185899 -0.271729 0.162994
v 0.185899 -0.271729 0.195418
v 0.185899 -0.252671 0.162994
v 0.185899 -0.252671 0.195418
v 0.167773 -0.246781 0.162994
v 0.167773 -0.246781 0.195418
v -0.156586 -0.262200 0.162994
v -0.156586 -0.262200 0.195418
v -0.167788 -0.277618 0.162994
v -0.167788 -0.277618 0.195419
v -0.185914 -0.271729 0.162994
v -0.185914 -0.271729 0.195419
v -0.185914 -0.252671 0.162994
v -0.185914 -0.252671 0.195419
v -0.167788 -0.246781 0.162994
v -0.167788 -0.246781 0.195419
v -0.134414 -0.150734 0.162994
v -0.134414 -0.150734 0.195418
v -0.115590 -0.153715 0.162994
v -0.115590 -0.153715 0.195418
v -0.106938 -0.136734 0.162994
v -0.106938 -0.136734 0.195418
v -0.120414 -0.123258 0.162994
v -0.120414 -0.123258 0.195418
v -0.137395 -0.131910 0.162994
v -0.137395 -0.131910 0.195418
v 0.111478 -0.396626 0.162994
v 0.111478 -0.396626 0.195418
v 0.108497 -0.377803 0.162994
v 0.108497 -0.377803 0.195418
v 0.125478 -0.369150 0.162994
v 0.125478 -0.369150 0.195418
v 0.138955 -0.382627 0.162994
v 0.138955 -0.382627 0.195418
v 0.130302 -0.399608 0.162994
v 0.130302 -0.399608 0.195418
v 0.110707 -0.151483 0.162994
v 0.110707 -0.151483 0.195418
v 0.129531 -0.154464 0.162994
v 0.129531 -0.154464 0.195418
v 0.138183 -0.137483 0.162994
v 0.138183 -0.137483 0.195418
v 0.124707 -0.124006 0.162994
v 0.124707 -0.124006 0.195418
v 0.107726 -0.132659 0.162994
v 0.107726 -0.132659 0.195418
v -0.110728 -0.372918 0.162994
v -0.110728 -0.372918 0.195418
v -0.107747 -0.391742 0.162994
v -0.107747 -0.391742 0.195418
v -0.124728 -0.400394 0.162994
v -0.124728 -0.400394 0.195418
v -0.138204 -0.386918 0.162994
v -0.138204 -0.386918 0.195418
v -0.129552 -0.369937 0.162994
v -0.129552 -0.369937 0.195418
v -0.152134 0.099997 -0.232267
v -0.107575 0.058830 -0.132881
v -0.000000 0.041778 -0.091714
v 0.107574 0.058830 -0.132881
v 0.152133 0.099997 -0.232267
v 0.107574 0.141164 -0.331653
v -0.000000 0.158216 -0.372820
v -0.107575 0.141164 -0.331653
v -0.152127 0.184943 -0.176042
v -0.107568 0.108876 -0.099975
v 0.000007 0.077368 -0.068467
v 0.107581 0.108876 -0.099975
v 0.152140 0.184943 -0.176042
v 0.107581 0.261010 -0.252109
v 0.000007 0.292518 -0.283617
v -0.107568 0.261010 -0.252109
v -0.152120 0.241907 -0.091589
v -0.107561 0.142521 -0.050422
v 0.000014 0.101354 -0.033370
v 0.107588 0.142521 -0.050422
v 0.152147 0.241907 -0.091589
v 0.107588 0.341293 -0.132756
v 0.000014 0.382460 -0.149808
v -0.107561 0.341293 -0.132756
v -0.152127 0.262216 0.008234
v -0.107568 0.154641 0.008234
v 0.000007 0.110082 0.008234
v 0.107582 0.154641 0.008234
v 0.152141 0.262216 0.008234
v 0.107582 0.369791 0.008234
v 0.000007 0.414350 0.008234
v -0.107568 0.369791 0.008234
v -0.016226 0.088344 0.162993
v -0.016226 0.088344 0.195418
v -0.005024 0.103762 0.162993
v -0.005024 0.103762 0.195418
v 0.013102 0.097873 0.162993
v 0.013102 0.097873 0.195418
v 0.013102 0.078814 0.162993
v 0.013102 0.078814 0.195418
v -0.005024 0.072925 0.162993
v -0.005024 0.072925 0.195418
v -0.016226 0.436088 0.162993
v -0.016226 0.436088 0.195418
v -0.005024 0.420669 0.162993
v -0.005024 0.420669 0.195418
v 0.013102 0.426559 0.162993
v 0.013102 0.426559 0.195418
v 0.013102 0.445617 0.162993
v 0.013102 0.445617 0.195418
v -0.005024 0.451507 0.162993
v -0.005024 0.451507 0.195418
v -0.152141 0.262216 0.192795
v -0.107582 0.369791 0.192795
v -0.000007 0.414350 0.192795
v 0.107568 0.369791 0.192795
v 0.152127 0.262216 0.192795
v 0.107568 0.154642 0.192795
v -0.000007 0.110083 0.192795
v -0.107582 0.154642 0.192795
v -0.198930 0.262216 0.192795
v -0.140667 0.402876 0.192795
v -0.000007 0.461139 0.192795
v 0.140653 0.402876 0.192795
v 0.198916 0.262216 0.192795
v 0.140652 0.121557 0.192795
v -0.000007 0.063294 0.192795
v -0.140667 0.121557 0.192795
v -0.198930 0.262216 0.230338
v -0.140667 0.402876 0.230338
v -0.000007 0.461139 0.230338
v 0.140652 0.402876 0.230338
v 0.198916 0.262216 0.230338
v 0.140652 0.121557 0.230338
v -0.000007 0.063294 0.230338
v -0.140667 0.121557 0.230338
v 0.156571 0.262200 0.162993
v 0.156571 0.262200 0.195418
v 0.167773 0.277618 0.162993
v 0.167774 0.277618 0.195417
v 0.185899 0.271729 0.162993
v 0.185899 0.271729 0.195417
v 0.185899 0.252670 0.162993
v 0.185899 0.252670 0.195417
v 0.167773 0.246781 0.162993
v 0.167774 0.246781 0.195417
v -0.156586 0.262200 0.162993
v -0.156586 0.262200 0.195418
v -0.167788 0.277618 0.162993
v -0.167788 0.277618 0.195418
v -0.185914 0.271729 0.162993
v -0.185914 0.271729 0.195418
v -0.185914 0.252671 0.162993
v -0.185914 0.252671 0.195418
v -0.167788 0.246781 0.162993
v -0.167788 0.246781 0.195418
v -0.134414 0.150734 0.162993
v -0.134414 0.150734 0.195417
v -0.115590 0.153715 0.162993
v -0.115590 0.153715 0.195417
v -0.106938 0.136734 0.162993
v -0.106938 0.136734 0.195417
v -0.120414 0.123258 0.162993
v -0.120414 0.123258 0.195417
v -0.137395 0.131910 0.162993
v -0.137395 0.131910 0.195417
v 0.111479 0.396626 0.162993
v 0.111479 0.396626 0.195417
v 0.108497 0.377803 0.162993
v 0.108497 0.377803 0.195417
v 0.125478 0.369150 0.162993
v 0.125478 0.369150 0.195417
v 0.138955 0.382627 0.162993
v 0.138955 0.382627 0.195417
v 0.130302 0.399608 0.162993
v 0.130302 0.399608 0.195417
v 0.110707 0.151483 0.162993
v 0.110707 0.151483 0.195417
v 0.129531 0.154464 0.162993
v 0.129531 0.154464 0.195417
v 0.138183 0.137483 0.162993
v 0.138183 0.137483 0.195417
v 0.124707 0.124006 0.162993
v 0.124707 0.124006 0.195417
v 0.107726 0.132659 0.162993
v 0.107726 0.132659 0.195417
v -0.110728 0.372918 0.162993
v -0.110728 0.372918 0.195417
v -0.107747 0.391742 0.162993
v -0.107747 0.391742 0.195417
v -0.124728 0.400394 0.162993
v -0.124728 0.400394 0.195417
v -0.138204 0.386918 0.162993
v -0.138204 0.386918 0.195417
v -0.129552 0.369937 0.162993
v -0.129552 0.369937 0.195417
vn -0.9989 -0.0000 -0.0466
vn -0.6843 -0.0000 -0.7292
vn -0.6841 -0.2771 -0.6748
vn -0.9989 -0.0183 -0.0441
vn -0.7304 -0.0000 0.6830
vn -0.7317 0.2560 0.6317
vn 0.7304 -0.0000 0.6830
vn -0.0000 -0.0000 1.0000
vn -0.0000 0.3742 0.9273
vn 0.7317 0.2561 0.6317
vn 0.6842 -0.0000 -0.7293
vn 0.9989 -0.0000 -0.0467
vn 0.9989 -0.0182 -0.0441
vn 0.6841 -0.2770 -0.6748
vn -0.0000 -0.0000 -1.0000
vn -0.0000 -0.3801 -0.9249
vn -0.0000 -0.7051 -0.7091
vn -0.6841 -0.5142 -0.5174
vn -0.7317 0.4782 0.4857
vn -0.0000 0.7006 0.7135
vn 0.7317 0.4783 0.4856
vn 0.9989 -0.0337 -0.0338
vn 0.6841 -0.5142 -0.5174
vn -0.9989 -0.0338 -0.0337
vn -0.9989 -0.0441 -0.0183
vn -0.7317 0.6277 0.2656
vn -0.0000 0.9203 0.3911
vn 0.7317 0.6277 0.2656
vn 0.9989 -0.0441 -0.0183
vn 0.6841 -0.6730 -0.2812
vn -0.0000 -0.9228 -0.3852
vn -0.6840 -0.6730 -0.2812
vn 0.6940 -0.7163 -0.0719
vn -0.0000 -0.9953 -0.0971
vn -0.6940 -0.7163 -0.0719
vn -0.9997 -0.0244 -0.0048
vn -0.7185 0.6918 0.0710
vn -0.0000 0.9945 0.1050
vn 0.7185 0.6918 0.0711
vn 0.9997 -0.0244 -0.0047
vn -0.8090 -0.5878 -0.0000
vn 0.3090 -0.9511 -0.0000
vn 1.0000 -0.0000 -0.0000
vn 0.3090 0.9511 -0.0000
vn -0.8090 0.5878 -0.0000
vn -0.0000 -1.0000 -0.0000
vn 0.7071 -0.7071 -0.0000
vn -0.7071 -0.7071 -0.0000
vn -1.0000 -0.0000 -0.0000
vn -0.7071 0.7071 -0.0000
vn -0.0000 1.0000 -0.0000
vn 0.7071 0.7071 -0.0000
vn -0.7071 0.7071 -0.0001
vn -1.0000 -0.0000 -0.0001
vn 0.7071 0.7071 0.0001
vn 1.0000 -0.0000 0.0001
vn 0.7071 -0.7071 0.0001
vn -0.7071 -0.7071 -0.0001
vn 0.8090 -0.5878 -0.0000
vn -0.3090 -0.9511 -0.0000
vn -0.3090 0.9511 -0.0000
vn 0.8090 0.5878 -0.0000
vn -0.1564 -0.9877 -0.0000
vn 0.8910 -0.4540 -0.0000
vn -0.4540 0.8910 -0.0000
vn -0.9877 -0.1564 -0.0000
vn 0.9877 0.1564 -0.0000
vn 0.4540 -0.8910 -0.0000
vn -0.8910 0.4540 -0.0000
vn 0.1564 0.9877 -0.0000
vn -0.9989 0.0183 -0.0441
vn -0.6841 0.2771 -0.6748
vn -0.7317 -0.2560 0.6317
vn 0.7317 -0.2561 0.6317
vn -0.0000 -0.3742 0.9273
vn 0.6841 0.2770 -0.6748
vn 0.9989 0.0182 -0.0441
vn -0.0000 0.3801 -0.9249
vn -0.6841 0.5142 -0.5174
vn -0.0000 0.7051 -0.7091
vn -0.0000 -0.7006 0.7135
vn -0.7317 -0.4782 0.4857
vn 0.9989 0.0337 -0.0338
vn 0.7317 -0.4783 0.4856
vn 0.6841 0.5142 -0.5174
vn -0.9989 0.0338 -0.0337
vn -0.7317 -0.6277 0.2656
vn -0.9989 0.0441 -0.0183
vn 0.7317 -0.6277 0.2656
vn -0.0000 -0.9203 0.3911
vn 0.6841 0.6730 -0.2812
vn 0.9989 0.0441 -0.0183
vn -0.6840 0.6730 -0.2812
vn -0.0000 0.9228 -0.3852
vn -0.0000 0.9953 -0.0971
vn 0.6940 0.7163 -0.0719
vn -0.9997 0.0244 -0.0048
vn -0.6940 0.7163 -0.0719
vn -0.7185 -0.6918 0.0710
vn 0.7185 -0.6918 0.0711
vn -0.0000 -0.9945 0.1050
vn 0.9997 0.0244 -0.0047
vn -0.1564 0.9877 -0.0000
vn 0.8910 0.4540 -0.0000
vn -0.4540 -0.8910 -0.0000
vn -0.9877 0.1564 -0.0000
vn 0.9877 -0.1564 -0.0000
vn 0.4540 0.8910 -0.0000
vn -0.8910 -0.4540 -0.0000
vn 0.1564 -0.9877 -0.0000
vt 0.424659 0.380539
vt 0.501158 0.380539
vt 0.501158 0.298590
vt 0.424659 0.298590
vt 0.348160 0.380539
vt 0.348160 0.298590
vt 0.005320 0.138114
vt 0.005320 0.242508
vt 0.045196 0.242508
vt 0.045196 0.138114
vt 0.332648 0.003628
vt 0.251401 0.003628
vt 0.251401 0.093139
vt 0.332648 0.093139
vt 0.522435 0.321899
vt 0.597750 0.321899
vt 0.597750 0.239832
vt 0.522435 0.239832
vt 0.005320 0.346901
vt 0.045196 0.346901
vt 0.170154 0.003628
vt 0.170154 0.093139
vt 0.673065 0.321899
vt 0.673065 0.239832
vt 0.597750 0.157765
vt 0.522435 0.157765
vt 0.085072 0.346901
vt 0.085072 0.242508
vt 0.170154 0.182649
vt 0.251401 0.182649
vt 0.673065 0.157765
vt 0.501158 0.216642
vt 0.424659 0.216642
vt 0.348160 0.216642
vt 0.085072 0.138114
vt 0.332648 0.182649
vt 0.348160 0.203693
vt 0.424659 0.203693
vt 0.424659 0.285641
vt 0.348160 0.285641
vt 0.124948 0.242508
vt 0.124948 0.138114
vt 0.251401 0.272159
vt 0.332648 0.272159
vt 0.673981 0.209520
vt 0.593912 0.209520
vt 0.593912 0.308250
vt 0.673981 0.308250
vt 0.124948 0.346901
vt 0.170154 0.272159
vt 0.513842 0.209520
vt 0.513842 0.308250
vt 0.501158 0.203693
vt 0.501158 0.285641
vt 0.513842 0.406981
vt 0.593912 0.406981
vt 0.501158 0.367589
vt 0.424659 0.367589
vt 0.348160 0.367589
vt 0.164824 0.242508
vt 0.164824 0.138114
vt 0.251401 0.361669
vt 0.332648 0.361669
vt 0.673981 0.406981
vt 0.164824 0.346901
vt 0.170154 0.361669
vt 0.735827 0.673934
vt 0.757351 0.673934
vt 0.757351 0.719199
vt 0.735827 0.719199
vt 0.740659 0.673934
vt 0.715356 0.673934
vt 0.715356 0.719199
vt 0.740659 0.719199
vt 0.749130 0.673934
vt 0.722524 0.673934
vt 0.722524 0.719199
vt 0.749130 0.719199
vt 0.757351 0.701399
vt 0.749130 0.676095
vt 0.722524 0.676095
vt 0.714302 0.701399
vt 0.735827 0.717037
vt 0.714302 0.673934
vt 0.714302 0.719199
vt 0.038344 0.901759
vt 0.098241 0.961656
vt 0.085215 0.993103
vt 0.006897 0.914785
vt 0.038344 0.817053
vt 0.006897 0.804027
vt 0.098241 0.757156
vt 0.085215 0.725709
vt 0.182947 0.757156
vt 0.195973 0.725709
vt 0.242844 0.817053
vt 0.274291 0.804027
vt 0.242844 0.901759
vt 0.274291 0.914785
vt 0.182947 0.961656
vt 0.195973 0.993103
vt 0.807508 0.109224
vt 0.807508 0.211552
vt 0.780196 0.211552
vt 0.780196 0.109224
vt 0.807508 0.006897
vt 0.780196 0.006897
vt 0.807508 0.109224
vt 0.807508 0.327673
vt 0.807508 0.225346
vt 0.780196 0.225346
vt 0.780196 0.327673
vt 0.807508 0.430000
vt 0.780196 0.430000
vt 0.807508 0.327673
vt 0.425838 0.993103
vt 0.536596 0.993103
vt 0.614914 0.914785
vt 0.614914 0.804026
vt 0.536596 0.725709
vt 0.425838 0.725709
vt 0.347520 0.804027
vt 0.347520 0.914785
vt 0.347520 0.105740
vt 0.347520 0.260563
vt 0.425779 0.260563
vt 0.425779 0.105740
vt 0.085156 0.105740
vt 0.085156 0.260563
vt 0.163414 0.260563
vt 0.163414 0.105740
vt 0.006897 0.105740
vt 0.006897 0.260563
vt 0.255467 0.105740
vt 0.255467 0.260563
vt 0.177209 0.260563
vt 0.177209 0.105740
vt 0.333726 0.105740
vt 0.333726 0.260563
vt 0.596090 0.105740
vt 0.596090 0.260563
vt 0.517832 0.260563
vt 0.517832 0.105740
vt 0.674349 0.105740
vt 0.674349 0.260563
vt 0.504037 0.260563
vt 0.504037 0.105740
s 1
usemtl Pipes
f 1/1/1 8/2/2 16/3/3 9/4/4
f 2/5/5 1/1/1 9/4/4 10/6/6
f 4/7/7 3/8/8 11/9/9 12/10/10
f 6/11/11 5/12/12 13/13/13 14/14/14
f 8/15/2 7/16/15 15/17/16 16/18/3
f 3/8/8 2/19/5 10/20/6 11/9/9
f 5/12/12 4/21/7 12/22/10 13/13/13
f 7/16/15 6/23/11 14/24/14 15/17/16
f 16/18/3 15/17/16 23/25/17 24/26/18
f 11/9/9 10/20/6 18/27/19 19/28/20
f 13/13/13 12/22/10 20/29/21 21/30/22
f 15/17/16 14/24/14 22/31/23 23/25/17
f 9/4/4 16/3/3 24/32/18 17/33/24
f 10/6/6 9/4/4 17/33/24 18/34/19
f 12/10/10 11/9/9 19/28/20 20/35/21
f 14/14/14 13/13/13 21/30/22 22/36/23
f 18/37/19 17/38/24 25/39/25 26/40/26
f 20/35/21 19/28/20 27/41/27 28/42/28
f 22/36/23 21/30/22 29/43/29 30/44/30
f 24/45/18 23/46/17 31/47/31 32/48/32
f 19/28/20 18/27/19 26/49/26 27/41/27
f 21/30/22 20/29/21 28/50/28 29/43/29
f 23/46/17 22/51/23 30/52/30 31/47/31
f 17/38/24 24/53/18 32/54/32 25/39/25
f 31/47/31 30/52/30 38/55/33 39/56/34
f 25/39/25 32/54/32 40/57/35 33/58/36
f 26/40/26 25/39/25 33/58/36 34/59/37
f 28/42/28 27/41/27 35/60/38 36/61/39
f 30/44/30 29/43/29 37/62/40 38/63/33
f 32/48/32 31/47/31 39/56/34 40/64/35
f 27/41/27 26/49/26 34/65/37 35/60/38
f 29/43/29 28/50/28 36/66/39 37/62/40
s 0
f 41/67/41 43/68/41 44/69/41 42/70/41
f 43/71/42 45/72/42 46/73/42 44/74/42
f 45/75/43 47/76/43 48/77/43 46/78/43
f 44/79/8 46/80/8 48/81/8 50/82/8 42/83/8
f 47/72/44 49/71/44 50/74/44 48/73/44
f 49/84/45 41/67/45 42/70/45 50/85/45
f 41/83/15 49/82/15 47/81/15 45/80/15 43/79/15
f 51/67/45 52/70/45 54/69/45 53/68/45
f 53/71/44 54/74/44 56/73/44 55/72/44
f 55/75/43 56/78/43 58/77/43 57/76/43
f 54/79/8 52/83/8 60/82/8 58/81/8 56/80/8
f 57/72/42 58/73/42 60/74/42 59/71/42
f 59/84/41 60/85/41 52/70/41 51/67/41
f 51/83/15 53/79/15 55/80/15 57/81/15 59/82/15
s 1
f 67/86/15 68/87/15 76/88/15 75/89/15
f 66/90/15 67/86/15 75/89/15 74/91/15
f 65/92/15 66/90/15 74/91/15 73/93/15
f 64/94/15 65/92/15 73/93/15 72/95/15
f 63/96/15 64/94/15 72/95/15 71/97/15
f 62/98/15 63/96/15 71/97/15 70/99/15
f 61/100/15 62/98/15 70/99/15 69/101/15
f 68/87/15 61/100/15 69/101/15 76/88/15
f 71/102/46 72/103/47 80/104/47 79/105/46
f 70/106/48 71/102/46 79/105/46 78/107/48
f 69/108/49 70/106/48 78/107/48 77/105/49
f 76/103/50 69/108/49 77/105/49 84/104/50
f 75/109/51 76/110/50 84/111/50 83/112/51
f 74/113/52 75/109/51 83/112/51 82/114/52
f 73/115/43 74/113/52 82/114/52 81/112/43
f 72/110/47 73/115/43 81/112/43 80/111/47
f 84/116/8 77/117/8 78/118/8 79/119/8 80/120/8 81/121/8 82/122/8 83/123/8
f 68/124/53 34/125/37 33/126/36 61/127/54
f 67/128/51 35/129/38 34/130/37 68/131/53
f 66/132/55 36/133/39 35/129/38 67/128/51
f 65/134/56 37/135/40 36/136/39 66/137/55
f 64/138/57 38/139/33 37/135/40 65/134/56
f 63/140/46 39/141/34 38/142/33 64/143/57
f 62/144/58 40/145/35 39/141/34 63/140/46
f 61/127/54 33/126/36 40/146/35 62/147/58
s 0
f 85/67/41 87/68/41 88/69/41 86/70/41
f 87/71/42 89/72/42 90/73/42 88/74/42
f 89/75/43 91/76/43 92/77/43 90/78/43
f 88/79/8 90/80/8 92/81/8 94/82/8 86/83/8
f 91/72/44 93/71/44 94/74/44 92/73/44
f 93/84/45 85/67/45 86/70/45 94/85/45
f 85/83/15 93/82/15 91/81/15 89/80/15 87/79/15
f 95/67/59 96/70/59 98/69/59 97/68/59
f 97/71/60 98/74/60 100/73/60 99/72/60
f 99/75/49 100/78/49 102/77/49 101/76/49
f 98/79/8 96/83/8 104/82/8 102/81/8 100/80/8
f 101/72/61 102/73/61 104/74/61 103/71/61
f 103/84/62 104/85/62 96/70/62 95/67/62
f 95/83/15 97/79/15 99/80/15 101/81/15 103/82/15
f 105/67/63 107/68/63 108/69/63 106/70/63
f 107/71/64 109/72/64 110/73/64 108/74/64
f 109/75/52 111/76/52 112/77/52 110/78/52
f 108/79/8 110/80/8 112/81/8 114/82/8 106/83/8
f 111/72/65 113/71/65 114/74/65 112/73/65
f 113/84/66 105/67/66 106/70/66 114/85/66
f 105/83/15 113/82/15 111/81/15 109/80/15 107/79/15
f 115/67/66 116/70/66 118/69/66 117/68/66
f 117/71/65 118/74/65 120/73/65 119/72/65
f 119/75/52 120/78/52 122/77/52 121/76/52
f 118/79/8 116/83/8 124/82/8 122/81/8 120/80/8
f 121/72/64 122/73/64 124/74/64 123/71/64
f 123/84/63 124/85/63 116/70/63 115/67/63
f 115/83/15 117/79/15 119/80/15 121/81/15 123/82/15
f 125/67/63 127/68/63 128/69/63 126/70/63
f 127/71/64 129/72/64 130/73/64 128/74/64
f 129/75/52 131/76/52 132/77/52 130/78/52
f 128/79/8 130/80/8 132/81/8 134/82/8 126/83/8
f 131/72/65 133/71/65 134/74/65 132/73/65
f 133/84/66 125/67/66 126/70/66 134/85/66
f 125/83/15 133/82/15 131/81/15 129/80/15 127/79/15
f 135/67/67 136/70/67 138/69/67 137/68/67
f 137/71/68 138/74/68 140/73/68 139/72/68
f 139/75/48 140/78/48 142/77/48 141/76/48
f 138/79/8 136/83/8 144/82/8 142/81/8 140/80/8
f 141/72/69 142/73/69 144/74/69 143/71/69
f 143/84/70 144/85/70 136/70/70 135/67/70
f 135/83/15 137/79/15 139/80/15 141/81/15 143/82/15
s 1
f 1/1/1 145/4/71 152/3/72 8/2/2
f 2/5/5 146/6/73 145/4/71 1/1/1
f 4/7/7 148/10/74 147/9/75 3/8/8
f 6/11/11 150/14/76 149/13/77 5/12/12
f 8/15/2 152/18/72 151/17/78 7/16/15
f 3/8/8 147/9/75 146/20/73 2/19/5
f 5/12/12 149/13/77 148/22/74 4/21/7
f 7/16/15 151/17/78 150/24/76 6/23/11
f 152/18/72 160/26/79 159/25/80 151/17/78
f 147/9/75 155/28/81 154/27/82 146/20/73
f 149/13/77 157/30/83 156/29/84 148/22/74
f 151/17/78 159/25/80 158/31/85 150/24/76
f 145/4/71 153/33/86 160/32/79 152/3/72
f 146/6/73 154/34/82 153/33/86 145/4/71
f 148/10/74 156/35/84 155/28/81 147/9/75
f 150/14/76 158/36/85 157/30/83 149/13/77
f 154/37/82 162/40/87 161/39/88 153/38/86
f 156/35/84 164/42/89 163/41/90 155/28/81
f 158/36/85 166/44/91 165/43/92 157/30/83
f 160/45/79 168/48/93 167/47/94 159/46/80
f 155/28/81 163/41/90 162/49/87 154/27/82
f 157/30/83 165/43/92 164/50/89 156/29/84
f 159/46/80 167/47/94 166/52/91 158/51/85
f 153/38/86 161/39/88 168/54/93 160/53/79
f 167/47/94 175/56/95 174/55/96 166/52/91
f 161/39/88 169/58/97 176/57/98 168/54/93
f 162/40/87 170/59/99 169/58/97 161/39/88
f 164/42/89 172/61/100 171/60/101 163/41/90
f 166/44/91 174/63/96 173/62/102 165/43/92
f 168/48/93 176/64/98 175/56/95 167/47/94
f 163/41/90 171/60/101 170/65/99 162/49/87
f 165/43/92 173/62/102 172/66/100 164/50/89
s 0
f 177/67/45 178/70/45 180/69/45 179/68/45
f 179/71/44 180/74/44 182/73/44 181/72/44
f 181/75/43 182/78/43 184/77/43 183/76/43
f 180/79/8 178/83/8 186/82/8 184/81/8 182/80/8
f 183/72/42 184/73/42 186/74/42 185/71/42
f 185/84/41 186/85/41 178/70/41 177/67/41
f 177/83/15 179/79/15 181/80/15 183/81/15 185/82/15
f 187/67/41 189/68/41 190/69/41 188/70/41
f 189/71/42 191/72/42 192/73/42 190/74/42
f 191/75/43 193/76/43 194/77/43 192/78/43
f 190/79/8 192/80/8 194/81/8 196/82/8 188/83/8
f 193/72/44 195/71/44 196/74/44 194/73/44
f 195/84/45 187/67/45 188/70/45 196/85/45
f 187/83/15 195/82/15 193/81/15 191/80/15 189/79/15
s 1
f 203/86/15 211/89/15 212/88/15 204/87/15
f 202/90/15 210/91/15 211/89/15 203/86/15
f 201/92/15 209/93/15 210/91/15 202/90/15
f 200/94/15 208/95/15 209/93/15 201/92/15
f 199/96/15 207/97/15 208/95/15 200/94/15
f 198/98/15 206/99/15 207/97/15 199/96/15
f 197/100/15 205/101/15 206/99/15 198/98/15
f 204/87/15 212/88/15 205/101/15 197/100/15
f 207/102/51 215/105/51 216/104/52 208/103/52
f 206/106/50 214/107/50 215/105/51 207/102/51
f 205/108/49 213/105/49 214/107/50 206/106/50
f 212/103/48 220/104/48 213/105/49 205/108/49
f 211/109/46 219/112/46 220/111/48 212/110/48
f 210/113/47 218/114/47 219/112/46 211/109/46
f 209/115/43 217/112/43 218/114/47 210/113/47
f 208/110/52 216/111/52 217/112/43 209/115/43
f 220/116/8 219/123/8 218/122/8 217/121/8 216/120/8 215/119/8 214/118/8 213/117/8
f 204/124/58 197/127/54 169/126/97 170/125/99
f 203/128/46 204/131/58 170/130/99 171/129/101
f 202/132/57 203/128/46 171/129/101 172/133/100
f 201/134/56 202/137/57 172/136/100 173/135/102
f 200/138/55 201/134/56 173/135/102 174/139/96
f 199/140/51 200/143/55 174/142/96 175/141/95
f 198/144/53 199/140/51 175/141/95 176/145/98
f 197/127/54 198/147/53 176/146/98 169/126/97
s 0
f 221/67/45 222/70/45 224/69/45 223/68/45
f 223/71/44 224/74/44 226/73/44 225/72/44
f 225/75/43 226/78/43 228/77/43 227/76/43
f 224/79/8 222/83/8 230/82/8 228/81/8 226/80/8
f 227/72/42 228/73/42 230/74/42 229/71/42
f 229/84/41 230/85/41 222/70/41 221/67/41
f 221/83/15 223/79/15 225/80/15 227/81/15 229/82/15
f 231/67/62 233/68/62 234/69/62 232/70/62
f 233/71/61 235/72/61 236/73/61 234/74/61
f 235/75/49 237/76/49 238/77/49 236/78/49
f 234/79/8 236/80/8 238/81/8 240/82/8 232/83/8
f 237/72/60 239/71/60 240/74/60 238/73/60
f 239/84/59 231/67/59 232/70/59 240/85/59
f 231/83/15 239/82/15 237/81/15 235/80/15 233/79/15
f 241/67/103 242/70/103 244/69/103 243/68/103
f 243/71/104 244/74/104 246/73/104 245/72/104
f 245/75/47 246/78/47 248/77/47 247/76/47
f 244/79/8 242/83/8 250/82/8 248/81/8 246/80/8
f 247/72/105 248/73/105 250/74/105 249/71/105
f 249/84/106 250/85/106 242/70/106 241/67/106
f 241/83/15 243/79/15 245/80/15 247/81/15 249/82/15
f 251/67/106 253/68/106 254/69/106 252/70/106
f 253/71/105 255/72/105 256/73/105 254/74/105
f 255/75/47 257/76/47 258/77/47 256/78/47
f 254/79/8 256/80/8 258/81/8 260/82/8 252/83/8
f 257/72/104 259/71/104 260/74/104 258/73/104
f 259/84/103 251/67/103 252/70/103 260/85/103
f 251/83/15 259/82/15 257/81/15 255/80/15 253/79/15
f 261/67/103 262/70/103 264/69/103 263/68/103
f 263/71/104 264/74/104 266/73/104 265/72/104
f 265/75/47 266/78/47 268/77/47 267/76/47
f 264/79/8 262/83/8 270/82/8 268/81/8 266/80/8
f 267/72/105 268/73/105 270/74/105 269/71/105
f 269/84/106 270/85/106 262/70/106 261/67/106
f 261/83/15 263/79/15 265/80/15 267/81/15 269/82/15
f 271/67/107 273/68/107 274/69/107 272/70/107
f 273/71/108 275/72/108 276/73/108 274/74/108
f 275/75/50 277/76/50 278/77/50 276/78/50
f 274/79/8 276/80/8 278/81/8 280/82/8 272/83/8
f 277/72/109 279/71/109 280/74/109 278/73/109
f 279/84/110 271/67/110 272/70/110 280/85/110
f 271/83/15 279/82/15 277/81/15 275/80/15 273/79/15
