# Blender 4.5.9 LTS
# www.blender.org
mtllib Pipe_P.mtl
o Pipe_P
v -0.014797 -0.116332 -0.000001
v -0.014797 0.164553 -0.000001
v -0.007398 -0.116332 -0.012815
v -0.007398 0.164553 -0.012815
v 0.007398 -0.116332 -0.012815
v 0.007398 0.164553 -0.012815
v 0.014797 -0.116332 -0.000001
v 0.014797 0.164553 -0.000001
v 0.007398 -0.116332 0.012814
v 0.007398 0.164553 0.012814
v -0.007398 -0.116332 0.012814
v -0.007398 0.164553 0.012814
v -0.026223 0.136965 -0.000001
v -0.013111 0.136965 -0.022710
v 0.013111 0.136965 -0.022710
v 0.026223 0.136965 -0.000001
v 0.013111 0.136965 0.022709
v -0.013111 0.136965 0.022709
v -0.013111 0.155536 -0.022710
v -0.026223 0.155536 -0.000001
v 0.013111 0.155536 -0.022710
v 0.026223 0.155536 -0.000001
v 0.013111 0.155536 0.022709
v -0.013111 0.155536 0.022709
v -0.000003 0.197881 -0.175353
v -0.000003 0.212202 -0.161864
v -0.000003 0.197881 -0.146584
v -0.000003 0.183561 -0.161864
v -0.123997 0.197881 -0.123993
v -0.114458 0.212202 -0.114455
v -0.103654 0.197881 -0.103650
v -0.114458 0.183561 -0.114455
v -0.175357 0.197881 0.000000
v -0.161867 0.212202 0.000000
v -0.146587 0.197881 0.000000
v -0.161867 0.183561 0.000000
v -0.123997 0.197881 0.123994
v -0.114458 0.212202 0.114455
v -0.103654 0.197881 0.103651
v -0.114458 0.183561 0.114455
v -0.000003 0.197881 0.175354
v -0.000003 0.212202 0.161864
v -0.000003 0.197881 0.146584
v -0.000003 0.183561 0.161864
v 0.123990 0.197881 0.123994
v 0.114452 0.212202 0.114455
v 0.103647 0.197881 0.103651
v 0.114452 0.183561 0.114455
v 0.175350 0.197881 0.000000
v 0.161860 0.212202 0.000000
v 0.146580 0.197881 0.000000
v 0.161860 0.183561 0.000000
v 0.123990 0.197881 -0.123993
v 0.114452 0.212202 -0.114455
v 0.103647 0.197881 -0.103650
v 0.114452 0.183561 -0.114455
v 0.008348 0.199017 -0.159180
v 0.008348 0.145353 -0.021038
v -0.000004 0.207097 -0.158798
v -0.000004 0.153843 -0.020498
v -0.008356 0.199017 -0.159180
v -0.008356 0.145353 -0.021038
v -0.000004 0.190527 -0.159719
v -0.000004 0.137272 -0.021419
v -0.008329 0.199017 0.159180
v -0.008329 0.145353 0.021038
v 0.000023 0.207097 0.158798
v 0.000023 0.153843 0.020499
v 0.008375 0.199017 0.159180
v 0.008375 0.145353 0.021038
v 0.000023 0.190527 0.159720
v 0.000023 0.137272 0.021420
v 0.159189 0.199017 0.008339
v 0.021047 0.145353 0.008338
v 0.158808 0.207097 -0.000014
v 0.020508 0.153843 -0.000014
v 0.159189 0.199017 -0.008366
v 0.021047 0.145353 -0.008366
v 0.159729 0.190527 -0.000014
v 0.021429 0.137272 -0.000014
v -0.159170 0.199017 -0.008338
v -0.021028 0.145353 -0.008338
v -0.158789 0.207097 0.000014
v -0.020489 0.153843 0.000014
v -0.159170 0.199017 0.008366
v -0.021028 0.145353 0.008366
v -0.159710 0.190527 0.000014
v -0.021410 0.137272 0.000014
vn -1.0000 -0.0000 -0.0000
vn -0.5000 -0.0000 -0.8660
vn 0.5000 -0.0000 -0.8660
vn 1.0000 -0.0000 -0.0000
vn 0.5000 -0.0000 0.8660
vn -0.0000 1.0000 -0.0000
vn -0.5000 -0.0000 0.8660
vn -0.0000 -1.0000 -0.0000
vn -0.0000 -0.0000 -1.0000
vn -0.7071 -0.0000 -0.7071
vn -0.1420 0.9796 -0.1420
vn -0.0000 0.9796 -0.2008
vn 0.7071 -0.0000 0.7071
vn -0.0000 -0.0000 1.0000
vn -0.1420 -0.9796 -0.1420
vn -0.0000 -0.9796 -0.2008
vn -0.2008 0.9796 -0.0000
vn -0.2008 -0.9796 -0.0000
vn -0.7071 -0.0000 0.7071
vn -0.1420 0.9796 0.1420
vn 0.7071 -0.0000 -0.7071
vn -0.1420 -0.9796 0.1420
vn -0.0000 0.9796 0.2008
vn -0.0000 -0.9796 0.2008
vn 0.1420 0.9796 0.1420
vn 0.1420 -0.9796 0.1420
vn 0.2008 0.9796 -0.0000
vn 0.2008 -0.9796 -0.0000
vn 0.1420 0.9796 -0.1420
vn 0.1420 -0.9796 -0.1420
vn 0.6869 0.6778 0.2622
vn -0.6869 0.6778 0.2622
vn -0.6869 -0.6778 -0.2622
vn 0.6869 -0.6778 -0.2622
vn -0.6869 0.6778 -0.2622
vn 0.6869 0.6778 -0.2622
vn 0.6869 -0.6778 0.2622
vn -0.6869 -0.6778 0.2622
vn -0.2622 0.6778 0.6869
vn -0.2622 0.6778 -0.6869
vn 0.2622 -0.6778 -0.6869
vn 0.2622 -0.6778 0.6869
vn 0.2622 0.6778 -0.6869
vn 0.2622 0.6778 0.6869
vn -0.2622 -0.6778 0.6869
vn -0.2622 -0.6778 -0.6869
vt 0.301276 0.380385
vt 0.301276 0.748786
vt 0.318083 0.748786
vt 0.318083 0.380385
vt 0.310980 0.380385
vt 0.310980 0.748786
vt 0.291573 0.748786
vt 0.291573 0.380385
vt 0.284469 0.748786
vt 0.284469 0.380385
vt 0.326826 0.476171
vt 0.300490 0.491376
vt 0.274154 0.476171
vt 0.274154 0.445760
vt 0.300490 0.430555
vt 0.326826 0.445760
vt 0.301276 0.583992
vt 0.318083 0.574289
vt 0.318083 0.554882
vt 0.301276 0.545178
vt 0.284469 0.554882
vt 0.284469 0.574289
vt 0.932297 0.662942
vt 0.952182 0.697382
vt 0.932297 0.731823
vt 0.892529 0.731823
vt 0.872644 0.697382
vt 0.892529 0.662942
vt 0.872644 0.627630
vt 0.892529 0.593189
vt 0.932297 0.593189
vt 0.952182 0.627630
vt 0.932297 0.662071
vt 0.892529 0.662071
vt 0.827916 0.750416
vt 0.827916 0.784548
vt 0.855826 0.784548
vt 0.855826 0.750416
vt 0.827916 0.770129
vt 0.827916 0.730717
vt 0.855826 0.730717
vt 0.855826 0.770129
vt 0.827916 0.716285
vt 0.855826 0.716285
vt 0.919470 0.750418
vt 0.919470 0.564060
vt 0.940994 0.578396
vt 0.940994 0.750418
vt 0.829096 0.754503
vt 0.900350 0.582481
vt 0.916589 0.598720
vt 0.852062 0.754503
vt 0.897947 0.750418
vt 0.897947 0.578396
vt 0.940994 0.578396
vt 0.864474 0.582482
vt 0.935728 0.754503
vt 0.912763 0.754503
vt 0.848235 0.598720
vt 0.897947 0.578396
vt 0.919470 0.936776
vt 0.940994 0.922440
vt 0.864474 0.926525
vt 0.848235 0.910286
vt 0.897947 0.922440
vt 0.935728 0.754503
vt 0.912763 0.754503
vt 0.848235 0.598720
vt 0.919470 0.936776
vt 0.940994 0.922440
vt 0.864474 0.926525
vt 0.848235 0.910286
vt 0.897947 0.922440
vt 0.900350 0.926525
vt 0.829097 0.754503
vt 0.852062 0.754503
vt 0.916589 0.910286
vt 0.919470 0.564060
vt 0.940994 0.578396
vt 0.900350 0.582482
vt 0.916589 0.598720
vt 0.897947 0.578396
vt 0.919470 0.936776
vt 0.940994 0.922440
vt 0.900350 0.926525
vt 0.897947 0.922440
vt 0.921177 0.511177
vt 0.933322 0.511750
vt 0.853283 0.719610
vt 0.840522 0.718799
vt 0.908417 0.510366
vt 0.828377 0.718225
vt 0.921177 0.989660
vt 0.933322 0.989086
vt 0.853283 0.781226
vt 0.840522 0.782037
vt 0.908417 0.990471
vt 0.828377 0.782611
vt 0.921177 0.989679
vt 0.933322 0.989105
vt 0.853283 0.781246
vt 0.840522 0.782057
vt 0.908417 0.990490
vt 0.828377 0.782630
vt 0.921177 0.511196
vt 0.933322 0.511770
vt 0.853283 0.719629
vt 0.840522 0.718818
vt 0.840522 0.718818
vt 0.908417 0.510385
vt 0.828377 0.718244
s 1
usemtl Pipes
f 1/1/1 2/2/1 4/3/2 3/4/2
f 3/5/2 4/6/2 6/7/3 5/8/3
f 5/4/3 6/3/3 8/2/4 7/1/4
f 7/1/4 8/2/4 10/9/5 9/10/5
f 4/11/6 2/12/6 12/13/6 10/14/6 8/15/6 6/16/6
f 9/8/5 10/7/5 12/6/7 11/5/7
f 11/10/7 12/9/7 2/2/1 1/1/1
f 1/17/8 3/18/8 5/19/8 7/20/8 9/21/8 11/22/8
f 14/23/8 15/24/8 16/25/8 17/26/8 18/27/8 13/28/8
f 19/29/6 20/30/6 24/31/6 23/32/6 22/33/6 21/34/6
f 13/35/1 18/36/7 24/37/7 20/38/1
f 17/36/5 16/35/4 22/38/4 23/37/5
f 15/39/3 14/40/2 19/41/2 21/42/3
f 18/40/7 17/39/5 23/42/5 24/41/7
f 16/35/4 15/43/3 21/44/3 22/38/4
f 14/43/2 13/35/1 20/38/1 19/44/2
f 25/45/9 29/46/10 30/47/11 26/48/12
f 26/49/12 30/50/11 31/51/13 27/52/14
f 27/52/14 31/51/13 32/50/15 28/49/16
f 28/53/16 32/54/15 29/46/10 25/45/9
f 29/46/10 33/45/1 34/48/17 30/55/11
f 30/56/11 34/57/17 35/58/4 31/59/13
f 31/59/13 35/58/4 36/57/18 32/56/15
f 32/60/15 36/53/18 33/45/1 29/46/10
f 33/45/1 37/61/19 38/62/20 34/48/17
f 34/57/17 38/63/20 39/64/21 35/58/4
f 35/58/4 39/64/21 40/63/22 36/57/18
f 36/53/18 40/65/22 37/61/19 33/45/1
f 37/46/19 41/45/14 42/48/23 38/55/20
f 38/56/20 42/66/23 43/67/9 39/68/21
f 39/68/21 43/67/9 44/66/24 40/56/22
f 40/60/22 44/53/24 41/45/14 37/46/19
f 41/45/14 45/69/13 46/70/25 42/48/23
f 42/66/23 46/71/25 47/72/10 43/67/9
f 43/67/9 47/72/10 48/71/26 44/66/24
f 44/53/24 48/73/26 45/69/13 41/45/14
f 45/61/13 49/45/4 50/48/27 46/62/25
f 46/74/25 50/75/27 51/76/1 47/77/10
f 47/77/10 51/76/1 52/75/28 48/74/26
f 48/65/26 52/53/28 49/45/4 45/61/13
f 49/45/4 53/78/21 54/79/29 50/48/27
f 50/75/27 54/80/29 55/81/19 51/76/1
f 51/76/1 55/81/19 56/80/30 52/75/28
f 52/53/28 56/82/30 53/78/21 49/45/4
f 53/83/21 25/45/9 26/48/12 54/84/29
f 54/85/29 26/49/12 27/52/14 55/77/19
f 55/77/19 27/52/14 28/49/16 56/85/30
f 56/86/30 28/53/16 25/45/9 53/83/21
f 57/87/31 59/88/31 60/89/31 58/90/31
f 59/88/32 61/87/32 62/90/32 60/89/32
f 61/87/33 63/91/33 64/92/33 62/90/33
f 63/91/34 57/87/34 58/90/34 64/92/34
f 65/93/35 67/94/35 68/95/35 66/96/35
f 67/94/36 69/93/36 70/96/36 68/95/36
f 69/93/37 71/97/37 72/98/37 70/96/37
f 71/97/38 65/93/38 66/96/38 72/98/38
f 73/99/39 75/100/39 76/101/39 74/102/39
f 75/100/40 77/99/40 78/102/40 76/101/40
f 77/99/41 79/103/41 80/104/41 78/102/41
f 79/103/42 73/99/42 74/102/42 80/104/42
f 81/105/43 83/106/43 84/107/43 82/108/43
f 83/106/44 85/105/44 86/109/44 84/107/44
f 85/105/45 87/110/45 88/111/45 86/109/45
f 87/110/46 81/105/46 82/108/46 88/111/46
