# Blender 4.5.9 LTS
# www.blender.org
mtllib Pipe_012.mtl
o Pipe_012
v -0.016125 0.031626 0.172863
v -0.016125 -0.000610 0.172863
v -0.004987 0.031626 0.157534
v -0.004987 -0.000610 0.157534
v 0.013033 0.031626 0.163389
v 0.013033 -0.000610 0.163389
v 0.013033 0.031626 0.182337
v 0.013033 -0.000610 0.182337
v -0.004987 0.031626 0.188192
v -0.004987 -0.000610 0.188192
v -0.016125 0.031626 -0.172865
v -0.016125 -0.000610 -0.172865
v -0.004987 0.031626 -0.157535
v -0.004987 -0.000610 -0.157535
v 0.013033 0.031626 -0.163391
v 0.013033 -0.000610 -0.163391
v 0.013033 0.031626 -0.182339
v 0.013033 -0.000610 -0.182339
v -0.004987 0.031626 -0.188194
v -0.004987 -0.000610 -0.188194
v -0.197769 -0.035328 -0.000001
v -0.139843 -0.035328 -0.139845
v 0.000000 -0.035328 -0.197770
v 0.139844 -0.035328 -0.139845
v 0.197769 -0.035328 -0.000001
v 0.139844 -0.035328 0.139842
v 0.000000 -0.035328 0.197767
v -0.139843 -0.035328 0.139842
v 0.155671 0.031626 0.000015
v 0.155671 -0.000610 0.000015
v 0.166808 0.031626 -0.015314
v 0.166808 -0.000610 -0.015314
v 0.184828 0.031626 -0.009459
v 0.184828 -0.000610 -0.009459
v 0.184828 0.031626 0.009489
v 0.184828 -0.000610 0.009489
v 0.166808 0.031626 0.015344
v 0.166808 -0.000610 0.015344
v -0.155670 0.031626 0.000015
v -0.155670 -0.000610 0.000015
v -0.166807 0.031626 -0.015314
v -0.166807 -0.000610 -0.015314
v -0.184828 0.031626 -0.009459
v -0.184828 -0.000610 -0.009459
v -0.184828 0.031626 0.009489
v -0.184828 -0.000610 0.009489
v -0.166807 0.031626 0.015344
v -0.166807 -0.000610 0.015344
v -0.133627 0.031626 0.110834
v -0.133627 -0.000610 0.110834
v -0.114912 0.031626 0.107870
v -0.114912 -0.000610 0.107870
v -0.106310 0.031626 0.124753
v -0.106310 -0.000610 0.124753
v -0.119708 0.031626 0.138151
v -0.119708 -0.000610 0.138151
v -0.136591 0.031626 0.129549
v -0.136591 -0.000610 0.129549
v 0.110839 0.031626 -0.133632
v 0.110839 -0.000610 -0.133632
v 0.107875 0.031626 -0.114917
v 0.107875 -0.000610 -0.114917
v 0.124758 0.031626 -0.106315
v 0.124758 -0.000610 -0.106315
v 0.138156 0.031626 -0.119713
v 0.138156 -0.000610 -0.119713
v 0.129554 0.031626 -0.136596
v 0.129554 -0.000610 -0.136596
v 0.110073 0.031626 0.110090
v 0.110073 -0.000610 0.110090
v 0.128787 0.031626 0.107126
v 0.128787 -0.000610 0.107126
v 0.137389 0.031626 0.124009
v 0.137389 -0.000610 0.124009
v 0.123991 0.031626 0.137407
v 0.123991 -0.000610 0.137407
v 0.107108 0.031626 0.128805
v 0.107108 -0.000610 0.128805
v -0.110078 0.031626 -0.110061
v -0.110078 -0.000610 -0.110061
v -0.107114 0.031626 -0.128776
v -0.107114 -0.000610 -0.128776
v -0.123997 0.031626 -0.137378
v -0.123997 -0.000610 -0.137378
v -0.137395 0.031626 -0.123979
v -0.137395 -0.000610 -0.123979
v -0.128793 0.031626 -0.107097
v -0.128793 -0.000610 -0.107097
v -0.139843 0.001997 0.139842
v -0.197769 0.001997 -0.000001
v 0.000000 0.001997 0.197768
v 0.139844 0.001997 0.139842
v 0.197769 0.001997 -0.000001
v 0.139844 0.001997 -0.139845
v 0.000000 0.001997 -0.197770
v -0.139843 0.001997 -0.139845
v 0.007940 -0.003352 -0.084761
v 0.007940 0.171827 -0.084761
v -0.007927 -0.003352 -0.084761
v -0.007927 0.171827 -0.084761
v 0.007940 -0.003352 -0.149835
v 0.007940 0.171827 -0.125856
v -0.007927 -0.003352 -0.149835
v -0.007927 0.171827 -0.125856
v 0.007940 0.217507 -0.084761
v -0.007927 0.217507 -0.084761
v -0.007927 0.217507 -0.098109
v -0.007927 0.189760 -0.125856
v -0.007927 0.209380 -0.117729
v 0.007940 0.189760 -0.125856
v 0.007940 0.217507 -0.098109
v 0.007940 0.209380 -0.117729
v 0.007940 0.171827 -0.042175
v -0.007927 0.171827 -0.042175
v 0.007940 0.217507 -0.042175
v -0.007927 0.217507 -0.042175
v -0.007927 -0.003352 -0.097275
v -0.007927 0.171827 -0.092418
v 0.007940 -0.003352 -0.097275
v 0.007940 0.171827 -0.092418
v 0.007940 0.180853 -0.084761
v -0.007927 0.180853 -0.084761
v 0.007940 0.180853 -0.042175
v -0.007927 0.180853 -0.042175
v 0.022401 -0.003352 -0.084761
v 0.022401 0.171827 -0.084761
v -0.022368 0.171827 -0.084761
v -0.022368 -0.003352 -0.084761
v -0.022368 -0.003352 -0.097275
v 0.022401 0.171827 -0.092418
v -0.022368 0.180853 -0.084761
v -0.022368 0.180853 -0.042175
v -0.022368 0.171827 -0.042175
v 0.022401 0.171827 -0.042175
v -0.022368 0.171827 -0.092418
v 0.022401 -0.003352 -0.097275
v 0.022401 0.180853 -0.084761
v 0.022401 0.180853 -0.042175
v 0.007940 -0.003352 0.084763
v 0.007940 0.171827 0.084763
v -0.007927 -0.003352 0.084763
v -0.007927 0.171827 0.084763
v 0.007940 -0.003352 0.149837
v 0.007940 0.171827 0.125858
v -0.007927 -0.003352 0.149837
v -0.007927 0.171827 0.125858
v 0.007940 0.217507 0.084763
v -0.007927 0.217507 0.084763
v -0.007927 0.217507 0.098111
v -0.007927 0.189760 0.125858
v -0.007927 0.209380 0.117731
v 0.007940 0.189760 0.125858
v 0.007940 0.217507 0.098111
v 0.007940 0.209380 0.117731
v 0.007940 0.171827 0.042176
v -0.007927 0.171827 0.042176
v 0.007940 0.217507 0.042176
v -0.007927 0.217507 0.042176
v -0.007927 -0.003352 0.097276
v -0.007927 0.171827 0.092420
v 0.007940 -0.003352 0.097276
v 0.007940 0.171827 0.092420
v 0.007940 0.180853 0.084763
v -0.007927 0.180853 0.084763
v 0.007940 0.180853 0.042176
v -0.007927 0.180853 0.042176
v 0.022401 -0.003352 0.084763
v 0.022401 0.171827 0.084763
v -0.022368 0.171827 0.084763
v -0.022368 -0.003352 0.084763
v -0.022368 -0.003352 0.097276
v 0.022401 0.171827 0.092420
v -0.022368 0.180853 0.084763
v -0.022368 0.180853 0.042176
v -0.022368 0.171827 0.042176
v 0.022401 0.171827 0.042176
v -0.022368 0.171827 0.092420
v 0.022401 -0.003352 0.097276
v 0.022401 0.180853 0.084763
v 0.022401 0.180853 0.042176
v -0.015431 0.169785 -0.000000
v -0.015431 0.228493 -0.000000
v -0.007716 0.169785 -0.013362
v -0.007716 0.228493 -0.013362
v 0.007713 0.169785 -0.013362
v 0.007713 0.228493 -0.013362
v 0.015428 0.169785 -0.000000
v 0.015428 0.228493 -0.000000
v 0.007713 0.169785 0.013362
v 0.007713 0.228493 0.013362
v -0.007716 0.169785 0.013362
v -0.007716 0.228493 0.013362
v -0.051792 0.169785 -0.000000
v -0.025897 0.169785 -0.044852
v -0.025897 0.228493 -0.044852
v -0.051793 0.228493 -0.000000
v 0.025894 0.169785 -0.044852
v 0.025894 0.228493 -0.044852
v 0.051790 0.169785 -0.000000
v 0.051790 0.228493 -0.000000
v 0.025894 0.169785 0.044852
v 0.025894 0.228493 0.044852
v -0.025897 0.169785 0.044852
v -0.025897 0.228493 0.044852
v 0.000014 0.023084 0.031494
v 0.000014 0.044765 0.031494
v 0.000014 0.023084 -0.031493
v 0.000014 0.044765 -0.031493
v 0.103557 0.023084 0.008702
v 0.092803 0.023084 0.019552
v 0.092803 0.044765 0.019552
v 0.103557 0.044765 0.008702
v -0.092775 0.023084 0.019552
v -0.103529 0.023084 0.008702
v -0.103529 0.044765 0.008702
v -0.092775 0.044765 0.019552
v 0.092803 0.023084 -0.019550
v 0.103557 0.023084 -0.008700
v 0.103557 0.044765 -0.008700
v 0.092803 0.044765 -0.019550
v -0.103529 0.023084 -0.008700
v -0.092775 0.023084 -0.019550
v -0.092775 0.044765 -0.019550
v -0.103529 0.044765 -0.008700
v 0.066446 -0.002952 0.000001
v 0.066446 0.059480 0.000001
v 0.075001 -0.002952 -0.011774
v 0.075001 0.059480 -0.011774
v 0.088843 -0.002952 -0.007276
v 0.088843 0.059480 -0.007276
v 0.088843 -0.002952 0.007278
v 0.088843 0.059480 0.007278
v 0.075001 -0.002952 0.011776
v 0.075001 0.059480 0.011776
v -0.066418 -0.002952 0.000001
v -0.066418 0.059480 0.000001
v -0.074972 -0.002952 -0.011774
v -0.074972 0.059480 -0.011774
v -0.088814 -0.002952 -0.007276
v -0.088814 0.059480 -0.007276
v -0.088814 -0.002952 0.007278
v -0.088814 0.059480 0.007278
v -0.074972 -0.002952 0.011776
v -0.074972 0.059480 0.011776
v -0.007718 0.023084 -0.013361
v -0.007718 0.044765 -0.013361
v 0.007711 0.023084 0.013363
v 0.007711 0.044765 0.013363
v 0.015426 0.023084 0.000001
v 0.015426 0.044765 0.000001
v 0.000014 0.023084 -0.013361
v 0.000014 0.044765 -0.013361
v 0.007711 0.023084 -0.013361
v 0.007711 0.044765 -0.013361
v -0.007718 0.023084 0.013363
v 0.000014 0.023084 0.013363
v -0.007718 0.044765 0.013363
v 0.000014 0.044765 0.013363
v -0.015433 0.023084 0.000001
v -0.015433 0.044765 0.000001
vn -0.8090 -0.0000 -0.5878
vn 0.3090 -0.0000 -0.9511
vn 1.0000 -0.0000 -0.0000
vn -0.0000 -1.0000 -0.0000
vn 0.3090 -0.0000 0.9511
vn -0.8090 -0.0000 0.5878
vn -0.0000 1.0000 -0.0000
vn -0.0000 -0.0000 -1.0000
vn 0.7071 -0.0000 -0.7071
vn -0.7071 -0.0000 -0.7071
vn -1.0000 -0.0000 -0.0000
vn -0.7071 -0.0000 0.7071
vn -0.0000 -0.0000 1.0000
vn 0.7071 -0.0000 0.7071
vn 0.8090 -0.0000 -0.5878
vn -0.3090 -0.0000 -0.9511
vn -0.3090 -0.0000 0.9511
vn 0.8090 -0.0000 0.5878
vn -0.1564 -0.0000 -0.9877
vn 0.8910 -0.0000 -0.4540
vn -0.4540 -0.0000 0.8910
vn -0.9877 -0.0000 -0.1564
vn 0.9877 -0.0000 0.1564
vn 0.4540 -0.0000 -0.8910
vn -0.8910 -0.0000 0.4540
vn 0.1564 -0.0000 0.9877
vn -0.0000 0.1356 -0.9908
vn -0.0000 0.0680 -0.9977
vn -0.0000 0.1951 -0.9808
vn -0.0000 0.9808 -0.1951
vn -0.0000 0.3575 -0.9339
vn -0.0000 0.9074 -0.4202
vn -0.0000 0.7071 -0.7071
vn -0.0000 0.0277 -0.9996
vn -0.0000 0.1356 0.9908
vn -0.0000 0.0680 0.9977
vn -0.0000 0.1951 0.9808
vn -0.0000 0.9808 0.1951
vn -0.0000 0.3575 0.9339
vn -0.0000 0.9074 0.4202
vn -0.0000 0.7071 0.7071
vn -0.0000 0.0277 0.9996
vn -0.5000 -0.0000 -0.8660
vn 0.5000 -0.0000 -0.8660
vn 0.5000 -0.0000 0.8660
vn -0.5000 -0.0000 0.8660
vn -0.4430 -0.0000 -0.8965
vn -0.9247 -0.0000 0.3806
vn -0.9247 -0.0000 -0.3806
vn 0.4430 -0.0000 -0.8965
vn -0.4430 -0.0000 0.8965
vn 0.9247 -0.0000 -0.3806
vn 0.9247 -0.0000 0.3806
vn 0.4430 -0.0000 0.8965
vt 0.735827 0.673934
vt 0.757351 0.673934
vt 0.757351 0.719199
vt 0.735827 0.719199
vt 0.740659 0.673934
vt 0.715356 0.673934
vt 0.715356 0.719199
vt 0.740659 0.719199
vt 0.749130 0.673934
vt 0.722524 0.673934
vt 0.722524 0.719199
vt 0.749130 0.719199
vt 0.757351 0.701399
vt 0.749130 0.676095
vt 0.722524 0.676095
vt 0.714302 0.701399
vt 0.735827 0.717037
vt 0.714302 0.673934
vt 0.714302 0.719199
vt 0.807508 0.109224
vt 0.807508 0.211552
vt 0.780196 0.211552
vt 0.780196 0.109224
vt 0.807508 0.006897
vt 0.780196 0.006897
vt 0.807508 0.109224
vt 0.807508 0.327673
vt 0.807508 0.225346
vt 0.780196 0.225346
vt 0.780196 0.327673
vt 0.807508 0.430000
vt 0.780196 0.430000
vt 0.807508 0.327673
vt 0.085026 0.728151
vt 0.194793 0.728151
vt 0.272410 0.805768
vt 0.272410 0.915534
vt 0.194793 0.993151
vt 0.085026 0.993151
vt 0.007409 0.915534
vt 0.007409 0.805767
vt 0.195973 0.993103
vt 0.085215 0.993103
vt 0.006897 0.914785
vt 0.006897 0.804027
vt 0.085215 0.725709
vt 0.195973 0.725709
vt 0.274291 0.804027
vt 0.274291 0.914785
vt 0.148072 0.087492
vt 0.148072 0.226151
vt 0.199580 0.226151
vt 0.199580 0.087492
vt 0.250798 0.087492
vt 0.246954 0.226151
vt 0.273421 0.226151
vt 0.292402 0.087492
vt 0.188875 0.048734
vt 0.188875 0.251225
vt 0.158800 0.251225
vt 0.158800 0.048734
vt 0.246458 0.226151
vt 0.246458 0.087492
vt 0.188875 0.271955
vt 0.158800 0.271955
vt 0.271779 0.168066
vt 0.271779 0.194857
vt 0.222553 0.194857
vt 0.222553 0.168066
vt 0.287209 0.194857
vt 0.287209 0.168066
vt 0.148072 0.233296
vt 0.101129 0.233296
vt 0.101129 0.226151
vt 0.309887 0.168066
vt 0.309887 0.194857
vt 0.188875 0.294634
vt 0.158800 0.294634
vt 0.240893 0.233296
vt 0.240893 0.262309
vt 0.251459 0.262309
vt 0.266988 0.255876
vt 0.273421 0.240346
vt 0.199580 0.233296
vt 0.148072 0.262309
vt 0.199580 0.262309
vt 0.240893 0.204133
vt 0.240893 0.152625
vt 0.207185 0.152625
vt 0.207185 0.204133
vt 0.207185 0.262309
vt 0.207185 0.233296
vt 0.240893 0.105682
vt 0.207185 0.105682
vt 0.101129 0.087492
vt 0.250798 0.087492
vt 0.246954 0.226151
vt 0.240893 0.226151
vt 0.240893 0.087492
vt 0.207185 0.226151
vt 0.207185 0.251011
vt 0.240893 0.251011
vt 0.246458 0.233296
vt 0.250798 0.204133
vt 0.250798 0.251011
vt 0.250798 0.152625
vt 0.250798 0.105682
vt 0.096804 0.087492
vt 0.055201 0.087492
vt 0.074181 0.226151
vt 0.100648 0.226151
vt 0.246458 0.087492
vt 0.075824 0.168066
vt 0.125050 0.168066
vt 0.125050 0.194857
vt 0.075824 0.194857
vt 0.060394 0.194857
vt 0.060394 0.168066
vt 0.037715 0.194857
vt 0.037715 0.168066
vt 0.188875 0.294634
vt 0.158800 0.294634
vt 0.074181 0.240346
vt 0.080614 0.255876
vt 0.096144 0.262309
vt 0.106709 0.262309
vt 0.106709 0.233296
vt 0.106709 0.204133
vt 0.140418 0.204133
vt 0.140418 0.152625
vt 0.106709 0.152625
vt 0.140418 0.233296
vt 0.140418 0.262309
vt 0.140418 0.105682
vt 0.106709 0.105682
vt 0.101129 0.087492
vt 0.106709 0.087492
vt 0.106709 0.226151
vt 0.140418 0.226151
vt 0.106709 0.251011
vt 0.140418 0.251011
vt 0.096804 0.204133
vt 0.096804 0.251011
vt 0.106709 0.251011
vt 0.106709 0.204133
vt 0.106709 0.152625
vt 0.106709 0.105682
vt 0.096804 0.105682
vt 0.096804 0.152625
vt 0.341975 0.182471
vt 0.341975 0.313068
vt 0.257913 0.313068
vt 0.257913 0.182471
vt 0.089790 0.313068
vt 0.089790 0.182471
vt 0.005728 0.313068
vt 0.005728 0.182471
vt 0.198895 0.271004
vt 0.148808 0.271004
vt 0.148808 0.224535
vt 0.198895 0.224535
vt 0.223938 0.271004
vt 0.223938 0.224535
vt 0.184379 0.203448
vt 0.173802 0.228491
vt 0.173802 0.346528
vt 0.209304 0.262466
vt 0.173802 0.213436
vt 0.200699 0.195920
vt 0.264085 0.237199
vt 0.173802 0.295994
vt 0.184379 0.153361
vt 0.209304 0.094343
vt 0.200699 0.160889
vt 0.264085 0.119610
vt 0.173802 0.128318
vt 0.173802 0.010281
vt 0.173802 0.143373
vt 0.173802 0.060815
vt 0.163225 0.153361
vt 0.138300 0.094343
vt 0.146905 0.160889
vt 0.083518 0.119610
vt 0.163225 0.203448
vt 0.138300 0.262466
vt 0.146905 0.195920
vt 0.083518 0.237199
vt 0.123765 0.271004
vt 0.123765 0.224535
vt 0.168359 0.967597
vt 0.154479 0.979575
vt 0.132218 0.979575
vt 0.118338 0.967597
vt 0.103060 0.864240
vt 0.126255 0.864240
vt 0.126255 0.872852
vt 0.143349 0.881446
vt 0.160442 0.872852
vt 0.160442 0.864240
vt 0.183637 0.864240
vt 0.246705 0.852165
vt 0.246705 0.876315
vt 0.143349 0.876315
vt 0.143349 0.852165
vt 0.126255 0.855666
vt 0.143349 0.847072
vt 0.160442 0.855666
vt 0.168359 0.760883
vt 0.154479 0.748904
vt 0.132218 0.748904
vt 0.118338 0.760883
vt 0.132218 0.852165
vt 0.132218 0.876315
vt 0.154479 0.876315
vt 0.154479 0.852165
vt 0.039992 0.876315
vt 0.039992 0.852165
vt 0.118338 0.876315
vt 0.118338 0.852165
vt 0.168359 0.876315
vt 0.168359 0.852165
vt 0.744344 0.667281
vt 0.744344 0.734033
vt 0.758802 0.734033
vt 0.758802 0.667281
vt 0.754830 0.667281
vt 0.754830 0.734033
vt 0.740031 0.734033
vt 0.740031 0.667281
vt 0.753280 0.667281
vt 0.753280 0.734033
vt 0.735408 0.734033
vt 0.735408 0.667281
vt 0.758802 0.698392
vt 0.744344 0.707539
vt 0.729886 0.698392
vt 0.735408 0.683592
vt 0.753280 0.683592
vt 0.729886 0.667281
vt 0.729886 0.734033
vt 0.740574 0.667281
vt 0.755373 0.667281
vt 0.755373 0.734033
vt 0.740574 0.734033
vt 0.758802 0.687493
vt 0.753280 0.702293
vt 0.735408 0.702293
vt 0.729886 0.687493
vt 0.744344 0.678346
vt 0.151961 0.876315
vt 0.151961 0.852165
vt 0.134775 0.852165
vt 0.134775 0.876315
vt 0.126255 0.876315
vt 0.126255 0.852165
vt 0.160442 0.876315
vt 0.160442 0.852165
s 1
usemtl Pipes
f 1/1/1 3/2/1 4/3/1 2/4/1
f 3/5/2 5/6/2 6/7/2 4/8/2
f 5/9/3 7/10/3 8/11/3 6/12/3
f 4/13/4 6/14/4 8/15/4 10/16/4 2/17/4
f 7/6/5 9/5/5 10/8/5 8/7/5
f 9/18/6 1/1/6 2/4/6 10/19/6
f 1/17/7 9/16/7 7/15/7 5/14/7 3/13/7
f 11/1/6 12/4/6 14/3/6 13/2/6
f 13/5/5 14/8/5 16/7/5 15/6/5
f 15/9/3 16/12/3 18/11/3 17/10/3
f 14/13/4 12/17/4 20/16/4 18/15/4 16/14/4
f 17/6/2 18/7/2 20/8/2 19/5/2
f 19/18/1 20/19/1 12/4/1 11/1/1
f 11/17/7 13/13/7 15/14/7 17/15/7 19/16/7
f 95/20/8 94/21/9 24/22/9 23/23/8
f 96/24/10 95/20/8 23/23/8 22/25/10
f 90/26/11 96/24/10 22/25/10 21/23/11
f 89/21/12 90/26/11 21/23/11 28/22/12
f 91/27/13 89/28/12 28/29/12 27/30/13
f 92/31/14 91/27/13 27/30/13 26/32/14
f 93/33/3 92/31/14 26/32/14 25/30/3
f 94/28/9 93/33/3 25/30/3 24/29/9
f 29/1/1 31/2/1 32/3/1 30/4/1
f 31/5/2 33/6/2 34/7/2 32/8/2
f 33/9/3 35/10/3 36/11/3 34/12/3
f 32/13/4 34/14/4 36/15/4 38/16/4 30/17/4
f 35/6/5 37/5/5 38/8/5 36/7/5
f 37/18/6 29/1/6 30/4/6 38/19/6
f 29/17/7 37/16/7 35/15/7 33/14/7 31/13/7
f 39/1/15 40/4/15 42/3/15 41/2/15
f 41/5/16 42/8/16 44/7/16 43/6/16
f 43/9/11 44/12/11 46/11/11 45/10/11
f 42/13/4 40/17/4 48/16/4 46/15/4 44/14/4
f 45/6/17 46/7/17 48/8/17 47/5/17
f 47/18/18 48/19/18 40/4/18 39/1/18
f 39/17/7 41/13/7 43/14/7 45/15/7 47/16/7
f 49/1/19 51/2/19 52/3/19 50/4/19
f 51/5/20 53/6/20 54/7/20 52/8/20
f 53/9/14 55/10/14 56/11/14 54/12/14
f 52/13/4 54/14/4 56/15/4 58/16/4 50/17/4
f 55/6/21 57/5/21 58/8/21 56/7/21
f 57/18/22 49/1/22 50/4/22 58/19/22
f 49/17/7 57/16/7 55/15/7 53/14/7 51/13/7
f 59/1/22 60/4/22 62/3/22 61/2/22
f 61/5/21 62/8/21 64/7/21 63/6/21
f 63/9/14 64/12/14 66/11/14 65/10/14
f 62/13/4 60/17/4 68/16/4 66/15/4 64/14/4
f 65/6/20 66/7/20 68/8/20 67/5/20
f 67/18/19 68/19/19 60/4/19 59/1/19
f 59/17/7 61/13/7 63/14/7 65/15/7 67/16/7
f 69/1/19 71/2/19 72/3/19 70/4/19
f 71/5/20 73/6/20 74/7/20 72/8/20
f 73/9/14 75/10/14 76/11/14 74/12/14
f 72/13/4 74/14/4 76/15/4 78/16/4 70/17/4
f 75/6/21 77/5/21 78/8/21 76/7/21
f 77/18/22 69/1/22 70/4/22 78/19/22
f 69/17/7 77/16/7 75/15/7 73/14/7 71/13/7
f 79/1/23 80/4/23 82/3/23 81/2/23
f 81/5/24 82/8/24 84/7/24 83/6/24
f 83/9/10 84/12/10 86/11/10 85/10/10
f 82/13/4 80/17/4 88/16/4 86/15/4 84/14/4
f 85/6/25 86/7/25 88/8/25 87/5/25
f 87/18/26 88/19/26 80/4/26 79/1/26
f 79/17/7 81/13/7 83/14/7 85/15/7 87/16/7
f 28/34/4 21/35/4 22/36/4 23/37/4 24/38/4 25/39/4 26/40/4 27/41/4
f 90/42/7 89/43/7 91/44/7 92/45/7 93/46/7 94/47/7 95/48/7 96/49/7
f 97/50/13 98/51/13 100/52/13 99/53/13
f 117/54/11 118/55/11 104/56/11 103/57/11
f 103/58/27 104/59/28 102/60/28 101/61/27
f 99/53/13 100/52/13 127/62/13 128/63/13
f 102/60/28 104/59/28 108/64/29 110/65/29
f 105/66/7 106/67/7 116/68/7 115/69/7
f 107/70/30 106/67/7 105/66/7 111/71/30
f 120/51/31 121/72/32 137/73/32 130/74/31
f 107/70/30 111/71/30 112/75/33 109/76/33
f 109/77/33 112/78/33 110/65/29 108/64/29
f 104/56/11 118/55/11 122/79/11 106/80/11 107/81/11 109/82/11 108/83/11
f 124/84/13 123/72/13 115/85/13 116/86/13
f 100/87/4 98/88/4 113/89/4 114/90/4
f 121/79/3 105/80/3 115/91/3 123/92/3
f 113/89/4 98/88/4 126/93/4 134/94/4
f 119/50/34 120/51/31 130/74/31 136/95/34
f 101/57/3 102/56/3 120/55/3 119/54/3
f 106/80/11 122/79/11 124/92/11 116/91/11
f 98/51/13 97/50/13 125/95/13 126/74/13
f 114/52/13 113/51/13 123/72/13 124/84/13
f 121/79/3 120/55/3 102/56/3 110/83/3 112/82/3 111/81/3 105/80/3
f 136/96/3 130/97/3 126/98/3 125/99/3
f 121/88/32 123/89/7 138/94/7 137/93/32
f 126/98/3 130/97/3 137/79/3
f 131/79/11 127/98/11 133/100/11 132/92/11
f 128/99/11 127/98/11 135/97/11 129/96/11
f 126/98/3 137/79/3 138/92/3 134/100/3
f 131/79/11 135/97/11 127/98/11
f 100/87/4 114/90/4 133/101/4 127/102/4
f 122/84/32 118/52/31 135/62/31 131/103/32
f 117/104/4 99/87/4 128/102/4 129/105/4
f 123/72/13 113/51/13 134/74/13 138/73/13
f 118/52/31 117/53/34 129/63/34 135/62/31
f 114/52/13 124/84/13 132/103/13 133/62/13
f 124/90/7 122/87/32 131/102/32 132/101/7
f 97/88/4 119/106/4 136/107/4 125/93/4
f 139/50/8 141/53/8 142/52/8 140/51/8
f 159/108/11 145/109/11 146/110/11 160/111/11
f 145/58/35 143/61/35 144/60/36 146/59/36
f 141/53/8 170/112/8 169/62/8 142/52/8
f 144/60/36 152/65/37 150/64/37 146/59/36
f 147/113/7 157/114/7 158/115/7 148/116/7
f 149/117/38 153/118/38 147/113/7 148/116/7
f 162/51/39 172/74/39 179/73/40 163/72/40
f 149/117/38 151/119/41 154/120/41 153/118/38
f 151/121/41 150/64/37 152/65/37 154/122/41
f 146/110/11 150/123/11 151/124/11 149/125/11 148/126/11 164/127/11 160/111/11
f 166/84/8 158/86/8 157/85/8 165/72/8
f 142/128/4 156/129/4 155/130/4 140/131/4
f 163/127/3 165/132/3 157/133/3 147/126/3
f 155/130/4 176/134/4 168/135/4 140/131/4
f 161/50/42 178/136/42 172/74/39 162/51/39
f 143/109/3 161/108/3 162/111/3 144/110/3
f 148/126/11 158/133/11 166/132/11 164/127/11
f 140/51/8 168/74/8 167/136/8 139/50/8
f 156/52/8 166/84/8 165/72/8 155/51/8
f 163/127/3 147/126/3 153/125/3 154/124/3 152/123/3 144/110/3 162/111/3
f 178/108/3 167/137/3 168/138/3 172/111/3
f 163/131/40 179/135/40 180/134/7 165/130/7
f 168/138/3 179/127/3 172/111/3
f 173/127/11 174/132/11 175/139/11 169/138/11
f 170/137/11 171/108/11 177/111/11 169/138/11
f 168/138/3 176/139/3 180/132/3 179/127/3
f 173/127/11 169/138/11 177/111/11
f 142/128/4 169/140/4 175/141/4 156/129/4
f 164/84/40 173/103/40 177/62/39 160/52/39
f 159/142/4 171/143/4 170/144/4 141/145/4
f 165/72/8 180/73/8 176/74/8 155/51/8
f 160/52/39 177/62/39 171/112/42 159/53/42
f 156/52/8 175/62/8 174/103/8 166/84/8
f 166/129/7 174/141/7 173/140/40 164/128/40
f 139/146/4 167/147/4 178/148/4 161/149/4
f 193/150/11 196/151/11 195/152/43 194/153/43
f 194/153/43 195/152/43 198/154/44 197/155/44
f 197/155/44 198/154/44 200/156/3 199/157/3
f 199/157/3 200/156/3 202/154/45 201/155/45
f 192/158/44 190/159/43 189/160/43 191/161/44
f 201/155/45 202/154/45 204/152/46 203/153/46
f 203/153/46 204/152/46 196/151/11 193/150/11
f 182/162/3 192/158/44 191/161/44 181/163/3
f 183/164/4 181/165/4 193/166/4 194/167/4
f 182/168/7 184/169/7 195/170/7 196/171/7
f 185/172/4 183/164/4 194/167/4 197/173/4
f 184/169/7 186/174/7 198/175/7 195/170/7
f 187/176/4 185/172/4 197/173/4 199/177/4
f 186/174/7 188/178/7 200/179/7 198/175/7
f 189/180/4 187/176/4 199/177/4 201/181/4
f 188/178/7 190/182/7 202/183/7 200/179/7
f 191/184/4 189/180/4 201/181/4 203/185/4
f 190/182/7 192/186/7 204/187/7 202/183/7
f 181/165/4 191/184/4 203/185/4 193/166/4
f 192/186/7 182/168/7 196/171/7 204/187/7
f 190/159/43 188/188/11 187/189/11 189/160/43
f 188/188/11 186/159/46 185/160/46 187/189/11
f 186/159/46 184/158/45 183/161/45 185/160/46
f 184/158/45 182/162/3 181/163/3 183/161/45
f 223/190/7 224/191/7 215/192/7 216/193/7 206/194/7 258/195/7 257/196/7 260/197/7 246/198/7 252/199/7 208/200/7
f 213/193/4 214/192/4 221/191/4 222/190/4 207/200/4 251/199/4 245/198/4 259/197/4 255/196/4 256/195/4 205/194/4
f 222/201/47 223/202/47 208/203/8 207/204/8
f 205/194/4 256/195/4 247/205/4 249/206/4 253/207/4 251/199/4 207/200/4 217/208/4 218/209/4 209/210/4 210/211/4
f 208/200/7 252/199/7 254/207/7 250/206/7 248/205/7 258/195/7 206/194/7 211/211/7 212/210/7 219/209/7 220/208/7
f 214/212/48 215/213/48 224/214/49 221/215/49
f 207/204/8 208/203/8 220/216/50 217/217/50
f 205/204/13 206/203/13 216/202/51 213/201/51
f 218/215/52 219/214/52 212/213/53 209/212/53
f 209/212/53 212/213/53 211/218/54 210/219/54
f 215/213/48 214/212/48 213/219/51 216/218/51
f 223/220/47 222/221/47 221/215/49 224/214/49
f 219/214/52 218/215/52 217/221/50 220/220/50
f 210/217/54 211/216/54 206/203/13 205/204/13
f 225/222/1 226/223/1 228/224/1 227/225/1
f 227/226/2 228/227/2 230/228/2 229/229/2
f 229/230/3 230/231/3 232/232/3 231/233/3
f 228/234/7 226/235/7 234/236/7 232/237/7 230/238/7
f 231/229/5 232/228/5 234/227/5 233/226/5
f 233/239/6 234/240/6 226/223/6 225/222/6
f 235/222/15 237/225/15 238/224/15 236/223/15
f 237/241/16 239/242/16 240/243/16 238/244/16
f 239/230/11 241/233/11 242/232/11 240/231/11
f 238/245/7 240/246/7 242/247/7 244/248/7 236/249/7
f 241/242/17 243/241/17 244/244/17 242/243/17
f 243/239/18 235/222/18 236/223/18 244/240/18
f 246/250/45 245/251/45 251/204/13 253/252/46 254/253/46 252/203/13
f 257/254/44 255/255/44 259/204/3 260/203/3
f 250/203/11 249/204/11 247/255/43 248/254/43
f 248/253/43 247/252/43 256/204/8 255/251/44 257/250/44 258/203/8
f 254/256/46 253/257/46 249/204/11 250/203/11
f 260/203/3 259/204/3 245/257/45 246/256/45
