# Blender 4.5.9 LTS
# www.blender.org
mtllib Pipe_007.mtl
o Pipe_007
v -0.016224 0.250379 -0.339236
v -0.016224 0.282803 -0.339236
v -0.005022 0.250379 -0.323817
v -0.005022 0.282803 -0.323817
v 0.013104 0.250379 -0.329706
v 0.013104 0.282803 -0.329706
v 0.013104 0.250379 -0.348765
v 0.013104 0.282803 -0.348765
v -0.005022 0.250379 -0.354654
v -0.005022 0.282803 -0.354654
v -0.016224 0.250379 0.008509
v -0.016224 0.282803 0.008509
v -0.005022 0.250379 -0.006910
v -0.005022 0.282803 -0.006910
v 0.013104 0.250379 -0.001020
v 0.013104 0.282803 -0.001020
v 0.013104 0.250379 0.018038
v 0.013104 0.282803 0.018038
v -0.005022 0.250379 0.023927
v -0.005022 0.282803 0.023927
v -0.152139 0.280180 -0.165363
v -0.107580 0.280180 -0.057788
v -0.000005 0.280180 -0.013229
v 0.107570 0.280180 -0.057788
v 0.152129 0.280180 -0.165363
v 0.107570 0.280180 -0.272938
v -0.000005 0.280180 -0.317497
v -0.107580 0.280180 -0.272938
v -0.198928 0.280180 -0.165363
v -0.140664 0.280180 -0.024703
v -0.000005 0.280180 0.033560
v 0.140655 0.280180 -0.024703
v 0.198918 0.280180 -0.165363
v 0.140655 0.280180 -0.306022
v -0.000005 0.280180 -0.364286
v -0.140664 0.280180 -0.306022
v -0.198928 0.317723 -0.165363
v -0.140664 0.317723 -0.024703
v -0.000005 0.317723 0.033560
v 0.140655 0.317723 -0.024703
v 0.198918 0.317723 -0.165363
v 0.140655 0.317723 -0.306022
v -0.000005 0.317723 -0.364285
v -0.140664 0.317723 -0.306022
v -0.152139 0.095620 -0.165363
v -0.107580 0.095620 -0.057788
v -0.000005 0.095620 -0.013229
v 0.107570 0.095620 -0.057788
v 0.152129 0.095620 -0.165363
v 0.107570 0.095620 -0.272938
v -0.000005 0.095620 -0.317497
v -0.107580 0.095620 -0.272938
v 0.156574 0.250379 -0.165379
v 0.156574 0.282803 -0.165379
v 0.167776 0.250379 -0.149961
v 0.167776 0.282803 -0.149961
v 0.185902 0.250379 -0.155850
v 0.185902 0.282803 -0.155850
v 0.185902 0.250379 -0.174909
v 0.185902 0.282803 -0.174909
v 0.167776 0.250379 -0.180798
v 0.167776 0.282803 -0.180798
v -0.156583 0.250379 -0.165379
v -0.156583 0.282803 -0.165379
v -0.167786 0.250379 -0.149961
v -0.167786 0.282803 -0.149961
v -0.185911 0.250379 -0.155850
v -0.185911 0.282803 -0.155850
v -0.185911 0.250379 -0.174909
v -0.185911 0.282803 -0.174909
v -0.167786 0.250379 -0.180798
v -0.167786 0.282803 -0.180798
v -0.134411 0.250379 -0.276845
v -0.134411 0.282803 -0.276845
v -0.115588 0.250379 -0.273864
v -0.115588 0.282803 -0.273864
v -0.106935 0.250379 -0.290845
v -0.106935 0.282803 -0.290845
v -0.120412 0.250379 -0.304321
v -0.120412 0.282803 -0.304321
v -0.137393 0.250379 -0.295669
v -0.137393 0.282803 -0.295669
v 0.111481 0.250378 -0.030953
v 0.111481 0.282803 -0.030953
v 0.108500 0.250378 -0.049777
v 0.108500 0.282803 -0.049777
v 0.125481 0.250378 -0.058429
v 0.125481 0.282803 -0.058429
v 0.138957 0.250378 -0.044953
v 0.138957 0.282803 -0.044953
v 0.130305 0.250378 -0.027971
v 0.130305 0.282803 -0.027971
v 0.110710 0.250379 -0.276097
v 0.110710 0.282803 -0.276097
v 0.129533 0.250379 -0.273115
v 0.129533 0.282803 -0.273115
v 0.138186 0.250379 -0.290096
v 0.138186 0.282803 -0.290096
v 0.124709 0.250379 -0.303573
v 0.124709 0.282803 -0.303573
v 0.107728 0.250379 -0.294920
v 0.107728 0.282803 -0.294920
v -0.110726 0.250379 -0.054661
v -0.110726 0.282803 -0.054661
v -0.107744 0.250379 -0.035837
v -0.107744 0.282803 -0.035837
v -0.124725 0.250379 -0.027185
v -0.124725 0.282803 -0.027185
v -0.138202 0.250379 -0.040661
v -0.138202 0.282803 -0.040661
v -0.129549 0.250379 -0.057643
v -0.129549 0.282803 -0.057643
v -0.152132 -0.004377 -0.145925
v -0.107573 0.036790 -0.046539
v 0.000002 0.053842 -0.005372
v 0.107577 0.036790 -0.046539
v 0.152136 -0.004377 -0.145925
v 0.107577 -0.045544 -0.245311
v 0.000002 -0.062596 -0.286478
v -0.107573 -0.045544 -0.245311
v -0.152125 -0.089324 -0.089700
v -0.107566 -0.013257 -0.013633
v 0.000009 0.018251 0.017875
v 0.107584 -0.013257 -0.013633
v 0.152143 -0.089324 -0.089700
v 0.107584 -0.165391 -0.165767
v 0.000009 -0.196899 -0.197275
v -0.107566 -0.165391 -0.165767
v -0.152118 -0.146288 -0.005247
v -0.107559 -0.046902 0.035920
v 0.000016 -0.005734 0.052972
v 0.107591 -0.046902 0.035920
v 0.152150 -0.146288 -0.005247
v 0.107591 -0.245674 -0.046414
v 0.000016 -0.286841 -0.063466
v -0.107559 -0.245674 -0.046414
v -0.152125 -0.166597 0.094576
v -0.107566 -0.059022 0.094576
v 0.000009 -0.014463 0.094576
v 0.107584 -0.059022 0.094576
v 0.152143 -0.166597 0.094576
v 0.107584 -0.274172 0.094576
v 0.000009 -0.318731 0.094576
v -0.107566 -0.274172 0.094576
v -0.016224 0.007276 0.249335
v -0.016224 0.007276 0.281759
v -0.005021 -0.008143 0.249335
v -0.005021 -0.008143 0.281759
v 0.013104 -0.002254 0.249335
v 0.013104 -0.002254 0.281759
v 0.013104 0.016805 0.249335
v 0.013104 0.016805 0.281759
v -0.005021 0.022694 0.249335
v -0.005021 0.022694 0.281759
v -0.016224 -0.340469 0.249335
v -0.016224 -0.340469 0.281759
v -0.005021 -0.325050 0.249335
v -0.005021 -0.325050 0.281759
v 0.013104 -0.330939 0.249335
v 0.013104 -0.330939 0.281759
v 0.013104 -0.349998 0.249335
v 0.013104 -0.349998 0.281759
v -0.005021 -0.355887 0.249335
v -0.005021 -0.355887 0.281759
v -0.152138 -0.166597 0.279137
v -0.107579 -0.274172 0.279137
v -0.000005 -0.318731 0.279137
v 0.107570 -0.274172 0.279137
v 0.152129 -0.166597 0.279137
v 0.107570 -0.059022 0.279137
v -0.000005 -0.014463 0.279137
v -0.107579 -0.059022 0.279137
v -0.198927 -0.166597 0.279137
v -0.140664 -0.307257 0.279137
v -0.000005 -0.365520 0.279137
v 0.140655 -0.307257 0.279137
v 0.198918 -0.166597 0.279137
v 0.140655 -0.025938 0.279137
v -0.000005 0.032326 0.279137
v -0.140664 -0.025937 0.279137
v -0.198927 -0.166597 0.316680
v -0.140664 -0.307257 0.316680
v -0.000005 -0.365520 0.316680
v 0.140655 -0.307257 0.316680
v 0.198918 -0.166597 0.316680
v 0.140655 -0.025938 0.316680
v -0.000005 0.032326 0.316680
v -0.140664 -0.025938 0.316680
v 0.156574 -0.166580 0.249335
v 0.156574 -0.166580 0.281759
v 0.167776 -0.181999 0.249335
v 0.167776 -0.181999 0.281759
v 0.185902 -0.176110 0.249335
v 0.185902 -0.176110 0.281759
v 0.185902 -0.157051 0.249335
v 0.185902 -0.157051 0.281759
v 0.167776 -0.151162 0.249335
v 0.167776 -0.151162 0.281759
v -0.156583 -0.166580 0.249335
v -0.156583 -0.166580 0.281760
v -0.167785 -0.181999 0.249335
v -0.167785 -0.181999 0.281760
v -0.185911 -0.176110 0.249335
v -0.185911 -0.176110 0.281760
v -0.185911 -0.157051 0.249335
v -0.185911 -0.157051 0.281760
v -0.167785 -0.151162 0.249335
v -0.167785 -0.151162 0.281760
v -0.134411 -0.055115 0.249335
v -0.134411 -0.055115 0.281759
v -0.115588 -0.058096 0.249335
v -0.115588 -0.058096 0.281759
v -0.106935 -0.041115 0.249335
v -0.106935 -0.041115 0.281759
v -0.120412 -0.027639 0.249335
v -0.120412 -0.027639 0.281759
v -0.137393 -0.036291 0.249335
v -0.137393 -0.036291 0.281759
v 0.111481 -0.301007 0.249335
v 0.111481 -0.301007 0.281759
v 0.108500 -0.282183 0.249335
v 0.108500 -0.282183 0.281759
v 0.125481 -0.273531 0.249335
v 0.125481 -0.273531 0.281759
v 0.138957 -0.287007 0.249335
v 0.138957 -0.287007 0.281759
v 0.130305 -0.303989 0.249335
v 0.130305 -0.303989 0.281759
v 0.110710 -0.055863 0.249335
v 0.110710 -0.055863 0.281759
v 0.129534 -0.058845 0.249335
v 0.129534 -0.058845 0.281759
v 0.138186 -0.041863 0.249335
v 0.138186 -0.041863 0.281759
v 0.124710 -0.028387 0.249335
v 0.124710 -0.028387 0.281759
v 0.107728 -0.037039 0.249335
v 0.107728 -0.037039 0.281759
v -0.110726 -0.277299 0.249335
v -0.110726 -0.277299 0.281759
v -0.107744 -0.296122 0.249335
v -0.107744 -0.296122 0.281759
v -0.124725 -0.304775 0.249335
v -0.124725 -0.304775 0.281759
v -0.138202 -0.291298 0.249335
v -0.138202 -0.291298 0.281759
v -0.129549 -0.274317 0.249335
v -0.129549 -0.274317 0.281759
vn -0.8090 -0.0000 0.5878
vn 0.3090 -0.0000 0.9511
vn 1.0000 -0.0000 -0.0000
vn -0.0000 1.0000 -0.0000
vn 0.3090 -0.0000 -0.9511
vn -0.8090 -0.0000 -0.5878
vn -0.0000 -1.0000 -0.0000
vn -0.0000 -0.0000 1.0000
vn 0.7071 -0.0000 0.7071
vn -0.7071 -0.0000 0.7071
vn -1.0000 -0.0000 -0.0000
vn -0.7071 -0.0000 -0.7071
vn -0.0000 -0.0000 -1.0000
vn 0.7071 -0.0000 -0.7071
vn -0.6943 -0.0697 -0.7163
vn -0.9997 -0.0048 -0.0233
vn -0.0000 -0.0944 -0.9955
vn 0.6943 -0.0696 -0.7163
vn 0.9997 -0.0047 -0.0233
vn 0.7174 0.0659 0.6935
vn -0.0000 0.0959 0.9954
vn -0.7174 0.0658 0.6935
vn 0.8090 -0.0000 0.5878
vn -0.3090 -0.0000 0.9511
vn -0.3090 -0.0000 -0.9511
vn 0.8090 -0.0000 -0.5878
vn -0.1564 -0.0000 0.9877
vn 0.8910 -0.0000 0.4540
vn -0.4540 -0.0000 -0.8910
vn -0.9877 -0.0000 0.1564
vn 0.9877 -0.0000 -0.1564
vn 0.4540 -0.0000 0.8910
vn -0.8910 -0.0000 -0.4540
vn 0.1564 -0.0000 -0.9877
vn -0.6841 -0.2771 -0.6748
vn -0.9989 -0.0183 -0.0441
vn -0.7317 0.2560 0.6317
vn -0.0000 0.3742 0.9273
vn 0.7317 0.2561 0.6317
vn 0.9989 -0.0182 -0.0441
vn 0.6841 -0.2770 -0.6748
vn -0.0000 -0.3801 -0.9249
vn -0.0000 -0.7051 -0.7091
vn -0.6841 -0.5142 -0.5174
vn -0.7317 0.4782 0.4857
vn -0.0000 0.7006 0.7135
vn 0.7317 0.4783 0.4856
vn 0.9989 -0.0337 -0.0338
vn 0.6841 -0.5142 -0.5174
vn -0.9989 -0.0338 -0.0337
vn -0.9989 -0.0441 -0.0183
vn -0.7317 0.6277 0.2656
vn -0.0000 0.9203 0.3911
vn 0.7317 0.6277 0.2656
vn 0.9989 -0.0441 -0.0183
vn 0.6841 -0.6730 -0.2812
vn -0.0000 -0.9228 -0.3852
vn -0.6840 -0.6730 -0.2812
vn 0.6940 -0.7163 -0.0719
vn -0.0000 -0.9953 -0.0971
vn -0.6940 -0.7163 -0.0719
vn -0.9997 -0.0244 -0.0048
vn -0.7185 0.6918 0.0710
vn -0.0000 0.9945 0.1050
vn 0.7185 0.6918 0.0711
vn 0.9997 -0.0244 -0.0047
vn -0.8090 -0.5878 -0.0000
vn 0.3090 -0.9511 -0.0000
vn 0.3090 0.9511 -0.0000
vn -0.8090 0.5878 -0.0000
vn 0.7071 -0.7071 -0.0000
vn -0.7071 -0.7071 -0.0000
vn -0.7071 0.7071 -0.0000
vn 0.7071 0.7071 -0.0000
vn -0.7071 0.7071 -0.0001
vn -1.0000 -0.0000 -0.0001
vn 0.7071 0.7071 0.0001
vn 1.0000 -0.0000 0.0001
vn 0.7071 -0.7071 0.0001
vn -0.7071 -0.7071 -0.0001
vn 0.8090 -0.5878 -0.0000
vn -0.3090 -0.9511 -0.0000
vn -0.3090 0.9511 -0.0000
vn 0.8090 0.5878 -0.0000
vn -0.1564 -0.9877 -0.0000
vn 0.8910 -0.4540 -0.0000
vn -0.4540 0.8910 -0.0000
vn -0.9877 -0.1564 -0.0000
vn 0.9877 0.1564 -0.0000
vn 0.4540 -0.8910 -0.0000
vn -0.8910 0.4540 -0.0000
vn 0.1564 0.9877 -0.0000
vt 0.735827 0.673934
vt 0.757351 0.673934
vt 0.757351 0.719199
vt 0.735827 0.719199
vt 0.740659 0.673934
vt 0.715356 0.673934
vt 0.715356 0.719199
vt 0.740659 0.719199
vt 0.749130 0.673934
vt 0.722524 0.673934
vt 0.722524 0.719199
vt 0.749130 0.719199
vt 0.757351 0.701399
vt 0.749130 0.676095
vt 0.722524 0.676095
vt 0.714302 0.701399
vt 0.735827 0.717037
vt 0.714302 0.673934
vt 0.714302 0.719199
vt 0.038344 0.901759
vt 0.098241 0.961656
vt 0.085215 0.993103
vt 0.006897 0.914785
vt 0.038344 0.817053
vt 0.006897 0.804027
vt 0.098241 0.757156
vt 0.085215 0.725709
vt 0.182947 0.757156
vt 0.195973 0.725709
vt 0.242844 0.817053
vt 0.274291 0.804027
vt 0.242844 0.901759
vt 0.274291 0.914785
vt 0.182947 0.961656
vt 0.195973 0.993103
vt 0.807508 0.109224
vt 0.807508 0.211552
vt 0.780196 0.211552
vt 0.780196 0.109224
vt 0.807508 0.006897
vt 0.780196 0.006897
vt 0.807508 0.109224
vt 0.807508 0.327673
vt 0.807508 0.225346
vt 0.780196 0.225346
vt 0.780196 0.327673
vt 0.807508 0.430000
vt 0.780196 0.430000
vt 0.807508 0.327673
vt 0.425838 0.993103
vt 0.536596 0.993103
vt 0.614914 0.914785
vt 0.614914 0.804026
vt 0.536596 0.725709
vt 0.425838 0.725709
vt 0.347520 0.804027
vt 0.347520 0.914785
vt 0.504037 0.121644
vt 0.504037 0.266760
vt 0.425779 0.266760
vt 0.425779 0.121644
vt 0.597750 0.602809
vt 0.597750 0.431358
vt 0.522435 0.431358
vt 0.522435 0.602809
vt 0.673065 0.602809
vt 0.673065 0.431358
vt 0.255467 0.266760
vt 0.255467 0.121644
vt 0.333726 0.121644
vt 0.333726 0.266760
vt 0.177209 0.266760
vt 0.177209 0.121644
vt 0.083412 0.264650
vt 0.083412 0.119534
vt 0.161670 0.119534
vt 0.161670 0.264650
vt 0.005153 0.264650
vt 0.005153 0.119534
vt 0.347520 0.266760
vt 0.347520 0.121644
vt 0.424659 0.380539
vt 0.501158 0.380539
vt 0.501158 0.298590
vt 0.424659 0.298590
vt 0.348160 0.380539
vt 0.348160 0.298590
vt 0.005320 0.138114
vt 0.005320 0.242508
vt 0.045196 0.242508
vt 0.045196 0.138114
vt 0.332648 0.003628
vt 0.251401 0.003628
vt 0.251401 0.093139
vt 0.332648 0.093139
vt 0.522435 0.321899
vt 0.597750 0.321899
vt 0.597750 0.239832
vt 0.522435 0.239832
vt 0.005320 0.346901
vt 0.045196 0.346901
vt 0.170154 0.003628
vt 0.170154 0.093139
vt 0.673065 0.321899
vt 0.673065 0.239832
vt 0.597750 0.157765
vt 0.522435 0.157765
vt 0.085072 0.346901
vt 0.085072 0.242508
vt 0.170154 0.182649
vt 0.251401 0.182649
vt 0.673065 0.157765
vt 0.501158 0.216642
vt 0.424659 0.216642
vt 0.348160 0.216642
vt 0.085072 0.138114
vt 0.332648 0.182649
vt 0.348160 0.203693
vt 0.424659 0.203693
vt 0.424659 0.285641
vt 0.348160 0.285641
vt 0.124948 0.242508
vt 0.124948 0.138114
vt 0.251401 0.272159
vt 0.332648 0.272159
vt 0.673981 0.209520
vt 0.593912 0.209520
vt 0.593912 0.308250
vt 0.673981 0.308250
vt 0.124948 0.346901
vt 0.170154 0.272159
vt 0.513842 0.209520
vt 0.513842 0.308250
vt 0.501158 0.203693
vt 0.501158 0.285641
vt 0.513842 0.406981
vt 0.593912 0.406981
vt 0.501158 0.367589
vt 0.424659 0.367589
vt 0.348160 0.367589
vt 0.164824 0.242508
vt 0.164824 0.138114
vt 0.251401 0.361669
vt 0.332648 0.361669
vt 0.673981 0.406981
vt 0.164824 0.346901
vt 0.170154 0.361669
vt 0.347520 0.105740
vt 0.347520 0.260563
vt 0.425779 0.260563
vt 0.425779 0.105740
vt 0.085156 0.105740
vt 0.085156 0.260563
vt 0.163414 0.260563
vt 0.163414 0.105740
vt 0.006897 0.105740
vt 0.006897 0.260563
vt 0.255467 0.105740
vt 0.255467 0.260563
vt 0.177209 0.260563
vt 0.177209 0.105740
vt 0.333726 0.105740
vt 0.333726 0.260563
vt 0.596090 0.105740
vt 0.596090 0.260563
vt 0.517832 0.260563
vt 0.517832 0.105740
vt 0.674349 0.105740
vt 0.674349 0.260563
vt 0.504037 0.260563
vt 0.504037 0.105740
s 0
usemtl Pipes
f 1/1/1 3/2/1 4/3/1 2/4/1
f 3/5/2 5/6/2 6/7/2 4/8/2
f 5/9/3 7/10/3 8/11/3 6/12/3
f 4/13/4 6/14/4 8/15/4 10/16/4 2/17/4
f 7/6/5 9/5/5 10/8/5 8/7/5
f 9/18/6 1/1/6 2/4/6 10/19/6
f 1/17/7 9/16/7 7/15/7 5/14/7 3/13/7
f 11/1/6 12/4/6 14/3/6 13/2/6
f 13/5/5 14/8/5 16/7/5 15/6/5
f 15/9/3 16/12/3 18/11/3 17/10/3
f 14/13/4 12/17/4 20/16/4 18/15/4 16/14/4
f 17/6/2 18/7/2 20/8/2 19/5/2
f 19/18/1 20/19/1 12/4/1 11/1/1
f 11/17/7 13/13/7 15/14/7 17/15/7 19/16/7
s 1
f 27/20/7 28/21/7 36/22/7 35/23/7
f 26/24/7 27/20/7 35/23/7 34/25/7
f 25/26/7 26/24/7 34/25/7 33/27/7
f 24/28/7 25/26/7 33/27/7 32/29/7
f 23/30/7 24/28/7 32/29/7 31/31/7
f 22/32/7 23/30/7 31/31/7 30/33/7
f 21/34/7 22/32/7 30/33/7 29/35/7
f 28/21/7 21/34/7 29/35/7 36/22/7
f 31/36/8 32/37/9 40/38/9 39/39/8
f 30/40/10 31/36/8 39/39/8 38/41/10
f 29/42/11 30/40/10 38/41/10 37/39/11
f 36/37/12 29/42/11 37/39/11 44/38/12
f 35/43/13 36/44/12 44/45/12 43/46/13
f 34/47/14 35/43/13 43/46/13 42/48/14
f 33/49/3 34/47/14 42/48/14 41/46/3
f 32/44/9 33/49/3 41/46/3 40/45/9
f 44/50/4 37/51/4 38/52/4 39/53/4 40/54/4 41/55/4 42/56/4 43/57/4
f 28/58/12 52/59/15 45/60/16 21/61/11
f 27/62/13 51/63/17 52/64/15 28/65/12
f 26/66/14 50/67/18 51/63/17 27/62/13
f 25/68/3 49/69/19 50/70/18 26/71/14
f 24/72/9 48/73/20 49/69/19 25/68/3
f 23/74/8 47/75/21 48/76/20 24/77/9
f 22/78/10 46/79/22 47/75/21 23/74/8
f 21/61/11 45/60/16 46/80/22 22/81/10
s 0
f 53/1/1 55/2/1 56/3/1 54/4/1
f 55/5/2 57/6/2 58/7/2 56/8/2
f 57/9/3 59/10/3 60/11/3 58/12/3
f 56/13/4 58/14/4 60/15/4 62/16/4 54/17/4
f 59/6/5 61/5/5 62/8/5 60/7/5
f 61/18/6 53/1/6 54/4/6 62/19/6
f 53/17/7 61/16/7 59/15/7 57/14/7 55/13/7
f 63/1/23 64/4/23 66/3/23 65/2/23
f 65/5/24 66/8/24 68/7/24 67/6/24
f 67/9/11 68/12/11 70/11/11 69/10/11
f 66/13/4 64/17/4 72/16/4 70/15/4 68/14/4
f 69/6/25 70/7/25 72/8/25 71/5/25
f 71/18/26 72/19/26 64/4/26 63/1/26
f 63/17/7 65/13/7 67/14/7 69/15/7 71/16/7
f 73/1/27 75/2/27 76/3/27 74/4/27
f 75/5/28 77/6/28 78/7/28 76/8/28
f 77/9/14 79/10/14 80/11/14 78/12/14
f 76/13/4 78/14/4 80/15/4 82/16/4 74/17/4
f 79/6/29 81/5/29 82/8/29 80/7/29
f 81/18/30 73/1/30 74/4/30 82/19/30
f 73/17/7 81/16/7 79/15/7 77/14/7 75/13/7
f 83/1/30 84/4/30 86/3/30 85/2/30
f 85/5/29 86/8/29 88/7/29 87/6/29
f 87/9/14 88/12/14 90/11/14 89/10/14
f 86/13/4 84/17/4 92/16/4 90/15/4 88/14/4
f 89/6/28 90/7/28 92/8/28 91/5/28
f 91/18/27 92/19/27 84/4/27 83/1/27
f 83/17/7 85/13/7 87/14/7 89/15/7 91/16/7
f 93/1/27 95/2/27 96/3/27 94/4/27
f 95/5/28 97/6/28 98/7/28 96/8/28
f 97/9/14 99/10/14 100/11/14 98/12/14
f 96/13/4 98/14/4 100/15/4 102/16/4 94/17/4
f 99/6/29 101/5/29 102/8/29 100/7/29
f 101/18/30 93/1/30 94/4/30 102/19/30
f 93/17/7 101/16/7 99/15/7 97/14/7 95/13/7
f 103/1/31 104/4/31 106/3/31 105/2/31
f 105/5/32 106/8/32 108/7/32 107/6/32
f 107/9/10 108/12/10 110/11/10 109/10/10
f 106/13/4 104/17/4 112/16/4 110/15/4 108/14/4
f 109/6/33 110/7/33 112/8/33 111/5/33
f 111/18/34 112/19/34 104/4/34 103/1/34
f 103/17/7 105/13/7 107/14/7 109/15/7 111/16/7
s 1
f 45/82/16 52/83/15 120/84/35 113/85/36
f 46/86/22 45/82/16 113/85/36 114/87/37
f 48/88/20 47/89/21 115/90/38 116/91/39
f 50/92/18 49/93/19 117/94/40 118/95/41
f 52/96/15 51/97/17 119/98/42 120/99/35
f 47/89/21 46/100/22 114/101/37 115/90/38
f 49/93/19 48/102/20 116/103/39 117/94/40
f 51/97/17 50/104/18 118/105/41 119/98/42
f 120/99/35 119/98/42 127/106/43 128/107/44
f 115/90/38 114/101/37 122/108/45 123/109/46
f 117/94/40 116/103/39 124/110/47 125/111/48
f 119/98/42 118/105/41 126/112/49 127/106/43
f 113/85/36 120/84/35 128/113/44 121/114/50
f 114/87/37 113/85/36 121/114/50 122/115/45
f 116/91/39 115/90/38 123/109/46 124/116/47
f 118/95/41 117/94/40 125/111/48 126/117/49
f 122/118/45 121/119/50 129/120/51 130/121/52
f 124/116/47 123/109/46 131/122/53 132/123/54
f 126/117/49 125/111/48 133/124/55 134/125/56
f 128/126/44 127/127/43 135/128/57 136/129/58
f 123/109/46 122/108/45 130/130/52 131/122/53
f 125/111/48 124/110/47 132/131/54 133/124/55
f 127/127/43 126/132/49 134/133/56 135/128/57
f 121/119/50 128/134/44 136/135/58 129/120/51
f 135/128/57 134/133/56 142/136/59 143/137/60
f 129/120/51 136/135/58 144/138/61 137/139/62
f 130/121/52 129/120/51 137/139/62 138/140/63
f 132/123/54 131/122/53 139/141/64 140/142/65
f 134/125/56 133/124/55 141/143/66 142/144/59
f 136/129/58 135/128/57 143/137/60 144/145/61
f 131/122/53 130/130/52 138/146/63 139/141/64
f 133/124/55 132/131/54 140/147/65 141/143/66
s 0
f 145/1/67 147/2/67 148/3/67 146/4/67
f 147/5/68 149/6/68 150/7/68 148/8/68
f 149/9/3 151/10/3 152/11/3 150/12/3
f 148/13/8 150/14/8 152/15/8 154/16/8 146/17/8
f 151/6/69 153/5/69 154/8/69 152/7/69
f 153/18/70 145/1/70 146/4/70 154/19/70
f 145/17/13 153/16/13 151/15/13 149/14/13 147/13/13
f 155/1/70 156/4/70 158/3/70 157/2/70
f 157/5/69 158/8/69 160/7/69 159/6/69
f 159/9/3 160/12/3 162/11/3 161/10/3
f 158/13/8 156/17/8 164/16/8 162/15/8 160/14/8
f 161/6/68 162/7/68 164/8/68 163/5/68
f 163/18/67 164/19/67 156/4/67 155/1/67
f 155/17/13 157/13/13 159/14/13 161/15/13 163/16/13
s 1
f 171/20/13 172/21/13 180/22/13 179/23/13
f 170/24/13 171/20/13 179/23/13 178/25/13
f 169/26/13 170/24/13 178/25/13 177/27/13
f 168/28/13 169/26/13 177/27/13 176/29/13
f 167/30/13 168/28/13 176/29/13 175/31/13
f 166/32/13 167/30/13 175/31/13 174/33/13
f 165/34/13 166/32/13 174/33/13 173/35/13
f 172/21/13 165/34/13 173/35/13 180/22/13
f 175/36/7 176/37/71 184/38/71 183/39/7
f 174/40/72 175/36/7 183/39/7 182/41/72
f 173/42/11 174/40/72 182/41/72 181/39/11
f 180/37/73 173/42/11 181/39/11 188/38/73
f 179/43/4 180/44/73 188/45/73 187/46/4
f 178/47/74 179/43/4 187/46/4 186/48/74
f 177/49/3 178/47/74 186/48/74 185/46/3
f 176/44/71 177/49/3 185/46/3 184/45/71
f 188/50/8 181/51/8 182/52/8 183/53/8 184/54/8 185/55/8 186/56/8 187/57/8
f 172/148/75 138/149/63 137/150/62 165/151/76
f 171/152/4 139/153/64 138/154/63 172/155/75
f 170/156/77 140/157/65 139/153/64 171/152/4
f 169/158/78 141/159/66 140/160/65 170/161/77
f 168/162/79 142/163/59 141/159/66 169/158/78
f 167/164/7 143/165/60 142/166/59 168/167/79
f 166/168/80 144/169/61 143/165/60 167/164/7
f 165/151/76 137/150/62 144/170/61 166/171/80
s 0
f 189/1/67 191/2/67 192/3/67 190/4/67
f 191/5/68 193/6/68 194/7/68 192/8/68
f 193/9/3 195/10/3 196/11/3 194/12/3
f 192/13/8 194/14/8 196/15/8 198/16/8 190/17/8
f 195/6/69 197/5/69 198/8/69 196/7/69
f 197/18/70 189/1/70 190/4/70 198/19/70
f 189/17/13 197/16/13 195/15/13 193/14/13 191/13/13
f 199/1/81 200/4/81 202/3/81 201/2/81
f 201/5/82 202/8/82 204/7/82 203/6/82
f 203/9/11 204/12/11 206/11/11 205/10/11
f 202/13/8 200/17/8 208/16/8 206/15/8 204/14/8
f 205/6/83 206/7/83 208/8/83 207/5/83
f 207/18/84 208/19/84 200/4/84 199/1/84
f 199/17/13 201/13/13 203/14/13 205/15/13 207/16/13
f 209/1/85 211/2/85 212/3/85 210/4/85
f 211/5/86 213/6/86 214/7/86 212/8/86
f 213/9/74 215/10/74 216/11/74 214/12/74
f 212/13/8 214/14/8 216/15/8 218/16/8 210/17/8
f 215/6/87 217/5/87 218/8/87 216/7/87
f 217/18/88 209/1/88 210/4/88 218/19/88
f 209/17/13 217/16/13 215/15/13 213/14/13 211/13/13
f 219/1/88 220/4/88 222/3/88 221/2/88
f 221/5/87 222/8/87 224/7/87 223/6/87
f 223/9/74 224/12/74 226/11/74 225/10/74
f 222/13/8 220/17/8 228/16/8 226/15/8 224/14/8
f 225/6/86 226/7/86 228/8/86 227/5/86
f 227/18/85 228/19/85 220/4/85 219/1/85
f 219/17/13 221/13/13 223/14/13 225/15/13 227/16/13
f 229/1/85 231/2/85 232/3/85 230/4/85
f 231/5/86 233/6/86 234/7/86 232/8/86
f 233/9/74 235/10/74 236/11/74 234/12/74
f 232/13/8 234/14/8 236/15/8 238/16/8 230/17/8
f 235/6/87 237/5/87 238/8/87 236/7/87
f 237/18/88 229/1/88 230/4/88 238/19/88
f 229/17/13 237/16/13 235/15/13 233/14/13 231/13/13
f 239/1/89 240/4/89 242/3/89 241/2/89
f 241/5/90 242/8/90 244/7/90 243/6/90
f 243/9/72 244/12/72 246/11/72 245/10/72
f 242/13/8 240/17/8 248/16/8 246/15/8 244/14/8
f 245/6/91 246/7/91 248/8/91 247/5/91
f 247/18/92 248/19/92 240/4/92 239/1/92
f 239/17/13 241/13/13 243/14/13 245/15/13 247/16/13
