# Blender 4.5.9 LTS
# www.blender.org
mtllib Pipe_011.mtl
o Pipe_011
v -0.016125 0.031626 0.172863
v -0.016125 -0.000610 0.172863
v -0.004987 0.031626 0.157534
v -0.004987 -0.000610 0.157534
v 0.013033 0.031626 0.163389
v 0.013033 -0.000610 0.163389
v 0.013033 0.031626 0.182337
v 0.013033 -0.000610 0.182337
v -0.004987 0.031626 0.188192
v -0.004987 -0.000610 0.188192
v -0.016125 0.031626 -0.172865
v -0.016125 -0.000610 -0.172865
v -0.004987 0.031626 -0.157535
v -0.004987 -0.000610 -0.157535
v 0.013033 0.031626 -0.163391
v 0.013033 -0.000610 -0.163391
v 0.013033 0.031626 -0.182339
v 0.013033 -0.000610 -0.182339
v -0.004987 0.031626 -0.188194
v -0.004987 -0.000610 -0.188194
v -0.152041 0.001997 -0.000001
v -0.107509 0.001997 -0.107511
v 0.000000 0.001997 -0.152043
v 0.107510 0.001997 -0.107511
v 0.152042 0.001997 -0.000001
v 0.107510 0.001997 0.107508
v 0.000000 0.001997 0.152040
v -0.107509 0.001997 0.107508
v -0.197769 -0.035328 -0.000001
v -0.139843 -0.035328 -0.139845
v 0.000000 -0.035328 -0.197770
v 0.139844 -0.035328 -0.139845
v 0.197769 -0.035328 -0.000001
v 0.139844 -0.035328 0.139842
v 0.000000 -0.035328 0.197767
v -0.139843 -0.035328 0.139842
v 0.155671 0.031626 0.000015
v 0.155671 -0.000610 0.000015
v 0.166808 0.031626 -0.015314
v 0.166808 -0.000610 -0.015314
v 0.184828 0.031626 -0.009459
v 0.184828 -0.000610 -0.009459
v 0.184828 0.031626 0.009489
v 0.184828 -0.000610 0.009489
v 0.166808 0.031626 0.015344
v 0.166808 -0.000610 0.015344
v -0.155670 0.031626 0.000015
v -0.155670 -0.000610 0.000015
v -0.166807 0.031626 -0.015314
v -0.166807 -0.000610 -0.015314
v -0.184828 0.031626 -0.009459
v -0.184828 -0.000610 -0.009459
v -0.184828 0.031626 0.009489
v -0.184828 -0.000610 0.009489
v -0.166807 0.031626 0.015344
v -0.166807 -0.000610 0.015344
v -0.133627 0.031626 0.110834
v -0.133627 -0.000610 0.110834
v -0.114912 0.031626 0.107870
v -0.114912 -0.000610 0.107870
v -0.106310 0.031626 0.124753
v -0.106310 -0.000610 0.124753
v -0.119708 0.031626 0.138151
v -0.119708 -0.000610 0.138151
v -0.136591 0.031626 0.129549
v -0.136591 -0.000610 0.129549
v 0.110839 0.031626 -0.133632
v 0.110839 -0.000610 -0.133632
v 0.107875 0.031626 -0.114917
v 0.107875 -0.000610 -0.114917
v 0.124758 0.031626 -0.106315
v 0.124758 -0.000610 -0.106315
v 0.138156 0.031626 -0.119713
v 0.138156 -0.000610 -0.119713
v 0.129554 0.031626 -0.136596
v 0.129554 -0.000610 -0.136596
v 0.110073 0.031626 0.110090
v 0.110073 -0.000610 0.110090
v 0.128787 0.031626 0.107126
v 0.128787 -0.000610 0.107126
v 0.137389 0.031626 0.124009
v 0.137389 -0.000610 0.124009
v 0.123991 0.031626 0.137407
v 0.123991 -0.000610 0.137407
v 0.107108 0.031626 0.128805
v 0.107108 -0.000610 0.128805
v -0.110078 0.031626 -0.110061
v -0.110078 -0.000610 -0.110061
v -0.107114 0.031626 -0.128776
v -0.107114 -0.000610 -0.128776
v -0.123997 0.031626 -0.137378
v -0.123997 -0.000610 -0.137378
v -0.137395 0.031626 -0.123979
v -0.137395 -0.000610 -0.123979
v -0.128793 0.031626 -0.107097
v -0.128793 -0.000610 -0.107097
v -0.139843 0.001997 0.139842
v -0.197769 0.001997 -0.000001
v 0.000000 0.001997 0.197768
v 0.139844 0.001997 0.139842
v 0.197769 0.001997 -0.000001
v 0.139844 0.001997 -0.139845
v 0.000000 0.001997 -0.197770
v -0.139843 0.001997 -0.139845
v -0.094405 0.033711 0.094405
v -0.133510 0.033711 -0.000001
v 0.000001 0.033711 0.133509
v 0.094407 0.033711 0.094405
v 0.133512 0.033711 -0.000001
v 0.094407 0.033711 -0.094408
v 0.000001 0.033711 -0.133512
v -0.094405 0.033711 -0.094408
v -0.059755 0.059305 0.059757
v -0.084508 0.059305 -0.000001
v 0.000003 0.059305 0.084510
v 0.059762 0.059305 0.059757
v 0.084515 0.059305 -0.000001
v 0.059762 0.059305 -0.059760
v 0.000003 0.059305 -0.084513
v -0.059755 0.059305 -0.059760
vn -0.8090 -0.0000 -0.5878
vn 0.3090 -0.0000 -0.9511
vn 1.0000 -0.0000 -0.0000
vn -0.0000 -1.0000 -0.0000
vn 0.3090 -0.0000 0.9511
vn -0.8090 -0.0000 0.5878
vn -0.0000 1.0000 -0.0000
vn -0.0000 0.5045 0.8634
vn 0.6105 0.5045 0.6105
vn 0.5111 0.6911 0.5111
vn -0.0000 0.6911 0.7228
vn -0.0000 -0.0000 -1.0000
vn 0.7071 -0.0000 -0.7071
vn -0.7071 -0.0000 -0.7071
vn -1.0000 -0.0000 -0.0000
vn -0.7071 -0.0000 0.7071
vn -0.0000 -0.0000 1.0000
vn 0.7071 -0.0000 0.7071
vn 0.8090 -0.0000 -0.5878
vn -0.3090 -0.0000 -0.9511
vn -0.3090 -0.0000 0.9511
vn 0.8090 -0.0000 0.5878
vn -0.1564 -0.0000 -0.9877
vn 0.8910 -0.0000 -0.4540
vn -0.4540 -0.0000 0.8910
vn -0.9877 -0.0000 -0.1564
vn 0.9877 -0.0000 0.1564
vn 0.4540 -0.0000 -0.8910
vn -0.8910 -0.0000 0.4540
vn 0.1564 -0.0000 0.9877
vn -0.0000 0.6911 -0.7228
vn -0.5111 0.6911 -0.5111
vn -0.2070 0.9562 -0.2070
vn -0.0000 0.9562 -0.2928
vn -0.8634 0.5045 -0.0000
vn -0.6105 0.5045 0.6105
vn -0.5111 0.6911 0.5111
vn -0.7227 0.6911 -0.0000
vn -0.6105 0.5045 -0.6105
vn 0.6105 0.5045 -0.6105
vn -0.0000 0.5045 -0.8634
vn 0.5111 0.6911 -0.5111
vn 0.8634 0.5045 -0.0000
vn 0.7228 0.6911 -0.0000
vn -0.2928 0.9562 -0.0000
vn -0.2070 0.9562 0.2070
vn -0.0000 0.9562 0.2928
vn 0.2070 0.9562 0.2070
vn 0.2928 0.9562 -0.0000
vn 0.2070 0.9562 -0.2070
vt 0.735827 0.673934
vt 0.757351 0.673934
vt 0.757351 0.719199
vt 0.735827 0.719199
vt 0.740659 0.673934
vt 0.715356 0.673934
vt 0.715356 0.719199
vt 0.740659 0.719199
vt 0.749130 0.673934
vt 0.722524 0.673934
vt 0.722524 0.719199
vt 0.749130 0.719199
vt 0.757351 0.701399
vt 0.749130 0.676095
vt 0.722524 0.676095
vt 0.714302 0.701399
vt 0.735827 0.717037
vt 0.714302 0.673934
vt 0.714302 0.719199
vt 0.080316 0.728044
vt 0.191383 0.723709
vt 0.179842 0.757122
vt 0.095729 0.759139
vt 0.807508 0.109224
vt 0.807508 0.211552
vt 0.780196 0.211552
vt 0.780196 0.109224
vt 0.807508 0.006897
vt 0.780196 0.006897
vt 0.807508 0.109224
vt 0.807508 0.327673
vt 0.807508 0.225346
vt 0.780196 0.225346
vt 0.780196 0.327673
vt 0.807508 0.430000
vt 0.780196 0.430000
vt 0.807508 0.327673
vt 0.085026 0.728151
vt 0.194793 0.728151
vt 0.272410 0.805768
vt 0.272410 0.915534
vt 0.194793 0.993151
vt 0.085026 0.993151
vt 0.007409 0.915534
vt 0.007409 0.805767
vt 0.100090 0.957191
vt 0.181098 0.957191
vt 0.195973 0.993103
vt 0.085215 0.993103
vt 0.042809 0.899910
vt 0.006897 0.914785
vt 0.042809 0.818902
vt 0.006897 0.804027
vt 0.100090 0.761621
vt 0.085215 0.725709
vt 0.181098 0.761621
vt 0.195973 0.725709
vt 0.238379 0.818902
vt 0.274291 0.804027
vt 0.238379 0.899910
vt 0.274291 0.914785
vt 0.182416 0.960243
vt 0.098933 0.960241
vt 0.116347 0.919531
vt 0.166187 0.918897
vt 0.008825 0.915694
vt 0.006088 0.808491
vt 0.038296 0.819658
vt 0.038814 0.902766
vt 0.084903 0.991315
vt 0.273984 0.915236
vt 0.194366 0.992834
vt 0.241770 0.900643
vt 0.273984 0.801630
vt 0.239880 0.816340
vt 0.080135 0.884941
vt 0.079761 0.834933
vt 0.114514 0.799372
vt 0.164251 0.799192
vt 0.199659 0.833715
vt 0.200589 0.883049
s 1
usemtl Pipes
f 1/1/1 3/2/1 4/3/1 2/4/1
f 3/5/2 5/6/2 6/7/2 4/8/2
f 5/9/3 7/10/3 8/11/3 6/12/3
f 4/13/4 6/14/4 8/15/4 10/16/4 2/17/4
f 7/6/5 9/5/5 10/8/5 8/7/5
f 9/18/6 1/1/6 2/4/6 10/19/6
f 1/17/7 9/16/7 7/15/7 5/14/7 3/13/7
f 11/1/6 12/4/6 14/3/6 13/2/6
f 13/5/5 14/8/5 16/7/5 15/6/5
f 15/9/3 16/12/3 18/11/3 17/10/3
f 14/13/4 12/17/4 20/16/4 18/15/4 16/14/4
f 17/6/2 18/7/2 20/8/2 19/5/2
f 19/18/1 20/19/1 12/4/1 11/1/1
f 11/17/7 13/13/7 15/14/7 17/15/7 19/16/7
f 27/20/8 26/21/9 108/22/10 107/23/11
f 103/24/12 102/25/13 32/26/13 31/27/12
f 104/28/14 103/24/12 31/27/12 30/29/14
f 98/30/15 104/28/14 30/29/14 29/27/15
f 97/25/16 98/30/15 29/27/15 36/26/16
f 99/31/17 97/32/16 36/33/16 35/34/17
f 100/35/18 99/31/17 35/34/17 34/36/18
f 101/37/3 100/35/18 34/36/18 33/34/3
f 102/32/13 101/37/3 33/34/3 32/33/13
f 37/1/1 39/2/1 40/3/1 38/4/1
f 39/5/2 41/6/2 42/7/2 40/8/2
f 41/9/3 43/10/3 44/11/3 42/12/3
f 40/13/4 42/14/4 44/15/4 46/16/4 38/17/4
f 43/6/5 45/5/5 46/8/5 44/7/5
f 45/18/6 37/1/6 38/4/6 46/19/6
f 37/17/7 45/16/7 43/15/7 41/14/7 39/13/7
f 47/1/19 48/4/19 50/3/19 49/2/19
f 49/5/20 50/8/20 52/7/20 51/6/20
f 51/9/15 52/12/15 54/11/15 53/10/15
f 50/13/4 48/17/4 56/16/4 54/15/4 52/14/4
f 53/6/21 54/7/21 56/8/21 55/5/21
f 55/18/22 56/19/22 48/4/22 47/1/22
f 47/17/7 49/13/7 51/14/7 53/15/7 55/16/7
f 57/1/23 59/2/23 60/3/23 58/4/23
f 59/5/24 61/6/24 62/7/24 60/8/24
f 61/9/18 63/10/18 64/11/18 62/12/18
f 60/13/4 62/14/4 64/15/4 66/16/4 58/17/4
f 63/6/25 65/5/25 66/8/25 64/7/25
f 65/18/26 57/1/26 58/4/26 66/19/26
f 57/17/7 65/16/7 63/15/7 61/14/7 59/13/7
f 67/1/26 68/4/26 70/3/26 69/2/26
f 69/5/25 70/8/25 72/7/25 71/6/25
f 71/9/18 72/12/18 74/11/18 73/10/18
f 70/13/4 68/17/4 76/16/4 74/15/4 72/14/4
f 73/6/24 74/7/24 76/8/24 75/5/24
f 75/18/23 76/19/23 68/4/23 67/1/23
f 67/17/7 69/13/7 71/14/7 73/15/7 75/16/7
f 77/1/23 79/2/23 80/3/23 78/4/23
f 79/5/24 81/6/24 82/7/24 80/8/24
f 81/9/18 83/10/18 84/11/18 82/12/18
f 80/13/4 82/14/4 84/15/4 86/16/4 78/17/4
f 83/6/25 85/5/25 86/8/25 84/7/25
f 85/18/26 77/1/26 78/4/26 86/19/26
f 77/17/7 85/16/7 83/15/7 81/14/7 79/13/7
f 87/1/27 88/4/27 90/3/27 89/2/27
f 89/5/28 90/8/28 92/7/28 91/6/28
f 91/9/14 92/12/14 94/11/14 93/10/14
f 90/13/4 88/17/4 96/16/4 94/15/4 92/14/4
f 93/6/29 94/7/29 96/8/29 95/5/29
f 95/18/30 96/19/30 88/4/30 87/1/30
f 87/17/7 89/13/7 91/14/7 93/15/7 95/16/7
f 36/38/4 29/39/4 30/40/4 31/41/4 32/42/4 33/43/4 34/44/4 35/45/4
f 28/46/7 21/47/7 98/48/7 97/49/7
f 27/50/7 28/46/7 97/49/7 99/51/7
f 26/52/7 27/50/7 99/51/7 100/53/7
f 25/54/7 26/52/7 100/53/7 101/55/7
f 24/56/7 25/54/7 101/55/7 102/57/7
f 23/58/7 24/56/7 102/57/7 103/59/7
f 22/60/7 23/58/7 103/59/7 104/61/7
f 21/47/7 22/60/7 104/61/7 98/48/7
f 111/62/31 112/63/32 120/64/33 119/65/34
f 21/66/35 28/67/36 105/68/37 106/69/38
f 22/70/39 21/66/35 106/69/38 112/63/32
f 24/71/40 23/72/41 111/62/31 110/73/42
f 26/21/9 25/74/43 109/75/44 108/22/10
f 28/67/36 27/20/8 107/23/11 105/68/37
f 23/72/41 22/70/39 112/63/32 111/62/31
f 25/74/43 24/71/40 110/73/42 109/75/44
f 114/76/45 113/77/46 115/78/47 116/79/48 117/80/49 118/81/50 119/65/34 120/64/33
f 109/75/44 110/73/42 118/81/50 117/80/49
f 107/23/11 108/22/10 116/79/48 115/78/47
f 106/69/38 105/68/37 113/77/46 114/76/45
f 112/63/32 106/69/38 114/76/45 120/64/33
f 110/73/42 111/62/31 119/65/34 118/81/50
f 108/22/10 109/75/44 117/80/49 116/79/48
f 105/68/37 107/23/11 115/78/47 113/77/46
