# Blender 4.5.9 LTS
# www.blender.org
mtllib Pipe_009.mtl
o Pipe_009
v -0.016224 -0.102838 -0.322077
v -0.016224 -0.079911 -0.345004
v -0.005022 -0.091936 -0.311174
v -0.005022 -0.069008 -0.334102
v 0.013104 -0.096100 -0.315339
v 0.013104 -0.073173 -0.338266
v 0.013104 -0.109577 -0.328815
v 0.013104 -0.086649 -0.351743
v -0.005022 -0.113741 -0.332980
v -0.005022 -0.090814 -0.355907
v -0.016224 0.143054 -0.076185
v -0.016224 0.165981 -0.099112
v -0.005022 0.132151 -0.087087
v -0.005022 0.155079 -0.110015
v 0.013104 0.136316 -0.082923
v 0.013104 0.159243 -0.105850
v 0.013104 0.149792 -0.069446
v 0.013104 0.172720 -0.092374
v -0.005022 0.153957 -0.065282
v -0.005022 0.176884 -0.088209
v -0.152139 0.041181 -0.220203
v -0.107580 0.117248 -0.144136
v -0.000005 0.148756 -0.112628
v 0.107570 0.117248 -0.144136
v 0.152129 0.041181 -0.220203
v 0.107570 -0.034886 -0.296270
v -0.000005 -0.066394 -0.327778
v -0.107580 -0.034886 -0.296270
v -0.198928 0.041181 -0.220203
v -0.140664 0.140642 -0.120742
v -0.000005 0.181841 -0.079544
v 0.140655 0.140642 -0.120742
v 0.198918 0.041181 -0.220203
v 0.140655 -0.058280 -0.319665
v -0.000005 -0.099479 -0.360863
v -0.140664 -0.058280 -0.319665
v -0.198928 0.067728 -0.246750
v -0.140664 0.167189 -0.147289
v -0.000005 0.208388 -0.106090
v 0.140655 0.167189 -0.147289
v 0.198918 0.067728 -0.246750
v 0.140655 -0.031733 -0.346212
v -0.000005 -0.072932 -0.387410
v -0.140664 -0.031733 -0.346212
v -0.152139 -0.089323 -0.089699
v -0.107580 -0.013256 -0.013632
v -0.000005 0.018252 0.017876
v 0.107570 -0.013256 -0.013632
v 0.152129 -0.089323 -0.089699
v 0.107570 -0.165390 -0.165766
v -0.000005 -0.196898 -0.197274
v -0.107580 -0.165390 -0.165766
v 0.156574 0.020096 -0.199142
v 0.156574 0.043024 -0.222070
v 0.167776 0.030999 -0.188240
v 0.167776 0.053926 -0.211167
v 0.185902 0.026835 -0.192404
v 0.185902 0.049762 -0.215331
v 0.185902 0.013358 -0.205880
v 0.185902 0.036286 -0.228808
v 0.167776 0.009194 -0.210045
v 0.167776 0.032121 -0.232972
v -0.156583 0.020096 -0.199142
v -0.156583 0.043024 -0.222070
v -0.167786 0.030999 -0.188240
v -0.167785 0.053926 -0.211167
v -0.185911 0.026835 -0.192404
v -0.185911 0.049762 -0.215331
v -0.185911 0.013358 -0.205880
v -0.185911 0.036286 -0.228808
v -0.167786 0.009194 -0.210045
v -0.167786 0.032121 -0.232972
v -0.134411 -0.058722 -0.277960
v -0.134411 -0.035795 -0.300887
v -0.115588 -0.056614 -0.275852
v -0.115588 -0.033687 -0.298779
v -0.106935 -0.068621 -0.287859
v -0.106935 -0.045694 -0.310787
v -0.120412 -0.078151 -0.297389
v -0.120412 -0.055223 -0.320316
v -0.137393 -0.072032 -0.291270
v -0.137393 -0.049105 -0.314198
v 0.111481 0.115150 -0.104088
v 0.111481 0.138077 -0.127015
v 0.108500 0.101840 -0.117398
v 0.108500 0.124767 -0.140326
v 0.125481 0.095721 -0.123516
v 0.125481 0.118649 -0.146444
v 0.138957 0.105251 -0.113987
v 0.138957 0.128178 -0.136915
v 0.130305 0.117258 -0.101980
v 0.130305 0.140186 -0.124907
v 0.110710 -0.058193 -0.277431
v 0.110710 -0.035265 -0.300358
v 0.129533 -0.056085 -0.275323
v 0.129533 -0.033157 -0.298250
v 0.138186 -0.068092 -0.287330
v 0.138186 -0.045165 -0.310257
v 0.124709 -0.077621 -0.296859
v 0.124709 -0.054694 -0.319787
v 0.107728 -0.071503 -0.290741
v 0.107728 -0.048576 -0.313669
v -0.110726 0.098386 -0.120852
v -0.110726 0.121313 -0.143780
v -0.107744 0.111696 -0.107542
v -0.107744 0.134624 -0.130469
v -0.124725 0.117814 -0.101424
v -0.124725 0.140742 -0.124351
v -0.138202 0.108285 -0.110953
v -0.138202 0.131213 -0.133880
v -0.129549 0.096278 -0.122960
v -0.129549 0.119205 -0.145888
v -0.152125 -0.089324 -0.089700
v -0.107566 -0.013257 -0.013633
v 0.000009 0.018251 0.017875
v 0.107584 -0.013257 -0.013633
v 0.152143 -0.089324 -0.089700
v 0.107584 -0.165391 -0.165767
v 0.000009 -0.196899 -0.197275
v -0.107566 -0.165391 -0.165767
v -0.152118 -0.146288 -0.005247
v -0.107559 -0.046902 0.035920
v 0.000016 -0.005734 0.052972
v 0.107591 -0.046902 0.035920
v 0.152150 -0.146288 -0.005247
v 0.107591 -0.245674 -0.046414
v 0.000016 -0.286841 -0.063466
v -0.107559 -0.245674 -0.046414
v -0.152125 -0.166597 0.094576
v -0.107566 -0.059022 0.094576
v 0.000009 -0.014463 0.094576
v 0.107584 -0.059022 0.094576
v 0.152143 -0.166597 0.094576
v 0.107584 -0.274172 0.094576
v 0.000009 -0.318731 0.094576
v -0.107566 -0.274172 0.094576
v -0.016224 0.007276 0.249335
v -0.016224 0.007276 0.281759
v -0.005021 -0.008143 0.249335
v -0.005021 -0.008143 0.281759
v 0.013104 -0.002254 0.249335
v 0.013104 -0.002254 0.281759
v 0.013104 0.016805 0.249335
v 0.013104 0.016805 0.281759
v -0.005021 0.022694 0.249335
v -0.005021 0.022694 0.281759
v -0.016224 -0.340469 0.249335
v -0.016224 -0.340469 0.281759
v -0.005021 -0.325050 0.249335
v -0.005021 -0.325050 0.281759
v 0.013104 -0.330939 0.249335
v 0.013104 -0.330939 0.281759
v 0.013104 -0.349998 0.249335
v 0.013104 -0.349998 0.281759
v -0.005021 -0.355887 0.249335
v -0.005021 -0.355887 0.281759
v -0.152138 -0.166597 0.279137
v -0.107579 -0.274172 0.279137
v -0.000005 -0.318731 0.279137
v 0.107570 -0.274172 0.279137
v 0.152129 -0.166597 0.279137
v 0.107570 -0.059022 0.279137
v -0.000005 -0.014463 0.279137
v -0.107579 -0.059022 0.279137
v -0.198927 -0.166597 0.279137
v -0.140664 -0.307257 0.279137
v -0.000005 -0.365520 0.279137
v 0.140655 -0.307257 0.279137
v 0.198918 -0.166597 0.279137
v 0.140655 -0.025938 0.279137
v -0.000005 0.032326 0.279137
v -0.140664 -0.025937 0.279137
v -0.198927 -0.166597 0.316680
v -0.140664 -0.307257 0.316680
v -0.000005 -0.365520 0.316680
v 0.140655 -0.307257 0.316680
v 0.198918 -0.166597 0.316680
v 0.140655 -0.025938 0.316680
v -0.000005 0.032326 0.316680
v -0.140664 -0.025938 0.316680
v 0.156574 -0.166580 0.249335
v 0.156574 -0.166580 0.281759
v 0.167776 -0.181999 0.249335
v 0.167776 -0.181999 0.281759
v 0.185902 -0.176110 0.249335
v 0.185902 -0.176110 0.281759
v 0.185902 -0.157051 0.249335
v 0.185902 -0.157051 0.281759
v 0.167776 -0.151162 0.249335
v 0.167776 -0.151162 0.281759
v -0.156583 -0.166580 0.249335
v -0.156583 -0.166580 0.281760
v -0.167785 -0.181999 0.249335
v -0.167785 -0.181999 0.281760
v -0.185911 -0.176110 0.249335
v -0.185911 -0.176110 0.281760
v -0.185911 -0.157051 0.249335
v -0.185911 -0.157051 0.281760
v -0.167785 -0.151162 0.249335
v -0.167785 -0.151162 0.281760
v -0.134411 -0.055115 0.249335
v -0.134411 -0.055115 0.281759
v -0.115588 -0.058096 0.249335
v -0.115588 -0.058096 0.281759
v -0.106935 -0.041115 0.249335
v -0.106935 -0.041115 0.281759
v -0.120412 -0.027639 0.249335
v -0.120412 -0.027639 0.281759
v -0.137393 -0.036291 0.249335
v -0.137393 -0.036291 0.281759
v 0.111481 -0.301007 0.249335
v 0.111481 -0.301007 0.281759
v 0.108500 -0.282183 0.249335
v 0.108500 -0.282183 0.281759
v 0.125481 -0.273531 0.249335
v 0.125481 -0.273531 0.281759
v 0.138957 -0.287007 0.249335
v 0.138957 -0.287007 0.281759
v 0.130305 -0.303989 0.249335
v 0.130305 -0.303989 0.281759
v 0.110710 -0.055863 0.249335
v 0.110710 -0.055863 0.281759
v 0.129534 -0.058845 0.249335
v 0.129534 -0.058845 0.281759
v 0.138186 -0.041863 0.249335
v 0.138186 -0.041863 0.281759
v 0.124710 -0.028387 0.249335
v 0.124710 -0.028387 0.281759
v 0.107728 -0.037039 0.249335
v 0.107728 -0.037039 0.281759
v -0.110726 -0.277299 0.249335
v -0.110726 -0.277299 0.281759
v -0.107744 -0.296122 0.249335
v -0.107744 -0.296122 0.281759
v -0.124725 -0.304775 0.249335
v -0.124725 -0.304775 0.281759
v -0.138202 -0.291298 0.249335
v -0.138202 -0.291298 0.281759
v -0.129549 -0.274317 0.249335
v -0.129549 -0.274317 0.281759
vn -0.8090 0.4156 0.4156
vn 0.3090 0.6725 0.6725
vn 1.0000 -0.0000 -0.0000
vn -0.0000 0.7071 -0.7071
vn 0.3090 -0.6725 -0.6725
vn -0.8090 -0.4156 -0.4156
vn -0.0000 -0.7071 0.7071
vn -0.0000 0.7071 0.7071
vn 0.7071 0.5000 0.5000
vn -0.7071 0.5000 0.5000
vn -1.0000 -0.0000 -0.0000
vn -0.7071 -0.5000 -0.5000
vn -0.0000 -0.7071 -0.7071
vn 0.7071 -0.5000 -0.5000
vn 0.8090 0.4156 0.4156
vn -0.3090 0.6725 0.6725
vn -0.3090 -0.6725 -0.6725
vn 0.8090 -0.4156 -0.4156
vn -0.1564 0.6984 0.6984
vn 0.8910 0.3210 0.3210
vn -0.4540 -0.6300 -0.6300
vn -0.9877 0.1106 0.1106
vn 0.9877 -0.1106 -0.1106
vn 0.4540 0.6300 0.6300
vn -0.8910 -0.3210 -0.3210
vn 0.1564 -0.6984 -0.6984
vn -0.7243 0.5703 0.3875
vn -0.9989 -0.0397 -0.0262
vn -0.9989 -0.0441 -0.0183
vn -0.7317 0.6277 0.2656
vn 0.7242 0.5704 0.3874
vn -0.0000 0.8266 0.5628
vn -0.0000 0.9203 0.3911
vn 0.7317 0.6277 0.2656
vn 0.6774 -0.6104 -0.4106
vn 0.9989 -0.0396 -0.0263
vn 0.9989 -0.0441 -0.0183
vn 0.6841 -0.6730 -0.2812
vn -0.6774 -0.6104 -0.4106
vn -0.0000 -0.8298 -0.5580
vn -0.0000 -0.9228 -0.3852
vn -0.6840 -0.6730 -0.2812
vn 0.6940 -0.7163 -0.0719
vn -0.0000 -0.9953 -0.0971
vn -0.6940 -0.7163 -0.0719
vn -0.9997 -0.0244 -0.0048
vn -0.7185 0.6918 0.0710
vn -0.0000 0.9945 0.1050
vn 0.7185 0.6918 0.0711
vn 0.9997 -0.0244 -0.0047
vn -0.8090 -0.5878 -0.0000
vn 0.3090 -0.9511 -0.0000
vn -0.0000 -0.0000 1.0000
vn 0.3090 0.9511 -0.0000
vn -0.8090 0.5878 -0.0000
vn -0.0000 -0.0000 -1.0000
vn -0.0000 -1.0000 -0.0000
vn 0.7071 -0.7071 -0.0000
vn -0.7071 -0.7071 -0.0000
vn -0.7071 0.7071 -0.0000
vn -0.0000 1.0000 -0.0000
vn 0.7071 0.7071 -0.0000
vn -0.7071 0.7071 -0.0001
vn -1.0000 -0.0000 -0.0001
vn 0.7071 0.7071 0.0001
vn 1.0000 -0.0000 0.0001
vn 0.7071 -0.7071 0.0001
vn -0.7071 -0.7071 -0.0001
vn 0.8090 -0.5878 -0.0000
vn -0.3090 -0.9511 -0.0000
vn -0.3090 0.9511 -0.0000
vn 0.8090 0.5878 -0.0000
vn -0.1564 -0.9877 -0.0000
vn 0.8910 -0.4540 -0.0000
vn -0.4540 0.8910 -0.0000
vn -0.9877 -0.1564 -0.0000
vn 0.9877 0.1564 -0.0000
vn 0.4540 -0.8910 -0.0000
vn -0.8910 0.4540 -0.0000
vn 0.1564 0.9877 -0.0000
vt 0.735827 0.673934
vt 0.757351 0.673934
vt 0.757351 0.719199
vt 0.735827 0.719199
vt 0.740659 0.673934
vt 0.715356 0.673934
vt 0.715356 0.719199
vt 0.740659 0.719199
vt 0.749130 0.673934
vt 0.722524 0.673934
vt 0.722524 0.719199
vt 0.749130 0.719199
vt 0.757351 0.701399
vt 0.749130 0.676095
vt 0.722524 0.676095
vt 0.714302 0.701399
vt 0.735827 0.717037
vt 0.714302 0.673934
vt 0.714302 0.719199
vt 0.038344 0.901759
vt 0.098241 0.961656
vt 0.085215 0.993103
vt 0.006897 0.914785
vt 0.038344 0.817053
vt 0.006897 0.804027
vt 0.098241 0.757156
vt 0.085215 0.725709
vt 0.182947 0.757156
vt 0.195973 0.725709
vt 0.242844 0.817053
vt 0.274291 0.804027
vt 0.242844 0.901759
vt 0.274291 0.914785
vt 0.182947 0.961656
vt 0.195973 0.993103
vt 0.807508 0.109224
vt 0.807508 0.211552
vt 0.780196 0.211552
vt 0.780196 0.109224
vt 0.807508 0.006897
vt 0.780196 0.006897
vt 0.807508 0.109224
vt 0.807508 0.327673
vt 0.807508 0.225346
vt 0.780196 0.225346
vt 0.780196 0.327673
vt 0.807508 0.430000
vt 0.780196 0.430000
vt 0.807508 0.327673
vt 0.425838 0.993103
vt 0.536596 0.993103
vt 0.614914 0.914785
vt 0.614914 0.804026
vt 0.536596 0.725709
vt 0.425838 0.725709
vt 0.347520 0.804027
vt 0.347520 0.914785
vt 0.504037 0.121644
vt 0.504037 0.266760
vt 0.425779 0.266760
vt 0.425779 0.121644
vt 0.597750 0.602809
vt 0.597750 0.431358
vt 0.522435 0.431358
vt 0.522435 0.602809
vt 0.673065 0.602809
vt 0.673065 0.431358
vt 0.255467 0.266760
vt 0.255467 0.121644
vt 0.333726 0.121644
vt 0.333726 0.266760
vt 0.177209 0.266760
vt 0.177209 0.121644
vt 0.083412 0.264650
vt 0.083412 0.119534
vt 0.161670 0.119534
vt 0.161670 0.264650
vt 0.005153 0.264650
vt 0.005153 0.119534
vt 0.347520 0.266760
vt 0.347520 0.121644
vt 0.348160 0.203693
vt 0.424659 0.203693
vt 0.424659 0.285641
vt 0.348160 0.285641
vt 0.085072 0.138114
vt 0.085072 0.242508
vt 0.124948 0.242508
vt 0.124948 0.138114
vt 0.332648 0.182649
vt 0.251401 0.182649
vt 0.251401 0.272159
vt 0.332648 0.272159
vt 0.673981 0.209520
vt 0.593912 0.209520
vt 0.593912 0.308250
vt 0.673981 0.308250
vt 0.085072 0.346901
vt 0.124948 0.346901
vt 0.170154 0.182649
vt 0.170154 0.272159
vt 0.513842 0.209520
vt 0.513842 0.308250
vt 0.501158 0.203693
vt 0.501158 0.285641
vt 0.513842 0.406981
vt 0.593912 0.406981
vt 0.501158 0.367589
vt 0.424659 0.367589
vt 0.348160 0.367589
vt 0.164824 0.242508
vt 0.164824 0.138114
vt 0.251401 0.361669
vt 0.332648 0.361669
vt 0.673981 0.406981
vt 0.164824 0.346901
vt 0.170154 0.361669
vt 0.347520 0.105740
vt 0.347520 0.260563
vt 0.425779 0.260563
vt 0.425779 0.105740
vt 0.085156 0.105740
vt 0.085156 0.260563
vt 0.163414 0.260563
vt 0.163414 0.105740
vt 0.006897 0.105740
vt 0.006897 0.260563
vt 0.255467 0.105740
vt 0.255467 0.260563
vt 0.177209 0.260563
vt 0.177209 0.105740
vt 0.333726 0.105740
vt 0.333726 0.260563
vt 0.596090 0.105740
vt 0.596090 0.260563
vt 0.517832 0.260563
vt 0.517832 0.105740
vt 0.674349 0.105740
vt 0.674349 0.260563
vt 0.504037 0.260563
vt 0.504037 0.105740
s 0
usemtl Pipes
f 1/1/1 3/2/1 4/3/1 2/4/1
f 3/5/2 5/6/2 6/7/2 4/8/2
f 5/9/3 7/10/3 8/11/3 6/12/3
f 4/13/4 6/14/4 8/15/4 10/16/4 2/17/4
f 7/6/5 9/5/5 10/8/5 8/7/5
f 9/18/6 1/1/6 2/4/6 10/19/6
f 1/17/7 9/16/7 7/15/7 5/14/7 3/13/7
f 11/1/6 12/4/6 14/3/6 13/2/6
f 13/5/5 14/8/5 16/7/5 15/6/5
f 15/9/3 16/12/3 18/11/3 17/10/3
f 14/13/4 12/17/4 20/16/4 18/15/4 16/14/4
f 17/6/2 18/7/2 20/8/2 19/5/2
f 19/18/1 20/19/1 12/4/1 11/1/1
f 11/17/7 13/13/7 15/14/7 17/15/7 19/16/7
s 1
f 27/20/7 28/21/7 36/22/7 35/23/7
f 26/24/7 27/20/7 35/23/7 34/25/7
f 25/26/7 26/24/7 34/25/7 33/27/7
f 24/28/7 25/26/7 33/27/7 32/29/7
f 23/30/7 24/28/7 32/29/7 31/31/7
f 22/32/7 23/30/7 31/31/7 30/33/7
f 21/34/7 22/32/7 30/33/7 29/35/7
f 28/21/7 21/34/7 29/35/7 36/22/7
f 31/36/8 32/37/9 40/38/9 39/39/8
f 30/40/10 31/36/8 39/39/8 38/41/10
f 29/42/11 30/40/10 38/41/10 37/39/11
f 36/37/12 29/42/11 37/39/11 44/38/12
f 35/43/13 36/44/12 44/45/12 43/46/13
f 34/47/14 35/43/13 43/46/13 42/48/14
f 33/49/3 34/47/14 42/48/14 41/46/3
f 32/44/9 33/49/3 41/46/3 40/45/9
f 44/50/4 37/51/4 38/52/4 39/53/4 40/54/4 41/55/4 42/56/4 43/57/4
f 28/58/12 52/59/12 45/60/11 21/61/11
f 27/62/13 51/63/13 52/64/12 28/65/12
f 26/66/14 50/67/14 51/63/13 27/62/13
f 25/68/3 49/69/3 50/70/14 26/71/14
f 24/72/9 48/73/9 49/69/3 25/68/3
f 23/74/8 47/75/8 48/76/9 24/77/9
f 22/78/10 46/79/10 47/75/8 23/74/8
f 21/61/11 45/60/11 46/80/10 22/81/10
s 0
f 53/1/1 55/2/1 56/3/1 54/4/1
f 55/5/2 57/6/2 58/7/2 56/8/2
f 57/9/3 59/10/3 60/11/3 58/12/3
f 56/13/4 58/14/4 60/15/4 62/16/4 54/17/4
f 59/6/5 61/5/5 62/8/5 60/7/5
f 61/18/6 53/1/6 54/4/6 62/19/6
f 53/17/7 61/16/7 59/15/7 57/14/7 55/13/7
f 63/1/15 64/4/15 66/3/15 65/2/15
f 65/5/16 66/8/16 68/7/16 67/6/16
f 67/9/11 68/12/11 70/11/11 69/10/11
f 66/13/4 64/17/4 72/16/4 70/15/4 68/14/4
f 69/6/17 70/7/17 72/8/17 71/5/17
f 71/18/18 72/19/18 64/4/18 63/1/18
f 63/17/7 65/13/7 67/14/7 69/15/7 71/16/7
f 73/1/19 75/2/19 76/3/19 74/4/19
f 75/5/20 77/6/20 78/7/20 76/8/20
f 77/9/14 79/10/14 80/11/14 78/12/14
f 76/13/4 78/14/4 80/15/4 82/16/4 74/17/4
f 79/6/21 81/5/21 82/8/21 80/7/21
f 81/18/22 73/1/22 74/4/22 82/19/22
f 73/17/7 81/16/7 79/15/7 77/14/7 75/13/7
f 83/1/22 84/4/22 86/3/22 85/2/22
f 85/5/21 86/8/21 88/7/21 87/6/21
f 87/9/14 88/12/14 90/11/14 89/10/14
f 86/13/4 84/17/4 92/16/4 90/15/4 88/14/4
f 89/6/20 90/7/20 92/8/20 91/5/20
f 91/18/19 92/19/19 84/4/19 83/1/19
f 83/17/7 85/13/7 87/14/7 89/15/7 91/16/7
f 93/1/19 95/2/19 96/3/19 94/4/19
f 95/5/20 97/6/20 98/7/20 96/8/20
f 97/9/14 99/10/14 100/11/14 98/12/14
f 96/13/4 98/14/4 100/15/4 102/16/4 94/17/4
f 99/6/21 101/5/21 102/8/21 100/7/21
f 101/18/22 93/1/22 94/4/22 102/19/22
f 93/17/7 101/16/7 99/15/7 97/14/7 95/13/7
f 103/1/23 104/4/23 106/3/23 105/2/23
f 105/5/24 106/8/24 108/7/24 107/6/24
f 107/9/10 108/12/10 110/11/10 109/10/10
f 106/13/4 104/17/4 112/16/4 110/15/4 108/14/4
f 109/6/25 110/7/25 112/8/25 111/5/25
f 111/18/26 112/19/26 104/4/26 103/1/26
f 103/17/7 105/13/7 107/14/7 109/15/7 111/16/7
s 1
f 114/82/27 113/83/28 121/84/29 122/85/30
f 116/86/31 115/87/32 123/88/33 124/89/34
f 118/90/35 117/91/36 125/92/37 126/93/38
f 120/94/39 119/95/40 127/96/41 128/97/42
f 115/87/32 114/98/27 122/99/30 123/88/33
f 117/91/36 116/100/31 124/101/34 125/92/37
f 119/95/40 118/102/35 126/103/38 127/96/41
f 113/83/28 120/104/39 128/105/42 121/84/29
f 127/96/41 126/103/38 134/106/43 135/107/44
f 121/84/29 128/105/42 136/108/45 129/109/46
f 122/85/30 121/84/29 129/109/46 130/110/47
f 124/89/34 123/88/33 131/111/48 132/112/49
f 126/93/38 125/92/37 133/113/50 134/114/43
f 128/97/42 127/96/41 135/107/44 136/115/45
f 123/88/33 122/99/30 130/116/47 131/111/48
f 125/92/37 124/101/34 132/117/49 133/113/50
s 0
f 137/1/51 139/2/51 140/3/51 138/4/51
f 139/5/52 141/6/52 142/7/52 140/8/52
f 141/9/3 143/10/3 144/11/3 142/12/3
f 140/13/53 142/14/53 144/15/53 146/16/53 138/17/53
f 143/6/54 145/5/54 146/8/54 144/7/54
f 145/18/55 137/1/55 138/4/55 146/19/55
f 137/17/56 145/16/56 143/15/56 141/14/56 139/13/56
f 147/1/55 148/4/55 150/3/55 149/2/55
f 149/5/54 150/8/54 152/7/54 151/6/54
f 151/9/3 152/12/3 154/11/3 153/10/3
f 150/13/53 148/17/53 156/16/53 154/15/53 152/14/53
f 153/6/52 154/7/52 156/8/52 155/5/52
f 155/18/51 156/19/51 148/4/51 147/1/51
f 147/17/56 149/13/56 151/14/56 153/15/56 155/16/56
s 1
f 163/20/56 164/21/56 172/22/56 171/23/56
f 162/24/56 163/20/56 171/23/56 170/25/56
f 161/26/56 162/24/56 170/25/56 169/27/56
f 160/28/56 161/26/56 169/27/56 168/29/56
f 159/30/56 160/28/56 168/29/56 167/31/56
f 158/32/56 159/30/56 167/31/56 166/33/56
f 157/34/56 158/32/56 166/33/56 165/35/56
f 164/21/56 157/34/56 165/35/56 172/22/56
f 167/36/57 168/37/58 176/38/58 175/39/57
f 166/40/59 167/36/57 175/39/57 174/41/59
f 165/42/11 166/40/59 174/41/59 173/39/11
f 172/37/60 165/42/11 173/39/11 180/38/60
f 171/43/61 172/44/60 180/45/60 179/46/61
f 170/47/62 171/43/61 179/46/61 178/48/62
f 169/49/3 170/47/62 178/48/62 177/46/3
f 168/44/58 169/49/3 177/46/3 176/45/58
f 180/50/53 173/51/53 174/52/53 175/53/53 176/54/53 177/55/53 178/56/53 179/57/53
f 164/118/63 130/119/47 129/120/46 157/121/64
f 163/122/61 131/123/48 130/124/47 164/125/63
f 162/126/65 132/127/49 131/123/48 163/122/61
f 161/128/66 133/129/50 132/130/49 162/131/65
f 160/132/67 134/133/43 133/129/50 161/128/66
f 159/134/57 135/135/44 134/136/43 160/137/67
f 158/138/68 136/139/45 135/135/44 159/134/57
f 157/121/64 129/120/46 136/140/45 158/141/68
s 0
f 181/1/51 183/2/51 184/3/51 182/4/51
f 183/5/52 185/6/52 186/7/52 184/8/52
f 185/9/3 187/10/3 188/11/3 186/12/3
f 184/13/53 186/14/53 188/15/53 190/16/53 182/17/53
f 187/6/54 189/5/54 190/8/54 188/7/54
f 189/18/55 181/1/55 182/4/55 190/19/55
f 181/17/56 189/16/56 187/15/56 185/14/56 183/13/56
f 191/1/69 192/4/69 194/3/69 193/2/69
f 193/5/70 194/8/70 196/7/70 195/6/70
f 195/9/11 196/12/11 198/11/11 197/10/11
f 194/13/53 192/17/53 200/16/53 198/15/53 196/14/53
f 197/6/71 198/7/71 200/8/71 199/5/71
f 199/18/72 200/19/72 192/4/72 191/1/72
f 191/17/56 193/13/56 195/14/56 197/15/56 199/16/56
f 201/1/73 203/2/73 204/3/73 202/4/73
f 203/5/74 205/6/74 206/7/74 204/8/74
f 205/9/62 207/10/62 208/11/62 206/12/62
f 204/13/53 206/14/53 208/15/53 210/16/53 202/17/53
f 207/6/75 209/5/75 210/8/75 208/7/75
f 209/18/76 201/1/76 202/4/76 210/19/76
f 201/17/56 209/16/56 207/15/56 205/14/56 203/13/56
f 211/1/76 212/4/76 214/3/76 213/2/76
f 213/5/75 214/8/75 216/7/75 215/6/75
f 215/9/62 216/12/62 218/11/62 217/10/62
f 214/13/53 212/17/53 220/16/53 218/15/53 216/14/53
f 217/6/74 218/7/74 220/8/74 219/5/74
f 219/18/73 220/19/73 212/4/73 211/1/73
f 211/17/56 213/13/56 215/14/56 217/15/56 219/16/56
f 221/1/73 223/2/73 224/3/73 222/4/73
f 223/5/74 225/6/74 226/7/74 224/8/74
f 225/9/62 227/10/62 228/11/62 226/12/62
f 224/13/53 226/14/53 228/15/53 230/16/53 222/17/53
f 227/6/75 229/5/75 230/8/75 228/7/75
f 229/18/76 221/1/76 222/4/76 230/19/76
f 221/17/56 229/16/56 227/15/56 225/14/56 223/13/56
f 231/1/77 232/4/77 234/3/77 233/2/77
f 233/5/78 234/8/78 236/7/78 235/6/78
f 235/9/59 236/12/59 238/11/59 237/10/59
f 234/13/53 232/17/53 240/16/53 238/15/53 236/14/53
f 237/6/79 238/7/79 240/8/79 239/5/79
f 239/18/80 240/19/80 232/4/80 231/1/80
f 231/17/56 233/13/56 235/14/56 237/15/56 239/16/56
