# Blender 4.5.9 LTS
# www.blender.org
mtllib SerwersP_006.mtl
o SerwersP_006
v 1.885217 0.724867 -1.240658
v 1.885217 -0.092017 -1.240659
v 1.885217 -1.450071 1.240659
v 1.885217 -0.092017 1.240659
v 1.885217 -1.450071 -1.240659
v 1.885217 0.724867 1.240659
v 1.885217 1.784391 -0.000001
v 1.885217 1.657539 0.566770
v 1.885217 1.325200 0.995074
v 1.885217 1.325199 -0.995073
v 1.885217 1.657539 -0.566771
v 1.698496 0.724867 -1.240658
v 1.698496 -0.092017 -1.240659
v 1.698496 -1.450071 1.240659
v 1.698496 -0.092017 1.240659
v 1.698496 -1.450071 -1.240659
v 1.698496 0.724867 1.240659
v 1.698496 1.784391 -0.000001
v 1.698496 1.657539 0.566770
v 1.698496 1.325200 0.995074
v 1.698496 1.325199 -0.995073
v 1.698496 1.657539 -0.566771
v 0.013112 0.724867 -0.904836
v 0.013112 -0.092017 -0.904837
v 0.962672 -1.450071 1.387602
v 0.962672 -0.092017 1.387602
v 0.013112 -1.450071 -0.904837
v 0.962672 0.724867 1.387602
v 0.487892 1.784391 0.241382
v 0.704786 1.657539 0.765010
v 0.868690 1.325200 1.160710
v 0.107094 1.325200 -0.677945
v 0.270998 1.657539 -0.282246
v -1.415466 0.724867 0.050391
v -1.415466 -0.092017 0.050391
v 0.339091 -1.450071 1.804947
v 0.339091 -0.092017 1.804947
v -1.415466 -1.450071 0.050391
v 0.339091 0.724867 1.804947
v -0.538188 1.784391 0.927669
v -0.137420 1.657539 1.328436
v 0.165436 1.325200 1.631292
v -1.241811 1.325200 0.224046
v -0.938955 1.657539 0.526901
v -2.369750 0.724867 1.479599
v -2.369750 -0.092017 1.479599
v -0.077312 -1.450071 2.429158
v -0.077311 -0.092017 2.429158
v -2.369750 -1.450071 1.479599
v -0.077311 0.724867 2.429158
v -1.223531 1.784391 1.954378
v -0.699903 1.657539 2.171272
v -0.304203 1.325200 2.335177
v -2.142859 1.325200 1.573581
v -1.747159 1.657539 1.737485
v -2.704459 0.724868 3.165205
v -2.704460 -0.092017 3.165205
v -0.223142 -1.450071 3.165205
v -0.223142 -0.092017 3.165204
v -2.704460 -1.450071 3.165205
v -0.223142 0.724867 3.165204
v -1.463801 1.784391 3.165204
v -0.897030 1.657539 3.165204
v -0.468727 1.325200 3.165204
v -2.458874 1.325200 3.165205
v -2.030572 1.657539 3.165204
v -2.704459 0.724868 3.353234
v -2.704460 -0.092017 3.353234
v -0.223142 -1.450071 3.353234
v -0.223142 -0.092017 3.353234
v -2.704460 -1.450071 3.353234
v -0.223142 0.724867 3.353234
v -1.463801 1.784391 3.353234
v -0.897030 1.657539 3.353234
v -0.468727 1.325200 3.353234
v -2.458874 1.325200 3.353234
v -2.030572 1.657539 3.353234
vn -0.0000 -0.1929 0.9812
vn -0.0000 -0.6049 0.7963
vn 0.0787 -0.5957 0.7994
vn 0.0954 -0.1899 0.9772
vn -0.0000 -0.1929 -0.9812
vn -0.0000 -0.0000 -1.0000
vn -0.0984 -0.0000 -0.9951
vn -0.0977 -0.1944 -0.9761
vn -0.0000 -0.9047 0.4260
vn -0.0000 -1.0000 -0.0000
vn 0.0027 -0.9999 0.0137
vn 0.0442 -0.8987 0.4364
vn -0.0000 -0.6049 -0.7963
vn -0.0785 -0.6111 -0.7876
vn -0.0000 -0.9047 -0.4260
vn -0.0403 -0.9093 -0.4142
vn -0.0000 -0.0000 1.0000
vn 0.0982 -0.0000 0.9952
vn -0.0000 1.0000 -0.0000
vn -0.3834 -0.0000 -0.9236
vn -0.3005 -0.6208 -0.7241
vn -0.1545 -0.9151 -0.3724
vn -0.3758 -0.1976 -0.9054
vn 0.3093 -0.5898 0.7459
vn 0.3761 -0.1886 0.9072
vn 0.0105 -0.9996 0.0252
vn 0.1715 -0.8942 0.4136
vn 0.3830 -0.0000 0.9238
vn 0.0193 -0.9996 0.0193
vn 0.3167 -0.8942 0.3165
vn 0.7073 -0.0000 0.7069
vn 0.5712 -0.5898 0.5708
vn 0.6947 -0.1886 0.6942
vn -0.2853 -0.9151 -0.2849
vn -0.7076 -0.0000 -0.7066
vn -0.5547 -0.6208 -0.5540
vn -0.6937 -0.1976 -0.6926
vn -0.9242 -0.0000 -0.3820
vn -0.7245 -0.6208 -0.2995
vn -0.3726 -0.9151 -0.1541
vn -0.9059 -0.1976 -0.3745
vn 0.7462 -0.5898 0.3088
vn 0.9074 -0.1886 0.3755
vn 0.0252 -0.9996 0.0104
vn 0.4137 -0.8942 0.1712
vn 0.9240 -0.0000 0.3824
vn 0.9952 -0.0000 0.0979
vn 0.4364 -0.8987 0.0440
vn 0.7994 -0.5957 0.0784
vn 0.9772 -0.1899 0.0950
vn -0.4143 -0.9093 -0.0401
vn 0.0136 -0.9999 0.0027
vn -0.9952 -0.0000 -0.0976
vn -0.7878 -0.6110 -0.0780
vn -0.9761 -0.1944 -0.0969
vn 1.0000 -0.0000 -0.0000
vn 0.4260 -0.9047 -0.0000
vn 0.7963 -0.6049 -0.0000
vn 0.9812 -0.1929 -0.0000
vn -0.4260 -0.9047 -0.0000
vn -1.0000 -0.0000 -0.0000
vn -0.7963 -0.6049 -0.0000
vn -0.9812 -0.1929 -0.0000
vt 0.686815 0.597886
vt 0.686815 0.783491
vt 0.629086 0.783491
vt 0.629086 0.597886
vt 0.686815 0.597886
vt 0.686815 0.345330
vt 0.629086 0.345330
vt 0.629086 0.597886
vt 0.686815 0.324771
vt 0.686815 0.500000
vt 0.629086 0.500000
vt 0.629086 0.324771
vt 0.686815 0.783491
vt 0.629086 0.597886
vt 0.629086 0.783491
vt 0.686815 0.192353
vt 0.629086 0.324771
vt 0.629086 0.192353
vt 0.686815 0.675229
vt 0.629086 0.675229
vt 0.629086 0.500000
vt 1.280762 0.009138
vt 1.280762 0.997661
vt 1.144849 0.997661
vt 1.144849 0.009138
vt 0.629086 0.345330
vt 0.686815 0.807647
vt 0.629086 0.807647
vt 0.629086 0.675229
vt 0.997824 0.994752
vt 0.997824 0.005248
vt 0.923363 0.005248
vt 0.923363 0.994752
vt 1.144849 0.009138
vt -2.126398 0.995943
vt -2.126398 0.005754
vt -1.579298 0.005754
vt -1.579298 0.995943
vt 0.798782 0.943659
vt 0.798782 1.104601
vt 0.521025 1.104601
vt 0.521025 0.943659
vt 0.798782 1.297161
vt 0.798782 1.547004
vt 0.521025 1.547004
vt 0.521025 1.297161
vt 1.330973 0.245312
vt 1.330973 0.437872
vt 0.796882 0.437872
vt 0.796882 0.245312
vt 1.330973 0.598813
vt 1.330973 0.771236
vt 0.796882 0.771236
vt 0.796882 0.598813
vt 3.022738 0.004490
vt 3.022738 0.994679
vt 1.769727 0.994680
vt 1.769728 0.004491
vt 1.330973 -0.004531
vt 0.796882 -0.004531
vt 0.798782 0.771236
vt 0.521025 0.771236
vt 0.989727 -0.566212
vt 0.019424 -0.566212
vt 0.019424 -0.083494
vt 0.989727 -0.083494
vt 0.262791 0.771236
vt 0.262791 0.598813
vt 0.516718 0.994680
vt 0.516718 0.004491
vt 0.262791 0.437872
vt 0.262791 0.245312
vt 0.262791 -0.004531
vt 0.243269 0.943659
vt 0.243269 0.771236
vt 0.019424 0.399225
vt 0.989727 0.399225
vt -1.032198 0.005754
vt -1.032198 0.995943
vt 0.243269 1.104601
vt 0.243269 1.547004
vt 0.243269 1.297161
vt -0.485097 0.005754
vt -0.485098 0.995943
vt -0.034488 1.104601
vt -0.034488 0.943659
vt -0.034488 1.547004
vt -0.034488 1.297161
vt -0.271300 0.437872
vt -0.271300 0.245312
vt -0.271300 0.771236
vt -0.271300 0.598813
vt -0.736292 0.994680
vt -0.736292 0.004491
vt -0.271300 -0.004531
vt -0.034488 0.771236
vt 0.019424 0.881943
vt 0.989727 0.881943
vt -1.989302 0.994681
vt -1.989302 0.004492
vt -0.805391 0.598813
vt -0.805391 0.437872
vt -0.805391 0.245312
vt -0.805391 -0.004531
vt -0.312244 0.943659
vt -0.312244 0.771236
vt 0.019424 1.364661
vt 0.989727 1.364661
vt 0.062003 0.005754
vt 0.062003 0.995943
vt -0.312244 1.104601
vt -0.312244 1.547004
vt -0.312244 1.297161
vt -0.805391 0.771236
vt -2.126399 0.994681
vt -2.126399 0.004492
vt -0.886744 0.598813
vt -0.886744 0.437872
vt -0.886744 0.245312
vt -0.886744 -0.004531
vt -0.354552 0.943659
vt -0.354552 0.771236
vt 0.019424 1.438189
vt 0.989727 1.438189
vt 0.199100 0.005754
vt 0.199100 0.995943
vt -0.354552 1.104601
vt -0.354552 1.547004
vt -0.354552 1.297161
vt -0.886744 0.771236
s 1
usemtl brick_modern
f 1/1/1 10/2/2 21/3/3 12/4/4
f 6/5/5 4/6/6 15/7/7 17/8/8
f 11/9/9 7/10/10 18/11/11 22/12/12
f 9/13/13 6/5/5 17/14/8 20/15/14
f 10/16/2 11/9/9 22/17/12 21/18/3
f 7/10/10 8/19/15 19/20/16 18/21/11
f 2/6/17 1/1/1 12/4/4 13/26/18
f 8/19/15 9/27/13 20/28/14 19/29/16
f 19/39/16 20/40/14 31/41/21 30/42/22
f 17/43/8 15/44/7 26/45/20 28/46/23
f 20/40/14 17/43/8 28/46/23 31/41/21
f 12/47/4 21/48/3 32/49/24 23/50/25
f 22/51/12 18/52/11 29/53/26 33/54/27
f 21/48/3 22/51/12 33/54/27 32/49/24
f 13/59/18 12/47/4 23/50/25 24/60/28
f 18/61/11 19/39/16 30/42/22 29/62/26
f 33/54/27 29/53/26 40/67/29 44/68/30
f 32/49/24 33/54/27 44/68/30 43/71/32
f 24/60/28 23/50/25 34/72/33 35/73/31
f 29/62/26 30/42/22 41/74/34 40/75/29
f 30/42/22 31/41/21 42/80/36 41/74/34
f 28/46/23 26/45/20 37/81/35 39/82/37
f 31/41/21 28/46/23 39/82/37 42/80/36
f 23/50/25 32/49/24 43/71/32 34/72/33
f 41/74/34 42/80/36 53/85/39 52/86/40
f 39/82/37 37/81/35 48/87/38 50/88/41
f 42/80/36 39/82/37 50/88/41 53/85/39
f 34/72/33 43/71/32 54/89/42 45/90/43
f 44/68/30 40/67/29 51/91/44 55/92/45
f 43/71/32 44/68/30 55/92/45 54/89/42
f 35/73/31 34/72/33 45/90/43 46/95/46
f 40/75/29 41/74/34 52/86/40 51/96/44
f 54/89/42 55/92/45 66/101/48 65/102/49
f 46/95/46 45/90/43 56/103/50 57/104/47
f 51/96/44 52/86/40 63/105/51 62/106/52
f 52/86/40 53/85/39 64/111/54 63/105/51
f 50/88/41 48/87/38 59/112/53 61/113/55
f 53/85/39 50/88/41 61/113/55 64/111/54
f 45/90/43 54/89/42 65/102/49 56/103/50
f 55/92/45 51/91/44 62/114/52 66/101/48
f 65/102/49 66/101/48 77/117/57 76/118/58
f 57/104/47 56/103/50 67/119/59 68/120/56
f 62/106/52 63/105/51 74/121/60 73/122/10
f 63/105/51 64/111/54 75/127/62 74/121/60
f 61/113/55 59/112/53 70/128/61 72/129/63
f 64/111/54 61/113/55 72/129/63 75/127/62
f 56/103/50 65/102/49 76/118/58 67/119/59
f 66/101/48 62/114/52 73/130/10 77/117/57
usemtl concrete_bare_01
f 5/22/17 2/23/17 13/24/18 16/25/18
f 4/23/6 3/22/6 14/34/7 15/24/7
f 15/35/7 14/36/7 25/37/20 26/38/20
f 16/55/18 13/56/18 24/57/28 27/58/28
f 27/58/28 24/57/28 35/69/31 38/70/31
f 26/38/20 25/37/20 36/78/35 37/79/35
f 37/79/35 36/78/35 47/83/38 48/84/38
f 38/70/31 35/69/31 46/93/46 49/94/46
f 49/94/46 46/93/46 57/99/47 60/100/47
f 48/84/38 47/83/38 58/109/53 59/110/53
f 60/100/47 57/99/47 68/115/56 71/116/56
f 59/110/53 58/109/53 69/125/61 70/126/61
usemtl brick_pavement
f 3/30/19 5/31/19 16/32/19 14/33/19
f 14/63/19 16/64/19 27/65/19 25/66/19
f 25/66/19 27/65/19 38/76/19 36/77/19
f 36/77/19 38/76/19 49/97/19 47/98/19
f 47/98/19 49/97/19 60/107/19 58/108/19
f 58/108/19 60/107/19 71/123/19 69/124/19
