# Blender 4.5.9 LTS
# www.blender.org
mtllib Serwers_010.mtl
o Serwers_010
v -0.000000 2.451968 0.767412
v -2.698331 -3.151173 0.767412
v -3.364763 -1.767312 0.767412
v -3.364763 -0.231341 0.767412
v -2.698331 1.152521 0.767412
v -1.497461 2.110182 0.767412
v -0.000000 2.154241 0.767412
v -2.324994 -3.201678 0.767412
v -3.049479 -1.675323 0.767412
v -3.049479 -0.281223 0.767412
v -2.444601 0.974818 0.767412
v -1.354650 1.844025 0.767412
v -0.000000 2.451968 -0.767411
v -2.698331 -3.151173 -0.767410
v -3.364763 -1.767312 -0.767410
v -3.364763 -0.231341 -0.767411
v -2.698331 1.152521 -0.767411
v -1.497461 2.110182 -0.767411
v -0.000000 2.154241 -0.767411
v -2.324994 -3.201678 -0.767410
v -3.049479 -1.675323 -0.767410
v -3.049479 -0.281223 -0.767411
v -2.444601 0.974818 -0.767411
v -1.354650 1.844025 -0.767411
v 2.698330 -3.151173 0.767412
v 3.364763 -1.767312 0.767412
v 3.364763 -0.231341 0.767412
v 2.698330 1.152521 0.767412
v 1.497460 2.110182 0.767412
v 2.324993 -3.201678 0.767412
v 3.049478 -1.675323 0.767412
v 3.049478 -0.281223 0.767412
v 2.444601 0.974818 0.767412
v 1.354650 1.844025 0.767412
v 2.698330 -3.151173 -0.767410
v 3.364763 -1.767312 -0.767410
v 3.364763 -0.231341 -0.767411
v 2.698330 1.152521 -0.767411
v 1.497460 2.110182 -0.767411
v 2.324993 -3.201678 -0.767410
v 3.049478 -1.675323 -0.767410
v 3.049478 -0.281223 -0.767411
v 2.444601 0.974818 -0.767411
v 1.354650 1.844025 -0.767411
vn -0.0000 -0.0000 -1.0000
vn -0.0000 -0.0000 1.0000
vn 0.7818 -0.6235 -0.0000
vn 0.9749 -0.2225 -0.0000
vn -0.4342 0.9008 -0.0000
vn -0.0000 1.0000 -0.0000
vn -0.9756 -0.2198 -0.0000
vn -0.9749 0.2225 -0.0000
vn 0.1341 0.9910 -0.0000
vn 0.4339 -0.9010 -0.0000
vn 0.9749 0.2225 -0.0000
vn 0.9010 0.4339 -0.0000
vn -0.7818 0.6235 -0.0000
vn -0.0000 -1.0000 -0.0000
vn -0.9034 -0.4288 -0.0000
vn -0.7818 -0.6235 -0.0000
vn -0.9749 -0.2225 -0.0000
vn 0.4342 0.9008 -0.0000
vn 0.9756 -0.2198 -0.0000
vn -0.1341 0.9910 -0.0000
vn -0.4339 -0.9010 -0.0000
vn -0.9010 0.4339 -0.0000
vn 0.7818 0.6235 -0.0000
vn 0.9034 -0.4288 -0.0000
vt 0.384257 0.713649
vt 0.437873 0.702363
vt 0.426706 0.456031
vt 0.371953 0.442250
vt 0.319097 0.193050
vt 0.374864 0.209320
vt 0.503008 -0.060657
vt 0.436974 -0.051724
vt 0.542094 0.915044
vt 0.594136 0.902964
vt 0.582464 0.656657
vt 0.529234 0.643671
vt 0.319097 0.464727
vt 0.374864 0.455905
vt 0.717014 1.011563
vt 0.769424 1.016699
vt 0.847403 0.783587
vt 0.803014 0.753856
vt 0.709501 0.635737
vt 0.464727 0.635737
vt 0.464727 0.364263
vt 0.709501 0.364263
vt 0.562532 0.252155
vt 0.562532 0.012549
vt 0.291057 0.012549
vt 0.291057 0.252155
vt 0.562532 0.717475
vt 0.562532 0.470890
vt 0.291057 0.470890
vt 0.291057 0.717475
vt 0.436974 0.635737
vt 0.503008 0.635737
vt 0.503008 0.364263
vt 0.436974 0.364263
vt 0.649380 0.635737
vt 0.649380 0.364263
vt 0.193050 0.635737
vt -0.051724 0.635737
vt -0.051724 0.364263
vt 0.193050 0.364263
vt 0.562532 0.248726
vt 0.291057 0.248726
vt 0.914246 0.635737
vt 0.914246 0.364263
vt 0.562532 0.444942
vt 0.291057 0.444942
vt 0.562532 0.987452
vt 0.291057 0.987452
s 1
usemtl brick_modern_01
f 5/1/1 11/2/1 10/3/1 4/4/1
f 3/5/1 9/6/1 8/7/1 2/8/1
f 6/9/1 12/10/1 11/11/1 5/12/1
f 4/13/1 10/14/1 9/6/1 3/5/1
f 1/15/1 7/16/1 12/17/1 6/18/1
f 17/1/2 16/4/2 22/3/2 23/2/2
f 15/5/2 14/8/2 20/7/2 21/6/2
f 18/9/2 17/12/2 23/11/2 24/10/2
f 16/13/2 15/5/2 21/6/2 22/14/2
f 13/15/2 18/18/2 24/17/2 19/16/2
f 5/19/3 4/20/4 16/21/4 17/22/3
f 12/23/5 7/24/6 19/25/6 24/26/5
f 9/27/7 10/28/8 22/29/8 21/30/7
f 2/31/9 8/32/9 20/33/9 14/34/9
f 6/35/10 5/31/3 17/34/3 18/36/10
f 3/37/11 2/38/12 14/39/12 15/40/11
f 10/28/8 11/41/13 23/42/13 22/29/8
f 1/43/14 6/35/10 18/36/10 13/44/14
f 4/20/4 3/37/11 15/40/11 16/21/4
f 11/45/13 12/23/5 24/26/5 23/46/13
f 8/47/15 9/27/7 21/30/7 20/48/15
f 28/1/1 27/4/1 32/3/1 33/2/1
f 26/5/1 25/8/1 30/7/1 31/6/1
f 29/9/1 28/12/1 33/11/1 34/10/1
f 27/13/1 26/5/1 31/6/1 32/14/1
f 1/15/1 29/18/1 34/17/1 7/16/1
f 38/1/2 43/2/2 42/3/2 37/4/2
f 36/5/2 41/6/2 40/7/2 35/8/2
f 39/9/2 44/10/2 43/11/2 38/12/2
f 37/13/2 42/14/2 41/6/2 36/5/2
f 13/15/2 19/16/2 44/17/2 39/18/2
f 28/19/16 38/22/16 37/21/17 27/20/17
f 34/23/18 44/26/18 19/25/6 7/24/6
f 31/27/19 41/30/19 42/29/11 32/28/11
f 25/31/20 35/34/20 40/33/20 30/32/20
f 29/35/21 39/36/21 38/34/16 28/31/16
f 26/37/8 36/40/8 35/39/22 25/38/22
f 32/28/11 42/29/11 43/42/23 33/41/23
f 1/43/14 13/44/14 39/36/21 29/35/21
f 27/20/17 37/21/17 36/40/8 26/37/8
f 33/45/23 43/46/23 44/26/18 34/23/18
f 30/47/24 40/48/24 41/30/19 31/27/19
