# Blender 4.5.9 LTS
# www.blender.org
mtllib SerwersP1_001.mtl
o SerwersP1_001
v 2.093360 0.371344 -1.921355
v 2.093360 -0.310414 -1.926686
v 2.093360 -1.668468 1.240659
v 2.093360 -0.310414 1.926686
v 2.093360 -1.668468 -1.240659
v 2.093360 0.371343 1.921356
v 2.093360 1.929367 -0.000001
v 2.093360 1.680831 0.961888
v 2.093360 1.106803 1.560336
v 2.093360 1.106803 -1.560336
v 2.093360 1.680831 -0.961890
v -2.093360 0.371344 -1.921355
v -2.093360 -0.310414 -1.926686
v -2.093360 -1.668468 1.240659
v -2.093360 -0.310414 1.926686
v -2.093360 -1.668468 -1.240659
v -2.093360 0.371343 1.921356
v -2.093360 1.929367 -0.000001
v -2.093360 1.680831 0.961888
v -2.093360 1.106803 1.560336
v -2.093360 1.106803 -1.560336
v -2.093360 1.680831 -0.961890
vn -0.0000 -0.2300 0.9732
vn -0.0000 -0.5902 0.8073
vn -0.0000 -0.2300 -0.9732
vn -0.0000 0.2280 -0.9737
vn -0.0000 -0.8734 0.4871
vn -0.0000 -1.0000 -0.0000
vn -0.0000 -0.5902 -0.8073
vn -0.0000 -0.8734 -0.4871
vn -0.0000 0.4509 0.8926
vn -0.0000 0.2280 0.9737
vn -0.0000 1.0000 -0.0000
vn -0.0000 0.4509 -0.8926
vt 0.686815 0.505475
vt 0.686815 0.686525
vt -0.607595 0.686525
vt -0.607596 0.505474
vt 0.686815 0.485184
vt 0.686815 0.345330
vt -0.607595 0.345330
vt -0.607595 0.485184
vt 0.686815 0.218512
vt 0.686815 0.509351
vt -0.607595 0.509351
vt -0.607595 0.218512
vt 0.686815 0.686525
vt 0.686815 0.505474
vt -0.607595 0.505474
vt -0.607595 0.686525
vt 0.686815 0.089200
vt 0.686815 0.276546
vt -0.607595 0.276546
vt -0.607595 0.089200
vt 0.686815 0.490648
vt 0.686815 0.781487
vt -0.607595 0.781487
vt -0.607595 0.490648
vt 1.280762 0.009138
vt 1.280762 0.997661
vt -1.766741 0.997661
vt -1.766741 0.009137
vt 0.686815 0.485184
vt -0.607595 0.485184
vt -0.607595 0.345330
vt 0.686815 0.723454
vt 0.686815 0.910801
vt -0.607595 0.910800
vt -0.607595 0.723454
vt 0.997824 0.994752
vt 0.997824 0.005248
vt -0.671763 0.005248
vt -0.671763 0.994752
vt 1.280762 0.997661
vt -1.766741 0.009138
vt -1.766741 0.997661
s 1
usemtl brick_modern
f 1/1/1 10/2/2 21/3/2 12/4/1
f 6/5/3 4/6/4 15/7/4 17/8/3
f 11/9/5 7/10/6 18/11/6 22/12/5
f 9/13/7 6/14/3 17/15/3 20/16/7
f 10/17/2 11/18/5 22/19/5 21/20/2
f 7/21/6 8/22/8 19/23/8 18/24/6
f 2/6/10 1/29/1 12/30/1 13/31/10
f 8/32/8 9/33/7 20/34/7 19/35/8
usemtl concrete_bare_01
f 5/25/9 2/26/10 13/27/10 16/28/9
f 4/40/4 3/25/12 14/41/12 15/42/4
usemtl brick_pavement
f 3/36/11 5/37/11 16/38/11 14/39/11
