# Blender 4.5.9 LTS
# www.blender.org
mtllib SerwersP1_010.mtl
o SerwersP1_010
v -0.020423 -1.661565 -0.085843
v -0.020423 1.835368 -0.085844
v -0.020423 -1.661565 -0.150526
v -0.020423 1.835368 -0.150526
v 0.020423 -1.661565 -0.085843
v 0.020423 1.835368 -0.085844
v 0.020423 -1.661565 -0.150526
v 0.020423 1.835368 -0.150526
v -0.020423 -1.661565 -0.339895
v -0.020423 1.794063 -0.339896
v -0.020423 -1.661565 -0.404578
v -0.020423 1.794063 -0.404578
v 0.020423 -1.661565 -0.339895
v 0.020423 1.794063 -0.339896
v 0.020423 -1.661565 -0.404578
v 0.020423 1.794063 -0.404578
v -0.020423 -1.661565 -0.573957
v -0.020423 1.718059 -0.573958
v -0.020423 -1.661565 -0.638640
v -0.020423 1.718059 -0.638640
v 0.020423 -1.661565 -0.573957
v 0.020423 1.718059 -0.573958
v 0.020423 -1.661565 -0.638640
v 0.020423 1.718059 -0.638640
v -0.020423 -1.661565 -0.869370
v -0.020423 1.630073 -0.869371
v -0.020423 -1.661565 -0.934053
v -0.020423 1.630073 -0.934053
v 0.020423 -1.661565 -0.869370
v 0.020423 1.630073 -0.869371
v 0.020423 -1.661565 -0.934053
v 0.020423 1.630073 -0.934053
v -0.020423 -1.661565 0.085844
v -0.020423 1.835368 0.085844
v -0.020423 -1.661565 0.150526
v -0.020423 1.835368 0.150526
v 0.020423 -1.661565 0.085844
v 0.020423 1.835368 0.085844
v 0.020423 -1.661565 0.150526
v 0.020423 1.835368 0.150526
v -0.020423 -1.661565 0.339896
v -0.020423 1.794063 0.339895
v -0.020423 -1.661565 0.404578
v -0.020423 1.794063 0.404578
v 0.020423 -1.661565 0.339896
v 0.020423 1.794063 0.339895
v 0.020423 -1.661565 0.404578
v 0.020423 1.794063 0.404578
v -0.020423 -1.661565 0.573958
v -0.020423 1.718059 0.573958
v -0.020423 -1.661565 0.638640
v -0.020423 1.718059 0.638640
v 0.020423 -1.661565 0.573958
v 0.020423 1.718059 0.573958
v 0.020423 -1.661565 0.638640
v 0.020423 1.718059 0.638640
v -0.020423 -1.661565 0.869371
v -0.020423 1.630073 0.869370
v -0.020423 -1.661565 0.934053
v -0.020423 1.630073 0.934053
v 0.020423 -1.661565 0.869371
v 0.020423 1.630073 0.869370
v 0.020423 -1.661565 0.934053
v 0.020423 1.630073 0.934053
v -0.016773 -1.051672 -1.601736
v -0.016773 -1.051672 1.585822
v -0.016773 -0.998549 -1.601736
v -0.016773 -0.998549 1.585822
v 0.016773 -1.051672 -1.601736
v 0.016773 -1.051672 1.585822
v 0.016773 -0.998549 -1.601736
v 0.016773 -0.998549 1.585822
v -0.016773 -0.335919 -1.898057
v -0.016773 -0.335919 1.882141
v -0.016773 -0.282797 -1.898057
v -0.016773 -0.282796 1.882141
v 0.016773 -0.335919 -1.898057
v 0.016773 -0.335919 1.882141
v 0.016773 -0.282797 -1.898057
v 0.016773 -0.282796 1.882141
v -0.016773 0.654366 -1.731993
v -0.016773 0.654366 1.716078
v -0.016773 0.707489 -1.731993
v -0.016773 0.707489 1.716078
v 0.016773 0.654366 -1.731993
v 0.016773 0.654366 1.716078
v 0.016773 0.707489 -1.731993
v 0.016773 0.707489 1.716078
v -0.058480 0.357368 -1.922634
v -0.058480 -0.342561 -1.945871
v -0.058480 -1.704704 1.240659
v -0.058480 -0.342561 1.945871
v -0.058480 -1.704704 -1.240659
v -0.058480 0.357368 1.922635
v -0.058480 1.907061 -0.000004
v -0.058480 1.654752 0.973428
v -0.058480 1.090790 1.558564
v -0.058480 1.090789 -1.558564
v -0.058480 1.654752 -0.973435
v -0.058480 0.347680 -1.846286
v -0.058480 -0.342561 -1.868600
v -0.058480 -1.655438 1.191392
v -0.058480 -0.342561 1.868600
v -0.058480 1.059943 1.494957
v -0.058480 0.347680 1.846287
v -0.058480 -1.655438 -1.191393
v -0.058480 1.609079 -0.936501
v -0.058480 1.856575 -0.000004
v -0.058480 1.609080 0.936494
v -0.058480 1.059942 -1.494956
v 0.058480 0.347680 -1.846286
v 0.058480 -0.342561 -1.868600
v 0.058480 -1.655438 1.191392
v 0.058480 -0.342561 1.868600
v 0.058480 1.059943 1.494957
v 0.058480 0.347680 1.846287
v 0.058480 -1.655438 -1.191393
v 0.058480 1.609079 -0.936501
v 0.058480 1.856575 -0.000004
v 0.058480 1.609080 0.936494
v 0.058480 1.059942 -1.494956
v 0.058480 0.357368 -1.922634
v 0.058480 -0.342561 -1.945871
v 0.058480 -1.704704 1.240659
v 0.058480 -0.342561 1.945871
v 0.058480 1.090790 1.558564
v 0.058480 0.357368 1.922635
v 0.058480 -1.704704 -1.240659
v 0.058480 1.654752 -0.973435
v 0.058480 1.907061 -0.000004
v 0.058480 1.654752 0.973428
v 0.058480 1.090789 -1.558564
v -0.020423 -1.658403 -1.207772
v -0.020423 1.355153 -1.207772
v -0.020423 -1.658403 -1.272454
v -0.020423 1.355153 -1.272455
v 0.020423 -1.658403 -1.207772
v 0.020423 1.355153 -1.207772
v 0.020423 -1.658403 -1.272454
v 0.020423 1.355153 -1.272455
v -0.020423 -1.658403 1.225251
v -0.020423 1.406292 1.225250
v -0.020423 -1.658403 1.160568
v -0.020423 1.406292 1.160568
v 0.020423 -1.658403 1.225251
v 0.020423 1.406292 1.225250
v 0.020423 -1.658403 1.160568
v 0.020423 1.406292 1.160568
v -0.020423 -1.129558 1.525711
v -0.020423 1.104655 1.525711
v -0.020423 -1.129558 1.461029
v -0.020423 1.104655 1.461028
v 0.020423 -1.129558 1.525711
v 0.020423 1.104655 1.525711
v 0.020423 -1.129558 1.461029
v 0.020423 1.104655 1.461028
v -0.020423 -1.012950 -1.527015
v -0.020423 1.024409 -1.527015
v -0.020423 -1.012950 -1.591697
v -0.020423 1.024409 -1.591698
v 0.020423 -1.012950 -1.527015
v 0.020423 1.024409 -1.527015
v 0.020423 -1.012950 -1.591697
v 0.020423 1.024409 -1.591698
vn -1.0000 -0.0000 -0.0000
vn -0.0000 -0.0000 -1.0000
vn 1.0000 -0.0000 -0.0000
vn -0.0000 -0.0000 1.0000
vn -0.0000 1.0000 -0.0000
vn -0.0000 -1.0000 -0.0000
vn -0.0000 -0.8690 -0.4949
vn -0.0000 0.2201 0.9755
vn -0.0000 -0.2428 0.9701
vn -0.0000 0.2201 -0.9755
vn -0.0000 0.4584 -0.8887
vn -0.0000 -0.2204 0.9754
vn -0.0000 0.2445 0.9697
vn -0.0000 -0.5859 0.8104
vn -0.0000 -0.5859 -0.8104
vn -0.0000 -0.2428 -0.9701
vn -0.0000 0.8726 -0.4884
vn -0.0000 -0.8690 0.4949
vn -0.0000 0.4584 0.8887
vn -0.0000 0.8726 0.4884
vn -0.0000 0.2445 -0.9697
vn -0.0000 -0.2204 -0.9754
vn -0.0000 0.5910 0.8067
vn -0.0000 -0.4598 0.8880
vn -0.0000 0.5910 -0.8067
vn -0.0000 -0.4598 -0.8880
vt 0.037467 0.479396
vt 0.962533 0.479396
vt 0.962533 0.462285
vt 0.037467 0.462285
vt 0.494597 0.037467
vt 0.494597 0.962533
vt 0.505403 0.962533
vt 0.505403 0.037467
vt 0.037467 0.412190
vt 0.951606 0.412190
vt 0.951606 0.395079
vt 0.037467 0.395079
vt 0.494597 0.951606
vt 0.505403 0.951606
vt 0.037467 0.350272
vt 0.931501 0.350272
vt 0.931501 0.333162
vt 0.037467 0.333162
vt 0.494597 0.931501
vt 0.505403 0.931501
vt 0.037467 0.272125
vt 0.908225 0.272125
vt 0.908225 0.255014
vt 0.037467 0.255014
vt 0.494597 0.908225
vt 0.505403 0.908225
vt 0.037467 0.524814
vt 0.037467 0.541925
vt 0.962533 0.541925
vt 0.962533 0.524814
vt 0.037467 0.592020
vt 0.037467 0.609131
vt 0.951606 0.609131
vt 0.951606 0.592020
vt 0.037467 0.653938
vt 0.037467 0.671049
vt 0.931500 0.671049
vt 0.931500 0.653938
vt 0.505403 0.931500
vt 0.494597 0.931500
vt 0.037467 0.732085
vt 0.037467 0.749196
vt 0.908225 0.749196
vt 0.908225 0.732085
vt 0.198806 0.078387
vt 0.198806 0.921613
vt 0.212859 0.921613
vt 0.212859 0.078387
vt 0.495563 0.078387
vt 0.495563 0.921613
vt 0.504437 0.921613
vt 0.504437 0.078387
vt 0.388148 0.000000
vt 0.388149 1.000000
vt 0.402201 1.000000
vt 0.402201 0.000000
vt 0.495563 0.000000
vt 0.495563 1.000000
vt 0.504437 1.000000
vt 0.504437 0.000000
vt 0.650115 0.043930
vt 0.650115 0.956070
vt 0.664168 0.956070
vt 0.664168 0.043930
vt 0.495563 0.043930
vt 0.495563 0.956070
vt 0.504437 0.956070
vt 0.504437 0.043930
vt 0.093324 -0.935130
vt 0.093325 -0.994998
vt 0.635601 -0.976985
vt 0.628094 -0.917832
vt 0.093314 -0.935123
vt 0.628093 -0.917830
vt 0.635598 -0.976983
vt 0.093314 -0.994990
vt 0.093314 1.960356
vt -0.923865 1.435674
vt -0.962035 1.473845
vt 0.093314 2.020223
vt 1.179933 1.670865
vt 0.628095 1.943059
vt 0.635601 2.002210
vt 1.203833 1.720145
vt -0.923865 -0.410439
vt 0.093315 -0.935119
vt 0.093316 -0.994985
vt -0.962035 -0.448609
vt -0.962035 1.473845
vt -0.962035 -0.448609
vt -0.923865 -0.410439
vt -0.923865 1.435675
vt 0.628092 1.943064
vt 0.093313 1.960359
vt 0.093313 2.020226
vt 0.635597 2.002216
vt 1.605389 -0.212956
vt 1.797143 0.512615
vt 1.836258 0.512615
vt 1.640775 -0.241572
vt 1.797143 0.512615
vt 1.605389 1.238187
vt 1.640775 1.266802
vt 1.836258 0.512615
vt 1.605390 1.238188
vt 1.179933 1.670869
vt 1.203833 1.720151
vt 1.640776 1.266803
vt 0.628096 -0.917828
vt 1.179931 -0.645631
vt 1.203830 -0.694912
vt 0.635602 -0.976980
vt 1.179933 -0.645632
vt 1.605389 -0.212957
vt 1.640775 -0.241572
vt 1.203832 -0.694914
vt 0.093314 1.960363
vt 0.093315 2.020232
vt -0.962035 1.473845
vt -0.923865 1.435674
vt 1.179934 1.670867
vt 1.203833 1.720148
vt 0.635601 2.002224
vt 0.628096 1.943074
vt -0.923865 -0.410439
vt -0.962035 -0.448610
vt 0.093316 -0.994985
vt 0.093315 -0.935118
vt 0.450344 1.473845
vt 0.450344 -0.448610
vt 0.540961 -0.448610
vt 0.540961 1.473845
vt 0.540961 1.435674
vt 0.540961 -0.410439
vt 0.450344 -0.410439
vt 0.450344 1.435674
vt 0.628089 1.943064
vt 0.635593 2.002213
vt 0.093296 2.020183
vt 0.093298 1.960319
vt 1.605389 -0.212956
vt 1.640775 -0.241572
vt 1.836258 0.512615
vt 1.797143 0.512615
vt 1.797142 0.512615
vt 1.836257 0.512615
vt 1.605389 1.238187
vt 1.605390 1.238187
vt 1.640775 1.266802
vt 1.203834 1.720146
vt 1.179934 1.670866
vt 0.628098 -0.917830
vt 0.635605 -0.976983
vt 1.203834 -0.694913
vt 1.179934 -0.645632
vt 1.179932 -0.645632
vt 1.203831 -0.694913
vt 1.640775 -0.241572
vt 1.605390 -0.212957
vt 0.450344 0.502520
vt 0.540961 0.502520
vt 0.540961 1.225839
vt 0.450344 1.225839
vt 0.450344 0.523527
vt 0.540961 0.523527
vt 0.540961 0.750043
vt 0.450344 0.750043
vt 0.450344 0.166658
vt 0.540961 0.166658
vt 0.540961 -0.854798
vt 0.450344 -0.854798
vt 0.450344 0.536646
vt 0.540961 0.536646
vt 0.540961 0.762689
vt 0.450344 0.762688
vt 0.450344 1.180401
vt 0.540961 1.180401
vt 0.540961 1.196977
vt 0.450344 1.196977
vt 0.450344 1.196977
vt 0.540961 1.196977
vt 0.540961 1.180400
vt 0.450344 1.180400
vt 0.450344 0.522710
vt 0.540961 0.522710
vt 0.540961 -0.228653
vt 0.450344 -0.228653
vt 0.450344 -0.324199
vt 0.540961 -0.324199
vt 0.540961 -0.107750
vt 0.450344 -0.107750
vt 0.450344 -0.854798
vt 0.540961 -0.854798
vt 0.540961 0.166658
vt 0.450344 0.166658
vt 0.450344 1.253884
vt 0.540961 1.253884
vt 0.540961 0.502520
vt 0.450344 0.502520
vt 0.450344 0.762689
vt 0.540961 0.762689
vt 0.540961 0.536646
vt 0.450344 0.536646
vt -0.923865 -0.410439
vt -0.962035 -0.448609
vt -0.962035 1.473844
vt 0.450344 1.386389
vt 0.540961 1.386389
vt 0.540961 1.157186
vt 0.450344 1.157186
vt 0.450344 -0.893199
vt 0.540961 -0.893199
vt 0.540961 0.167565
vt 0.450344 0.167565
vt 0.450344 0.750043
vt 0.540961 0.750043
vt 0.540961 0.523527
vt 0.450344 0.523527
vt 0.450344 1.219208
vt 0.540961 1.219208
vt 0.540961 1.192394
vt 0.450344 1.192394
vt 0.450344 1.192394
vt 0.540961 1.192393
vt 0.540961 1.219208
vt 0.450344 1.219208
vt 0.450344 -0.200608
vt 0.540961 -0.200608
vt 0.540961 0.522710
vt 0.450344 0.522710
vt 0.450344 -0.131953
vt 0.540961 -0.131953
vt 0.540961 -0.361146
vt 0.450344 -0.361146
vt 0.450344 0.167565
vt 0.540961 0.167565
vt 0.540961 -0.893199
vt 0.450344 -0.893199
vt -0.926163 -0.423130
vt 1.408655 -0.423130
vt 1.408655 -0.473244
vt -0.926162 -0.473244
vt 0.479829 -0.909742
vt 0.479830 1.425076
vt 0.511476 1.425076
vt 0.511476 -0.909742
vt -0.926163 -0.473244
vt 1.408655 -0.473244
vt 1.408654 -0.423129
vt -0.926163 -0.423130
vt 0.511476 1.425076
vt 0.479830 1.425076
vt -0.926163 1.461909
vt 1.448279 1.461911
vt 1.448282 1.411781
vt -0.926168 1.411817
vt 0.479830 1.464697
vt 0.511476 1.464697
vt -0.926174 1.411815
vt 1.448264 1.411780
vt 1.448268 1.461911
vt -0.926174 1.461907
vt 0.511476 1.464697
vt 0.479830 1.464697
vt -0.516412 1.694641
vt 1.214571 1.694743
vt 1.214573 1.644620
vt -0.516415 1.644537
vt 0.479829 -0.500007
vt 0.479830 1.230997
vt 0.511476 1.230997
vt 0.511476 -0.500007
vt -0.516436 1.644536
vt 1.214579 1.644623
vt 1.214581 1.694746
vt -0.516435 1.694640
vt 0.511476 -0.500007
vt 0.511476 1.230997
vt 0.479829 1.230997
vt 0.479829 -0.500007
vt -0.426130 -0.670397
vt 1.152383 -0.670466
vt 1.152382 -0.720577
vt -0.426130 -0.720513
vt 0.479829 -0.409663
vt 0.479830 1.168825
vt 0.511476 1.168825
vt 0.511476 -0.409663
vt -0.426181 -0.720502
vt 1.152298 -0.720577
vt 1.152301 -0.670467
vt -0.426180 -0.670398
vt 0.511476 -0.409663
vt 0.511476 1.168825
vt 0.479830 1.168825
vt 0.479829 -0.409663
vt 0.116451 0.220406
vt 0.116451 0.779594
vt 0.032947 0.779594
vt 0.032947 0.220406
s 1
usemtl Metal
f 1/1/1 2/2/1 4/3/1 3/4/1
f 3/5/2 4/6/2 8/7/2 7/8/2
f 7/4/3 8/3/3 6/2/3 5/1/3
f 5/8/4 6/7/4 2/6/4 1/5/4
f 9/9/1 10/10/1 12/11/1 11/12/1
f 11/5/2 12/13/2 16/14/2 15/8/2
f 15/12/3 16/11/3 14/10/3 13/9/3
f 13/8/4 14/14/4 10/13/4 9/5/4
f 17/15/1 18/16/1 20/17/1 19/18/1
f 19/5/2 20/19/2 24/20/2 23/8/2
f 23/18/3 24/17/3 22/16/3 21/15/3
f 21/8/4 22/20/4 18/19/4 17/5/4
f 25/21/1 26/22/1 28/23/1 27/24/1
f 27/5/2 28/25/2 32/26/2 31/8/2
f 31/24/3 32/23/3 30/22/3 29/21/3
f 29/8/4 30/26/4 26/25/4 25/5/4
f 33/27/1 35/28/1 36/29/1 34/30/1
f 35/5/4 39/8/4 40/7/4 36/6/4
f 39/28/3 37/27/3 38/30/3 40/29/3
f 37/8/2 33/5/2 34/6/2 38/7/2
f 41/31/1 43/32/1 44/33/1 42/34/1
f 43/5/4 47/8/4 48/14/4 44/13/4
f 47/32/3 45/31/3 46/34/3 48/33/3
f 45/8/2 41/5/2 42/13/2 46/14/2
f 49/35/1 51/36/1 52/37/1 50/38/1
f 51/5/4 55/8/4 56/39/4 52/40/4
f 55/36/3 53/35/3 54/38/3 56/37/3
f 53/8/2 49/5/2 50/40/2 54/39/2
f 57/41/1 59/42/1 60/43/1 58/44/1
f 59/5/4 63/8/4 64/26/4 60/25/4
f 63/42/3 61/41/3 62/44/3 64/43/3
f 61/8/2 57/5/2 58/25/2 62/26/2
f 65/45/1 66/46/1 68/47/1 67/48/1
f 67/49/5 68/50/5 72/51/5 71/52/5
f 71/48/3 72/47/3 70/46/3 69/45/3
f 69/52/6 70/51/6 66/50/6 65/49/6
f 73/53/1 74/54/1 76/55/1 75/56/1
f 75/57/5 76/58/5 80/59/5 79/60/5
f 79/56/3 80/55/3 78/54/3 77/53/3
f 77/60/6 78/59/6 74/58/6 73/57/6
f 81/61/1 82/62/1 84/63/1 83/64/1
f 83/65/5 84/66/5 88/67/5 87/68/5
f 87/64/3 88/63/3 86/62/3 85/61/3
f 85/68/6 86/67/6 82/66/6 81/65/6
f 112/69/3 123/70/3 122/71/3 111/72/3
f 101/73/1 100/74/1 89/75/1 90/76/1
f 103/77/1 102/78/1 91/79/1 92/80/1
f 104/81/1 105/82/1 94/83/1 97/84/1
f 106/85/1 101/86/1 90/87/1 93/88/1
f 124/89/3 128/90/3 117/91/3 113/92/3
f 105/93/1 103/94/1 92/95/1 94/96/1
f 107/97/1 108/98/1 95/99/1 99/100/1
f 108/101/1 109/102/1 96/103/1 95/104/1
f 109/105/1 104/106/1 97/107/1 96/108/1
f 100/109/1 110/110/1 98/111/1 89/112/1
f 110/113/1 107/114/1 99/115/1 98/116/1
f 114/117/3 125/118/3 124/119/3 113/120/3
f 115/121/3 126/122/3 127/123/3 116/124/3
f 117/125/3 128/126/3 123/127/3 112/128/3
f 91/129/6 93/130/6 128/131/6 124/132/6
f 113/133/5 117/134/5 106/135/5 102/136/5
f 116/137/3 127/138/3 125/139/3 114/140/3
f 118/141/3 129/142/3 130/143/3 119/144/3
f 119/145/3 130/146/3 131/103/3 120/147/3
f 120/148/3 131/149/3 126/150/3 115/151/3
f 111/152/3 122/153/3 132/154/3 121/155/3
f 121/156/3 132/157/3 129/158/3 118/159/3
f 108/160/6 119/161/6 120/162/7 109/163/7
f 101/164/8 112/165/8 111/166/9 100/167/9
f 103/168/10 114/169/10 113/170/11 102/171/11
f 92/172/12 125/173/12 127/174/13 94/175/13
f 100/176/9 111/177/9 121/178/14 110/179/14
f 104/180/15 115/181/15 116/182/16 105/183/16
f 95/184/5 130/185/5 129/186/17 99/187/17
f 110/188/14 121/189/14 118/190/18 107/191/18
f 106/192/19 117/193/19 112/194/8 101/195/8
f 96/196/20 131/197/20 130/198/5 95/199/5
f 89/200/21 122/201/21 123/202/22 90/203/22
f 102/92/1 106/204/1 93/205/1 91/206/1
f 97/207/23 126/208/23 131/209/20 96/210/20
f 91/211/24 124/212/24 125/213/12 92/214/12
f 105/215/16 116/216/16 114/217/10 103/218/10
f 98/219/25 132/220/25 122/221/21 89/222/21
f 94/223/13 127/224/13 126/225/23 97/226/23
f 107/227/18 118/228/18 119/229/6 108/230/6
f 99/231/17 129/232/17 132/233/25 98/234/25
f 90/235/22 123/236/22 128/237/26 93/238/26
f 133/239/1 134/240/1 136/241/1 135/242/1
f 135/243/2 136/244/2 140/245/2 139/246/2
f 139/247/3 140/248/3 138/249/3 137/250/3
f 137/246/4 138/251/4 134/252/4 133/243/4
f 141/253/1 142/254/1 144/255/1 143/256/1
f 143/243/2 144/257/2 148/258/2 147/246/2
f 147/259/3 148/260/3 146/261/3 145/262/3
f 145/246/4 146/263/4 142/264/4 141/243/4
f 149/265/1 150/266/1 152/267/1 151/268/1
f 151/269/2 152/270/2 156/271/2 155/272/2
f 155/273/3 156/274/3 154/275/3 153/276/3
f 153/277/4 154/278/4 150/279/4 149/280/4
f 157/281/1 158/282/1 160/283/1 159/284/1
f 159/285/2 160/286/2 164/287/2 163/288/2
f 163/289/3 164/290/3 162/291/3 161/292/3
f 161/293/4 162/294/4 158/295/4 157/296/4
f 120/297/7 115/298/15 104/299/15 109/300/7
