# Blender 4.5.9 LTS
# www.blender.org
mtllib SerwersP1_004.mtl
o SerwersP1_004
v -1.921355 0.371344 2.093360
v -2.093360 0.371344 -1.921355
v -1.926686 -0.310414 2.093360
v -2.093360 -0.310414 -1.926686
v -2.093360 -1.668468 1.240659
v 1.240658 -1.668468 2.093360
v 1.926686 -0.310414 2.093360
v -2.093360 -0.310414 1.926686
v -1.240659 -1.668468 2.093360
v -2.093360 -1.668468 -1.240659
v 1.921356 0.371343 2.093360
v -2.093360 0.371343 1.921356
v -0.000001 1.929367 2.093360
v -2.093360 1.929367 -0.000001
v 0.961888 1.680831 2.093360
v -2.093360 1.680831 0.961888
v -2.093360 1.106803 1.560336
v 1.560336 1.106803 2.093360
v -1.560335 1.106803 2.093360
v -2.093360 1.106803 -1.560335
v -0.961889 1.680831 2.093360
v -2.093360 1.680831 -0.961889
v -1.560335 1.106803 1.560336
v -1.921355 0.371344 1.921356
v 1.926686 -0.310414 -1.926686
v 1.921356 0.371343 -1.921355
v -0.000001 1.929367 -0.000001
v -0.961889 1.680831 0.961888
v 1.921356 0.371344 -1.921355
v 1.560336 1.106803 -1.560336
v 1.560336 1.106803 -1.560335
v -1.560335 1.106803 1.560336
v 0.961888 1.680831 -0.961890
v -1.926686 -0.310414 1.926686
v -1.240659 -1.668468 -1.240659
v -1.240659 -1.668468 1.240658
v -1.921355 0.371343 1.921356
v -1.926686 -0.310414 1.926686
v 1.240658 -1.668468 1.240658
v 1.240658 -1.668468 0.735293
v 1.240658 -1.668468 -1.240659
v 1.926686 -0.310414 -1.926686
v 0.735293 -1.668468 -1.240659
v -0.000000 -1.668468 -0.000001
vn 0.8073 -0.5902 -0.0000
vn 0.9732 -0.2300 -0.0000
vn 0.9563 -0.2924 -0.0000
vn 0.5051 -0.6707 -0.5431
vn -0.4871 -0.8734 -0.0000
vn -0.3239 -0.8889 0.3239
vn -0.5394 -0.7452 0.3921
vn -0.8073 -0.5902 -0.0000
vn -0.0000 -1.0000 -0.0000
vn 0.4871 -0.8734 -0.0000
vn 0.2016 -0.9585 -0.2016
vn -0.0630 -0.9960 0.0630
vn -0.9735 0.2285 -0.0000
vn -0.9737 0.2280 -0.0000
vn -0.9732 -0.2300 -0.0000
vn -0.9733 -0.2294 -0.0000
vn 0.3937 -0.7998 -0.4531
vn 0.9667 0.2559 -0.0000
vn 0.9737 0.2280 -0.0000
vn 0.8926 0.4509 -0.0000
vn 1.0000 -0.0078 -0.0000
vn -0.0000 1.0000 -0.0000
vn -0.0000 -0.8734 0.4871
vn -0.0000 -0.5902 0.8073
vn -0.5357 -0.6353 0.5562
vn -0.0000 0.2274 -0.9738
vn -0.0000 0.2280 -0.9737
vn -0.0000 -0.2300 -0.9732
vn -0.0000 -0.2305 -0.9731
vn -0.8926 0.4509 -0.0000
vn -0.0000 -0.5902 -0.8073
vn -0.0000 -0.4407 -0.8977
vn -0.0000 -0.8734 -0.4871
vn -0.0000 -0.2300 0.9732
vn -0.0000 0.2280 0.9737
vn -0.0000 0.1910 0.9816
vn -0.0000 -0.0078 1.0000
vn -0.0000 -0.1685 0.9857
vn -0.0000 0.4509 -0.8926
vn -0.0000 0.4509 0.8926
vn -0.8977 -0.4407 -0.0000
vt -0.607595 0.686525
vt -0.607596 0.505474
vt -0.554417 0.505474
vt -0.442800 0.686525
vt -0.607595 0.723454
vt 0.336998 0.723454
vt 0.522019 0.910801
vt -0.607595 0.910800
vt -0.607595 0.509351
vt -0.607595 0.218512
vt -0.257778 0.218512
vt 0.039610 0.509351
vt 0.635284 0.345330
vt -0.607595 0.345330
vt -0.607595 0.485184
vt 0.633636 0.485184
vt -0.607595 0.276546
vt -0.607595 0.089200
vt -0.442800 0.089200
vt -0.442800 0.089200
vt -0.257778 0.276546
vt -1.645419 0.997661
vt -1.766741 0.997661
vt -1.766741 0.009137
vt -1.146061 0.009137
vt -0.554417 0.485184
vt -0.607595 0.485184
vt -0.607595 0.345330
vt -0.556065 0.345330
vt 0.039610 0.490648
vt 0.336998 0.781487
vt -0.607595 0.781487
vt -0.607595 0.490648
vt -0.671763 0.005248
vt -0.671763 0.994752
vt -0.331721 0.994752
vt -0.331721 0.005248
vt 0.657782 0.005248
vt -0.130191 0.994752
vt 0.163031 0.500000
vt 0.657782 0.793222
vt 0.657782 0.994752
vt 0.522019 0.089200
vt 0.336997 0.276546
vt -1.766741 0.997661
vt 1.159440 0.997661
vt 0.660083 0.009138
vt -0.778207 0.009138
vt -1.146061 0.009138
vt -1.766741 0.009138
vt -0.554416 0.505474
vt -0.607595 0.505474
vt -0.607595 0.686525
vt -0.442800 0.686525
vt 0.039609 0.509351
vt 0.336997 0.218512
vt -0.257778 0.781487
vt 0.039610 0.490648
vt 0.635284 0.345330
vt 0.635286 0.345330
vt 0.633618 0.485184
vt 0.633636 0.485184
vt 0.633636 0.505474
vt 0.522019 0.686525
vt -0.442800 0.910800
vt -0.257778 0.723454
vt -0.331722 0.005248
vt -0.331722 0.994752
vt 0.657782 0.994752
vt 0.657782 0.793221
vt 0.163030 0.500000
vt 0.456252 0.005248
vt 0.657782 0.005248
vt -1.146062 0.009138
vt -1.146062 0.009137
vt 0.292229 0.009138
vt 0.660083 0.009138
s 1
usemtl brick_modern
f 19/1/1 1/2/2 24/3/3 23/4/4
f 15/5/5 33/6/6 31/7/7 18/8/8
f 13/9/9 21/10/10 28/11/11 27/12/12
f 25/13/13 7/14/14 11/15/15 26/16/16
f 21/17/10 19/18/1 23/19/4 32/20/17 28/21/11
f 37/26/21 24/26/3 1/27/2 3/28/19 34/29/18 38/29/21
f 27/30/12 33/31/6 15/32/5 13/33/9
f 22/17/23 20/18/24 30/43/25 31/43/7 33/44/6
f 38/29/26 8/14/27 12/15/28 37/26/29
f 37/51/29 12/52/28 17/53/31 32/54/17 23/54/4 24/3/32
f 27/55/12 14/9/9 22/10/23 33/56/6
f 28/57/11 16/32/33 14/33/9 27/58/12
f 2/27/34 4/28/35 42/59/36 25/60/37 26/61/37 29/62/38
f 20/1/24 2/2/34 29/63/38 30/64/25
f 32/65/17 17/8/31 16/5/33 28/66/11
f 29/63/41 26/63/16 11/52/15 18/53/8 31/64/7 30/64/25
usemtl concrete_bare_01
f 34/22/18 3/23/19 9/24/20 36/25/20
f 7/45/14 25/46/13 42/46/30 41/47/30 40/48/30 39/49/30 6/50/30
f 36/74/39 5/50/39 8/45/27 38/22/26 34/22/39
f 4/23/35 10/24/40 35/75/40 43/76/40 41/77/40 42/46/36
usemtl brick_pavement
f 9/34/22 6/35/22 39/36/22 36/37/22
f 35/38/22 36/37/22 39/36/22 40/39/22 44/40/22 43/41/22
f 43/41/22 44/40/22 40/39/22 41/42/22
f 35/67/22 10/34/22 5/35/22 36/68/22
f 35/67/22 36/68/22 39/69/22 40/70/22 44/71/22 43/72/22
f 43/72/22 44/71/22 40/70/22 41/73/22
