# Blender 4.5.9 LTS
# www.blender.org
mtllib Serwers_001.mtl
o Serwers_001
v 0.000000 3.386930 -4.386930
v -0.000000 3.386930 4.386930
v -4.386931 3.386930 -0.000000
v -4.386931 -2.882610 -0.000000
v -0.000000 -2.882610 4.386930
v 0.000000 -2.882610 -4.386930
v -0.979492 -2.882610 -4.386930
v -4.386931 -2.882610 -0.979492
v -0.979493 -2.882610 4.386930
v -4.386931 -2.111717 -1.157323
v -1.157324 -2.111717 4.386930
v -1.157324 -2.111717 -4.386930
v -2.648009 -2.111717 -4.386930
v -2.648010 -2.111717 4.386930
v -4.386931 -2.111717 -2.648009
v -3.302014 -0.753663 -4.386930
v -3.302014 -0.753663 4.386930
v -4.386931 -0.753663 -3.302013
v -3.302014 0.753663 -4.386930
v -3.302014 0.753663 4.386930
v -4.386931 0.753663 -3.302013
v -2.648010 2.111717 -4.386930
v -2.648010 2.111717 4.386930
v -4.386931 2.111717 -2.648009
v -1.469535 3.051519 -4.386930
v -4.386931 3.051519 -1.469534
v -1.469535 3.051519 4.386930
v -4.386931 -2.882610 0.979492
v -4.386931 -2.111717 1.157323
v -4.386931 -2.111717 2.648009
v -4.386931 -0.753663 3.302013
v -4.386931 0.753663 3.302013
v -4.386931 2.111717 2.648009
v -4.386931 3.051519 1.469534
v -1.157324 -2.111717 -1.157323
v -2.648009 -2.111717 -1.157323
v -0.979493 -2.882610 -0.979492
v 0.000000 -2.882610 -0.979492
v -2.648009 -2.111717 -2.648009
v -1.157324 -2.111717 -2.648009
v -3.302014 -0.753663 -3.302013
v -3.302014 0.753663 -3.302013
v -2.648010 2.111717 -2.648009
v -1.469535 3.051519 -1.469534
v -0.000000 3.386930 -0.000000
v -0.979493 -2.882610 0.979492
v 0.000000 -2.882610 0.979492
v -0.631380 -2.882610 0.979492
v -1.157324 -2.111717 1.157323
v -2.648010 -2.111717 1.157323
v -3.302014 -0.753663 3.302013
v -2.648010 -2.111717 2.648009
v -1.157324 -2.111717 2.648009
v -3.302014 0.753663 3.302013
v -2.648010 2.111717 2.648009
v -1.469535 3.051519 1.469534
v -0.979493 -2.882610 -0.000000
v -0.979493 -2.882610 0.631379
v 0.000000 -2.882610 -0.489746
v 0.000000 -2.882610 0.000000
v -0.572534 -2.882610 0.572534
v 0.979493 -2.882610 -4.386930
v 0.979493 -2.882610 4.386930
v 1.157324 -2.111717 4.386930
v 1.157324 -2.111717 -4.386930
v 2.648010 -2.111717 -4.386930
v 2.648010 -2.111717 4.386930
v 3.302014 -0.753663 -4.386930
v 3.302014 -0.753663 4.386930
v 3.302014 0.753663 -4.386930
v 3.302014 0.753663 4.386930
v 2.648010 2.111717 -4.386930
v 2.648009 2.111717 4.386930
v 1.469535 3.051519 -4.386930
v 1.469535 3.051519 4.386930
v 1.157324 -2.111717 -1.157323
v 2.648010 -2.111717 -1.157323
v 0.979493 -2.882610 -0.979492
v 2.648010 -2.111717 -2.648009
v 1.157324 -2.111717 -2.648009
v 0.979493 -2.882610 0.979492
v 0.631380 -2.882610 0.979492
v 1.157324 -2.111717 1.157323
v 2.648010 -2.111717 1.157323
v 2.648010 -2.111717 2.648009
v 1.157324 -2.111717 2.648009
v 0.979493 -2.882610 0.000000
v 0.979493 -2.882610 0.631379
v 0.572535 -2.882610 0.572534
v 0.000000 3.394422 -4.763533
v 0.000000 -2.890102 -4.763533
v -0.981833 -2.890102 -4.763533
v -1.160089 -2.117366 -4.763533
v -2.654337 -2.117366 -4.763533
v -3.309905 -0.756067 -4.763533
v -3.309905 0.754861 -4.763533
v -2.654338 2.116160 -4.763533
v -1.473047 3.058209 -4.763533
v 0.981834 -2.890102 -4.763533
v 1.160090 -2.117366 -4.763533
v 2.654338 -2.117366 -4.763533
v 3.309905 -0.756067 -4.763533
v 3.309905 0.754862 -4.763533
v 2.654338 2.116160 -4.763533
v 1.473047 3.058209 -4.763533
v -0.000000 3.416874 4.699299
v -0.000000 -2.912554 4.699299
v -0.988849 -2.912554 4.699299
v -1.168379 -2.134297 4.699299
v -2.673304 -2.134297 4.699299
v -3.333555 -0.763271 4.699299
v -3.333555 0.758453 4.699299
v -2.673304 2.129479 4.699299
v -1.483572 3.078259 4.699299
v 0.988849 -2.912554 4.699299
v 1.168379 -2.134297 4.699299
v 2.673304 -2.134297 4.699299
v 3.333555 -0.763271 4.699299
v 3.333555 0.758453 4.699299
v 2.673303 2.129479 4.699299
v 1.483572 3.078259 4.699299
v -4.761774 3.499008 -0.000000
v -4.761774 -2.994689 -0.000000
v -4.761774 -2.994689 -1.014512
v -4.761774 -2.196233 -1.198702
v -4.761774 -2.196233 -2.742684
v -4.761774 -0.789625 -3.420071
v -4.761774 0.771593 -3.420071
v -4.761774 2.178202 -2.742684
v -4.761774 3.151605 -1.522075
v -4.761774 -2.994689 1.014512
v -4.761774 -2.196233 1.198701
v -4.761774 -2.196233 2.742683
v -4.761774 -0.789625 3.420070
v -4.761774 0.771593 3.420070
v -4.761774 2.178202 2.742683
v -4.761774 3.151605 1.522074
vn -0.0000 1.0000 -0.0000
vn -0.1488 0.9889 -0.0000
vn -0.1448 0.9895 -0.0000
vn -0.0000 0.2248 0.9744
vn -0.0733 0.2242 0.9718
vn -0.0844 0.2240 0.9709
vn -0.1186 0.9929 -0.0000
vn -0.1067 0.9943 -0.0000
vn -0.1609 0.4282 0.8892
vn -0.0000 0.4339 0.9010
vn -0.0000 0.2481 0.9687
vn -0.1616 0.2180 0.9625
vn -0.0000 -0.2481 0.9687
vn -0.1566 -0.2214 0.9625
vn -0.0000 -0.6781 0.7350
vn -0.1520 -0.6173 0.7719
vn 0.1758 -0.9686 0.1758
vn -0.1489 -0.8912 0.4284
vn -0.0556 -0.9985 -0.0000
vn -0.1478 -0.9890 -0.0000
vn -0.0000 0.2248 -0.9744
vn -0.0844 0.2240 -0.9709
vn -0.0733 0.2242 -0.9718
vn -0.0000 0.2481 -0.9687
vn -0.0000 0.4339 -0.9010
vn -0.1609 0.4282 -0.8892
vn -0.1616 0.2180 -0.9625
vn -0.0000 -0.2481 -0.9687
vn -0.1566 -0.2214 -0.9625
vn -0.0000 -0.6781 -0.7350
vn -0.1520 -0.6173 -0.7719
vn -0.1489 -0.8912 -0.4284
vn 0.1758 -0.9686 -0.1758
vn 0.9744 0.2248 -0.0000
vn 0.9687 0.2481 -0.0000
vn 0.9010 0.4339 -0.0000
vn 0.9749 0.2225 -0.0000
vn 0.9749 -0.2225 -0.0000
vn 0.9687 -0.2481 -0.0000
vn 0.7818 -0.6235 -0.0000
vn 0.7350 -0.6781 -0.0000
vn 0.4339 -0.9010 -0.0000
vn -0.0000 -1.0000 -0.0000
vn -0.9744 0.2248 -0.0000
vn -0.9749 0.2225 -0.0000
vn -0.9010 0.4339 -0.0000
vn -0.9749 -0.2225 -0.0000
vn -0.7818 -0.6235 -0.0000
vn -0.4339 -0.9010 -0.0000
vn -0.9008 0.4338 -0.0216
vn -0.9747 0.2223 -0.0218
vn -0.9746 0.2227 -0.0218
vn -0.9744 0.2248 -0.0105
vn 0.4337 -0.9008 -0.0200
vn 0.7816 -0.6235 -0.0205
vn 0.7818 -0.6232 -0.0205
vn 0.4339 -0.9007 -0.0200
vn -0.4337 -0.9008 -0.0200
vn -0.0000 -0.9998 -0.0199
vn -0.4339 -0.9007 -0.0200
vn -0.9747 -0.2227 -0.0211
vn -0.9748 -0.2223 -0.0211
vn 0.9744 0.2248 -0.0105
vn 0.9747 0.2223 -0.0218
vn 0.9008 0.4338 -0.0216
vn 0.9746 0.2227 -0.0218
vn 0.9747 -0.2227 -0.0211
vn 0.9748 -0.2223 -0.0211
vn -0.0000 0.9998 -0.0199
vn -0.7816 -0.6235 -0.0205
vn -0.7818 -0.6232 -0.0205
vn -0.0000 0.9999 -0.0150
vn -0.0000 0.9974 0.0721
vn 0.9698 0.2202 0.1047
vn 0.9697 -0.2224 0.1013
vn 0.9701 -0.2204 0.1013
vn 0.9693 0.2223 0.1047
vn -0.9698 0.2202 0.1047
vn -0.8961 0.4315 0.1038
vn -0.9693 0.2223 0.1047
vn 0.7775 -0.6211 0.0983
vn 0.4314 -0.8970 0.0962
vn 0.4323 -0.8966 0.0962
vn 0.7786 -0.6198 0.0983
vn -0.9732 0.2245 0.0507
vn -0.0000 -0.9954 0.0954
vn -0.4314 -0.8970 0.0962
vn -0.4323 -0.8966 0.0962
vn -0.9697 -0.2224 0.1013
vn -0.9701 -0.2204 0.1013
vn 0.9732 0.2245 0.0507
vn 0.8961 0.4315 0.1038
vn -0.0000 0.9954 0.0954
vn -0.7775 -0.6211 0.0983
vn -0.7786 -0.6198 0.0983
vn -0.2944 -0.5941 0.7486
vn -0.3028 -0.2093 0.9298
vn -0.2199 0.9755 -0.0000
vn -0.2886 -0.8621 -0.4166
vn -0.2865 -0.9581 -0.0000
vn -0.3121 0.2142 0.9256
vn -0.3094 0.4126 0.8568
vn -0.3121 0.2142 -0.9256
vn -0.3028 -0.2093 -0.9298
vn -0.1563 0.2220 0.9624
vn -0.2886 -0.8621 0.4166
vn -0.2865 0.9581 -0.0000
vn -0.2944 -0.5941 -0.7486
vn -0.1563 0.2220 -0.9624
vn -0.3094 0.4126 -0.8568
vt 0.308444 1.237606
vt 0.308444 1.006753
vt -0.494644 1.006753
vt -0.494644 1.237606
vt 0.539298 1.237606
vt 0.266532 0.195233
vt -0.084803 0.195233
vt -0.494644 0.195233
vt -0.494644 0.013544
vt 0.308444 0.013544
vt -0.084803 0.997347
vt -0.084803 0.646012
vt -0.494644 0.646012
vt -0.494644 0.997347
vt 0.736117 0.995588
vt 1.040246 0.995588
vt 1.040246 0.691459
vt -0.327959 0.005138
vt -0.025010 0.005138
vt -0.138949 0.241734
vt -0.327959 0.241734
vt -0.327959 0.241734
vt -0.138949 0.504335
vt -0.327959 0.504334
vt -0.327959 0.504335
vt -0.025010 0.740930
vt -0.327959 0.740930
vt -0.327959 0.533535
vt -0.025010 0.533535
vt 0.180299 0.738845
vt -0.327959 0.738845
vt -0.327959 0.738845
vt 0.436316 0.994861
vt -0.327959 0.994861
vt 0.308444 1.088799
vt -0.494644 1.237607
vt -0.494644 1.006753
vt 0.404359 1.102668
vt 0.390490 1.006753
vt -0.084803 0.195233
vt 0.266532 0.195233
vt -0.494644 0.013544
vt -0.494644 0.195233
vt -0.084803 0.646012
vt -0.084803 0.997347
vt -0.040246 0.691459
vt -0.040246 0.995588
vt 0.263883 0.995588
vt -0.138949 0.241734
vt -0.025010 0.005138
vt -0.327959 0.241734
vt -0.327959 0.241734
vt -0.327959 0.504334
vt -0.025010 0.740930
vt -0.327959 0.504335
vt -0.327959 0.740930
vt -0.327959 0.738845
vt 0.180299 0.738845
vt -0.025010 0.533535
vt -0.327959 0.533535
vt -0.327959 0.994861
vt -0.327959 0.738845
vt 0.770151 1.236073
vt 1.573239 1.237779
vt 1.573239 1.007217
vt 0.770151 1.006753
vt -0.494644 1.006753
vt -0.494644 1.237606
vt 1.573239 0.195233
vt 1.163398 0.195233
vt 0.812064 0.195233
vt 0.770151 0.013544
vt 1.573240 0.013544
vt -0.494644 0.013544
vt 1.163399 0.646012
vt 1.163399 0.997347
vt 1.573240 0.997347
vt 1.573240 0.646012
vt -0.084803 0.684337
vt -0.499574 0.684337
vt -0.499574 0.997347
vt -0.084803 0.997347
vt 1.011581 0.241734
vt 0.897642 0.005138
vt 1.200591 0.005138
vt 1.200591 0.241734
vt -0.327959 0.005138
vt -0.025010 0.005138
vt -0.327959 0.241734
vt 0.921226 0.502913
vt 1.109877 0.502913
vt 1.109877 0.240812
vt 0.921226 0.240812
vt 0.920944 0.240812
vt 0.920944 0.502913
vt 1.109596 0.502913
vt 1.109596 0.240812
vt 1.200591 0.740930
vt 0.897642 0.740930
vt 1.011581 0.504334
vt 1.200592 0.504334
vt -0.327959 0.504335
vt -0.025010 0.740930
vt -0.327959 0.740930
vt 0.692333 0.738845
vt 0.897642 0.533535
vt 1.200591 0.533535
vt 1.200591 0.738845
vt -0.327959 0.738845
vt -0.327959 0.533535
vt -0.025010 0.533535
vt 1.200591 0.738845
vt 1.200591 0.994862
vt -0.327959 0.994861
vt -0.327959 0.738845
vt 0.266532 0.997347
vt 0.002985 0.647853
vt 0.002985 0.999616
vt 0.354747 0.999616
vt 0.654724 1.237606
vt 0.781610 0.007589
vt 0.580941 0.007589
vt 0.781610 0.208258
vt 0.910960 0.007589
vt 0.898905 0.090963
vt 1.573239 1.007217
vt -0.494644 1.006753
vt 1.573239 0.013544
vt -0.494644 0.013544
vt 1.573240 0.646012
vt 1.573240 0.997347
vt 1.200591 0.241734
vt 1.200591 0.005138
vt -0.327959 0.005138
vt -0.327959 0.241734
vt -0.317228 0.509513
vt -0.317228 0.252206
vt 1.180509 0.252206
vt 1.180509 0.509513
vt 1.200591 0.740930
vt 1.200591 0.504334
vt -0.327959 0.504335
vt -0.327959 0.740930
vt 1.200591 0.533535
vt -0.327959 0.533535
vt 0.983948 0.616620
vt 0.171590 0.616620
vt 0.171590 0.344496
vt 0.718527 0.991537
vt 1.000000 0.710064
vt 0.718527 0.710064
vt 0.000000 0.710064
vt 0.281473 0.991537
vt 0.281473 0.710064
vt 0.982278 0.007589
vt 0.784895 0.187051
vt 0.240714 0.187051
vt 0.743087 0.005812
vt 0.282523 0.005812
vt 1.200591 0.738845
vt -0.327959 0.738845
vt -0.327959 0.994861
s 1
usemtl concrete_base
f 57/1/1 37/2/1 8/3/2 4/4/3
f 57/1/1 60/5/1 37/2/1
f 35/6/4 36/7/4 10/8/5 8/9/6 37/10/4
f 36/11/1 39/12/1 15/13/7 10/14/8
f 35/15/1 40/16/1 39/17/1
f 46/2/1 58/35/1 57/1/1 4/36/3 28/37/2
f 58/35/1 61/38/1 60/5/1 57/1/1
f 48/39/1 61/38/1 46/2/1
f 50/40/21 49/41/21 46/10/21 28/42/22 29/43/23
f 52/44/1 50/45/1 29/14/8 30/13/7
f 52/46/1 53/47/1 49/48/1
f 38/63/1 6/64/1 7/65/1 37/66/1
f 48/35/1 46/2/1 9/67/1 5/68/1 47/1/1
f 48/35/1 61/38/1 46/2/1
f 12/69/34 40/70/34 35/71/34 37/72/34 7/73/34
f 49/41/34 53/40/34 11/43/34 9/74/34 46/10/34
f 39/75/1 40/76/1 12/77/1 13/78/1
f 52/79/1 14/80/1 11/81/1 53/82/1
f 49/116/1 50/45/1 52/79/1
f 39/117/1 36/118/1 35/119/1
f 61/38/1 58/39/1 46/2/1
f 61/38/1 58/35/1 46/2/1
f 61/38/1 48/35/1 47/1/1 60/5/1
f 60/5/1 59/120/1 38/63/1 37/66/1
f 87/121/1 78/122/1 60/123/1
f 76/15/1 79/17/1 80/16/1
f 88/124/1 87/121/1 60/123/1 89/125/1
f 82/39/1 81/2/1 89/38/1
f 85/46/1 83/48/1 86/47/1
f 38/63/1 78/66/1 62/126/1 6/64/1
f 82/35/1 47/1/1 5/4/1 63/127/1 81/2/1
f 82/35/1 81/2/1 89/38/1
f 65/69/44 62/128/44 78/72/44 76/71/44 80/70/44
f 83/41/44 81/10/44 63/129/44 64/43/44 86/40/44
f 79/75/1 66/130/1 65/131/1 80/76/1
f 85/79/1 86/82/1 64/81/1 67/80/1
f 83/149/1 85/150/1 84/151/1
f 79/152/1 76/153/1 77/154/1
f 89/38/1 81/2/1 88/39/1
f 89/125/1 81/155/1 88/124/1
f 89/38/1 60/5/1 47/1/1 82/35/1
f 60/5/1 78/66/1 38/63/1 59/120/1
f 83/156/44 76/157/44 81/158/44
f 81/158/44 76/157/44 78/159/44
f 76/153/1 84/151/1 77/154/1
f 76/153/1 83/149/1 84/151/1
f 62/128/53 65/69/53 100/69/53 99/128/53
f 12/69/63 7/73/63 92/73/63 93/69/63
f 6/64/69 62/126/69 99/126/69 91/64/69
f 7/65/69 6/64/69 91/64/69 92/65/69
f 65/131/72 66/130/72 101/130/72 100/131/72
f 13/78/72 12/77/72 93/77/72 94/78/72
f 11/81/73 14/80/73 110/80/73 109/81/73
f 64/43/85 63/129/85 115/129/85 116/43/85
f 9/74/91 11/43/91 109/43/91 108/74/91
f 63/127/93 5/4/93 107/4/93 115/127/93
f 67/80/73 64/81/73 116/81/73 117/80/73
f 5/68/93 9/67/93 108/67/93 107/68/93
f 30/13/7 29/14/8 132/14/98 133/13/98
f 8/9/6 10/8/5 125/8/105 124/9/105
f 4/4/3 8/3/2 124/3/107 123/4/107
f 28/37/2 4/36/3 123/36/107 131/37/107
f 29/43/23 28/42/22 131/42/109 132/43/109
f 10/14/8 15/13/7 126/13/98 125/14/98
usemtl brick_modern_01
f 15/18/9 39/19/10 41/20/11 18/21/12
f 18/22/12 41/20/11 42/23/13 21/24/14
f 21/25/14 42/23/13 43/26/15 24/27/16
f 24/28/16 43/29/15 44/30/17 26/31/18
f 26/32/18 44/30/17 45/33/19 3/34/20
f 51/49/24 52/50/25 30/18/26 31/51/27
f 54/23/28 51/49/24 31/52/27 32/53/29
f 55/54/30 54/23/28 32/55/29 33/56/31
f 34/57/32 56/58/33 55/59/30 33/60/31
f 3/61/20 45/33/19 56/58/33 34/62/32
f 41/83/35 39/84/36 13/85/36 16/86/37
f 14/87/36 52/88/36 51/49/35 17/89/37
f 19/90/38 42/91/39 41/92/35 16/93/37
f 51/94/35 54/95/39 20/96/38 17/97/37
f 22/98/40 43/99/41 42/100/39 19/101/38
f 20/102/38 54/23/39 55/103/41 23/104/40
f 44/105/17 43/106/41 22/107/40 25/108/42
f 27/109/42 23/110/40 55/111/41 56/58/33
f 45/33/19 44/105/17 25/112/42 1/113/43
f 2/114/43 27/115/42 56/58/33 45/33/19
f 68/132/45 66/133/46 79/84/46 85/88/46 67/134/46 69/135/45
f 70/136/47 68/137/45 69/138/45 71/139/47
f 72/140/48 70/141/47 71/142/47 73/143/48
f 74/108/49 72/144/48 73/145/48 75/32/49
f 45/146/19 1/147/43 74/148/49
f 74/160/49 75/161/49 45/33/19
f 75/161/49 2/162/43 45/33/19
f 66/133/50 68/132/51 102/132/52 101/133/50
f 25/108/54 22/107/55 97/107/56 98/108/57
f 74/148/58 1/147/59 90/147/59 105/148/60
f 68/137/51 70/136/61 103/136/62 102/137/52
f 16/86/64 13/85/65 94/85/65 95/86/66
f 22/98/55 19/101/67 96/101/68 97/98/56
f 70/141/61 72/140/70 104/140/71 103/141/62
f 1/113/59 25/112/54 98/112/57 90/113/59
f 72/144/70 74/108/58 105/108/60 104/144/71
f 19/90/67 16/93/64 95/93/66 96/90/68
f 17/97/74 20/96/75 112/96/76 111/97/77
f 69/135/78 67/134/79 117/134/79 118/135/80
f 23/110/81 27/109/82 114/109/83 113/110/84
f 2/162/86 75/161/87 121/161/88 106/162/86
f 71/139/89 69/138/78 118/138/80 119/139/90
f 14/87/92 17/89/74 111/89/77 110/87/92
f 20/102/75 23/104/81 113/104/84 112/102/76
f 73/143/94 71/142/89 119/142/90 120/143/95
f 27/115/82 2/114/86 106/114/86 114/115/83
f 75/32/87 73/145/94 120/145/95 121/32/88
f 21/25/14 24/27/16 129/27/96 128/25/97
f 3/61/20 34/62/32 137/62/99 122/61/100
f 15/18/9 18/21/12 127/21/101 126/18/102
f 32/53/29 31/52/27 134/52/103 135/53/104
f 24/28/16 26/31/18 130/31/106 129/28/96
f 33/56/31 32/55/29 135/55/104 136/56/108
f 18/22/12 21/24/14 128/24/97 127/22/101
f 31/51/27 30/18/26 133/18/110 134/51/103
f 26/32/18 3/34/20 122/34/100 130/32/106
f 34/57/32 33/60/31 136/60/108 137/57/99
