# Blender 4.5.9 LTS
# www.blender.org
mtllib SerwersP1_009.mtl
o SerwersP1_009
v -0.090856 0.346820 -1.921355
v -0.090856 -0.334938 -1.926686
v -0.090856 -1.692991 1.240659
v -0.090856 -0.334937 1.926686
v -0.090856 -1.692991 -1.240659
v -0.090856 0.346820 1.921356
v -0.090856 1.904843 -0.000001
v -0.090856 1.656308 0.961888
v -0.090856 1.082280 1.560336
v -0.090856 1.082279 -1.560336
v -0.090856 1.656307 -0.961890
v 0.090856 0.346820 -1.921355
v 0.090856 -0.334938 -1.926686
v 0.090856 -1.692991 1.240659
v 0.090856 -0.334937 1.926686
v 0.090856 1.082280 1.560336
v 0.090856 0.346820 1.921356
v 0.090856 -1.692991 -1.240659
v 0.090856 1.656307 -0.961890
v 0.090856 1.904843 -0.000001
v 0.090856 1.656308 0.961888
v 0.090856 1.082279 -1.560336
vn -1.0000 -0.0000 -0.0000
vn 1.0000 -0.0000 -0.0000
vn -0.0000 1.0000 -0.0000
vn -0.0000 0.8734 -0.4871
vn -0.0000 -0.2280 -0.9737
vn -0.0000 -0.8517 -0.5240
vn -0.0000 0.5902 -0.8073
vn -0.0000 0.2300 -0.9732
vn -0.0000 0.8734 0.4871
vn -0.0000 -0.2280 0.9737
vn -0.0000 0.2300 0.9732
vn -0.0000 -0.8517 0.5240
vn -0.0000 0.5902 0.8073
vt 1.231069 0.194310
vt 0.039720 0.194310
vt 0.041368 0.405089
vt 1.229421 0.405089
vt -0.423928 0.009287
vt 1.382217 0.009287
vt 1.881574 0.997811
vt -0.923285 0.997811
vt 1.229421 0.405089
vt 0.041368 0.405089
vt 0.152985 0.632472
vt 0.338008 0.809944
vt 0.635395 0.886784
vt 0.932783 0.809944
vt 1.117804 0.632472
s 1
usemtl brick_modern
f 2/1/1 4/2/1 6/3/1 1/4/1
f 1/9/1 6/10/1 9/11/1 8/12/1 7/13/1 11/14/1 10/15/1
f 13/1/2 12/4/2 17/3/2 15/2/2
f 12/9/2 22/15/2 19/14/2 20/13/2 21/12/2 16/11/2 17/10/2
f 7/13/3 20/13/3 19/14/4 11/14/4
f 11/14/4 19/14/4 22/15/7 10/15/7
f 1/4/8 12/4/8 13/1/5 2/1/5
f 8/12/9 21/12/9 20/13/3 7/13/3
f 4/2/10 15/2/10 17/3/11 6/3/11
f 9/11/13 16/11/13 21/12/9 8/12/9
f 6/10/11 17/10/11 16/11/13 9/11/13
f 10/15/7 22/15/7 12/9/8 1/9/8
usemtl concrete_bare_01
f 5/5/1 3/6/1 4/7/1 2/8/1
f 18/5/2 13/8/2 15/7/2 14/6/2
f 2/8/5 13/8/5 18/5/6 5/5/6
f 3/6/12 14/6/12 15/7/10 4/7/10
f 5/5/6 18/5/6 14/6/12 3/6/12
