# Blender 4.5.9 LTS
# www.blender.org
mtllib Serwers01_001.mtl
o Serwers01_001
v 3.669863 -3.458937 0.109288
v 4.289523 -3.435214 0.143979
v 4.113253 -2.538234 0.143979
v 4.564775 -2.600286 0.143979
v 4.087216 -1.396697 0.143980
v 4.535801 -1.329985 0.143980
v 3.844846 -0.529268 0.143980
v 4.260550 -0.344874 0.143980
v 3.318291 0.305907 0.143980
v 3.653967 0.617234 0.143980
v 2.377238 1.003284 0.144445
v 2.595767 1.401423 0.144445
v 1.339506 1.401256 0.144445
v 1.439286 1.844936 0.144445
v 0.336716 1.477833 0.144445
v 0.363399 1.927095 0.144445
v 0.000000 1.492129 0.131531
v 0.000000 1.942524 0.131531
v -3.669863 -3.458937 0.109288
v -4.289523 -3.435214 0.143979
v -4.113253 -2.538234 0.143979
v -4.564775 -2.600286 0.143979
v -4.087216 -1.396697 0.143980
v -4.535801 -1.329985 0.143980
v -3.844846 -0.529268 0.143980
v -4.260550 -0.344874 0.143980
v -3.318291 0.305907 0.143980
v -3.653967 0.617234 0.143980
v -2.377238 1.003284 0.144445
v -2.595767 1.401423 0.144445
v -1.339506 1.401256 0.144445
v -1.439285 1.844936 0.144445
v -0.336716 1.477833 0.144445
v -0.363399 1.927095 0.144445
v 4.289523 -3.435214 -1.270992
v 3.669863 -3.458937 -1.236300
v 4.113253 -2.538234 -1.270992
v 4.564775 -2.600286 -1.270992
v 4.087216 -1.396697 -1.270991
v 4.535801 -1.329985 -1.270991
v 3.844846 -0.529268 -1.270991
v 4.260550 -0.344874 -1.270991
v 3.318291 0.305907 -1.270991
v 3.653967 0.617234 -1.270991
v 2.377238 1.003284 -1.270526
v 2.595767 1.401423 -1.270526
v 1.339506 1.401256 -1.270526
v 1.439286 1.844936 -1.270526
v 0.336716 1.477833 -1.270526
v 0.363399 1.927095 -1.270526
v 0.000000 1.492129 -1.283440
v 0.000000 1.942524 -1.283440
v -3.669863 -3.458937 -1.236300
v -4.289523 -3.435214 -1.270992
v -4.564775 -2.600286 -1.270992
v -4.113253 -2.538234 -1.270992
v -4.535801 -1.329985 -1.270991
v -4.087216 -1.396697 -1.270991
v -4.260550 -0.344874 -1.270991
v -3.844846 -0.529268 -1.270991
v -3.653967 0.617234 -1.270991
v -3.318291 0.305907 -1.270991
v -2.595767 1.401423 -1.270526
v -2.377238 1.003284 -1.270526
v -1.439285 1.844936 -1.270526
v -1.339506 1.401256 -1.270526
v -0.363399 1.927095 -1.270526
v -0.336716 1.477833 -1.270526
v 4.289523 -4.215601 0.143979
v 4.289523 -4.215601 -1.270992
v 3.669863 -4.209085 0.109288
v 3.669863 -4.209085 -1.236300
v -3.669863 -4.209085 0.109288
v -3.669863 -4.209085 -1.236300
v -4.289523 -4.215601 0.143979
v -4.289523 -4.215601 -1.270992
vn -0.0000 0.0011 1.0000
vn 0.0184 0.0005 0.9998
vn -0.0000 -0.0000 1.0000
vn -0.0001 -0.0001 1.0000
vn 0.0162 -0.0032 0.9999
vn 0.0170 -0.0033 0.9999
vn 0.0429 -0.0036 0.9991
vn 0.0465 -0.0026 0.9989
vn -0.0184 0.0005 0.9998
vn 0.0001 -0.0001 1.0000
vn -0.0170 -0.0033 0.9999
vn -0.0162 -0.0032 0.9999
vn -0.0326 -0.0064 0.9994
vn 1.0000 -0.0000 -0.0000
vn -0.0559 -0.0000 0.9984
vn -0.0326 -0.0064 -0.9994
vn -0.0170 -0.0033 -0.9999
vn -0.0162 -0.0032 -0.9999
vn -0.0000 -0.0000 -1.0000
vn -0.0001 0.0001 -1.0000
vn 0.0184 -0.0005 -0.9998
vn -0.0000 -0.0011 -1.0000
vn 0.0162 -0.0032 -0.9999
vn 0.0170 -0.0033 -0.9999
vn 0.0326 -0.0064 -0.9994
vn 0.0001 0.0001 -1.0000
vn -0.0184 -0.0005 -0.9998
vn -0.0595 0.9982 -0.0000
vn -0.0000 1.0000 -0.0000
vn -0.0591 0.9983 -0.0000
vn 0.0595 -0.9982 -0.0000
vn 0.0591 -0.9983 -0.0000
vn -0.0000 -1.0000 -0.0000
vn -0.2194 0.9756 -0.0000
vn 0.2194 -0.9756 -0.0000
vn -0.4811 0.8766 -0.0000
vn -0.4812 0.8766 -0.0000
vn 0.4811 -0.8766 -0.0000
vn 0.4812 -0.8766 -0.0000
vn -0.7332 0.6800 -0.0000
vn 0.7332 -0.6800 -0.0000
vn -0.9141 0.4055 -0.0000
vn 0.9141 -0.4055 -0.0000
vn -0.9891 0.1471 -0.0000
vn 0.9891 -0.1471 -0.0000
vn -0.9997 0.0228 -0.0000
vn 0.9997 -0.0228 -0.0000
vn -0.9497 -0.3131 -0.0000
vn 0.9010 0.4339 -0.0000
vn 0.0595 0.9982 -0.0000
vn 0.0591 0.9983 -0.0000
vn -0.0591 -0.9983 -0.0000
vn -0.0595 -0.9982 -0.0000
vn 0.2194 0.9756 -0.0000
vn -0.2194 -0.9756 -0.0000
vn 0.4811 0.8766 -0.0000
vn 0.4812 0.8766 -0.0000
vn -0.4812 -0.8766 -0.0000
vn -0.4811 -0.8766 -0.0000
vn 0.7332 0.6800 -0.0000
vn -0.7332 -0.6800 -0.0000
vn 0.9141 0.4055 -0.0000
vn -0.9141 -0.4055 -0.0000
vn 0.9891 0.1471 -0.0000
vn -0.9891 -0.1471 -0.0000
vn 0.9997 0.0228 -0.0000
vn -0.9997 -0.0228 -0.0000
vn 0.9497 -0.3131 -0.0000
vn -0.9010 0.4339 -0.0000
vn -0.0105 -0.9999 -0.0000
vn 0.0105 -0.9999 -0.0000
vn 0.0559 -0.0000 0.9984
vn -1.0000 -0.0000 -0.0000
vn -0.0559 -0.0000 -0.9984
vn 0.0559 -0.0000 -0.9984
vt 0.475920 0.710922
vt 0.536252 0.710922
vt 0.534186 0.759600
vt 0.474005 0.756026
vt 0.523180 0.903719
vt 0.463748 0.890353
vt -0.015031 0.849497
vt -0.075948 0.849497
vt -0.075948 0.703215
vt -0.015031 0.703215
vt -0.075948 0.548322
vt -0.015031 0.548322
vt -0.075948 0.416068
vt -0.015031 0.416068
vt -0.075948 0.296338
vt -0.015031 0.296338
vt -0.047497 0.299873
vt -0.107587 0.308810
vt -0.111468 0.138648
vt -0.050985 0.146960
vt -0.074597 0.026807
vt -0.016940 0.026219
vt 0.474005 0.665817
vt 0.534186 0.662243
vt 0.463748 0.531490
vt 0.523180 0.518124
vt 1.047497 0.709860
vt 1.108248 0.709860
vt 1.108248 0.857259
vt 1.047497 0.857259
vt 1.047497 0.553783
vt 1.108248 0.553783
vt 1.047497 0.420519
vt 1.108248 0.420519
vt 1.047497 0.299873
vt 1.108248 0.299873
vt 1.050985 0.146960
vt 1.111468 0.138648
vt 1.107587 0.308810
vt 1.016940 0.026219
vt 1.074597 0.026807
vt 0.716490 0.963137
vt 0.271583 0.963137
vt 0.271583 0.739083
vt 0.716490 0.739083
vt 1.842782 0.963137
vt 1.707444 1.004403
vt 1.707444 0.735051
vt 1.842782 0.739083
vt 0.991382 0.423636
vt 0.930465 0.423636
vt 0.930465 0.545493
vt 0.991382 0.545493
vt 0.930465 0.680095
vt 0.991382 0.680095
vt 0.930465 0.837740
vt 0.991382 0.837740
vt 0.930465 0.986619
vt 0.991382 0.986619
vt -0.108248 0.420519
vt -0.047497 0.420519
vt -0.108248 0.299873
vt -0.108248 0.553783
vt -0.047497 0.553783
vt -0.108248 0.709860
vt -0.047497 0.709860
vt -0.108248 0.857259
vt -0.047497 0.857259
vt 0.451321 0.291062
vt 0.500000 0.292791
vt 0.500000 0.482332
vt 0.451321 0.480602
vt 0.182116 0.209552
vt 0.371657 0.209552
vt 0.373387 0.164448
vt 0.183846 0.164448
vt 0.307203 0.291062
vt 0.307203 0.480602
vt 0.182116 0.343880
vt 0.371657 0.343880
vt 0.152288 0.291062
vt 0.152288 0.480602
vt 0.182116 0.482888
vt 0.371657 0.482888
vt 0.010538 0.291124
vt 0.010538 0.480664
vt 0.182179 0.608945
vt 0.371719 0.608945
vt 0.404427 0.440769
vt 0.404427 0.569647
vt 0.593968 0.569647
vt 0.593968 0.440769
vt 0.404427 0.416068
vt 0.593968 0.416068
vt 0.593968 0.527943
vt 0.404427 0.527943
vt 0.404427 0.308810
vt 0.593968 0.308810
vt 0.404427 0.299873
vt 0.593968 0.299873
vt 0.404427 0.138648
vt 0.593968 0.138648
vt 0.404427 0.146960
vt 0.593968 0.146960
vt 0.404427 0.026807
vt 0.593968 0.026807
vt 0.404427 0.026219
vt 0.593968 0.026219
vt 0.548679 0.291062
vt 0.548679 0.480602
vt 0.817884 0.608945
vt 0.816154 0.563841
vt 0.626613 0.563841
vt 0.628343 0.608945
vt 0.692797 0.291062
vt 0.692797 0.480602
vt 0.816154 0.429514
vt 0.626613 0.429514
vt 0.847712 0.291062
vt 0.847712 0.480602
vt 0.816154 0.290506
vt 0.626613 0.290506
vt 0.989462 0.291124
vt 0.989462 0.480664
vt 0.816216 0.164448
vt 0.626676 0.164448
vt 1.842782 0.647273
vt 1.707444 0.647273
vt 1.707444 1.092180
vt 1.842782 1.092180
vt -0.719371 0.647273
vt -0.854709 0.647273
vt -0.854709 1.092180
vt -0.719371 1.092180
vt -0.719371 1.004403
vt -0.854709 0.963137
vt -0.854709 0.739083
vt -0.719371 0.735051
vt 0.716490 1.004403
vt 0.271583 1.004403
vt 0.271583 0.735051
vt 0.716490 0.735051
s 1
usemtl bricks
f 17/1/1 18/2/1 34/3/2 33/4/2
f 33/4/2 34/3/2 32/5/3 31/6/3
f 31/7/3 32/8/3 30/9/4 29/10/4
f 29/10/4 30/9/4 28/11/4 27/12/4
f 27/12/4 28/11/4 26/13/3 25/14/3
f 25/14/3 26/13/3 24/15/3 23/16/3
f 23/17/3 24/18/3 22/19/5 21/20/6
f 21/20/6 22/19/5 20/21/7 19/22/8
f 15/23/9 16/24/9 18/2/1 17/1/1
f 13/25/3 14/26/3 16/24/9 15/23/9
f 11/27/10 12/28/10 14/29/3 13/30/3
f 9/31/10 10/32/10 12/28/10 11/27/10
f 7/33/3 8/34/3 10/32/10 9/31/10
f 5/35/3 6/36/3 8/34/3 7/33/3
f 3/37/11 4/38/12 6/39/3 5/35/3
f 1/40/13 2/41/13 4/38/12 3/37/11
f 35/41/16 36/40/16 37/37/17 38/38/18
f 38/38/18 37/37/17 39/35/19 40/39/19
f 40/50/19 39/51/19 41/52/19 42/53/19
f 42/53/19 41/52/19 43/54/20 44/55/20
f 44/55/20 43/54/20 45/56/20 46/57/20
f 46/57/20 45/56/20 47/58/19 48/59/19
f 48/26/19 47/25/19 49/23/21 50/24/21
f 50/24/21 49/23/21 51/1/22 52/2/22
f 55/19/23 56/20/24 53/22/25 54/21/25
f 57/18/19 58/17/19 56/20/24 55/19/23
f 59/60/19 60/61/19 58/17/19 57/62/19
f 61/63/26 62/64/26 60/61/19 59/60/19
f 63/65/26 64/66/26 62/64/26 61/63/26
f 65/67/19 66/68/19 64/66/26 63/65/26
f 67/3/27 68/4/27 66/6/19 65/5/19
f 52/2/22 51/1/22 68/4/27 67/3/27
f 34/69/28 18/70/29 52/71/29 67/72/30
f 33/73/31 68/74/32 51/75/33 17/76/33
f 32/77/34 34/69/28 67/72/30 65/78/34
f 31/79/35 66/80/35 68/74/32 33/73/31
f 30/81/36 32/77/34 65/78/34 63/82/37
f 29/83/38 64/84/39 66/80/35 31/79/35
f 28/85/40 30/81/36 63/82/37 61/86/40
f 27/87/41 62/88/41 64/84/39 29/83/38
f 26/89/42 28/90/40 61/91/40 59/92/42
f 25/93/43 60/94/43 62/95/41 27/96/41
f 24/97/44 26/89/42 59/92/42 57/98/44
f 23/99/45 58/100/45 60/94/43 25/93/43
f 22/101/46 24/97/44 57/98/44 55/102/46
f 21/103/47 56/104/47 58/100/45 23/99/45
f 20/105/48 22/101/48 55/102/48 54/106/48
f 19/107/49 53/108/49 56/104/49 21/103/49
f 52/71/29 18/70/29 16/109/50 50/110/51
f 51/111/33 49/112/52 15/113/53 17/114/33
f 50/110/51 16/109/50 14/115/54 48/116/54
f 49/112/52 47/117/55 13/118/55 15/113/53
f 48/116/54 14/115/54 12/119/56 46/120/57
f 47/117/55 45/121/58 11/122/59 13/118/55
f 46/120/57 12/119/56 10/123/60 44/124/60
f 45/121/58 43/125/61 9/126/61 11/122/59
f 44/91/60 10/90/60 8/89/62 42/92/62
f 43/95/61 41/94/63 7/93/63 9/96/61
f 42/92/62 8/89/62 6/97/64 40/98/64
f 41/94/63 39/100/65 5/99/65 7/93/63
f 40/98/64 6/97/64 4/101/66 38/102/66
f 39/100/65 37/104/67 3/103/67 5/99/65
f 38/102/68 4/101/68 2/105/68 35/106/68
f 37/104/69 36/108/69 1/107/69 3/103/69
usemtl concrete_base_02
f 35/42/14 2/43/14 69/44/14 70/45/14
f 2/46/15 1/47/15 71/48/15 69/49/15
f 69/127/70 71/128/70 72/129/70 70/130/70
f 73/131/71 75/132/71 76/133/71 74/134/71
f 19/135/8 20/136/7 75/137/72 73/138/72
f 53/139/14 19/140/14 73/141/14 74/142/14
f 1/140/73 36/139/73 72/142/73 71/141/73
f 20/43/73 54/42/73 76/45/73 75/44/73
f 36/47/74 35/46/74 70/49/74 72/48/74
f 54/136/75 53/135/75 74/138/75 76/137/75
