# Blender 4.5.9 LTS
# www.blender.org
mtllib Serwers02_003.mtl
o Serwers02_003
v 0.000001 3.254394 -4.248933
v -4.248925 3.254395 -0.000006
v 4.248928 3.254395 -0.000006
v 0.000001 3.254395 4.248919
v -4.248925 -2.636668 1.862709
v -1.862713 -2.636669 -4.248932
v 4.248928 -2.636668 1.862709
v -1.862713 -2.636668 4.248920
v -4.248925 -2.122126 2.455369
v -2.455373 -2.122126 -4.248932
v -2.455373 -2.122126 4.248920
v 4.248928 -2.122126 2.455369
v -3.215856 -0.456902 -4.248932
v -4.248925 -0.456902 3.215851
v -3.215856 -0.456902 4.248920
v 4.248928 -0.456902 3.215851
v -2.955326 1.355121 -4.248932
v -4.248925 1.355121 2.955321
v -2.955326 1.355122 4.248920
v 4.248928 1.355121 2.955321
v -1.756501 2.738639 -4.248932
v -4.248925 2.738639 1.756496
v 4.248928 2.738639 1.756496
v -1.756501 2.738639 4.248920
v -0.999718 -2.636669 -4.248932
v -4.248924 -2.636668 0.999714
v -0.999718 -2.636668 4.248919
v 4.248928 -2.636668 0.999714
v -0.999718 -2.880242 -4.248932
v -4.248924 -2.880242 0.999714
v 4.248928 -2.880242 0.999714
v -0.999718 -2.880241 4.248919
v -4.248924 -2.880242 -0.000006
v 0.000001 -2.880242 -4.248932
v 0.000001 -2.880241 4.248919
v 4.248928 -2.880242 -0.000006
v -4.248925 -2.636669 -1.862721
v 1.862716 -2.636669 -4.248932
v 1.862716 -2.636668 4.248920
v 4.248928 -2.636669 -1.862721
v -4.248925 -2.122126 -2.455380
v 2.455376 -2.122126 -4.248932
v 2.455376 -2.122126 4.248920
v 4.248928 -2.122126 -2.455380
v 3.215858 -0.456902 -4.248932
v -4.248925 -0.456902 -3.215863
v 3.215858 -0.456902 4.248920
v 4.248928 -0.456902 -3.215863
v 2.955329 1.355121 -4.248932
v -4.248925 1.355121 -2.955333
v 2.955329 1.355122 4.248920
v 4.248928 1.355121 -2.955333
v 1.756504 2.738639 -4.248932
v -4.248925 2.738639 -1.756508
v 1.756504 2.738639 4.248920
v 4.248928 2.738639 -1.756508
v 0.999721 -2.636669 -4.248932
v -4.248924 -2.636668 -0.999726
v 4.248928 -2.636668 -0.999725
v 0.999721 -2.636668 4.248919
v 0.999721 -2.880242 -4.248932
v -4.248924 -2.880242 -0.999726
v 0.999721 -2.880241 4.248919
v 4.248928 -2.880242 -0.999725
v -2.455373 -2.122126 -2.455380
v -2.455373 -2.122126 2.455369
v -1.862713 -2.636669 -1.862721
v -1.862713 -2.636668 -0.999725
v -1.862713 -2.636668 0.999714
v -1.862713 -2.636668 1.242044
v -1.862713 -2.636668 1.862709
v -3.215856 -0.456902 3.215851
v -3.215856 -0.456902 3.215851
v -3.215856 -0.456902 -3.215863
v -3.215856 -0.456902 -3.215863
v -2.955326 1.355121 -2.955333
v -2.955326 1.355121 2.955321
v -1.756501 2.738639 -1.756508
v -1.756501 2.738639 1.756496
v 0.000001 3.254395 -0.000006
v -0.999718 -2.636669 -1.862721
v -0.999718 -2.636668 -1.329697
v -0.999718 -2.636668 -0.999725
v -0.999718 -2.636668 0.999714
v -0.999718 -2.636668 1.862709
v -0.999718 -2.880242 0.999714
v -0.999718 -2.880242 -0.999725
v -0.999718 -2.880242 -0.000006
v -0.999718 -2.880242 0.382243
v 1.862716 -2.636668 1.862709
v 1.862716 -2.636669 -1.862721
v 1.862716 -2.636668 -0.999725
v 1.862716 -2.636668 0.999714
v 1.862716 -2.636668 1.620378
v 2.455376 -2.122126 -2.455380
v 2.455376 -2.122126 2.455369
v 3.215858 -0.456902 3.215851
v 3.215858 -0.456902 3.215851
v 3.215858 -0.456902 -3.215863
v 3.215858 -0.456902 -3.215863
v 2.955329 1.355121 -2.955333
v 2.955329 1.355121 2.955321
v 1.756504 2.738639 -1.756508
v 1.756504 2.738639 1.756496
v 0.999721 -2.880242 0.999714
v 0.999721 -2.880242 -0.999725
v 0.999721 -2.880242 -0.000006
v 0.999721 -2.880242 0.617465
v 0.999721 -2.636669 -1.862721
v 0.999721 -2.636668 -1.532749
v 0.999721 -2.636668 -0.999725
v 0.999721 -2.636668 0.999714
v 0.999721 -2.636668 1.862709
v 1.620386 -2.636668 1.862709
v -1.532742 -2.636668 0.999714
v 0.617472 -2.880242 0.999714
v 0.000001 -2.880242 0.999714
v 1.242052 -2.636669 -1.862721
v 0.382250 -2.880242 -0.999725
v 0.000001 -2.880242 -0.999725
v -1.329690 -2.636668 -0.999725
v 0.435035 -2.880242 -0.551045
v 0.000001 -2.880242 -0.499866
v -0.551037 -2.880242 0.435028
v 0.566507 -2.880242 0.566500
v -0.447243 -2.880242 -0.447250
v -0.499858 -2.880242 -0.000006
v 0.000001 -2.880242 -0.000006
v -1.299269 -2.636668 -1.299276
v -1.560469 -2.636668 1.272739
v 1.272746 -2.636668 -1.560476
v 1.592994 -2.636668 1.592987
v 0.000001 3.510803 -4.635354
v -1.980328 -2.752230 -4.635354
v -2.610409 -2.205199 -4.635354
v -3.418909 -0.434830 -4.635354
v -3.141930 1.491607 -4.635354
v -1.867409 2.962482 -4.635354
v -1.062842 -2.752230 -4.635353
v -1.062842 -3.011183 -4.635353
v 0.000001 -3.011183 -4.635353
v 1.980331 -2.752230 -4.635354
v 2.610412 -2.205199 -4.635354
v 3.418912 -0.434830 -4.635354
v 3.141932 1.491607 -4.635354
v 1.867412 2.962482 -4.635354
v 1.062845 -2.752230 -4.635353
v 1.062845 -3.011183 -4.635353
v 0.000001 3.474588 4.683642
v -1.963716 -2.735907 4.683643
v -2.588511 -2.193465 4.683643
v -3.390229 -0.437947 4.683643
v -3.115573 1.472330 4.683643
v -1.851744 2.930866 4.683643
v -1.053926 -2.735907 4.683642
v -1.053926 -2.992688 4.683642
v 0.000001 -2.992688 4.683642
v 1.963718 -2.735907 4.683643
v 2.588514 -2.193465 4.683643
v 3.390232 -0.437947 4.683643
v 3.115576 1.472330 4.683643
v 1.851747 2.930866 4.683643
v 1.053929 -2.735907 4.683642
v 1.053929 -2.992688 4.683642
vn -0.0000 1.0000 -0.0000
vn 0.6883 0.7100 -0.1486
vn 0.3241 0.9272 -0.1877
vn 0.3310 0.9323 0.1455
vn 0.6932 0.7113 0.1167
vn 0.3699 0.8522 0.3699
vn 0.7794 0.5883 -0.2157
vn 0.4500 0.7713 0.4500
vn 0.4500 0.7713 -0.4500
vn 0.7873 0.5931 0.1683
vn 0.3699 0.8522 -0.3699
vn 0.9584 0.1493 -0.2433
vn 0.8940 0.0530 0.4450
vn 0.3719 0.3241 0.8699
vn 0.7315 -0.0023 -0.6818
vn 0.9703 0.1487 0.1907
vn 0.5307 0.3770 -0.7591
vn 0.8791 -0.3904 -0.2736
vn 0.5658 -0.5999 0.5658
vn 0.5658 -0.5999 -0.5658
vn 0.8915 -0.3981 0.2161
vn 0.5213 -0.8004 -0.2960
vn 0.2302 -0.9455 0.2302
vn 0.2302 -0.9455 -0.2302
vn 0.5295 -0.8150 0.2352
vn -0.0000 -0.9526 -0.3042
vn -0.0000 -1.0000 -0.0000
vn -0.0000 -0.9702 0.2423
vn -0.0000 0.9867 -0.1626
vn 0.7198 0.6705 -0.1797
vn 0.7183 0.6819 0.1379
vn -0.0000 0.9920 0.1262
vn 1.0000 -0.0000 -0.0000
vn 0.7071 -0.0000 0.7071
vn 0.7071 -0.0000 -0.7071
vn -0.3241 0.9272 -0.1877
vn -0.6883 0.7100 -0.1486
vn -0.6932 0.7113 0.1167
vn -0.3310 0.9323 0.1455
vn -0.7794 0.5883 -0.2157
vn -0.3699 0.8522 0.3699
vn -0.4500 0.7713 0.4500
vn -0.7873 0.5931 0.1683
vn -0.4500 0.7713 -0.4500
vn -0.3699 0.8522 -0.3699
vn -0.9584 0.1493 -0.2433
vn -0.7591 0.3770 0.5307
vn -0.9703 0.1487 0.1907
vn -0.8940 0.0530 -0.4450
vn -0.3719 0.3241 -0.8699
vn -0.8791 -0.3904 -0.2736
vn -0.6818 -0.0023 0.7315
vn -0.5658 -0.5999 0.5658
vn -0.8915 -0.3981 0.2161
vn -0.5658 -0.5999 -0.5658
vn -0.5213 -0.8004 -0.2960
vn -0.2302 -0.9455 0.2302
vn -0.5295 -0.8150 0.2352
vn -0.2302 -0.9455 -0.2302
vn -0.7198 0.6705 -0.1797
vn -0.7183 0.6819 0.1379
vn -0.7071 -0.0000 0.7071
vn -1.0000 -0.0000 -0.0000
vn -0.7071 -0.0000 -0.7071
vn -0.0000 0.7551 -0.6556
vn -0.0000 0.5989 -0.8008
vn -0.0000 0.1423 -0.9898
vn -0.0000 -0.4154 -0.9096
vn -0.0000 -0.8413 -0.5406
vn -0.0000 -0.0000 -1.0000
vn -0.0000 0.7551 0.6556
vn -0.0000 0.5989 0.8008
vn -0.0000 0.1423 0.9898
vn -0.0000 -0.4154 0.9096
vn -0.0000 -0.8413 0.5406
vn -0.0000 -0.0000 1.0000
vn 0.7343 0.5404 -0.4108
vn 0.8824 0.1101 -0.4574
vn 0.6361 0.6932 -0.3388
vn 0.7069 0.6376 -0.3062
vn -0.7343 0.5404 -0.4108
vn -0.3545 0.8607 -0.3653
vn 0.3545 0.8607 -0.3653
vn -0.7069 0.6376 -0.3062
vn -0.6361 0.6932 -0.3388
vn -0.7782 -0.3710 -0.5068
vn -0.8824 0.1101 -0.4574
vn -0.0000 0.9471 -0.3209
vn 0.7782 -0.3710 -0.5068
vn 0.4480 -0.7118 -0.5409
vn -0.0000 -0.8332 -0.5529
vn -0.4480 -0.7118 -0.5409
vn -0.6576 0.7054 0.2645
vn -0.7121 0.6599 0.2395
vn -0.3592 0.8883 0.2862
vn 0.8247 -0.3903 0.4092
vn 0.9234 0.1184 0.3652
vn -0.4793 -0.7590 0.4406
vn -0.0000 -0.8921 0.4519
vn -0.7608 0.5616 0.3252
vn -0.9234 0.1184 0.3652
vn 0.7121 0.6599 0.2395
vn 0.6576 0.7054 0.2645
vn 0.3592 0.8883 0.2862
vn -0.0000 0.9681 0.2504
vn -0.8247 -0.3903 0.4092
vn 0.4793 -0.7590 0.4406
vn 0.7608 0.5616 0.3252
vt 0.084563 0.680855
vt -1.064508 0.680855
vt -1.064508 0.990118
vt 0.084563 0.990118
vt 1.579651 0.990118
vt 1.594432 0.881806
vt 1.462958 0.871869
vt 1.462958 0.990118
vt 3.027601 0.990118
vt 3.027601 0.680855
vt 1.878530 0.680855
vt 1.878530 0.990118
vt 1.462958 0.680855
vt 0.355888 0.788202
vt 0.341238 0.680855
vt 0.500135 0.680855
vt 0.240175 0.602839
vt -0.478291 0.602839
vt -0.478291 0.842623
vt 0.061731 0.842623
vt 1.540312 0.842623
vt 2.080334 0.842623
vt 2.080334 0.602839
vt 1.361868 0.602839
vt 0.061731 1.483311
vt -0.478291 1.483311
vt -0.478291 0.809576
vt -0.167244 0.809576
vt 1.769287 0.809576
vt 2.080334 0.809576
vt 2.080334 1.483310
vt 1.540312 1.483310
vt -0.167243 0.809576
vt -0.478291 0.076448
vt -0.088801 0.076448
vt 1.690844 0.076448
vt 2.080334 0.076448
vt -0.088801 0.076448
vt -0.478291 -0.483311
vt 0.272155 -0.483311
vt 1.329888 -0.483311
vt 2.080334 -0.483311
vt 0.272155 0.559866
vt -0.478291 0.559866
vt -0.478291 -0.150799
vt 0.801021 -0.150799
vt 2.080334 -0.150799
vt 2.080334 0.559866
vt 1.329888 0.559866
vt -0.699235 0.500000
vt -0.699235 0.991538
vt 0.500103 0.991538
vt 0.500103 0.500000
vt 2.437469 0.991538
vt 2.437469 0.500000
vt 1.238131 0.500000
vt 1.238131 0.991538
vt 0.869117 0.500000
vt 0.869117 0.745769
vt 1.029695 0.770932
vt 1.010212 0.991538
vt 0.869117 0.991538
vt 0.704032 0.719899
vt 0.684610 0.500000
vt 0.341239 0.791843
vt 0.500135 0.791843
vt 0.500135 0.879130
vt -1.064508 0.879130
vt -1.064508 0.791843
vt 0.084563 0.791843
vt 1.878530 0.791843
vt 3.027601 0.791843
vt 3.027601 0.879130
vt 1.462958 0.879130
vt 1.462958 0.791843
vt 0.084563 0.680855
vt 0.084563 0.767697
vt 0.084563 0.990118
vt 3.027601 0.990118
vt 1.878530 0.990118
vt 1.878530 0.903276
vt 0.243460 0.680855
vt 0.230108 0.778696
vt 0.500135 0.990118
vt 0.500135 0.680855
vt 1.748646 0.893461
vt 1.761836 0.990118
vt 1.462958 0.990118
vt 0.240175 0.602839
vt 0.061731 0.842623
vt 2.080334 0.842623
vt 1.540312 0.842623
vt 1.361868 0.602839
vt 0.061731 1.483311
vt -0.167244 0.809576
vt 2.080334 1.483310
vt 1.769287 0.809576
vt 1.540312 1.483310
vt -0.167244 0.809576
vt -0.088801 0.076448
vt 1.690843 0.076448
vt -0.088801 0.076448
vt 0.272155 -0.483311
vt 2.080334 -0.483311
vt 0.272155 0.559866
vt 2.080334 0.559866
vt -0.699235 0.008462
vt 0.500103 0.312057
vt 0.500103 0.008462
vt 2.437469 0.008462
vt 1.238131 0.008462
vt 1.238131 0.196405
vt 1.078224 0.221463
vt 1.097036 0.008462
vt 0.869117 0.008462
vt 0.665719 0.286105
vt 0.500135 0.791843
vt 0.243460 0.791843
vt 0.084563 0.791843
vt 0.500135 0.879130
vt 1.462958 0.879130
vt 3.027601 0.879130
vt 3.027601 0.791843
vt 1.878530 0.791843
vt 0.084563 0.990118
vt 0.084563 0.767697
vt 1.878530 0.680855
vt 1.878530 0.903276
vt 0.446981 0.592328
vt 0.137718 0.592329
vt 0.446981 1.007901
vt 0.230108 0.778696
vt 0.243459 0.680855
vt 0.061730 0.842623
vt -0.167244 0.809576
vt -0.088801 0.076448
vt 0.272155 -0.483311
vt -0.088801 0.076448
vt 0.272155 0.559866
vt 0.500103 0.991538
vt 0.500103 0.687943
vt 0.500103 0.500000
vt 1.238131 0.991538
vt 1.238131 0.500000
vt 1.238131 0.803595
vt 1.078224 0.778537
vt 1.097036 0.991538
vt 0.684610 0.500000
vt 0.665719 0.713895
vt 0.063017 0.902588
vt 0.214982 0.902588
vt 0.214982 0.833146
vt -0.711362 0.833146
vt -0.711362 0.902588
vt -0.031057 0.902588
vt 1.031057 0.902588
vt 1.711362 0.902588
vt 1.711362 0.833146
vt 0.785018 0.833146
vt 0.785018 0.902588
vt 0.084563 0.680855
vt 0.084563 0.990118
vt 1.878529 0.990118
vt 0.255966 0.595866
vt 0.245065 0.740113
vt 0.137717 0.595866
vt 0.446980 0.595866
vt 0.446980 1.011438
vt 1.516112 0.571106
vt 1.634361 0.571106
vt 1.624424 0.702580
vt 1.516112 0.687799
vt 1.540312 0.842623
vt 0.061731 1.483311
vt 1.769287 0.809576
vt 1.769286 0.809576
vt 1.540312 1.483310
vt 1.690844 0.076448
vt 1.329888 -0.483311
vt 1.329888 0.559866
vt 0.500103 0.008462
vt 1.238131 0.008462
vt 0.869117 0.254231
vt 0.704031 0.280101
vt 1.010212 0.008462
vt 1.029696 0.229068
vt 0.120907 0.902588
vt 1.761837 0.990118
vt 0.500135 0.799104
vt 0.137718 0.588792
vt 0.245065 0.733039
vt 0.137718 0.747688
vt 0.446981 1.004364
vt 0.446981 0.588791
vt 0.255966 0.588792
vt 1.825375 0.571106
vt 1.516112 0.986678
s 1
usemtl concrete_base_03
f 67/17/6 6/18/3 10/19/7 65/20/8
f 66/21/9 11/22/10 8/23/4 71/24/11
f 65/25/8 10/26/7 13/27/12 74/28/13 75/28/14
f 72/29/15 15/30/16 11/31/10 66/32/9 73/29/17
f 74/33/13 13/27/12 17/34/18 76/35/19
f 77/36/20 19/37/21 15/30/16 72/29/15
f 76/38/19 17/34/18 21/39/22 78/40/23
f 79/41/24 24/42/25 19/37/21 77/36/20
f 78/43/23 21/44/22 1/45/26 80/46/27
f 80/46/27 4/47/28 24/48/25 79/49/24
f 42/19/40 38/18/36 91/89/41 95/90/42
f 39/23/39 43/91/43 96/92/44 90/93/45
f 45/27/46 42/26/40 95/94/42 99/95/47
f 43/96/43 47/30/48 98/97/49 97/97/50 96/98/44
f 49/34/51 45/27/46 99/95/47 100/99/52 101/100/53
f 98/97/49 47/30/48 51/37/54 102/101/55
f 53/39/56 49/34/51 101/102/53 103/103/57
f 51/37/54 55/104/58 104/41/59 102/101/55
f 80/46/27 1/45/26 53/44/56 103/105/57
f 104/49/59 55/106/58 4/47/28 80/46/27
f 71/17/11 5/18/65 9/19/66 66/134/9
f 96/92/44 12/22/66 7/23/65 90/93/45
f 66/25/9 9/26/66 14/27/67 73/135/17
f 97/97/50 16/30/67 12/31/66 96/98/44
f 72/135/15 73/135/17 14/27/67 18/34/68 77/136/20
f 102/101/55 20/37/68 16/30/67 97/97/50 98/97/49
f 18/34/68 22/39/69 79/137/24 77/138/20
f 104/41/59 23/42/69 20/37/68 102/101/55
f 79/139/24 22/44/69 2/45/27 80/46/27
f 80/46/27 3/47/27 23/48/69 104/49/59
f 37/18/71 67/17/6 65/90/8 41/19/72
f 91/93/41 40/23/71 44/91/72 95/173/42
f 46/27/73 41/26/72 65/174/8 75/28/14
f 44/96/72 48/30/73 100/175/52 99/176/47 95/177/42
f 50/34/74 46/27/73 75/28/14 74/28/13 76/38/19
f 100/175/52 48/30/73 52/37/74 101/178/53
f 54/39/75 50/34/74 76/38/19 78/40/23
f 52/37/74 56/104/75 103/179/57 101/178/53
f 80/46/27 2/45/27 54/44/75 78/43/23
f 56/106/75 3/47/27 80/46/27 103/180/57
f 13/27/12 10/26/7 135/26/77 136/27/78
f 38/18/36 42/19/40 143/19/81 142/18/82
f 45/27/46 49/34/51 145/34/86 144/27/87
f 42/26/40 45/27/46 144/27/87 143/26/81
f 21/39/22 17/34/18 137/34/89 138/39/90
f 53/44/56 1/45/26 133/45/91 146/44/92
f 49/34/51 53/39/56 146/39/92 145/34/86
f 10/19/7 6/18/3 134/18/83 135/19/77
f 1/45/26 21/44/22 138/44/90 133/45/91
f 17/34/18 13/27/12 136/27/78 137/34/89
f 15/30/16 19/37/21 153/37/96 152/30/97
f 4/47/28 55/106/58 162/106/98 149/47/99
f 47/30/48 43/96/43 159/96/100 160/30/101
f 51/37/54 47/30/48 160/30/101 161/37/106
f 19/37/21 24/42/25 154/42/107 153/37/96
f 55/104/58 51/37/54 161/37/106 162/104/98
f 11/31/10 15/30/16 152/30/97 151/31/108
f 43/91/43 39/23/39 158/23/95 159/91/100
f 8/23/4 11/22/10 151/22/108 150/23/104
f 24/48/25 4/47/28 149/47/99 154/48/107
usemtl soil_mud
f 34/50/29 29/51/30 87/52/1 120/53/1
f 32/54/31 35/55/32 117/56/1 86/57/1
f 117/56/1 128/58/1 127/59/1 124/60/1 89/61/1 86/57/1
f 124/60/1 127/59/1 88/62/1 89/61/1
f 87/52/1 88/62/1 127/59/1 126/63/1 123/64/1 120/53/1
f 123/64/1 126/63/1 127/59/1 128/58/1
f 61/107/60 34/50/29 120/53/1 119/108/1 106/109/1
f 35/55/32 63/110/61 105/111/1 116/112/1 117/56/1
f 117/56/1 116/112/1 125/113/1 108/114/1 107/115/1 128/58/1
f 119/108/1 120/53/1 123/64/1 122/116/1
f 108/114/1 125/113/1 116/112/1 105/111/1
f 107/115/1 106/109/1 119/108/1 122/116/1 123/64/1 128/58/1
f 33/50/1 30/51/1 86/140/1 89/141/1 88/142/1
f 105/143/1 31/54/1 36/55/1 107/144/1 108/145/1
f 108/145/1 125/146/1 116/147/1 105/143/1
f 117/62/1 128/58/1 127/148/1 124/149/1 89/141/1 86/140/1
f 124/149/1 127/148/1 88/142/1 89/141/1
f 117/62/1 116/147/1 125/146/1 108/145/1 107/144/1 128/58/1
f 87/181/1 62/107/1 33/50/1 88/142/1
f 107/144/1 36/55/1 64/110/1 106/182/1
f 123/183/1 126/184/1 127/148/1 128/58/1
f 107/144/1 106/182/1 119/185/1 122/186/1 123/183/1 128/58/1
f 87/181/1 88/142/1 127/148/1 126/184/1 123/183/1 120/115/1
f 119/185/1 120/115/1 123/183/1 122/186/1
f 29/51/30 34/50/29 141/50/88 140/51/79
f 34/50/29 61/107/60 148/107/85 141/50/88
f 63/110/61 35/55/32 157/55/105 164/110/93
f 35/55/32 32/54/31 156/54/103 157/55/105
usemtl concrete_base_02
f 81/1/1 25/2/2 6/3/3 67/4/1
f 70/5/1 130/6/1 115/7/1 69/8/1
f 8/9/4 27/10/5 85/11/1 71/12/1
f 85/11/1 84/13/1 71/12/1
f 129/14/1 82/15/1 81/1/1 67/4/1
f 82/15/1 129/14/1 83/16/1
f 82/65/33 83/66/34 87/67/34 29/68/30 25/69/2 81/70/33
f 85/71/33 27/72/5 32/73/31 86/74/35 84/75/35
f 38/3/36 57/2/37 109/76/1 118/77/1 91/78/1
f 60/10/38 39/79/39 90/80/1 114/81/1 113/11/1
f 109/76/1 110/82/1 131/83/1 118/77/1
f 92/84/1 91/78/1 111/85/1
f 112/13/1 132/86/1 94/87/1 93/88/1
f 94/87/1 132/86/1 90/80/1
f 111/117/62 110/118/63 109/119/63 57/69/37 61/68/60 106/120/62
f 112/75/64 105/121/64 63/122/61 60/123/38 113/124/63
f 69/1/1 26/2/1 5/3/1 71/125/1 70/126/1
f 7/9/1 28/10/1 93/127/1 94/128/1 90/80/1
f 94/128/1 132/86/1 90/80/1
f 85/129/1 84/130/1 71/131/1
f 70/126/1 130/132/1 115/133/1 69/1/1
f 112/13/1 132/86/1 94/128/1 93/127/1
f 115/150/70 84/151/35 86/152/35 30/153/70 26/154/70 69/155/70
f 93/156/70 28/157/70 31/158/70 105/159/64 112/160/64
f 37/3/1 58/2/1 68/161/1 67/162/1
f 92/11/1 59/10/1 40/79/1 91/163/1
f 82/164/1 129/165/1 83/166/1
f 92/11/1 91/163/1 111/13/1
f 129/165/1 82/164/1 81/167/1 67/168/1
f 109/169/1 110/170/1 131/171/1 118/172/1
f 121/187/76 68/155/76 58/154/76 62/153/76 87/152/34 83/151/34
f 111/123/62 106/68/62 64/68/76 59/123/76 92/123/76
f 90/80/1 132/86/1 114/188/1
f 132/86/1 112/13/1 113/8/1 114/188/1
f 132/86/1 112/13/1 113/11/1 114/81/1
f 90/80/1 132/86/1 114/81/1
f 71/12/1 84/13/1 115/7/1 130/6/1 70/5/1
f 71/125/1 84/16/1 115/133/1 130/132/1 70/126/1
f 83/16/1 129/14/1 121/189/1
f 67/162/1 68/161/1 121/15/1 129/14/1
f 83/190/1 129/191/1 121/192/1
f 67/193/1 68/194/1 121/195/1 129/191/1
f 111/85/1 91/78/1 118/77/1 131/83/1 110/82/1
f 111/196/1 91/197/1 118/172/1 131/171/1 110/170/1
f 25/69/2 29/68/30 140/68/79 139/69/80
f 6/3/3 25/2/2 139/2/80 134/3/83
f 61/68/60 57/69/37 147/69/84 148/68/85
f 57/2/37 38/3/36 142/3/82 147/2/84
f 60/123/38 63/122/61 164/122/93 163/123/94
f 39/79/39 60/10/38 163/10/94 158/79/95
f 32/73/31 27/72/5 155/72/102 156/73/103
f 27/10/5 8/9/4 150/9/104 155/10/102
