# Blender 4.5.9 LTS
# www.blender.org
mtllib Serwers_008.mtl
o Serwers_008
v 0.000000 3.386930 -0.077553
v 0.000000 3.386931 3.386930
v 0.000000 -2.882610 3.386931
v 0.000000 -2.882610 -0.077552
v -0.979492 -2.882610 -0.077552
v -0.979492 -2.882610 3.386931
v -1.157323 -2.111717 3.386931
v -1.157323 -2.111717 -0.077553
v -2.648009 -2.111717 -0.077553
v -2.648009 -2.111717 3.386931
v -3.302013 -0.753663 -0.077553
v -3.302013 -0.753663 3.386930
v -3.302013 0.753663 -0.077553
v -3.302013 0.753663 3.386930
v -2.648009 2.111717 -0.077553
v -2.648009 2.111717 3.386930
v -1.469534 3.051519 -0.077553
v -1.469534 3.051519 3.386930
v 0.979492 -2.882610 -0.077552
v 0.979492 -2.882610 3.386931
v 1.157323 -2.111717 3.386931
v 1.157323 -2.111717 -0.077553
v 2.648009 -2.111717 -0.077553
v 2.648009 -2.111717 3.386931
v 3.302013 -0.753663 -0.077553
v 3.302013 -0.753663 3.386930
v 3.302013 0.753663 -0.077553
v 3.302013 0.753663 3.386930
v 2.648009 2.111717 -0.077553
v 2.648009 2.111717 3.386930
v 1.469534 3.051519 -0.077553
v 1.469534 3.051519 3.386930
vn -0.0000 1.0000 -0.0000
vn 0.9744 0.2248 -0.0000
vn 0.9010 0.4339 -0.0000
vn 0.9749 0.2225 -0.0000
vn 0.9749 -0.2225 -0.0000
vn 0.7818 -0.6235 -0.0000
vn 0.4339 -0.9010 -0.0000
vn -0.0000 -1.0000 -0.0000
vn -0.9744 0.2248 -0.0000
vn -0.9010 0.4339 -0.0000
vn -0.9749 0.2225 -0.0000
vn -0.9749 -0.2225 -0.0000
vn -0.7818 -0.6235 -0.0000
vn -0.4339 -0.9010 -0.0000
vt -0.258957 1.006753
vt -0.258957 1.237606
vt 0.557576 1.237606
vt 0.557576 1.006753
vt -0.258957 0.195233
vt -0.258957 0.013544
vt 0.557576 0.013544
vt 0.557576 0.195233
vt -0.258957 0.646012
vt -0.258957 0.997347
vt 0.557576 0.997347
vt 0.557576 0.646012
vt 0.449827 0.005138
vt 0.449827 0.241734
vt -0.153743 0.241734
vt -0.153743 0.005138
vt 0.449827 0.504334
vt -0.153743 0.504335
vt 0.449827 0.740930
vt -0.153743 0.740930
vt 0.449827 0.533535
vt 0.449827 0.738845
vt -0.153743 0.738845
vt -0.153743 0.533535
vt 0.449827 0.994861
vt -0.153743 0.994861
s 1
usemtl concrete_base
f 6/1/1 3/2/1 4/3/1 5/4/1
f 7/5/2 6/6/2 5/7/2 8/8/2
f 10/9/1 7/10/1 8/11/1 9/12/1
f 20/1/1 19/4/1 4/3/1 3/2/1
f 21/5/9 22/8/9 19/7/9 20/6/9
f 24/9/1 23/12/1 22/11/1 21/10/1
usemtl brick_modern_01
f 9/13/3 11/14/4 12/15/4 10/16/3
f 11/14/4 13/17/5 14/18/5 12/15/4
f 13/17/5 15/19/6 16/20/6 14/18/5
f 15/21/6 17/22/7 18/23/7 16/24/6
f 17/22/7 1/25/8 2/26/8 18/23/7
f 23/13/10 24/16/10 26/15/11 25/14/11
f 25/14/11 26/15/11 28/18/12 27/17/12
f 27/17/12 28/18/12 30/20/13 29/19/13
f 29/21/13 30/24/13 32/23/14 31/22/14
f 31/22/14 32/23/14 2/26/8 1/25/8
