# Blender 4.5.9 LTS
# www.blender.org
mtllib SerwersP1_005.mtl
o SerwersP1_005
v 2.093360 0.371344 -1.921355
v 2.093360 -0.310414 -1.926686
v 2.093360 -1.668468 1.240659
v 2.093360 -0.310414 1.926686
v 2.093360 -1.668468 -1.240659
v 2.093360 0.371343 1.921356
v 2.093360 1.929367 -0.000001
v 2.093360 1.680831 0.961888
v 2.093360 1.106803 1.560336
v 2.093360 1.106803 -1.560336
v 2.093360 1.680831 -0.961890
v -2.093360 0.971344 -1.921355
v -2.093360 0.289586 -1.926686
v -2.093360 -1.068468 1.240659
v -2.093360 0.289586 1.926686
v -2.093360 -1.068468 -1.240659
v -2.093360 0.971343 1.921356
v -2.093360 2.529367 -0.000001
v -2.093360 2.280831 0.961888
v -2.093360 1.706803 1.560336
v -2.093360 1.706803 -1.560336
v -2.093360 2.280831 -0.961890
vn -0.0302 -0.2107 0.9771
vn -0.0828 -0.5777 0.8120
vn -0.0857 -0.5980 0.7969
vn -0.0356 -0.2487 0.9679
vn -0.0302 -0.2107 -0.9771
vn 0.0355 0.2478 -0.9682
vn 0.0297 0.2074 -0.9778
vn -0.0356 -0.2487 -0.9679
vn -0.1234 -0.8611 0.4932
vn -0.1419 -0.9899 -0.0000
vn -0.1249 -0.8717 0.4738
vn -0.0828 -0.5777 -0.8120
vn -0.0857 -0.5980 -0.7969
vn -0.1234 -0.8611 -0.4932
vn -0.1249 -0.8717 -0.4738
vn 0.0645 0.4500 0.8907
vn 0.0355 0.2478 0.9682
vn 0.0297 0.2074 0.9778
vn 0.1419 0.9899 -0.0000
vn 0.0645 0.4500 -0.8907
vt 0.686815 0.505475
vt 0.686815 0.686525
vt -0.607595 0.686525
vt -0.607596 0.505474
vt 0.686815 0.485184
vt 0.686815 0.345330
vt -0.607595 0.345330
vt -0.607595 0.485184
vt 0.686815 0.218512
vt 0.686815 0.509351
vt -0.607595 0.509351
vt -0.607595 0.218512
vt 0.686815 0.686525
vt 0.686815 0.505474
vt -0.607595 0.505474
vt -0.607595 0.686525
vt 0.686815 0.089200
vt 0.686815 0.276546
vt -0.607595 0.276546
vt -0.607595 0.089200
vt 0.686815 0.490648
vt 0.686815 0.781487
vt -0.607595 0.781487
vt -0.607595 0.490648
vt 1.280762 0.009138
vt 1.280762 0.997661
vt -1.766741 0.997661
vt -1.766741 0.009137
vt 0.686815 0.485184
vt -0.607595 0.485184
vt -0.607595 0.345330
vt 0.686815 0.723454
vt 0.686815 0.910801
vt -0.607595 0.910800
vt -0.607595 0.723454
vt 0.997824 0.994752
vt 0.997824 0.005248
vt -0.671763 0.005248
vt -0.671763 0.994752
vt 1.280762 0.997661
vt -1.766741 0.009138
vt -1.766741 0.997661
s 1
usemtl brick_modern
f 1/1/1 10/2/2 21/3/3 12/4/4
f 6/5/5 4/6/6 15/7/7 17/8/8
f 11/9/9 7/10/10 18/11/10 22/12/11
f 9/13/12 6/14/5 17/15/8 20/16/13
f 10/17/2 11/18/9 22/19/11 21/20/3
f 7/21/10 8/22/14 19/23/15 18/24/10
f 2/6/17 1/29/1 12/30/4 13/31/18
f 8/32/14 9/33/12 20/34/13 19/35/15
usemtl concrete_bare_01
f 5/25/16 2/26/17 13/27/18 16/28/16
f 4/40/6 3/25/20 14/41/20 15/42/7
usemtl brick_pavement
f 3/36/19 5/37/19 16/38/19 14/39/19
