# Blender 4.5.9 LTS
# www.blender.org
mtllib Serwers01_005.mtl
o Serwers01_005
v 2.185812 -2.561713 6.000059
v 3.869725 -2.561713 6.000059
v -5.999941 -2.561713 -2.185812
v -5.999941 -2.561713 -3.869725
v 3.929231 -2.187449 6.000059
v -5.999941 -2.187449 -3.929231
v 4.157303 -2.187449 6.000059
v -5.999941 -2.187449 -4.157303
v 4.157303 -1.940267 6.000059
v -5.999941 -1.940267 -4.157303
v 4.239360 -1.940267 6.000059
v -5.999941 -1.940267 -4.239360
v 1.851272 -2.678080 6.000059
v -5.999941 -2.678080 -1.851272
v 1.284489 -2.843798 6.000059
v -5.999941 -2.843798 -1.284489
v -0.000000 -2.843798 6.000059
v -5.999941 -2.843798 0.000000
v 4.511393 -1.048086 6.000059
v -5.999941 -1.048086 -4.511393
v 4.482758 0.207360 6.000059
v -5.999940 0.207360 -4.482758
v 4.210725 1.180951 6.000059
v -5.999940 1.180951 -4.210725
v 3.611235 2.131809 6.000059
v -5.999940 2.131809 -3.611235
v 2.565410 2.906828 6.000520
v -5.999480 2.906828 -2.565410
v 1.422453 3.345155 6.000520
v -5.999480 3.345155 -1.422453
v 0.359149 3.426353 6.000520
v -5.999480 3.426353 -0.359149
v -0.000000 3.441601 5.987757
v -6.012244 3.441601 0.000000
v -2.185812 -2.561713 6.000059
v -3.869725 -2.561713 6.000059
v -5.999941 -2.561713 2.185812
v -5.999941 -2.561713 3.869725
v -3.929231 -2.187449 6.000059
v -5.999941 -2.187449 3.929231
v -4.157303 -2.187449 6.000059
v -5.999941 -2.187449 4.157303
v -4.157303 -1.940267 6.000059
v -5.999941 -1.940267 4.157303
v -4.239360 -1.940267 6.000059
v -5.999941 -1.940267 4.239360
v -1.851272 -2.678080 6.000059
v -5.999941 -2.678080 1.851272
v -1.284490 -2.843798 6.000059
v -5.999941 -2.843798 1.284490
v -4.511393 -1.048086 6.000059
v -5.999941 -1.048086 4.511393
v -4.482758 0.207360 6.000059
v -5.999940 0.207360 4.482758
v -4.210725 1.180951 6.000059
v -5.999940 1.180951 4.210725
v -3.611235 2.131809 6.000059
v -5.999940 2.131809 3.611235
v -2.565410 2.906828 6.000520
v -5.999480 2.906828 2.565410
v -1.422453 3.345155 6.000520
v -5.999480 3.345155 1.422453
v -0.359149 3.426353 6.000520
v -5.999480 3.426353 0.359149
v 3.869725 -2.561713 3.869725
v 3.869725 -2.561713 -3.869725
v 3.869725 -2.561713 -2.484754
v 3.869725 -2.561713 -2.185812
v 3.869725 -2.561713 2.185812
v 3.929231 -2.187449 4.157303
v 3.929231 -2.187449 3.929231
v 3.929231 -2.187449 -3.929231
v 3.929231 -2.187449 -4.117945
v 3.929231 -2.187449 -4.157303
v 4.157303 -2.187449 4.157303
v 4.157303 -2.187449 4.122280
v 4.157303 -2.187449 -4.157303
v 4.157303 -2.187449 -3.929231
v 4.157303 -2.187449 3.929231
v 4.157303 -1.940267 4.239360
v 4.157303 -1.940267 4.157303
v 4.157303 -1.940267 -4.157303
v 4.157303 -1.940267 -4.226759
v 4.157303 -1.940267 -4.239360
v 2.185812 -2.561713 3.869725
v 2.185812 -2.561713 2.721051
v 2.185812 -2.561713 2.185812
v 2.185812 -2.561713 -2.185812
v 2.185812 -2.561713 -3.869725
v 1.851272 -2.678080 1.851272
v 1.851272 -2.678080 -1.851272
v 1.284489 -2.843798 -1.284489
v 1.284489 -2.843798 1.284490
v 1.284489 -2.843798 0.779731
v 1.284489 -2.843798 0.000000
v 4.239360 -1.940267 4.239360
v 4.239360 -1.940267 4.227320
v 4.239360 -1.940267 -4.239360
v 4.239360 -1.940267 -4.157303
v 4.239360 -1.940267 4.157303
v 4.511393 -1.048086 -4.511393
v 4.482758 0.207360 -4.482758
v 4.210725 1.180951 -4.210725
v 3.611235 2.131809 -3.611235
v 2.565410 2.906828 -2.565410
v 1.422453 3.345155 -1.422453
v 0.359149 3.426353 -0.359149
v -0.000000 3.441601 0.000000
v -3.929231 -2.187449 3.929231
v -3.929231 -2.187449 4.157303
v -3.929231 -2.187449 -3.929231
v -3.929231 -2.187449 -3.968587
v -3.929231 -2.187449 -4.157303
v -3.869725 -2.561713 3.869725
v -3.869725 -2.561713 -3.869725
v -3.869725 -2.561713 -3.570801
v -3.869725 -2.561713 -2.185812
v -3.869725 -2.561713 2.185812
v -4.157303 -1.940267 4.157303
v -4.157303 -1.940267 4.239360
v -4.157303 -1.940267 -4.157303
v -4.157303 -1.940267 -4.169903
v -4.157303 -1.940267 -4.239360
v -4.157303 -2.187449 3.964252
v -4.157303 -2.187449 4.157303
v -4.157303 -2.187449 -4.157303
v -4.157303 -2.187449 -3.929231
v -4.157303 -2.187449 3.929231
v -1.851272 -2.678080 -1.851272
v -1.851272 -2.678080 1.851272
v -2.185812 -2.561713 -3.869725
v -2.185812 -2.561713 3.869725
v -2.185812 -2.561713 3.334504
v -2.185812 -2.561713 2.185812
v -2.185812 -2.561713 -2.185812
v -1.284490 -2.843798 1.284490
v -1.284490 -2.843798 0.504746
v -1.284490 -2.843798 0.000000
v -1.284490 -2.843798 -1.284489
v -4.511393 -1.048086 4.511393
v -4.239360 -1.940267 4.239360
v -4.239360 -1.940267 4.169342
v -4.239360 -1.940267 -4.239360
v -4.239360 -1.940267 -4.157303
v -4.239360 -1.940267 4.157303
v -4.482758 0.207360 4.482758
v -4.210725 1.180951 4.210725
v -3.611235 2.131809 3.611235
v -2.565410 2.906828 2.565410
v -1.422453 3.345155 1.422453
v -0.359149 3.426353 0.359149
v -3.570801 -2.561713 -3.869725
v -3.968587 -2.187449 -3.929231
v 3.964252 -2.187449 -4.157303
v -4.169903 -1.940267 -4.157303
v 3.334504 -2.561713 -2.185812
v -0.000000 -2.843798 -1.284489
v 0.504746 -2.843798 -1.284489
v 4.169342 -1.940267 -4.239360
v -4.117945 -2.187449 3.929231
v -2.484754 -2.561713 3.869725
v -4.226759 -1.940267 4.157303
v 4.122280 -2.187449 4.157303
v 2.721051 -2.561713 2.185812
v -0.000000 -2.843798 1.284490
v 0.779731 -2.843798 1.284490
v 4.227320 -1.940267 4.239360
v -4.118624 -2.187449 3.964988
v -3.967853 -2.187449 -3.967853
v 4.121601 -2.187449 4.121601
v 3.964988 -2.187449 -4.118624
v -4.226842 -1.940267 4.169427
v -4.169817 -1.940267 -4.169817
v 4.227237 -1.940267 4.227237
v 4.169427 -1.940267 -4.226842
v 0.719225 -2.843798 0.719225
v 0.566996 -2.843798 -0.702930
v -0.580140 -2.843798 -0.580140
v -0.000000 -2.843798 -0.642238
v -0.702930 -2.843798 0.566996
v -0.642238 -2.843798 0.000000
v -0.000000 -2.843798 0.000000
v -3.522007 -2.561713 -3.522007
v -2.552636 -2.561713 3.385979
v 2.655185 -2.561713 2.655185
v 3.385979 -2.561713 -2.552636
v 2.299661 -2.674139 6.500879
v 4.071281 -2.674139 6.500879
v 4.133887 -2.280382 6.500879
v 4.373837 -2.280382 6.500879
v 4.373837 -2.020325 6.500879
v 4.460169 -2.020325 6.500879
v 1.947696 -2.796567 6.500879
v 1.351392 -2.970917 6.500879
v -0.000000 -2.970917 6.500879
v 4.746370 -1.081674 6.500879
v 4.716244 0.239162 6.500879
v 4.430042 1.263463 6.500879
v 3.799328 2.263847 6.500879
v 2.699031 3.079233 6.501364
v 1.496542 3.540390 6.501364
v 0.377855 3.625818 6.501364
v -0.000000 3.641860 6.487936
v -2.299661 -2.674139 6.500879
v -4.071281 -2.674139 6.500879
v -4.133887 -2.280382 6.500879
v -4.373837 -2.280382 6.500879
v -4.373837 -2.020325 6.500879
v -4.460169 -2.020325 6.500879
v -1.947696 -2.796567 6.500879
v -1.351393 -2.970917 6.500879
v -4.746370 -1.081674 6.500879
v -4.716244 0.239162 6.500879
v -4.430042 1.263463 6.500879
v -3.799328 2.263847 6.500879
v -2.699031 3.079233 6.501364
v -1.496542 3.540390 6.501364
v -0.377856 3.625818 6.501364
v -6.434654 -2.663428 -2.288814
v -6.434654 -2.663428 -4.052078
v -6.434654 -2.271528 -4.114388
v -6.434654 -2.271528 -4.353207
v -6.434654 -2.012698 -4.353207
v -6.434654 -2.012698 -4.439131
v -6.434654 -2.785278 -1.938509
v -6.434654 -2.958806 -1.345018
v -6.434654 -2.958806 0.000000
v -6.434654 -1.078474 -4.723983
v -6.434653 0.236132 -4.693998
v -6.434653 1.255602 -4.409147
v -6.434653 2.251267 -3.781407
v -6.434171 3.062807 -2.686300
v -6.434171 3.521789 -1.489483
v -6.434171 3.606813 -0.376073
v -6.447536 3.622780 0.000000
v -6.434654 -2.663428 2.288814
v -6.434654 -2.663428 4.052078
v -6.434654 -2.271528 4.114388
v -6.434654 -2.271528 4.353207
v -6.434654 -2.012698 4.353207
v -6.434654 -2.012698 4.439131
v -6.434654 -2.785278 1.938509
v -6.434654 -2.958806 1.345019
v -6.434654 -1.078474 4.723983
v -6.434653 0.236132 4.693998
v -6.434653 1.255602 4.409147
v -6.434653 2.251267 3.781407
v -6.434171 3.062807 2.686300
v -6.434171 3.521789 1.489483
v -6.434171 3.606813 0.376073
vn -0.0000 1.0000 -0.0000
vn -0.1739 0.9766 0.1264
vn -0.6025 0.7687 0.2148
vn -0.9876 0.1570 -0.0000
vn -0.6577 0.7309 0.1823
vn -0.6540 0.7248 0.2168
vn -1.0000 -0.0000 -0.0000
vn -0.7138 0.6752 0.1859
vn -0.5380 0.8225 0.1845
vn -0.3285 0.9445 -0.0000
vn -0.3047 0.9525 -0.0000
vn -0.3010 0.9436 0.1381
vn -0.3163 0.9487 -0.0000
vn -0.1888 0.9820 -0.0000
vn -0.1363 0.9817 0.1327
vn -0.2806 0.9598 -0.0000
vn -0.0000 0.9923 0.1240
vn -0.9909 -0.1349 -0.0000
vn -0.9644 -0.1436 0.2219
vn -0.8910 -0.3965 0.2211
vn -0.9287 -0.3707 -0.0000
vn -0.2126 -0.9569 0.1979
vn -0.1476 -0.9780 0.1476
vn -0.5358 -0.8443 -0.0000
vn -0.4685 -0.8593 0.2051
vn -0.7814 -0.6240 -0.0000
vn -0.7134 -0.6664 0.2168
vn -0.9926 0.1215 -0.0000
vn -0.9654 0.1326 0.2244
vn -0.0106 -0.9999 0.0106
vn -0.0339 -0.9989 0.0339
vn -0.0616 -0.9796 0.1915
vn -0.0000 -0.9825 0.1861
vn -0.9565 0.2917 -0.0000
vn 0.6025 0.7687 0.2148
vn 0.1739 0.9766 0.1264
vn 0.9876 0.1570 -0.0000
vn 0.6577 0.7309 0.1823
vn 0.6540 0.7248 0.2168
vn 1.0000 -0.0000 -0.0000
vn 0.7138 0.6752 0.1859
vn 0.5380 0.8225 0.1845
vn 0.3285 0.9445 -0.0000
vn 0.3010 0.9436 0.1381
vn 0.2931 0.9561 -0.0000
vn 0.1363 0.9817 0.1327
vn 0.0960 0.9954 -0.0000
vn 0.9890 0.1482 -0.0000
vn 0.9654 0.1326 0.2244
vn 0.9565 0.2917 -0.0000
vn 0.9644 -0.1436 0.2219
vn 0.9875 -0.1576 -0.0000
vn 0.8910 -0.3965 0.2211
vn 0.9004 -0.4351 -0.0000
vn 0.7134 -0.6664 0.2168
vn 0.6870 -0.7266 -0.0000
vn 0.4685 -0.8593 0.2051
vn 0.4272 -0.9042 -0.0000
vn 0.2126 -0.9569 0.1979
vn 0.0755 -0.9943 -0.0755
vn 0.0616 -0.9796 0.1915
vn 0.0255 -0.9994 -0.0255
vn -0.2232 0.7683 0.5999
vn -0.1314 0.9759 0.1741
vn -0.1888 0.7296 0.6573
vn -0.0000 0.1570 0.9876
vn -0.2253 0.7250 0.6509
vn -0.1924 0.6740 0.7133
vn -0.0000 -0.0000 1.0000
vn -0.1914 0.8228 0.5352
vn -0.0000 0.9445 0.3285
vn -0.1436 0.9428 0.3007
vn -0.0000 0.9525 0.3047
vn -0.0000 0.9487 0.3163
vn -0.1381 0.9810 0.1360
vn -0.0000 0.9820 0.1888
vn -0.0000 0.9598 0.2806
vn -0.1290 0.9917 -0.0000
vn -0.0000 0.1215 0.9926
vn -0.0000 -0.1349 0.9909
vn -0.2300 -0.1434 0.9626
vn -0.2327 0.1323 0.9635
vn -0.0000 -0.8443 0.5358
vn -0.2128 -0.8579 0.4677
vn -0.2250 -0.6651 0.7120
vn -0.0000 -0.6240 0.7814
vn -0.2054 -0.9554 0.2122
vn -0.0000 0.2917 0.9565
vn -0.1944 -0.9794 0.0546
vn -0.0000 -0.3707 0.9287
vn -0.2292 -0.3957 0.8893
vn -0.1314 0.9759 -0.1741
vn -0.2232 0.7683 -0.5999
vn -0.0000 0.1570 -0.9876
vn -0.1888 0.7296 -0.6573
vn -0.2253 0.7250 -0.6509
vn -0.0000 -0.0000 -1.0000
vn -0.1924 0.6740 -0.7133
vn -0.1914 0.8228 -0.5352
vn -0.0000 0.9445 -0.3285
vn -0.0000 0.9561 -0.2931
vn -0.1436 0.9428 -0.3007
vn -0.1381 0.9810 -0.1360
vn -0.0000 0.9954 -0.0960
vn -0.0000 0.2917 -0.9565
vn -0.2327 0.1323 -0.9635
vn -0.0000 0.1482 -0.9890
vn -0.2300 -0.1434 -0.9626
vn -0.0000 -0.1576 -0.9875
vn -0.2292 -0.3957 -0.8893
vn -0.0000 -0.4351 -0.9004
vn -0.2250 -0.6651 -0.7120
vn -0.0000 -0.7266 -0.6870
vn -0.2128 -0.8579 -0.4677
vn -0.0000 -0.9042 -0.4272
vn -0.2054 -0.9554 -0.2122
vn -0.1944 -0.9794 -0.0546
vn -0.2012 -0.9795 -0.0000
vn 0.1445 0.9543 0.2615
vn -0.0000 0.9693 0.2460
vn -0.2946 0.9157 0.2734
vn -0.1425 0.9583 0.2475
vn 0.6711 -0.6149 0.4142
vn 0.8290 -0.3656 0.4233
vn 0.4460 -0.8030 0.3954
vn 0.2071 -0.9008 0.3818
vn -0.6812 0.6083 0.4074
vn -0.5844 0.7231 0.3683
vn 0.5369 0.7625 0.3609
vn 0.6276 0.6666 0.4022
vn -0.0000 -0.9284 0.3717
vn 0.0618 -0.9265 0.3713
vn -0.6047 0.7007 0.3786
vn 0.5844 0.7231 0.3683
vn 0.6812 0.6083 0.4074
vn -0.2071 -0.9008 0.3818
vn -0.0618 -0.9265 0.3713
vn 0.6047 0.7007 0.3786
vn -0.1445 0.9543 0.2615
vn 0.1425 0.9583 0.2475
vn -0.4460 -0.8030 0.3954
vn -0.6276 0.6666 0.4022
vn -0.8952 0.1232 0.4283
vn 0.8952 0.1232 0.4283
vn -0.8951 -0.1327 0.4257
vn 0.2946 0.9157 0.2734
vn -0.8290 -0.3656 0.4233
vn -0.6711 -0.6149 0.4142
vn 0.8951 -0.1327 0.4257
vn -0.5369 0.7625 0.3609
vn -0.4285 -0.6101 0.6664
vn -0.4378 -0.3627 0.8227
vn -0.4429 0.1223 -0.8882
vn -0.4403 -0.1317 -0.8881
vn -0.4403 -0.1317 0.8881
vn -0.4429 0.1223 0.8882
vn -0.4094 -0.7974 0.4433
vn -0.4378 -0.3627 -0.8227
vn -0.2572 0.9560 -0.1414
vn -0.4165 0.6611 -0.6241
vn -0.3955 -0.8951 0.2059
vn -0.4285 -0.6101 -0.6664
vn -0.4094 -0.7974 -0.4433
vn -0.3846 -0.9219 0.0479
vn -0.3733 0.7608 0.5309
vn -0.4165 0.6611 0.6241
vn -0.3843 -0.9232 -0.0000
vn -0.3733 0.7608 -0.5309
vn -0.2558 0.9667 -0.0000
vn -0.2718 0.9515 -0.1444
vn -0.3846 -0.9219 -0.0479
vn -0.2572 0.9560 0.1414
vn -0.4218 0.6029 0.6772
vn -0.3955 -0.8951 -0.2059
vn -0.3926 0.6950 0.6024
vn -0.3806 0.7221 0.5776
vn -0.2840 0.9127 0.2937
vn -0.4218 0.6029 -0.6772
vn -0.3806 0.7221 -0.5776
vn -0.3926 0.6950 -0.6024
vn -0.2718 0.9515 0.1444
vn -0.2840 0.9127 -0.2937
vt 3.285065 0.122410
vt 3.995035 0.122410
vt 3.995035 0.683603
vt 3.285066 0.683603
vt 1.266955 0.505231
vt 1.266955 0.122411
vt 2.723872 0.122410
vt 2.723873 0.300788
vt 2.723873 0.683603
vt 1.266955 0.683603
vt 1.167328 0.683603
vt 1.144705 0.522386
vt 0.705763 0.683603
vt 0.705762 0.122411
vt 2.902250 0.122410
vt 2.880299 0.278837
vt 3.995036 0.809899
vt 3.380906 0.809899
vt 3.304897 0.809899
vt 0.685931 0.809900
vt 3.995034 0.885907
vt 3.380905 0.885908
vt 3.380905 0.874236
vt 3.304896 0.885908
vt 0.685931 0.885908
vt 0.609923 0.821571
vt 0.609923 0.809900
vt 0.623039 0.809900
vt 0.622813 0.821816
vt 0.609923 0.885908
vt 3.369233 0.885908
vt 3.369007 0.874009
vt 3.995035 0.968285
vt 3.408252 0.968285
vt 3.380906 0.968285
vt 0.609923 0.968286
vt 3.995035 0.995632
vt 3.408252 0.995632
vt 3.408252 0.991620
vt 3.380905 0.995632
vt 0.609923 0.995633
vt 0.582576 0.972298
vt 0.582576 0.968286
vt 0.586775 0.968286
vt 0.586747 0.972327
vt 0.582575 0.995633
vt 3.404240 0.995632
vt 3.404212 0.991592
vt 2.612381 0.004367
vt 3.995034 0.004366
vt 3.995034 0.122410
vt 3.285065 0.122410
vt 1.378446 0.004367
vt 3.569130 0.690402
vt 6.071139 0.690402
vt 6.071139 0.991128
vt 3.869856 0.991128
vt 3.301313 0.690402
vt 1.905344 0.991128
vt 2.206069 0.690402
vt 2.887600 0.690402
vt 3.569130 0.008872
vt 6.071139 0.008872
vt 3.569130 0.422585
vt 3.269209 0.390481
vt 2.206069 0.276682
vt 2.514636 0.309711
vt 2.546838 0.008872
vt 2.887600 0.008872
vt 2.206069 0.008872
vt 0.184867 0.264496
vt 1.451498 0.264496
vt 1.451498 0.386640
vt 0.217737 0.386640
vt 1.451554 0.827653
vt 0.554642 0.827652
vt 0.416539 0.679742
vt 1.451554 0.679742
vt 0.290173 0.522460
vt 1.451499 0.522460
vt 0.181407 0.112762
vt 1.451499 0.112762
vt 0.726515 0.999940
vt 0.683120 0.956505
vt 1.451554 0.956505
vt 1.450012 0.999940
vt 0.214277 0.000060
vt 0.224191 0.000060
vt 1.228839 0.000060
vt 1.237299 0.000060
vt 1.238754 0.000060
vt 1.451498 0.000060
vt 3.285065 0.683603
vt 3.285065 0.122410
vt 3.285065 0.222038
vt 3.106693 0.122410
vt 3.123849 0.244660
vt 2.723873 0.122410
vt 2.723873 0.683603
vt 1.266955 0.122411
vt 0.705763 0.122411
vt 0.705763 0.583982
vt 0.821646 0.567720
vt 0.805384 0.683603
vt 1.266955 0.683603
vt 0.705762 0.683603
vt 3.316567 0.885908
vt 3.316813 0.873017
vt 3.304896 0.872791
vt 0.685931 0.809900
vt 0.672815 0.809900
vt 0.673060 0.822771
vt 0.685931 0.823016
vt 0.609922 0.885908
vt 0.685931 0.885908
vt 0.609923 0.809900
vt 3.384917 0.995632
vt 3.384946 0.991460
vt 3.380905 0.991433
vt 0.609923 0.968286
vt 0.605723 0.968286
vt 0.605752 0.972457
vt 0.609923 0.972485
vt 0.582576 0.995633
vt 0.609922 0.995633
vt 0.582576 0.968286
vt 3.285065 0.122410
vt 2.612381 0.004367
vt 3.869856 0.991128
vt 2.887600 0.690402
vt 2.887600 0.349634
vt 2.579787 0.316685
vt 3.155410 0.690402
vt 3.188439 0.381836
vt 1.271624 0.112762
vt 1.238754 0.000060
vt 1.268164 0.264496
vt 1.235294 0.386640
vt 1.162858 0.522460
vt 1.036492 0.679742
vt 0.898390 0.827652
vt 0.769911 0.956505
vt 0.705763 0.583982
vt -0.004168 0.683603
vt -0.004168 0.122411
vt 3.106693 0.122410
vt 3.123849 0.244661
vt -0.004168 0.809900
vt 0.672815 0.809900
vt 3.304897 0.809899
vt -0.004168 0.885908
vt 3.304897 0.872791
vt 3.316813 0.873017
vt -0.004168 0.968286
vt -0.004168 0.995633
vt 0.609923 0.972485
vt 3.384946 0.991460
vt -0.004168 0.004367
vt -0.295877 0.991128
vt -0.295877 0.690402
vt 1.905343 0.991128
vt 3.155410 0.690402
vt -0.295877 0.008872
vt 2.887599 0.349634
vt 3.188439 0.381836
vt 2.546838 0.008872
vt 0.001547 0.264496
vt 0.001547 0.112762
vt 0.001603 0.679742
vt 0.001547 0.522460
vt 1.162859 0.522460
vt 0.898389 0.827652
vt 0.001603 0.827652
vt 1.230294 0.000060
vt 0.001547 0.000060
vt 0.214277 0.000060
vt 0.224192 0.000060
vt 0.001603 0.956505
vt 0.001547 0.386640
vt 2.723873 0.300788
vt 2.902250 0.122410
vt 1.167328 0.683603
vt 1.144705 0.522386
vt 0.609923 0.809900
vt 0.623039 0.809900
vt 3.380905 0.874236
vt 3.369233 0.885908
vt 0.622813 0.821816
vt 3.408252 0.991620
vt 3.404240 0.995632
vt 1.905343 0.991128
vt 2.206069 0.690402
vt 2.206069 0.276682
vt 2.514636 0.309711
vt 3.569130 0.422585
vt 0.214277 0.000060
vt 0.181407 0.112762
vt 0.184867 0.264496
vt 0.217736 0.386640
vt 0.290172 0.522460
vt 0.416539 0.679742
vt 0.554642 0.827652
vt 0.000060 0.999940
s 1
usemtl bricks
f 102/71/18 21/72/19 23/73/20 103/74/21
f 29/75/22 106/76/23 105/77/24 27/78/25
f 105/77/24 104/79/26 25/80/27 27/78/25
f 101/81/28 19/82/29 21/72/19 102/71/18
f 108/83/30 107/84/31 31/85/32 33/86/33
f 101/81/28 98/87/34 99/88/34 100/89/34 97/90/34 96/91/34 11/92/9 19/82/29
f 107/84/31 106/76/23 29/75/22 31/85/32
f 140/135/48 51/82/49 45/92/42 141/136/50
f 53/72/51 51/82/49 140/135/48 146/137/52
f 55/73/53 53/72/51 146/137/52 147/138/54
f 57/80/55 55/73/53 147/138/54 148/139/56
f 59/78/57 57/80/55 148/139/56 149/140/58
f 61/75/59 59/78/57 149/140/58 150/141/60
f 63/85/61 61/75/59 150/141/60 151/142/62
f 33/86/33 63/85/61 151/142/62 108/83/30
f 101/135/79 102/137/80 22/167/81 20/168/82
f 103/74/21 23/73/20 25/80/27 104/79/26
f 105/140/83 28/169/84 26/170/85 104/171/86
f 106/172/23 30/173/87 28/169/84 105/140/83
f 159/174/88 98/91/88 101/135/79 20/168/82 12/175/70 143/176/88 123/177/88 84/89/88
f 106/172/23 107/142/31 32/178/89 30/173/87
f 22/167/81 102/137/80 103/138/90 24/179/91
f 103/138/90 104/171/86 26/170/85 24/179/91
f 141/196/105 46/175/99 52/168/106 140/197/107
f 52/168/106 54/167/108 146/198/109 140/197/107
f 54/167/108 56/179/110 147/199/111 146/198/109
f 56/179/110 58/170/112 148/200/113 147/199/111
f 58/170/112 60/169/114 149/201/115 148/200/113
f 60/169/114 62/173/116 150/202/60 149/201/115
f 62/173/116 64/178/117 151/84/62 150/202/60
f 64/178/117 34/203/118 108/83/30 151/84/62
f 32/178/89 107/142/31 108/83/30 34/203/118
f 55/73/53 57/80/55 215/80/123 214/73/124
f 57/80/55 59/78/57 216/78/125 215/80/123
f 59/78/57 61/75/59 217/75/126 216/78/125
f 63/85/61 33/86/33 203/86/131 218/85/132
f 31/85/32 29/75/22 201/75/136 202/85/137
f 33/86/33 31/85/32 202/85/137 203/86/131
f 29/75/22 27/78/25 200/78/141 201/75/136
f 19/82/29 11/92/9 192/92/133 196/82/143
f 45/92/42 51/82/49 212/82/144 209/92/138
f 61/75/59 63/85/61 218/85/132 217/75/126
f 21/72/19 19/82/29 196/82/143 197/72/145
f 23/73/20 21/72/19 197/72/145 198/73/147
f 25/80/27 23/73/20 198/73/147 199/80/148
f 51/82/49 53/72/51 213/72/149 212/82/144
f 27/78/25 25/80/27 199/80/148 200/78/141
f 53/72/51 55/73/53 214/73/124 213/72/149
f 24/179/91 26/170/85 231/170/151 230/179/152
f 54/167/108 52/168/106 244/168/153 245/167/154
f 20/168/82 22/167/81 229/167/155 228/168/156
f 26/170/85 28/169/84 232/169/157 231/170/151
f 56/179/110 54/167/108 245/167/154 246/179/158
f 22/167/81 24/179/91 230/179/152 229/167/155
f 28/169/84 30/173/87 233/173/161 232/169/157
f 58/170/112 56/179/110 246/179/158 247/170/162
f 60/169/114 58/170/112 247/170/162 248/169/163
f 30/173/87 32/178/89 234/178/164 233/173/161
f 32/178/89 34/203/118 235/203/167 234/178/164
f 34/203/118 64/178/117 250/178/171 235/203/167
f 62/173/116 60/169/114 248/169/163 249/173/174
f 64/178/117 62/173/116 249/173/174 250/178/171
f 12/175/70 20/168/82 228/168/156 224/175/175
f 52/168/106 46/175/99 241/175/180 244/168/153
usemtl concrete_base_02
f 85/1/1 1/2/2 2/3/3 65/4/1
f 156/5/1 88/6/1 87/7/1 164/8/1 69/9/1 68/10/1
f 68/10/1 67/11/1 186/12/1 156/5/1
f 67/11/1 66/13/1 89/14/1 88/6/1 156/5/1 186/12/1
f 86/15/1 85/1/1 65/4/1 69/9/1 164/8/1 185/16/1
f 87/7/1 86/15/1 185/16/1 164/8/1
f 65/4/4 2/3/3 5/17/5 70/18/4 71/19/4
f 71/19/4 72/20/4 66/13/4 67/11/4 68/10/4 69/9/4 65/4/4
f 70/18/1 5/17/5 7/21/6 75/22/1 163/23/1
f 72/20/1 71/19/1 79/24/1 78/25/1
f 154/26/1 74/27/1 73/28/1 171/29/1
f 73/28/1 72/20/1 78/25/1 77/30/1 154/26/1 171/29/1
f 75/22/1 76/31/1 170/32/1 163/23/1
f 76/31/1 79/24/1 71/19/1 70/18/1 163/23/1 170/32/1
f 75/22/7 7/21/6 9/33/8 80/34/7 81/35/7
f 81/35/7 82/36/7 77/30/7 78/25/7 79/24/7 76/31/7 75/22/7
f 80/34/1 9/33/8 11/37/9 96/38/1 167/39/1
f 82/36/1 81/35/1 100/40/1 99/41/1
f 159/42/1 84/43/1 83/44/1 175/45/1
f 83/44/1 82/36/1 99/41/1 98/46/1 159/42/1 175/45/1
f 96/38/1 97/47/1 174/48/1 167/39/1
f 81/35/1 80/34/1 167/39/1 174/48/1 97/47/1 100/40/1
f 86/15/10 87/7/10 90/49/11 13/50/12 1/51/2 85/52/10
f 91/53/13 90/49/11 87/7/10 88/6/10
f 114/93/1 36/3/35 35/2/36 132/94/1 161/95/1
f 161/95/1 132/94/1 133/96/1 184/97/1
f 133/96/1 134/98/1 118/99/1 114/93/1 161/95/1 184/97/1
f 135/100/1 131/101/1 152/102/1 183/103/1 116/104/1 117/105/1
f 115/106/1 116/104/1 183/103/1 152/102/1
f 109/19/37 110/18/37 39/17/38 36/3/35 114/93/37
f 125/22/1 41/21/39 39/17/38 110/18/1
f 128/24/1 124/107/1 168/108/1 160/109/1
f 124/107/1 125/22/1 110/18/1 109/19/1 160/109/1 168/108/1
f 111/110/1 112/111/1 169/112/1 153/113/1
f 126/114/1 127/115/1 153/113/1 169/112/1 112/111/1 113/116/1
f 120/34/40 43/33/41 41/21/39 125/22/40 119/35/40
f 141/38/1 45/37/42 43/33/41 120/34/1
f 145/40/1 142/117/1 172/118/1 162/119/1
f 142/117/1 141/38/1 120/34/1 119/35/1 162/119/1 172/118/1
f 121/120/1 122/121/1 173/122/1 155/123/1
f 143/124/1 144/125/1 155/123/1 173/122/1 122/121/1 123/126/1
f 132/127/43 35/51/36 47/50/44 130/128/45 134/98/43 133/96/43
f 116/143/1 115/106/1 4/144/63 3/145/64 117/14/1
f 115/106/1 116/143/1 183/103/1 152/104/1
f 88/7/1 89/9/1 131/10/1 135/100/1
f 67/95/1 66/4/1 89/9/1 88/7/1 156/146/1 186/147/1
f 135/100/1 131/10/1 152/104/1 183/103/1 116/143/1 117/14/1
f 68/1/1 67/95/1 186/147/1 156/146/1
f 6/148/65 4/144/63 115/106/66 111/110/66 153/149/66 127/27/66
f 66/4/66 72/150/66 111/110/66 115/106/66 152/104/66 131/10/66 89/9/66
f 126/114/1 8/151/67 6/148/65 127/27/1
f 112/113/1 111/110/1 72/150/1 73/152/1 74/24/1 113/25/1
f 111/110/1 112/113/1 169/112/1 153/149/1
f 73/152/1 72/150/1 78/18/1 77/22/1 154/107/1 171/153/1
f 126/114/1 127/27/1 153/149/1 169/112/1 112/113/1 113/25/1
f 154/107/1 74/24/1 73/152/1 171/153/1
f 10/154/68 8/151/67 126/151/69 121/154/69 155/154/69 144/154/69
f 154/151/69 77/151/69 82/154/69 121/154/69 126/151/69 113/151/69 74/151/69
f 143/124/1 12/155/70 10/154/68 144/126/1
f 122/156/1 121/120/1 82/35/1 83/119/1 84/40/1 123/41/1
f 121/120/1 122/156/1 173/122/1 155/121/1
f 83/119/1 82/35/1 99/34/1 98/38/1 159/117/1 175/157/1
f 143/124/1 144/126/1 155/121/1 173/122/1 122/156/1 123/41/1
f 159/117/1 84/40/1 83/119/1 175/157/1
f 117/14/71 3/145/64 14/158/72 129/53/73 135/100/71
f 129/53/73 91/49/74 88/7/71 135/100/71
f 118/101/1 37/145/92 38/144/93 114/106/1
f 87/7/1 86/180/1 185/16/1 164/181/1
f 133/5/1 134/100/1 118/101/1 114/106/1 161/182/1 184/183/1
f 161/182/1 132/105/1 133/5/1 184/183/1
f 86/180/1 85/99/1 65/4/1 69/94/1 164/181/1 185/16/1
f 109/110/94 114/106/94 38/144/93 40/148/95 128/184/94 160/185/94
f 124/26/1 128/184/1 40/148/95 42/151/96 125/114/1
f 75/22/1 76/186/1 170/32/1 163/187/1
f 124/26/1 125/114/1 110/115/1 109/110/1 160/185/1 168/188/1
f 128/184/1 124/26/1 168/188/1 160/185/1
f 76/186/1 79/18/1 71/19/1 70/24/1 163/187/1 170/32/1
f 162/154/97 119/154/97 125/21/97 42/21/96 44/154/98 145/154/97
f 142/42/1 145/43/1 44/154/98 46/155/99 141/124/1
f 96/38/1 97/189/1 174/48/1 167/190/1
f 142/42/1 141/124/1 120/125/1 119/36/1 162/44/1 172/45/1
f 145/43/1 142/42/1 172/45/1 162/44/1
f 81/35/1 80/40/1 167/190/1 174/48/1 97/189/1 100/34/1
f 134/100/100 130/53/101 48/158/102 37/145/92 118/101/100
f 1/51/2 13/50/12 193/50/121 187/51/122
f 9/33/8 7/21/6 190/21/127 191/33/128
f 36/3/35 39/17/38 206/17/129 205/3/130
f 11/37/9 9/33/8 191/33/128 192/37/133
f 41/21/39 43/33/41 208/33/134 207/21/135
f 43/33/41 45/37/42 209/37/138 208/33/134
f 35/2/36 36/3/35 205/3/130 204/2/140
f 2/3/3 1/2/2 187/2/122 188/3/142
f 39/17/38 41/21/39 207/21/135 206/17/129
f 47/50/44 35/51/36 204/51/140 210/50/146
f 7/21/6 5/17/5 189/17/150 190/21/127
f 5/17/5 2/3/3 188/3/142 189/17/150
f 38/144/93 37/145/92 236/145/159 237/144/160
f 4/144/63 6/148/65 221/148/165 220/144/166
f 40/148/95 38/144/93 237/144/160 238/148/168
f 3/145/64 4/144/63 220/144/166 219/145/172
f 6/148/65 8/151/67 222/151/173 221/148/165
f 10/154/68 12/155/70 224/155/175 223/154/176
f 14/158/72 3/145/64 219/145/172 225/158/177
f 44/154/98 42/21/96 239/21/178 240/154/179
f 46/155/99 44/154/98 240/154/179 241/155/180
f 8/151/67 10/154/68 223/154/176 222/151/173
f 42/151/96 40/148/95 238/148/168 239/151/178
f 37/145/92 48/158/102 242/158/182 236/145/159
usemtl concrete_dirty
f 93/54/14 15/55/15 13/56/12 90/57/11
f 94/58/16 93/54/14 90/57/11 91/59/13 92/60/16 95/61/16
f 165/62/1 17/63/17 15/55/15 93/54/14 166/64/1
f 93/54/1 94/58/1 176/65/1 166/64/1
f 95/61/1 92/60/1 158/66/1 177/67/1 179/68/1 182/69/1
f 158/66/1 157/70/1 179/68/1 177/67/1
f 165/62/1 166/64/1 176/65/1 94/58/1 95/61/1 182/69/1
f 130/129/45 47/56/44 49/55/46 136/54/47
f 136/54/47 49/55/46 17/63/17 165/62/1
f 157/70/1 139/60/1 138/130/1 181/131/1 178/132/1 179/68/1
f 179/68/1 178/132/1 181/131/1 182/69/1
f 137/133/1 136/54/1 165/62/1 182/69/1 181/131/1 180/134/1
f 138/130/1 137/133/1 180/134/1 181/131/1
f 14/159/72 16/160/75 139/60/76 129/161/73
f 158/162/77 92/54/77 91/57/74 129/161/73 139/60/76 157/130/77
f 139/60/76 16/160/75 18/163/78 138/70/1
f 158/162/1 157/130/1 179/164/1 177/165/1
f 157/130/1 139/60/1 138/70/1 181/166/1 178/132/1 179/164/1
f 179/164/1 178/132/1 181/166/1 182/69/1
f 95/62/1 92/54/1 158/162/1 177/165/1 179/164/1 182/69/1
f 50/160/103 48/159/102 130/191/101 136/192/104
f 137/193/1 138/70/1 18/163/78 50/160/103 136/192/104
f 138/70/1 137/193/1 180/194/1 181/166/1
f 93/54/1 94/195/1 176/65/1 166/58/1
f 137/193/1 136/192/1 165/130/1 182/69/1 181/166/1 180/194/1
f 165/130/1 166/58/1 176/65/1 94/195/1 95/62/1 182/69/1
f 17/63/17 49/55/46 211/55/119 195/63/120
f 13/56/12 15/55/15 194/55/139 193/56/121
f 15/55/15 17/63/17 195/63/120 194/55/139
f 49/55/46 47/56/44 210/56/146 211/55/119
f 50/160/103 18/163/78 227/163/169 243/160/170
f 16/160/75 14/159/72 225/159/177 226/160/181
f 48/159/102 50/160/103 243/160/170 242/159/182
f 18/163/78 16/160/75 226/160/181 227/163/169
