# Blender 4.5.9 LTS
# www.blender.org
mtllib SerwersP_011.mtl
o SerwersP_011
v -0.058480 0.743783 -1.240659
v -0.058480 -0.073102 -1.240659
v -0.058480 -1.431155 1.240659
v -0.058480 -0.073102 1.240659
v -0.058480 -1.431156 -1.240659
v -0.058480 0.743782 1.240659
v -0.058480 1.803307 -0.000001
v -0.058480 1.676455 0.566770
v -0.058480 1.344116 0.995074
v -0.058480 1.344115 -0.995073
v -0.058480 1.676455 -0.566771
v -0.058480 0.734095 -1.191392
v -0.058480 -0.073102 -1.191392
v -0.058480 -1.381889 1.191392
v -0.058480 -0.073102 1.191392
v -0.058480 1.313269 0.954463
v -0.058480 0.734095 1.191393
v -0.058480 -1.381889 -1.191393
v -0.058480 1.630782 -0.545267
v -0.058480 1.752821 -0.000001
v -0.058480 1.630782 0.545266
v -0.058480 1.313268 -0.954463
v 0.058480 0.734095 -1.191392
v 0.058480 -0.073102 -1.191392
v 0.058480 -1.381889 1.191392
v 0.058480 -0.073102 1.191392
v 0.058480 1.313269 0.954463
v 0.058480 0.734095 1.191393
v 0.058480 -1.381889 -1.191393
v 0.058480 1.630782 -0.545267
v 0.058480 1.752821 -0.000001
v 0.058480 1.630782 0.545266
v 0.058480 1.313268 -0.954463
v 0.058480 0.743783 -1.240659
v 0.058480 -0.073102 -1.240659
v 0.058480 -1.431155 1.240659
v 0.058480 -0.073102 1.240659
v 0.058480 1.344116 0.995074
v 0.058480 0.743782 1.240659
v 0.058480 -1.431156 -1.240659
v 0.058480 1.676455 -0.566771
v 0.058480 1.803307 -0.000001
v 0.058480 1.676455 0.566770
v 0.058480 1.344115 -0.995073
v -0.020423 -1.403473 -0.085844
v -0.020423 1.732769 -0.085844
v -0.020423 -1.403473 -0.150526
v -0.020423 1.732769 -0.150526
v 0.020423 -1.403473 -0.085844
v 0.020423 1.732769 -0.085844
v 0.020423 -1.403473 -0.150526
v 0.020423 1.732769 -0.150526
v -0.020423 -1.403473 -0.339895
v -0.020423 1.691463 -0.339896
v -0.020423 -1.403473 -0.404578
v -0.020423 1.691463 -0.404578
v 0.020423 -1.403473 -0.339895
v 0.020423 1.691463 -0.339896
v 0.020423 -1.403473 -0.404578
v 0.020423 1.691463 -0.404578
v -0.020423 -1.403473 -0.573957
v -0.020423 1.615459 -0.573958
v -0.020423 -1.403473 -0.638640
v -0.020423 1.615459 -0.638640
v 0.020423 -1.403473 -0.573957
v 0.020423 1.615459 -0.573958
v 0.020423 -1.403473 -0.638640
v 0.020423 1.615459 -0.638640
v -0.020423 -1.403473 -0.869370
v -0.020423 1.380977 -0.869371
v -0.020423 -1.403473 -0.934053
v -0.020423 1.380977 -0.934053
v 0.020423 -1.403473 -0.869370
v 0.020423 1.380977 -0.869371
v 0.020423 -1.403473 -0.934053
v 0.020423 1.380977 -0.934053
v -0.020423 -1.403473 0.085844
v -0.020423 1.732769 0.085844
v -0.020423 -1.403473 0.150526
v -0.020423 1.732769 0.150526
v 0.020423 -1.403473 0.085844
v 0.020423 1.732769 0.085844
v 0.020423 -1.403473 0.150526
v 0.020423 1.732769 0.150526
v -0.020423 -1.403473 0.339896
v -0.020423 1.691463 0.339896
v -0.020423 -1.403473 0.404578
v -0.020423 1.691463 0.404578
v 0.020423 -1.403473 0.339896
v 0.020423 1.691463 0.339896
v 0.020423 -1.403473 0.404578
v 0.020423 1.691463 0.404578
v -0.020423 -1.403473 0.573958
v -0.020423 1.615459 0.573958
v -0.020423 -1.403473 0.638640
v -0.020423 1.615459 0.638640
v 0.020423 -1.403473 0.573958
v 0.020423 1.615459 0.573958
v 0.020423 -1.403473 0.638640
v 0.020423 1.615459 0.638640
v -0.020423 -1.403472 0.869371
v -0.020423 1.380978 0.869370
v -0.020423 -1.403472 0.934053
v -0.020423 1.380978 0.934053
v 0.020423 -1.403472 0.869371
v 0.020423 1.380978 0.869370
v 0.020423 -1.403472 0.934053
v 0.020423 1.380978 0.934053
v -0.016773 -1.051672 -1.227153
v -0.016773 -1.051672 1.211238
v -0.016773 -0.998549 -1.227153
v -0.016773 -0.998549 1.211238
v 0.016773 -1.051672 -1.227153
v 0.016773 -1.051672 1.211238
v 0.016773 -0.998549 -1.227153
v 0.016773 -0.998549 1.211238
v -0.016773 -0.335919 -1.227153
v -0.016773 -0.335919 1.211238
v -0.016773 -0.282797 -1.227153
v -0.016773 -0.282796 1.211238
v 0.016773 -0.335919 -1.227153
v 0.016773 -0.335919 1.211238
v 0.016773 -0.282797 -1.227153
v 0.016773 -0.282796 1.211238
v -0.016773 0.654366 -1.227153
v -0.016773 0.654366 1.211238
v -0.016773 0.707489 -1.227153
v -0.016773 0.707489 1.211238
v 0.016773 0.654366 -1.227153
v 0.016773 0.654366 1.211238
v 0.016773 0.707489 -1.227153
v 0.016773 0.707489 1.211238
vn 1.0000 -0.0000 -0.0000
vn -1.0000 -0.0000 -0.0000
vn -0.0000 -1.0000 -0.0000
vn -0.0000 -0.9047 -0.4260
vn -0.0000 -0.0000 1.0000
vn -0.0000 -0.1929 0.9812
vn -0.0000 -0.6049 -0.7963
vn -0.0000 -0.0000 -1.0000
vn -0.0000 0.1929 0.9812
vn -0.0000 -0.6049 0.7963
vn -0.0000 -0.1929 -0.9812
vn -0.0000 1.0000 -0.0000
vn -0.0000 0.9047 -0.4260
vn -0.0000 -0.9047 0.4260
vn -0.0000 0.9047 0.4260
vn -0.0000 0.1929 -0.9812
vn -0.0000 0.6049 0.7963
vn -0.0000 0.6049 -0.7963
vt 0.209533 -0.225404
vt 0.209533 -0.258101
vt 0.751690 -0.258101
vt 0.745261 -0.225403
vt 0.209533 1.356024
vt -0.659094 1.356024
vt -0.691792 1.388722
vt 0.209533 1.388722
vt 1.129652 1.198777
vt 0.745260 1.356024
vt 0.751690 1.388722
vt 1.150124 1.225729
vt -0.659094 -0.225404
vt -0.691792 -0.258101
vt 1.340382 0.203423
vt 1.421378 0.565310
vt 1.454884 0.565310
vt 1.370694 0.189150
vt 1.340382 0.927198
vt 1.370694 0.941470
vt 1.129651 -0.068156
vt 1.150124 -0.095109
vt 0.597016 0.565310
vt 0.674641 0.565310
vt 0.674641 0.927198
vt 0.597016 0.927198
vt 0.597016 0.139015
vt 0.674641 0.139015
vt 0.674641 0.674742
vt 0.597016 0.674742
vt 0.597016 -0.258101
vt 0.674641 -0.258101
vt 0.674641 1.388722
vt 0.597016 1.388722
vt 0.674641 1.198777
vt 0.597016 1.198777
vt 0.674641 -0.729613
vt 0.597016 -0.729613
vt 0.674641 0.681171
vt 0.597016 0.681171
vt 0.674641 1.059133
vt 0.597016 1.059133
vt 0.597016 1.059133
vt 0.674641 1.059133
vt 0.674641 0.674742
vt 0.597016 0.674742
vt 0.674641 0.189150
vt 0.597016 0.189150
vt 0.597016 -0.068156
vt 0.674641 -0.068156
vt 0.674641 0.203423
vt 0.597016 0.203423
vt 0.597016 0.941470
vt 0.674641 0.941470
vt 0.597016 0.681172
vt 0.674641 0.681172
vt 0.597016 1.356024
vt 0.674641 1.356024
vt 0.674641 -0.225404
vt 0.597016 -0.225404
vt 0.597016 1.225729
vt 0.674641 1.225729
vt 0.597016 -0.762311
vt 0.674641 -0.762311
vt 0.597016 1.079606
vt 0.674641 1.079606
vt 0.674641 1.079606
vt 0.597016 1.079606
vt 0.674641 -0.095109
vt 0.597016 -0.095109
vt 0.680995 -0.217414
vt 0.680995 1.432722
vt 0.715028 1.432722
vt 0.715028 -0.217414
vt 0.625083 -0.217414
vt 0.625083 1.432722
vt 0.646574 1.432722
vt 0.646574 -0.217414
vt 0.814665 -0.217414
vt 0.814665 1.410990
vt 0.848698 1.410990
vt 0.848698 -0.217414
vt 0.625083 1.410990
vt 0.646574 1.410990
vt 0.937817 -0.217414
vt 0.937817 1.371000
vt 0.971849 1.371000
vt 0.971849 -0.217414
vt 0.625083 1.371000
vt 0.646574 1.371000
vt 1.093249 -0.217414
vt 1.093249 1.247627
vt 1.127281 1.247627
vt 1.127281 -0.217414
vt 0.625083 1.247627
vt 0.646574 1.247627
vt 0.590662 -0.217414
vt 0.556629 -0.217414
vt 0.556629 1.432722
vt 0.590662 1.432722
vt 0.625083 -0.217414
vt 0.646574 -0.217414
vt 0.456992 -0.217414
vt 0.422959 -0.217414
vt 0.422959 1.410990
vt 0.456992 1.410990
vt 0.333840 -0.217414
vt 0.299807 -0.217414
vt 0.299807 1.371000
vt 0.333840 1.371000
vt 0.646574 1.371000
vt 0.625083 1.371000
vt 0.178408 -0.217414
vt 0.144376 -0.217414
vt 0.144375 1.247627
vt 0.178408 1.247627
vt 0.684036 -0.069963
vt 0.684036 1.212999
vt 0.711987 1.212999
vt 0.711987 -0.069963
vt 0.627003 -0.069963
vt 0.627003 1.212999
vt 0.644654 1.212999
vt 0.644654 -0.069963
vt 0.711987 1.212999
vt 0.684036 1.212999
vt 0.644654 1.212999
vt 0.627003 1.212999
s 1
usemtl Metal
f 24/1/1 35/2/1 34/3/1 23/4/1
f 13/1/2 12/4/2 1/3/2 2/2/2
f 15/5/2 14/6/2 3/7/2 4/8/2
f 16/9/2 17/10/2 6/11/2 9/12/2
f 18/13/2 13/1/2 2/2/2 5/14/2
f 14/6/2 18/13/2 5/14/2 3/7/2
f 17/10/2 15/5/2 4/8/2 6/11/2
f 19/15/2 20/16/2 7/17/2 11/18/2
f 20/16/2 21/19/2 8/20/2 7/17/2
f 21/19/2 16/9/2 9/12/2 8/20/2
f 12/4/2 22/21/2 10/22/2 1/3/2
f 22/21/2 19/15/2 11/18/2 10/22/2
f 26/5/1 37/8/1 36/7/1 25/6/1
f 27/9/1 38/12/1 39/11/1 28/10/1
f 29/13/1 40/14/1 35/2/1 24/1/1
f 25/6/1 36/7/1 40/14/1 29/13/1
f 28/10/1 39/11/1 37/8/1 26/5/1
f 30/15/1 41/18/1 42/17/1 31/16/1
f 31/16/1 42/17/1 43/20/1 32/19/1
f 32/19/1 43/20/1 38/12/1 27/9/1
f 23/4/1 34/3/1 44/22/1 33/21/1
f 33/21/1 44/22/1 41/18/1 30/15/1
f 20/23/3 31/24/3 32/25/4 21/26/4
f 13/27/5 24/28/5 23/29/6 12/30/6
f 5/31/3 40/32/3 36/33/3 3/34/3
f 21/26/4 32/25/4 27/35/7 16/36/7
f 15/27/8 26/28/8 25/37/8 14/38/8
f 4/27/5 37/28/5 39/39/9 6/40/9
f 12/30/6 23/29/6 33/41/10 22/42/10
f 16/43/7 27/44/7 28/45/11 17/46/11
f 7/23/12 42/24/12 41/47/13 11/48/13
f 22/49/10 33/50/10 30/51/14 19/52/14
f 18/38/5 29/37/5 24/28/5 13/27/5
f 8/53/15 43/54/15 42/24/12 7/23/12
f 1/55/16 34/56/16 35/28/8 2/27/8
f 14/57/12 25/58/12 29/59/12 18/60/12
f 9/61/17 38/62/17 43/54/15 8/53/15
f 3/63/5 36/64/5 37/28/5 4/27/5
f 17/46/11 28/45/11 26/28/8 15/27/8
f 10/65/18 44/66/18 34/56/16 1/55/16
f 6/40/9 39/39/9 38/67/17 9/68/17
f 19/52/14 30/51/14 31/24/3 20/23/3
f 11/48/13 41/47/13 44/69/18 10/70/18
f 2/27/8 35/28/8 40/64/8 5/63/8
s 0
f 45/71/2 46/72/2 48/73/2 47/74/2
f 47/75/8 48/76/8 52/77/8 51/78/8
f 51/74/1 52/73/1 50/72/1 49/71/1
f 49/78/5 50/77/5 46/76/5 45/75/5
f 53/79/2 54/80/2 56/81/2 55/82/2
f 55/75/8 56/83/8 60/84/8 59/78/8
f 59/82/1 60/81/1 58/80/1 57/79/1
f 57/78/5 58/84/5 54/83/5 53/75/5
f 61/85/2 62/86/2 64/87/2 63/88/2
f 63/75/8 64/89/8 68/90/8 67/78/8
f 67/88/1 68/87/1 66/86/1 65/85/1
f 65/78/5 66/90/5 62/89/5 61/75/5
f 69/91/2 70/92/2 72/93/2 71/94/2
f 71/75/8 72/95/8 76/96/8 75/78/8
f 75/94/1 76/93/1 74/92/1 73/91/1
f 73/78/5 74/96/5 70/95/5 69/75/5
f 77/97/2 79/98/2 80/99/2 78/100/2
f 79/101/5 83/102/5 84/77/5 80/76/5
f 83/98/1 81/97/1 82/100/1 84/99/1
f 81/102/8 77/101/8 78/76/8 82/77/8
f 85/103/2 87/104/2 88/105/2 86/106/2
f 87/101/5 91/102/5 92/84/5 88/83/5
f 91/104/1 89/103/1 90/106/1 92/105/1
f 89/102/8 85/101/8 86/83/8 90/84/8
f 93/107/2 95/108/2 96/109/2 94/110/2
f 95/101/5 99/102/5 100/111/5 96/112/5
f 99/108/1 97/107/1 98/110/1 100/109/1
f 97/102/8 93/101/8 94/112/8 98/111/8
f 101/113/2 103/114/2 104/115/2 102/116/2
f 103/101/5 107/102/5 108/96/5 104/95/5
f 107/114/1 105/113/1 106/116/1 108/115/1
f 105/102/8 101/101/8 102/95/8 106/96/8
f 109/117/2 110/118/2 112/119/2 111/120/2
f 111/121/12 112/122/12 116/123/12 115/124/12
f 115/120/1 116/125/1 114/126/1 113/117/1
f 113/124/3 114/127/3 110/128/3 109/121/3
f 117/117/2 118/118/2 120/119/2 119/120/2
f 119/121/12 120/122/12 124/123/12 123/124/12
f 123/120/1 124/125/1 122/126/1 121/117/1
f 121/124/3 122/127/3 118/128/3 117/121/3
f 125/117/2 126/118/2 128/119/2 127/120/2
f 127/121/12 128/122/12 132/123/12 131/124/12
f 131/120/1 132/125/1 130/126/1 129/117/1
f 129/124/3 130/127/3 126/128/3 125/121/3
