# Blender 4.5.9 LTS
# www.blender.org
mtllib Serwers_007.mtl
o Serwers_007
v 0.000000 3.386930 -3.386927
v 0.000000 3.386931 3.386934
v 0.000000 -2.882610 3.386934
v 0.000000 -2.882610 -3.386927
v -0.979492 -2.882610 -3.386927
v -0.979492 -2.882610 3.386934
v -1.157323 -2.111717 3.386934
v -1.157323 -2.111717 -3.386927
v -2.648009 -2.111717 -3.386927
v -2.648009 -2.111717 3.386934
v -3.302013 -0.753663 -3.386927
v -3.302013 -0.753663 3.386934
v -3.302013 0.753663 -3.386927
v -3.302013 0.753663 3.386934
v -2.648009 2.111717 -3.386927
v -2.648009 2.111717 3.386934
v -1.469534 3.051519 -3.386927
v -1.469534 3.051519 3.386934
v 0.979492 -2.882610 -3.386927
v 0.979492 -2.882610 3.386934
v 1.157323 -2.111717 3.386934
v 1.157323 -2.111717 -3.386927
v 2.648009 -2.111717 -3.386927
v 2.648009 -2.111717 3.386934
v 3.302013 -0.753663 -3.386927
v 3.302013 -0.753663 3.386934
v 3.302013 0.753663 -3.386927
v 3.302013 0.753663 3.386934
v 2.648009 2.111717 -3.386927
v 2.648009 2.111717 3.386934
v 1.469534 3.051519 -3.386927
v 1.469534 3.051519 3.386934
v -3.302013 -0.753663 -0.534113
v -3.302013 -0.753663 0.534119
v -2.648009 -2.111717 -0.534113
v -2.648009 -2.111717 0.534119
v -3.302013 0.260773 -0.534113
v -3.302013 0.260773 0.534119
v -4.350504 0.260773 -0.534113
v -4.350504 -0.753663 -0.534113
v -4.350504 -2.111717 0.534120
v -4.350504 -0.753663 0.534119
v -4.350504 -2.111717 -0.534113
v -4.350504 0.260773 0.534119
vn -0.0000 1.0000 -0.0000
vn 0.9744 0.2248 -0.0000
vn -0.0000 -0.0000 1.0000
vn 0.9010 0.4339 -0.0000
vn 0.9749 0.2225 -0.0000
vn 1.0000 -0.0000 -0.0000
vn 0.9749 -0.2225 -0.0000
vn 0.7818 -0.6235 -0.0000
vn 0.4339 -0.9010 -0.0000
vn -0.0000 -1.0000 -0.0000
vn -0.9744 0.2248 -0.0000
vn -0.9010 0.4339 -0.0000
vn -0.9749 0.2225 -0.0000
vn -0.9749 -0.2225 -0.0000
vn -0.7818 -0.6235 -0.0000
vn -0.4339 -0.9010 -0.0000
vn -0.0000 -0.0000 -1.0000
vt -0.258957 1.006753
vt -0.258957 1.237606
vt 1.337553 1.237606
vt 1.337553 1.006753
vt -0.258957 0.195233
vt -0.258957 0.013544
vt 1.337553 0.013544
vt 1.337553 0.195233
vt 0.421097 0.411837
vt 0.610039 0.411837
vt 0.610039 0.594642
vt 0.421097 0.594642
vt 0.529368 0.005138
vt 1.026375 0.005138
vt 1.026375 0.241734
vt 0.529368 0.241734
vt 0.343264 0.241734
vt -0.153743 0.241734
vt -0.153743 0.005138
vt 0.343264 0.005138
vt 0.529368 0.418465
vt 1.026375 0.504334
vt -0.153743 0.504335
vt 0.343264 0.418465
vt 1.026375 0.740930
vt -0.153743 0.740930
vt 1.026375 0.533535
vt 1.026375 0.738845
vt -0.153743 0.738845
vt -0.153743 0.533535
vt 1.026375 0.994861
vt -0.153743 0.994861
vt -0.258957 0.646012
vt 1.337553 0.646012
vt 1.337553 0.997347
vt -0.258957 0.997347
vt 0.727893 0.167111
vt 0.421097 0.167111
vt 0.413414 0.646012
vt 0.665182 0.646012
vt 0.421097 0.339764
vt 0.610039 0.339764
vt 0.610039 0.532263
vt 0.421097 0.532263
vt 0.413414 0.244756
vt 0.665182 0.244756
vt 0.421097 0.411837
s 1
usemtl concrete_base
f 6/1/1 3/2/1 4/3/1 5/4/1
f 7/5/2 6/6/2 5/7/2 8/8/2
f 20/1/1 19/4/1 4/3/1 3/2/1
f 21/5/11 22/8/11 19/7/11 20/6/11
f 24/33/1 23/34/1 22/35/1 21/36/1
f 36/39/1 10/33/1 7/36/1 8/35/1 9/34/1 35/40/1
f 41/45/1 36/39/1 35/40/1 43/46/1
usemtl brick_modern_01
f 40/9/3 33/10/3 37/11/3 39/12/3
f 35/13/4 9/14/4 11/15/5 33/16/5
f 34/17/5 12/18/5 10/19/4 36/20/4
f 37/21/6 33/16/5 11/15/5 13/22/7 14/23/7 12/18/5 34/17/5 38/24/6
f 13/22/7 15/25/8 16/26/8 14/23/7
f 15/27/8 17/28/9 18/29/9 16/30/8
f 17/28/9 1/31/10 2/32/10 18/29/9
f 23/14/12 24/19/12 26/18/13 25/15/13
f 25/15/13 26/18/13 28/23/14 27/22/14
f 27/22/14 28/23/14 30/26/15 29/25/15
f 29/27/15 30/30/15 32/29/16 31/28/16
f 31/28/16 32/29/16 2/32/10 1/31/10
f 42/9/17 34/10/17 36/37/17 41/38/17
f 35/37/3 33/10/3 40/9/3 43/38/3
f 39/41/10 37/42/10 38/43/10 44/44/10
f 44/12/17 38/11/17 34/10/17 42/47/17
