# Blender 4.5.9 LTS
# www.blender.org
mtllib Serwers01_010.mtl
o Serwers01_010
v 2.185812 -2.561713 6.000059
v 3.869725 -2.561713 6.000059
v 2.185812 -2.561713 4.000059
v 3.869725 -2.561713 4.000059
v 3.929231 -2.187449 6.000059
v 3.929231 -2.187449 4.000059
v 4.157303 -2.187449 6.000059
v 4.157303 -2.187449 4.000059
v 4.157303 -1.940267 6.000059
v 4.157303 -1.940267 4.000059
v 4.239360 -1.940267 6.000059
v 4.239360 -1.940267 4.000059
v 1.851272 -2.678080 6.000059
v 1.851272 -2.678080 4.000059
v 1.284489 -2.843798 6.000059
v 1.284489 -2.843798 4.000059
v -0.000000 -2.843798 6.000059
v -0.000000 -2.843798 4.000059
v 4.511393 -1.048086 6.000059
v 4.511393 -1.048086 4.000059
v 4.482758 0.207360 6.000059
v 4.482758 0.207360 4.000060
v 4.210725 1.180951 6.000059
v 4.210725 1.180951 4.000060
v 3.611235 2.131809 6.000059
v 3.611235 2.131809 4.000060
v 2.565410 2.906828 6.000520
v 2.565410 2.906828 4.000520
v 1.422453 3.345155 6.000520
v 1.422453 3.345155 4.000520
v 0.359149 3.426353 6.000520
v 0.359149 3.426353 4.000520
v -0.000000 3.441601 5.987757
v -0.000000 3.441601 3.987756
v -2.185812 -2.561713 6.000059
v -3.869725 -2.561713 6.000059
v -2.185812 -2.561713 4.000059
v -3.869725 -2.561713 4.000059
v -3.929231 -2.187449 6.000059
v -3.929231 -2.187449 4.000059
v -4.157303 -2.187449 6.000059
v -4.157303 -2.187449 4.000059
v -4.157303 -1.940267 6.000059
v -4.157303 -1.940267 4.000059
v -4.239360 -1.940267 6.000059
v -4.239360 -1.940267 4.000059
v -1.851272 -2.678080 6.000059
v -1.851272 -2.678080 4.000059
v -1.284490 -2.843798 6.000059
v -1.284490 -2.843798 4.000059
v -4.511393 -1.048086 6.000059
v -4.511393 -1.048086 4.000059
v -4.482758 0.207360 6.000059
v -4.482758 0.207360 4.000060
v -4.210725 1.180951 6.000059
v -4.210725 1.180951 4.000060
v -3.611235 2.131809 6.000059
v -3.611235 2.131809 4.000060
v -2.565410 2.906828 6.000520
v -2.565410 2.906828 4.000520
v -1.422453 3.345155 6.000520
v -1.422453 3.345155 4.000520
v -0.359149 3.426353 6.000520
v -0.359149 3.426353 4.000520
v 2.576151 -2.561713 1.962917
v 4.131884 -2.561713 2.607323
v 4.186860 -2.187449 2.630095
v 4.397571 -2.187449 2.717374
v 4.397571 -1.940267 2.717374
v 4.473382 -1.940267 2.748775
v 2.267076 -2.678080 1.834894
v 1.743437 -2.843798 1.617995
v 0.556724 -2.843798 1.126443
v 4.724707 -1.048086 2.852878
v 4.698252 0.207360 2.841920
v 4.446926 1.180951 2.737818
v 3.893070 2.131809 2.508403
v 2.926678 2.906828 2.108608
v 1.870723 3.345155 1.671217
v 0.888358 3.426353 1.264309
v 0.561432 3.441601 1.115076
v -1.462703 -2.561713 0.289968
v -3.018436 -2.561713 -0.354437
v -3.073412 -2.187449 -0.377209
v -3.284123 -2.187449 -0.464489
v -3.284123 -1.940267 -0.464489
v -3.359934 -1.940267 -0.495890
v -1.153628 -2.678080 0.417992
v -0.629990 -2.843798 0.634890
v -3.611259 -1.048086 -0.599993
v -3.584804 0.207360 -0.589034
v -3.333478 1.180951 -0.484931
v -2.779623 2.131809 -0.255517
v -1.813582 2.906828 0.145128
v -0.757627 3.345155 0.582519
v 0.224737 3.426353 0.989428
v 3.716358 -2.561713 0.230219
v 4.907064 -2.561713 1.420926
v 4.949141 -2.187449 1.463003
v 5.110412 -2.187449 1.624274
v 5.110412 -1.940267 1.624274
v 5.168436 -1.940267 1.682297
v 3.479802 -2.678080 -0.006337
v 3.079027 -2.843798 -0.407113
v 2.170755 -2.843798 -1.315384
v 5.360791 -1.048086 1.874653
v 5.340543 0.207360 1.854405
v 5.148187 1.180951 1.662049
v 4.724284 2.131809 1.238146
v 3.984449 2.906828 0.498961
v 3.176256 3.345155 -0.309232
v 2.424387 3.426353 -1.061101
v 2.179455 3.441601 -1.324083
v 0.625153 -2.561713 -2.860986
v -0.565553 -2.561713 -4.051693
v -0.607630 -2.187449 -4.093770
v -0.768901 -2.187449 -4.255041
v -0.768901 -1.940267 -4.255041
v -0.826925 -1.940267 -4.313064
v 0.861709 -2.678080 -2.624430
v 1.262484 -2.843798 -2.223655
v -1.019280 -1.048086 -4.505420
v -0.999032 0.207360 -4.485171
v -0.806677 1.180951 -4.292815
v -0.382774 2.131809 -3.868912
v 0.356411 2.906828 -3.129077
v 1.164604 3.345155 -2.320884
v 1.916473 3.426353 -1.569015
v 5.432847 -2.561713 -0.934246
v 6.077252 -2.561713 0.621487
v 6.100024 -2.187449 0.676463
v 6.187303 -2.187449 0.887173
v 6.187303 -1.940267 0.887173
v 6.218705 -1.940267 0.962984
v 5.304823 -2.678080 -1.243322
v 5.087925 -2.843798 -1.766960
v 4.596373 -2.843798 -2.953674
v 6.322807 -1.048086 1.214309
v 6.311849 0.207360 1.187855
v 6.207746 1.180951 0.936529
v 5.978332 2.131809 0.382673
v 5.577687 2.906828 -0.583367
v 5.140296 3.345155 -1.639322
v 4.733387 3.426353 -2.621687
v 4.607739 3.441601 -2.958382
v 3.759899 -2.561713 -4.973101
v 3.115493 -2.561713 -6.528834
v 3.092721 -2.187449 -6.583810
v 3.005442 -2.187449 -6.794521
v 3.005442 -1.940267 -6.794521
v 2.974040 -1.940267 -6.870331
v 3.887922 -2.678080 -4.664026
v 4.104820 -2.843798 -4.140387
v 2.869938 -1.048086 -7.121657
v 2.880896 0.207360 -7.095201
v 2.984998 1.180951 -6.843876
v 3.214413 2.131809 -6.290020
v 3.614207 2.906828 -5.323627
v 4.051598 3.345155 -4.267673
v 4.458507 3.426353 -3.285308
v 7.464297 -2.561713 -1.353200
v 7.464297 -2.561713 0.330713
v 7.464296 -2.187449 0.390218
v 7.464296 -2.187449 0.618290
v 7.464296 -1.940267 0.618290
v 7.464296 -1.940267 0.700347
v 7.464297 -2.678080 -1.687741
v 7.464297 -2.843798 -2.254523
v 7.464297 -2.843798 -3.539013
v 7.464296 -1.048086 0.972379
v 7.464296 0.207360 0.943745
v 7.464296 1.180951 0.671711
v 7.464296 2.131809 0.072223
v 7.463837 2.906828 -0.973602
v 7.463836 3.345155 -2.116560
v 7.463836 3.426353 -3.179864
v 7.476600 3.441601 -3.539013
v 7.464297 -2.561713 -5.724825
v 7.464298 -2.561713 -7.408738
v 7.464297 -2.187449 -7.468244
v 7.464298 -2.187449 -7.696315
v 7.464298 -1.940267 -7.696315
v 7.464297 -1.940267 -7.778372
v 7.464297 -2.678080 -5.390284
v 7.464297 -2.843798 -4.823502
v 7.464298 -1.048086 -8.050405
v 7.464297 0.207360 -8.021770
v 7.464297 1.180951 -7.749737
v 7.464297 2.131809 -7.150248
v 7.463837 2.906828 -6.104423
v 7.463836 3.345155 -4.961466
v 7.463837 3.426353 -3.898162
v 9.464296 -2.561713 -1.353200
v 9.464296 -2.561713 0.330713
v 9.464296 -2.187449 0.390218
v 9.464296 -2.187449 0.618290
v 9.464296 -1.940267 0.618290
v 9.464296 -1.940267 0.700347
v 9.464296 -2.678080 -1.687741
v 9.464297 -2.843798 -2.254523
v 9.464296 -2.843798 -3.539013
v 9.464296 -1.048086 0.972379
v 9.464296 0.207360 0.943745
v 9.464296 1.180951 0.671711
v 9.464296 2.131809 0.072223
v 9.463837 2.906828 -0.973602
v 9.463836 3.345155 -2.116560
v 9.463837 3.426353 -3.179864
v 9.476600 3.441601 -3.539013
v 9.464297 -2.561713 -5.724825
v 9.464298 -2.561713 -7.408738
v 9.464297 -2.187449 -7.468244
v 9.464298 -2.187449 -7.696315
v 9.464298 -1.940267 -7.696315
v 9.464297 -1.940267 -7.778372
v 9.464297 -2.678080 -5.390284
v 9.464297 -2.843798 -4.823502
v 9.464298 -1.048086 -8.050405
v 9.464297 0.207360 -8.021770
v 9.464297 1.180951 -7.749737
v 9.464297 2.131809 -7.150248
v 9.463837 2.906828 -6.104423
v 9.463837 3.345155 -4.961466
v 9.463837 3.426353 -3.898162
v 2.288103 -2.662725 6.338192
v 4.050819 -2.662725 6.338192
v 4.113110 -2.270947 6.338192
v 4.351855 -2.270947 6.338192
v 4.351855 -2.012197 6.338192
v 4.437752 -2.012197 6.338192
v 1.937907 -2.784538 6.338192
v 1.344600 -2.958012 6.338192
v -0.000000 -2.958012 6.338192
v 4.722515 -1.078264 6.338192
v 4.692540 0.235934 6.338192
v 4.407777 1.255087 6.338192
v 3.780233 2.250443 6.338192
v 2.685466 3.061730 6.338675
v 1.489020 3.520569 6.338675
v 0.375956 3.605568 6.338675
v -0.000000 3.621529 6.325315
v -2.288103 -2.662725 6.338192
v -4.050819 -2.662725 6.338192
v -4.113110 -2.270947 6.338192
v -4.351855 -2.270947 6.338192
v -4.351855 -2.012197 6.338192
v -4.437752 -2.012197 6.338192
v -1.937907 -2.784538 6.338192
v -1.344601 -2.958012 6.338192
v -4.722515 -1.078264 6.338192
v -4.692540 0.235934 6.338192
v -4.407777 1.255087 6.338192
v -3.780233 2.250443 6.338192
v -2.685466 3.061730 6.338675
v -1.489020 3.520569 6.338675
v -0.375956 3.605568 6.338675
v 9.850703 -2.675642 -1.237830
v 9.850703 -2.675642 0.534963
v 9.850703 -2.281624 0.597610
v 9.850703 -2.281624 0.837719
v 9.850703 -2.021395 0.837719
v 9.850703 -2.021395 0.924107
v 9.850703 -2.798151 -1.590028
v 9.850705 -2.972616 -2.186726
v 9.850703 -2.972616 -3.539013
v 9.850703 -1.082123 1.210499
v 9.850703 0.239588 1.180352
v 9.850703 1.264566 0.893961
v 9.850703 2.265612 0.262830
v 9.850220 3.081538 -0.838196
v 9.850219 3.543000 -2.041481
v 9.850220 3.628484 -3.160908
v 9.863656 3.644537 -3.539013
v 9.850705 -2.675642 -5.840196
v 9.850706 -2.675642 -7.612988
v 9.850705 -2.281624 -7.675635
v 9.850706 -2.281624 -7.915745
v 9.850706 -2.021395 -7.915745
v 9.850705 -2.021395 -8.002132
v 9.850705 -2.798151 -5.487997
v 9.850705 -2.972616 -4.891300
v 9.850706 -1.082123 -8.288524
v 9.850705 0.239588 -8.258377
v 9.850705 1.264566 -7.971986
v 9.850705 2.265612 -7.340855
v 9.850220 3.081538 -6.239830
v 9.850220 3.543000 -5.036545
v 9.850220 3.628484 -3.917119
vn -0.1751 0.9706 0.1650
vn -0.5811 0.7649 0.2780
vn -0.0000 1.0000 -0.0000
vn -0.1764 0.9842 -0.0178
vn -0.9835 0.1562 -0.0909
vn -0.6536 0.7212 0.2295
vn -0.9834 0.1562 -0.0926
vn -0.6291 0.7251 0.2802
vn -0.9957 -0.0000 -0.0925
vn -0.7088 0.6658 0.2332
vn -0.5158 0.8236 0.2359
vn -0.3034 0.9524 -0.0290
vn -0.2987 0.9372 0.1801
vn -0.1334 0.9910 -0.0120
vn -0.1341 0.9756 0.1738
vn -0.0000 0.9868 0.1622
vn -0.9530 0.2902 -0.0866
vn -0.9495 0.1303 0.2854
vn -0.9863 0.1367 -0.0919
vn -0.9489 -0.1414 0.2820
vn -0.9848 -0.1474 -0.0916
vn -0.8766 -0.3903 0.2814
vn -0.9095 -0.4068 -0.0851
vn -0.7016 -0.6565 0.2769
vn -0.7266 -0.6837 -0.0684
vn -0.4613 -0.8475 0.2625
vn -0.4746 -0.8790 -0.0448
vn -0.2092 -0.9443 0.2540
vn -0.2111 -0.9773 -0.0195
vn -0.0619 -0.9675 0.2453
vn -0.0583 -0.9983 -0.0055
vn -0.0000 -0.9711 0.2388
vn 0.0026 -1.0000 0.0005
vn 0.1751 0.9706 0.1650
vn 0.1566 0.9876 0.0143
vn 0.5811 0.7649 0.2780
vn 0.9830 0.1562 0.0961
vn 0.9832 0.1563 0.0943
vn 0.6536 0.7212 0.2295
vn 0.6291 0.7251 0.2802
vn 0.9953 -0.0000 0.0964
vn 0.7088 0.6658 0.2332
vn 0.5158 0.8236 0.2359
vn 0.2987 0.9372 0.1801
vn 0.3060 0.9515 0.0299
vn 0.1341 0.9756 0.1738
vn 0.1502 0.9885 0.0154
vn 0.9523 0.2903 0.0940
vn 0.9864 0.1343 0.0947
vn 0.9495 0.1303 0.2854
vn 0.9848 -0.1453 0.0948
vn 0.9489 -0.1414 0.2820
vn 0.9120 -0.4007 0.0879
vn 0.8766 -0.3903 0.2814
vn 0.7364 -0.6727 0.0715
vn 0.7016 -0.6565 0.2769
vn 0.4870 -0.8721 0.0478
vn 0.4613 -0.8475 0.2625
vn 0.2278 -0.9734 0.0229
vn 0.2092 -0.9443 0.2540
vn 0.0603 -0.9982 0.0059
vn 0.0619 -0.9675 0.2453
vn -0.9181 -0.1494 -0.3671
vn -0.9196 0.1389 -0.3676
vn 0.8483 -0.3990 0.3482
vn 0.6878 -0.6688 0.2822
vn 0.1472 0.9873 0.0602
vn 0.2846 0.9515 0.1165
vn -0.1730 0.9824 -0.0701
vn -0.0530 -0.9984 -0.0215
vn -0.1872 -0.9794 -0.0762
vn -0.2796 0.9534 -0.1137
vn -0.9164 0.1570 -0.3683
vn -0.9162 0.1570 -0.3686
vn -0.8456 -0.4123 -0.3391
vn 0.4571 -0.8695 0.1873
vn 0.9251 -0.0000 0.3797
vn 0.0049 -1.0000 0.0020
vn 0.8849 0.2916 0.3632
vn 0.9168 0.1336 0.3764
vn -0.1151 0.9922 -0.0469
vn -0.6699 -0.6916 -0.2700
vn 0.2189 -0.9716 0.0895
vn 0.9153 -0.1449 0.3758
vn -0.9281 -0.0000 -0.3723
vn -0.4337 -0.8837 -0.1758
vn 0.0569 -0.9981 0.0231
vn 0.1353 0.9893 0.0555
vn -0.8879 0.2916 -0.3558
vn 0.9137 0.1570 0.3749
vn 0.9136 0.1570 0.3750
vn -0.1330 0.9824 -0.1310
vn 0.6504 -0.3990 0.6463
vn 0.5275 -0.6688 0.5239
vn -0.0407 -0.9984 -0.0402
vn -0.1438 -0.9794 -0.1420
vn -0.7057 0.1570 -0.6909
vn -0.7054 0.1570 -0.6912
vn 0.3506 -0.8695 0.3479
vn 0.0038 -1.0000 0.0037
vn 0.1679 -0.9716 0.1665
vn 0.1037 0.9893 0.1030
vn -0.7150 -0.0000 -0.6992
vn 0.0437 -0.9981 0.0431
vn 0.7007 0.1570 0.6960
vn 0.7006 0.1570 0.6961
vn -0.2148 0.9534 -0.2120
vn 0.7094 -0.0000 0.7048
vn -0.0884 0.9922 -0.0874
vn 0.2183 0.9515 0.2166
vn -0.7089 0.1389 -0.6915
vn -0.6841 0.2916 -0.6685
vn 0.1130 0.9873 0.1119
vn -0.7077 -0.1494 -0.6905
vn -0.6515 -0.4123 -0.6369
vn 0.6786 0.2916 0.6742
vn 0.7029 0.1336 0.6986
vn -0.5156 -0.6916 -0.5058
vn 0.7018 -0.1449 0.6975
vn -0.3335 -0.8837 -0.3284
vn -0.3930 -0.0000 -0.9195
vn 0.0914 -0.9716 0.2181
vn 0.0238 -0.9981 0.0566
vn 0.3810 0.1570 0.9112
vn 0.3809 0.1570 0.9112
vn 0.0021 -1.0000 0.0049
vn -0.0727 0.9824 -0.1719
vn -0.1173 0.9534 -0.2781
vn 0.3856 -0.0000 0.9226
vn -0.0482 0.9922 -0.1146
vn 0.1188 0.9515 0.2836
vn 0.0564 0.9893 0.1349
vn -0.3903 0.1389 -0.9101
vn -0.3762 0.2916 -0.8794
vn 0.0615 0.9873 0.1466
vn -0.3896 -0.1494 -0.9088
vn -0.3581 -0.4123 -0.8377
vn 0.3689 0.2916 0.8825
vn 0.3821 0.1336 0.9144
vn -0.2828 -0.6916 -0.6646
vn 0.3815 -0.1449 0.9130
vn -0.1824 -0.8837 -0.4310
vn 0.3536 -0.3990 0.8461
vn -0.0785 -0.9794 -0.1862
vn 0.2868 -0.6688 0.6859
vn -0.0222 -0.9984 -0.0527
vn -0.3876 0.1570 -0.9084
vn -0.3872 0.1570 -0.9085
vn 0.1907 -0.8695 0.4556
vn -0.0310 0.9525 -0.3029
vn -0.0127 0.9911 -0.1327
vn 0.0311 0.9516 0.3059
vn 0.0148 0.9876 0.1561
vn -0.1042 0.1370 -0.9851
vn -0.0976 0.2906 -0.9519
vn 0.0162 0.9885 0.1505
vn -0.1038 -0.1477 -0.9836
vn -0.0954 -0.4076 -0.9082
vn 0.0971 0.2904 0.9520
vn 0.0977 0.1343 0.9861
vn -0.0753 -0.6845 -0.7251
vn 0.0978 -0.1453 0.9845
vn -0.0484 -0.8795 -0.4735
vn 0.0908 -0.4007 0.9117
vn -0.0207 -0.9774 -0.2103
vn -0.0192 0.9841 -0.1768
vn 0.0740 -0.6727 0.7362
vn -0.0059 -0.9983 -0.0582
vn -0.1030 0.1563 -0.9823
vn -0.1009 0.1564 -0.9825
vn 0.0497 -0.8720 0.4869
vn 0.0005 -1.0000 0.0027
vn 0.0240 -0.9734 0.2279
vn -0.1036 -0.0000 -0.9946
vn 0.0063 -0.9982 0.0603
vn 0.0994 0.1563 0.9827
vn 0.0975 0.1563 0.9829
vn 0.0996 -0.0000 0.9950
vn 0.2791 -0.1415 -0.9498
vn 0.2824 0.1305 -0.9504
vn 0.1602 0.9871 -0.0000
vn 0.1717 0.9760 0.1343
vn 0.2784 -0.3907 -0.8774
vn 0.2334 0.8236 0.5170
vn 0.2824 0.1305 0.9504
vn 0.2740 -0.6570 -0.7024
vn 0.2791 -0.1415 0.9498
vn 0.2596 -0.8481 -0.4618
vn 0.2784 -0.3907 0.8774
vn 0.2512 -0.9450 -0.2094
vn 0.2748 0.7652 -0.5822
vn 0.1630 0.9710 -0.1751
vn 0.2740 -0.6570 0.7024
vn 0.2374 -0.9700 -0.0533
vn 0.2272 0.7217 -0.6539
vn 0.2596 -0.8481 0.4618
vn 0.2457 -0.9693 -0.0000
vn 0.2770 0.7251 -0.6304
vn 0.2512 -0.9450 0.2094
vn 0.1630 0.9710 0.1751
vn 0.2749 0.7652 0.5822
vn 0.2309 0.6662 -0.7091
vn 0.2374 -0.9700 0.0533
vn 0.2272 0.7217 0.6539
vn 0.2334 0.8236 -0.5170
vn 0.2770 0.7251 0.6304
vn 0.1779 0.9376 -0.2988
vn 0.2309 0.6662 0.7091
vn 0.1717 0.9760 -0.1343
vn 0.1779 0.9376 0.2988
vn 0.5316 0.7129 0.4575
vn 0.6468 0.5654 0.5118
vn -0.0608 -0.8807 0.4698
vn -0.0000 -0.8825 0.4704
vn 0.8379 0.1154 0.5335
vn 0.5826 0.6551 0.4812
vn -0.4894 0.7466 0.4505
vn -0.6468 0.5654 0.5118
vn -0.7772 -0.3423 0.5280
vn -0.6315 -0.5769 0.5180
vn 0.1973 -0.8538 0.4817
vn 0.4222 -0.7580 0.4971
vn -0.0000 0.9474 0.3200
vn -0.1430 0.9297 0.3394
vn 0.5972 0.6225 0.5058
vn 0.1337 0.9377 0.3206
vn 0.8384 -0.1243 0.5307
vn -0.5316 0.7129 0.4575
vn -0.4222 -0.7580 0.4971
vn 0.2869 0.8902 0.3538
vn 0.0608 -0.8807 0.4698
vn -0.5826 0.6551 0.4812
vn -0.8379 0.1154 0.5335
vn 0.7772 -0.3423 0.5280
vn -0.1337 0.9377 0.3206
vn -0.5972 0.6225 0.5058
vn 0.4894 0.7466 0.4505
vn -0.1973 -0.8538 0.4817
vn 0.1430 0.9297 0.3394
vn -0.8384 -0.1243 0.5307
vn 0.6315 -0.5769 0.5180
vn -0.2869 0.8902 0.3538
vn 0.4762 0.6575 -0.5839
vn 0.4532 0.7135 -0.5343
vn 0.4648 -0.8843 0.0443
vn 0.4644 -0.8857 -0.0000
vn 0.4462 0.7476 0.4919
vn 0.5068 0.5677 0.6488
vn 0.3169 0.9389 -0.1342
vn 0.3497 0.8917 -0.2874
vn 0.4532 0.7135 0.5343
vn 0.3355 0.9311 -0.1431
vn 0.4762 0.6575 0.5839
vn 0.3163 0.9487 -0.0000
vn 0.3497 0.8917 0.2874
vn 0.3169 0.9389 0.1342
vn 0.5285 0.1158 -0.8410
vn 0.3355 0.9311 0.1431
vn 0.5257 -0.1247 -0.8415
vn 0.5230 -0.3436 -0.7800
vn 0.5285 0.1158 0.8410
vn 0.5131 -0.5789 -0.6338
vn 0.5257 -0.1247 0.8415
vn 0.4923 -0.7603 -0.4237
vn 0.5230 -0.3436 0.7800
vn 0.4769 -0.8564 -0.1979
vn 0.5008 0.6248 -0.5990
vn 0.5131 -0.5789 0.6338
vn 0.4648 -0.8843 -0.0443
vn 0.4462 0.7476 -0.4919
vn 0.4923 -0.7603 0.4237
vn 0.5068 0.5677 -0.6488
vn 0.4769 -0.8564 0.1979
vn 0.5008 0.6248 0.5990
vt 3.995035 0.122410
vt 3.995035 0.683603
vt 3.328501 0.683603
vt 3.328501 0.122410
vt 3.995036 0.809899
vt 3.328502 0.809899
vt 3.995034 0.885907
vt 3.328501 0.885908
vt 3.995035 0.968285
vt 3.328501 0.968285
vt 3.995035 0.995632
vt 3.328501 0.995632
vt 3.995034 0.122410
vt 3.328500 0.122410
vt 3.328501 0.004366
vt 3.995034 0.004366
vt 6.071139 0.991128
vt 5.009970 0.991128
vt 5.009970 0.690402
vt 6.071139 0.690402
vt 5.009969 0.008872
vt 6.071139 0.008872
vt 1.209840 0.000060
vt 1.451498 0.000060
vt 1.451499 0.112762
vt 1.209840 0.112762
vt 1.451498 0.264496
vt 1.209840 0.264496
vt 1.209840 0.264496
vt 1.451498 0.386640
vt 1.209840 0.386640
vt 1.209840 0.386640
vt 1.451499 0.522460
vt 1.209840 0.522460
vt 1.451554 0.679742
vt 1.209895 0.679742
vt 1.209895 0.679742
vt 1.451554 0.827653
vt 1.209896 0.827653
vt 1.451554 0.956505
vt 1.209895 0.956505
vt 1.450012 0.999940
vt 1.208353 0.999940
vt 5.009970 0.008872
vt 1.208353 0.999940
vt 0.778934 0.120522
vt 0.778934 0.270200
vt 0.611285 0.270200
vt 0.611285 0.120522
vt -0.461636 0.524206
vt -0.461636 0.389250
vt -0.057540 0.389250
vt -0.057540 0.524206
vt -3.561172 0.999625
vt -3.561172 0.686948
vt -1.859830 0.686948
vt -1.859830 0.999625
vt 1.443294 0.128130
vt 1.443294 0.687593
vt 0.969228 0.687593
vt 0.969228 0.128130
vt -2.863745 0.888858
vt -2.863745 0.812596
vt -1.571742 0.812595
vt -1.571742 0.888858
vt 0.778934 0.825728
vt 0.778934 0.952834
vt 0.611286 0.952834
vt 0.611285 0.825728
vt 1.443294 0.010450
vt 0.969228 0.010450
vt -3.561172 0.006808
vt -1.859830 0.006808
vt 1.443294 0.813500
vt 0.969228 0.813500
vt 0.778934 0.390690
vt 0.611285 0.390690
vt -0.461636 0.680489
vt -0.057540 0.680489
vt -2.863745 0.971511
vt -1.571742 0.971511
vt 0.778934 0.995708
vt 0.611286 0.995708
vt -0.461636 0.117112
vt -0.461636 0.005127
vt -0.057540 0.005127
vt -0.057540 0.117112
vt 3.334599 0.683972
vt 3.334599 0.995495
vt 2.077745 0.995495
vt 2.077745 0.683972
vt 1.443294 0.889274
vt 0.969228 0.889274
vt 0.778934 0.524670
vt 0.611285 0.524670
vt -0.461636 0.827459
vt -0.057540 0.827459
vt -2.863745 0.998949
vt -1.571742 0.998949
vt -0.461636 0.267882
vt -0.057540 0.267882
vt 3.334599 0.006341
vt 2.077745 0.006341
vt 1.443294 0.971398
vt 0.969228 0.971398
vt 0.778934 0.679821
vt 0.611285 0.679821
vt -0.461636 0.955492
vt -0.057540 0.955492
vt -2.863745 0.685877
vt -2.863745 0.122810
vt -1.571742 0.122810
vt -1.571742 0.685877
vt 0.778934 0.009347
vt 0.611285 0.009347
vt -2.863745 0.004372
vt -1.571743 0.004372
vt -0.461636 0.998678
vt -0.057540 0.998678
vt 1.443294 0.998660
vt 0.969228 0.998660
vt 0.495162 0.687593
vt 0.495162 0.128130
vt 0.346557 0.389250
vt 0.346557 0.524206
vt 0.443636 0.952834
vt 0.443636 0.825728
vt 0.495162 0.813500
vt 0.346557 0.680489
vt 0.443636 0.995708
vt 0.495162 0.889274
vt 0.346557 0.827459
vt -0.279739 0.122810
vt -0.279739 0.685877
vt 0.495162 0.971398
vt 0.346557 0.955492
vt -0.279739 0.812595
vt 0.495162 0.998660
vt 0.346557 0.998678
vt -0.279739 0.888858
vt 0.495162 0.010450
vt -0.279739 0.971511
vt 0.820891 0.995495
vt 0.820891 0.683972
vt -0.279739 0.998949
vt 0.820891 0.006341
vt -0.279739 0.004372
vt 0.443636 0.120522
vt 0.443636 0.009347
vt -0.158488 0.686948
vt -0.158488 0.999625
vt 0.443636 0.270200
vt -0.158488 0.006808
vt 0.443636 0.390690
vt 0.346557 0.005127
vt 0.346557 0.117112
vt 0.443636 0.524670
vt 0.346557 0.267882
vt 0.443636 0.679821
vt 0.021096 0.971398
vt 0.021096 0.889274
vt 0.750653 0.827459
vt 0.750653 0.955492
vt 1.012264 0.685877
vt 1.012264 0.812595
vt 0.021096 0.998660
vt 0.750653 0.998678
vt 1.012264 0.888858
vt 0.021096 0.128130
vt 0.021096 0.010450
vt 1.012264 0.971511
vt -0.435962 0.995495
vt -0.435962 0.683972
vt 1.012264 0.998949
vt -0.435962 0.006341
vt 1.012264 0.004372
vt 1.012264 0.122810
vt 0.275987 0.120522
vt 0.275987 0.009347
vt 1.542854 0.686948
vt 1.542854 0.999625
vt 0.275987 0.270200
vt 1.542854 0.006808
vt 0.275987 0.390690
vt 0.750653 0.005127
vt 0.750653 0.117112
vt 0.275987 0.524670
vt 0.750653 0.267882
vt 0.275987 0.679821
vt 0.750653 0.389250
vt 0.275987 0.825728
vt 0.021096 0.687593
vt 0.750653 0.524206
vt 0.275987 0.952834
vt 0.021096 0.813500
vt 0.750653 0.680489
vt 0.275987 0.995708
vt -1.692816 0.995495
vt -1.692816 0.683972
vt 2.304267 0.971511
vt 2.304268 0.998949
vt -1.692816 0.006341
vt 2.304267 0.004372
vt 2.304267 0.122810
vt 0.108338 0.120522
vt 0.108338 0.009347
vt 3.244197 0.686948
vt 3.244197 0.999625
vt 0.108338 0.270200
vt 3.244197 0.006808
vt 0.108338 0.390690
vt 1.154750 0.005127
vt 1.154750 0.117112
vt 0.108338 0.524670
vt 1.154750 0.267882
vt 0.108338 0.679821
vt 1.154750 0.389250
vt 0.108338 0.825728
vt -0.452969 0.687593
vt -0.452969 0.128130
vt 1.154750 0.524206
vt 0.108338 0.952834
vt -0.452969 0.813500
vt 1.154750 0.680489
vt 0.108338 0.995708
vt -0.452969 0.889274
vt 1.154750 0.827459
vt 2.304267 0.685877
vt -0.452969 0.971398
vt 1.154750 0.955492
vt 2.304267 0.812595
vt -0.452969 0.998660
vt 1.154750 0.998678
vt 2.304267 0.888858
vt -0.452969 0.010450
vt -0.116452 0.270200
vt -0.116452 0.120522
vt 4.406690 0.006808
vt 4.406690 0.686947
vt -0.116452 0.390690
vt 1.430861 0.005127
vt 1.430861 0.117112
vt -0.116452 0.524670
vt 1.430861 0.267882
vt -0.116452 0.679821
vt 1.430861 0.389250
vt -0.116452 0.825728
vt -0.776889 0.687593
vt -0.776889 0.128130
vt 1.430861 0.524206
vt -0.116452 0.952834
vt -0.776889 0.813500
vt 1.430861 0.680489
vt -0.006213 0.995708
vt -0.006213 0.952834
vt -0.776889 0.889274
vt 1.430861 0.827459
vt 3.187068 0.122810
vt 3.187068 0.685877
vt -0.776889 0.971398
vt 1.430861 0.955492
vt 3.187068 0.812595
vt -0.776889 0.998660
vt 1.430861 0.998678
vt 3.187068 0.888858
vt -0.776889 0.010450
vt 3.187068 0.971511
vt -2.551599 0.995495
vt -2.551599 0.683972
vt 3.187068 0.998949
vt -2.551599 0.006341
vt 3.187068 0.004372
vt -0.116452 0.009347
vt 4.406690 0.999625
s 1
usemtl bricks
f 12/23/17 11/24/11 19/25/18 20/26/19
f 20/26/19 19/25/18 21/27/20 22/28/21
f 22/29/21 21/27/20 23/30/22 24/31/23
f 24/32/23 23/30/22 25/33/24 26/34/25
f 26/34/25 25/33/24 27/35/26 28/36/27
f 28/37/27 27/35/26 29/38/28 30/39/29
f 30/39/29 29/38/28 31/40/30 32/41/31
f 32/41/31 31/40/30 33/42/32 34/43/33
f 46/23/48 52/26/49 51/25/50 45/24/43
f 52/26/49 54/29/51 53/27/52 51/25/50
f 54/28/51 56/32/53 55/30/54 53/27/52
f 56/31/53 58/34/55 57/33/56 55/30/54
f 58/34/55 60/37/57 59/35/58 57/33/56
f 60/36/57 62/39/59 61/38/60 59/35/58
f 62/39/59 64/41/61 63/40/62 61/38/60
f 64/41/61 34/45/33 33/42/32 63/40/62
f 20/46/19 22/47/21 75/48/63 74/49/64
f 58/50/55 56/51/53 92/52/65 93/53/66
f 30/66/29 32/67/31 80/68/70 79/69/71
f 22/47/21 24/76/23 76/77/75 75/48/63
f 60/78/57 58/50/55 93/53/66 94/79/76
f 32/67/31 34/82/33 81/83/78 80/68/70
f 52/84/49 46/85/48 87/86/79 90/87/80
f 24/76/23 26/94/25 77/95/82 76/77/75
f 62/96/59 60/78/57 94/79/76 95/97/83
f 54/100/51 52/84/49 90/87/80 91/101/84
f 26/94/25 28/106/27 78/107/86 77/95/82
f 64/108/61 62/96/59 95/97/83 96/109/87
f 12/114/17 20/46/19 74/49/64 70/115/89
f 56/51/53 54/100/51 91/101/84 92/52/65
f 34/118/33 64/108/61 96/109/87 81/119/78
f 28/106/27 30/66/29 79/69/71 78/107/86
f 93/53/66 92/52/65 124/124/93 125/125/94
f 79/69/71 80/68/70 112/126/95 111/127/96
f 94/79/76 93/53/66 125/125/94 126/129/99
f 80/68/70 81/83/78 113/130/100 112/126/95
f 95/97/83 94/79/76 126/129/99 127/132/101
f 96/109/87 95/97/83 127/132/101 128/136/104
f 81/119/78 96/109/87 128/136/104 113/139/100
f 70/115/89 74/49/64 106/148/111 102/149/112
f 74/49/64 75/48/63 107/152/114 106/148/111
f 75/48/63 76/77/75 108/154/115 107/152/114
f 90/87/80 87/86/79 119/155/116 122/156/117
f 76/77/75 77/95/82 109/157/118 108/154/115
f 91/101/84 90/87/80 122/156/117 123/158/119
f 77/95/82 78/107/86 110/159/120 109/157/118
f 92/52/65 91/101/84 123/158/119 124/124/93
f 78/107/86 79/69/71 111/127/96 110/159/120
f 128/136/104 127/132/101 159/162/122 160/163/123
f 113/139/100 128/136/104 160/163/123 145/167/126
f 102/149/112 106/148/111 138/178/133 134/179/134
f 106/148/111 107/152/114 139/182/136 138/178/133
f 107/152/114 108/154/115 140/184/137 139/182/136
f 122/156/117 119/155/116 151/185/138 154/186/139
f 108/154/115 109/157/118 141/187/140 140/184/137
f 123/158/119 122/156/117 154/186/139 155/188/141
f 109/157/118 110/159/120 142/189/142 141/187/140
f 124/124/93 123/158/119 155/188/141 156/190/143
f 110/159/120 111/127/96 143/191/144 142/189/142
f 125/125/94 124/124/93 156/190/143 157/193/145
f 111/127/96 112/126/95 144/194/146 143/191/144
f 126/129/99 125/125/94 157/193/145 158/196/149
f 112/126/95 113/130/100 145/197/126 144/194/146
f 127/132/101 126/129/99 158/196/149 159/162/122
f 134/179/134 138/178/133 170/205/154 166/206/155
f 138/178/133 139/182/136 171/209/157 170/205/154
f 139/182/136 140/184/137 172/211/158 171/209/157
f 154/186/139 151/185/138 183/212/159 186/213/160
f 140/184/137 141/187/140 173/214/161 172/211/158
f 155/188/141 154/186/139 186/213/160 187/215/162
f 141/187/140 142/189/142 174/216/163 173/214/161
f 156/190/143 155/188/141 187/215/162 188/217/164
f 142/189/142 143/191/144 175/218/165 174/216/163
f 157/193/145 156/190/143 188/217/164 189/221/167
f 143/191/144 144/194/146 176/222/168 175/218/165
f 158/196/149 157/193/145 189/221/167 190/224/171
f 144/194/146 145/197/126 177/225/172 176/222/168
f 159/162/122 158/196/149 190/224/171 191/227/173
f 160/163/123 159/162/122 191/227/173 192/230/175
f 145/167/126 160/163/123 192/230/175 177/233/172
f 170/205/154 171/209/157 203/236/179 202/237/180
f 171/209/157 172/211/158 204/240/183 203/236/179
f 186/213/160 183/212/159 215/241/184 218/242/185
f 172/211/158 173/214/161 205/243/186 204/240/183
f 187/215/162 186/213/160 218/242/185 219/244/187
f 173/214/161 174/216/163 206/245/188 205/243/186
f 188/217/164 187/215/162 219/244/187 220/246/189
f 174/216/163 175/218/165 207/247/190 206/245/188
f 189/221/167 188/217/164 220/246/189 221/250/193
f 175/218/165 176/222/168 208/251/194 207/247/190
f 190/224/171 189/221/167 221/250/193 222/253/196
f 176/222/168 177/225/172 209/254/197 208/255/194
f 191/227/173 190/224/171 222/253/196 223/257/199
f 192/230/175 191/227/173 223/257/199 224/261/203
f 177/233/172 192/230/175 224/261/203 209/264/197
f 166/206/155 170/205/154 202/237/180 198/273/205
f 33/42/32 31/40/30 240/40/213 241/42/214
f 45/24/43 51/25/50 250/25/215 247/24/216
f 25/33/24 23/30/22 236/30/219 237/33/220
f 59/35/58 61/38/60 255/38/221 254/35/222
f 51/25/50 53/27/52 251/27/227 250/25/215
f 27/35/26 25/33/24 237/33/220 238/35/229
f 61/38/60 63/40/62 256/40/231 255/38/221
f 19/25/18 11/24/11 230/24/232 234/25/233
f 53/27/52 55/30/54 252/30/234 251/27/227
f 63/40/62 33/42/32 241/42/214 256/40/231
f 29/38/28 27/35/26 238/35/229 239/38/238
f 21/27/20 19/25/18 234/25/233 235/27/240
f 55/30/54 57/33/56 253/33/241 252/30/234
f 31/40/30 29/38/28 239/38/238 240/40/213
f 23/30/22 21/27/20 235/27/240 236/30/219
f 57/33/56 59/35/58 254/35/222 253/33/241
f 209/264/197 224/261/203 288/261/245 273/264/246
f 198/273/205 202/237/180 266/237/257 262/273/243
f 202/237/180 203/236/179 267/236/259 266/237/257
f 203/236/179 204/240/183 268/240/260 267/236/259
f 218/242/185 215/241/184 279/241/253 282/242/261
f 204/240/183 205/243/186 269/243/262 268/240/260
f 219/244/187 218/242/185 282/242/261 283/244/263
f 205/243/186 206/245/188 270/245/264 269/243/262
f 220/246/189 219/244/187 283/244/263 284/246/265
f 206/245/188 207/247/190 271/247/266 270/245/264
f 221/250/193 220/246/189 284/246/265 285/250/268
f 207/247/190 208/251/194 272/251/269 271/247/266
f 222/253/196 221/250/193 285/250/268 286/253/271
f 208/255/194 209/254/197 273/254/246 272/255/269
f 223/257/199 222/253/196 286/253/271 287/257/273
f 224/261/203 223/257/199 287/257/273 288/261/245
usemtl concrete_base_02
f 1/1/1 2/2/2 4/3/3 3/4/4
f 4/3/5 2/2/2 5/5/6 6/6/7
f 6/6/3 5/5/6 7/7/8 8/8/3
f 8/8/9 7/7/8 9/9/10 10/10/9
f 10/10/3 9/9/10 11/11/11 12/12/3
f 1/13/1 3/14/4 14/15/12 13/16/13
f 35/1/34 37/4/35 38/3/3 36/2/36
f 38/3/37 40/6/38 39/5/39 36/2/36
f 40/6/3 42/8/3 41/7/40 39/5/39
f 42/8/41 44/10/41 43/9/42 41/7/40
f 44/10/3 46/12/3 45/11/43 43/9/42
f 35/13/34 47/16/44 48/15/45 37/14/35
f 3/58/4 4/59/3 66/60/3 65/61/69
f 42/62/3 40/63/3 84/64/3 85/65/3
f 14/70/12 3/58/4 65/61/69 71/71/72
f 4/59/5 6/74/7 67/75/73 66/60/74
f 44/80/41 42/62/41 85/65/77 86/81/77
f 6/74/3 8/92/3 68/93/3 67/75/3
f 46/98/3 44/80/3 86/81/3 87/99/3
f 8/92/9 10/104/9 69/105/85 68/93/85
f 38/110/3 37/111/35 82/112/88 83/113/3
f 37/111/35 48/116/45 88/117/68 82/112/88
f 40/63/38 38/110/37 83/113/90 84/64/91
f 10/104/3 12/120/3 70/121/3 69/105/3
f 65/61/69 66/60/3 98/122/3 97/123/92
f 66/60/74 67/75/73 99/128/97 98/122/98
f 67/75/3 68/93/3 100/131/3 99/128/3
f 83/113/3 82/112/88 114/133/102 115/134/3
f 68/93/85 69/105/85 101/135/103 100/131/103
f 84/64/91 83/113/90 115/134/105 116/137/106
f 69/105/3 70/121/3 102/138/3 101/135/3
f 85/65/3 84/64/3 116/137/3 117/140/3
f 71/71/72 65/61/69 97/123/92 103/141/107
f 86/81/77 85/65/77 117/140/108 118/142/108
f 87/99/3 86/81/3 118/142/3 119/145/3
f 82/112/88 88/117/68 120/147/110 114/133/102
f 100/131/103 101/135/103 133/160/121 132/161/121
f 116/137/106 115/134/105 147/164/124 148/165/125
f 101/135/3 102/138/3 134/166/3 133/160/3
f 117/140/3 116/137/3 148/165/3 149/168/3
f 103/141/107 97/123/92 129/169/127 135/170/128
f 118/142/108 117/140/108 149/168/129 150/171/129
f 119/145/3 118/142/3 150/171/3 151/174/3
f 114/133/102 120/147/110 152/176/131 146/177/132
f 97/123/92 98/122/3 130/192/3 129/169/127
f 98/122/98 99/128/97 131/195/147 130/192/148
f 99/128/3 100/131/3 132/161/3 131/195/3
f 115/134/3 114/133/102 146/177/132 147/164/3
f 151/174/3 150/171/3 182/200/3 183/201/3
f 146/177/132 152/176/131 184/203/152 178/204/153
f 129/169/127 130/192/3 162/219/3 161/220/166
f 130/192/148 131/195/147 163/223/169 162/219/170
f 131/195/3 132/161/3 164/226/3 163/223/3
f 147/164/3 146/177/132 178/204/153 179/228/3
f 132/161/121 133/160/121 165/229/174 164/226/174
f 148/165/125 147/164/124 179/228/176 180/231/177
f 133/160/3 134/166/3 166/232/3 165/229/3
f 149/168/3 148/165/3 180/231/3 181/234/3
f 135/170/128 129/169/127 161/220/166 167/235/150
f 150/171/129 149/168/129 181/234/178 182/200/178
f 161/220/166 162/219/3 194/248/191 193/249/192
f 162/219/170 163/223/169 195/252/195 194/248/191
f 163/223/3 164/226/3 196/256/198 195/252/195
f 179/228/3 178/204/153 210/258/200 211/259/201
f 164/226/174 165/229/174 197/260/202 196/256/198
f 180/231/177 179/228/176 211/259/201 212/262/204
f 165/229/3 166/232/3 198/263/205 197/260/202
f 181/234/3 180/231/3 212/262/204 213/265/206
f 167/235/150 161/220/166 193/249/192 199/266/207
f 182/200/178 181/234/178 213/265/206 214/267/208
f 183/201/3 182/200/3 214/267/208 215/270/184
f 178/204/153 184/203/152 216/272/210 210/258/200
f 41/7/40 43/9/42 246/9/211 245/7/212
f 7/7/8 5/5/6 227/5/217 228/7/218
f 35/1/34 36/2/36 243/2/225 242/1/226
f 43/9/42 45/11/43 247/11/216 246/9/211
f 9/9/10 7/7/8 228/7/218 229/9/228
f 47/16/44 35/13/34 242/13/226 248/16/230
f 2/2/2 1/1/1 225/1/235 226/2/236
f 36/2/36 39/5/39 244/5/237 243/2/225
f 11/11/11 9/9/10 229/9/228 230/11/232
f 1/13/1 13/16/13 231/16/242 225/13/235
f 39/5/39 41/7/40 245/7/212 244/5/237
f 5/5/6 2/2/2 226/2/236 227/5/217
f 197/260/202 198/263/205 262/263/243 261/260/244
f 213/265/206 212/262/204 276/262/247 277/265/248
f 199/266/207 193/249/192 257/249/249 263/266/250
f 214/267/208 213/265/206 277/265/248 278/267/251
f 215/270/184 214/267/208 278/267/251 279/270/253
f 210/258/200 216/272/210 280/272/255 274/258/256
f 193/249/192 194/248/191 258/248/267 257/249/249
f 194/248/191 195/252/195 259/252/270 258/248/267
f 195/252/195 196/256/198 260/256/272 259/252/270
f 211/259/201 210/258/200 274/258/256 275/259/274
f 196/256/198 197/260/202 261/260/244 260/256/272
f 212/262/204 211/259/201 275/259/274 276/262/247
usemtl concrete_dirty
f 13/17/13 14/18/12 16/19/14 15/20/15
f 15/20/15 16/19/14 18/21/3 17/22/16
f 47/17/44 49/20/46 50/19/47 48/18/45
f 49/20/46 17/22/16 18/44/3 50/19/47
f 48/54/45 50/55/47 89/56/67 88/57/68
f 50/55/47 18/72/3 73/73/3 89/56/67
f 16/88/14 14/89/12 71/90/72 72/91/81
f 18/102/3 16/88/14 72/91/81 73/103/3
f 72/91/81 71/90/72 103/143/107 104/144/109
f 73/103/3 72/91/81 104/144/109 105/146/3
f 88/57/68 89/56/67 121/150/113 120/151/110
f 89/56/67 73/73/3 105/153/3 121/150/113
f 104/144/109 103/143/107 135/172/128 136/173/130
f 105/146/3 104/144/109 136/173/130 137/175/3
f 120/151/110 121/150/113 153/180/135 152/181/131
f 121/150/113 105/153/3 137/183/3 153/180/135
f 136/173/130 135/172/128 167/198/150 168/199/151
f 137/175/3 136/173/130 168/199/151 169/202/3
f 152/181/131 153/180/135 185/207/156 184/208/152
f 153/180/135 137/183/3 169/210/3 185/207/156
f 185/207/156 169/210/3 201/238/181 217/239/182
f 168/199/151 167/198/150 199/268/207 200/269/209
f 169/202/3 168/199/151 200/269/209 201/271/181
f 184/208/152 185/207/156 217/239/182 216/274/210
f 15/20/15 17/22/16 233/22/223 232/20/224
f 49/20/46 47/17/44 248/17/230 249/20/239
f 17/22/16 49/20/46 249/20/239 233/22/223
f 13/17/13 15/20/15 232/20/224 231/17/242
f 200/269/209 199/268/207 263/268/250 264/269/252
f 201/271/181 200/269/209 264/269/252 265/271/254
f 216/274/210 217/239/182 281/239/258 280/274/255
f 217/239/182 201/238/181 265/238/254 281/239/258
