# Blender 4.5.9 LTS
# www.blender.org
mtllib Serwers02_004.mtl
o Serwers02_004
v -0.000000 3.254395 -4.248927
v -0.000000 3.254395 4.248926
v -1.862715 -2.636669 -4.248927
v -1.862715 -2.636668 4.248927
v -2.455375 -2.122127 -4.248927
v -2.455375 -2.122126 4.248927
v -3.215858 -0.456902 -4.248927
v -3.215858 -0.456902 4.248927
v -2.955328 1.355121 -4.248927
v -2.955328 1.355122 4.248927
v -1.756503 2.738639 -4.248927
v -1.756503 2.738640 4.248927
v -0.999720 -2.636669 -4.248926
v -0.999720 -2.636668 4.248926
v -0.999720 -2.880242 -4.248926
v -0.999720 -2.880242 4.248926
v -0.000000 -2.880242 -4.248926
v -0.000000 -2.880242 4.248926
v 1.862715 -2.636669 -4.248927
v 1.862715 -2.636668 4.248927
v 2.455374 -2.122127 -4.248927
v 2.455374 -2.122126 4.248927
v 3.215857 -0.456902 -4.248927
v 3.215857 -0.456902 4.248927
v 2.955327 1.355121 -4.248927
v 2.955327 1.355122 4.248927
v 1.756502 2.738639 -4.248927
v 1.756502 2.738640 4.248927
v 0.999720 -2.636669 -4.248926
v 0.999719 -2.636668 4.248926
v 0.999720 -2.880242 -4.248926
v 0.999719 -2.880242 4.248926
v -0.000000 3.510804 -4.635348
v -1.980330 -2.752230 -4.635348
v -2.610411 -2.205199 -4.635348
v -3.418911 -0.434830 -4.635348
v -3.141932 1.491607 -4.635348
v -1.867411 2.962483 -4.635348
v -1.062844 -2.752230 -4.635347
v -1.062844 -3.011183 -4.635347
v -0.000000 -3.011183 -4.635347
v 1.980329 -2.752230 -4.635348
v 2.610410 -2.205199 -4.635348
v 3.418911 -0.434830 -4.635348
v 3.141931 1.491607 -4.635348
v 1.867410 2.962483 -4.635348
v 1.062843 -2.752230 -4.635347
v 1.062843 -3.011183 -4.635347
v -0.000000 3.474588 4.683649
v -1.963718 -2.735908 4.683650
v -2.588513 -2.193465 4.683650
v -3.390231 -0.437947 4.683650
v -3.115575 1.472330 4.683650
v -1.851746 2.930866 4.683650
v -1.053928 -2.735908 4.683649
v -1.053928 -2.992688 4.683649
v -0.000000 -2.992688 4.683649
v 1.963717 -2.735908 4.683650
v 2.588513 -2.193465 4.683650
v 3.390231 -0.437947 4.683650
v 3.115575 1.472330 4.683650
v 1.851745 2.930866 4.683650
v 1.053927 -2.735908 4.683649
v 1.053927 -2.992688 4.683649
vn 0.6883 0.7100 -0.1486
vn 0.3241 0.9272 -0.1877
vn 0.3310 0.9323 0.1455
vn 0.6932 0.7113 0.1167
vn 0.7794 0.5883 -0.2157
vn 0.7873 0.5931 0.1683
vn 0.9584 0.1493 -0.2433
vn 0.9703 0.1487 0.1907
vn 0.8791 -0.3904 -0.2736
vn 0.8915 -0.3981 0.2161
vn 0.5213 -0.8004 -0.2960
vn 0.5295 -0.8150 0.2352
vn -0.0000 -0.9526 -0.3042
vn -0.0000 -0.9702 0.2423
vn -0.0000 0.9867 -0.1626
vn 0.7198 0.6705 -0.1797
vn 0.7183 0.6819 0.1379
vn -0.0000 0.9920 0.1262
vn -0.6883 0.7100 -0.1486
vn -0.6932 0.7113 0.1167
vn -0.3310 0.9323 0.1455
vn -0.3241 0.9272 -0.1877
vn -0.7873 0.5931 0.1683
vn -0.7794 0.5883 -0.2157
vn -0.9703 0.1487 0.1907
vn -0.9584 0.1493 -0.2433
vn -0.8915 -0.3981 0.2161
vn -0.8791 -0.3904 -0.2736
vn -0.5295 -0.8150 0.2352
vn -0.5213 -0.8004 -0.2960
vn -0.7183 0.6819 0.1379
vn -0.7198 0.6705 -0.1797
vn -0.6361 0.6932 -0.3388
vn -0.0000 0.9471 -0.3209
vn 0.7343 0.5404 -0.4108
vn 0.8824 0.1101 -0.4574
vn -0.4480 -0.7118 -0.5409
vn -0.7782 -0.3710 -0.5068
vn 0.6361 0.6932 -0.3388
vn 0.7069 0.6376 -0.3062
vn 0.4480 -0.7118 -0.5409
vn -0.0000 -0.8332 -0.5529
vn -0.8824 0.1101 -0.4574
vn -0.7343 0.5404 -0.4108
vn 0.3545 0.8607 -0.3653
vn -0.7069 0.6376 -0.3062
vn 0.7782 -0.3710 -0.5068
vn -0.3545 0.8607 -0.3653
vn 0.4793 -0.7590 0.4406
vn 0.8247 -0.3903 0.4092
vn -0.3592 0.8883 0.2862
vn -0.7608 0.5616 0.3252
vn 0.7121 0.6599 0.2395
vn 0.6576 0.7054 0.2645
vn 0.9234 0.1184 0.3652
vn 0.7608 0.5616 0.3252
vn -0.8247 -0.3903 0.4092
vn -0.4793 -0.7590 0.4406
vn -0.6576 0.7054 0.2645
vn -0.7121 0.6599 0.2395
vn -0.0000 0.9681 0.2504
vn -0.0000 -0.8921 0.4519
vn -0.9234 0.1184 0.3652
vn 0.3592 0.8883 0.2862
vt -1.064508 0.680855
vt -1.064508 0.990118
vt 3.027601 0.990118
vt 3.027601 0.680855
vt -0.478291 0.602839
vt -0.478291 0.842623
vt 2.080334 0.842623
vt 2.080334 0.602839
vt -0.478291 1.483311
vt -0.478291 0.809576
vt 2.080334 0.809576
vt 2.080334 1.483310
vt -0.478291 0.076448
vt 2.080334 0.076448
vt 2.080334 0.809576
vt -0.478291 -0.483311
vt 2.080334 -0.483311
vt 2.080334 0.076448
vt -0.478291 0.559866
vt -0.478291 -0.150799
vt 2.080334 -0.150799
vt 2.080334 0.559866
vt -0.699235 0.500000
vt -0.699235 0.991538
vt 2.437469 0.991538
vt 2.437469 0.500000
vt -1.064508 0.791843
vt 3.027601 0.791843
vt 3.027601 0.879130
vt -1.064508 0.879130
vt 3.027601 0.990118
vt 2.080334 0.842623
vt 2.080334 1.483310
vt 2.080334 0.809576
vt 2.080334 0.076448
vt 2.080334 -0.483311
vt 2.080334 0.559866
vt 2.080334 -0.150799
vt 2.437469 0.500000
vt 2.437469 0.008462
vt -0.699235 0.008462
vt 3.027601 0.879130
vt 3.027601 0.791843
s 1
usemtl concrete_base_03
f 3/5/2 5/6/5 6/7/6 4/8/3
f 5/9/5 7/10/7 8/11/8 6/12/6
f 7/10/7 9/13/9 10/14/10 8/15/8
f 9/13/9 11/16/11 12/17/12 10/18/10
f 11/19/11 1/20/13 2/21/14 12/22/12
f 19/5/22 20/8/21 22/32/23 21/6/24
f 21/9/24 22/33/23 24/11/25 23/10/26
f 23/10/26 24/34/25 26/14/27 25/13/28
f 25/13/28 26/35/27 28/36/29 27/16/30
f 27/19/30 28/37/29 2/38/14 1/20/13
f 7/10/7 5/9/5 35/9/35 36/10/36
f 25/13/28 27/16/30 46/16/37 45/13/38
f 1/20/13 11/19/11 38/19/41 33/20/42
f 21/9/24 23/10/26 44/10/43 43/9/44
f 9/13/9 7/10/7 36/10/36 37/13/47
f 27/19/30 1/20/13 33/20/42 46/19/37
f 5/6/5 3/5/2 34/5/45 35/6/35
f 23/10/26 25/13/28 45/13/38 44/10/43
f 11/16/11 9/13/9 37/13/47 38/16/41
f 19/5/22 21/6/24 43/6/44 42/5/48
f 10/18/10 12/17/12 54/17/49 53/18/50
f 22/32/23 20/8/21 58/8/51 59/32/52
f 6/12/6 8/11/8 52/11/55 51/12/56
f 28/36/29 26/35/27 61/35/57 62/36/58
f 12/22/12 2/21/14 49/21/62 54/22/49
f 24/11/25 22/33/23 59/33/52 60/11/63
f 8/15/8 10/14/10 53/14/50 52/15/55
f 2/38/14 28/37/29 62/37/58 49/38/62
f 4/8/3 6/7/6 51/7/56 50/8/64
f 26/14/27 24/34/25 60/34/63 61/14/57
usemtl soil_mud
f 17/23/15 15/24/16 16/25/17 18/26/18
f 17/23/15 18/39/18 32/40/31 31/41/32
f 17/23/15 31/41/32 48/41/33 41/23/34
f 15/24/16 17/23/15 41/23/34 40/24/39
f 18/26/18 16/25/17 56/25/54 57/26/61
f 32/40/31 18/39/18 57/39/61 64/40/59
usemtl concrete_base_02
f 13/1/1 3/2/2 4/3/3 14/4/4
f 13/27/1 14/28/4 16/29/17 15/30/16
f 29/1/19 30/4/20 20/31/21 19/2/22
f 29/27/19 31/30/32 32/42/31 30/43/20
f 13/27/1 15/30/16 40/30/39 39/27/40
f 3/2/2 13/1/1 39/1/40 34/2/45
f 31/30/32 29/27/19 47/27/46 48/30/33
f 29/1/19 19/2/22 42/2/48 47/1/46
f 16/29/17 14/28/4 55/28/53 56/29/54
f 30/43/20 32/42/31 64/42/59 63/43/60
f 14/4/4 4/3/3 50/3/64 55/4/53
f 20/31/21 30/4/20 63/4/60 58/31/51
