# Blender 4.5.9 LTS
# www.blender.org
mtllib SerwersP_007.mtl
o SerwersP_007
v 1.885217 0.724867 -1.240658
v 1.885217 -0.092017 -1.240659
v 1.885217 -1.450071 1.240659
v 1.885217 -0.092017 1.240659
v 1.885217 -1.450071 -1.240659
v 1.885217 0.724867 1.240659
v 1.885217 1.784391 -0.000001
v 1.885217 1.657539 0.566770
v 1.885217 1.325200 0.995074
v 1.885217 1.325199 -0.995073
v 1.885217 1.657539 -0.566771
v 1.698496 0.724867 -1.240658
v 1.698496 -0.092017 -1.240659
v 1.698496 -1.450071 1.240659
v 1.698496 -0.092017 1.240659
v 1.698496 -1.450071 -1.240659
v 1.698496 0.724867 1.240659
v 1.698496 1.784391 -0.000001
v 1.698496 1.657539 0.566770
v 1.698496 1.325200 0.995074
v 1.698496 1.325199 -0.995073
v 1.698496 1.657539 -0.566771
v 0.052624 0.724867 -1.022806
v 0.052624 -0.092017 -1.022806
v 0.694836 -1.450071 1.373962
v 0.694836 -0.092017 1.373962
v 0.052624 -1.450071 -1.022807
v 0.694836 0.724867 1.373963
v 0.373730 1.784391 0.175577
v 0.520421 1.657539 0.723036
v 0.631274 1.325200 1.136745
v 0.116186 1.325200 -0.785589
v 0.227039 1.657539 -0.371881
v -1.480782 0.724867 -0.386394
v -1.480783 -0.092017 -0.386394
v -0.240124 -1.450071 1.762490
v -0.240124 -0.092017 1.762490
v -1.480783 -1.450071 -0.386394
v -0.240124 0.724867 1.762490
v -0.860453 1.784391 0.688047
v -0.577068 1.657539 1.178885
v -0.362916 1.325200 1.549807
v -1.357990 1.325200 -0.173711
v -1.143839 1.657539 0.197209
v -2.797224 0.724867 0.625208
v -2.797224 -0.092017 0.625208
v -1.042668 -1.450071 2.379764
v -1.042667 -0.092017 2.379764
v -2.797224 -1.450071 0.625207
v -1.042667 0.724867 2.379764
v -1.919946 1.784391 1.502485
v -1.519178 1.657539 1.903253
v -1.216322 1.325200 2.206109
v -2.623569 1.325200 0.798863
v -2.320713 1.657539 1.101718
v -3.806986 0.724868 1.943060
v -3.806987 -0.092017 1.943060
v -1.658103 -1.450071 3.183719
v -1.658102 -0.092017 3.183719
v -3.806987 -1.450071 1.943060
v -1.658102 0.724867 3.183719
v -2.732545 1.784391 2.563389
v -2.241707 1.657539 2.846774
v -1.870785 1.325200 3.060926
v -3.594303 1.325200 2.065853
v -3.223383 1.657539 2.280003
v -4.441257 0.724868 3.477353
v -4.441257 -0.092017 3.477353
v -2.044488 -1.450071 4.119565
v -2.044488 -0.092017 4.119565
v -4.441257 -1.450071 3.477353
v -2.044488 0.724867 4.119565
v -3.242873 1.784391 3.798459
v -2.695415 1.657539 3.945150
v -2.281705 1.325200 4.056004
v -4.204040 1.325200 3.540915
v -3.790332 1.657539 3.651768
v -4.656811 0.724868 5.123528
v -4.656811 -0.092017 5.123528
v -2.175494 -1.450071 5.123528
v -2.175494 -0.092017 5.123528
v -4.656811 -1.450071 5.123528
v -2.175493 0.724867 5.123528
v -3.416153 1.784391 5.123528
v -2.849382 1.657540 5.123528
v -2.421079 1.325200 5.123528
v -4.411226 1.325200 5.123528
v -3.982924 1.657540 5.123528
v -4.656811 0.724868 5.306374
v -4.656811 -0.092017 5.306375
v -2.175494 -1.450071 5.306374
v -2.175494 -0.092017 5.306374
v -4.656811 -1.450071 5.306374
v -2.175493 0.724867 5.306374
v -3.416153 1.784391 5.306374
v -2.849382 1.657540 5.306374
v -2.421079 1.325200 5.306375
v -4.411226 1.325200 5.306374
v -3.982924 1.657540 5.306374
vn -0.0000 -0.1929 0.9812
vn -0.0000 -0.6049 0.7963
vn 0.0525 -0.5990 0.7990
vn 0.0641 -0.1911 0.9795
vn -0.0000 -0.1929 -0.9812
vn -0.0000 -0.0000 -1.0000
vn -0.0660 -0.0000 -0.9978
vn -0.0652 -0.1941 -0.9788
vn -0.0000 -0.9047 0.4260
vn -0.0000 -1.0000 -0.0000
vn 0.0012 -1.0000 0.0092
vn 0.0290 -0.9009 0.4331
vn -0.0000 -0.6049 -0.7963
vn -0.0525 -0.6094 -0.7911
vn -0.0000 -0.9047 -0.4260
vn -0.0273 -0.9079 -0.4182
vn -0.0000 -0.0000 1.0000
vn 0.0658 -0.0000 0.9978
vn -0.0000 1.0000 -0.0000
vn 0.1144 -0.8977 0.4255
vn 0.2086 -0.5947 0.7764
vn 0.2548 -0.1900 0.9482
vn 0.2595 -0.0000 0.9657
vn -0.1067 -0.9117 -0.3968
vn 0.0047 -0.9998 0.0176
vn -0.2599 -0.0000 -0.9656
vn -0.2048 -0.6154 -0.7611
vn -0.2549 -0.1960 -0.9469
vn -0.5010 -0.0000 -0.8655
vn -0.4913 -0.1960 -0.8487
vn -0.3948 -0.6154 -0.6822
vn 0.4025 -0.5947 0.6959
vn 0.4915 -0.1900 0.8499
vn 0.0091 -0.9998 0.0157
vn 0.2206 -0.8977 0.3814
vn 0.5006 -0.0000 0.8657
vn -0.2058 -0.9117 -0.3556
vn 0.6947 -0.1900 0.6937
vn 0.7076 -0.0000 0.7066
vn -0.2908 -0.9117 -0.2903
vn 0.0129 -0.9998 0.0128
vn -0.7079 -0.0000 -0.7063
vn -0.5579 -0.6154 -0.5567
vn -0.6942 -0.1960 -0.6926
vn 0.5689 -0.5947 0.5680
vn 0.3118 -0.8977 0.3113
vn -0.8498 -0.1960 -0.4893
vn -0.6830 -0.6154 -0.3934
vn 0.6965 -0.5947 0.4015
vn 0.8506 -0.1900 0.4903
vn 0.0158 -0.9998 0.0091
vn 0.3818 -0.8977 0.2200
vn 0.8664 -0.0000 0.4994
vn -0.3560 -0.9117 -0.2051
vn -0.8666 -0.0000 -0.4990
vn -0.3970 -0.9117 -0.1060
vn 0.0176 -0.9998 0.0047
vn -0.9662 -0.0000 -0.2577
vn -0.7616 -0.6154 -0.2032
vn -0.9475 -0.1960 -0.2527
vn 0.7767 -0.5947 0.2075
vn 0.9485 -0.1900 0.2534
vn 0.4257 -0.8977 0.1137
vn 0.9661 -0.0000 0.2581
vn -0.9789 -0.1941 -0.0641
vn -0.7912 -0.6093 -0.0517
vn 0.7990 -0.5991 0.0520
vn 0.9795 -0.1911 0.0634
vn 0.0090 -1.0000 0.0012
vn 0.4331 -0.9009 0.0287
vn 0.9979 -0.0000 0.0651
vn -0.4183 -0.9079 -0.0269
vn -0.9979 -0.0000 -0.0648
vn -1.0000 -0.0000 -0.0000
vn -0.7963 -0.6049 -0.0000
vn -0.4260 -0.9047 -0.0000
vn -0.9812 -0.1929 -0.0000
vn 0.7963 -0.6049 -0.0000
vn 0.9812 -0.1929 -0.0000
vn 0.4260 -0.9047 -0.0000
vn 1.0000 -0.0000 -0.0000
vt 0.686815 0.597886
vt 0.686815 0.783491
vt 0.629086 0.783491
vt 0.629086 0.597886
vt 0.686815 0.597886
vt 0.686815 0.345330
vt 0.629086 0.345330
vt 0.629086 0.597886
vt 0.686815 0.324771
vt 0.686815 0.500000
vt 0.629086 0.500000
vt 0.629086 0.324771
vt 0.686815 0.783491
vt 0.629086 0.597886
vt 0.629086 0.783491
vt 0.686815 0.192353
vt 0.629086 0.324771
vt 0.629086 0.192353
vt 0.686815 0.675229
vt 0.629086 0.675229
vt 0.629086 0.500000
vt 1.280762 0.009138
vt 1.280762 0.997661
vt 1.144849 0.997661
vt 1.144849 0.009138
vt 0.629086 0.345330
vt 0.686815 0.807647
vt 0.629086 0.807647
vt 0.629086 0.675229
vt 0.997824 0.994752
vt 0.997824 0.005248
vt 0.923363 0.005248
vt 0.923363 0.994752
vt 1.144849 0.009138
vt -0.116998 0.137068
vt -0.116998 0.299196
vt 0.183251 0.299196
vt 0.183251 0.137068
vt -0.116998 -0.301212
vt -0.116998 -0.056912
vt 0.183251 -0.056912
vt 0.183251 -0.301213
vt -0.116998 0.472890
vt -0.116998 0.646585
vt 0.183251 0.646585
vt 0.183251 0.472890
vt 0.998627 -1.269829
vt 0.006641 -1.269829
vt 0.006641 -0.735580
vt 0.998627 -0.735580
vt -3.467211 0.996594
vt -3.467211 0.004815
vt -2.727807 0.004815
vt -2.727807 0.996594
vt -0.116998 0.808713
vt 0.183251 0.808713
vt -0.116998 1.002693
vt -0.116998 1.246994
vt 0.183251 1.246993
vt 0.183251 1.002693
vt 3.941046 0.004265
vt 3.941046 0.996044
vt 2.728592 0.996044
vt 2.728592 0.004266
vt 0.483500 1.246993
vt 0.483500 1.002693
vt 0.483500 0.808713
vt 0.483500 0.137068
vt 0.483500 -0.056912
vt 0.483500 0.472890
vt 0.483500 0.299196
vt 1.516138 0.996044
vt 1.516138 0.004266
vt 0.483500 -0.301213
vt 0.483500 0.646585
vt 0.006641 -0.201331
vt 0.998627 -0.201331
vt -1.988404 0.004815
vt -1.988404 0.996594
vt 0.783749 -0.056912
vt 0.783749 -0.301213
vt 0.783749 0.646585
vt 0.783749 0.472890
vt 0.006641 0.332917
vt 0.998627 0.332917
vt -1.249000 0.004815
vt -1.249000 0.996594
vt 0.783749 0.808713
vt 0.783749 1.246993
vt 0.783749 1.002693
vt 0.783749 0.137068
vt 0.783749 0.299196
vt 0.303684 0.996045
vt 0.303684 0.004266
vt 1.083998 1.002693
vt 1.083998 0.808713
vt 1.083998 0.137068
vt 1.083998 -0.056912
vt 1.083998 0.472890
vt 1.083998 0.299196
vt -0.908770 0.996045
vt -0.908770 0.004266
vt 1.083998 -0.301213
vt 1.083998 0.646585
vt 0.006641 0.867166
vt 0.998627 0.867166
vt -0.509597 0.004815
vt -0.509597 0.996594
vt 1.083998 1.246993
vt 1.384247 0.646585
vt 1.384247 0.472890
vt 0.006641 1.401415
vt 0.998627 1.401415
vt 0.229807 0.004815
vt 0.229807 0.996594
vt 1.384247 0.808713
vt 1.384247 1.246993
vt 1.384247 1.002693
vt 1.384247 0.137068
vt 1.384247 -0.056912
vt 1.384247 0.299196
vt -2.121225 0.996046
vt -2.121225 0.004267
vt 1.384247 -0.301213
vt 1.684496 1.002693
vt 1.684496 0.808713
vt 1.684496 0.137068
vt 1.684496 -0.056912
vt 1.684496 0.472890
vt 1.684496 0.299196
vt -3.333679 0.996046
vt -3.333679 0.004267
vt 1.684496 -0.301213
vt 1.684496 0.646585
vt 0.006641 1.935663
vt 0.998627 1.935663
vt 0.969210 0.004815
vt 0.969211 0.996594
vt 1.684496 1.246993
vt 0.006641 2.008762
vt 0.998627 2.008762
vt 1.102742 0.004815
vt 1.102742 0.996594
vt 1.725578 0.808713
vt 1.725578 0.646585
vt 1.725578 1.246993
vt 1.725578 1.002693
vt 1.725578 0.137068
vt 1.725578 -0.056912
vt 1.725578 0.472890
vt 1.725578 0.299196
vt -3.467211 0.996046
vt -3.467210 0.004267
vt 1.725578 -0.301213
s 1
usemtl brick_modern
f 1/1/1 10/2/2 21/3/3 12/4/4
f 6/5/5 4/6/6 15/7/7 17/8/8
f 11/9/9 7/10/10 18/11/11 22/12/12
f 9/13/13 6/5/5 17/14/8 20/15/14
f 10/16/2 11/9/9 22/17/12 21/18/3
f 7/10/10 8/19/15 19/20/16 18/21/11
f 2/6/17 1/1/1 12/4/4 13/26/18
f 8/19/15 9/27/13 20/28/14 19/29/16
f 21/35/3 22/36/12 33/37/20 32/38/21
f 13/39/18 12/40/4 23/41/22 24/42/23
f 18/43/11 19/44/16 30/45/24 29/46/25
f 19/44/16 20/55/14 31/56/27 30/45/24
f 17/57/8 15/58/7 26/59/26 28/60/28
f 20/55/14 17/57/8 28/60/28 31/56/27
f 12/40/4 21/35/3 32/38/21 23/41/22
f 22/36/12 18/43/11 29/46/25 33/37/20
f 28/60/28 26/59/26 37/65/29 39/66/30
f 31/56/27 28/60/28 39/66/30 42/67/31
f 23/41/22 32/38/21 43/68/32 34/69/33
f 33/37/20 29/46/25 40/70/34 44/71/35
f 32/38/21 33/37/20 44/71/35 43/68/32
f 24/42/23 23/41/22 34/69/33 35/74/36
f 29/46/25 30/45/24 41/75/37 40/70/34
f 30/45/24 31/56/27 42/67/31 41/75/37
f 35/74/36 34/69/33 45/80/38 46/81/39
f 40/70/34 41/75/37 52/82/40 51/83/41
f 41/75/37 42/67/31 53/88/43 52/82/40
f 39/66/30 37/65/29 48/89/42 50/90/44
f 42/67/31 39/66/30 50/90/44 53/88/43
f 34/69/33 43/68/32 54/91/45 45/80/38
f 44/71/35 40/70/34 51/83/41 55/92/46
f 43/68/32 44/71/35 55/92/46 54/91/45
f 53/88/43 50/90/44 61/95/47 64/96/48
f 45/80/38 54/91/45 65/97/49 56/98/50
f 55/92/46 51/83/41 62/99/51 66/100/52
f 54/91/45 55/92/46 66/100/52 65/97/49
f 46/81/39 45/80/38 56/98/50 57/103/53
f 51/83/41 52/82/40 63/104/54 62/99/51
f 52/82/40 53/88/43 64/96/48 63/104/54
f 50/90/44 48/89/42 59/109/55 61/95/47
f 62/99/51 63/104/54 74/110/56 73/111/57
f 63/104/54 64/96/48 75/116/59 74/110/56
f 61/95/47 59/109/55 70/117/58 72/118/60
f 64/96/48 61/95/47 72/118/60 75/116/59
f 56/98/50 65/97/49 76/119/61 67/120/62
f 66/100/52 62/99/51 73/111/57 77/121/63
f 65/97/49 66/100/52 77/121/63 76/119/61
f 57/103/53 56/98/50 67/120/62 68/124/64
f 75/116/59 72/118/60 83/125/65 86/126/66
f 67/120/62 76/119/61 87/127/67 78/128/68
f 77/121/63 73/111/57 84/129/69 88/130/70
f 76/119/61 77/121/63 88/130/70 87/127/67
f 68/124/64 67/120/62 78/128/68 79/133/71
f 73/111/57 74/110/56 85/134/72 84/129/69
f 74/110/56 75/116/59 86/126/66 85/134/72
f 72/118/60 70/117/58 81/139/73 83/125/65
f 85/134/72 86/126/66 97/144/75 96/145/76
f 83/125/65 81/139/73 92/146/74 94/147/77
f 86/126/66 83/125/65 94/147/77 97/144/75
f 78/128/68 87/127/67 98/148/78 89/149/79
f 88/130/70 84/129/69 95/150/10 99/151/80
f 87/127/67 88/130/70 99/151/80 98/148/78
f 79/133/71 78/128/68 89/149/79 90/154/81
f 84/129/69 85/134/72 96/145/76 95/150/10
usemtl concrete_bare_01
f 5/22/17 2/23/17 13/24/18 16/25/18
f 4/23/6 3/22/6 14/34/7 15/24/7
f 15/51/7 14/52/7 25/53/26 26/54/26
f 16/61/18 13/62/18 24/63/23 27/64/23
f 27/64/23 24/63/23 35/72/36 38/73/36
f 26/54/26 25/53/26 36/78/29 37/79/29
f 37/79/29 36/78/29 47/86/42 48/87/42
f 38/73/36 35/72/36 46/93/39 49/94/39
f 49/94/39 46/93/39 57/101/53 60/102/53
f 48/87/42 47/86/42 58/107/55 59/108/55
f 59/108/55 58/107/55 69/114/58 70/115/58
f 60/102/53 57/101/53 68/122/64 71/123/64
f 71/123/64 68/122/64 79/131/71 82/132/71
f 70/115/58 69/114/58 80/137/73 81/138/73
f 81/138/73 80/137/73 91/142/74 92/143/74
f 82/132/71 79/131/71 90/152/81 93/153/81
usemtl brick_pavement
f 3/30/19 5/31/19 16/32/19 14/33/19
f 14/47/19 16/48/19 27/49/19 25/50/19
f 25/50/19 27/49/19 38/76/19 36/77/19
f 36/77/19 38/76/19 49/84/19 47/85/19
f 47/85/19 49/84/19 60/105/19 58/106/19
f 58/106/19 60/105/19 71/112/19 69/113/19
f 69/113/19 71/112/19 82/135/19 80/136/19
f 80/136/19 82/135/19 93/140/19 91/141/19
