# Blender 4.5.9 LTS
# www.blender.org
mtllib Serwers01_002.mtl
o Serwers01_002
v 2.185812 -2.561713 6.000059
v 3.869725 -2.561713 6.000059
v 2.185812 -2.561713 -5.999941
v -5.999941 -2.561713 -2.185812
v -5.999941 -2.561713 -3.869725
v 3.869725 -2.561713 -5.999941
v 3.929231 -2.187449 6.000059
v -5.999941 -2.187449 -3.929231
v 3.929231 -2.187449 -5.999941
v 4.157303 -2.187449 6.000059
v 4.157303 -2.187449 -5.999941
v -5.999941 -2.187449 -4.157303
v 4.157303 -1.940267 6.000059
v -5.999941 -1.940267 -4.157303
v 4.157303 -1.940267 -5.999941
v 4.239360 -1.940267 6.000059
v -5.999941 -1.940267 -4.239360
v 4.239360 -1.940267 -5.999941
v 1.851272 -2.678080 6.000059
v -5.999941 -2.678080 -1.851272
v 1.851272 -2.678080 -5.999941
v 1.284489 -2.843798 6.000059
v -5.999941 -2.843798 -1.284489
v 1.284489 -2.843798 -5.999941
v -0.000000 -2.843798 6.000059
v -0.000000 -2.843798 -5.999941
v -5.999941 -2.843798 0.000000
v 4.511393 -1.048086 6.000059
v 4.511393 -1.048086 -5.999941
v -5.999941 -1.048086 -4.511393
v 4.482758 0.207360 6.000059
v 4.482758 0.207360 -5.999940
v -5.999940 0.207360 -4.482758
v 4.210725 1.180951 6.000059
v -5.999940 1.180951 -4.210725
v 4.210725 1.180951 -5.999940
v 3.611235 2.131809 6.000059
v -5.999940 2.131809 -3.611235
v 3.611235 2.131809 -5.999940
v 2.565410 2.906828 6.000520
v -5.999480 2.906828 -2.565410
v 2.565410 2.906828 -5.999480
v 1.422453 3.345155 6.000520
v 1.422453 3.345155 -5.999480
v -5.999480 3.345155 -1.422453
v 0.359149 3.426353 6.000520
v 0.359149 3.426353 -5.999480
v -5.999480 3.426353 -0.359149
v -0.000000 3.441601 5.987757
v -0.000000 3.441601 -6.012244
v -6.012244 3.441601 0.000000
v -2.185812 -2.561713 6.000059
v -3.869725 -2.561713 6.000059
v -2.185812 -2.561713 -5.999941
v -5.999941 -2.561713 2.185812
v -5.999941 -2.561713 3.869725
v -3.869725 -2.561713 -5.999941
v -3.929231 -2.187449 6.000059
v -3.929231 -2.187449 -5.999941
v -5.999941 -2.187449 3.929231
v -4.157303 -2.187449 6.000059
v -4.157303 -2.187449 -5.999941
v -5.999941 -2.187449 4.157303
v -4.157303 -1.940267 6.000059
v -4.157303 -1.940267 -5.999941
v -5.999941 -1.940267 4.157303
v -4.239360 -1.940267 6.000059
v -4.239360 -1.940267 -5.999941
v -5.999941 -1.940267 4.239360
v -1.851272 -2.678080 6.000059
v -1.851272 -2.678080 -5.999941
v -5.999941 -2.678080 1.851272
v -1.284490 -2.843798 6.000059
v -1.284490 -2.843798 -5.999941
v -5.999941 -2.843798 1.284490
v -4.511393 -1.048086 6.000059
v -4.511393 -1.048086 -5.999941
v -5.999941 -1.048086 4.511393
v -4.482758 0.207360 6.000059
v -4.482758 0.207360 -5.999940
v -5.999940 0.207360 4.482758
v -4.210725 1.180951 6.000059
v -4.210725 1.180951 -5.999940
v -5.999940 1.180951 4.210725
v -3.611235 2.131809 6.000059
v -3.611235 2.131809 -5.999940
v -5.999940 2.131809 3.611235
v -2.565410 2.906828 6.000520
v -5.999480 2.906828 2.565410
v -2.565410 2.906828 -5.999480
v -1.422453 3.345155 6.000520
v -5.999480 3.345155 1.422453
v -1.422453 3.345155 -5.999480
v -0.359149 3.426353 6.000520
v -0.359149 3.426353 -5.999480
v -5.999480 3.426353 0.359149
v 3.869725 -2.561713 3.869725
v 3.869725 -2.561713 -3.869725
v 3.869725 -2.561713 -2.484754
v 3.869725 -2.561713 -2.185812
v 3.869725 -2.561713 2.185812
v 3.929231 -2.187449 4.157303
v 3.929231 -2.187449 3.929231
v 3.929231 -2.187449 -3.929231
v 3.929231 -2.187449 -4.117945
v 3.929231 -2.187449 -4.157303
v 4.157303 -2.187449 4.157303
v 4.157303 -2.187449 4.122280
v 4.157303 -2.187449 -4.157303
v 4.157303 -2.187449 -3.929231
v 4.157303 -2.187449 3.929231
v 4.157303 -1.940267 4.239360
v 4.157303 -1.940267 4.157303
v 4.157303 -1.940267 -4.157303
v 4.157303 -1.940267 -4.226759
v 4.157303 -1.940267 -4.239360
v 2.185812 -2.561713 3.869725
v 2.185812 -2.561713 2.721051
v 2.185812 -2.561713 2.185812
v 2.185812 -2.561713 -2.185812
v 2.185812 -2.561713 -3.869725
v 1.851272 -2.678080 1.851272
v 1.851272 -2.678080 -1.851272
v 1.284489 -2.843798 -1.284489
v 1.284489 -2.843798 1.284490
v 1.284489 -2.843798 0.779731
v 1.284489 -2.843798 0.000000
v 4.239360 -1.940267 4.239360
v 4.239360 -1.940267 4.227320
v 4.239360 -1.940267 -4.239360
v 4.239360 -1.940267 -4.157303
v 4.239360 -1.940267 4.157303
v 4.511393 -1.048086 4.511393
v 4.511393 -1.048086 -4.511393
v 4.482758 0.207360 -4.482758
v 4.482758 0.207360 4.482758
v 4.210725 1.180951 -4.210725
v 4.210725 1.180951 4.210725
v 3.611235 2.131809 -3.611235
v 3.611235 2.131809 3.611235
v 2.565410 2.906828 2.565410
v 2.565410 2.906828 -2.565410
v 1.422453 3.345155 1.422453
v 1.422453 3.345155 -1.422453
v 0.359149 3.426353 0.359149
v 0.359149 3.426353 -0.359149
v -0.000000 3.441601 0.000000
v -3.929231 -2.187449 3.929231
v -3.929231 -2.187449 4.157303
v -3.929231 -2.187449 -3.929231
v -3.929231 -2.187449 -3.968587
v -3.929231 -2.187449 -4.157303
v -3.869725 -2.561713 3.869725
v -3.869725 -2.561713 -3.869725
v -3.869725 -2.561713 -3.570801
v -3.869725 -2.561713 -2.185812
v -3.869725 -2.561713 2.185812
v -4.157303 -1.940267 4.157303
v -4.157303 -1.940267 4.239360
v -4.157303 -1.940267 -4.157303
v -4.157303 -1.940267 -4.169903
v -4.157303 -1.940267 -4.239360
v -4.157303 -2.187449 3.964252
v -4.157303 -2.187449 4.157303
v -4.157303 -2.187449 -4.157303
v -4.157303 -2.187449 -3.929231
v -4.157303 -2.187449 3.929231
v -1.851272 -2.678080 -1.851272
v -1.851272 -2.678080 1.851272
v -2.185812 -2.561713 -3.869725
v -2.185812 -2.561713 3.869725
v -2.185812 -2.561713 3.334504
v -2.185812 -2.561713 2.185812
v -2.185812 -2.561713 -2.185812
v -1.284490 -2.843798 1.284490
v -1.284490 -2.843798 0.504746
v -1.284490 -2.843798 0.000000
v -1.284490 -2.843798 -1.284489
v -4.511393 -1.048086 4.511393
v -4.511393 -1.048086 -4.511393
v -4.239360 -1.940267 4.239360
v -4.239360 -1.940267 4.169342
v -4.239360 -1.940267 -4.239360
v -4.239360 -1.940267 -4.157303
v -4.239360 -1.940267 4.157303
v -4.482758 0.207360 4.482758
v -4.482758 0.207360 -4.482758
v -4.210725 1.180951 4.210725
v -4.210725 1.180951 -4.210725
v -3.611235 2.131809 3.611235
v -3.611235 2.131809 -3.611235
v -2.565410 2.906828 2.565410
v -2.565410 2.906828 -2.565410
v -1.422453 3.345155 1.422453
v -1.422453 3.345155 -1.422453
v -0.359149 3.426353 0.359149
v -0.359149 3.426353 -0.359149
v -3.570801 -2.561713 -3.869725
v -3.968587 -2.187449 -3.929231
v 3.964252 -2.187449 -4.157303
v -4.169903 -1.940267 -4.157303
v 3.334504 -2.561713 -2.185812
v -0.000000 -2.843798 -1.284489
v 0.504746 -2.843798 -1.284489
v 4.169342 -1.940267 -4.239360
v -4.117945 -2.187449 3.929231
v -2.484754 -2.561713 3.869725
v -4.226759 -1.940267 4.157303
v 4.122280 -2.187449 4.157303
v 2.721051 -2.561713 2.185812
v -0.000000 -2.843798 1.284490
v 0.779731 -2.843798 1.284490
v 4.227320 -1.940267 4.239360
v -4.118624 -2.187449 3.964988
v -3.967853 -2.187449 -3.967853
v 4.121601 -2.187449 4.121601
v 3.964988 -2.187449 -4.118624
v -4.226842 -1.940267 4.169427
v -4.169817 -1.940267 -4.169817
v 4.227237 -1.940267 4.227237
v 4.169427 -1.940267 -4.226842
v 0.719225 -2.843798 0.719225
v 0.566996 -2.843798 -0.702930
v -0.580140 -2.843798 -0.580140
v -0.000000 -2.843798 -0.642238
v -0.702930 -2.843798 0.566996
v -0.642238 -2.843798 0.000000
v -0.000000 -2.843798 0.000000
v -3.522007 -2.561713 -3.522007
v -2.552636 -2.561713 3.385979
v 2.655185 -2.561713 2.655185
v 3.385979 -2.561713 -2.552636
v 2.299661 -2.674139 6.500879
v 4.071281 -2.674139 6.500879
v 4.133887 -2.280382 6.500879
v 4.373837 -2.280382 6.500879
v 4.373837 -2.020325 6.500879
v 4.460169 -2.020325 6.500879
v 1.947696 -2.796567 6.500879
v 1.351392 -2.970917 6.500879
v -0.000000 -2.970917 6.500879
v 4.746370 -1.081674 6.500879
v 4.716244 0.239162 6.500879
v 4.430042 1.263463 6.500879
v 3.799328 2.263847 6.500879
v 2.699031 3.079233 6.501364
v 1.496542 3.540390 6.501364
v 0.377855 3.625818 6.501364
v -0.000000 3.641860 6.487936
v -2.299661 -2.674139 6.500879
v -4.071281 -2.674139 6.500879
v -4.133887 -2.280382 6.500879
v -4.373837 -2.280382 6.500879
v -4.373837 -2.020325 6.500879
v -4.460169 -2.020325 6.500879
v -1.947696 -2.796567 6.500879
v -1.351393 -2.970917 6.500879
v -4.746370 -1.081674 6.500879
v -4.716244 0.239162 6.500879
v -4.430042 1.263463 6.500879
v -3.799328 2.263847 6.500879
v -2.699031 3.079233 6.501364
v -1.496542 3.540390 6.501364
v -0.377856 3.625818 6.501364
v 2.320230 -2.694450 -6.556373
v 4.107696 -2.694450 -6.556373
v 4.170861 -2.297171 -6.556373
v 4.412958 -2.297171 -6.556373
v 4.412958 -2.034789 -6.556373
v 4.500061 -2.034789 -6.556373
v 1.965116 -2.817973 -6.556373
v 1.363479 -2.993883 -6.556373
v -0.000000 -2.993883 -6.556373
v 4.788822 -1.087742 -6.556373
v 4.758426 0.244908 -6.556372
v 4.469665 1.278370 -6.556372
v 3.833309 2.287702 -6.556372
v 2.723171 3.110381 -6.555883
v 1.509927 3.575662 -6.555883
v 0.381235 3.661853 -6.555883
v -0.000000 3.678040 -6.569432
v -2.320230 -2.694450 -6.556373
v -4.107696 -2.694450 -6.556373
v -4.170861 -2.297171 -6.556373
v -4.412958 -2.297171 -6.556373
v -4.412958 -2.034789 -6.556373
v -4.500061 -2.034789 -6.556373
v -1.965116 -2.817973 -6.556373
v -1.363480 -2.993883 -6.556373
v -4.788822 -1.087742 -6.556373
v -4.758426 0.244908 -6.556372
v -4.469665 1.278370 -6.556372
v -3.833309 2.287702 -6.556372
v -2.723171 3.110381 -6.555883
v -1.509927 3.575662 -6.555883
v -0.381235 3.661853 -6.555883
vn -0.0000 1.0000 -0.0000
vn -0.1739 0.9766 0.1264
vn -0.6025 0.7687 0.2148
vn -0.5986 0.7682 -0.2272
vn -0.1742 0.9756 -0.1338
vn -0.9876 0.1570 -0.0000
vn -0.6577 0.7309 0.1823
vn -0.6571 0.7290 -0.1918
vn -0.6540 0.7248 0.2168
vn -0.6494 0.7251 -0.2293
vn -1.0000 -0.0000 -0.0000
vn -0.7138 0.6752 0.1859
vn -0.7130 0.6734 -0.1954
vn -0.5380 0.8225 0.1845
vn -0.5338 0.8229 -0.1947
vn -0.3285 0.9445 -0.0000
vn -0.3047 0.9525 -0.0000
vn -0.3010 0.9436 0.1381
vn -0.3006 0.9425 -0.1463
vn -0.1888 0.9820 -0.0000
vn -0.1363 0.9817 0.1327
vn -0.2806 0.9598 -0.0000
vn -0.1359 0.9807 -0.1407
vn -0.0000 0.9923 0.1240
vn -0.0000 0.9913 -0.1313
vn -0.9565 0.2917 -0.0000
vn -0.9654 0.1326 0.2244
vn -0.9626 0.1322 -0.2366
vn -0.9644 -0.1436 0.2219
vn -0.9891 -0.1471 -0.0000
vn -0.9997 -0.0228 -0.0000
vn -0.9617 -0.1432 -0.2339
vn -0.8910 -0.3965 0.2211
vn -0.9141 -0.4055 -0.0000
vn -0.8884 -0.3954 -0.2331
vn -0.7134 -0.6664 0.2168
vn -0.8459 -0.5333 -0.0000
vn -0.7113 -0.6645 -0.2289
vn -0.4685 -0.8593 0.2051
vn -0.4812 -0.8766 -0.0000
vn -0.5954 -0.8034 -0.0000
vn -0.4673 -0.8572 -0.2165
vn -0.2126 -0.9569 0.1979
vn -0.2194 -0.9756 -0.0000
vn -0.2120 -0.9547 -0.2090
vn -0.0616 -0.9796 0.1915
vn -0.0593 -0.9982 -0.0000
vn -0.0545 -0.9787 -0.1977
vn -0.0000 -0.9825 0.1861
vn -0.0106 -0.9999 -0.0000
vn -0.0000 -0.9788 -0.2047
vn 0.6025 0.7687 0.2148
vn 0.1739 0.9766 0.1264
vn 0.1742 0.9756 -0.1338
vn 0.5986 0.7682 -0.2272
vn 0.9876 0.1570 -0.0000
vn 0.6577 0.7309 0.1823
vn 0.6571 0.7290 -0.1918
vn 0.6540 0.7248 0.2168
vn 0.6494 0.7251 -0.2293
vn 1.0000 -0.0000 -0.0000
vn 0.7138 0.6752 0.1859
vn 0.7130 0.6734 -0.1954
vn 0.5380 0.8225 0.1845
vn 0.5338 0.8229 -0.1947
vn 0.3285 0.9445 -0.0000
vn 0.3010 0.9436 0.1381
vn 0.2931 0.9561 -0.0000
vn 0.3006 0.9425 -0.1463
vn 0.1363 0.9817 0.1327
vn 0.0960 0.9954 -0.0000
vn 0.1359 0.9807 -0.1407
vn 0.9565 0.2917 -0.0000
vn 0.9654 0.1326 0.2244
vn 0.9626 0.1322 -0.2366
vn 0.9644 -0.1436 0.2219
vn 0.9997 -0.0228 -0.0000
vn 0.9875 -0.1576 -0.0000
vn 0.9616 -0.1432 -0.2339
vn 0.8910 -0.3965 0.2211
vn 0.9004 -0.4351 -0.0000
vn 0.8884 -0.3954 -0.2331
vn 0.7134 -0.6664 0.2168
vn 0.8459 -0.5333 -0.0000
vn 0.7113 -0.6645 -0.2289
vn 0.4685 -0.8593 0.2051
vn 0.5954 -0.8034 -0.0000
vn 0.4272 -0.9042 -0.0000
vn 0.4673 -0.8572 -0.2165
vn 0.2126 -0.9569 0.1979
vn 0.0755 -0.9943 -0.0755
vn 0.2120 -0.9547 -0.2090
vn 0.0755 -0.9943 0.0755
vn 0.0616 -0.9796 0.1915
vn 0.0255 -0.9994 -0.0255
vn 0.0545 -0.9787 -0.1977
vn 0.0255 -0.9994 0.0255
vn -0.0000 0.1570 0.9876
vn -0.0000 -0.0000 1.0000
vn -0.0000 0.9445 0.3285
vn -0.0000 0.9525 0.3047
vn -0.0000 0.9561 0.2931
vn -0.0000 0.9899 0.1417
vn -0.0000 0.9954 0.0960
vn -0.0000 0.2917 0.9565
vn -0.0000 -0.1471 0.9891
vn -0.0000 -0.0228 0.9997
vn -0.0000 -0.1576 0.9875
vn -0.0000 -0.4055 0.9141
vn -0.0000 -0.4351 0.9004
vn -0.0000 -0.5333 0.8459
vn -0.0000 -0.9042 0.4272
vn -0.0000 -0.8766 0.4812
vn -0.0000 -0.8034 0.5954
vn -0.0000 -0.9756 0.2194
vn -0.0000 -0.9983 0.0591
vn -0.0000 -1.0000 -0.0000
vn -0.0000 0.1570 -0.9876
vn -0.0000 -0.0000 -1.0000
vn -0.0000 0.9445 -0.3285
vn -0.0000 0.9561 -0.2931
vn -0.0000 0.9525 -0.3047
vn -0.0000 0.9899 -0.1417
vn -0.0000 0.9954 -0.0960
vn -0.0000 0.2917 -0.9565
vn -0.0000 -0.0228 -0.9997
vn -0.0000 -0.1471 -0.9891
vn -0.0000 -0.1576 -0.9875
vn -0.0000 -0.4055 -0.9141
vn -0.0000 -0.4351 -0.9004
vn -0.0000 -0.5333 -0.8459
vn -0.0000 -0.8034 -0.5954
vn -0.0000 -0.8766 -0.4812
vn -0.0000 -0.9042 -0.4272
vn -0.0000 -0.9756 -0.2194
vn -0.0000 -0.9983 -0.0591
vn 0.6711 -0.6149 0.4142
vn 0.8290 -0.3656 0.4233
vn -0.2071 -0.9008 0.3818
vn -0.0618 -0.9265 0.3713
vn 0.4460 -0.8030 0.3954
vn 0.8952 0.1232 0.4283
vn 0.6047 0.7007 0.3786
vn -0.0000 -0.9284 0.3717
vn 0.2071 -0.9008 0.3818
vn -0.6812 0.6083 0.4074
vn -0.5844 0.7231 0.3683
vn 0.0618 -0.9265 0.3713
vn 0.6276 0.6666 0.4022
vn 0.1425 0.9583 0.2475
vn 0.5844 0.7231 0.3683
vn 0.6812 0.6083 0.4074
vn -0.6047 0.7007 0.3786
vn -0.5369 0.7625 0.3609
vn 0.5369 0.7625 0.3609
vn -0.1445 0.9543 0.2615
vn -0.2946 0.9157 0.2734
vn 0.1445 0.9543 0.2615
vn -0.0000 0.9693 0.2460
vn 0.2946 0.9157 0.2734
vn -0.1425 0.9583 0.2475
vn -0.8952 0.1232 0.4283
vn -0.4460 -0.8030 0.3954
vn -0.8951 -0.1327 0.4257
vn -0.8290 -0.3656 0.4233
vn 0.8951 -0.1327 0.4257
vn -0.6711 -0.6149 0.4142
vn -0.6276 0.6666 0.4022
vn 0.1443 0.9500 -0.2767
vn 0.2933 0.9113 -0.2891
vn -0.8196 -0.3614 -0.4447
vn -0.8848 -0.1312 -0.4472
vn 0.0476 -0.9192 -0.3909
vn -0.0000 -0.9205 -0.3906
vn 0.6012 0.6922 -0.3993
vn 0.8848 0.1218 -0.4498
vn -0.0000 0.9655 -0.2604
vn -0.5279 0.7600 -0.3791
vn -0.6224 0.6584 -0.4232
vn -0.6641 -0.6078 -0.4353
vn 0.8848 -0.1312 -0.4472
vn -0.4419 -0.7947 -0.4160
vn -0.0476 -0.9192 -0.3909
vn -0.2054 -0.8923 -0.4020
vn -0.6753 0.6003 -0.4286
vn 0.8196 -0.3614 -0.4447
vn -0.1409 0.9548 -0.2618
vn 0.6641 -0.6078 -0.4353
vn -0.6012 0.6922 -0.3993
vn -0.5744 0.7216 -0.3865
vn 0.4419 -0.7947 -0.4160
vn 0.1409 0.9548 -0.2618
vn 0.6224 0.6584 -0.4232
vn 0.2054 -0.8923 -0.4020
vn -0.2933 0.9113 -0.2891
vn -0.1443 0.9500 -0.2767
vn 0.5279 0.7600 -0.3791
vn 0.6753 0.6003 -0.4286
vn 0.5744 0.7216 -0.3865
vn -0.8848 0.1218 -0.4498
vt 3.285065 0.122410
vt 3.995035 0.122410
vt 3.995035 0.683603
vt 3.285066 0.683603
vt 1.266955 0.505231
vt 1.266955 0.122411
vt 2.723872 0.122410
vt 2.723873 0.300788
vt 2.723873 0.683603
vt 1.266955 0.683603
vt 1.167328 0.683603
vt 1.144705 0.522386
vt 0.705763 0.683603
vt -0.004168 0.683603
vt -0.004168 0.122411
vt 0.705762 0.122411
vt 2.902250 0.122410
vt 2.880299 0.278837
vt 3.995036 0.809899
vt 3.380906 0.809899
vt 3.304897 0.809899
vt 0.685931 0.809900
vt 0.609923 0.809900
vt -0.004168 0.809900
vt 0.623039 0.809900
vt 3.995034 0.885907
vt 3.380905 0.885908
vt 3.380905 0.874236
vt 3.304896 0.885908
vt 0.685931 0.885908
vt 0.609923 0.885908
vt -0.004168 0.885908
vt 0.609923 0.821571
vt 0.622813 0.821816
vt 3.369233 0.885908
vt 3.369007 0.874009
vt 3.995035 0.968285
vt 3.408252 0.968285
vt 3.380906 0.968285
vt 0.609923 0.968286
vt 0.582576 0.968286
vt -0.004168 0.968286
vt 0.586775 0.968286
vt 3.995035 0.995632
vt 3.408252 0.995632
vt 3.408252 0.991620
vt 3.380905 0.995632
vt 0.609923 0.995633
vt 0.582575 0.995633
vt -0.004168 0.995633
vt 0.582576 0.972298
vt 0.586747 0.972327
vt 3.404240 0.995632
vt 3.404212 0.991592
vt 2.612381 0.004367
vt 3.995034 0.004366
vt 3.995034 0.122410
vt 3.285065 0.122410
vt 1.378446 0.004367
vt -0.004168 0.004367
vt 3.569130 0.690402
vt 6.071139 0.690402
vt 6.071139 0.991128
vt 3.869856 0.991128
vt 3.301313 0.690402
vt 1.905344 0.991128
vt 2.206069 0.690402
vt 2.887600 0.690402
vt -0.295877 0.991128
vt -0.295877 0.690402
vt 3.569130 0.008872
vt 6.071139 0.008872
vt 3.569130 0.422585
vt -0.295877 0.008872
vt 2.206069 0.008872
vt 2.206069 0.276682
vt 3.269209 0.390481
vt 2.514636 0.309711
vt 2.546838 0.008872
vt 2.887600 0.008872
vt 1.238754 0.000060
vt 1.451498 0.000060
vt 1.451499 0.112762
vt 1.271624 0.112762
vt 0.181407 0.112762
vt 0.214277 0.000060
vt 0.224191 0.000060
vt 1.228839 0.000060
vt 1.237299 0.000060
vt 0.001547 0.112762
vt 0.001547 0.000060
vt 1.451498 0.264496
vt 1.268164 0.264496
vt 0.184867 0.264496
vt 0.001547 0.264496
vt 1.451498 0.386640
vt 1.235294 0.386640
vt 0.217737 0.386640
vt 0.001547 0.386640
vt 1.451499 0.522460
vt 1.162859 0.522460
vt 0.290173 0.522460
vt 0.001547 0.522460
vt 1.451554 0.679742
vt 1.036492 0.679742
vt 0.416539 0.679742
vt 0.001603 0.679742
vt 1.451554 0.827653
vt 0.898389 0.827652
vt 0.554642 0.827652
vt 0.001603 0.827652
vt 1.451554 0.956505
vt 0.769911 0.956505
vt 0.683120 0.956505
vt 0.001603 0.956505
vt 1.450012 0.999940
vt 0.726515 0.999940
vt 0.000060 0.999940
vt 3.285065 0.683603
vt 3.285065 0.122410
vt 3.285065 0.222038
vt 0.705763 0.122411
vt 0.705762 0.683603
vt 0.705763 0.583982
vt 3.106693 0.122410
vt 3.123849 0.244660
vt 2.723873 0.122410
vt 2.723873 0.683603
vt 1.266955 0.122411
vt 0.821646 0.567720
vt 0.805384 0.683603
vt 1.266955 0.683603
vt 0.685931 0.809900
vt 0.609923 0.809900
vt 0.672815 0.809900
vt 0.609922 0.885908
vt 3.316567 0.885908
vt 3.316813 0.873017
vt 3.304896 0.872791
vt 0.673060 0.822771
vt 0.685931 0.823016
vt 0.685931 0.885908
vt 0.609923 0.968286
vt 0.582576 0.968286
vt 0.605723 0.968286
vt 0.582576 0.995633
vt 3.384917 0.995632
vt 3.384946 0.991460
vt 3.380905 0.991433
vt 0.605752 0.972457
vt 0.609923 0.972485
vt 0.609922 0.995633
vt 3.285065 0.122410
vt 2.612381 0.004367
vt 3.869856 0.991128
vt 1.905343 0.991128
vt 2.887600 0.690402
vt 2.887600 0.349634
vt 2.579787 0.316685
vt 3.155410 0.690402
vt 3.188439 0.381836
vt 1.238754 0.000060
vt 0.214277 0.000060
vt 0.181407 0.112762
vt 0.184867 0.264496
vt 0.217737 0.386640
vt 1.162858 0.522460
vt 0.290172 0.522460
vt 0.416539 0.679742
vt 0.898390 0.827652
vt 0.683120 0.956505
vt 0.705763 0.583982
vt 3.106693 0.122410
vt 3.123849 0.244661
vt 0.672815 0.809900
vt 3.304897 0.872791
vt 3.304897 0.809899
vt 3.316813 0.873017
vt 0.212896 0.979007
vt 0.212896 0.904969
vt 0.764819 0.904969
vt 0.764819 0.979007
vt 0.761045 0.979007
vt 0.740241 0.979007
vt 0.609923 0.972485
vt 3.384946 0.991460
vt 3.155410 0.690402
vt 2.887599 0.349634
vt 3.188439 0.381836
vt 2.546838 0.008872
vt 2.723873 0.300788
vt 2.902250 0.122410
vt 1.167328 0.683603
vt 1.144705 0.522386
vt 0.609923 0.809900
vt 0.623039 0.809900
vt 3.380905 0.874236
vt 3.369233 0.885908
vt 0.622813 0.821816
vt 0.744015 0.979007
vt 3.408252 0.991620
vt 3.404240 0.995632
vt 1.905343 0.991128
vt 2.206069 0.690402
vt 2.206069 0.276682
vt 2.514636 0.309711
vt 3.569130 0.422585
vt 0.214277 0.000060
vt 0.181407 0.112762
vt 0.184867 0.264496
vt 0.217736 0.386640
vt 0.416539 0.679742
vt 0.554642 0.827652
s 1
usemtl bricks
f 128/81/26 16/82/14 28/83/27 133/84/26
f 133/84/26 134/85/26 130/86/26 131/87/26 132/88/26 129/89/26 128/81/26
f 134/85/26 29/90/28 18/91/15 130/86/26
f 28/83/27 31/92/29 136/93/30 133/84/31
f 134/85/31 133/84/31 136/93/30 135/94/30
f 135/94/30 32/95/32 29/90/28 134/85/31
f 34/96/33 138/97/34 136/93/30 31/92/29
f 135/94/30 136/93/30 138/97/34 137/98/34
f 137/98/34 36/99/35 32/95/32 135/94/30
f 37/100/36 140/101/37 138/97/34 34/96/33
f 137/98/34 138/97/34 140/101/37 139/102/37
f 139/102/37 39/103/38 36/99/35 137/98/34
f 37/100/36 40/104/39 141/105/40 140/101/41
f 140/101/41 141/105/40 142/106/40 139/102/41
f 42/107/42 39/103/38 139/102/41 142/106/40
f 40/104/39 43/108/43 143/109/44 141/105/40
f 141/105/40 143/109/44 144/110/44 142/106/40
f 44/111/45 42/107/42 142/106/40 144/110/44
f 43/108/43 46/112/46 145/113/47 143/109/44
f 146/114/47 144/110/44 143/109/44 145/113/47
f 47/115/48 44/111/45 144/110/44 146/114/47
f 46/112/46 49/116/49 147/117/50 145/113/47
f 145/113/47 147/117/50 146/114/47
f 50/118/51 47/115/48 146/114/47 147/117/50
f 179/84/73 76/83/74 67/82/64 181/162/73
f 183/163/73 68/91/65 77/90/75 180/164/73
f 79/92/76 76/83/74 179/84/77 186/93/78
f 180/164/77 77/90/75 80/95/79 187/165/78
f 82/96/80 79/92/76 186/93/78 188/97/81
f 187/165/78 80/95/79 83/99/82 189/166/81
f 85/100/83 82/96/80 188/97/81 190/167/84
f 189/166/81 83/99/82 86/103/85 191/168/84
f 88/104/86 85/100/83 190/167/87 192/105/88
f 86/103/85 90/107/89 193/169/88 191/168/87
f 91/108/90 88/104/86 192/105/88 194/170/91
f 90/107/89 93/111/92 195/110/93 193/169/88
f 94/112/94 91/108/90 194/170/91 196/113/95
f 93/111/92 95/115/96 197/171/97 195/110/93
f 49/116/49 94/112/94 196/113/95 147/117/50
f 95/115/96 50/118/51 147/117/50 197/171/97
f 30/90/105 17/91/105 183/163/105 180/164/105
f 33/95/106 30/90/107 180/164/107 187/165/108
f 35/99/109 33/95/106 187/165/108 189/166/110
f 38/103/111 35/99/109 189/166/110 191/168/111
f 193/169/112 41/107/113 38/103/114 191/168/114
f 195/110/93 45/111/115 41/107/113 193/169/112
f 197/171/97 48/115/116 45/111/115 195/110/93
f 147/117/50 51/118/117 48/115/116 197/171/97
f 181/208/125 69/91/125 78/90/125 179/209/125
f 78/90/126 81/95/127 186/210/128 179/209/126
f 81/95/127 84/99/129 188/211/130 186/210/128
f 84/99/129 87/103/131 190/168/131 188/211/130
f 87/103/132 89/107/133 192/212/134 190/168/132
f 89/107/133 92/111/135 194/213/91 192/212/134
f 92/111/135 96/115/136 196/114/95 194/213/91
f 96/115/136 51/118/117 147/117/50 196/114/95
f 82/96/80 85/100/83 261/100/137 260/96/138
f 46/112/46 43/108/43 247/108/139 248/112/140
f 85/100/83 88/104/86 262/104/141 261/100/137
f 67/82/64 76/83/74 258/83/142 255/82/143
f 49/116/49 46/112/46 248/112/140 249/116/144
f 88/104/86 91/108/90 263/108/145 262/104/141
f 94/112/94 49/116/49 249/116/144 264/112/148
f 28/83/27 16/82/14 238/82/153 242/83/162
f 91/108/90 94/112/94 264/112/148 263/108/145
f 43/108/43 40/104/39 246/104/163 247/108/139
f 31/92/29 28/83/27 242/83/162 243/92/164
f 34/96/33 31/92/29 243/92/164 244/96/165
f 76/83/74 79/92/76 259/92/166 258/83/142
f 37/100/36 34/96/33 244/96/165 245/100/167
f 79/92/76 82/96/80 260/96/138 259/92/166
f 40/104/39 37/100/36 245/100/167 246/104/163
f 32/95/32 36/99/35 276/99/171 275/95/172
f 50/118/51 95/115/96 296/115/173 281/118/174
f 77/90/75 68/91/65 287/91/175 290/90/176
f 36/99/35 39/103/38 277/103/180 276/99/171
f 80/95/79 77/90/75 290/90/176 291/95/181
f 39/103/38 42/107/42 278/107/182 277/103/180
f 44/111/45 47/115/48 280/115/183 279/111/184
f 83/99/82 80/95/79 291/95/181 292/99/186
f 47/115/48 50/118/51 281/118/174 280/115/183
f 86/103/85 83/99/82 292/99/186 293/103/188
f 90/107/89 86/103/85 293/103/188 294/107/191
f 93/111/92 90/107/89 294/107/191 295/111/194
f 95/115/96 93/111/92 295/111/194 296/115/173
f 42/107/42 44/111/45 279/111/184 278/107/182
f 18/91/15 29/90/28 274/90/200 270/91/189
f 29/90/28 32/95/32 275/95/172 274/90/200
usemtl concrete_base_02
f 117/1/1 1/2/2 2/3/3 97/4/1
f 202/5/1 120/6/1 119/7/1 210/8/1 101/9/1 100/10/1
f 100/10/1 99/11/1 232/12/1 202/5/1
f 98/13/1 6/14/4 3/15/5 121/16/1
f 99/11/1 98/13/1 121/16/1 120/6/1 202/5/1 232/12/1
f 118/17/1 117/1/1 97/4/1 101/9/1 210/8/1 231/18/1
f 119/7/1 118/17/1 231/18/1 210/8/1
f 97/4/6 2/3/3 7/19/7 102/20/6 103/21/6
f 103/21/6 104/22/6 98/13/6 99/11/6 100/10/6 101/9/6 97/4/6
f 106/23/6 9/24/8 6/14/4 98/13/6 104/22/6 105/25/6
f 102/20/1 7/19/7 10/26/9 107/27/1 209/28/1
f 104/22/1 103/21/1 111/29/1 110/30/1
f 109/31/1 11/32/10 9/24/8 106/23/1 200/33/1
f 200/33/1 106/23/1 105/25/1 217/34/1
f 105/25/1 104/22/1 110/30/1 109/31/1 200/33/1 217/34/1
f 107/27/1 108/35/1 216/36/1 209/28/1
f 108/35/1 111/29/1 103/21/1 102/20/1 209/28/1 216/36/1
f 107/27/11 10/26/9 13/37/12 112/38/11 113/39/11
f 113/39/11 114/40/11 109/31/11 110/30/11 111/29/11 108/35/11 107/27/11
f 116/41/11 15/42/13 11/32/10 109/31/11 114/40/11 115/43/11
f 112/38/1 13/37/12 16/44/14 128/45/1 213/46/1
f 114/40/1 113/39/1 132/47/1 131/48/1
f 130/49/1 18/50/15 15/42/13 116/41/1 205/51/1
f 205/51/1 116/41/1 115/43/1 221/52/1
f 115/43/1 114/40/1 131/48/1 130/49/1 205/51/1 221/52/1
f 128/45/1 129/53/1 220/54/1 213/46/1
f 113/39/1 112/38/1 213/46/1 220/54/1 129/53/1 132/47/1
f 118/17/16 119/7/16 122/55/17 19/56/18 1/57/2 117/58/16
f 123/59/17 122/55/17 119/7/16 120/6/16
f 121/16/16 3/15/5 21/60/19 123/59/17 120/6/16
f 153/119/1 53/3/52 52/2/53 171/120/1 207/121/1
f 170/122/1 54/15/54 57/14/55 154/123/1 198/124/1
f 207/121/1 171/120/1 172/125/1 230/126/1
f 172/125/1 173/127/1 157/128/1 153/119/1 207/121/1 230/126/1
f 174/129/1 170/122/1 198/124/1 229/130/1 155/131/1 156/132/1
f 154/123/1 155/131/1 229/130/1 198/124/1
f 148/21/56 149/20/56 58/19/57 53/3/52 153/119/56
f 150/133/56 154/123/56 57/14/55 59/24/58 152/134/56 151/135/56
f 164/27/1 61/26/59 58/19/57 149/20/1
f 152/134/1 59/24/58 62/32/60 165/136/1
f 167/29/1 163/137/1 214/138/1 206/139/1
f 163/137/1 164/27/1 149/20/1 148/21/1 206/139/1 214/138/1
f 150/133/1 151/135/1 215/140/1 199/141/1
f 165/136/1 166/142/1 199/141/1 215/140/1 151/135/1 152/134/1
f 159/38/61 64/37/62 61/26/59 164/27/61 158/39/61
f 160/143/61 165/136/61 62/32/60 65/42/63 162/144/61 161/145/61
f 181/45/1 67/44/64 64/37/62 159/38/1
f 162/144/1 65/42/63 68/50/65 183/146/1
f 185/47/1 182/147/1 218/148/1 208/149/1
f 182/147/1 181/45/1 159/38/1 158/39/1 208/149/1 218/148/1
f 160/143/1 161/145/1 219/150/1 201/151/1
f 183/146/1 184/152/1 201/151/1 219/150/1 161/145/1 162/144/1
f 171/153/66 52/57/53 70/56/67 169/154/68 173/127/66 172/125/66
f 168/59/68 71/60/69 54/15/54 170/122/66 174/129/66
f 155/172/1 154/123/1 5/14/1 4/15/1 156/16/1
f 154/123/1 155/172/1 229/130/1 198/131/1
f 99/121/1 98/4/1 121/9/1 120/7/1 202/173/1 232/174/1
f 174/129/1 170/10/1 198/131/1 229/130/1 155/172/1 156/16/1
f 100/1/1 99/121/1 232/174/1 202/173/1
f 8/24/98 5/14/98 154/123/98 150/133/98 199/175/98 166/23/98
f 165/136/1 12/32/1 8/24/1 166/23/1
f 150/133/1 151/141/1 215/140/1 199/175/1
f 105/176/1 104/177/1 110/20/1 109/27/1 200/137/1 217/178/1
f 165/136/1 166/23/1 199/175/1 215/140/1 151/141/1 152/30/1
f 200/137/1 106/29/1 105/176/1 217/178/1
f 14/179/99 12/180/99 165/181/99 160/182/99 201/183/99 184/184/99
f 183/146/1 17/50/1 14/42/1 184/144/1
f 160/143/1 161/185/1 219/150/1 201/145/1
f 115/149/1 114/39/1 131/38/1 130/45/1 205/147/1 221/186/1
f 183/146/1 184/144/1 201/145/1 219/150/1 161/185/1 162/48/1
f 205/147/1 116/47/1 115/149/1 221/186/1
f 156/16/100 4/15/100 20/60/101 168/59/102 174/129/100
f 157/122/1 55/15/1 56/14/1 153/123/1
f 119/7/1 118/191/1 231/18/1 210/192/1
f 172/5/1 173/129/1 157/122/1 153/123/1 207/193/1 230/194/1
f 207/193/1 171/132/1 172/5/1 230/194/1
f 118/191/1 117/128/1 97/4/1 101/120/1 210/192/1 231/18/1
f 148/133/118 153/123/118 56/14/118 60/24/118 167/195/118 206/196/118
f 163/33/1 167/195/1 60/24/1 63/32/1 164/136/1
f 107/27/1 108/197/1 216/36/1 209/198/1
f 163/33/1 164/136/1 149/142/1 148/133/1 206/196/1 214/199/1
f 167/195/1 163/33/1 214/199/1 206/196/1
f 108/197/1 111/20/1 103/21/1 102/29/1 209/198/1 216/36/1
f 208/200/119 158/182/119 164/181/119 63/180/119 66/179/119 185/184/119
f 182/51/1 185/41/1 66/42/1 69/50/1 181/146/1
f 128/45/1 129/201/1 220/54/1 213/202/1
f 182/51/1 181/146/1 159/152/1 158/40/1 208/43/1 218/52/1
f 185/41/1 182/51/1 218/52/1 208/43/1
f 113/39/1 112/47/1 213/202/1 220/54/1 129/201/1 132/38/1
f 173/129/120 169/59/121 72/60/122 55/15/120 157/122/120
f 13/37/12 10/26/9 236/26/146 237/37/147
f 52/2/53 53/3/52 251/3/149 250/2/150
f 61/26/59 64/37/62 254/37/151 253/26/152
f 16/44/14 13/37/12 237/37/147 238/44/153
f 64/37/62 67/44/64 255/44/143 254/37/151
f 10/26/9 7/19/7 235/19/154 236/26/146
f 53/3/52 58/19/57 252/19/155 251/3/149
f 58/19/57 61/26/59 253/26/152 252/19/155
f 70/56/67 52/57/53 250/57/150 256/56/160
f 1/57/2 19/56/18 239/56/157 233/57/161
f 7/19/7 2/3/3 234/3/168 235/19/154
f 2/3/3 1/2/2 233/2/161 234/3/168
f 6/14/4 9/24/8 267/24/178 266/14/179
f 9/24/8 11/32/10 268/32/185 267/24/178
f 3/15/5 6/14/4 266/14/179 265/15/187
f 15/42/13 18/50/15 270/50/189 269/42/190
f 57/14/55 54/15/54 282/15/192 283/14/193
f 11/32/10 15/42/13 269/42/190 268/32/185
f 62/32/60 59/24/58 284/24/197 285/32/198
f 59/24/58 57/14/55 283/14/193 284/24/197
f 65/42/63 62/32/60 285/32/198 286/42/199
f 54/15/54 71/60/69 288/60/170 282/15/192
f 21/60/19 3/15/5 265/15/187 271/60/195
f 68/50/65 65/42/63 286/42/199 287/50/175
usemtl concrete_dirty
f 125/61/20 22/62/21 19/63/18 122/64/17
f 126/65/22 125/61/20 122/64/17 123/66/17 124/67/20 127/68/22
f 123/66/17 21/69/19 24/70/23 124/67/20
f 211/71/1 25/72/24 22/62/21 125/61/20 212/73/1
f 124/67/20 24/70/23 26/74/25 203/75/1 204/76/1
f 125/61/1 126/65/1 222/77/1 212/73/1
f 127/68/1 124/67/1 204/76/1 223/78/1 225/79/1 228/80/1
f 204/76/1 203/75/1 225/79/1 223/78/1
f 211/71/1 212/73/1 222/77/1 126/65/1 127/68/1 228/80/1
f 169/155/68 70/63/67 73/62/70 175/61/71
f 178/67/71 74/70/72 71/69/69 168/156/68
f 175/61/71 73/62/70 25/72/24 211/71/1
f 203/75/1 26/74/25 74/70/72 178/67/71
f 203/75/1 178/67/1 177/157/1 227/158/1 224/159/1 225/79/1
f 225/79/1 224/159/1 227/158/1 228/80/1
f 176/160/1 175/61/1 211/71/1 228/80/1 227/158/1 226/161/1
f 177/157/1 176/160/1 226/161/1 227/158/1
f 20/69/101 23/70/103 178/67/104 168/156/102
f 178/67/104 23/70/103 27/74/1 177/75/1
f 204/187/1 203/157/1 225/188/1 223/189/1
f 203/157/1 178/67/1 177/75/1 227/190/1 224/159/1 225/188/1
f 225/188/1 224/159/1 227/190/1 228/80/1
f 127/71/1 124/61/1 204/187/1 223/189/1 225/188/1 228/80/1
f 75/70/123 72/69/122 169/203/121 175/204/124
f 176/205/1 177/75/1 27/74/1 75/70/123 175/204/124
f 177/75/1 176/205/1 226/206/1 227/190/1
f 125/61/1 126/207/1 222/77/1 212/65/1
f 176/205/1 175/204/1 211/157/1 228/80/1 227/190/1 226/206/1
f 211/157/1 212/65/1 222/77/1 126/207/1 127/71/1 228/80/1
f 19/63/18 22/62/21 240/62/156 239/63/157
f 25/72/24 73/62/70 257/62/158 241/72/159
f 22/62/21 25/72/24 241/72/159 240/62/156
f 73/62/70 70/63/67 256/63/160 257/62/158
f 71/69/69 74/70/72 289/70/169 288/69/170
f 74/70/72 26/74/25 273/74/177 289/70/169
f 24/70/23 21/69/19 271/69/195 272/70/196
f 26/74/25 24/70/23 272/70/196 273/74/177
