# Blender 4.5.9 LTS
# www.blender.org
mtllib Serwers_004.mtl
o Serwers_004
v 0.000000 4.386929 -10.557463
v 0.000000 3.386931 3.442537
v 0.000000 -2.882610 3.442537
v 0.000000 -1.882611 -10.557463
v -0.979492 -1.882611 -10.557463
v -0.979492 -2.882610 3.442537
v -1.157323 -2.111717 3.442537
v -1.157323 -1.111718 -10.557463
v -2.648009 -1.111718 -10.557463
v -2.648009 -2.111717 3.442537
v -3.302013 0.246336 -10.557463
v -3.302013 -0.753663 3.442537
v -3.302013 1.753662 -10.557463
v -3.302013 0.753663 3.442537
v -2.648009 3.111716 -10.557463
v -2.648009 2.111717 3.442537
v -1.469534 4.051517 -10.557463
v -1.469534 3.051519 3.442537
v 0.979492 -1.882611 -10.557463
v 0.979492 -2.882610 3.442537
v 1.157323 -2.111717 3.442537
v 1.157323 -1.111718 -10.557463
v 2.648009 -1.111718 -10.557463
v 2.648009 -2.111717 3.442537
v 3.302013 0.246336 -10.557463
v 3.302013 -0.753663 3.442537
v 3.302013 1.753662 -10.557463
v 3.302013 0.753663 3.442537
v 2.648009 3.111716 -10.557463
v 2.648009 2.111717 3.442537
v 1.469534 4.051517 -10.557463
v 1.469534 3.051519 3.442537
v 0.000000 4.541109 -10.943887
v 0.000000 -1.997072 -10.943887
v -1.021462 -1.997072 -10.943887
v -1.206913 -1.193147 -10.943887
v -2.761472 -1.193147 -10.943887
v -3.443499 0.223098 -10.943887
v -3.443499 1.795010 -10.943887
v -2.761472 3.211255 -10.943887
v -1.532501 4.191325 -10.943887
v 1.021462 -1.997072 -10.943887
v 1.206913 -1.193147 -10.943887
v 2.761472 -1.193147 -10.943887
v 3.443499 0.223098 -10.943887
v 3.443499 1.795010 -10.943887
v 2.761472 3.211255 -10.943887
v 1.532501 4.191325 -10.943887
v -0.000000 3.552793 3.828960
v -0.000000 -3.005743 3.828961
v -1.024642 -3.005743 3.828961
v -1.210670 -2.199315 3.828961
v -2.770069 -2.199315 3.828961
v -3.454220 -0.778662 3.828960
v -3.454220 0.798145 3.828960
v -2.770069 2.218798 3.828960
v -1.537272 3.201921 3.828960
v 1.024642 -3.005743 3.828961
v 1.210670 -2.199315 3.828961
v 2.770069 -2.199315 3.828961
v 3.454220 -0.778662 3.828960
v 3.454220 0.798145 3.828960
v 2.770069 2.218798 3.828960
v 1.537272 3.201921 3.828960
vn -0.0000 0.9813 0.1927
vn -0.0000 0.9820 0.1887
vn -0.0000 0.9942 -0.1080
vn -0.0000 0.9935 -0.1139
vn 0.9702 0.2238 0.0924
vn 0.9687 0.2235 0.1082
vn 0.9711 0.2240 -0.0823
vn 0.9717 0.2242 -0.0739
vn -0.0000 0.9882 0.1532
vn -0.0000 0.9897 0.1432
vn -0.0000 0.9981 -0.0622
vn -0.0000 0.9968 -0.0797
vn 0.8902 0.4287 -0.1544
vn 0.9609 0.2159 -0.1733
vn 0.9534 0.2244 0.2015
vn 0.8821 0.4248 0.2037
vn 0.9557 -0.2215 -0.1936
vn 0.9585 -0.2119 0.1909
vn 0.7625 -0.6114 -0.2117
vn 0.7723 -0.6089 0.1812
vn 0.4216 -0.8787 -0.2240
vn 0.4300 -0.8859 0.1743
vn -0.0000 -0.9736 -0.2284
vn -0.0000 -0.9851 0.1718
vn -0.9702 0.2238 0.0924
vn -0.9717 0.2242 -0.0739
vn -0.9711 0.2240 -0.0823
vn -0.9687 0.2235 0.1082
vn -0.8902 0.4287 -0.1544
vn -0.8821 0.4248 0.2037
vn -0.9534 0.2244 0.2015
vn -0.9609 0.2159 -0.1733
vn -0.9585 -0.2119 0.1909
vn -0.9557 -0.2215 -0.1936
vn -0.7723 -0.6089 0.1812
vn -0.7625 -0.6114 -0.2117
vn -0.4300 -0.8859 0.1743
vn -0.4216 -0.8787 -0.2240
vn -0.4023 -0.8380 -0.3687
vn -0.7270 -0.5825 -0.3635
vn 0.9148 0.2060 -0.3473
vn 0.9105 -0.2105 -0.3559
vn -0.0000 0.9785 -0.2062
vn -0.9105 -0.2105 -0.3559
vn -0.9148 0.2060 -0.3473
vn 0.4023 -0.8380 -0.3687
vn -0.0000 -0.9288 -0.3706
vn -0.0000 0.9588 -0.2840
vn 0.7270 -0.5825 -0.3635
vn 0.8488 0.4088 -0.3354
vn 0.9602 0.2215 -0.1699
vn -0.8488 0.4088 -0.3354
vn -0.9602 0.2215 -0.1699
vn -0.8414 0.4052 0.3576
vn -0.9063 0.2040 0.3702
vn -0.9581 0.2210 0.1824
vn 0.3980 -0.8292 0.3925
vn 0.7195 -0.5766 0.3871
vn -0.7195 -0.5766 0.3871
vn -0.3980 -0.8292 0.3925
vn 0.9015 -0.2086 0.3791
vn 0.9063 0.2040 0.3702
vn -0.0000 0.9753 0.2211
vn -0.9015 -0.2086 0.3791
vn -0.0000 -0.9189 0.3944
vn -0.0000 0.9528 0.3036
vn 0.8414 0.4052 0.3576
vn 0.9581 0.2210 0.1824
vt -0.258957 1.006753
vt -0.258957 1.237606
vt 2.987360 1.237606
vt 2.987360 1.006753
vt -0.258957 0.195233
vt -0.258957 0.013544
vt 2.987360 0.013544
vt 2.987360 0.195233
vt -0.258957 0.646012
vt -0.258957 0.997347
vt 2.987361 0.997347
vt 2.987360 0.646012
vt 2.245889 0.005138
vt 2.245889 0.241734
vt -0.153743 0.241734
vt -0.153743 0.005138
vt 2.245889 0.504334
vt -0.153743 0.504335
vt 2.245889 0.740930
vt -0.153743 0.740930
vt 2.245889 0.533535
vt 2.245889 0.738845
vt -0.153743 0.738845
vt -0.153743 0.533535
vt 2.245889 0.994861
vt -0.153743 0.994861
s 1
usemtl concrete_base
f 6/1/1 3/2/2 4/3/3 5/4/4
f 7/5/5 6/6/6 5/7/7 8/8/8
f 10/9/9 7/10/10 8/11/11 9/12/12
f 20/1/1 19/4/4 4/3/3 3/2/2
f 21/5/25 22/8/26 19/7/27 20/6/28
f 24/9/9 23/12/12 22/11/11 21/10/10
f 9/12/12 8/11/11 36/11/43 37/12/43
f 22/11/11 23/12/12 44/12/43 43/11/43
f 5/4/4 4/3/3 34/3/48 35/4/48
f 4/3/3 19/4/4 42/4/48 34/3/48
f 8/8/8 5/7/7 35/7/51 36/8/51
f 19/7/27 22/8/26 43/8/53 42/7/53
f 21/5/25 20/6/28 58/6/56 59/5/56
f 7/10/10 10/9/9 53/9/63 52/10/63
f 24/9/9 21/10/10 59/10/63 60/9/63
f 3/2/2 6/1/1 51/1/66 50/2/66
f 20/1/1 3/2/2 50/2/66 58/1/66
f 6/6/6 7/5/5 52/5/68 51/6/68
usemtl brick_modern_01
f 9/13/13 11/14/14 12/15/15 10/16/16
f 11/14/14 13/17/17 14/18/18 12/15/15
f 13/17/17 15/19/19 16/20/20 14/18/18
f 15/21/19 17/22/21 18/23/22 16/24/20
f 17/22/21 1/25/23 2/26/24 18/23/22
f 23/13/29 24/16/30 26/15/31 25/14/32
f 25/14/32 26/15/31 28/18/33 27/17/34
f 27/17/34 28/18/33 30/20/35 29/19/36
f 29/21/36 30/24/35 32/23/37 31/22/38
f 31/22/38 32/23/37 2/26/24 1/25/23
f 29/21/36 31/22/38 48/22/39 47/21/40
f 13/17/17 11/14/14 38/14/41 39/17/42
f 25/14/32 27/17/34 46/17/44 45/14/45
f 1/25/23 17/22/21 41/22/46 33/25/47
f 31/22/38 1/25/23 33/25/47 48/22/39
f 15/19/19 13/17/17 39/17/42 40/19/49
f 27/17/34 29/19/36 47/19/40 46/17/44
f 11/14/14 9/13/13 37/13/50 38/14/41
f 23/13/29 25/14/32 45/14/45 44/13/52
f 17/22/21 15/21/19 40/21/49 41/22/46
f 26/15/31 24/16/30 60/16/54 61/15/55
f 16/24/20 18/23/22 57/23/57 56/24/58
f 32/23/37 30/24/35 63/24/59 64/23/60
f 12/15/15 14/18/18 55/18/61 54/15/62
f 28/18/33 26/15/31 61/15/55 62/18/64
f 18/23/22 2/26/24 49/26/65 57/23/57
f 2/26/24 32/23/37 64/23/60 49/26/65
f 14/18/18 16/20/20 56/20/58 55/18/61
f 30/20/35 28/18/33 62/18/64 63/20/59
f 10/16/16 12/15/15 54/15/62 53/16/67
