# Blender 4.5.9 LTS
# www.blender.org
mtllib Serwers02_007.mtl
o Serwers02_007
v -0.000000 3.254395 2.751073
v -0.000000 3.254395 4.248926
v -1.862715 -2.636668 2.751073
v -1.862715 -2.636668 4.248927
v -2.455375 -2.122126 2.751073
v -2.455375 -2.122126 4.248927
v -3.215858 -0.456902 2.751073
v -3.215858 -0.456902 4.248927
v -2.955328 1.355122 2.751073
v -2.955328 1.355122 4.248927
v -1.756503 2.738640 2.751073
v -1.756503 2.738640 4.248927
v -0.999720 -2.636668 2.751074
v -0.999720 -2.636668 4.248926
v -0.999720 -2.880241 2.751074
v -0.999720 -2.880242 4.248926
v -0.000000 -2.880241 2.751074
v -0.000000 -2.880242 4.248926
v 1.862715 -2.636668 2.751073
v 1.862715 -2.636668 4.248927
v 2.455374 -2.122126 2.751073
v 2.455374 -2.122126 4.248927
v 3.215857 -0.456902 2.751073
v 3.215857 -0.456902 4.248927
v 2.955327 1.355122 2.751073
v 2.955327 1.355122 4.248927
v 1.756502 2.738640 2.751073
v 1.756502 2.738640 4.248927
v 0.999720 -2.636668 2.751074
v 0.999719 -2.636668 4.248926
v 0.999720 -2.880241 2.751074
v 0.999719 -2.880242 4.248926
v 0.569135 3.254394 -1.690361
v -1.230110 -2.636669 -2.172467
v -1.802575 -2.122126 -2.325859
v -2.537145 -0.456902 -2.522686
v -2.285493 1.355121 -2.455256
v -1.127516 2.738639 -2.144978
v -0.396520 -2.636669 -1.949107
v -0.396520 -2.880242 -1.949107
v 0.569135 -2.880242 -1.690361
v 2.368379 -2.636668 -1.208255
v 2.940844 -2.122126 -1.054864
v 3.675414 -0.456902 -0.858036
v 3.423761 1.355121 -0.925467
v 2.265785 2.738639 -1.235745
v 1.534790 -2.636668 -1.431614
v 1.534790 -2.880242 -1.431614
v 2.268404 3.254393 -5.833155
v 0.655246 -2.636669 -6.764512
v 0.141988 -2.122127 -7.060842
v -0.516610 -0.456903 -7.441083
v -0.290984 1.355120 -7.310818
v 0.747229 2.738638 -6.711406
v 1.402622 -2.636669 -6.333014
v 1.402622 -2.880242 -6.333014
v 2.268404 -2.880242 -5.833154
v 3.881562 -2.636669 -4.901797
v 4.394821 -2.122127 -4.605467
v 5.053418 -0.456903 -4.225226
v 4.827793 1.355120 -4.355491
v 3.789580 2.738638 -4.954904
v 3.134187 -2.636669 -5.333294
v 3.134187 -2.880242 -5.333294
v 4.982006 3.254392 -9.394981
v 3.664868 -2.636670 -10.712120
v 3.245794 -2.122128 -11.131194
v 2.708052 -0.456904 -11.668936
v 2.892274 1.355119 -11.484714
v 3.739972 2.738637 -10.637015
v 4.275097 -2.636670 -10.101890
v 4.275097 -2.880243 -10.101890
v 4.982006 -2.880243 -9.394980
v 6.299144 -2.636670 -8.077844
v 6.718218 -2.122127 -7.658770
v 7.255960 -0.456903 -7.121028
v 7.071738 1.355119 -7.305250
v 6.224041 2.738637 -8.152947
v 5.688914 -2.636670 -8.688073
v 5.688914 -2.880243 -8.688073
v 8.525013 3.254391 -12.133111
v 7.593655 -2.636670 -13.746269
v 7.297326 -2.122128 -14.259526
v 6.917085 -0.456905 -14.918124
v 7.047349 1.355118 -14.692499
v 7.646761 2.738636 -13.654284
v 8.025152 -2.636670 -12.998892
v 8.025152 -2.880243 -12.998892
v 8.525012 -2.880243 -12.133110
v 9.456369 -2.636670 -10.519953
v 9.752700 -2.122128 -10.006695
v 10.132941 -0.456904 -9.348098
v 10.002676 1.355119 -9.573723
v 9.403264 2.738637 -10.611936
v 9.024872 -2.636670 -11.267327
v 9.024872 -2.880243 -11.267327
v 12.655973 3.254390 -13.860943
v 12.173868 -2.636670 -15.660187
v 12.020476 -2.122128 -16.232651
v 11.823649 -0.456905 -16.967222
v 11.891080 1.355118 -16.715569
v 12.201358 2.738636 -15.557591
v 12.397227 -2.636670 -14.826595
v 12.397227 -2.880244 -14.826595
v 12.655972 -2.880243 -13.860943
v 13.138081 -2.636670 -12.061699
v 13.291472 -2.122128 -11.489233
v 13.488299 -0.456904 -10.754664
v 13.420868 1.355118 -11.006316
v 13.110590 2.738636 -12.164291
v 12.914720 -2.636670 -12.895288
v 12.914720 -2.880243 -12.895288
v 17.093372 3.254390 -14.460729
v 17.093372 -2.636670 -16.323441
v 17.093370 -2.122128 -16.916101
v 17.093372 -0.456905 -17.676586
v 17.093372 1.355117 -17.416058
v 17.093370 2.738635 -16.217230
v 17.093370 -2.636670 -15.460447
v 17.093370 -2.880244 -15.460447
v 17.093370 -2.880244 -14.460729
v 17.093372 -2.636670 -12.598014
v 17.093372 -2.122128 -12.005355
v 17.093372 -0.456905 -11.244873
v 17.093370 1.355118 -11.505403
v 17.093370 2.738636 -12.704226
v 17.093370 -2.636670 -13.461008
v 17.093370 -2.880243 -13.461008
v 18.593370 3.254390 -14.460729
v 18.593370 -2.636670 -16.323441
v 18.593369 -2.122128 -16.916101
v 18.593370 -0.456905 -17.676586
v 18.593370 1.355117 -17.416058
v 18.593369 2.738635 -16.217230
v 18.593369 -2.636670 -15.460447
v 18.593369 -2.880244 -15.460447
v 18.593369 -2.880244 -14.460729
v 18.593370 -2.636670 -12.598014
v 18.593370 -2.122128 -12.005355
v 18.593370 -0.456905 -11.244873
v 18.593369 1.355118 -11.505403
v 18.593369 2.738636 -12.704226
v 18.593369 -2.636670 -13.461008
v 18.593369 -2.880243 -13.461008
v -0.000000 3.506342 4.490442
v -1.978283 -2.750219 4.490443
v -2.607713 -2.203753 4.490443
v -3.415378 -0.435214 4.490443
v -3.138684 1.489232 4.490443
v -1.865481 2.958587 4.490443
v -1.061745 -2.750219 4.490443
v -1.061745 -3.008904 4.490443
v -0.000000 -3.008904 4.490443
v 1.978282 -2.750219 4.490443
v 2.607712 -2.203753 4.490443
v 3.415378 -0.435214 4.490443
v 3.138684 1.489232 4.490443
v 1.865480 2.958587 4.490443
v 1.061745 -2.750219 4.490443
v 1.061745 -3.008904 4.490443
v 18.896196 3.428033 -14.460729
v 18.896196 -2.714930 -16.403093
v 18.896194 -2.178386 -17.021093
v 18.896196 -0.441958 -17.814096
v 18.896196 1.447547 -17.542427
v 18.896194 2.890225 -16.292337
v 18.896194 -2.714930 -15.503196
v 18.896194 -2.968919 -15.503196
v 18.896194 -2.968919 -14.460729
v 18.896196 -2.714930 -12.518364
v 18.896196 -2.178385 -11.900362
v 18.896196 -0.441957 -11.107362
v 18.896194 1.447548 -11.379032
v 18.896194 2.890226 -12.629117
v 18.896194 -2.714930 -13.418260
v 18.896194 -2.968918 -13.418260
vn -0.0000 1.0000 -0.0000
vn 0.3075 0.9096 0.2793
vn 0.6767 0.7038 0.2162
vn 0.6551 0.7543 0.0433
vn 0.8028 0.5940 0.0513
vn 0.7565 0.5731 0.3151
vn 0.9881 0.1405 0.0626
vn 0.9248 0.1482 0.3504
vn 0.9100 -0.4105 0.0578
vn 0.8443 -0.3715 0.3862
vn 0.5482 -0.8356 0.0355
vn 0.4988 -0.7629 0.4114
vn 0.0114 -0.9999 0.0015
vn -0.0000 -0.9074 0.4204
vn 0.7193 0.6384 0.2738
vn -0.0000 0.9702 0.2423
vn 0.9980 -0.0000 0.0638
vn -0.6767 0.7038 0.2162
vn -0.3075 0.9096 0.2793
vn -0.6551 0.7544 -0.0404
vn -0.7565 0.5731 0.3151
vn -0.7967 0.6022 -0.0508
vn -0.9248 0.1482 0.3504
vn -0.9876 0.1437 -0.0634
vn -0.8443 -0.3715 0.3862
vn -0.9061 -0.4191 -0.0580
vn -0.4988 -0.7629 0.4114
vn -0.5322 -0.8460 -0.0336
vn -0.7193 0.6384 0.2738
vn -0.9980 -0.0000 -0.0636
vn 0.8831 -0.4068 0.2339
vn 0.5383 -0.8306 0.1424
vn -0.7681 0.6075 -0.2025
vn -0.6339 0.7551 -0.1673
vn 0.7801 0.5906 0.2065
vn 0.9573 0.1391 0.2536
vn -0.5063 -0.8519 -0.1336
vn -0.8755 -0.4245 -0.2307
vn 0.9668 -0.0000 0.2557
vn 0.0227 -0.9997 0.0060
vn -0.9567 0.1457 -0.2520
vn -0.9669 -0.0000 -0.2553
vn 0.6338 0.7551 0.1676
vn 0.5688 0.7551 0.3259
vn 0.7001 0.5906 0.4014
vn -0.6895 0.6075 -0.3944
vn -0.5690 0.7551 -0.3257
vn 0.8590 0.1391 0.4927
vn -0.8589 0.1457 -0.4910
vn 0.7925 -0.4068 0.4544
vn -0.7860 -0.4245 -0.4494
vn 0.4831 -0.8306 0.2769
vn -0.4545 -0.8519 -0.2601
vn 0.0204 -0.9997 0.0116
vn 0.8677 -0.0000 0.4972
vn -0.8679 -0.0000 -0.4968
vn 0.0167 -0.9997 0.0165
vn -0.3717 -0.8519 -0.3688
vn 0.7094 -0.0000 0.7048
vn -0.7097 -0.0000 -0.7045
vn 0.4651 0.7551 0.4621
vn 0.5723 0.5906 0.5689
vn -0.5640 0.6075 -0.5594
vn -0.4653 0.7551 -0.4619
vn 0.7022 0.1391 0.6982
vn -0.7025 0.1457 -0.6966
vn 0.6478 -0.4068 0.6441
vn -0.6429 -0.4245 -0.6375
vn 0.3950 -0.8306 0.3925
vn -0.4560 -0.4245 -0.7822
vn -0.4983 0.1457 -0.8547
vn 0.4591 -0.4068 0.7898
vn 0.2799 -0.8306 0.4813
vn -0.2635 -0.8519 -0.4525
vn 0.0118 -0.9997 0.0203
vn 0.5028 -0.0000 0.8644
vn -0.5032 -0.0000 -0.8642
vn 0.3296 0.7551 0.5667
vn 0.4056 0.5906 0.6977
vn -0.4000 0.6075 -0.6863
vn -0.3299 0.7551 -0.5665
vn 0.4976 0.1391 0.8562
vn 0.1717 0.7551 0.6327
vn 0.2112 0.5906 0.7789
vn -0.2087 0.6075 -0.7664
vn -0.1720 0.7551 -0.6326
vn 0.2591 0.1391 0.9558
vn -0.2601 0.1457 -0.9545
vn 0.2390 -0.4068 0.8817
vn -0.2380 -0.4245 -0.8736
vn 0.1458 -0.8306 0.5374
vn -0.1375 -0.8519 -0.5053
vn 0.0062 -0.9997 0.0226
vn 0.2620 -0.0000 0.9651
vn -0.2624 -0.0000 -0.9650
vn 0.0670 -0.0000 0.9978
vn -0.0672 -0.0000 -0.9977
vn 0.0454 0.7544 0.6548
vn 0.0537 0.5939 0.8027
vn -0.0541 0.6026 -0.7962
vn -0.0428 0.7545 -0.6549
vn 0.0655 0.1404 0.9879
vn -0.0676 0.1438 -0.9873
vn 0.0605 -0.4104 0.9099
vn -0.0618 -0.4194 -0.9057
vn 0.0372 -0.8354 0.5484
vn -0.0356 -0.8463 -0.5314
vn 0.0016 -0.9999 0.0120
vn 0.2414 -0.3949 -0.8865
vn 0.2136 0.1490 -0.9655
vn 0.2414 -0.3949 0.8865
vn 0.2621 -0.8090 0.5262
vn 0.2621 -0.8090 -0.5262
vn 0.2697 -0.9630 -0.0000
vn 0.1420 0.9899 -0.0000
vn 0.1559 0.6772 0.7191
vn 0.1559 0.6772 -0.7191
vn 0.1305 0.7108 0.6911
vn 0.1637 0.9303 0.3281
vn 0.1305 0.7108 -0.6911
vn 0.1637 0.9303 -0.3281
vn 0.1889 0.5912 0.7841
vn 0.1889 0.5912 -0.7841
vn 0.2136 0.1490 0.9655
vn -0.6611 -0.3190 0.6791
vn -0.3730 -0.5960 0.7111
vn -0.5783 0.6490 0.4943
vn -0.6847 0.5760 0.4466
vn 0.5783 0.6490 0.4943
vn -0.0000 0.8826 0.4702
vn -0.0000 -0.6920 0.7219
vn 0.3730 -0.5960 0.7111
vn -0.6585 0.4817 0.5782
vn -0.7717 0.0917 0.6293
vn 0.3331 0.7818 0.5270
vn 0.6847 0.5760 0.4466
vn 0.6611 -0.3190 0.6791
vn 0.7717 0.0917 0.6293
vn -0.3331 0.7818 0.5270
vn 0.6585 0.4817 0.5782
vn 0.4528 -0.3824 0.8054
vn 0.4858 -0.7394 0.4662
vn 0.4858 -0.7394 -0.4662
vn 0.4528 -0.3824 -0.8054
vn 0.4974 -0.8675 -0.0000
vn 0.2810 0.9597 -0.0000
vn 0.2968 0.7008 0.6487
vn 0.2968 0.7008 -0.6487
vn 0.2684 0.6507 0.7103
vn 0.3207 0.8771 0.3576
vn 0.2684 0.6507 -0.7103
vn 0.3207 0.8771 -0.3576
vn 0.3628 0.5529 0.7501
vn 0.3628 0.5529 -0.7501
vn 0.4060 0.1149 0.9066
vn 0.4060 0.1149 -0.9066
vt 2.306316 0.680855
vt 2.306315 0.990118
vt 3.027601 0.990118
vt 3.027601 0.680855
vt 1.629344 0.602839
vt 1.629344 0.842623
vt 2.080334 0.842623
vt 2.080334 0.602839
vt 1.629344 1.483310
vt 1.629344 0.809576
vt 2.080334 0.809576
vt 2.080334 1.483310
vt 1.629344 0.809576
vt 1.629344 0.076448
vt 2.080334 0.076448
vt 2.080334 0.809576
vt 1.629344 0.076448
vt 1.629344 -0.483311
vt 2.080334 -0.483311
vt 2.080334 0.076448
vt 1.629344 0.559866
vt 1.629344 -0.150799
vt 2.080334 -0.150799
vt 2.080334 0.559866
vt 1.884586 0.500000
vt 1.884586 0.991538
vt 2.437469 0.991538
vt 2.437469 0.500000
vt 2.306316 0.791843
vt 3.027601 0.791843
vt 3.027601 0.879130
vt 2.306316 0.879130
vt 3.027601 0.990118
vt 1.629344 0.602839
vt 2.080334 0.842623
vt 1.629344 0.842623
vt 1.629345 1.483310
vt 2.080334 1.483310
vt 1.629344 0.809576
vt 1.629344 0.809576
vt 2.080334 0.809576
vt 1.629344 0.076448
vt 1.629344 0.076448
vt 2.080334 0.076448
vt 2.080334 -0.483311
vt 1.629344 -0.483311
vt 1.629345 0.559866
vt 2.080334 0.559866
vt 2.080334 -0.150799
vt 1.629344 -0.150799
vt 1.884586 0.500000
vt 2.437469 0.500000
vt 2.437469 0.008462
vt 1.884586 0.008462
vt 2.306316 0.791843
vt 2.306316 0.879130
vt 3.027601 0.879130
vt 3.027601 0.791843
vt 5.764363 0.997052
vt 5.764363 0.501683
vt 4.051680 0.501683
vt 4.051680 0.997052
vt 3.889162 1.463809
vt 3.889161 2.102083
vt 2.727956 2.102083
vt 2.727956 1.463809
vt 3.889162 -2.001211
vt 3.889162 -1.727564
vt 2.727956 -1.727564
vt 2.727956 -2.001211
vt 5.764363 0.006313
vt 4.051680 0.006313
vt 3.889162 2.740358
vt 3.889162 3.378633
vt 2.727956 3.378634
vt 2.727956 2.740358
vt 3.889162 -0.451015
vt 3.889162 0.187259
vt 2.727956 0.187259
vt 2.727956 -0.451015
vt -3.401030 0.729596
vt -3.401030 0.651793
vt -2.197172 0.651793
vt -2.197172 0.729596
vt 3.889162 0.825534
vt 2.727956 0.825535
vt 3.889162 -1.089290
vt 2.727956 -1.089290
vt -3.401030 1.005255
vt -2.197172 1.005255
vt -4.006498 0.645664
vt -4.006498 0.723466
vt -2.659571 0.723466
vt -2.659571 0.645664
vt -4.006498 0.999125
vt -2.659571 0.999125
vt 3.889162 3.652280
vt 2.727956 3.652280
vt -1.312645 0.999125
vt -1.312645 0.723466
vt 1.566751 3.652280
vt 1.566751 3.378634
vt 1.566751 -1.727564
vt 1.566751 -2.001211
vt 1.566751 2.740358
vt 1.566751 -1.089290
vt 1.566751 2.102083
vt 1.566751 -0.451015
vt 1.566751 1.463809
vt 1.566751 0.187260
vt 1.566751 0.825535
vt 2.338998 0.501683
vt 2.338998 0.997052
vt 2.338998 0.006313
vt -0.993313 0.651793
vt -0.993313 0.729596
vt -0.993313 1.005255
vt -1.312645 0.645664
vt 0.405546 0.825535
vt 0.405546 0.187260
vt 0.626315 0.501683
vt 0.626315 0.997053
vt 0.626315 0.006313
vt 0.210545 0.651793
vt 0.210545 0.729596
vt 0.210545 1.005255
vt 0.034282 0.723466
vt 0.034282 0.645664
vt 0.034282 0.999125
vt 0.405546 3.652280
vt 0.405546 3.378634
vt 0.405546 -1.727564
vt 0.405546 -2.001211
vt 0.405546 2.740358
vt 0.405546 -1.089290
vt 0.405546 2.102084
vt 0.405546 -0.451015
vt 0.405546 1.463809
vt -0.755660 -0.451015
vt -0.755660 -1.089290
vt -0.755660 2.102084
vt -0.755660 1.463809
vt -0.755660 0.187260
vt -0.755660 0.825535
vt -1.086368 0.501683
vt -1.086368 0.997053
vt -1.086368 0.006313
vt 1.414404 0.651793
vt 1.414404 0.729596
vt 1.414404 1.005255
vt 1.381208 0.723466
vt 1.381208 0.645663
vt 1.381208 0.999125
vt -0.755660 3.652280
vt -0.755660 3.378634
vt -0.755660 -1.727564
vt -0.755660 -2.001211
vt -0.755660 2.740358
vt -1.916865 3.652281
vt -1.916865 3.378634
vt -1.916865 -1.727564
vt -1.916865 -2.001211
vt -1.916865 2.740358
vt -1.916865 -1.089289
vt -1.916865 2.102084
vt -1.916865 -0.451015
vt -1.916865 1.463809
vt -1.916865 0.187260
vt -1.916865 0.825535
vt -2.799050 0.501683
vt -2.799050 0.997053
vt -2.799050 0.006313
vt 2.618262 0.651793
vt 2.618262 0.729595
vt 2.618262 1.005254
vt 2.728134 0.723466
vt 2.728134 0.645664
vt 2.728134 0.999124
vt -4.511733 0.501683
vt -4.511733 0.997053
vt -4.511732 0.006313
vt 3.822120 0.651793
vt 3.822120 0.729595
vt 3.822120 1.005254
vt 4.075060 0.723466
vt 4.075061 0.645663
vt 4.075060 0.999124
vt -3.078071 3.652281
vt -3.078071 3.378634
vt -3.078071 -1.727564
vt -3.078071 -2.001211
vt -3.078071 2.740358
vt -3.078071 -1.089289
vt -3.078071 2.102084
vt -3.078071 -0.451015
vt -3.078071 1.463809
vt -3.078071 0.187260
vt -3.078071 0.825535
vt -3.467063 -0.451015
vt -3.467063 -1.089289
vt -3.467063 2.102084
vt -3.467063 1.463809
vt -3.467063 0.187260
vt -3.467063 0.825535
vt -5.085462 0.501683
vt -5.085462 0.997053
vt -5.085462 0.006313
vt 4.225399 0.651793
vt 4.225400 0.729595
vt 4.225400 1.005254
vt 4.526266 0.723466
vt 4.526266 0.645663
vt 4.526266 0.999125
vt -3.467063 3.652281
vt -3.467063 3.378634
vt -3.467063 -1.727564
vt -3.467063 -2.001211
vt -3.467063 2.740358
s 1
usemtl concrete_base_03
f 3/5/4 5/6/5 6/7/6 4/8/2
f 5/9/5 7/10/7 8/11/8 6/12/6
f 7/13/7 9/14/9 10/15/10 8/16/8
f 9/17/9 11/18/11 12/19/12 10/20/10
f 11/21/11 1/22/13 2/23/14 12/24/12
f 19/34/20 20/8/19 22/35/21 21/36/22
f 21/37/22 22/38/21 24/11/23 23/39/24
f 23/40/24 24/41/23 26/15/25 25/42/26
f 25/43/26 26/44/25 28/45/27 27/46/28
f 27/47/28 28/48/27 2/49/14 1/50/13
f 11/63/11 9/64/9 37/65/31 38/66/32
f 19/67/20 21/68/22 43/69/33 42/70/34
f 7/73/7 5/74/5 35/75/35 36/76/36
f 25/77/26 27/78/28 46/79/37 45/80/38
f 1/85/13 11/63/11 38/66/32 33/86/40
f 21/68/22 23/87/24 44/88/41 43/69/33
f 9/64/9 7/73/7 36/76/36 37/65/31
f 27/78/28 1/85/13 33/86/40 46/79/37
f 5/74/5 3/97/4 34/98/43 35/75/35
f 23/87/24 25/77/26 45/80/38 44/88/41
f 35/75/35 34/98/43 50/101/44 51/102/45
f 42/70/34 43/69/33 59/103/46 58/104/47
f 36/76/36 35/75/35 51/102/45 52/105/48
f 43/69/33 44/88/41 60/106/49 59/103/46
f 37/65/31 36/76/36 52/105/48 53/107/50
f 44/88/41 45/80/38 61/108/51 60/106/49
f 38/66/32 37/65/31 53/107/50 54/109/52
f 45/80/38 46/79/37 62/110/53 61/108/51
f 33/86/40 38/66/32 54/109/52 49/111/54
f 46/79/37 33/86/40 49/111/54 62/110/53
f 62/110/53 49/111/54 65/119/57 78/120/58
f 51/102/45 50/101/44 66/130/61 67/131/62
f 58/104/47 59/103/46 75/132/63 74/133/64
f 52/105/48 51/102/45 67/131/62 68/134/65
f 59/103/46 60/106/49 76/135/66 75/132/63
f 53/107/50 52/105/48 68/134/65 69/136/67
f 60/106/49 61/108/51 77/137/68 76/135/66
f 54/109/52 53/107/50 69/136/67 70/138/69
f 61/108/51 62/110/53 78/120/58 77/137/68
f 49/111/54 54/109/52 70/138/69 65/119/57
f 76/135/66 77/137/68 93/139/70 92/140/71
f 70/138/69 69/136/67 85/141/72 86/142/73
f 77/137/68 78/120/58 94/143/74 93/139/70
f 65/119/57 70/138/69 86/142/73 81/144/75
f 78/120/58 65/119/57 81/144/75 94/143/74
f 67/131/62 66/130/61 82/154/78 83/155/79
f 74/133/64 75/132/63 91/156/80 90/157/81
f 68/134/65 67/131/62 83/155/79 84/158/82
f 75/132/63 76/135/66 92/140/71 91/156/80
f 69/136/67 68/134/65 84/158/82 85/141/72
f 83/155/79 82/154/78 98/159/83 99/160/84
f 90/157/81 91/156/80 107/161/85 106/162/86
f 84/158/82 83/155/79 99/160/84 100/163/87
f 91/156/80 92/140/71 108/164/88 107/161/85
f 85/141/72 84/158/82 100/163/87 101/165/89
f 92/140/71 93/139/70 109/166/90 108/164/88
f 86/142/73 85/141/72 101/165/89 102/167/91
f 93/139/70 94/143/74 110/168/92 109/166/90
f 81/144/75 86/142/73 102/167/91 97/169/93
f 94/143/74 81/144/75 97/169/93 110/168/92
f 99/160/84 98/159/83 114/188/98 115/189/99
f 106/162/86 107/161/85 123/190/100 122/191/101
f 100/163/87 99/160/84 115/189/99 116/192/102
f 107/161/85 108/164/88 124/193/103 123/190/100
f 101/165/89 100/163/87 116/192/102 117/194/104
f 108/164/88 109/166/90 125/195/105 124/193/103
f 102/167/91 101/165/89 117/194/104 118/196/106
f 109/166/90 110/168/92 126/197/107 125/195/105
f 97/169/93 102/167/91 118/196/106 113/198/108
f 110/168/92 97/169/93 113/198/108 126/197/107
f 124/193/103 125/195/105 141/199/109 140/200/110
f 118/196/106 117/194/104 133/201/111 134/202/112
f 125/195/105 126/197/107 142/203/113 141/199/109
f 113/198/108 118/196/106 134/202/112 129/204/114
f 126/197/107 113/198/108 129/204/114 142/203/113
f 115/189/99 114/188/98 130/214/119 131/215/122
f 122/191/101 123/190/100 139/216/123 138/217/121
f 116/192/102 115/189/99 131/215/122 132/218/124
f 123/190/100 124/193/103 140/200/110 139/216/123
f 117/194/104 116/192/102 132/218/124 133/201/111
f 28/45/27 26/44/25 157/44/125 158/45/126
f 12/24/12 2/23/14 145/23/131 150/24/132
f 24/11/23 22/38/21 155/38/133 156/11/134
f 8/16/8 10/15/10 149/15/137 148/16/138
f 2/49/14 28/48/27 158/48/126 145/49/131
f 4/8/2 6/7/6 147/7/140 146/8/135
f 26/15/25 24/41/23 156/41/134 157/15/125
f 10/20/10 12/19/12 150/19/132 149/20/137
f 22/35/21 20/8/19 154/8/139 155/35/133
f 6/12/6 8/11/8 148/11/138 147/12/140
f 134/202/112 133/201/111 165/201/141 166/202/142
f 141/199/109 142/203/113 174/203/143 173/199/144
f 129/204/114 134/202/112 166/202/142 161/204/145
f 142/203/113 129/204/114 161/204/145 174/203/143
f 131/215/122 130/214/119 162/214/150 163/215/153
f 138/217/121 139/216/123 171/216/154 170/217/152
f 132/218/124 131/215/122 163/215/153 164/218/155
f 139/216/123 140/200/110 172/200/156 171/216/154
f 133/201/111 132/218/124 164/218/155 165/201/141
f 140/200/110 141/199/109 173/199/144 172/200/156
usemtl soil_mud
f 17/25/1 15/26/1 16/27/15 18/28/16
f 17/51/1 18/52/16 32/53/29 31/54/1
f 15/59/1 17/60/1 41/61/1 40/62/1
f 17/60/1 31/71/1 48/72/1 41/61/1
f 40/62/1 41/61/1 57/112/1 56/113/1
f 41/61/1 48/72/1 64/114/1 57/112/1
f 56/113/1 57/112/1 73/121/1 72/122/1
f 57/112/1 64/114/1 80/123/1 73/121/1
f 72/122/1 73/121/1 89/145/1 88/146/1
f 73/121/1 80/123/1 96/147/1 89/145/1
f 88/146/1 89/145/1 105/170/1 104/171/1
f 89/145/1 96/147/1 112/172/1 105/170/1
f 104/171/1 105/170/1 121/179/1 120/180/1
f 105/170/1 112/172/1 128/181/1 121/179/1
f 120/180/1 121/179/1 137/205/115 136/206/116
f 121/179/1 128/181/1 144/207/117 137/205/115
f 18/28/16 16/27/15 152/27/129 153/28/130
f 32/53/29 18/52/16 153/52/130 160/53/127
f 136/206/116 137/205/115 169/205/146 168/206/147
f 137/205/115 144/207/117 176/207/148 169/205/146
usemtl concrete_base_02
f 13/1/1 3/2/1 4/3/2 14/4/3
f 13/29/17 14/30/3 16/31/15 15/32/17
f 29/1/1 30/4/18 20/33/19 19/2/1
f 29/55/30 31/56/30 32/57/29 30/58/18
f 13/81/17 15/82/17 40/83/39 39/84/39
f 3/89/1 13/81/1 39/84/1 34/90/1
f 31/91/30 29/92/30 47/93/42 48/94/42
f 29/92/1 19/95/1 42/96/1 47/93/1
f 47/93/1 42/96/1 58/99/1 63/100/1
f 39/84/39 40/83/39 56/115/55 55/116/55
f 34/90/1 39/84/1 55/116/1 50/117/1
f 48/94/42 47/93/42 63/100/56 64/118/56
f 55/116/55 56/115/55 72/124/59 71/125/59
f 50/117/1 55/116/1 71/125/1 66/126/1
f 64/118/56 63/100/56 79/127/60 80/128/60
f 63/100/1 58/99/1 74/129/1 79/127/1
f 71/125/59 72/124/59 88/148/76 87/149/76
f 66/126/1 71/125/1 87/149/1 82/150/1
f 80/128/60 79/127/60 95/151/77 96/152/77
f 79/127/1 74/129/1 90/153/1 95/151/1
f 87/149/76 88/148/76 104/173/94 103/174/94
f 82/150/1 87/149/1 103/174/1 98/175/1
f 96/152/77 95/151/77 111/176/95 112/177/95
f 95/151/1 90/153/1 106/178/1 111/176/1
f 103/174/94 104/173/94 120/182/96 119/183/96
f 98/175/1 103/174/1 119/183/1 114/184/1
f 112/177/95 111/176/95 127/185/97 128/186/97
f 111/176/1 106/178/1 122/187/1 127/185/1
f 119/183/96 120/182/96 136/208/116 135/209/118
f 114/184/1 119/183/1 135/209/118 130/210/119
f 128/186/97 127/185/97 143/211/120 144/212/117
f 127/185/1 122/187/1 138/213/121 143/211/120
f 30/58/18 32/57/29 160/57/127 159/58/128
f 14/4/3 4/3/2 146/3/135 151/4/136
f 20/33/19 30/4/18 159/4/128 154/33/139
f 16/31/15 14/30/3 151/30/136 152/31/129
f 135/209/118 136/208/116 168/208/147 167/209/149
f 130/210/119 135/209/118 167/209/149 162/210/150
f 144/212/117 143/211/120 175/211/151 176/212/148
f 143/211/120 138/213/121 170/213/152 175/211/151
