# Blender 4.5.9 LTS
# www.blender.org
mtllib Serwers_009.mtl
o Serwers_009
v 0.000000 3.386930 -3.386931
v 0.000000 3.386931 3.386930
v 0.000000 -2.882610 3.386931
v 0.000000 -2.882610 -3.386930
v -0.979492 -2.882610 -3.386930
v -0.979492 -2.882610 3.386931
v -1.157323 -2.111717 3.386931
v -1.157323 -2.111717 -3.386930
v -2.648009 -2.111717 -3.386930
v -2.648009 -2.111717 3.386931
v -3.302013 -0.753663 -3.386930
v -3.302013 -0.753663 3.386930
v -3.302013 0.753663 -3.386930
v -3.302013 0.753663 3.386930
v -2.648009 2.111717 -3.386931
v -2.648009 2.111717 3.386930
v -1.469534 3.051519 -3.386931
v -1.469534 3.051519 3.386930
v 0.000000 3.541883 -3.673270
v 0.000000 -3.037563 -3.673269
v -0.946299 -3.037563 -3.673269
v -1.132920 -2.228564 -3.673269
v -2.697291 -2.228564 -3.673269
v -3.383622 -0.803381 -3.673269
v -3.383622 0.778452 -3.673269
v -2.697291 2.203635 -3.673270
v -1.460564 3.189892 -3.673270
v 0.000000 3.519554 3.699300
v 0.000000 -3.015234 3.699300
v -0.951082 -3.015234 3.699300
v -1.136437 -2.211726 3.699300
v -2.690189 -2.211726 3.699300
v -3.371863 -0.796216 3.699300
v -3.371863 0.774881 3.699300
v -2.690189 2.190390 3.699300
v -1.461856 3.169953 3.699300
v 0.979492 -2.882610 -3.386930
v 0.979492 -2.882610 3.386931
v 1.157323 -2.111717 3.386931
v 1.157323 -2.111717 -3.386930
v 2.648009 -2.111717 -3.386930
v 2.648009 -2.111717 3.386931
v 3.302013 -0.753663 -3.386930
v 3.302013 -0.753663 3.386930
v 3.302013 0.753663 -3.386930
v 3.302013 0.753663 3.386930
v 2.648009 2.111717 -3.386931
v 2.648009 2.111717 3.386930
v 1.469534 3.051519 -3.386931
v 1.469534 3.051519 3.386930
v 0.946299 -3.037563 -3.673269
v 1.132920 -2.228564 -3.673269
v 2.697291 -2.228564 -3.673269
v 3.383622 -0.803381 -3.673269
v 3.383622 0.778452 -3.673269
v 2.697291 2.203635 -3.673270
v 1.460564 3.189892 -3.673270
v 0.951082 -3.015234 3.699300
v 1.136437 -2.211726 3.699300
v 2.690189 -2.211726 3.699300
v 3.371863 -0.796216 3.699300
v 3.371863 0.774881 3.699300
v 2.690189 2.190390 3.699300
v 1.461856 3.169953 3.699300
vn -0.0000 0.9810 0.1940
vn -0.0000 0.9799 0.1994
vn -0.0000 0.9694 -0.2455
vn -0.0000 0.9714 -0.2373
vn 0.9744 0.2248 0.0030
vn 0.9744 0.2248 0.0038
vn 0.9744 0.2248 -0.0049
vn 0.9744 0.2248 -0.0037
vn -0.0000 0.9871 0.1603
vn -0.0000 0.9875 0.1574
vn -0.0000 0.9804 -0.1972
vn -0.0000 0.9794 -0.2017
vn 0.8875 0.4274 -0.1723
vn 0.9647 0.2125 -0.1553
vn 0.9688 0.2150 0.1230
vn 0.8927 0.4299 0.1354
vn 0.9647 -0.2186 -0.1469
vn 0.9686 -0.2199 0.1161
vn 0.7776 -0.6072 -0.1631
vn 0.7802 -0.6119 0.1295
vn 0.4407 -0.8737 -0.2059
vn 0.4410 -0.8821 0.1653
vn -0.0000 -0.9705 -0.2411
vn -0.0000 -0.9810 0.1940
vn 0.9744 0.2248 -0.0087
vn 0.8550 0.4118 -0.3152
vn 0.9262 0.2245 -0.3030
vn 0.7301 -0.6040 -0.3196
vn 0.3766 -0.8322 -0.4070
vn -0.0000 0.9259 -0.3778
vn 0.9340 -0.2158 -0.2849
vn -0.0000 -0.8914 -0.4533
vn -0.0000 0.8795 -0.4759
vn 0.9490 -0.2188 0.2271
vn 0.9436 0.2262 0.2418
vn -0.0000 -0.9288 0.3706
vn 0.3928 -0.8587 0.3292
vn -0.0000 0.9205 0.3908
vn 0.7470 -0.6138 0.2555
vn 0.9744 0.2248 0.0068
vn 0.8719 0.4199 0.2522
vn -0.0000 0.9524 0.3049
vn -0.9744 0.2248 0.0030
vn -0.9744 0.2248 -0.0037
vn -0.9744 0.2248 -0.0049
vn -0.9744 0.2248 0.0038
vn -0.8875 0.4274 -0.1723
vn -0.8927 0.4299 0.1354
vn -0.9688 0.2150 0.1230
vn -0.9647 0.2125 -0.1553
vn -0.9686 -0.2199 0.1161
vn -0.9647 -0.2186 -0.1469
vn -0.7802 -0.6119 0.1295
vn -0.7776 -0.6072 -0.1631
vn -0.4410 -0.8821 0.1653
vn -0.4407 -0.8737 -0.2059
vn -0.9744 0.2248 -0.0087
vn -0.9262 0.2245 -0.3030
vn -0.8550 0.4118 -0.3152
vn -0.3766 -0.8322 -0.4070
vn -0.7301 -0.6040 -0.3196
vn -0.9340 -0.2158 -0.2849
vn -0.9436 0.2262 0.2418
vn -0.9490 -0.2188 0.2271
vn -0.3928 -0.8587 0.3292
vn -0.7470 -0.6138 0.2555
vn -0.9744 0.2248 0.0068
vn -0.8719 0.4199 0.2522
vt -0.258957 1.006753
vt -0.258957 1.237606
vt 1.337553 1.237606
vt 1.337553 1.006753
vt -0.258957 0.195233
vt -0.258957 0.013544
vt 1.337553 0.013544
vt 1.337553 0.195233
vt -0.258957 0.646012
vt -0.258957 0.997347
vt 1.337553 0.997347
vt 1.337553 0.646012
vt 1.026375 0.005138
vt 1.026375 0.241734
vt -0.153743 0.241734
vt -0.153743 0.005138
vt 1.026375 0.504334
vt -0.153743 0.504335
vt 1.026375 0.740930
vt -0.153743 0.740930
vt 1.026375 0.533535
vt 1.026375 0.738845
vt -0.153743 0.738845
vt -0.153743 0.533535
vt 1.026375 0.994861
vt -0.153743 0.994861
s 1
usemtl concrete_base
f 6/1/1 3/2/2 4/3/3 5/4/4
f 7/5/5 6/6/6 5/7/7 8/8/8
f 10/9/9 7/10/10 8/11/11 9/12/12
f 8/8/8 5/7/7 21/7/25 22/8/25
f 9/12/12 8/11/11 22/11/30 23/12/30
f 5/4/4 4/3/3 20/3/33 21/4/33
f 3/2/2 6/1/1 30/1/38 29/2/38
f 6/6/6 7/5/5 31/5/40 30/6/40
f 7/10/10 10/9/9 32/9/42 31/10/42
f 38/1/1 37/4/4 4/3/3 3/2/2
f 39/5/43 40/8/44 37/7/45 38/6/46
f 42/9/9 41/12/12 40/11/11 39/10/10
f 40/8/44 52/8/57 51/7/57 37/7/45
f 41/12/12 53/12/30 52/11/30 40/11/11
f 37/4/4 51/4/33 20/3/33 4/3/3
f 3/2/2 29/2/38 58/1/38 38/1/1
f 38/6/46 58/6/67 59/5/67 39/5/43
f 39/10/10 59/10/42 60/9/42 42/9/9
usemtl brick_modern_01
f 9/13/13 11/14/14 12/15/15 10/16/16
f 11/14/14 13/17/17 14/18/18 12/15/15
f 13/17/17 15/19/19 16/20/20 14/18/18
f 15/21/19 17/22/21 18/23/22 16/24/20
f 17/22/21 1/25/23 2/26/24 18/23/22
f 11/14/14 9/13/13 23/13/26 24/14/27
f 17/22/21 15/21/19 26/21/28 27/22/29
f 13/17/17 11/14/14 24/14/27 25/17/31
f 1/25/23 17/22/21 27/22/29 19/25/32
f 15/19/19 13/17/17 25/17/31 26/19/28
f 12/15/15 14/18/18 34/18/34 33/15/35
f 18/23/22 2/26/24 28/26/36 36/23/37
f 14/18/18 16/20/20 35/20/39 34/18/34
f 10/16/16 12/15/15 33/15/35 32/16/41
f 16/24/20 18/23/22 36/23/37 35/24/39
f 41/13/47 42/16/48 44/15/49 43/14/50
f 43/14/50 44/15/49 46/18/51 45/17/52
f 45/17/52 46/18/51 48/20/53 47/19/54
f 47/21/54 48/24/53 50/23/55 49/22/56
f 49/22/56 50/23/55 2/26/24 1/25/23
f 43/14/50 54/14/58 53/13/59 41/13/47
f 49/22/56 57/22/60 56/21/61 47/21/54
f 45/17/52 55/17/62 54/14/58 43/14/50
f 1/25/23 19/25/32 57/22/60 49/22/56
f 47/19/54 56/19/61 55/17/62 45/17/52
f 44/15/49 61/15/63 62/18/64 46/18/51
f 50/23/55 64/23/65 28/26/36 2/26/24
f 46/18/51 62/18/64 63/20/66 48/20/53
f 42/16/48 60/16/68 61/15/63 44/15/49
f 48/24/53 63/24/66 64/23/65 50/23/55
