# Blender 4.5.9 LTS
# www.blender.org
mtllib Serwers01.mtl
o Serwers01
v 2.185819 -2.592871 6.967961
v 3.869732 -2.592871 6.967961
v 2.185819 -2.592871 -5.032039
v 3.869732 -2.592871 -5.032039
v 3.929238 -2.218607 6.967961
v 3.929238 -2.218607 -5.032039
v 4.157310 -2.218607 6.967961
v 4.157310 -2.218607 -5.032039
v 4.157310 -1.971425 6.967961
v 4.157310 -1.971425 -5.032039
v 4.239367 -1.971425 6.967961
v 4.239367 -1.971425 -5.032039
v 1.851278 -2.709237 6.967961
v 1.851278 -2.607677 -5.032039
v 1.284496 -2.874956 6.967961
v 1.284496 -2.617465 -5.032039
v 0.000007 -2.874956 6.967961
v 0.000007 -2.617465 -5.032039
v 4.511399 -1.079243 6.967961
v 4.511399 -1.079243 -5.032039
v 4.482764 0.176203 6.967961
v 4.482764 0.176203 -5.032039
v 4.210732 1.149794 6.967961
v 4.210732 1.149794 -5.032039
v 3.611242 2.100652 6.967961
v 3.611242 2.100652 -5.032039
v 2.565417 2.875670 6.968421
v 2.565417 2.875670 -5.031579
v 1.422460 3.313997 6.968421
v 1.422460 3.313997 -5.031579
v 0.359156 3.395195 6.968421
v 0.359156 3.395195 -5.031579
v 0.000007 3.410443 6.955658
v 0.000007 3.410443 -5.044342
v -2.185806 -2.592871 6.967961
v -3.869719 -2.592871 6.967961
v -2.185806 -2.592871 -5.032039
v -3.869719 -2.592871 -5.032039
v -3.929225 -2.218607 6.967961
v -3.929225 -2.218607 -5.032039
v -4.157296 -2.218607 6.967961
v -4.157296 -2.218607 -5.032039
v -4.157296 -1.971425 6.967961
v -4.157296 -1.971425 -5.032039
v -4.239353 -1.971425 6.967961
v -4.239353 -1.971425 -5.032039
v -1.851265 -2.709237 6.967961
v -1.851265 -2.607677 -5.032039
v -1.284483 -2.874956 6.967961
v -1.284483 -2.617465 -5.032039
v -4.511386 -1.079243 6.967961
v -4.511386 -1.079243 -5.032039
v -4.482751 0.176203 6.967961
v -4.482751 0.176203 -5.032039
v -4.210718 1.149794 6.967961
v -4.210718 1.149794 -5.032039
v -3.611229 2.100652 6.967961
v -3.611229 2.100652 -5.032039
v -2.565404 2.875670 6.968421
v -2.565404 2.875670 -5.031579
v -1.422446 3.313997 6.968421
v -1.422446 3.313997 -5.031579
v -0.359142 3.395195 6.968421
v -0.359142 3.395195 -5.031579
v 4.157310 -2.218668 -5.266306
v 3.929238 -2.218668 -5.266306
v 4.157310 -1.971486 -5.266306
v 4.239367 -1.971486 -5.266306
v 4.511399 -1.079304 -5.266306
v 4.482764 0.176142 -5.266306
v 4.210732 1.149733 -5.266305
v 3.611242 2.100591 -5.266305
v 2.565417 2.875609 -5.265845
v 1.422460 3.313936 -5.265845
v 0.359156 3.395134 -5.265845
v 0.000007 3.410382 -5.278609
v -4.157296 -2.218668 -5.266306
v -3.929225 -2.218668 -5.266306
v -4.157296 -1.971486 -5.266306
v -4.239353 -1.971486 -5.266306
v -4.511386 -1.079304 -5.266306
v -4.482751 0.176142 -5.266306
v -4.210718 1.149733 -5.266305
v -3.611229 2.100591 -5.266305
v -2.565404 2.875609 -5.265845
v -1.422446 3.313936 -5.265845
v -0.359142 3.395134 -5.265845
v 4.239367 -1.971534 -5.425398
v 4.157310 -1.971534 -5.425398
v 4.511399 -1.079352 -5.425398
v 4.482764 0.176093 -5.425398
v 4.210732 1.149684 -5.425398
v 3.611242 2.100543 -5.425397
v 2.565417 2.875561 -5.424937
v 1.422460 3.313888 -5.424937
v 0.359156 3.395086 -5.424937
v 0.000007 3.410334 -5.437701
v -4.239353 -1.971534 -5.425398
v -4.157296 -1.971534 -5.425398
v -4.511386 -1.079352 -5.425398
v -4.482751 0.176093 -5.425398
v -4.210718 1.149684 -5.425398
v -3.611229 2.100543 -5.425397
v -2.565404 2.875561 -5.424937
v -1.422446 3.313888 -5.424937
v -0.359142 3.395086 -5.424937
v 2.185819 -2.592871 -3.494480
v 3.869732 -2.592871 -3.494480
v 3.929238 -2.218607 -3.494480
v 4.157310 -2.218607 -3.494480
v 4.157310 -1.971425 -3.494480
v 4.239367 -1.971425 -3.494480
v 1.851278 -2.709237 -3.494480
v 1.284496 -2.874956 -3.494480
v 0.000007 -2.874956 -3.494480
v 4.511399 -1.079243 -3.494480
v 4.482764 0.176203 -3.494480
v 4.210732 1.149794 -3.494480
v 3.611242 2.100652 -3.494480
v 2.565417 2.875670 -3.494020
v 1.422460 3.313997 -3.494020
v 0.359156 3.395195 -3.494020
v 0.000007 3.410443 -3.506783
v -2.185806 -2.592871 -3.494480
v -3.869719 -2.592871 -3.494480
v -3.929225 -2.218607 -3.494480
v -4.157296 -2.218607 -3.494480
v -4.157296 -1.971425 -3.494480
v -4.239353 -1.971425 -3.494480
v -1.851265 -2.709237 -3.494480
v -1.284483 -2.874956 -3.494480
v -4.511386 -1.079243 -3.494480
v -4.482751 0.176203 -3.494480
v -4.210718 1.149794 -3.494480
v -3.611229 2.100652 -3.494480
v -2.565404 2.875670 -3.494020
v -1.422446 3.313997 -3.494020
v -0.359142 3.395195 -3.494020
v 3.869732 -2.592871 -3.778884
v 3.929238 -2.218607 -3.778884
v 4.157310 -2.218607 -3.778884
v 4.157310 -1.971425 -3.778884
v 4.239367 -1.971425 -3.778884
v 4.511399 -1.079243 -3.778884
v 4.482764 0.176203 -3.778884
v 4.210732 1.149794 -3.778884
v 3.611242 2.100652 -3.778884
v 2.565417 2.875670 -3.778424
v 1.422460 3.313997 -3.778424
v 0.359156 3.395195 -3.778424
v 0.000007 3.410443 -3.791187
v -3.869719 -2.592871 -3.778884
v -3.929225 -2.218607 -3.778884
v -4.157296 -2.218607 -3.778884
v -4.157296 -1.971425 -3.778884
v -4.239353 -1.971425 -3.778884
v -4.511386 -1.079243 -3.778884
v -4.482751 0.176203 -3.778884
v -4.210718 1.149794 -3.778884
v -3.611229 2.100652 -3.778884
v -2.565404 2.875670 -3.778424
v -1.422446 3.313997 -3.778424
v -0.359142 3.395195 -3.778424
v 2.185819 -2.592871 -3.778884
v 1.851278 -2.607677 -3.778884
v 1.284496 -2.617465 -3.778884
v 0.000007 -2.617465 -3.778884
v -2.185806 -2.592871 -3.778884
v -1.851265 -2.607677 -3.778884
v -1.284483 -2.617465 -3.778884
v 2.281314 -2.687172 7.385309
v 4.038794 -2.687172 7.385309
v 4.100900 -2.296557 7.385309
v 4.338935 -2.296557 7.385309
v 4.338935 -2.038576 7.385309
v 4.424577 -2.038576 7.385309
v 1.932157 -2.808622 7.385309
v 1.340613 -2.981581 7.385309
v 0.000007 -2.981581 7.385309
v 4.708494 -1.107417 7.385309
v 4.678608 0.202878 7.385309
v 4.394691 1.219003 7.385309
v 3.769011 2.211403 7.385309
v 2.677495 3.020281 7.385790
v 1.484604 3.477757 7.385790
v 0.374846 3.562502 7.385790
v 0.000007 3.578417 7.372469
v -2.281300 -2.687172 7.385309
v -4.038781 -2.687172 7.385309
v -4.100886 -2.296557 7.385309
v -4.338922 -2.296557 7.385309
v -4.338922 -2.038576 7.385309
v -4.424563 -2.038576 7.385309
v -1.932144 -2.808622 7.385309
v -1.340600 -2.981581 7.385309
v -4.708481 -1.107417 7.385309
v -4.678595 0.202878 7.385309
v -4.394678 1.219003 7.385309
v -3.768997 2.211403 7.385309
v -2.677482 3.020281 7.385790
v -1.484591 3.477757 7.385790
v -0.374833 3.562502 7.385790
v 4.362949 -2.058990 -5.587153
v 4.278501 -2.058990 -5.587153
v 4.642912 -1.140800 -5.587153
v 4.613442 0.151244 -5.587153
v 4.333480 1.153216 -5.587153
v 3.716514 2.131793 -5.587152
v 2.640202 2.929405 -5.586679
v 1.463926 3.380509 -5.586679
v 0.369625 3.464074 -5.586679
v 0.000007 3.479767 -5.599815
v -4.362936 -2.058990 -5.587153
v -4.278487 -2.058990 -5.587153
v -4.642899 -1.140800 -5.587153
v -4.613429 0.151244 -5.587153
v -4.333467 1.153216 -5.587153
v -3.716501 2.131793 -5.587152
v -2.640189 2.929405 -5.586679
v -1.463913 3.380509 -5.586679
v -0.369612 3.464074 -5.586679
vn -0.0000 1.0000 -0.0000
vn -0.9876 0.1570 -0.0000
vn -0.6021 0.7686 0.2161
vn -0.6576 0.7307 0.1833
vn -0.6535 0.7248 0.2182
vn -1.0000 -0.0000 -0.0000
vn -0.7137 0.6750 0.1869
vn -0.5376 0.8225 0.1856
vn -0.1176 0.9893 0.0869
vn -0.0442 0.9990 -0.0000
vn -0.0307 0.9995 -0.0000
vn -0.0982 0.9787 0.1802
vn -0.0086 1.0000 -0.0000
vn -0.9565 0.2917 -0.0000
vn -0.9651 0.1325 0.2257
vn -0.9907 0.1361 -0.0000
vn -0.9642 -0.1436 0.2231
vn -0.9891 -0.1471 -0.0000
vn -0.8908 -0.3964 0.2223
vn -0.9141 -0.4055 -0.0000
vn -0.7132 -0.6662 0.2181
vn -0.7332 -0.6800 -0.0000
vn -0.4684 -0.8591 0.2063
vn -0.4812 -0.8766 -0.0000
vn -0.2125 -0.9567 0.1990
vn -0.2194 -0.9756 -0.0000
vn -0.0616 -0.9793 0.1926
vn -0.0593 -0.9982 -0.0000
vn -0.0000 -0.9823 0.1872
vn -0.0000 -1.0000 -0.0000
vn 0.9876 0.1570 -0.0000
vn 0.6576 0.7307 0.1833
vn 0.6021 0.7686 0.2161
vn 0.6535 0.7248 0.2182
vn 1.0000 -0.0000 -0.0000
vn 0.7137 0.6750 0.1869
vn 0.5376 0.8225 0.1856
vn 0.1176 0.9893 0.0869
vn 0.0982 0.9787 0.1802
vn 0.0307 0.9995 -0.0000
vn 0.0442 0.9990 -0.0000
vn 0.0086 1.0000 -0.0000
vn 0.9565 0.2917 -0.0000
vn 0.9907 0.1361 -0.0000
vn 0.9651 0.1325 0.2257
vn 0.9891 -0.1471 -0.0000
vn 0.9642 -0.1436 0.2231
vn 0.9141 -0.4055 -0.0000
vn 0.8908 -0.3964 0.2223
vn 0.7332 -0.6800 -0.0000
vn 0.7132 -0.6662 0.2181
vn 0.4812 -0.8766 -0.0000
vn 0.4684 -0.8591 0.2063
vn 0.2194 -0.9756 -0.0000
vn 0.2125 -0.9567 0.1990
vn 0.0593 -0.9982 -0.0000
vn 0.0616 -0.9793 0.1926
vn -0.0000 -0.0000 1.0000
vn -0.9141 -0.4055 0.0001
vn 0.7332 -0.6800 0.0001
vn 0.9141 -0.4055 0.0001
vn 0.7332 -0.6800 0.0002
vn -0.7332 -0.6800 0.0001
vn -0.4812 -0.8766 0.0001
vn -0.4812 -0.8766 0.0002
vn -0.7332 -0.6800 0.0002
vn -0.0000 1.0000 -0.0002
vn -0.0000 1.0000 -0.0001
vn -0.0000 1.0000 -0.0003
vn 0.2194 -0.9756 0.0001
vn 0.4812 -0.8766 0.0001
vn 0.4812 -0.8766 0.0002
vn 0.2194 -0.9756 0.0003
vn 0.9565 0.2917 -0.0001
vn 0.9141 -0.4054 0.0001
vn -0.2194 -0.9756 0.0003
vn -0.4812 -0.8766 0.0003
vn 0.9907 0.1362 -0.0000
vn -0.0593 -0.9982 0.0001
vn -0.0000 -1.0000 0.0001
vn -0.0000 -1.0000 0.0003
vn -0.0593 -0.9982 0.0003
vn 0.0593 -0.9982 0.0001
vn 0.0593 -0.9982 0.0003
vn -0.9565 0.2917 -0.0001
vn -0.2194 -0.9756 0.0001
vn -0.0000 -0.9192 -0.3937
vn 0.0472 -0.9177 -0.3945
vn 0.0478 -0.9177 -0.3945
vn -0.7566 0.0869 -0.6481
vn -0.7809 -0.1305 -0.6108
vn -0.7814 -0.1038 -0.6153
vn -0.7484 0.1169 -0.6529
vn 0.3721 0.6673 -0.6451
vn -0.0000 0.8797 -0.4756
vn 0.4760 0.5685 -0.6710
vn 0.1872 -0.8905 -0.4148
vn 0.2104 -0.8838 -0.4180
vn -0.3721 0.6673 -0.6451
vn -0.4760 0.5685 -0.6710
vn -0.0472 -0.9177 -0.3945
vn -0.0478 -0.9177 -0.3945
vn -0.0591 -0.9983 0.0003
vn -0.9907 0.1362 -0.0000
vn 0.4812 -0.8766 0.0003
vn -0.9141 -0.4054 0.0001
vn 0.0591 -0.9983 0.0003
vn 0.1362 0.9816 0.1336
vn -0.0000 0.9922 0.1247
vn 0.1417 0.9899 -0.0000
vn 0.3009 0.9435 0.1390
vn 0.2383 0.9532 0.1863
vn 0.1739 0.9765 0.1271
vn 0.2606 0.9615 0.0868
vn -0.1362 0.9816 0.1336
vn -0.1417 0.9899 -0.0000
vn -0.3009 0.9435 0.1390
vn -0.2383 0.9532 0.1863
vn -0.1739 0.9765 0.1271
vn -0.2606 0.9615 0.0868
vn 0.0611 0.7914 0.6083
vn -0.0000 0.7413 0.6712
vn 0.0655 0.7947 0.6035
vn -0.0611 0.7914 0.6083
vn -0.0655 0.7947 0.6035
vn 0.8280 -0.3652 0.4255
vn 0.8940 -0.1326 0.4280
vn -0.1424 0.9580 0.2490
vn -0.6271 0.6657 0.4044
vn -0.0000 -0.9275 0.3738
vn 0.0618 -0.9256 0.3734
vn 0.5360 0.7623 0.3628
vn 0.6271 0.6657 0.4044
vn -0.5833 0.7230 0.3702
vn -0.6043 0.6998 0.3808
vn -0.4456 -0.8021 0.3976
vn -0.2069 -0.8999 0.3839
vn 0.2945 0.9152 0.2750
vn 0.1445 0.9539 0.2631
vn -0.8941 0.1231 0.4306
vn -0.8940 -0.1326 0.4280
vn 0.6704 -0.6142 0.4164
vn -0.2945 0.9152 0.2750
vn -0.0000 0.9689 0.2475
vn 0.6806 0.6074 0.4096
vn -0.0618 -0.9256 0.3734
vn -0.5360 0.7623 0.3628
vn -0.8280 -0.3652 0.4255
vn 0.4456 -0.8021 0.3976
vn -0.1445 0.9539 0.2631
vn 0.5833 0.7230 0.3702
vn 0.8941 0.1231 0.4306
vn 0.6043 0.6998 0.3808
vn -0.6806 0.6074 0.4096
vn -0.6704 -0.6142 0.4164
vn 0.2069 -0.8999 0.3839
vn 0.1424 0.9580 0.2490
vn -0.0000 -0.0001 1.0000
vn -0.0000 -0.0002 1.0000
vn -0.0000 0.0024 1.0000
vn 0.7566 0.0869 -0.6481
vn 0.7484 0.1169 -0.6529
vn -0.7425 -0.3501 -0.5711
vn -0.7524 -0.3161 -0.5779
vn 0.7809 -0.1305 -0.6108
vn 0.7814 -0.1038 -0.6153
vn -0.6100 -0.6035 -0.5136
vn -0.6396 -0.5617 -0.5248
vn 0.7425 -0.3501 -0.5711
vn 0.7524 -0.3161 -0.5779
vn -0.4134 -0.7894 -0.4539
vn -0.4408 -0.7706 -0.4603
vn 0.6100 -0.6035 -0.5136
vn 0.6396 -0.5617 -0.5248
vn -0.1872 -0.8905 -0.4148
vn -0.2104 -0.8838 -0.4180
vn 0.4134 -0.7894 -0.4539
vn 0.4408 -0.7706 -0.4603
vt 0.413467 0.122411
vt 0.413467 0.683603
vt -0.004168 0.683603
vt -0.004168 0.122411
vt 0.508250 0.683603
vt 3.995035 0.683603
vt 3.995036 0.809899
vt 0.508250 0.809900
vt 0.508250 0.809900
vt 3.995034 0.885907
vt 0.508250 0.885908
vt 0.508250 0.885908
vt 3.995035 0.968285
vt 0.508250 0.968286
vt 0.508250 0.968286
vt 3.995035 0.995632
vt 0.508250 0.995633
vt -0.004168 0.015487
vt 0.413467 0.015487
vt 0.843585 0.156131
vt 0.836713 0.614455
vt 0.630486 0.610988
vt 0.634923 0.151095
vt 0.161613 0.610979
vt 0.161613 0.151203
vt 0.187329 0.000060
vt 1.451498 0.000060
vt 1.451499 0.112762
vt 0.187329 0.112762
vt 0.187329 0.112762
vt 1.451498 0.264496
vt 0.187329 0.264496
vt 0.187329 0.264496
vt 1.451498 0.386640
vt 0.187329 0.386640
vt 0.187329 0.386640
vt 1.451499 0.522460
vt 0.187329 0.522460
vt 0.187329 0.522460
vt 1.451554 0.679742
vt 0.187385 0.679742
vt 0.187385 0.679742
vt 1.451554 0.827653
vt 0.187385 0.827652
vt 0.187385 0.827652
vt 1.451554 0.956505
vt 0.187385 0.956505
vt 0.187385 0.956505
vt 1.450012 0.999940
vt 0.185842 0.999940
vt 0.508250 0.683603
vt 0.508250 0.995633
vt 0.413467 0.015487
vt -0.004168 0.015487
vt -0.520359 0.156131
vt -0.311696 0.151095
vt -0.307259 0.610988
vt -0.513487 0.614455
vt 0.187329 0.000060
vt 0.187329 0.112762
vt 0.187329 0.112762
vt 0.187385 0.827653
vt 0.187385 0.827653
vt 0.185842 0.999940
vt 0.958863 0.619858
vt 1.573707 0.619841
vt 1.595437 0.756495
vt -1.272209 0.756495
vt -1.250478 0.619842
vt -0.635637 0.619858
vt 0.001547 0.264496
vt 0.001547 0.386640
vt -0.026759 0.386633
vt -0.026759 0.264489
vt 0.001547 0.522460
vt -0.026759 0.386634
vt -0.026759 0.522454
vt 0.001603 0.679742
vt -0.026704 0.679738
vt -0.026759 0.522455
vt -0.004168 0.968286
vt -0.004168 0.885908
vt -0.082241 0.885888
vt -0.082241 0.968266
vt -0.004168 0.809900
vt -0.082241 0.885909
vt -0.082241 0.809900
vt 0.001603 0.827652
vt -0.026704 0.679740
vt -0.026704 0.827650
vt 0.001547 0.112762
vt 0.001547 0.000060
vt -0.026759 0.000053
vt -0.026759 0.112755
vt -1.272209 0.841982
vt 1.595437 0.841982
vt 1.678663 0.841982
vt 1.678663 0.932181
vt -1.355435 0.932182
vt -1.355435 0.841982
vt -0.026759 0.386633
vt -0.045982 0.264483
vt -0.045982 0.386627
vt 1.678663 0.990236
vt -1.355435 0.990236
vt -0.026704 0.679740
vt -0.045927 0.827648
vt -0.045927 0.679738
vt -0.026759 0.264488
vt -0.026759 0.112754
vt -0.045982 0.112749
vt -0.045982 0.264483
vt -0.045927 0.679735
vt -0.045982 0.522452
vt -0.045982 0.000048
vt -0.045982 0.112749
vt 0.001603 0.956505
vt 0.000060 0.999940
vt -0.028246 0.999939
vt -0.026704 0.956505
vt -0.026704 0.827652
vt -0.026704 0.956504
vt -0.004168 0.995633
vt -0.082241 0.968286
vt -0.082241 0.995633
vt -0.026759 0.000053
vt -0.082241 0.885909
vt -0.026759 0.522454
vt -0.026759 0.386634
vt -0.026704 0.956504
vt -0.026704 0.827652
vt -0.047469 0.999939
vt -0.045927 0.956504
vt -0.045982 0.264483
vt -0.135261 0.995633
vt -0.135261 0.968286
vt -0.045927 0.956504
vt -0.045927 0.827651
vt -0.045982 0.000048
vt -0.045982 0.112749
vt -0.045927 0.956504
vt -0.045982 0.386629
vt -0.045982 0.522449
vt -0.045982 0.522452
vt -0.045927 0.679734
vt -0.045927 0.679738
vt -0.045927 0.827648
vt -0.045982 0.386627
vt -0.045982 0.386629
vt 0.153020 0.956505
vt 0.151478 0.999940
vt 0.185842 0.999940
vt 0.187385 0.956505
vt 0.153020 0.827652
vt 0.187385 0.956505
vt 0.187385 0.827653
vt 0.153020 0.679742
vt 0.187385 0.679742
vt 0.152965 0.522460
vt 0.152965 0.386640
vt 0.187329 0.522460
vt 0.187329 0.386640
vt 0.152965 0.264496
vt 0.187329 0.386640
vt 0.187329 0.264496
vt 0.152965 0.112762
vt 0.187329 0.112762
vt 0.152965 0.000060
vt 0.187329 0.112762
vt 0.187329 0.000060
vt 6.071139 0.690402
vt 6.071139 0.008872
vt 0.519928 0.008872
vt 0.519928 0.690402
vt 6.071139 0.991128
vt 0.519928 0.690402
vt 0.519928 0.991128
vt 3.995034 0.122410
vt 3.995034 0.004366
vt 0.508250 0.004367
vt 0.508249 0.122411
vt 0.413467 0.968286
vt 0.413467 0.995633
vt 0.508250 0.995633
vt 0.413467 0.885908
vt 0.508250 0.968286
vt 0.508250 0.885908
vt 0.413467 0.809900
vt 0.508250 0.885908
vt 0.508250 0.809900
vt 3.995035 0.122410
vt 0.508250 0.122411
vt 0.508250 0.683603
vt 0.153020 0.827652
vt 0.187385 0.827652
vt 0.187385 0.827653
vt 0.152965 0.522460
vt 0.187329 0.386640
vt 0.152965 0.264496
vt 0.187329 0.264496
vt 0.187329 0.386640
vt 0.152965 0.112762
vt 0.187329 0.112762
vt 0.152965 0.000060
vt 0.187329 0.000060
vt 0.187329 0.112762
vt 0.519928 0.008872
vt 0.519928 0.991128
vt 0.508249 0.004367
vt 0.413467 0.968286
vt 0.413467 0.995633
vt 0.413467 0.885908
vt 0.508250 0.885908
vt 0.508250 0.968286
vt 0.413467 0.809900
vt 0.508250 0.809900
vt 0.508250 0.683603
vt 0.508250 0.809900
vt 0.508250 0.683603
vt 0.508249 0.122411
vt -0.309810 0.009764
vt 0.161613 0.011181
vt -0.522753 0.046012
vt 0.508249 0.122411
vt 0.508249 0.004367
vt 0.413467 0.015487
vt 0.508249 0.122411
vt 0.508250 0.683603
vt 0.633036 0.009764
vt 0.845979 0.046012
vt 0.508249 0.122411
vt 0.413467 0.015487
vt 0.508249 0.122411
vt -0.091154 0.005223
vt 1.091154 0.005223
vt 1.102823 0.005223
vt 1.141503 0.132089
vt -0.141503 0.132089
vt -0.102823 0.005223
vt -0.141505 0.132088
vt 1.141505 0.132088
vt 1.137433 0.310609
vt -0.137433 0.310609
vt -0.137433 0.310609
vt 1.137433 0.310609
vt 1.098752 0.449050
vt -0.098752 0.449050
vt -0.098751 0.449050
vt 1.098751 0.449050
vt 1.013505 0.584259
vt -0.013505 0.584259
vt -0.013505 0.584245
vt 1.013506 0.584245
vt 0.864793 0.694450
vt 0.135207 0.694450
vt 0.135207 0.694518
vt 0.864793 0.694518
vt 0.702268 0.756847
vt 0.551070 0.768393
vt 0.500000 0.770561
vt 0.448930 0.768393
vt 0.297732 0.756847
s 1
usemtl bricks
f 112/26/14 11/27/8 19/28/15 116/29/16
f 116/30/16 19/28/15 21/31/17 117/32/18
f 117/33/18 21/31/17 23/34/19 118/35/20
f 118/36/20 23/34/19 25/37/21 119/38/22
f 119/39/22 25/37/21 27/40/23 120/41/24
f 120/42/24 27/40/23 29/43/25 121/44/26
f 121/45/26 29/43/25 31/46/27 122/47/28
f 122/48/28 31/46/27 33/49/29 123/50/30
f 129/59/43 132/60/44 51/28/45 45/27/37
f 132/61/44 133/33/46 53/31/47 51/28/45
f 133/32/46 134/36/48 55/34/49 53/31/47
f 134/35/48 135/39/50 57/37/51 55/34/49
f 135/38/50 136/42/52 59/40/53 57/37/51
f 136/41/52 137/62/54 61/43/55 59/40/53
f 137/63/54 138/48/56 63/46/57 61/43/55
f 138/47/56 123/64/30 33/49/29 63/46/57
f 22/71/18 24/72/59 71/73/59 70/74/18
f 58/75/60 56/72/61 83/76/61 84/77/62
f 26/75/63 28/78/64 73/79/65 72/80/66
f 62/88/70 60/78/71 85/89/72 86/90/73
f 52/91/44 46/92/43 80/93/74 81/94/44
f 83/101/61 82/74/46 101/102/46 102/103/75
f 73/106/65 74/90/76 95/107/76 94/108/77
f 82/109/46 81/110/44 100/111/78 101/112/46
f 72/80/66 73/79/65 94/113/77 93/114/66
f 81/94/44 80/93/74 98/115/74 100/116/78
f 32/117/79 34/118/80 76/119/81 75/120/82
f 54/71/46 52/91/44 81/110/44 82/109/46
f 64/117/83 62/88/70 86/121/73 87/122/84
f 12/92/14 20/91/16 69/94/16 68/126/85
f 28/78/64 30/88/86 74/90/76 73/106/65
f 60/78/71 58/75/60 84/80/62 85/79/72
f 34/118/80 64/117/83 87/120/84 76/119/81
f 24/72/59 26/75/63 72/128/66 71/129/59
f 56/72/61 54/71/46 82/74/46 83/101/61
f 20/91/16 22/71/18 70/109/18 69/110/16
f 30/88/86 32/117/79 75/130/82 74/131/76
f 97/132/87 106/133/88 221/133/89 212/132/87
f 90/111/90 91/134/91 206/134/92 205/111/93
f 106/137/88 105/138/97 220/138/98 221/137/89
f 88/139/99 90/140/90 205/140/93 203/139/100
f 96/133/101 97/132/87 212/132/87 211/133/102
f 74/131/76 75/130/82 96/141/103 95/138/76
f 84/77/62 83/76/61 102/142/75 103/143/62
f 75/120/82 76/119/81 97/132/81 96/133/103
f 68/126/85 69/94/16 90/140/104 88/139/85
f 85/79/72 84/80/62 103/144/62 104/145/105
f 69/110/16 70/109/18 91/134/18 90/111/104
f 86/90/73 85/89/72 104/146/105 105/147/73
f 70/74/18 71/73/59 92/148/106 91/102/18
f 87/122/84 86/121/73 105/138/73 106/137/107
f 71/129/59 72/128/66 93/143/66 92/149/106
f 76/119/81 87/120/84 106/133/107 97/132/81
f 163/150/56 151/151/30 123/152/30 138/153/56
f 162/154/54 163/150/56 138/155/56 137/156/54
f 161/157/52 162/154/54 137/62/54 136/158/52
f 160/159/50 161/157/52 136/42/52 135/39/50
f 159/160/48 160/159/50 135/161/50 134/162/48
f 158/163/46 159/160/48 134/164/48 133/165/46
f 157/166/44 158/163/46 133/33/46 132/167/44
f 156/168/43 157/166/44 132/169/44 129/170/43
f 150/150/28 122/153/28 123/152/30 151/151/30
f 149/194/26 121/195/26 122/155/28 150/150/28
f 148/157/24 120/158/24 121/196/26 149/194/26
f 147/197/22 119/38/22 120/158/24 148/157/24
f 146/160/20 118/198/20 119/161/22 147/197/22
f 145/199/18 117/200/18 118/201/20 146/160/20
f 144/202/16 116/203/16 117/32/18 145/199/18
f 143/204/14 112/205/14 116/206/16 144/202/16
f 12/92/14 143/204/14 144/202/16 20/91/16
f 20/91/16 144/202/16 145/199/18 22/71/18
f 22/71/18 145/199/18 146/160/20 24/72/59
f 24/72/59 146/160/20 147/197/22 26/75/63
f 26/75/63 147/197/22 148/157/24 28/78/64
f 28/78/64 148/157/24 149/194/26 30/88/86
f 30/88/86 149/194/26 150/150/28 32/117/79
f 32/117/79 150/150/28 151/151/30 34/118/80
f 46/92/43 52/91/44 157/166/44 156/168/43
f 52/91/44 54/71/46 158/163/46 157/166/44
f 54/71/46 56/72/61 159/160/48 158/163/46
f 56/72/61 58/75/60 160/159/50 159/160/48
f 58/75/60 60/78/71 161/157/52 160/159/50
f 60/78/71 62/88/70 162/154/54 161/157/52
f 62/88/70 64/117/83 163/150/56 162/154/54
f 64/117/83 34/118/80 151/151/30 163/150/56
f 53/31/47 55/34/49 198/34/126 197/31/127
f 63/46/57 33/49/29 187/49/130 202/46/131
f 29/43/25 27/40/23 184/40/136 185/43/137
f 21/31/17 19/28/15 180/28/140 181/31/141
f 55/34/49 57/37/51 199/37/142 198/34/126
f 31/46/27 29/43/25 185/43/137 186/46/146
f 23/34/19 21/31/17 181/31/141 182/34/148
f 57/37/51 59/40/53 200/40/149 199/37/142
f 33/49/29 31/46/27 186/46/146 187/49/130
f 45/27/37 51/28/45 196/28/152 193/27/153
f 25/37/21 23/34/19 182/34/148 183/37/155
f 59/40/53 61/43/55 201/43/156 200/40/149
f 51/28/45 53/31/47 197/31/127 196/28/152
f 27/40/23 25/37/21 183/37/155 184/40/136
f 61/43/55 63/46/57 202/46/131 201/43/156
f 19/28/15 11/27/8 176/27/135 180/28/140
f 214/234/58 204/235/58 203/236/58 205/237/58 215/238/58 213/239/58
f 215/240/58 205/241/58 206/242/58 216/243/58
f 216/244/58 206/245/58 207/246/58 217/247/58
f 217/248/58 207/249/58 208/250/158 218/251/158
f 218/252/158 208/253/158 209/254/159 219/255/159
f 219/256/159 209/257/159 210/258/160 211/259/160 212/260/160 221/261/160 220/262/160
f 100/116/161 98/115/94 213/115/96 215/116/162
f 91/102/91 92/148/163 207/148/164 206/102/92
f 101/112/165 100/111/161 215/111/162 216/112/166
f 92/149/163 93/143/167 208/143/168 207/149/164
f 102/103/169 101/102/165 216/102/166 217/103/170
f 93/114/167 94/113/171 209/113/172 208/114/168
f 103/143/173 102/142/169 217/142/170 218/143/174
f 94/108/171 95/107/175 210/107/176 209/108/172
f 104/145/177 103/144/173 218/144/174 219/145/178
f 95/138/175 96/141/101 211/141/102 210/138/176
f 105/147/97 104/146/177 219/146/178 220/147/98
usemtl concrete_base_02
f 164/1/1 139/2/1 4/3/1 3/4/1
f 108/5/2 2/6/3 5/7/4 109/8/2
f 109/9/1 5/7/4 7/10/5 110/11/1
f 110/12/6 7/10/5 9/13/7 111/14/6
f 111/15/1 9/13/7 11/16/8 112/17/1
f 164/1/9 3/4/10 14/18/11 165/19/12
f 165/20/12 14/21/11 16/22/13 166/23/13
f 166/23/13 16/22/13 18/24/1 167/25/1
f 168/1/1 37/4/1 38/3/1 152/2/1
f 125/51/31 126/9/31 39/7/32 36/6/33
f 126/8/1 127/12/1 41/10/34 39/7/32
f 127/11/35 128/15/35 43/13/36 41/10/34
f 128/14/1 129/52/1 45/16/37 43/13/36
f 168/1/38 169/53/39 48/54/40 37/4/41
f 169/55/39 170/56/42 50/57/42 48/58/40
f 170/56/42 167/25/1 18/24/1 50/57/42
f 3/65/58 4/66/58 6/67/58 40/68/58 38/69/58 37/70/58 48/58/58 50/57/58 18/24/58 16/22/58 14/21/58
f 44/81/35 42/82/35 77/83/35 79/84/35
f 6/85/67 8/82/68 65/86/69 66/87/69
f 78/95/58 66/96/58 65/97/58 67/98/58 79/99/58 77/100/58
f 79/99/69 67/98/69 89/104/69 99/105/69
f 8/82/6 10/81/6 67/84/6 65/83/6
f 46/123/68 44/81/68 79/124/69 80/125/69
f 42/82/68 40/85/67 78/87/69 77/127/69
f 10/81/68 12/123/68 68/125/69 67/124/69
f 40/68/67 6/67/67 66/96/69 78/95/69
f 98/135/94 99/136/95 214/136/95 213/135/96
f 67/124/69 68/125/69 88/135/69 89/136/69
f 80/125/69 79/124/69 99/136/69 98/135/69
f 35/178/113 47/179/111 130/180/112 124/181/114
f 155/182/1 156/183/1 129/184/1 128/15/1
f 154/185/35 155/182/35 128/186/35 127/187/35
f 153/188/1 154/185/1 127/189/1 126/9/1
f 152/2/31 153/188/31 126/190/31 125/5/31
f 35/191/113 124/192/1 125/193/1 36/6/33
f 1/178/119 107/192/120 113/209/118 13/179/117
f 142/210/1 111/186/1 112/52/1 143/211/1
f 141/212/6 110/213/6 111/214/6 142/210/6
f 140/215/1 109/216/1 110/189/1 141/212/1
f 139/2/2 108/217/2 109/218/2 140/215/2
f 1/191/119 2/6/3 108/219/1 107/220/1
f 4/3/2 139/2/2 140/215/2 6/85/2
f 6/85/67 140/215/1 141/212/1 8/82/68
f 8/82/6 141/212/6 142/210/6 10/81/6
f 10/81/68 142/210/1 143/211/1 12/123/68
f 38/3/31 40/85/31 153/188/31 152/2/31
f 40/85/67 42/82/68 154/185/1 153/188/1
f 42/82/35 44/81/35 155/182/35 154/185/35
f 44/81/68 46/123/68 156/183/1 155/182/1
f 131/221/121 115/222/122 167/25/122 170/56/123
f 130/223/112 131/221/121 170/56/123 169/55/39
f 124/224/114 130/225/112 169/226/39 168/1/38
f 124/227/1 168/1/1 152/2/1 125/228/1
f 114/229/124 166/23/125 167/25/122 115/222/122
f 113/230/118 165/20/12 166/23/125 114/229/124
f 107/231/120 164/1/9 165/232/12 113/209/118
f 107/233/1 108/193/1 139/2/1 164/1/1
f 2/6/3 1/191/119 171/191/128 172/6/129
f 36/6/33 39/7/32 190/7/132 189/6/133
f 11/16/8 9/13/7 175/13/134 176/16/135
f 1/178/119 13/179/117 177/179/143 171/178/128
f 39/7/32 41/10/34 191/10/145 190/7/132
f 5/7/4 2/6/3 172/6/129 173/7/147
f 41/10/34 43/13/36 192/13/151 191/10/145
f 7/10/5 5/7/4 173/7/147 174/10/154
f 35/191/113 36/6/33 189/6/133 188/191/157
f 43/13/36 45/16/37 193/16/153 192/13/151
f 9/13/7 7/10/5 174/10/154 175/13/134
f 47/179/111 35/178/113 188/178/157 194/179/138
f 99/105/95 89/104/95 204/104/95 214/105/95
f 89/136/95 88/135/99 203/135/100 204/136/95
usemtl concrete_dirty
f 49/171/108 17/172/109 115/173/1 131/174/110
f 47/175/111 49/171/108 131/176/110 130/177/112
f 15/171/115 114/176/116 115/207/1 17/172/109
f 13/175/117 113/208/118 114/174/116 15/171/115
f 49/171/108 47/175/111 194/175/138 195/171/139
f 17/172/109 49/171/108 195/171/139 179/172/144
f 13/175/117 15/171/115 178/171/150 177/175/143
f 15/171/115 17/172/109 179/172/144 178/171/150
