# Blender 4.5.9 LTS
# www.blender.org
mtllib Serwers02_008.mtl
o Serwers02_008
v -0.000000 3.254395 -4.248927
v -4.721884 -2.636669 -0.600948
v -0.000000 3.254395 4.248926
v -4.721884 -2.636669 0.467284
v -1.862715 -2.636669 -4.248927
v -4.721884 -0.264179 -0.600948
v -1.862715 -2.636668 4.248927
v -4.721884 -0.264179 0.467284
v -2.455375 -2.122127 -4.248927
v -2.455375 -2.122126 4.248927
v -3.215858 -0.456902 -4.248927
v -3.215858 -0.456902 4.248927
v -2.955328 1.355121 -4.248927
v -2.955328 1.355122 4.248927
v -1.756503 2.738639 -4.248927
v -1.756503 2.738640 4.248927
v -0.999720 -2.636669 -4.248926
v -0.999720 -2.636668 4.248926
v -0.999720 -2.880242 -4.248926
v -0.999720 -2.880242 4.248926
v -0.000000 -2.880242 -4.248926
v -0.000000 -2.880242 4.248926
v 1.862715 -2.636669 -4.248927
v 1.862715 -2.636668 4.248927
v 2.455374 -2.122127 -4.248927
v 2.455374 -2.122126 4.248927
v 3.215857 -0.456902 -4.248927
v 3.215857 -0.456902 4.248927
v 2.955327 1.355121 -4.248927
v 2.955327 1.355122 4.248927
v 1.756502 2.738639 -4.248927
v 1.756502 2.738640 4.248927
v 0.999720 -2.636669 -4.248926
v 0.999719 -2.636668 4.248926
v 0.999720 -2.880242 -4.248926
v 0.999719 -2.880242 4.248926
v -2.455375 -2.122126 -0.600948
v -2.455375 -2.122126 0.467284
v -1.862716 -2.636668 0.467284
v -1.862716 -2.636668 -0.600949
v -3.215858 -0.456902 -0.600948
v -3.215858 -0.456902 0.467284
v -3.188148 -0.264179 -0.600948
v -3.188148 -0.264179 0.467284
v -0.000000 3.521716 4.749735
v -1.985335 -2.757147 4.749735
v -2.617008 -2.208733 4.749735
v -3.427552 -0.433890 4.749735
v -3.149872 1.497416 4.749735
v -1.872130 2.972008 4.749735
v -1.065529 -2.757147 4.749735
v -1.065529 -3.016754 4.749735
v -0.000000 -3.016754 4.749735
v 1.985334 -2.757147 4.749735
v 2.617008 -2.208733 4.749735
v 3.427552 -0.433890 4.749735
v 3.149872 1.497416 4.749735
v 1.872130 2.972008 4.749735
v 1.065529 -2.757147 4.749735
v 1.065529 -3.016754 4.749735
v -0.000000 3.490638 -4.596705
v -1.971079 -2.743141 -4.596705
v -2.598217 -2.198665 -4.596705
v -3.402941 -0.436566 -4.596705
v -3.127255 1.480873 -4.596705
v -1.858688 2.944878 -4.596705
v -1.057879 -2.743141 -4.596704
v -1.057879 -3.000885 -4.596704
v -0.000000 -3.000885 -4.596704
v 1.971079 -2.743141 -4.596705
v 2.598217 -2.198665 -4.596705
v 3.402941 -0.436566 -4.596705
v 3.127255 1.480873 -4.596705
v 1.858687 2.944878 -4.596705
v 1.057879 -2.743141 -4.596704
v 1.057879 -3.000885 -4.596704
vn 0.6879 0.7098 -0.1517
vn 0.3234 0.9266 -0.1917
vn 0.3298 0.9316 0.1530
vn 0.6924 0.7111 0.1224
vn 0.8008 0.5989 -0.0000
vn 0.7860 0.5924 0.1767
vn 0.7785 0.5878 -0.2202
vn 0.3499 0.9368 -0.0000
vn 0.9898 0.1423 -0.0000
vn 0.9684 0.1488 0.2001
vn 0.9571 0.1493 -0.2483
vn 0.8777 -0.3896 -0.2790
vn 0.8895 -0.3968 0.2266
vn 0.9898 -0.1423 -0.0000
vn 0.5204 -0.7989 -0.3017
vn 0.5282 -0.8126 0.2463
vn -0.0000 -0.9508 -0.3099
vn -0.0000 -0.9673 0.2536
vn -0.0000 0.9861 -0.1662
vn 0.7199 0.6693 -0.1838
vn 0.7186 0.6800 0.1453
vn -0.0000 0.9912 0.1327
vn -0.6879 0.7098 -0.1517
vn -0.6924 0.7111 0.1224
vn -0.3298 0.9316 0.1530
vn -0.3234 0.9266 -0.1917
vn -0.7860 0.5924 0.1767
vn -0.7785 0.5878 -0.2202
vn -0.9684 0.1488 0.2001
vn -0.9571 0.1493 -0.2483
vn -0.8895 -0.3968 0.2266
vn -0.8777 -0.3896 -0.2790
vn -0.5282 -0.8126 0.2463
vn -0.5204 -0.7989 -0.3017
vn -0.7186 0.6800 0.1453
vn -0.7199 0.6693 -0.1838
vn -0.0000 1.0000 -0.0000
vn -0.0000 -0.0000 -1.0000
vn -0.0000 -0.0000 1.0000
vn -0.0000 -1.0000 -0.0000
vn -0.6541 0.7036 0.2777
vn -0.7114 0.6563 0.2514
vn 0.7566 0.5581 0.3407
vn 0.3586 0.8838 0.3004
vn 0.6541 0.7036 0.2777
vn -0.0000 0.9648 0.2630
vn -0.3586 0.8838 0.3004
vn -0.7566 0.5581 0.3407
vn 0.7114 0.6563 0.2514
vn 0.9167 0.1170 0.3821
vn -0.9167 0.1170 0.3821
vn -0.0000 -0.8822 0.4709
vn 0.4741 -0.7511 0.4595
vn 0.8170 -0.3872 0.4274
vn -0.8170 -0.3872 0.4274
vn -0.4741 -0.7511 0.4595
vn 0.4448 -0.7069 -0.5499
vn -0.0000 -0.8272 -0.5619
vn 0.3539 0.8577 -0.3729
vn 0.7315 0.5381 -0.4189
vn -0.7315 0.5381 -0.4189
vn -0.3539 0.8577 -0.3729
vn 0.7063 0.6352 -0.3126
vn -0.7063 0.6352 -0.3126
vn 0.8780 0.1093 -0.4659
vn -0.8780 0.1093 -0.4659
vn 0.6338 0.6918 -0.3460
vn -0.6338 0.6918 -0.3460
vn -0.0000 0.9448 -0.3277
vn -0.4448 -0.7069 -0.5499
vn 0.7733 -0.3689 -0.5157
vn -0.7733 -0.3689 -0.5157
vt -1.064508 0.680855
vt -1.064508 0.990118
vt 3.027601 0.990118
vt 3.027601 0.680855
vt 0.941716 0.842623
vt 2.080334 0.842623
vt 2.080334 0.602839
vt -0.478291 0.602839
vt -0.478291 0.842623
vt 0.620081 0.842623
vt 0.620081 0.602839
vt 0.941716 0.602839
vt 0.941716 0.809576
vt 2.080334 0.809576
vt 2.080334 1.483310
vt 0.941716 1.483310
vt 0.620081 1.483311
vt -0.478291 1.483311
vt -0.478291 0.809576
vt 0.620081 0.809576
vt 0.620081 0.809576
vt -0.478291 0.076448
vt 2.080334 0.076448
vt 0.941716 0.809576
vt 0.941716 0.731602
vt 0.620081 0.731602
vt -0.478291 -0.483311
vt 2.080334 -0.483311
vt -0.478291 0.559866
vt -0.478291 -0.150799
vt 2.080334 -0.150799
vt 2.080334 0.559866
vt -0.699235 0.500000
vt -0.699235 0.991538
vt 2.437469 0.991538
vt 2.437469 0.500000
vt -1.064508 0.791843
vt 3.027601 0.791843
vt 3.027601 0.879130
vt -1.064508 0.879130
vt 3.027601 0.990118
vt 2.080334 0.842623
vt 2.080334 1.483310
vt 2.080334 -0.483311
vt 2.080334 0.559866
vt 2.437469 0.008462
vt -0.699235 0.008462
vt 3.027601 0.879130
vt 3.027601 0.791843
vt -0.006119 0.686548
vt 0.993880 0.686548
vt 0.993880 0.312931
vt -0.006119 0.312932
vt 0.093131 0.807728
vt 0.529642 0.807728
vt 0.521756 0.752878
vt 0.738195 0.278944
vt 0.906869 0.132501
vt 0.093131 0.132501
vt 0.521756 0.752878
vt 0.093131 0.807728
vt 0.529642 -0.128624
vt 0.529642 0.175402
vt 0.093131 0.175402
vt 0.093131 -0.128624
s 1
usemtl concrete_base_03
f 38/5/5 10/6/6 7/7/3 5/8/2 9/9/7 37/10/5 40/11/8 39/12/8
f 42/13/9 12/14/10 10/15/6 38/16/5
f 37/17/5 9/18/7 11/19/11 41/20/9
f 41/21/9 11/19/11 13/22/12 14/23/13 12/14/10 42/24/9 44/25/14 43/26/14
f 13/22/12 15/27/15 16/28/16 14/23/13
f 15/29/15 1/30/17 3/31/18 16/32/16
f 23/8/26 24/7/25 26/42/27 25/9/28
f 25/18/28 26/43/27 28/14/29 27/19/30
f 27/19/30 28/14/29 30/23/31 29/22/32
f 29/22/32 30/23/31 32/44/33 31/27/34
f 31/29/34 32/45/33 3/31/18 1/30/17
f 8/54/38 44/55/38 42/56/38 38/57/38 39/58/38 4/59/38
f 40/58/39 37/57/39 41/60/39 43/55/39 6/61/39 2/59/39
f 43/62/40 44/63/40 8/64/40 6/65/40
f 7/7/3 10/6/6 47/6/43 46/7/44
f 26/42/27 24/7/25 54/7/47 55/42/48
f 10/15/6 12/14/10 48/14/50 47/15/43
f 28/14/29 26/43/27 55/43/48 56/14/51
f 16/32/16 3/31/18 45/31/52 50/32/53
f 12/14/10 14/23/13 49/23/54 48/14/50
f 30/23/31 28/14/29 56/14/51 57/23/55
f 3/31/18 32/45/33 58/45/56 45/31/52
f 14/23/13 16/28/16 50/28/53 49/23/54
f 32/44/33 30/23/31 57/23/55 58/44/56
f 1/30/17 15/29/15 66/29/57 61/30/58
f 9/9/7 5/8/2 62/8/59 63/9/60
f 23/8/26 25/9/28 71/9/61 70/8/62
f 11/19/11 9/18/7 63/18/60 64/19/65
f 25/18/28 27/19/30 72/19/66 71/18/61
f 31/29/34 1/30/17 61/30/58 74/29/70
f 13/22/12 11/19/11 64/19/65 65/22/71
f 27/19/30 29/22/32 73/22/72 72/19/66
f 15/27/15 13/22/12 65/22/71 66/27/57
f 29/22/32 31/27/34 74/27/70 73/22/72
usemtl soil_mud
f 21/33/19 19/34/20 20/35/21 22/36/22
f 21/33/19 22/36/22 36/46/35 35/47/36
f 22/36/22 20/35/21 52/35/45 53/36/46
f 36/46/35 22/36/22 53/36/46 60/46/41
f 21/33/19 35/47/36 76/47/68 69/33/69
f 19/34/20 21/33/19 69/33/69 68/34/67
usemtl concrete_base_02
f 17/1/1 5/2/2 7/3/3 18/4/4
f 17/37/1 18/38/4 20/39/21 19/40/20
f 33/1/23 34/4/24 24/41/25 23/2/26
f 33/37/23 35/40/36 36/48/35 34/49/24
f 4/50/37 39/51/8 40/52/8 2/53/37
f 34/49/24 36/48/35 60/48/41 59/49/42
f 18/4/4 7/3/3 46/3/44 51/4/49
f 24/41/25 34/4/24 59/4/42 54/41/47
f 20/39/21 18/38/4 51/38/49 52/39/45
f 5/2/2 17/1/1 67/1/63 62/2/59
f 33/1/23 23/2/26 70/2/62 75/1/64
f 17/37/1 19/40/20 68/40/67 67/37/63
f 35/40/36 33/37/23 75/37/64 76/40/68
