# Blender 4.5.9 LTS
# www.blender.org
mtllib Serwers_014.mtl
o Serwers_014
v 0.000000 3.386930 0.613069
v 0.000000 3.386931 3.386930
v 0.000000 -2.882610 3.386931
v 0.000000 -2.882610 0.613070
v -0.979492 -2.882610 0.613070
v -0.979492 -2.882610 3.386931
v -1.157323 -2.111717 3.386931
v -1.157323 -2.111717 0.613070
v -2.648009 -2.111717 0.613070
v -2.648009 -2.111717 3.386931
v -3.302013 -0.753663 0.613070
v -3.302013 -0.753663 3.386930
v -3.302013 0.753663 0.613069
v -3.302013 0.753663 3.386930
v -2.648009 2.111717 0.613069
v -2.648009 2.111717 3.386930
v -1.469534 3.051519 0.613069
v -1.469534 3.051519 3.386930
v 0.979492 -2.882610 0.613070
v 0.979492 -2.882610 3.386931
v 1.157323 -2.111717 3.386931
v 1.157323 -2.111717 0.613070
v 2.648009 -2.111717 0.613070
v 2.648009 -2.111717 3.386931
v 3.302013 -0.753663 0.613070
v 3.302013 -0.753663 3.386930
v 3.302013 0.753663 0.613069
v 3.302013 0.753663 3.386930
v 2.648009 2.111717 0.613069
v 2.648009 2.111717 3.386930
v 1.469534 3.051519 0.613069
v 1.469534 3.051519 3.386930
v -0.436495 3.386930 -3.935666
v -0.436495 -2.882610 -3.935665
v -1.382609 -2.882610 -3.682144
v -1.554380 -2.111717 -3.636117
v -2.994268 -2.111717 -3.250284
v -3.625986 -0.753663 -3.081010
v -3.625986 0.753663 -3.081010
v -2.994268 2.111717 -3.250285
v -1.855952 3.051519 -3.555308
v 0.509619 -2.882610 -4.189186
v 0.681391 -2.111717 -4.235214
v 2.121279 -2.111717 -4.621046
v 2.752997 -0.753663 -4.790321
v 2.752997 0.753662 -4.790321
v 2.121279 2.111717 -4.621046
v 0.982962 3.051519 -4.316023
v -2.035458 3.386929 -8.216417
v -2.035458 -2.882611 -8.216417
v -2.883714 -2.882611 -7.726654
v -3.037718 -2.111717 -7.637735
v -4.328675 -2.111717 -6.892366
v -4.895053 -0.753664 -6.565353
v -4.895053 0.753662 -6.565353
v -4.328675 2.111716 -6.892366
v -3.308098 3.051518 -7.481625
v -1.187203 -2.882611 -8.706181
v -1.033198 -2.111718 -8.795099
v 0.257758 -2.111718 -9.540467
v 0.824136 -0.753664 -9.867480
v 0.824136 0.753662 -9.867480
v 0.257758 2.111716 -9.540467
v -0.762819 3.051518 -8.951210
v -4.687916 3.386929 -11.937437
v -4.687916 -2.882612 -11.937437
v -5.380501 -2.882612 -11.244811
v -5.506243 -2.111718 -11.119061
v -6.560286 -2.111718 -10.064956
v -7.022723 -0.753664 -9.602490
v -7.022723 0.753662 -9.602490
v -6.560286 2.111716 -10.064956
v -5.727003 3.051518 -10.898289
v -3.995331 -2.882612 -12.630063
v -3.869589 -2.111718 -12.755814
v -2.815547 -2.111718 -13.809919
v -2.353110 -0.753665 -14.272384
v -2.353110 0.753661 -14.272384
v -2.815547 2.111715 -13.809919
v -3.648829 3.051517 -12.976586
v -8.213093 3.386929 -14.845124
v -8.213094 -2.882612 -14.845124
v -8.702806 -2.882612 -13.996841
v -8.791716 -2.111718 -13.842831
v -9.537006 -2.111718 -12.551829
v -9.863986 -0.753664 -11.985431
v -9.863986 0.753661 -11.985431
v -9.537006 2.111715 -12.551829
v -8.947810 3.051517 -13.572441
v -7.723381 -2.882612 -15.693411
v -7.634471 -2.111719 -15.847420
v -6.889180 -2.111719 -17.138422
v -6.562201 -0.753665 -17.704821
v -6.562201 0.753661 -17.704821
v -6.889180 2.111715 -17.138422
v -7.478377 3.051517 -16.117811
v -12.370737 3.386928 -16.741310
v -12.370738 -2.882612 -16.741310
v -12.624202 -2.882612 -15.795182
v -12.670220 -2.111719 -15.623406
v -13.055966 -2.111718 -14.183498
v -13.225203 -0.753665 -13.551765
v -13.225203 0.753661 -13.551765
v -13.055966 2.111715 -14.183498
v -12.751011 3.051517 -15.321831
v -12.117273 -2.882612 -17.687443
v -12.071255 -2.111719 -17.859215
v -11.685511 -2.111719 -19.299128
v -11.516273 -0.753666 -19.930857
v -11.516273 0.753660 -19.930857
v -11.685511 2.111715 -19.299128
v -11.990465 3.051517 -18.160793
v -16.877491 3.386928 -17.496765
v -16.877491 -2.882612 -17.496763
v -16.877432 -2.882612 -16.517273
v -16.877420 -2.111719 -16.339439
v -16.877333 -2.111719 -14.848755
v -16.877293 -0.753665 -14.194748
v -16.877293 0.753661 -14.194748
v -16.877333 2.111715 -14.848755
v -16.877403 3.051517 -16.027229
v -16.877548 -2.882612 -18.476257
v -16.877558 -2.111719 -18.654091
v -16.877649 -2.111719 -20.144773
v -16.877689 -0.753666 -20.798780
v -16.877689 0.753660 -20.798780
v -16.877649 2.111715 -20.144773
v -16.877579 3.051517 -18.966301
v -19.877491 3.386928 -17.496765
v -19.877491 -2.882612 -17.496763
v -19.877434 -2.882612 -16.517273
v -19.877422 -2.111719 -16.339439
v -19.877333 -2.111719 -14.848755
v -19.877293 -0.753665 -14.194748
v -19.877293 0.753661 -14.194748
v -19.877333 2.111715 -14.848755
v -19.877403 3.051517 -16.027229
v -19.877548 -2.882612 -18.476257
v -19.877560 -2.111719 -18.654091
v -19.877649 -2.111719 -20.144773
v -19.877689 -0.753666 -20.798780
v -19.877689 0.753660 -20.798780
v -19.877649 2.111715 -20.144773
v -19.877581 3.051517 -18.966301
vn -0.0000 1.0000 -0.0000
vn 0.9744 0.2248 -0.0000
vn 0.9735 0.2240 -0.0452
vn 0.9735 0.2240 -0.0458
vn 0.9007 0.4326 -0.0394
vn 0.9738 0.2231 -0.0431
vn 0.9749 0.2225 -0.0000
vn 0.9010 0.4339 -0.0000
vn 0.9738 -0.2231 -0.0431
vn 0.9749 -0.2225 -0.0000
vn 0.7796 -0.6253 -0.0350
vn 0.7818 -0.6235 -0.0000
vn 0.4292 -0.9030 -0.0196
vn 0.4339 -0.9010 -0.0000
vn -0.0068 -1.0000 0.0008
vn -0.0000 -1.0000 -0.0000
vn -0.9744 0.2248 -0.0000
vn -0.9734 0.2241 0.0473
vn -0.9734 0.2241 0.0479
vn -0.9004 0.4327 0.0461
vn -0.9010 0.4339 -0.0000
vn -0.9749 0.2225 -0.0000
vn -0.9742 0.2204 0.0489
vn -0.9749 -0.2225 -0.0000
vn -0.9742 -0.2204 0.0489
vn -0.7818 -0.6235 -0.0000
vn -0.7845 -0.6189 0.0393
vn -0.4339 -0.9010 -0.0000
vn -0.4400 -0.8977 0.0220
vn -0.9496 0.2185 0.2248
vn -0.8772 0.4337 0.2060
vn -0.9489 0.2247 0.2214
vn -0.9492 0.2247 0.2202
vn 0.7560 -0.6324 -0.1692
vn 0.4084 -0.9081 -0.0930
vn -0.4371 -0.8936 0.1018
vn -0.7679 -0.6145 0.1809
vn 0.9509 0.2265 -0.2108
vn 0.9509 -0.2265 -0.2108
vn -0.9496 -0.2185 0.2248
vn -0.0181 -0.9998 0.0039
vn 0.8792 0.4336 -0.1975
vn 0.9499 0.2246 -0.2174
vn 0.9502 0.2246 -0.2161
vn 0.8612 0.2246 -0.4558
vn 0.8619 0.2246 -0.4546
vn -0.8593 0.2247 0.4595
vn -0.8599 0.2247 0.4584
vn 0.7982 0.4336 -0.4183
vn 0.8640 0.2265 -0.4497
vn -0.8590 0.2185 0.4629
vn -0.7940 0.4337 0.4260
vn 0.8640 -0.2265 -0.4497
vn -0.8590 -0.2185 0.4629
vn 0.6864 -0.6324 -0.3591
vn -0.6950 -0.6145 0.3735
vn 0.3704 -0.9081 -0.1955
vn -0.3959 -0.8936 0.2115
vn -0.0165 -0.9998 0.0084
vn 0.5701 -0.6324 -0.5245
vn 0.3072 -0.9081 -0.2847
vn -0.3276 -0.8936 0.3068
vn -0.5746 -0.6145 0.5406
vn -0.0138 -0.9998 0.0124
vn 0.7139 0.2246 -0.6632
vn 0.7148 0.2246 -0.6622
vn -0.7111 0.2247 0.6662
vn -0.7119 0.2247 0.6654
vn 0.6627 0.4336 -0.6106
vn 0.7181 0.2265 -0.6580
vn -0.7099 0.2185 0.6695
vn -0.6567 0.4337 0.6170
vn 0.7181 -0.2265 -0.6580
vn -0.7099 -0.2185 0.6695
vn -0.5125 0.2185 0.8304
vn -0.4746 0.4337 0.7659
vn 0.5234 0.2265 -0.8215
vn 0.5234 -0.2265 -0.8215
vn -0.5125 -0.2185 0.8304
vn 0.4149 -0.6324 -0.6542
vn -0.4151 -0.6145 0.6709
vn 0.2230 -0.9081 -0.3545
vn -0.2371 -0.8936 0.3811
vn -0.0101 -0.9998 0.0155
vn 0.5179 0.2246 -0.8254
vn 0.5191 0.2246 -0.8247
vn -0.5144 0.2247 0.8276
vn -0.5154 0.2247 0.8269
vn 0.4821 0.4336 -0.7613
vn 0.2866 0.2246 -0.9313
vn 0.2879 0.2246 -0.9309
vn -0.2827 0.2247 0.9325
vn -0.2838 0.2247 0.9322
vn 0.2686 0.4336 -0.8602
vn 0.2929 0.2265 -0.9289
vn -0.2801 0.2185 0.9348
vn -0.2602 0.4337 0.8627
vn 0.2929 -0.2265 -0.9289
vn -0.2801 -0.2185 0.9348
vn 0.2314 -0.6324 -0.7393
vn -0.2273 -0.6145 0.7555
vn 0.1237 -0.9081 -0.4002
vn -0.1304 -0.8936 0.4295
vn -0.0057 -0.9998 0.0176
vn 0.0672 -0.6291 -0.7744
vn 0.0355 -0.9055 -0.4229
vn -0.0368 -0.8962 0.4421
vn -0.0633 -0.6176 0.7840
vn -0.0018 -0.9999 0.0117
vn 0.0810 0.2246 -0.9711
vn 0.0829 0.2245 -0.9709
vn -0.0789 0.2245 0.9713
vn -0.0808 0.2245 0.9711
vn 0.0762 0.4336 -0.8979
vn 0.0856 0.2250 -0.9706
vn -0.0775 0.2199 0.9724
vn -0.0741 0.4334 0.8982
vn 0.0855 -0.2250 -0.9706
vn -0.0775 -0.2199 0.9724
vn -0.0000 0.2225 0.9749
vn -0.0000 0.4339 0.9010
vn -0.0000 0.2225 -0.9749
vn -0.0000 -0.2225 -0.9749
vn -0.0000 -0.2225 0.9749
vn -0.0000 -0.6235 -0.7818
vn -0.0000 -0.6235 0.7818
vn -0.0000 -0.9010 -0.4339
vn -0.0000 -0.9010 0.4339
vn -0.0000 0.2248 -0.9744
vn -0.0000 0.2248 0.9744
vn -0.0000 0.4339 -0.9010
vt -0.258957 1.006753
vt -0.258957 1.237606
vt 0.394805 1.237606
vt 0.394805 1.006753
vt -0.258957 0.195233
vt -0.258957 0.013544
vt 0.394805 0.013544
vt 0.394805 0.195233
vt -0.258957 0.646012
vt -0.258957 0.997347
vt 0.394805 0.997347
vt 0.394806 0.646012
vt 0.329509 0.005138
vt 0.329509 0.241734
vt -0.153743 0.241734
vt -0.153743 0.005138
vt 0.329509 0.504334
vt -0.153743 0.504335
vt 0.329509 0.740930
vt -0.153743 0.740930
vt 0.329509 0.533535
vt 0.329509 0.738845
vt -0.153743 0.738845
vt -0.153743 0.533535
vt 0.329509 0.994861
vt -0.153743 0.994861
vt 2.714325 -0.006102
vt 2.714325 0.206588
vt 2.052948 0.206588
vt 2.052948 -0.006102
vt 2.688709 0.018021
vt 2.688709 0.169361
vt 1.736902 0.169361
vt 1.745938 0.018021
vt 2.714325 1.270038
vt 2.714325 1.482728
vt 2.052948 1.482728
vt 2.052948 1.270038
vt 2.714325 0.631968
vt 2.714325 0.844658
vt 2.052948 0.844658
vt 2.052948 0.631968
vt 2.714325 1.695418
vt 2.714325 1.908109
vt 2.052948 1.908109
vt 2.052948 1.695418
vt 3.337347 0.674754
vt 3.337347 0.992236
vt 2.511244 0.992235
vt 2.511244 0.674754
vt 2.714325 0.419278
vt 2.052948 0.419278
vt 4.268844 0.993903
vt 4.268844 0.666461
vt 3.198754 0.666461
vt 3.198754 0.993904
vt 2.714325 1.057348
vt 2.052948 1.057348
vt 3.981991 0.005643
vt 3.981991 0.228148
vt 3.001989 0.228148
vt 3.001989 0.005643
vt 3.964236 0.188033
vt 3.964236 0.006958
vt 3.072226 0.006958
vt 3.072226 0.188033
vt 2.714325 2.120799
vt 2.052948 2.120799
vt 2.399425 0.190849
vt 2.399425 0.015062
vt 1.419986 0.015062
vt 1.430482 0.190849
vt 0.497716 0.015062
vt 0.517992 0.190849
vt 0.841713 0.169361
vt 0.859169 0.018021
vt 1.685141 0.992235
vt 1.685141 0.674754
vt 2.128666 0.666461
vt 2.128666 0.993904
vt 1.391571 2.120799
vt 1.391572 1.908109
vt 1.391571 0.206588
vt 1.391571 -0.006102
vt 1.391571 1.695418
vt 1.391571 0.419278
vt 1.391571 1.482728
vt 1.391571 0.631968
vt 1.391571 1.270038
vt 1.391571 0.844658
vt 1.391571 1.057348
vt 2.021988 0.228147
vt 2.021988 0.005643
vt 2.180214 0.006958
vt 2.180214 0.188033
vt 0.730194 1.482728
vt 0.730194 1.270038
vt 0.730194 0.844658
vt 0.730194 0.631968
vt 0.730194 1.057348
vt 1.041986 0.228147
vt 1.041986 0.005643
vt 1.288202 0.006958
vt 1.288202 0.188033
vt -0.304529 0.015062
vt -0.275855 0.190849
vt 0.064152 0.169361
vt 0.088839 0.018021
vt 0.859039 0.992235
vt 0.859039 0.674754
vt 1.058578 0.666461
vt 1.058578 0.993904
vt 0.730194 2.120799
vt 0.730194 1.908109
vt 0.730194 0.206588
vt 0.730194 -0.006102
vt 0.730194 1.695418
vt 0.730194 0.419278
vt 0.068817 0.206588
vt 0.068817 -0.006102
vt 0.068818 1.908109
vt 0.068818 1.695418
vt 0.068817 0.419278
vt 0.068817 1.482728
vt 0.068817 0.631968
vt 0.068817 1.270038
vt 0.068817 0.844658
vt 0.068817 1.057348
vt 0.061984 0.228147
vt 0.061984 0.005643
vt 0.396191 0.006958
vt 0.396191 0.188033
vt 2.273993 0.187221
vt 2.302666 0.011434
vt 1.545080 0.011434
vt 1.524806 0.187221
vt 2.341690 0.021260
vt 2.366376 0.172601
vt 1.627260 0.172601
vt 1.609806 0.021260
vt 0.032936 0.992235
vt 0.032936 0.674754
vt -0.011511 0.666461
vt -0.011511 0.993904
vt 0.068818 2.120799
vt 0.650884 0.011434
vt 0.640390 0.187221
vt 0.756239 0.172601
vt 0.747205 0.021260
vt -0.793166 0.992235
vt -0.793166 0.674754
vt -1.081599 0.666461
vt -1.081599 0.993904
vt -0.592559 2.120799
vt -0.592559 1.908109
vt -0.592559 0.206588
vt -0.592559 -0.006102
vt -0.592559 1.695418
vt -0.592559 0.419278
vt -0.592559 1.482728
vt -0.592559 0.631968
vt -0.592559 1.270038
vt -0.592559 0.844658
vt -0.592559 1.057348
vt -0.918017 0.228147
vt -0.918017 0.005643
vt -0.495821 0.006958
vt -0.495821 0.188033
vt -1.253937 1.482728
vt -1.253937 1.270038
vt -1.253937 0.844658
vt -1.253937 0.631968
vt -1.253937 1.057348
vt -1.898019 0.228147
vt -1.898019 0.005643
vt -1.387832 0.006958
vt -1.387832 0.188033
vt -0.318981 0.011434
vt -0.318978 0.187221
vt -0.187326 0.172601
vt -0.187325 0.021260
vt -1.619269 0.992235
vt -1.619269 0.674754
vt -2.151689 0.666461
vt -2.151689 0.993904
vt -1.253937 2.120799
vt -1.253937 1.908109
vt -1.253937 0.206588
vt -1.253937 -0.006102
vt -1.253937 1.695418
vt -1.253937 0.419278
vt -1.688131 0.206588
vt -1.688131 -0.006102
vt -1.688131 1.908109
vt -1.688131 1.695419
vt -1.688131 0.419278
vt -1.688131 1.482728
vt -1.688131 0.631968
vt -1.688131 1.270038
vt -1.688131 0.844658
vt -1.688131 1.057348
vt -2.541391 0.228147
vt -2.541391 0.005643
vt -1.973439 0.006958
vt -1.973439 0.188033
vt -1.003072 0.011434
vt -1.003069 0.187221
vt -0.776282 0.172601
vt -0.776280 0.021260
vt -2.161606 0.992235
vt -2.161606 0.674754
vt -2.854203 0.666461
vt -2.854203 0.993904
vt -1.688131 2.120799
s 1
usemtl concrete_base
f 6/1/1 3/2/1 4/3/1 5/4/1
f 7/5/2 6/6/2 5/7/3 8/8/4
f 10/9/1 7/10/1 8/11/1 9/12/1
f 20/1/1 19/4/1 4/3/1 3/2/1
f 21/5/17 22/8/18 19/7/19 20/6/17
f 24/9/1 23/12/1 22/11/1 21/10/1
f 19/31/19 22/32/18 43/33/32 42/34/33
f 9/47/1 8/48/1 36/49/1 37/50/1
f 22/53/1 23/54/1 44/55/1 43/56/1
f 5/59/1 4/60/1 34/61/1 35/62/1
f 4/63/1 19/64/1 42/65/1 34/66/1
f 8/69/4 5/70/3 35/71/43 36/72/44
f 36/72/44 35/71/43 51/73/45 52/74/46
f 42/34/33 43/33/32 59/75/47 58/76/48
f 37/50/1 36/49/1 52/77/1 53/78/1
f 43/56/1 44/55/1 60/79/1 59/80/1
f 35/62/1 34/61/1 50/92/1 51/93/1
f 34/66/1 42/65/1 58/94/1 50/95/1
f 51/93/1 50/92/1 66/101/1 67/102/1
f 50/95/1 58/94/1 74/103/1 66/104/1
f 52/74/46 51/73/45 67/105/65 68/106/66
f 58/76/48 59/75/47 75/107/67 74/108/68
f 53/78/1 52/77/1 68/109/1 69/110/1
f 59/80/1 60/79/1 76/111/1 75/112/1
f 67/102/1 66/101/1 82/129/1 83/130/1
f 66/104/1 74/103/1 90/131/1 82/132/1
f 68/133/66 67/134/65 83/135/85 84/136/86
f 74/137/68 75/138/67 91/139/87 90/140/88
f 69/110/1 68/109/1 84/141/1 85/142/1
f 75/112/1 76/111/1 92/143/1 91/144/1
f 84/136/86 83/135/85 99/146/90 100/147/91
f 90/140/88 91/139/87 107/148/92 106/149/93
f 85/142/1 84/141/1 100/150/1 101/151/1
f 91/144/1 92/143/1 108/152/1 107/153/1
f 83/130/1 82/129/1 98/165/1 99/166/1
f 82/132/1 90/131/1 106/167/1 98/168/1
f 99/166/1 98/165/1 114/174/1 115/175/1
f 98/168/1 106/167/1 122/176/1 114/177/1
f 100/147/91 99/146/90 115/178/110 116/179/111
f 106/149/93 107/148/92 123/180/112 122/181/113
f 101/151/1 100/150/1 116/182/1 117/183/1
f 107/153/1 108/152/1 124/184/1 123/185/1
f 115/175/1 114/174/1 130/202/1 131/203/1
f 114/177/1 122/176/1 138/204/1 130/205/1
f 116/179/111 115/178/110 131/206/129 132/207/129
f 122/181/113 123/180/112 139/208/130 138/209/130
f 117/183/1 116/182/1 132/210/1 133/211/1
f 123/185/1 124/184/1 140/212/1 139/213/1
usemtl brick_modern_01
f 9/13/5 11/14/6 12/15/7 10/16/8
f 11/14/6 13/17/9 14/18/10 12/15/7
f 13/17/9 15/19/11 16/20/12 14/18/10
f 15/21/11 17/22/13 18/23/14 16/24/12
f 17/22/13 1/25/15 2/26/16 18/23/14
f 23/13/20 24/16/21 26/15/22 25/14/23
f 25/14/23 26/15/22 28/18/24 27/17/25
f 27/17/25 28/18/24 30/20/26 29/19/27
f 29/21/27 30/24/26 32/23/28 31/22/29
f 31/22/29 32/23/28 2/26/16 1/25/15
f 23/27/20 25/28/23 45/29/30 44/30/31
f 17/35/13 15/36/11 40/37/34 41/38/35
f 29/39/27 31/40/29 48/41/36 47/42/37
f 13/43/9 11/44/6 38/45/38 39/46/39
f 25/28/23 27/51/25 46/52/40 45/29/30
f 1/57/15 17/35/13 41/38/35 33/58/41
f 31/40/29 1/57/15 33/58/41 48/41/36
f 15/36/11 13/43/9 39/46/39 40/37/34
f 27/51/25 29/39/27 47/42/37 46/52/40
f 11/44/6 9/67/5 37/68/42 38/45/38
f 38/45/38 37/68/42 53/81/49 54/82/50
f 44/30/31 45/29/30 61/83/51 60/84/52
f 39/46/39 38/45/38 54/82/50 55/85/53
f 45/29/30 46/52/40 62/86/54 61/83/51
f 40/37/34 39/46/39 55/85/53 56/87/55
f 46/52/40 47/42/37 63/88/56 62/86/54
f 41/38/35 40/37/34 56/87/55 57/89/57
f 47/42/37 48/41/36 64/90/58 63/88/56
f 33/58/41 41/38/35 57/89/57 49/91/59
f 48/41/36 33/58/41 49/91/59 64/90/58
f 57/89/57 56/87/55 72/96/60 73/97/61
f 63/88/56 64/90/58 80/98/62 79/99/63
f 49/91/59 57/89/57 73/97/61 65/100/64
f 64/90/58 49/91/59 65/100/64 80/98/62
f 54/82/50 53/81/49 69/113/69 70/114/70
f 60/84/52 61/83/51 77/115/71 76/116/72
f 55/85/53 54/82/50 70/114/70 71/117/73
f 61/83/51 62/86/54 78/118/74 77/115/71
f 56/87/55 55/85/53 71/117/73 72/96/60
f 62/86/54 63/88/56 79/99/63 78/118/74
f 76/116/72 77/115/71 93/119/75 92/120/76
f 71/117/73 70/114/70 86/121/77 87/122/78
f 77/115/71 78/118/74 94/123/79 93/119/75
f 72/96/60 71/117/73 87/122/78 88/124/80
f 78/118/74 79/99/63 95/125/81 94/123/79
f 73/97/61 72/96/60 88/124/80 89/126/82
f 79/99/63 80/98/62 96/127/83 95/125/81
f 65/100/64 73/97/61 89/126/82 81/128/84
f 80/98/62 65/100/64 81/128/84 96/127/83
f 70/114/70 69/113/69 85/145/89 86/121/77
f 86/121/77 85/145/89 101/154/94 102/155/95
f 92/120/76 93/119/75 109/156/96 108/157/97
f 87/122/78 86/121/77 102/155/95 103/158/98
f 93/119/75 94/123/79 110/159/99 109/156/96
f 88/124/80 87/122/78 103/158/98 104/160/100
f 94/123/79 95/125/81 111/161/101 110/159/99
f 89/126/82 88/124/80 104/160/100 105/162/102
f 95/125/81 96/127/83 112/163/103 111/161/101
f 81/128/84 89/126/82 105/162/102 97/164/104
f 96/127/83 81/128/84 97/164/104 112/163/103
f 105/162/102 104/160/100 120/169/105 121/170/106
f 111/161/101 112/163/103 128/171/107 127/172/108
f 97/164/104 105/162/102 121/170/106 113/173/109
f 112/163/103 97/164/104 113/173/109 128/171/107
f 102/155/95 101/154/94 117/186/114 118/187/115
f 108/157/97 109/156/96 125/188/116 124/189/117
f 103/158/98 102/155/95 118/187/115 119/190/118
f 109/156/96 110/159/99 126/191/119 125/188/116
f 104/160/100 103/158/98 119/190/118 120/169/105
f 110/159/99 111/161/101 127/172/108 126/191/119
f 124/189/117 125/188/116 141/192/120 140/193/121
f 119/190/118 118/187/115 134/194/122 135/195/123
f 125/188/116 126/191/119 142/196/124 141/192/120
f 120/169/105 119/190/118 135/195/123 136/197/125
f 126/191/119 127/172/108 143/198/126 142/196/124
f 121/170/106 120/169/105 136/197/125 137/199/127
f 127/172/108 128/171/107 144/200/128 143/198/126
f 113/173/109 121/170/106 137/199/127 129/201/16
f 128/171/107 113/173/109 129/201/16 144/200/128
f 118/187/115 117/186/114 133/214/131 134/194/122
