# Blender 4.5.9 LTS
# www.blender.org
mtllib SerwersP_012.mtl
o SerwersP_012
v -0.058480 0.743783 -1.240659
v -0.058480 -0.073102 -1.240659
v -0.058480 -1.431155 1.240659
v -0.058480 -0.073102 1.240659
v -0.058480 -1.431156 -1.240659
v -0.058480 0.743782 1.240659
v -0.058480 1.803307 -0.000001
v -0.058480 1.676455 0.566770
v -0.058480 1.344116 0.995074
v -0.058480 1.344115 -0.995073
v -0.058480 1.676455 -0.566771
v -0.058480 0.734095 -1.191392
v -0.058480 -0.073102 -1.191392
v -0.058480 -1.381889 1.191392
v -0.058480 -0.073102 1.191392
v -0.058480 1.313269 0.954463
v -0.058480 0.734095 1.191393
v -0.058480 -1.381889 -1.191393
v -0.058480 1.630782 -0.545267
v -0.058480 1.752821 -0.000001
v -0.058480 1.630782 0.545266
v -0.058480 1.313268 -0.954463
v 0.058480 0.734095 -1.191392
v 0.058480 -0.073102 -1.191392
v 0.058480 -1.381889 1.191392
v 0.058480 -0.073102 1.191392
v 0.058480 1.313269 0.954463
v 0.058480 0.734095 1.191393
v 0.058480 -1.381889 -1.191393
v 0.058480 1.630782 -0.545267
v 0.058480 1.752821 -0.000001
v 0.058480 1.630782 0.545266
v 0.058480 1.313268 -0.954463
v 0.058480 0.743783 -1.240659
v 0.058480 -0.073102 -1.240659
v 0.058480 -1.431155 1.240659
v 0.058480 -0.073102 1.240659
v 0.058480 1.344116 0.995074
v 0.058480 0.743782 1.240659
v 0.058480 -1.431156 -1.240659
v 0.058480 1.676455 -0.566771
v 0.058480 1.803307 -0.000001
v 0.058480 1.676455 0.566770
v 0.058480 1.344115 -0.995073
v -0.020423 1.732769 -0.085844
v -0.020423 1.732769 -0.150526
v 0.020423 1.732769 -0.085844
v 0.020423 1.732769 -0.150526
v -0.020423 1.691463 -0.339896
v -0.020423 1.691463 -0.404578
v 0.020423 1.691463 -0.339896
v 0.020423 1.691463 -0.404578
v -0.020423 -1.403473 -0.573957
v -0.020423 1.615459 -0.573958
v -0.020423 -1.403473 -0.638640
v -0.020423 1.615459 -0.638640
v 0.020423 -1.403473 -0.573957
v 0.020423 1.615459 -0.573958
v 0.020423 -1.403473 -0.638640
v 0.020423 1.615459 -0.638640
v -0.020423 -1.403473 -0.869370
v -0.020423 1.380977 -0.869371
v -0.020423 -1.403473 -0.934053
v -0.020423 1.380977 -0.934053
v 0.020423 -1.403473 -0.869370
v 0.020423 1.380977 -0.869371
v 0.020423 -1.403473 -0.934053
v 0.020423 1.380977 -0.934053
v -0.020423 1.732769 0.085844
v -0.020423 1.732769 0.150526
v 0.020423 1.732769 0.085844
v 0.020423 1.732769 0.150526
v -0.020423 1.691463 0.339896
v -0.020423 1.691463 0.404578
v 0.020423 1.691463 0.339896
v 0.020423 1.691463 0.404578
v -0.020423 -1.403473 0.573958
v -0.020423 1.615459 0.573958
v -0.020423 -1.403473 0.638640
v -0.020423 1.615459 0.638640
v 0.020423 -1.403473 0.573958
v 0.020423 1.615459 0.573958
v 0.020423 -1.403473 0.638640
v 0.020423 1.615459 0.638640
v -0.020423 -1.403472 0.869371
v -0.020423 1.380978 0.869370
v -0.020423 -1.403472 0.934053
v -0.020423 1.380978 0.934053
v 0.020423 -1.403472 0.869371
v 0.020423 1.380978 0.869370
v 0.020423 -1.403472 0.934053
v 0.020423 1.380978 0.934053
v -0.016773 -1.051672 -1.227153
v -0.016773 -1.051672 1.211238
v -0.016773 -0.998549 -1.227153
v -0.016773 -0.998549 1.211238
v 0.016773 -1.051672 -1.227153
v 0.016773 -1.051672 1.211238
v 0.016773 -0.998549 -1.227153
v 0.016773 -0.998549 1.211238
v -0.016773 -0.335919 -1.227153
v -0.016773 -0.335919 1.211238
v -0.016773 -0.282797 -1.227153
v -0.016773 -0.282796 1.211238
v 0.016773 -0.335919 -1.227153
v 0.016773 -0.335919 1.211238
v 0.016773 -0.282797 -1.227153
v 0.016773 -0.282796 1.211238
v -0.016773 0.654366 -1.227153
v -0.016773 0.654366 1.211238
v -0.016773 0.707489 -1.227153
v -0.016773 0.707489 1.211238
v 0.016773 0.654366 -1.227153
v 0.016773 0.654366 1.211238
v 0.016773 0.707489 -1.227153
v 0.016773 0.707489 1.211238
v -0.058480 -1.381889 -0.534329
v -0.058480 -1.381889 0.534330
v -0.058480 -1.431156 -0.534329
v -0.058480 -1.431156 0.534330
v 0.058480 -1.431156 -0.534329
v 0.058480 -1.431156 0.534330
v 0.058480 -1.381889 -0.534329
v 0.058480 -1.381889 0.534330
v -0.020423 0.636350 -0.085844
v -0.020423 0.636350 -0.150526
v 0.020423 0.636350 -0.150526
v 0.020423 0.636350 -0.085844
v -0.020423 0.636350 -0.339896
v -0.020423 0.636350 -0.404578
v 0.020423 0.636350 -0.404578
v 0.020423 0.636350 -0.339896
v -0.020423 0.636350 0.150526
v -0.020423 0.636350 0.085844
v 0.020423 0.636350 0.150526
v 0.020423 0.636350 0.085844
v -0.020423 0.636350 0.404578
v -0.020423 0.636350 0.339896
v 0.020423 0.636350 0.404578
v 0.020423 0.636350 0.339896
v -0.016773 -1.051672 -0.534329
v -0.016773 -1.051672 0.534329
v -0.016773 -0.998549 -0.534329
v -0.016773 -0.998549 0.534329
v 0.016773 -0.998549 -0.534329
v 0.016773 -0.998549 0.534329
v 0.016773 -1.051672 -0.534329
v 0.016773 -1.051672 0.534329
v -0.016773 -0.335919 -0.534329
v -0.016773 -0.335919 0.534329
v -0.016773 -0.282797 -0.534329
v -0.016773 -0.282797 0.534329
v 0.016773 -0.282797 -0.534329
v 0.016773 -0.282797 0.534329
v 0.016773 -0.335919 -0.534329
v 0.016773 -0.335919 0.534329
v -0.058480 -1.381889 -0.492940
v 0.058480 -1.381889 -0.492940
v -0.058480 -1.431156 0.492940
v 0.058480 -1.431156 0.492940
v -0.058480 -1.381889 0.492940
v 0.058480 -1.381889 0.492940
v -0.058480 -1.431156 -0.492940
v 0.058480 -1.431156 -0.492940
v -0.058480 0.608746 -0.534329
v 0.058480 0.608746 -0.534329
v -0.058480 0.608746 0.534329
v 0.058480 0.608746 0.534329
v -0.058480 0.608746 -0.492940
v 0.058480 0.608746 -0.492940
v -0.058480 0.608746 0.492940
v 0.058480 0.608746 0.492940
v -0.058480 0.642490 -0.534329
v 0.058480 0.642490 -0.534329
v -0.058480 0.642491 0.534329
v 0.058480 0.642491 0.534329
v -0.058480 0.642490 -0.492940
v 0.058480 0.642490 -0.492940
v -0.058480 0.642491 0.492940
v 0.058480 0.642491 0.492940
vn 1.0000 -0.0000 -0.0000
vn -1.0000 -0.0000 -0.0000
vn -0.0000 -1.0000 -0.0000
vn -0.0000 -0.9047 -0.4260
vn -0.0000 -0.0000 1.0000
vn -0.0000 -0.1929 0.9812
vn -0.0000 -0.6049 -0.7963
vn -0.0000 -0.0000 -1.0000
vn -0.0000 0.1929 0.9812
vn -0.0000 -0.6049 0.7963
vn -0.0000 -0.1929 -0.9812
vn -0.0000 1.0000 -0.0000
vn -0.0000 0.9047 -0.4260
vn -0.0000 -0.9047 0.4260
vn -0.0000 0.9047 0.4260
vn -0.0000 0.1929 -0.9812
vn -0.0000 0.6049 0.7963
vn -0.0000 0.6049 -0.7963
vt 0.302083 -0.410439
vt 0.302083 -0.448609
vt 0.934982 -0.448609
vt 0.927477 -0.410439
vt 0.302084 1.435675
vt -0.711928 1.435674
vt -0.750098 1.473845
vt 0.302083 1.473845
vt 1.376204 1.252109
vt 0.927476 1.435675
vt 0.934982 1.473845
vt 1.400103 1.283573
vt -0.711928 -0.410439
vt -0.750098 -0.448610
vt -0.750098 0.098635
vt -0.711928 0.098635
vt -0.711928 0.926601
vt -0.750098 0.926601
vt 1.622204 0.090161
vt 1.716757 0.512617
vt 1.755871 0.512617
vt 1.657590 0.073500
vt 1.622204 0.935075
vt 1.657590 0.951736
vt 1.376204 -0.226873
vt 1.400103 -0.258336
vt 0.450344 0.512617
vt 0.540961 0.512617
vt 0.540961 0.935075
vt 0.450344 0.935075
vt 0.450344 0.318505
vt 0.540961 0.318505
vt 0.540961 0.943898
vt 0.450344 0.943898
vt 0.450344 0.098635
vt 0.450344 -0.448610
vt 0.540961 -0.448610
vt 0.540961 0.098635
vt 0.540961 0.926601
vt 0.540961 1.473845
vt 0.450344 1.473845
vt 0.450344 0.926601
vt 0.540961 1.252109
vt 0.450344 1.252109
vt 0.450344 0.318505
vt 0.540961 0.318505
vt 0.540961 -0.695506
vt 0.450344 -0.695506
vt 0.540961 0.951403
vt 0.450344 0.951403
vt 0.540961 1.392625
vt 0.450344 1.392625
vt 0.540961 0.943898
vt 0.450344 0.943898
vt 0.540961 0.073500
vt 0.450344 0.073500
vt 0.450344 -0.226873
vt 0.540961 -0.226873
vt 0.540961 0.090161
vt 0.450344 0.090161
vt 0.450344 0.951736
vt 0.540961 0.951736
vt 0.450344 0.951404
vt 0.540961 0.951404
vt 0.540961 -0.410439
vt 0.450344 -0.410439
vt 0.450344 1.435674
vt 0.540961 1.435674
vt 0.450344 1.283573
vt 0.540961 1.283573
vt 0.450344 -0.733677
vt 0.540961 -0.733677
vt 0.450344 1.416524
vt 0.540961 1.416524
vt 0.540961 1.416524
vt 0.450344 1.416524
vt 0.540961 -0.258336
vt 0.450344 -0.258336
vt 1.701221 0.446109
vt 1.701221 0.395995
vt 0.851746 0.395995
vt 0.851746 0.446109
vt 0.479830 0.868168
vt 0.479830 1.717642
vt 0.511476 1.717642
vt 0.511476 0.868168
vt 1.669218 0.249277
vt 1.669218 0.199162
vt 0.851746 0.199162
vt 0.851746 0.249277
vt 0.479830 1.685640
vt 0.511476 1.685640
vt -0.728650 0.067932
vt 1.610333 0.067932
vt 1.610333 0.017818
vt -0.728650 0.017818
vt 0.479830 -0.712229
vt 0.479830 1.626754
vt 0.511476 1.626754
vt 0.511476 -0.712229
vt -0.728650 -0.160946
vt 1.428663 -0.160946
vt 1.428663 -0.211060
vt -0.728650 -0.211060
vt 0.479830 1.445084
vt 0.511476 1.445084
vt 0.851746 0.629241
vt 1.701221 0.629241
vt 1.701221 0.579127
vt 0.851746 0.579127
vt 0.851746 0.826073
vt 1.669218 0.826073
vt 1.669218 0.775959
vt 0.851746 0.775959
vt -0.728650 0.957304
vt -0.728650 1.007418
vt 1.610332 1.007418
vt 1.610332 0.957304
vt 0.479830 -0.712229
vt 0.511476 -0.712229
vt -0.728650 1.186181
vt -0.728650 1.236295
vt 1.428663 1.236295
vt 1.428663 1.186181
vt -0.414926 -0.438145
vt -0.456084 -0.438145
vt -0.456084 0.098635
vt -0.414927 0.098635
vt -0.456085 1.451051
vt -0.414927 1.451051
vt -0.414927 0.926601
vt -0.456085 0.926601
vt 0.508648 -0.438145
vt 0.482657 -0.438145
vt 0.482657 0.098635
vt 0.508648 0.098635
vt 0.482657 0.926601
vt 0.482657 1.451051
vt 0.508648 1.451051
vt 0.508648 0.926601
vt 0.098460 0.926601
vt 0.098460 1.451051
vt 0.139618 1.451051
vt 0.139618 0.926601
vt 0.139618 -0.438145
vt 0.098460 -0.438145
vt 0.098460 0.098635
vt 0.139618 0.098635
vt 0.865705 -0.438145
vt 0.865705 1.451051
vt 0.906863 1.451051
vt 0.906863 -0.438145
vt 0.508648 0.156039
vt 0.482657 0.156039
vt 0.482657 0.114881
vt 0.508648 0.114881
vt 0.508648 -0.398505
vt 0.482657 -0.398505
vt 0.482657 -0.439663
vt 0.508648 -0.439663
vt 0.540961 0.130702
vt 0.450344 0.130702
vt -0.711928 0.894534
vt -0.750098 0.894534
vt 0.508648 -0.439663
vt 0.482657 -0.439663
vt 0.479830 0.249277
vt 0.479830 0.199162
vt 0.511476 0.199162
vt 0.511476 0.249277
vt 0.479830 0.446109
vt 0.479830 0.395995
vt 0.511476 0.395995
vt 0.511476 0.446109
vt 0.479830 0.826073
vt 0.479830 0.775959
vt 0.511476 0.775959
vt 0.511476 0.826073
vt 0.479830 0.629241
vt 0.479830 0.579127
vt 0.511476 0.579127
vt 0.511476 0.629241
vt -0.750098 0.130702
vt -0.711928 0.130702
vt 0.540961 0.846781
vt 0.450344 0.846781
vt 0.830359 0.098635
vt 0.830359 0.130702
vt 0.450344 0.894534
vt 0.540961 0.894534
vt 0.830359 0.926601
vt 0.830359 0.894534
vt 0.856504 0.894534
vt 0.856504 0.926601
vt 0.540961 0.872925
vt 0.450344 0.872925
vt 0.856504 0.098635
vt 0.856504 0.130702
s 1
usemtl Metal
f 24/1/1 35/2/1 34/3/1 23/4/1
f 13/1/2 12/4/2 1/3/2 2/2/2
f 15/5/2 14/6/2 3/7/2 4/8/2
f 16/9/2 17/10/2 6/11/2 9/12/2
f 18/13/2 13/1/2 2/2/2 5/14/2
f 18/13/2 5/14/2 119/15/2 117/16/2
f 14/6/2 118/17/2 120/18/2 3/7/2
f 17/10/2 15/5/2 4/8/2 6/11/2
f 19/19/2 20/20/2 7/21/2 11/22/2
f 20/20/2 21/23/2 8/24/2 7/21/2
f 21/23/2 16/9/2 9/12/2 8/24/2
f 12/4/2 22/25/2 10/26/2 1/3/2
f 22/25/2 19/19/2 11/22/2 10/26/2
f 26/5/1 37/8/1 36/7/1 25/6/1
f 27/9/1 38/12/1 39/11/1 28/10/1
f 29/13/1 40/14/1 35/2/1 24/1/1
f 121/15/1 40/14/1 29/13/1 123/16/1
f 124/17/1 25/6/1 36/7/1 122/18/1
f 28/10/1 39/11/1 37/8/1 26/5/1
f 30/19/1 41/22/1 42/21/1 31/20/1
f 31/20/1 42/21/1 43/24/1 32/23/1
f 32/23/1 43/24/1 38/12/1 27/9/1
f 23/4/1 34/3/1 44/26/1 33/25/1
f 33/25/1 44/26/1 41/22/1 30/19/1
f 20/27/3 31/28/3 32/29/4 21/30/4
f 13/31/5 24/32/5 23/33/6 12/34/6
f 119/35/3 5/36/3 40/37/3 121/38/3
f 122/39/3 36/40/3 3/41/3 120/42/3
f 21/30/4 32/29/4 27/43/7 16/44/7
f 15/45/8 26/46/8 25/47/8 14/48/8
f 4/31/5 37/32/5 39/49/9 6/50/9
f 12/34/6 23/33/6 33/51/10 22/52/10
f 16/52/7 27/51/7 28/53/11 17/54/11
f 7/27/12 42/28/12 41/55/13 11/56/13
f 22/57/10 33/58/10 30/59/14 19/60/14
f 18/48/5 29/47/5 24/32/5 13/31/5
f 8/61/15 43/62/15 42/28/12 7/27/12
f 1/63/16 34/64/16 35/32/8 2/31/8
f 29/65/12 18/66/12 117/35/12 123/38/12
f 118/42/12 14/67/12 25/68/12 124/39/12
f 9/69/17 38/70/17 43/62/15 8/61/15
f 3/71/5 36/72/5 37/32/5 4/31/5
f 17/54/11 28/53/11 26/46/8 15/45/8
f 10/73/18 44/74/18 34/64/16 1/63/16
f 6/50/9 39/49/9 38/75/17 9/76/17
f 19/60/14 30/59/14 31/28/3 20/27/3
f 11/56/13 41/55/13 44/77/18 10/78/18
f 2/31/8 35/32/8 40/72/8 5/71/8
f 45/79/2 46/80/2 126/81/2 125/82/2
f 126/83/8 46/84/8 48/85/8 127/86/8
f 48/80/1 47/79/1 128/82/1 127/81/1
f 128/86/5 47/85/5 45/84/5 125/83/5
f 49/87/2 50/88/2 130/89/2 129/90/2
f 130/83/8 50/91/8 52/92/8 131/86/8
f 52/88/1 51/87/1 132/90/1 131/89/1
f 132/86/5 51/92/5 49/91/5 129/83/5
f 53/93/2 54/94/2 56/95/2 55/96/2
f 55/97/8 56/98/8 60/99/8 59/100/8
f 59/96/1 60/95/1 58/94/1 57/93/1
f 57/100/5 58/99/5 54/98/5 53/97/5
f 61/101/2 62/102/2 64/103/2 63/104/2
f 63/97/8 64/105/8 68/106/8 67/100/8
f 67/104/1 68/103/1 66/102/1 65/101/1
f 65/100/5 66/106/5 62/105/5 61/97/5
f 133/107/2 70/108/2 69/109/2 134/110/2
f 135/86/5 72/85/5 70/84/5 133/83/5
f 136/110/1 71/109/1 72/108/1 135/107/1
f 134/83/8 69/84/8 71/85/8 136/86/8
f 137/111/2 74/112/2 73/113/2 138/114/2
f 139/86/5 76/92/5 74/91/5 137/83/5
f 140/114/1 75/113/1 76/112/1 139/111/1
f 138/83/8 73/91/8 75/92/8 140/86/8
f 77/115/2 79/116/2 80/117/2 78/118/2
f 79/119/5 83/120/5 84/99/5 80/98/5
f 83/116/1 81/115/1 82/118/1 84/117/1
f 81/120/8 77/119/8 78/98/8 82/99/8
f 85/121/2 87/122/2 88/123/2 86/124/2
f 87/119/5 91/120/5 92/106/5 88/105/5
f 91/122/1 89/121/1 90/124/1 92/123/1
f 89/120/8 85/119/8 86/105/8 90/106/8
f 95/125/2 93/126/2 141/127/2 143/128/2
f 94/129/2 96/130/2 144/131/2 142/132/2
f 99/133/12 95/134/12 143/135/12 145/136/12
f 144/137/12 96/138/12 100/139/12 146/140/12
f 97/126/1 99/125/1 145/128/1 147/127/1
f 146/131/1 100/130/1 98/129/1 148/132/1
f 141/135/3 93/134/3 97/133/3 147/136/3
f 148/140/3 98/139/3 94/138/3 142/137/3
f 150/141/2 102/142/2 104/143/2 152/144/2
f 103/145/2 101/146/2 149/147/2 151/148/2
f 152/137/12 104/138/12 108/139/12 154/140/12
f 107/133/12 103/134/12 151/135/12 153/136/12
f 154/144/1 108/143/1 106/142/1 156/141/1
f 155/147/1 105/146/1 107/145/1 153/148/1
f 156/140/3 106/139/3 102/138/3 150/137/3
f 149/135/3 101/134/3 105/133/3 155/136/3
f 109/149/2 110/150/2 112/151/2 111/152/2
f 111/134/12 112/138/12 116/139/12 115/133/12
f 115/152/1 116/151/1 114/150/1 113/149/1
f 113/133/3 114/139/3 110/138/3 109/134/3
f 153/153/5 151/154/5 149/155/5 155/156/5
f 145/157/5 143/158/5 141/159/5 147/160/5
f 119/35/3 121/38/3 164/161/3 163/162/3
f 150/155/8 152/154/8 154/153/8 156/156/8
f 120/18/2 118/17/2 161/163/2 159/164/2
f 144/158/8 146/157/8 148/165/8 142/166/8
f 129/167/3 130/168/3 131/169/3 132/170/3
f 125/171/3 126/172/3 127/173/3 128/174/3
f 137/175/3 138/176/3 140/177/3 139/178/3
f 133/179/3 134/180/3 136/181/3 135/182/3
f 157/48/5 163/71/5 164/72/5 158/47/5
f 160/72/8 159/71/8 161/48/8 162/47/8
f 117/16/2 119/15/2 163/183/2 157/184/2
f 124/17/1 122/18/1 160/164/1 162/163/1
f 121/15/1 123/16/1 158/184/1 164/183/1
f 157/48/5 158/47/5 170/185/5 169/186/5
f 158/184/1 123/16/1 166/187/1 170/188/1
f 122/39/3 120/42/3 159/189/3 160/190/3
f 168/191/1 172/192/1 180/193/1 176/194/1
f 167/186/5 168/185/5 176/195/5 175/196/5
f 124/17/1 162/163/1 172/192/1 168/191/1
f 162/47/8 161/48/8 171/186/8 172/185/8
f 117/16/2 157/184/2 169/188/2 165/187/2
f 123/47/8 117/48/8 165/186/8 166/185/8
f 161/163/2 118/17/2 167/191/2 171/192/2
f 118/48/5 124/47/5 168/185/5 167/186/5
f 174/38/12 173/35/12 177/162/12 178/161/12
f 175/42/12 176/39/12 180/190/12 179/189/12
f 171/192/2 167/191/2 175/194/2 179/193/2
f 179/189/12 180/190/12 178/161/12 177/162/12
f 166/185/8 165/186/8 173/196/8 174/195/8
f 170/188/1 166/187/1 174/197/1 178/198/1
f 165/187/2 169/188/2 177/198/2 173/197/2
f 171/192/2 179/193/2 177/198/2 169/188/2
f 180/193/1 172/192/1 170/188/1 178/198/1
f 172/190/3 171/189/3 169/162/3 170/161/3
