# Blender 4.5.9 LTS
# www.blender.org
mtllib Serwers02_010.mtl
o Serwers02_010
v -2.819696 5.312796 -0.542535
v -2.819696 5.312796 0.542516
v -1.764524 5.311356 -0.542533
v -1.764524 5.311357 0.542518
v -0.000000 3.254395 -4.248927
v -0.000000 3.254395 4.248926
v -1.862715 -2.636669 -4.248927
v -1.862715 -2.636668 4.248927
v -2.455375 -2.122127 -4.248927
v -2.455375 -2.122126 4.248927
v -3.215858 -0.456902 -4.248927
v -3.215858 -0.456902 4.248927
v -2.955328 1.355121 -4.248927
v -2.955328 1.355122 4.248927
v -1.756503 2.738639 -4.248927
v -1.756503 2.738640 4.248927
v -0.999720 -2.636669 -4.248926
v -0.999720 -2.636668 4.248926
v -0.999720 -2.880242 -4.248926
v -0.999720 -2.880242 4.248926
v -0.000000 -2.880242 -4.248926
v -0.000000 -2.880242 4.248926
v 1.862715 -2.636669 -4.248927
v 1.862715 -2.636668 4.248927
v 2.455374 -2.122127 -4.248927
v 2.455374 -2.122126 4.248927
v 3.215857 -0.456902 -4.248927
v 3.215857 -0.456902 4.248927
v 2.955327 1.355121 -4.248927
v 2.955327 1.355122 4.248927
v 1.756502 2.738639 -4.248927
v 1.756502 2.738640 4.248927
v 0.999720 -2.636669 -4.248926
v 0.999719 -2.636668 4.248926
v 0.999720 -2.880242 -4.248926
v 0.999719 -2.880242 4.248926
v -2.824181 1.506473 -0.542534
v -2.824181 1.506473 0.542516
v -1.767342 2.726130 -0.542533
v -1.767342 2.726130 0.542518
v -1.767342 2.726130 -0.009290
v -0.000000 3.521715 4.749735
v -1.985334 -2.757147 4.749735
v -2.617008 -2.208733 4.749735
v -3.427551 -0.433890 4.749735
v -3.149872 1.497415 4.749735
v -1.872130 2.972008 4.749735
v -1.065529 -2.757147 4.749735
v -1.065529 -3.016754 4.749735
v -0.000000 -3.016754 4.749735
v 1.985334 -2.757147 4.749735
v 2.617007 -2.208733 4.749735
v 3.427551 -0.433890 4.749735
v 3.149871 1.497415 4.749735
v 1.872130 2.972008 4.749735
v 1.065529 -2.757147 4.749735
v 1.065529 -3.016754 4.749735
v -0.000000 3.490638 -4.596705
v -1.971079 -2.743141 -4.596705
v -2.598217 -2.198665 -4.596705
v -3.402941 -0.436566 -4.596705
v -3.127255 1.480873 -4.596705
v -1.858688 2.944877 -4.596705
v -1.057879 -2.743141 -4.596705
v -1.057879 -3.000885 -4.596705
v -0.000000 -3.000885 -4.596705
v 1.971079 -2.743141 -4.596705
v 2.598217 -2.198665 -4.596705
v 3.402941 -0.436566 -4.596705
v 3.127255 1.480873 -4.596705
v 1.858687 2.944877 -4.596705
v 1.057879 -2.743141 -4.596705
v 1.057879 -3.000885 -4.596705
vn -1.0000 0.0011 -0.0000
vn 1.0000 -0.0012 -0.0000
vn -0.0000 -0.0000 -1.0000
vn -0.0000 -0.0000 1.0000
vn 0.6879 0.7098 -0.1517
vn 0.3234 0.9266 -0.1917
vn 0.3298 0.9316 0.1530
vn 0.6924 0.7111 0.1224
vn 0.7785 0.5878 -0.2202
vn 0.7860 0.5924 0.1767
vn 0.9571 0.1493 -0.2483
vn 0.9684 0.1488 0.2001
vn 0.8777 -0.3896 -0.2790
vn 0.8895 -0.3968 0.2266
vn 0.5204 -0.7989 -0.3017
vn 0.7557 -0.6549 -0.0000
vn -0.0000 -0.9508 -0.3099
vn -0.0000 -0.9673 0.2536
vn 0.5282 -0.8126 0.2463
vn -0.0000 0.9861 -0.1662
vn 0.7199 0.6693 -0.1838
vn 0.7186 0.6800 0.1453
vn -0.0000 0.9912 0.1327
vn -0.6879 0.7098 -0.1517
vn -0.6924 0.7111 0.1224
vn -0.3298 0.9316 0.1530
vn -0.3234 0.9266 -0.1917
vn -0.7860 0.5924 0.1767
vn -0.7785 0.5878 -0.2202
vn -0.9684 0.1488 0.2001
vn -0.9571 0.1493 -0.2483
vn -0.8895 -0.3968 0.2266
vn -0.8777 -0.3896 -0.2790
vn -0.5282 -0.8126 0.2463
vn -0.5204 -0.7989 -0.3017
vn -0.7186 0.6800 0.1453
vn -0.7199 0.6693 -0.1838
vn 0.3586 0.8838 0.3004
vn 0.7114 0.6563 0.2514
vn -0.0000 0.9648 0.2630
vn -0.6541 0.7036 0.2777
vn 0.8170 -0.3872 0.4274
vn 0.9167 0.1170 0.3821
vn -0.4741 -0.7511 0.4595
vn -0.0000 -0.8822 0.4709
vn -0.7114 0.6563 0.2514
vn -0.3586 0.8838 0.3004
vn 0.7566 0.5581 0.3407
vn -0.9167 0.1170 0.3821
vn -0.8170 -0.3872 0.4274
vn 0.4741 -0.7511 0.4595
vn -0.7566 0.5581 0.3407
vn 0.6541 0.7036 0.2777
vn -0.3539 0.8577 -0.3729
vn -0.7063 0.6352 -0.3126
vn 0.3539 0.8577 -0.3729
vn 0.7315 0.5381 -0.4189
vn -0.7733 -0.3689 -0.5157
vn -0.8780 0.1093 -0.4659
vn -0.0000 0.9448 -0.3277
vn 0.6338 0.6918 -0.3460
vn 0.7733 -0.3689 -0.5157
vn 0.4448 -0.7069 -0.5499
vn -0.7315 0.5381 -0.4189
vn -0.6338 0.6918 -0.3460
vn 0.8780 0.1093 -0.4659
vn -0.4448 -0.7069 -0.5499
vn 0.7063 0.6352 -0.3126
vn -0.0000 -0.8272 -0.5619
vt 0.629052 -0.107868
vt 0.370948 -0.107868
vt 0.370949 0.718476
vt 0.497792 0.718476
vt 0.629052 0.718476
vt 0.370948 -0.108328
vt 0.629051 -0.108328
vt 0.629052 1.108328
vt 0.370948 1.108328
vt 0.624965 -0.108328
vt 0.373968 -0.107868
vt 0.374639 0.718476
vt 0.626032 1.108328
vt 0.374639 0.718476
vt -1.064508 0.680855
vt -1.064508 0.990118
vt 3.027601 0.990118
vt 3.027601 0.680855
vt -0.478291 0.602839
vt -0.478291 0.842623
vt 2.080334 0.842623
vt 2.080334 0.602839
vt -0.478291 1.483311
vt -0.478291 0.809576
vt 2.080334 0.809576
vt 2.080334 1.483310
vt -0.478291 0.076448
vt 2.080334 0.076448
vt -0.478291 -0.483311
vt 0.798224 -0.478249
vt 0.637670 -0.478249
vt 0.637669 0.015213
vt -0.478291 0.559866
vt -0.478291 -0.150799
vt 2.080334 -0.150799
vt 2.080334 0.559866
vt -0.699235 0.500000
vt -0.699235 0.991538
vt 2.437469 0.991538
vt 2.437469 0.500000
vt -1.064508 0.791843
vt 3.027601 0.791843
vt 3.027601 0.879130
vt -1.064508 0.879130
vt 3.027601 0.990118
vt 2.080334 0.842623
vt 2.080334 1.483310
vt 2.080334 -0.483311
vt 2.080334 0.559866
vt 2.437469 0.008462
vt -0.699235 0.008462
vt 3.027601 0.879130
vt 3.027601 0.791843
vt 0.964368 0.015213
vt 0.964369 -0.478249
vt 2.080334 -0.483311
s 0
usemtl concrete_base_03
f 4/1/1 3/2/1 39/3/1 41/4/1 40/5/1
f 1/6/2 2/7/2 38/8/2 37/9/2
f 2/10/3 4/11/3 40/12/3 38/13/3
f 3/11/4 1/10/4 37/13/4 39/14/4
s 1
f 7/19/6 9/20/9 10/21/10 8/22/7
f 9/23/9 11/24/11 12/25/12 10/26/10
f 11/24/11 13/27/13 14/28/14 12/25/12
f 13/27/13 15/29/15 41/30/16 39/31/16 37/32/16
f 15/33/15 5/34/17 6/35/18 16/36/19
f 23/19/27 24/22/26 26/46/28 25/20/29
f 25/23/29 26/47/28 28/25/30 27/24/31
f 27/24/31 28/25/30 30/28/32 29/27/33
f 29/27/33 30/28/32 32/48/34 31/29/35
f 31/33/35 32/49/34 6/35/18 5/34/17
f 37/32/16 38/54/16 40/55/16 41/30/16 15/29/15 16/56/19 14/28/14 13/27/13
f 12/25/12 14/28/14 46/28/42 45/25/43
f 6/35/18 32/49/34 55/49/44 42/35/45
f 8/22/7 10/21/10 44/21/48 43/22/38
f 30/28/32 28/25/30 53/25/49 54/28/50
f 14/28/14 16/56/19 47/56/51 46/28/42
f 26/46/28 24/22/26 51/22/47 52/46/52
f 10/26/10 12/25/12 45/25/43 44/26/48
f 32/48/34 30/28/32 54/28/50 55/48/44
f 16/36/19 6/35/18 42/35/45 47/36/51
f 28/25/30 26/47/28 52/47/52 53/25/49
f 9/20/9 7/19/6 59/19/56 60/20/57
f 27/24/31 29/27/33 70/27/58 69/24/59
f 15/29/15 13/27/13 62/27/62 63/29/63
f 23/19/27 25/20/29 68/20/64 67/19/54
f 11/24/11 9/23/9 60/23/57 61/24/66
f 29/27/33 31/29/35 71/29/67 70/27/58
f 5/34/17 15/33/15 63/33/63 58/34/69
f 25/23/29 27/24/31 69/24/59 68/23/64
f 13/27/13 11/24/11 61/24/66 62/27/62
f 31/33/35 5/34/17 58/34/69 71/33/67
usemtl soil_mud
f 21/37/20 19/38/21 20/39/22 22/40/23
f 21/37/20 22/40/23 36/50/36 35/51/37
f 36/50/36 22/40/23 50/40/40 57/50/41
f 22/40/23 20/39/22 49/39/53 50/40/40
f 19/38/21 21/37/20 66/37/60 65/38/61
f 21/37/20 35/51/37 73/51/65 66/37/60
usemtl concrete_base_02
f 17/15/5 7/16/6 8/17/7 18/18/8
f 17/41/5 18/42/8 20/43/22 19/44/21
f 33/15/24 34/18/25 24/45/26 23/16/27
f 33/41/24 35/44/37 36/52/36 34/53/25
f 18/18/8 8/17/7 43/17/38 48/18/39
f 24/45/26 34/18/25 56/18/46 51/45/47
f 20/43/22 18/42/8 48/42/39 49/43/53
f 34/53/25 36/52/36 57/52/41 56/53/46
f 33/15/24 23/16/27 67/16/54 72/15/55
f 17/41/5 19/44/21 65/44/61 64/41/68
f 7/16/6 17/15/5 64/15/68 59/16/56
f 35/44/37 33/41/24 72/41/55 73/44/65
