# Blender 4.5.9 LTS
# www.blender.org
mtllib SerwersP_013.mtl
o SerwersP_013
v 0.025531 -1.024632 0.003512
v 0.025531 -1.024631 0.973524
v 0.025531 0.967408 0.003511
v 0.025531 0.967408 0.973524
v 0.025531 0.940438 0.035423
v 0.025531 -0.997662 0.035423
v 0.025531 -0.997662 0.941612
v 0.025531 0.940438 0.941612
v -0.023688 0.940438 0.035423
v -0.023688 -0.997662 0.035423
v -0.023688 -0.997662 0.941612
v -0.023688 0.940438 0.941612
v -0.023688 0.967408 0.003511
v -0.023688 -1.024632 0.003512
v -0.023688 -1.024631 0.973524
v -0.023688 0.967408 0.973524
v -0.009715 -0.810119 0.965107
v -0.009715 -0.778469 0.965107
v -0.009715 -0.810119 0.011928
v -0.009715 -0.778469 0.011928
v 0.011353 -0.810119 0.965107
v 0.011353 -0.778469 0.965107
v 0.011353 -0.810119 0.011928
v 0.011353 -0.778469 0.011928
v -0.009715 -0.550585 0.965107
v -0.009715 -0.518935 0.965107
v -0.009715 -0.550585 0.011928
v -0.009715 -0.518935 0.011928
v 0.011353 -0.550585 0.965107
v 0.011353 -0.518935 0.965107
v 0.011353 -0.550585 0.011928
v 0.011353 -0.518935 0.011928
v -0.009715 -0.291051 0.965107
v -0.009715 -0.259401 0.965107
v -0.009715 -0.291051 0.011928
v -0.009715 -0.259401 0.011928
v 0.011353 -0.291051 0.965107
v 0.011353 -0.259401 0.965107
v 0.011353 -0.291051 0.011928
v 0.011353 -0.259401 0.011928
v -0.009715 -0.031518 0.965107
v -0.009715 0.000133 0.965107
v -0.009715 -0.031518 0.011928
v -0.009715 0.000133 0.011928
v 0.011353 -0.031518 0.965107
v 0.011353 0.000133 0.965107
v 0.011353 -0.031518 0.011928
v 0.011353 0.000133 0.011928
v -0.009715 0.228016 0.965107
v -0.009715 0.259667 0.965107
v -0.009715 0.228016 0.011928
v -0.009715 0.259667 0.011928
v 0.011353 0.228016 0.965107
v 0.011353 0.259667 0.965107
v 0.011353 0.228016 0.011928
v 0.011353 0.259667 0.011928
v -0.009715 0.487550 0.965107
v -0.009715 0.519201 0.965107
v -0.009715 0.487550 0.011928
v -0.009715 0.519201 0.011928
v 0.011353 0.487550 0.965107
v 0.011353 0.519201 0.965107
v 0.011353 0.487550 0.011928
v 0.011353 0.519201 0.011928
v -0.009715 0.747084 0.965107
v -0.009715 0.778734 0.965107
v -0.009715 0.747084 0.011928
v -0.009715 0.778734 0.011928
v 0.011353 0.747084 0.965107
v 0.011353 0.778734 0.965107
v 0.011353 0.747084 0.011928
v 0.011353 0.778734 0.011928
v -0.000384 -1.000489 0.220625
v -0.000384 -1.000489 0.252276
v -0.000384 0.953048 0.220625
v -0.000384 0.953048 0.252276
v 0.020684 -1.000489 0.220625
v 0.020684 -1.000489 0.252276
v 0.020684 0.953048 0.220625
v 0.020684 0.953048 0.252276
v -0.000384 -1.000489 0.480160
v -0.000384 -1.000489 0.511810
v -0.000384 0.953048 0.480159
v -0.000384 0.953048 0.511810
v 0.020684 -1.000489 0.480160
v 0.020684 -1.000489 0.511810
v 0.020684 0.953048 0.480159
v 0.020684 0.953048 0.511810
v -0.000384 -1.000489 0.739694
v -0.000384 -1.000489 0.771344
v -0.000384 0.953048 0.739694
v -0.000384 0.953048 0.771344
v 0.020684 -1.000489 0.739694
v 0.020684 -1.000489 0.771344
v 0.020684 0.953048 0.739694
v 0.020684 0.953048 0.771344
v -0.018433 -0.131353 0.955167
v -0.018433 0.013192 0.955167
v -0.018433 -0.131353 0.765473
v -0.018433 0.013192 0.765473
v 0.021276 -0.131353 0.955167
v 0.021276 0.013192 0.955167
v 0.021276 -0.131353 0.765473
v 0.021276 0.013192 0.765473
v 0.000000 0.501290 0.005531
v 0.000000 0.596725 0.005531
v -0.005531 0.501290 -0.000000
v -0.005531 0.596725 -0.000000
v 0.005531 0.501290 -0.000000
v 0.005531 0.596725 -0.000000
v 0.000000 0.501290 -0.005531
v 0.000000 0.596725 -0.005531
v -0.000000 -0.444901 0.005531
v -0.000000 -0.540335 0.005531
v -0.005531 -0.444901 0.000000
v -0.005531 -0.540335 0.000000
v 0.005531 -0.444901 0.000000
v 0.005531 -0.540335 0.000000
v -0.000000 -0.444901 -0.005531
v -0.000000 -0.540335 -0.005531
vn 1.0000 -0.0000 -0.0000
vn -1.0000 -0.0000 -0.0000
vn -0.0000 -1.0000 -0.0000
vn -0.0000 -0.0000 1.0000
vn -0.0000 1.0000 -0.0000
vn -0.0000 -0.0000 -1.0000
vn -0.7071 -0.0000 0.7071
vn -0.7071 -0.0000 -0.7071
vn 0.7071 -0.0000 -0.7071
vn 0.7071 -0.0000 0.7071
vt -0.254602 0.149745
vt -0.275498 0.125019
vt 1.267960 0.125019
vt 1.247064 0.149745
vt 1.247064 0.851872
vt 1.267960 0.876598
vt -0.275498 0.876598
vt -0.254602 0.851872
vt 0.519623 0.149745
vt 0.519623 0.851872
vt 0.481488 0.851872
vt 0.481488 0.149745
vt 0.519623 -0.254602
vt 0.519623 1.247064
vt 0.481488 1.247064
vt 0.481488 -0.254602
vt 0.519623 0.125019
vt 0.519623 0.876598
vt 0.481488 0.876598
vt 0.481488 0.125019
vt 0.519623 -0.275498
vt 0.519623 1.267960
vt 0.481488 1.267960
vt 0.481488 -0.275498
vt -0.109291 0.870077
vt -0.084768 0.870077
vt -0.084768 0.131540
vt -0.109291 0.131540
vt 0.492315 0.131540
vt 0.508638 0.131540
vt 0.508638 0.870077
vt 0.492315 0.870077
vt 0.091799 0.870077
vt 0.116322 0.870077
vt 0.116322 0.131540
vt 0.091799 0.131540
vt 0.292889 0.870077
vt 0.317413 0.870077
vt 0.317413 0.131540
vt 0.292889 0.131540
vt 0.492315 0.131540
vt 0.508638 0.131540
vt 0.493980 0.870077
vt 0.518503 0.870077
vt 0.518503 0.131540
vt 0.493980 0.131540
vt 0.695070 0.870077
vt 0.719593 0.870077
vt 0.719593 0.131540
vt 0.695070 0.131540
vt 0.896160 0.870077
vt 0.920684 0.870077
vt 0.920684 0.131540
vt 0.896160 0.131540
vt 1.097251 0.870077
vt 1.121774 0.870077
vt 1.121774 0.131540
vt 1.097251 0.131540
vt -0.256792 0.293242
vt -0.256792 0.317765
vt 1.256834 0.317765
vt 1.256834 0.293242
vt 0.499544 1.256834
vt 0.515868 1.256834
vt 0.515868 -0.256792
vt 0.499544 -0.256792
vt -0.256792 0.494333
vt -0.256792 0.518856
vt 1.256834 0.518856
vt 1.256834 0.494333
vt -0.256792 0.695423
vt -0.256792 0.719946
vt 1.256834 0.719946
vt 1.256834 0.695423
vt 0.536441 0.741832
vt 0.536441 0.893909
vt 0.736019 0.893909
vt 0.736019 0.741832
vt 0.615341 0.741832
vt 0.615341 0.893909
vt 0.657119 0.893909
vt 0.657119 0.741832
vt 0.615341 0.917659
vt 0.657119 0.917659
vt 0.657119 0.718081
vt 0.615341 0.718081
vt 0.498021 0.800243
vt 0.498021 0.844894
vt 0.505838 0.844894
vt 0.505838 0.800243
vt 0.498020 0.800243
vt 0.498020 0.844894
vt 0.505837 0.844894
vt 0.505837 0.800243
vt 0.505838 0.800242
vt 0.505838 0.844893
vt 0.498022 0.844893
vt 0.498022 0.800242
vt 0.505836 0.800243
vt 0.505836 0.844894
vt 0.498020 0.844894
vt 0.498020 0.800243
vt 0.498020 0.505838
vt 0.505837 0.505838
vt 0.505837 0.498021
vt 0.498020 0.498022
vt 0.498020 0.505838
vt 0.498020 0.498022
vt 0.505837 0.498021
s 0
usemtl Metal
f 6/1/1 1/2/1 3/3/1 5/4/1
f 8/5/1 4/6/1 2/7/1 7/8/1
f 5/4/1 3/3/1 4/6/1 8/5/1
f 7/8/1 2/7/1 1/2/1 6/1/1
f 10/1/2 9/4/2 13/3/2 14/2/2
f 12/5/2 11/8/2 15/7/2 16/6/2
f 9/4/2 12/5/2 16/6/2 13/3/2
f 11/8/2 10/1/2 14/2/2 15/7/2
f 5/9/3 8/10/3 12/11/3 9/12/3
f 6/13/4 5/14/4 9/15/4 10/16/4
f 1/17/3 2/18/3 15/19/3 14/20/3
f 2/21/4 4/22/4 16/23/4 15/24/4
f 7/10/5 6/9/5 10/12/5 11/11/5
f 8/14/6 7/13/6 11/16/6 12/15/6
f 4/18/5 3/17/5 13/20/5 16/19/5
f 3/22/6 1/21/6 14/24/6 13/23/6
f 17/25/2 18/26/2 20/27/2 19/28/2
f 23/28/1 24/27/1 22/26/1 21/25/1
f 19/29/3 23/30/3 21/31/3 17/32/3
f 24/30/5 20/29/5 18/32/5 22/31/5
f 25/33/2 26/34/2 28/35/2 27/36/2
f 31/36/1 32/35/1 30/34/1 29/33/1
f 27/29/3 31/30/3 29/31/3 25/32/3
f 32/30/5 28/29/5 26/32/5 30/31/5
f 33/37/2 34/38/2 36/39/2 35/40/2
f 39/40/1 40/39/1 38/38/1 37/37/1
f 35/41/3 39/42/3 37/31/3 33/32/3
f 40/42/5 36/41/5 34/32/5 38/31/5
f 41/43/2 42/44/2 44/45/2 43/46/2
f 47/46/1 48/45/1 46/44/1 45/43/1
f 43/41/3 47/42/3 45/31/3 41/32/3
f 48/42/5 44/41/5 42/32/5 46/31/5
f 49/47/2 50/48/2 52/49/2 51/50/2
f 55/50/1 56/49/1 54/48/1 53/47/1
f 51/41/3 55/42/3 53/31/3 49/32/3
f 56/42/5 52/41/5 50/32/5 54/31/5
f 57/51/2 58/52/2 60/53/2 59/54/2
f 63/54/1 64/53/1 62/52/1 61/51/1
f 59/41/3 63/42/3 61/31/3 57/32/3
f 64/42/5 60/41/5 58/32/5 62/31/5
f 65/55/2 66/56/2 68/57/2 67/58/2
f 71/58/1 72/57/1 70/56/1 69/55/1
f 67/41/3 71/42/3 69/31/3 65/32/3
f 72/42/5 68/41/5 66/32/5 70/31/5
f 73/59/2 74/60/2 76/61/2 75/62/2
f 79/62/1 80/61/1 78/60/1 77/59/1
f 75/63/6 79/64/6 77/65/6 73/66/6
f 80/64/4 76/63/4 74/66/4 78/65/4
f 81/67/2 82/68/2 84/69/2 83/70/2
f 87/70/1 88/69/1 86/68/1 85/67/1
f 83/63/6 87/64/6 85/65/6 81/66/6
f 88/64/4 84/63/4 82/66/4 86/65/4
f 89/71/2 90/72/2 92/73/2 91/74/2
f 95/74/1 96/73/1 94/72/1 93/71/1
f 91/63/6 95/64/6 93/65/6 89/66/6
f 96/64/4 92/63/4 90/66/4 94/65/4
f 97/75/2 98/76/2 100/77/2 99/78/2
f 99/79/6 100/80/6 104/81/6 103/82/6
f 103/78/1 104/77/1 102/76/1 101/75/1
f 101/82/4 102/81/4 98/80/4 97/79/4
f 99/83/3 103/84/3 101/85/3 97/86/3
f 104/84/5 100/83/5 98/86/5 102/85/5
f 105/87/7 106/88/7 108/89/7 107/90/7
f 107/91/8 108/92/8 112/93/8 111/94/8
f 111/95/9 112/96/9 110/97/9 109/98/9
f 109/99/10 110/100/10 106/101/10 105/102/10
f 107/103/3 111/104/3 109/105/3 105/106/3
f 112/104/5 108/107/5 106/108/5 110/109/5
f 113/87/7 115/90/7 116/89/7 114/88/7
f 115/91/8 119/94/8 120/93/8 116/92/8
f 119/95/9 117/98/9 118/97/9 120/96/9
f 117/99/10 113/102/10 114/101/10 118/100/10
f 115/103/5 113/106/5 117/105/5 119/104/5
f 120/104/3 118/109/3 114/108/3 116/107/3
