# Blender 4.5.9 LTS
# www.blender.org
mtllib SerwersP1_008.mtl
o SerwersP1_008
v 0.138129 0.562128 -0.534114
v 0.138129 -0.452308 -0.534114
v 0.138129 -1.810362 0.534118
v 0.138129 -0.452308 0.534118
v 0.138129 -1.810362 -0.534114
v 0.138129 0.562128 0.534118
v 0.138129 0.229450 -1.921355
v 0.138129 -0.452308 -1.926686
v 0.138129 -1.810362 1.240659
v 0.138129 -0.452308 1.926686
v 0.138129 -1.810362 -1.240659
v 0.138129 0.229449 1.921356
v 0.138129 1.787473 -0.000001
v 0.138129 1.538937 0.961888
v 0.138129 0.964909 1.560336
v 0.138129 0.964909 -1.560335
v 0.138129 1.538937 -0.961889
v -0.138129 0.964909 1.560336
v -0.138129 -0.452308 1.926686
v -0.138129 -1.810362 1.240659
v -0.138129 -0.452308 -1.926686
v -0.138129 0.229450 -1.921355
v -0.138129 -1.810362 -0.534114
v -0.138129 0.562128 0.534118
v -0.138129 -0.452308 0.534118
v -0.138129 -1.810362 0.534118
v -0.138129 -0.452308 -0.534114
v -0.138129 0.562128 -0.534114
v -0.138129 0.229449 1.921356
v -0.138129 -1.810362 -1.240659
v -0.138129 1.538937 -0.961889
v -0.138129 1.787473 -0.000001
v -0.138129 1.538937 0.961888
v -0.138129 0.964909 -1.560335
vn 1.0000 -0.0000 -0.0000
vn -0.0000 -0.0000 -1.0000
vn -0.0000 0.8734 0.4871
vn -0.0000 1.0000 -0.0000
vn -0.0000 -0.0000 1.0000
vn -0.0000 -0.2280 0.9737
vn -0.0000 0.2300 0.9732
vn -0.0000 0.8734 -0.4871
vn -0.0000 -1.0000 -0.0000
vn -1.0000 -0.0000 -0.0000
vn -0.0000 0.5902 0.8073
vn -0.0000 0.2300 -0.9732
vn -0.0000 -0.2280 -0.9737
vn -0.0000 0.5902 -0.8073
vn -0.0000 -0.8517 -0.5240
vn -0.0000 -0.8517 0.5240
vt 0.470261 0.507944
vt 0.041368 0.405089
vt 0.039720 0.194310
vt 0.470261 0.194310
vt 0.090364 0.009287
vt -0.423928 0.009287
vt -0.923285 0.997811
vt 0.090364 0.997811
vt 0.800527 0.507944
vt 1.229421 0.405089
vt 1.117804 0.632472
vt 0.932783 0.809944
vt 0.635395 0.886784
vt 0.338008 0.809944
vt 0.152985 0.632472
vt 0.041368 0.405089
vt 0.867928 0.997811
vt 1.881574 0.997811
vt 1.382217 0.009287
vt 0.867928 0.009287
vt 0.800527 0.194310
vt 1.231069 0.194310
vt 1.229421 0.405089
vt 0.090364 0.997811
vt 0.867928 0.997811
s 1
usemtl brick_modern
f 6/1/1 12/2/1 10/3/1 4/4/1
f 1/9/1 7/10/1 16/11/1 17/12/1 13/13/1 14/14/1 15/15/1 12/16/1 6/1/1
f 2/21/1 8/22/1 7/23/1 1/9/1
f 6/1/2 4/4/2 25/4/2 24/1/2
f 14/14/3 13/13/4 32/13/4 33/14/3
f 10/3/6 12/2/7 29/2/7 19/3/6
f 13/13/4 17/12/8 31/12/8 32/13/4
f 1/9/9 6/1/9 24/1/9 28/9/9
f 27/21/10 28/9/10 22/23/10 21/22/10
f 28/9/10 24/1/10 29/16/10 18/15/10 33/14/10 32/13/10 31/12/10 34/11/10 22/10/10
f 24/1/10 25/4/10 19/3/10 29/2/10
f 15/15/11 14/14/3 33/14/3 18/15/11
f 7/23/12 8/22/13 21/22/13 22/23/12
f 16/11/14 7/10/12 22/10/12 34/11/14
f 17/12/8 16/11/14 34/11/14 31/12/8
f 12/16/7 15/15/11 18/15/11 29/16/7
f 2/21/5 1/9/5 28/9/5 27/21/5
usemtl concrete_bare_01
f 5/5/1 11/6/1 8/7/1 2/8/1
f 4/17/1 10/18/1 9/19/1 3/20/1
f 5/5/5 2/8/5 27/8/5 23/5/5
f 25/17/10 26/20/10 20/19/10 19/18/10
f 23/5/10 27/24/10 21/7/10 30/6/10
f 11/6/15 5/5/9 23/5/9 30/6/15
f 9/19/16 10/18/6 19/18/6 20/19/16
f 3/20/9 9/19/16 20/19/16 26/20/9
f 8/7/13 11/6/15 30/6/15 21/7/13
f 4/17/2 3/20/2 26/20/2 25/25/2
