# Blender 4.5.9 LTS
# www.blender.org
mtllib Serwers.mtl
o Serwers
v -0.000000 3.386930 4.386930
v -4.386931 3.386930 -0.000000
v -4.386931 -2.882610 -0.000000
v -0.000000 -2.882610 4.386930
v -4.386931 -2.882610 -0.979492
v -0.979493 -2.882610 4.386930
v -4.386931 -2.111717 -1.157323
v -1.157324 -2.111717 4.386930
v -2.648010 -2.111717 4.386930
v -4.386931 -2.111717 -2.648009
v -3.302014 -0.753663 4.386930
v -4.386931 -0.753663 -3.302013
v -3.302014 0.753663 4.386930
v -4.386931 0.753663 -3.302013
v -2.648010 2.111717 4.386930
v -4.386931 2.111717 -2.648009
v -4.386931 3.051519 -1.469535
v -1.469535 3.051519 4.386930
v -4.386931 -2.882610 0.979492
v -4.386931 -2.111717 1.157323
v -4.386931 -2.111717 2.648009
v -4.386931 -0.753663 3.302013
v -4.386931 0.753663 3.302013
v -4.386931 2.111717 2.648009
v -4.386931 3.051519 1.469534
v -1.157324 -2.111717 -1.157323
v -2.648009 -2.111717 -1.157323
v -0.979493 -2.882610 -0.979492
v 0.000000 -2.882610 -0.979492
v -2.648009 -2.111717 -2.648009
v -1.157324 -2.111717 -2.648009
v -0.000000 3.386930 -0.000000
v -0.979493 -2.882610 0.979492
v 0.000000 -2.882610 0.979492
v -0.631380 -2.882610 0.979492
v -1.157324 -2.111717 1.157323
v -2.648010 -2.111717 1.157323
v -3.302014 -0.753663 3.302013
v -2.648010 -2.111717 2.648009
v -1.157324 -2.111717 2.648009
v -3.302014 0.753663 3.302013
v -2.648010 2.111717 2.648009
v -1.469535 3.051519 1.469534
v -0.979493 -2.882610 -0.000000
v -0.979493 -2.882610 0.631379
v 0.000000 -2.882610 -0.489746
v 0.000000 -2.882610 0.000000
v -0.572534 -2.882610 0.572534
v 0.979493 -2.882610 4.386930
v 1.157324 -2.111717 4.386930
v 2.648010 -2.111717 4.386930
v 3.302014 -0.753663 4.386930
v 3.302014 0.753663 4.386930
v 2.648009 2.111717 4.386930
v 1.469534 3.051519 4.386930
v 1.157324 -2.111717 -1.157323
v 2.648010 -2.111717 -1.157323
v 0.979493 -2.882610 -0.979492
v 2.648010 -2.111717 -2.648009
v 1.157324 -2.111717 -2.648009
v 3.302014 -0.753663 -3.302013
v 3.302014 0.753663 -3.302013
v 2.648010 2.111717 -2.648009
v 1.469535 3.051519 -1.469534
v 0.979493 -2.882610 0.979492
v 0.631380 -2.882610 0.979492
v 1.157324 -2.111717 1.157323
v 2.648010 -2.111717 1.157323
v 2.648010 -2.111717 2.648009
v 1.157324 -2.111717 2.648009
v 0.979493 -2.882610 0.000000
v 0.979493 -2.882610 0.631379
v 0.572535 -2.882610 0.572534
v -0.000000 3.501976 4.761774
v -0.000000 -2.976335 4.761774
v -1.012109 -2.976335 4.761774
v -1.195862 -2.179771 4.761774
v -2.736186 -2.179771 4.761774
v -3.411968 -0.776495 4.761774
v -3.411968 0.781023 4.761774
v -2.736186 2.184298 4.761774
v -1.518469 3.155396 4.761774
v 1.012109 -2.976335 4.761774
v 1.195861 -2.179771 4.761774
v 2.736186 -2.179771 4.761774
v 3.411968 -0.776495 4.761774
v 3.411968 0.781023 4.761774
v 2.736186 2.184299 4.761774
v 1.518468 3.155396 4.761774
v -4.855485 3.535948 -0.000000
v -4.855485 -3.006058 -0.000000
v -4.855485 -3.006058 -1.022060
v -4.855485 -2.201663 -1.207619
v -4.855485 -2.201663 -2.763088
v -4.855485 -0.784590 -3.445514
v -4.855485 0.788242 -3.445514
v -4.855485 2.205315 -2.763088
v -4.855485 3.185960 -1.533399
v -4.855485 -3.006058 1.022059
v -4.855485 -2.201663 1.207619
v -4.855485 -2.201663 2.763088
v -4.855485 -0.784590 3.445514
v -4.855485 0.788242 3.445514
v -4.855485 2.205315 2.763088
v -4.855485 3.185960 1.533398
vn -0.0000 1.0000 -0.0000
vn -0.1319 0.9913 -0.0000
vn -0.1285 0.9917 -0.0000
vn -0.0000 0.2248 0.9744
vn -0.0693 0.2242 0.9721
vn -0.0783 0.2241 0.9714
vn -0.1013 0.9949 -0.0000
vn -0.0914 0.9958 -0.0000
vn -0.1553 -0.2196 0.9632
vn -0.1545 0.2201 0.9632
vn -0.0000 0.1891 0.9820
vn -0.0000 -0.1891 0.9820
vn -0.1561 -0.6157 0.7724
vn -0.0000 -0.5552 0.8317
vn -0.1566 -0.8898 0.4286
vn -0.2847 -0.9154 0.2847
vn -0.0560 -0.9969 0.0560
vn -0.1568 -0.9876 -0.0000
vn -0.9820 -0.1891 -0.0000
vn -0.9820 0.1891 -0.0000
vn -0.9749 0.2225 -0.0000
vn -0.9749 -0.2225 -0.0000
vn -0.0000 -1.0000 -0.0000
vn -0.0000 0.2248 -0.9744
vn -0.0783 0.2241 -0.9714
vn -0.0693 0.2242 -0.9721
vn -0.0000 0.2481 -0.9687
vn -0.0000 0.4339 -0.9010
vn -0.1502 0.4290 -0.8907
vn -0.1545 0.2201 -0.9632
vn -0.0000 -0.2481 -0.9687
vn -0.1553 -0.2196 -0.9632
vn -0.0000 -0.6781 -0.7350
vn -0.1561 -0.6157 -0.7724
vn -0.1566 -0.8898 -0.4286
vn 0.1758 -0.9686 -0.1758
vn 0.9744 0.2248 -0.0000
vn 0.9010 0.4339 -0.0000
vn 0.9687 0.2481 -0.0000
vn 0.9749 0.2225 -0.0000
vn 0.9687 -0.2481 -0.0000
vn 0.9749 -0.2225 -0.0000
vn 0.7350 -0.6781 -0.0000
vn 0.7818 -0.6235 -0.0000
vn 0.4339 -0.9010 -0.0000
vn -0.4339 -0.9010 -0.0000
vn -0.9010 0.4339 -0.0000
vn -0.7818 -0.6235 -0.0000
vn -0.8317 -0.5552 -0.0000
vn -0.9744 0.2248 -0.0000
vn -0.1502 0.4290 0.8907
vn -0.0000 0.4339 0.9010
vn -0.7483 -0.5959 0.2914
vn -0.9334 -0.2122 0.2893
vn -0.9331 -0.2137 0.2893
vn -0.7475 -0.5969 0.2914
vn -0.0000 0.9839 0.1786
vn -0.9338 0.2140 0.2869
vn -0.8652 0.4166 0.2792
vn -0.9341 0.2125 0.2869
vn 0.7483 -0.5959 0.2914
vn 0.4152 -0.8613 0.2929
vn 0.4146 -0.8616 0.2929
vn 0.7475 -0.5969 0.2914
vn -0.0000 0.9701 0.2426
vn 0.8652 0.4166 0.2792
vn 0.9338 0.2140 0.2869
vn 0.9341 0.2125 0.2869
vn -0.0000 -0.9560 0.2934
vn -0.4152 -0.8613 0.2929
vn -0.4146 -0.8616 0.2929
vn -0.9649 0.2226 0.1396
vn 0.9334 -0.2122 0.2893
vn 0.9331 -0.2137 0.2893
vn 0.9649 0.2226 0.1396
vn -0.2989 0.2119 -0.9304
vn -0.3005 -0.2127 -0.9298
vn -0.2989 0.2119 0.9304
vn -0.2914 0.4151 0.8619
vn -0.2548 0.9670 -0.0000
vn -0.3005 -0.2127 0.9298
vn -0.3018 -0.5947 -0.7451
vn -0.1462 0.2224 0.9639
vn -0.3018 -0.5947 0.7451
vn -0.1462 0.2224 -0.9639
vn -0.2914 0.4151 -0.8619
vn -0.3027 -0.8588 0.4133
vn -0.3027 -0.8588 -0.4133
vn -0.3031 -0.9530 -0.0000
vn -0.1885 0.9821 -0.0000
vt 0.308444 1.237606
vt 0.308444 1.006753
vt -0.494644 1.006753
vt -0.494644 1.237606
vt 0.539298 1.237606
vt 0.266532 0.195233
vt -0.084803 0.195233
vt -0.494644 0.195233
vt -0.494644 0.013544
vt 0.308444 0.013544
vt -0.084803 0.997347
vt -0.084803 0.646012
vt -0.494644 0.646012
vt -0.494644 0.997347
vt 0.286431 0.993740
vt 0.286431 0.678370
vt -0.028939 0.678370
vt -0.328315 0.504334
vt -0.329814 0.241734
vt 1.011581 0.241734
vt 1.026375 0.504334
vt -0.329818 0.740930
vt -0.328349 0.504335
vt 0.897642 0.740930
vt -0.413602 0.699787
vt -0.413602 0.475675
vt 0.924238 0.475675
vt 0.700127 0.699787
vt 0.436316 0.994861
vt -0.327959 0.994862
vt -0.327959 0.738845
vt 0.692333 0.738845
vt -0.031817 0.462353
vt -0.031817 0.222667
vt 1.190830 0.222667
vt 1.190830 0.462353
vt 0.308444 1.088799
vt -0.494644 1.237606
vt 0.404359 1.102668
vt 0.390490 1.006753
vt -0.084803 0.195233
vt 0.266532 0.195233
vt -0.494644 0.013544
vt -0.494644 0.195233
vt -0.084803 0.646012
vt -0.084803 0.997347
vt -0.494644 0.997347
vt -0.040246 0.691459
vt -0.040246 0.995588
vt 0.263883 0.995588
vt -0.138949 0.241734
vt -0.025010 0.005138
vt -0.327959 0.005138
vt -0.327959 0.241734
vt -0.138949 0.504335
vt -0.327960 0.241734
vt -0.327959 0.504334
vt -0.025010 0.740930
vt -0.327959 0.504335
vt -0.327959 0.740930
vt -0.327959 0.738845
vt 0.180299 0.738845
vt -0.025010 0.533535
vt -0.327959 0.533535
vt -0.327959 0.994862
vt -0.327959 0.738845
vt -0.494644 1.006753
vt -0.494644 1.237606
vt -0.494644 0.195233
vt -0.494644 0.013544
vt -0.084803 0.684337
vt -0.499574 0.684337
vt -0.499574 0.997347
vt -0.084803 0.997347
vt -0.327959 0.005138
vt -0.025010 0.005138
vt -0.327959 0.241734
vt 0.917886 0.240812
vt 0.917886 0.502913
vt 1.106537 0.502913
vt 1.106537 0.240812
vt -0.327959 0.504335
vt -0.025010 0.740930
vt -0.327959 0.740930
vt -0.327959 0.738845
vt -0.327959 0.533535
vt -0.025010 0.533535
vt -0.327959 0.994861
vt -0.327959 0.738845
vt 0.266532 0.997347
vt 0.002985 0.647853
vt 0.002985 0.999616
vt 0.354747 0.999616
vt 0.540353 0.267298
vt 0.540353 0.138265
vt 0.540353 0.009232
vt 0.282287 0.009232
vt 0.307067 0.009087
vt 0.066198 0.009087
vt 0.307067 0.249956
vt 0.776119 0.993740
vt 1.091489 0.678370
vt 0.776119 0.678370
vt 0.462331 0.009087
vt 0.447860 0.109163
vt -0.327959 0.994862
vt -0.327959 0.738845
vt -0.327959 0.005138
vt -0.327959 0.241734
vt 0.897642 0.005138
vt -0.328349 0.504335
vt -0.329818 0.740930
vt 1.042421 0.706819
vt -0.071308 0.706819
vt -0.295420 0.482708
vt 1.042421 0.482708
vt -0.494644 1.237607
vt -0.494644 1.006753
vt 0.547936 0.094692
vt 0.547936 0.009087
vt 0.277052 0.012437
vt 0.522747 0.012437
vt 0.768441 0.012437
vt 0.813048 0.205807
vt 0.232445 0.205807
vt -0.494644 0.013544
vt 0.718527 0.992064
vt 1.000000 0.710591
vt 0.718527 0.710591
vt 0.000000 0.710591
vt 0.281473 0.992064
vt 0.281473 0.710591
vt 0.547936 0.249956
vt 0.798419 0.009232
vt -0.327959 0.241734
vt -0.327959 0.005138
vt -0.025010 0.005138
vt 0.278401 0.012236
vt 0.524096 0.012236
vt 0.682470 0.012236
vt 0.769790 0.012236
vt 0.814397 0.205606
vt 0.233794 0.205606
s 1
usemtl concrete_base
f 44/1/1 28/2/1 5/3/2 3/4/3
f 44/1/1 47/5/1 28/2/1
f 26/6/4 27/7/4 7/8/5 5/9/6 28/10/4
f 27/11/1 30/12/1 10/13/7 7/14/8
f 26/15/1 31/16/1 30/17/1
f 33/2/1 45/37/1 44/1/1 3/38/3 19/3/2
f 45/37/1 48/39/1 47/5/1 44/1/1
f 35/40/23 33/2/23 48/39/23
f 37/41/24 36/42/24 33/10/24 19/43/25 20/44/26
f 39/45/1 37/46/1 20/47/8 21/13/7
f 39/48/1 40/49/1 36/50/1
f 35/37/1 33/2/1 6/67/1 4/68/1 34/1/1
f 35/37/1 48/39/1 33/2/1
f 36/42/37 40/41/37 8/69/37 6/70/37 33/10/37
f 39/71/1 9/72/1 8/73/1 40/74/1
f 36/90/1 37/46/1 39/71/1
f 30/91/1 27/92/1 26/93/1
f 48/39/23 33/2/23 45/40/23
f 48/39/1 45/37/1 33/2/1
f 48/39/1 35/37/1 34/1/1 47/5/1
f 47/94/1 46/95/1 29/96/1 28/97/1
f 71/98/1 58/99/1 47/100/1
f 56/101/1 59/102/1 60/103/1
f 72/104/1 71/98/1 47/100/1 73/105/1
f 66/40/23 73/39/23 65/2/23
f 69/48/1 67/50/1 70/49/1
f 66/37/1 34/1/1 4/117/1 49/118/1 65/2/1
f 66/119/1 65/120/1 73/105/1
f 28/121/4 29/122/4 58/123/4 56/124/4 26/125/4
f 67/42/50 65/10/50 49/126/50 50/69/50 70/41/50
f 69/71/1 70/74/1 50/73/1 51/72/1
f 67/127/1 69/128/1 68/129/1
f 59/130/1 56/131/1 57/132/1
f 73/39/23 72/40/23 65/2/23
f 73/105/1 65/120/1 72/104/1
f 73/105/1 47/100/1 34/133/1 66/119/1
f 47/94/1 58/134/1 29/96/1 46/95/1
f 57/132/1 56/131/1 67/127/1 68/129/1
f 58/138/50 71/139/50 72/140/50 65/141/50 67/142/50 56/143/50
f 31/16/1 26/15/1 56/101/1 60/103/1
f 8/73/57 9/72/57 78/72/57 77/73/57
f 49/118/65 4/117/65 75/117/65 83/118/65
f 4/68/65 6/67/65 76/67/65 75/68/65
f 50/69/72 49/126/72 83/126/72 84/69/72
f 6/70/75 8/69/75 77/69/75 76/70/75
f 51/72/57 50/73/57 84/73/57 85/72/57
f 19/3/2 3/38/3 91/38/80 99/3/80
f 5/9/6 7/8/5 93/8/83 92/9/83
f 3/4/3 5/3/2 92/3/80 91/4/80
f 20/44/26 19/43/25 99/43/85 100/44/85
f 7/14/8 10/13/7 94/13/90 93/14/90
f 21/13/7 20/47/8 100/47/90 101/13/90
usemtl brick_modern_01
f 14/18/9 12/19/10 61/20/11 62/21/12
f 16/22/13 14/23/9 62/21/12 63/24/14
f 17/25/15 16/26/13 63/27/14 64/28/16
f 32/29/17 2/30/18 17/31/15 64/32/16
f 62/33/19 61/34/20 52/35/21 53/36/22
f 38/51/27 39/52/28 21/53/29 22/54/30
f 41/55/31 38/51/27 22/56/30 23/57/32
f 42/58/33 41/55/31 23/59/32 24/60/34
f 25/61/35 43/62/36 42/63/33 24/64/34
f 2/65/18 32/29/17 43/62/36 25/66/35
f 9/75/38 39/76/38 38/51/39 11/77/40
f 38/78/39 41/79/41 13/80/42 11/81/40
f 13/82/42 41/55/41 42/83/43 15/84/44
f 18/85/45 15/86/44 42/87/43 43/62/36
f 1/88/23 18/89/45 43/62/36 32/29/17
f 1/106/23 32/29/17 64/32/16 55/107/46
f 51/108/47 52/109/21 61/20/20 59/110/47 69/76/47
f 53/111/22 54/112/48 63/24/49 62/21/19
f 55/113/46 64/114/16 63/115/49 54/116/48
f 12/135/10 10/136/51 30/137/52 59/110/52 61/20/11
f 54/112/53 53/111/54 87/111/55 88/112/56
f 52/109/58 51/108/59 85/108/59 86/109/60
f 15/86/61 18/85/62 82/85/63 81/86/64
f 9/75/66 11/77/67 79/77/68 78/75/66
f 53/36/54 52/35/58 86/35/60 87/36/55
f 18/89/62 1/88/69 74/88/69 82/89/63
f 55/113/70 54/116/53 88/116/56 89/113/71
f 11/81/67 13/80/73 80/80/74 79/81/68
f 1/106/69 55/107/70 89/107/71 74/106/69
f 13/82/73 15/84/61 81/84/64 80/82/74
f 23/57/32 22/56/30 102/56/76 103/57/77
f 10/136/51 12/135/10 95/135/78 94/136/79
f 12/19/10 14/18/9 96/18/81 95/19/78
f 24/60/34 23/59/32 103/59/77 104/60/82
f 14/23/9 16/22/13 97/22/84 96/23/81
f 22/54/30 21/53/29 101/53/86 102/54/76
f 16/26/13 17/25/15 98/25/87 97/26/84
f 25/61/35 24/64/34 104/64/82 105/61/88
f 17/31/15 2/30/18 90/30/89 98/31/87
f 2/65/18 25/66/35 105/66/88 90/65/89
