# Blender 4.5.9 LTS
# www.blender.org
mtllib Serwers02.mtl
o Serwers02
v -0.000000 3.254395 -4.248927
v -0.000000 3.254395 4.248926
v -1.862715 -2.636669 -4.248927
v -1.862715 -2.636668 4.248927
v -2.455375 -2.122127 -4.248927
v -2.455375 -2.122126 4.248927
v -3.215858 -0.456902 -4.248927
v -3.215858 -0.456902 4.248927
v -2.955328 1.355121 -4.248927
v -2.955328 1.355122 4.248927
v -1.756503 2.738639 -4.248927
v -1.756503 2.738640 4.248927
v -0.999720 -2.636669 -4.248926
v -0.999720 -2.636668 4.248926
v -0.999720 -2.880242 -4.248926
v -0.999720 -2.880242 4.248926
v -0.000000 -2.880242 -4.248926
v -0.000000 -2.880242 4.248926
v 1.862715 -2.636669 -4.248927
v 1.862715 -2.636668 4.248927
v 2.455374 -2.122127 -4.248927
v 2.455374 -2.122126 4.248927
v 3.215857 -0.456902 -4.248927
v 3.215857 -0.456902 4.248927
v 2.955327 1.355121 -4.248927
v 2.955327 1.355122 4.248927
v 1.756502 2.738639 -4.248927
v 1.756502 2.738640 4.248927
v 0.999720 -2.636669 -4.248926
v 0.999719 -2.636668 4.248926
v 0.999720 -2.880242 -4.248926
v 0.999719 -2.880242 4.248926
v -0.000000 3.254395 -3.347690
v -1.862715 -2.636669 -3.347689
v -2.455375 -2.122127 -3.347689
v -3.215858 -0.456902 -3.347689
v -2.955328 1.355121 -3.347689
v -1.756503 2.738639 -3.347690
v -0.999720 -2.636669 -3.347689
v -0.999720 -2.880242 -3.347689
v -0.000000 -2.880242 -3.347689
v 1.862715 -2.636669 -3.347689
v 2.455374 -2.122127 -3.347689
v 3.215857 -0.456902 -3.347689
v 2.955327 1.355121 -3.347689
v 1.756502 2.738639 -3.347690
v 0.999720 -2.636669 -3.347689
v 0.999720 -2.880242 -3.347689
v -0.000000 3.521715 4.749735
v -1.985334 -2.757147 4.749735
v -2.617008 -2.208733 4.749735
v -3.427551 -0.433890 4.749735
v -3.149872 1.497415 4.749735
v -1.872130 2.972008 4.749735
v -1.065529 -2.757147 4.749735
v -1.065529 -3.016754 4.749735
v -0.000000 -3.016754 4.749735
v 1.985334 -2.757147 4.749735
v 2.617007 -2.208733 4.749735
v 3.427551 -0.433890 4.749735
v 3.149871 1.497415 4.749735
v 1.872130 2.972008 4.749735
v 1.065529 -2.757147 4.749735
v 1.065529 -3.016754 4.749735
v -0.000000 3.270610 -4.259101
v -1.869776 -2.642784 -4.259100
v -2.464682 -2.126292 -4.259100
v -3.228047 -0.454755 -4.259100
v -2.966530 1.364136 -4.259100
v -1.763160 2.752899 -4.259100
v -1.003509 -2.642784 -4.259100
v -1.003509 -2.887281 -4.259100
v -0.000000 -2.887281 -4.259100
v 1.869775 -2.642784 -4.259100
v 2.464681 -2.126292 -4.259100
v 3.228047 -0.454755 -4.259100
v 2.966529 1.364136 -4.259100
v 1.763160 2.752899 -4.259100
v 1.003509 -2.642784 -4.259100
v 1.003509 -2.887281 -4.259100
vn -0.0000 1.0000 -0.0000
vn 0.3298 0.9316 0.1530
vn 0.6924 0.7111 0.1224
vn 0.6556 0.7551 -0.0000
vn 0.8008 0.5989 -0.0000
vn 0.7860 0.5924 0.1767
vn 0.9898 0.1423 -0.0000
vn 0.9684 0.1488 0.2001
vn 0.9096 -0.4154 -0.0000
vn 0.8895 -0.3968 0.2266
vn 0.5406 -0.8413 -0.0000
vn 0.5282 -0.8126 0.2463
vn -0.0000 -1.0000 -0.0000
vn -0.0000 -0.9673 0.2536
vn 0.7186 0.6800 0.1453
vn -0.0000 0.9912 0.1327
vn 1.0000 -0.0000 -0.0000
vn -0.6924 0.7111 0.1224
vn -0.3298 0.9316 0.1530
vn -0.6556 0.7551 -0.0000
vn -0.7860 0.5924 0.1767
vn -0.8008 0.5989 -0.0000
vn -0.9684 0.1488 0.2001
vn -0.9898 0.1423 -0.0000
vn -0.8895 -0.3968 0.2266
vn -0.9096 -0.4154 -0.0000
vn -0.5282 -0.8126 0.2463
vn -0.5406 -0.8413 -0.0000
vn -0.7186 0.6800 0.1453
vn -1.0000 -0.0000 -0.0000
vn 0.6487 0.1296 -0.7499
vn 0.5636 0.4433 -0.6970
vn 0.5793 0.4167 -0.7005
vn 0.6464 0.0690 -0.7599
vn -0.0000 -0.0000 1.0000
vn -0.0000 0.8224 -0.5690
vn 0.7114 0.6563 0.2514
vn 0.6541 0.7036 0.2777
vn 0.9167 0.1170 0.3821
vn 0.7566 0.5581 0.3407
vn -0.8170 -0.3872 0.4274
vn -0.4741 -0.7511 0.4595
vn -0.6541 0.7036 0.2777
vn -0.7114 0.6563 0.2514
vn -0.0000 0.9648 0.2630
vn -0.0000 -0.8822 0.4709
vn 0.4741 -0.7511 0.4595
vn -0.7566 0.5581 0.3407
vn -0.9167 0.1170 0.3821
vn 0.3586 0.8838 0.3004
vn 0.8170 -0.3872 0.4274
vn -0.3586 0.8838 0.3004
vn -0.0000 -0.0000 -1.0000
vn -0.5517 -0.2218 -0.8040
vn -0.3081 -0.4530 -0.8366
vn -0.2873 -0.4638 -0.8381
vn -0.5263 -0.2597 -0.8097
vn -0.0000 -0.5315 -0.8471
vn 0.3081 -0.4530 -0.8366
vn 0.2873 -0.4638 -0.8381
vn -0.5636 0.4433 -0.6970
vn -0.6487 0.1296 -0.7499
vn -0.6464 0.0690 -0.7599
vn -0.5793 0.4167 -0.7005
vn -0.0000 0.8571 -0.5152
vn 0.2088 0.7674 -0.6062
vn 0.3125 0.7026 -0.6392
vn 0.5517 -0.2218 -0.8040
vn 0.5263 -0.2597 -0.8097
vn -0.2088 0.7674 -0.6062
vn -0.3125 0.7026 -0.6392
vn -0.0000 -0.8224 0.5689
vt -0.630521 0.680855
vt -0.630521 0.990118
vt 3.027601 0.990118
vt 3.027601 0.680855
vt -0.206937 0.602839
vt -0.206937 0.842623
vt 2.080334 0.842623
vt 2.080334 0.602839
vt -0.206937 1.483311
vt -0.206937 0.809576
vt 2.080334 0.809576
vt 2.080334 1.483310
vt -0.206937 0.076448
vt 2.080334 0.076448
vt 2.080334 0.809576
vt -0.206937 -0.483311
vt 2.080334 -0.483311
vt 2.080334 0.076448
vt -0.206937 0.559866
vt -0.206937 -0.150799
vt 2.080334 -0.150799
vt 2.080334 0.559866
vt -0.366573 0.500000
vt -0.366573 0.991538
vt 2.437469 0.991538
vt 2.437469 0.500000
vt -0.630521 0.791843
vt 3.027601 0.791843
vt 3.027601 0.879130
vt -0.630521 0.879130
vt 3.027601 0.990118
vt -0.206937 0.602839
vt 2.080334 0.842623
vt -0.206937 0.842623
vt -0.206937 1.483311
vt 2.080334 1.483310
vt -0.206937 0.809576
vt 2.080334 0.809576
vt -0.206937 0.076448
vt 2.080334 0.076448
vt 2.080334 -0.483311
vt -0.206937 -0.483311
vt -0.206937 0.559866
vt 2.080334 0.559866
vt 2.080334 -0.150799
vt 2.437469 0.500000
vt 2.437469 0.008462
vt -0.366573 0.008462
vt -0.630521 0.879130
vt 3.027601 0.879130
vt 3.027601 0.791843
vt -0.478291 0.809576
vt -0.478291 1.483311
vt 0.152713 0.887041
vt 0.152713 0.802428
vt 0.847287 0.802428
vt 0.847287 0.887041
vt 0.152713 0.688196
vt 0.152713 1.001272
vt 0.847287 1.001272
vt 0.847287 0.688196
vt -0.478291 0.559866
vt -0.478291 -0.150799
vt -0.478291 0.076448
vt -0.478291 -0.483311
vt -0.478291 0.602839
vt -0.478291 0.842623
vt -0.147078 1.001272
vt 0.241554 1.001272
vt 0.241554 0.688196
vt 0.758446 0.688196
vt 0.758446 1.001272
vt 0.000000 0.000000
vt 1.147078 1.001272
vt -1.064508 0.990118
vt -0.163646 -0.506040
vt 0.143821 -0.506040
vt 0.143821 -0.592820
vt 0.500000 -0.592820
vt 0.856179 -0.592820
vt 0.856179 -0.506040
vt 1.163646 -0.506040
vt 1.374798 -0.322720
vt 1.645742 0.270564
vt 1.552920 0.916149
vt 1.125804 1.409067
vt 0.500000 1.592820
vt -0.125805 1.409067
vt -0.552920 0.916149
vt -0.645742 0.270564
vt -0.374798 -0.322720
vt 0.241554 0.802428
vt 0.241554 0.887041
vt 0.758446 0.887041
vt 0.758446 0.802428
s 1
usemtl concrete_base_03
f 34/5/4 35/6/5 6/7/6 4/8/2
f 35/9/5 36/10/7 8/11/8 6/12/6
f 36/10/7 37/13/9 10/14/10 8/15/8
f 37/13/9 38/16/11 12/17/12 10/18/10
f 38/19/11 33/20/13 2/21/14 12/22/12
f 42/32/20 20/8/19 22/33/21 43/34/22
f 43/35/22 22/36/21 24/11/23 44/37/24
f 44/37/24 24/38/23 26/14/25 45/39/26
f 45/39/26 26/40/25 28/41/27 46/42/28
f 46/43/28 28/44/27 2/45/14 33/20/13
f 7/52/31 5/53/32 67/53/33 68/52/34
f 27/62/28 46/43/28 33/20/13 1/63/13
f 25/64/26 45/39/26 46/42/28 27/65/28
f 23/52/24 44/37/24 45/39/26 25/64/26
f 21/53/22 43/35/22 44/37/24 23/52/24
f 19/66/20 42/32/20 43/34/22 21/67/22
f 31/69/13 48/70/13 40/71/13 15/72/13
s 0
f 17/73/36 31/73/36 80/73/36 73/73/36
s 1
f 11/62/11 1/63/13 33/20/13 38/19/11
f 9/64/9 11/65/11 38/16/11 37/13/9
f 7/52/7 9/64/9 37/13/9 36/10/7
f 5/53/5 7/52/7 36/10/7 35/9/5
f 3/66/4 5/67/5 35/6/5 34/5/4
f 6/12/6 8/11/8 52/11/39 51/12/40
f 28/41/27 26/40/25 61/40/41 62/41/42
f 12/22/12 2/21/14 49/21/46 54/22/47
f 24/11/23 22/36/21 59/36/48 60/11/49
f 8/15/8 10/14/10 53/14/51 52/15/39
f 2/45/14 28/44/27 62/44/42 49/45/46
f 4/8/2 6/7/6 51/7/40 50/8/50
f 26/14/25 24/38/23 60/38/49 61/14/41
f 10/18/10 12/17/12 54/17/47 53/18/51
f 22/33/21 20/8/19 58/8/52 59/33/48
f 66/76/35 71/77/35 72/78/35 73/79/35 80/80/35 79/81/35 74/82/35 75/83/35 76/84/35 77/85/35 78/86/35 65/87/35 70/88/35 69/89/35 68/90/35 67/91/35
f 79/92/53 80/93/53 72/94/53 71/95/53
f 25/64/54 27/65/55 78/65/56 77/64/57
f 1/63/58 11/62/59 70/62/60 65/63/58
f 21/53/61 23/52/62 76/52/63 75/53/64
f 9/64/68 7/52/31 68/52/34 69/64/69
f 27/62/55 1/63/58 65/63/58 78/62/56
f 5/67/32 3/66/66 66/66/67 67/67/33
f 23/52/62 25/64/54 77/64/57 76/52/63
f 31/69/72 15/72/72 72/72/72 80/69/72
s 0
f 15/73/36 17/73/36 73/73/36 72/73/36
s 1
f 11/65/59 9/64/68 69/64/69 70/65/60
f 19/66/70 21/67/61 75/67/64 74/66/71
usemtl soil_mud
f 41/23/1 40/24/1 16/25/15 18/26/16
f 41/23/1 18/46/16 32/47/29 48/48/1
f 18/26/16 16/25/15 56/25/38 57/26/45
f 32/47/29 18/46/16 57/46/45 64/47/43
usemtl concrete_base_02
f 39/1/1 34/2/1 4/3/2 14/4/3
f 39/27/17 14/28/3 16/29/15 40/30/17
f 47/1/1 30/4/18 20/31/19 42/2/1
f 47/27/30 48/49/30 32/50/29 30/51/18
f 48/54/35 47/55/35 39/56/35 40/57/35
f 47/58/1 29/59/1 13/60/1 39/61/1
f 29/59/1 47/58/1 19/68/1
f 13/60/1 3/74/1 39/61/1
f 19/75/1 47/1/1 42/2/1
f 39/1/1 3/75/1 34/2/1
f 16/29/15 14/28/3 55/28/37 56/29/38
f 30/51/18 32/50/29 64/50/43 63/51/44
f 14/4/3 4/3/2 50/3/50 55/4/37
f 20/31/19 30/4/18 63/4/44 58/31/52
f 13/60/65 29/59/65 79/59/65 71/60/65
f 3/74/66 13/60/65 71/60/65 66/74/67
f 29/59/65 19/68/70 74/68/71 79/59/65
