# Blender 4.5.9 LTS
# www.blender.org
mtllib Serwers_003.mtl
o Serwers_003
v 0.000000 3.386929 -10.557463
v 0.000000 3.386931 3.442537
v 0.000000 -2.882610 3.442537
v 0.000000 -2.882611 -10.557463
v -0.979492 -2.882611 -10.557463
v -0.979492 -2.882610 3.442537
v -1.157323 -2.111717 3.442537
v -1.157323 -2.111718 -10.557463
v -2.648009 -2.111718 -10.557463
v -2.648009 -2.111717 3.442537
v -3.302013 -0.753664 -10.557463
v -3.302013 -0.753663 3.442537
v -3.302013 0.753662 -10.557463
v -3.302013 0.753663 3.442537
v -2.648009 2.111716 -10.557463
v -2.648009 2.111717 3.442537
v -1.469534 3.051518 -10.557463
v -1.469534 3.051519 3.442537
v 0.979492 -2.882611 -10.557463
v 0.979492 -2.882610 3.442537
v 1.157323 -2.111717 3.442537
v 1.157323 -2.111718 -10.557463
v 2.648009 -2.111718 -10.557463
v 2.648009 -2.111717 3.442537
v 3.302013 -0.753664 -10.557463
v 3.302013 -0.753663 3.442537
v 3.302013 0.753662 -10.557463
v 3.302013 0.753663 3.442537
v 2.648009 2.111716 -10.557463
v 2.648009 2.111717 3.442537
v 1.469534 3.051518 -10.557463
v 1.469534 3.051519 3.442537
v -0.000000 3.587540 3.861834
v -0.000000 -3.031538 3.861834
v -1.034100 -3.031538 3.861834
v -1.221846 -2.217666 3.861834
v -2.795640 -2.217666 3.861834
v -3.486106 -0.783899 3.861834
v -3.486106 0.807463 3.861834
v -2.795640 2.241231 3.861834
v -1.551463 3.233428 3.861834
v 1.034100 -3.031538 3.861834
v 1.221846 -2.217666 3.861834
v 2.795640 -2.217666 3.861834
v 3.486106 -0.783899 3.861834
v 3.486106 0.807463 3.861834
v 2.795640 2.241231 3.861834
v 1.551463 3.233428 3.861834
v 0.000000 3.617093 -10.864947
v 0.000000 -3.053481 -10.864947
v -1.042146 -3.053481 -10.864947
v -1.231352 -2.233277 -10.864947
v -2.817389 -2.233277 -10.864947
v -3.513227 -0.788355 -10.864947
v -3.513227 0.815388 -10.864947
v -2.817389 2.260310 -10.864947
v -1.563533 3.260227 -10.864947
v 1.042146 -3.053481 -10.864947
v 1.231352 -2.233277 -10.864947
v 2.817389 -2.233277 -10.864947
v 3.513227 -0.788355 -10.864947
v 3.513227 0.815388 -10.864947
v 2.817389 2.260310 -10.864947
v 1.563533 3.260227 -10.864947
vn -0.0000 0.9844 0.1761
vn -0.0000 0.9855 0.1697
vn -0.0000 0.9681 -0.2504
vn -0.0000 0.9646 -0.2639
vn 0.9700 0.2238 0.0945
vn 0.9684 0.2234 0.1107
vn 0.9594 0.2213 -0.1750
vn 0.9650 0.2226 -0.1386
vn -0.0000 0.9908 0.1352
vn -0.0000 0.9931 0.1172
vn -0.0000 0.9850 -0.1726
vn -0.0000 0.9774 -0.2116
vn 0.9010 0.4339 -0.0000
vn 0.9749 0.2225 -0.0000
vn 0.9520 0.2192 0.2134
vn 0.8819 0.4247 0.2044
vn 0.9749 -0.2225 -0.0000
vn 0.9517 -0.2153 0.2188
vn 0.7818 -0.6235 -0.0000
vn 0.7630 -0.6065 0.2236
vn 0.4339 -0.9010 -0.0000
vn 0.4233 -0.8771 0.2269
vn -0.0000 -1.0000 -0.0000
vn -0.0000 -0.9736 0.2281
vn -0.9700 0.2238 0.0945
vn -0.9650 0.2226 -0.1386
vn -0.9594 0.2213 -0.1750
vn -0.9684 0.2234 0.1107
vn -0.9010 0.4339 -0.0000
vn -0.8819 0.4247 0.2044
vn -0.9520 0.2192 0.2134
vn -0.9749 0.2225 -0.0000
vn -0.9517 -0.2153 0.2188
vn -0.9749 -0.2225 -0.0000
vn -0.7630 -0.6065 0.2236
vn -0.7818 -0.6235 -0.0000
vn -0.4233 -0.8771 0.2269
vn -0.4339 -0.9010 -0.0000
vn -0.7067 -0.5666 0.4238
vn -0.3906 -0.8142 0.4296
vn 0.8862 -0.2053 0.4154
vn 0.8917 0.2004 0.4059
vn -0.0000 0.9695 0.2450
vn -0.8917 0.2004 0.4059
vn -0.8862 -0.2053 0.4154
vn -0.0000 -0.9021 0.4316
vn 0.3906 -0.8142 0.4296
vn -0.0000 0.9423 0.3347
vn 0.7067 -0.5666 0.4238
vn 0.8286 0.3990 0.3926
vn 0.9542 0.2201 0.2025
vn -0.8286 0.3990 0.3926
vn -0.9542 0.2201 0.2025
vn -0.0000 0.9300 -0.3676
vn -0.7997 0.1873 -0.5704
vn -0.7944 -0.1766 -0.5811
vn -0.7924 -0.1846 -0.5814
vn -0.8014 0.1791 -0.5707
vn -0.0000 -0.8006 -0.5993
vn 0.3499 -0.7219 -0.5970
vn 0.3467 -0.7235 -0.5970
vn -0.0000 0.8741 -0.4857
vn -0.3499 -0.7219 -0.5970
vn -0.3467 -0.7235 -0.5970
vn 0.6332 -0.5003 -0.5906
vn 0.7944 -0.1766 -0.5811
vn 0.7924 -0.1846 -0.5814
vn 0.6291 -0.5053 -0.5907
vn -0.6332 -0.5003 -0.5906
vn -0.6291 -0.5053 -0.5907
vn 0.7997 0.1873 -0.5704
vn 0.7492 0.3608 -0.5554
vn 0.8014 0.1791 -0.5707
vn 0.9271 0.2139 -0.3078
vn -0.7492 0.3608 -0.5554
vn -0.9271 0.2139 -0.3078
vt -0.258957 1.006753
vt -0.258957 1.237606
vt 2.987360 1.237606
vt 2.987360 1.006753
vt -0.258957 0.195233
vt -0.258957 0.013544
vt 2.987360 0.013544
vt 2.987360 0.195233
vt -0.258957 0.646012
vt -0.258957 0.997347
vt 2.987361 0.997347
vt 2.987360 0.646012
vt 2.245889 0.005138
vt 2.245889 0.241734
vt -0.153743 0.241734
vt -0.153743 0.005138
vt 2.245889 0.504334
vt -0.153743 0.504335
vt 2.245889 0.740930
vt -0.153743 0.740930
vt 2.245889 0.533535
vt 2.245889 0.738845
vt -0.153743 0.738845
vt -0.153743 0.533535
vt 2.245889 0.994861
vt -0.153743 0.994861
s 1
usemtl concrete_base
f 6/1/1 3/2/2 4/3/3 5/4/4
f 7/5/5 6/6/6 5/7/7 8/8/8
f 10/9/9 7/10/10 8/11/11 9/12/12
f 20/1/1 19/4/4 4/3/3 3/2/2
f 21/5/25 22/8/26 19/7/27 20/6/28
f 24/9/9 23/12/12 22/11/11 21/10/10
f 7/10/10 10/9/9 37/9/43 36/10/43
f 24/9/9 21/10/10 43/10/43 44/9/43
f 3/2/2 6/1/1 35/1/48 34/2/48
f 20/1/1 3/2/2 34/2/48 42/1/48
f 6/6/6 7/5/5 36/5/51 35/6/51
f 21/5/25 20/6/28 42/6/53 43/5/53
f 9/12/12 8/11/11 52/11/54 53/12/54
f 22/11/11 23/12/12 60/12/54 59/11/54
f 5/4/4 4/3/3 50/3/62 51/4/62
f 4/3/3 19/4/4 58/4/62 50/3/62
f 8/8/8 5/7/7 51/7/74 52/8/74
f 19/7/27 22/8/26 59/8/76 58/7/76
usemtl brick_modern_01
f 9/13/13 11/14/14 12/15/15 10/16/16
f 11/14/14 13/17/17 14/18/18 12/15/15
f 13/17/17 15/19/19 16/20/20 14/18/18
f 15/21/19 17/22/21 18/23/22 16/24/20
f 17/22/21 1/25/23 2/26/24 18/23/22
f 23/13/29 24/16/30 26/15/31 25/14/32
f 25/14/32 26/15/31 28/18/33 27/17/34
f 27/17/34 28/18/33 30/20/35 29/19/36
f 29/21/36 30/24/35 32/23/37 31/22/38
f 31/22/38 32/23/37 2/26/24 1/25/23
f 32/23/37 30/24/35 47/24/39 48/23/40
f 12/15/15 14/18/18 39/18/41 38/15/42
f 28/18/33 26/15/31 45/15/44 46/18/45
f 18/23/22 2/26/24 33/26/46 41/23/47
f 2/26/24 32/23/37 48/23/40 33/26/46
f 14/18/18 16/20/20 40/20/49 39/18/41
f 30/20/35 28/18/33 46/18/45 47/20/39
f 10/16/16 12/15/15 38/15/42 37/16/50
f 26/15/31 24/16/30 44/16/52 45/15/44
f 16/24/20 18/23/22 41/23/47 40/24/49
f 25/14/55 27/17/56 62/17/57 61/14/58
f 1/25/59 17/22/60 57/22/61 49/25/59
f 31/22/63 1/25/59 49/25/59 64/22/64
f 15/19/65 13/17/66 55/17/67 56/19/68
f 27/17/56 29/19/69 63/19/70 62/17/57
f 11/14/71 9/13/72 53/13/72 54/14/73
f 23/13/75 25/14/55 61/14/58 60/13/75
f 17/22/60 15/21/65 56/21/68 57/22/61
f 29/21/69 31/22/63 64/22/64 63/21/70
f 13/17/66 11/14/71 54/14/73 55/17/67
