# Blender 4.5.9 LTS
# www.blender.org
mtllib Serwers_011.mtl
o Serwers_011
v 0.000000 3.386930 -0.077553
v 0.000000 3.386931 3.386930
v 0.000000 -2.882610 3.386931
v 0.000000 -2.882610 -0.077552
v -0.979492 -2.882610 -0.077552
v -0.979492 -2.882610 3.386931
v -1.157323 -2.111717 3.386931
v -1.157323 -2.111717 -0.077553
v -2.648009 -2.111717 -0.077553
v -2.648009 -2.111717 3.386931
v -3.302013 -0.753663 -0.077553
v -3.302013 -0.753663 3.386930
v -3.302013 0.753663 -0.077553
v -3.302013 0.753663 3.386930
v -2.648009 2.111717 -0.077553
v -2.648009 2.111717 3.386930
v -1.469534 3.051519 -0.077553
v -1.469534 3.051519 3.386930
v 0.000000 -2.111717 -1.646368
v -1.157323 -2.111717 -1.646368
v -2.648009 -2.111717 -1.646368
v -3.302013 -0.753663 -1.646368
v -3.302013 0.753663 -1.646368
v -2.648009 2.111717 -1.646369
v -1.469534 3.051519 -1.646369
v 0.000000 3.386930 -1.646369
v 0.000000 -2.111717 -0.077553
v 0.979492 -2.882610 -0.077552
v 0.979492 -2.882610 3.386931
v 1.157323 -2.111717 3.386931
v 1.157323 -2.111717 -0.077553
v 2.648009 -2.111717 -0.077553
v 2.648009 -2.111717 3.386931
v 3.302013 -0.753663 -0.077553
v 3.302013 -0.753663 3.386930
v 3.302013 0.753663 -0.077553
v 3.302013 0.753663 3.386930
v 2.648009 2.111717 -0.077553
v 2.648009 2.111717 3.386930
v 1.469534 3.051519 -0.077553
v 1.469534 3.051519 3.386930
v 1.157323 -2.111717 -1.646368
v 2.648009 -2.111717 -1.646368
v 3.302013 -0.753663 -1.646368
v 3.302013 0.753663 -1.646368
v 2.648009 2.111717 -1.646369
v 1.469534 3.051519 -1.646369
v -0.000000 3.565687 3.708950
v -0.000000 -3.015315 3.708951
v -1.028152 -3.015315 3.708951
v -1.214817 -2.206125 3.708951
v -2.779558 -2.206125 3.708951
v -3.466053 -0.780605 3.708950
v -3.466053 0.801603 3.708950
v -2.779558 2.227123 3.708950
v -1.542538 3.213613 3.708950
v 1.028152 -3.015315 3.708951
v 1.214817 -2.206125 3.708951
v 2.779558 -2.206125 3.708951
v 3.466053 -0.780605 3.708950
v 3.466053 0.801603 3.708950
v 2.779558 2.227123 3.708950
v 1.542538 3.213613 3.708950
vn -0.0000 0.9793 0.2024
vn -0.0000 0.9810 0.1942
vn -0.0000 1.0000 -0.0000
vn 0.9687 0.2235 0.1080
vn 0.9663 0.2229 0.1290
vn 0.9744 0.2248 -0.0000
vn -0.0000 0.9876 0.1572
vn -0.0000 0.9910 0.1340
vn 0.9010 0.4339 -0.0000
vn 0.9749 0.2225 -0.0000
vn 0.9451 0.2179 0.2436
vn 0.8761 0.4219 0.2334
vn 0.9749 -0.2225 -0.0000
vn 0.9445 -0.2135 0.2495
vn 0.7818 -0.6235 -0.0000
vn 0.7571 -0.6016 0.2548
vn 0.4339 -0.9010 -0.0000
vn 0.4200 -0.8700 0.2585
vn -0.0000 -1.0000 -0.0000
vn -0.0000 -0.9657 0.2597
vn -0.0000 -0.0000 1.0000
vn -0.9687 0.2235 0.1080
vn -0.9744 0.2248 -0.0000
vn -0.9663 0.2229 0.1290
vn -0.9010 0.4339 -0.0000
vn -0.8761 0.4219 0.2334
vn -0.9451 0.2179 0.2436
vn -0.9749 0.2225 -0.0000
vn -0.9445 -0.2135 0.2495
vn -0.9749 -0.2225 -0.0000
vn -0.7571 -0.6016 0.2548
vn -0.7818 -0.6235 -0.0000
vn -0.4200 -0.8700 0.2585
vn -0.4339 -0.9010 -0.0000
vn -0.3786 -0.7894 0.4832
vn -0.0000 -0.8743 0.4853
vn 0.8607 -0.1997 0.4682
vn 0.8673 0.1946 0.4581
vn -0.0000 0.9246 0.3810
vn -0.0000 0.9596 0.2813
vn -0.8607 -0.1997 0.4682
vn -0.6855 -0.5499 0.4771
vn 0.3786 -0.7894 0.4832
vn -0.8074 0.3888 0.4438
vn -0.8673 0.1946 0.4581
vn -0.9475 0.2186 0.2333
vn 0.6855 -0.5499 0.4771
vn 0.8074 0.3888 0.4438
vn 0.9475 0.2186 0.2333
vt -0.258957 1.006753
vt -0.258957 1.237606
vt 0.557576 1.237606
vt 0.557576 1.006753
vt -0.258957 0.195233
vt -0.258957 0.013544
vt 0.557576 0.013544
vt 0.557576 0.195233
vt -0.258957 0.646012
vt -0.258957 0.997347
vt 0.557576 0.997347
vt 0.557576 0.646012
vt 0.449827 0.005138
vt 0.449827 0.241734
vt -0.153743 0.241734
vt -0.153743 0.005138
vt 0.449827 0.504334
vt -0.153743 0.504335
vt 0.449827 0.740930
vt -0.153743 0.740930
vt 0.449827 0.533535
vt 0.449827 0.738845
vt -0.153743 0.738845
vt -0.153743 0.533535
vt 0.449827 0.994861
vt -0.153743 0.994861
vt 0.723140 0.005138
vt 0.723140 0.241734
vt 0.774810 0.187630
vt 0.774810 1.065713
vt 0.540417 1.012215
vt 0.352449 0.862315
vt 0.248135 0.645704
vt 0.248135 0.405283
vt 0.352449 0.188672
vt 0.590215 0.188672
vt 0.723141 0.738845
vt 0.723141 0.994861
vt 0.723141 0.533535
vt 0.723140 0.504334
vt 0.723140 0.740930
vt 0.927325 0.646012
vt 0.513563 0.642117
vt 0.513563 0.997997
vt 0.776097 0.997997
vt 0.776097 0.642117
vt 0.555361 0.005290
vt 0.555361 0.202338
vt 0.259536 0.202338
vt 0.304992 0.005290
vt 0.175407 0.642117
s 1
usemtl concrete_base
f 6/1/1 3/2/2 4/3/3 5/4/3
f 7/5/4 6/6/5 5/7/6 8/8/6
f 10/9/7 7/10/8 8/11/3 9/12/3
f 9/12/3 8/11/3 21/42/3
f 20/43/3 8/44/3 27/45/3 19/46/3
f 4/47/21 27/48/21 8/49/21 5/50/21
f 21/51/3 8/44/3 20/43/3
f 29/1/1 28/4/3 4/3/3 3/2/2
f 30/5/22 31/8/23 28/7/23 29/6/24
f 33/9/7 32/12/3 31/11/3 30/10/8
f 32/12/3 43/42/3 31/11/3
f 42/43/3 19/46/3 27/45/3 31/44/3
f 4/47/21 28/50/21 31/49/21 27/48/21
f 43/51/3 42/43/3 31/44/3
f 29/1/1 3/2/2 49/2/39 57/1/39
f 7/10/8 10/9/7 52/9/40 51/10/40
f 3/2/2 6/1/1 50/1/39 49/2/39
f 30/5/22 29/6/24 57/6/46 58/5/46
f 6/6/5 7/5/4 51/5/49 50/6/49
f 33/9/7 30/10/8 58/10/40 59/9/40
usemtl brick_modern_01
f 9/13/9 11/14/10 12/15/11 10/16/12
f 11/14/10 13/17/13 14/18/14 12/15/11
f 13/17/13 15/19/15 16/20/16 14/18/14
f 15/21/15 17/22/17 18/23/18 16/24/16
f 17/22/17 1/25/19 2/26/20 18/23/18
f 11/14/10 9/13/9 21/27/9 22/28/10
f 19/29/21 26/30/21 25/31/21 24/32/21 23/33/21 22/34/21 21/35/21 20/36/21
f 1/25/19 17/22/17 25/37/17 26/38/19
f 17/22/17 15/21/15 24/39/15 25/37/17
f 15/19/15 13/17/13 23/40/13 24/41/15
f 13/17/13 11/14/10 22/28/10 23/40/13
f 32/13/25 33/16/26 35/15/27 34/14/28
f 34/14/28 35/15/27 37/18/29 36/17/30
f 36/17/30 37/18/29 39/20/31 38/19/32
f 38/21/32 39/24/31 41/23/33 40/22/34
f 40/22/34 41/23/33 2/26/20 1/25/19
f 34/14/28 44/28/28 43/27/25 32/13/25
f 19/29/21 42/36/21 43/35/21 44/34/21 45/33/21 46/32/21 47/31/21 26/30/21
f 1/25/19 26/38/19 47/37/34 40/22/34
f 40/22/34 47/37/34 46/39/32 38/21/32
f 38/19/32 46/41/32 45/40/30 36/17/30
f 36/17/30 45/40/30 44/28/28 34/14/28
f 2/26/20 41/23/33 63/23/35 48/26/36
f 12/15/11 14/18/14 54/18/37 53/15/38
f 39/20/31 37/18/29 61/18/41 62/20/42
f 18/23/18 2/26/20 48/26/36 56/23/43
f 35/15/27 33/16/26 59/16/44 60/15/45
f 14/18/14 16/20/16 55/20/47 54/18/37
f 41/23/33 39/24/31 62/24/42 63/23/35
f 10/16/12 12/15/11 53/15/38 52/16/48
f 37/18/29 35/15/27 60/15/45 61/18/41
f 16/24/16 18/23/18 56/23/43 55/24/47
