# Blender 4.5.9 LTS
# www.blender.org
mtllib SerwersP1_011.mtl
o SerwersP1_011
v -0.058480 0.357368 -1.922634
v -0.058480 -0.342561 -1.945871
v -0.058480 -1.704704 1.240659
v -0.058480 -0.342561 1.945871
v -0.058480 -1.704704 -1.240659
v -0.058480 0.357368 1.922635
v -0.058480 1.907061 -0.000004
v -0.058480 1.654752 0.973428
v -0.058480 1.090790 1.558564
v -0.058480 1.090789 -1.558564
v -0.058480 1.654752 -0.973435
v -0.058480 0.347680 -1.846286
v -0.058480 -0.342561 -1.868600
v -0.058480 -1.655438 1.191392
v -0.058480 -0.342561 1.868600
v -0.058480 1.059943 1.494957
v -0.058480 0.347680 1.846287
v -0.058480 -1.655438 -1.191393
v -0.058480 1.609079 -0.936501
v -0.058480 1.856575 -0.000004
v -0.058480 1.609080 0.936494
v -0.058480 1.059942 -1.494956
v 0.058480 0.347680 -1.846286
v 0.058480 -0.342561 -1.868600
v 0.058480 -1.655438 1.191392
v 0.058480 -0.342561 1.868600
v 0.058480 1.059943 1.494957
v 0.058480 0.347680 1.846287
v 0.058480 -1.655438 -1.191393
v 0.058480 1.609079 -0.936501
v 0.058480 1.856575 -0.000004
v 0.058480 1.609080 0.936494
v 0.058480 1.059942 -1.494956
v 0.058480 0.357368 -1.922634
v 0.058480 -0.342561 -1.945871
v 0.058480 -1.704704 1.240659
v 0.058480 -0.342561 1.945871
v 0.058480 1.090790 1.558564
v 0.058480 0.357368 1.922635
v 0.058480 -1.704704 -1.240659
v 0.058480 1.654752 -0.973435
v 0.058480 1.907061 -0.000004
v 0.058480 1.654752 0.973428
v 0.058480 1.090789 -1.558564
v -0.020423 1.842539 -0.085844
v -0.020423 1.842539 -0.150526
v 0.020423 1.842539 -0.085844
v 0.020423 1.842539 -0.150526
v -0.020423 1.777656 -0.339896
v -0.020423 1.777656 -0.404578
v 0.020423 1.777656 -0.339896
v 0.020423 1.777656 -0.404578
v -0.020423 -1.658403 -0.573957
v -0.020423 1.715649 -0.573958
v -0.020423 -1.658403 -0.638640
v -0.020423 1.715649 -0.638640
v 0.020423 -1.658403 -0.573957
v 0.020423 1.715649 -0.573958
v 0.020423 -1.658403 -0.638640
v 0.020423 1.715649 -0.638640
v -0.020423 -1.658403 -0.869370
v -0.020423 1.638423 -0.869371
v -0.020423 -1.658403 -0.934053
v -0.020423 1.638423 -0.934053
v 0.020423 -1.658403 -0.869370
v 0.020423 1.638423 -0.869371
v 0.020423 -1.658403 -0.934053
v 0.020423 1.638423 -0.934053
v -0.020423 1.842539 0.085844
v -0.020423 1.842539 0.150526
v 0.020423 1.842539 0.085844
v 0.020423 1.842539 0.150526
v -0.020423 1.777656 0.339895
v -0.020423 1.777656 0.404578
v 0.020423 1.777656 0.339895
v 0.020423 1.777656 0.404578
v -0.020423 -1.658403 0.573958
v -0.020423 1.715649 0.573958
v -0.020423 -1.658403 0.638640
v -0.020423 1.715649 0.638640
v 0.020423 -1.658403 0.573958
v 0.020423 1.715649 0.573958
v 0.020423 -1.658403 0.638640
v 0.020423 1.715649 0.638640
v -0.020423 -1.658403 0.869371
v -0.020423 1.638423 0.869370
v -0.020423 -1.658403 0.934053
v -0.020423 1.638423 0.934053
v 0.020423 -1.658403 0.869371
v 0.020423 1.638423 0.869370
v 0.020423 -1.658403 0.934053
v 0.020423 1.638423 0.934053
v -0.016773 -1.051672 -1.579285
v -0.016773 -1.051672 1.563371
v -0.016773 -0.998549 -1.579285
v -0.016773 -0.998549 1.563371
v 0.016773 -1.051672 -1.579285
v 0.016773 -1.051672 1.563371
v 0.016773 -0.998549 -1.579285
v 0.016773 -0.998549 1.563371
v -0.016773 -0.335919 -1.914297
v -0.016773 -0.335919 1.898382
v -0.016773 -0.282797 -1.914297
v -0.016773 -0.282796 1.898382
v 0.016773 -0.335919 -1.914297
v 0.016773 -0.335919 1.898382
v 0.016773 -0.282797 -1.914297
v 0.016773 -0.282796 1.898382
v -0.016773 0.654366 -1.719738
v -0.016773 0.654366 1.703823
v -0.016773 0.707489 -1.719738
v -0.016773 0.707489 1.703823
v 0.016773 0.654366 -1.719738
v 0.016773 0.654366 1.703823
v 0.016773 0.707489 -1.719738
v 0.016773 0.707489 1.703823
v -0.058480 -1.655438 -0.534329
v -0.058480 -1.655438 0.534330
v -0.058480 -1.704704 -0.534329
v -0.058480 -1.704704 0.534330
v 0.058480 -1.704704 -0.534329
v 0.058480 -1.704704 0.534330
v 0.058480 -1.655438 -0.534329
v 0.058480 -1.655438 0.534330
v -0.020423 0.636350 -0.085844
v -0.020423 0.636350 -0.150526
v 0.020423 0.636350 -0.150526
v 0.020423 0.636350 -0.085844
v -0.020423 0.636350 -0.339896
v -0.020423 0.636350 -0.404578
v 0.020423 0.636350 -0.404578
v 0.020423 0.636350 -0.339896
v -0.020423 0.636350 0.150526
v -0.020423 0.636350 0.085844
v 0.020423 0.636350 0.150526
v 0.020423 0.636350 0.085844
v -0.020423 0.636350 0.404578
v -0.020423 0.636350 0.339896
v 0.020423 0.636350 0.404578
v 0.020423 0.636350 0.339896
v -0.016773 -1.051672 -0.534329
v -0.016773 -1.051672 0.534329
v -0.016773 -0.998549 -0.534329
v -0.016773 -0.998549 0.534329
v 0.016773 -0.998549 -0.534329
v 0.016773 -0.998549 0.534329
v 0.016773 -1.051672 -0.534329
v 0.016773 -1.051672 0.534329
v -0.016773 -0.335919 -0.534329
v -0.016773 -0.335919 0.534329
v -0.016773 -0.282797 -0.534329
v -0.016773 -0.282797 0.534329
v 0.016773 -0.282797 -0.534329
v 0.016773 -0.282797 0.534329
v 0.016773 -0.335919 -0.534329
v 0.016773 -0.335919 0.534329
v -0.058480 -1.655438 -0.492940
v 0.058480 -1.655438 -0.492940
v -0.058480 -1.704704 0.492940
v 0.058480 -1.704704 0.492940
v -0.058480 -1.655438 0.492940
v 0.058480 -1.655438 0.492940
v -0.058480 -1.704704 -0.492940
v 0.058480 -1.704704 -0.492940
v -0.058480 0.608746 -0.534329
v 0.058480 0.608746 -0.534329
v -0.058480 0.608746 0.534329
v 0.058480 0.608746 0.534329
v -0.058480 0.608746 -0.492940
v 0.058480 0.608746 -0.492940
v -0.058480 0.608746 0.492940
v 0.058480 0.608746 0.492940
v -0.058480 0.642490 -0.534329
v 0.058480 0.642490 -0.534329
v -0.058480 0.642491 0.534329
v 0.058480 0.642491 0.534329
v -0.058480 0.642490 -0.492940
v 0.058480 0.642490 -0.492940
v -0.058480 0.642491 0.492940
v 0.058480 0.642491 0.492940
v -0.020423 -1.658403 -1.207772
v -0.020423 1.355153 -1.207772
v -0.020423 -1.658403 -1.272454
v -0.020423 1.355153 -1.272455
v 0.020423 -1.658403 -1.207772
v 0.020423 1.355153 -1.207772
v 0.020423 -1.658403 -1.272454
v 0.020423 1.355153 -1.272455
v -0.020423 -1.658403 1.225251
v -0.020423 1.406292 1.225250
v -0.020423 -1.658403 1.160568
v -0.020423 1.406292 1.160568
v 0.020423 -1.658403 1.225251
v 0.020423 1.406292 1.225250
v 0.020423 -1.658403 1.160568
v 0.020423 1.406292 1.160568
v -0.020423 -1.129558 1.525711
v -0.020423 1.104655 1.525711
v -0.020423 -1.129558 1.461029
v -0.020423 1.104655 1.461028
v 0.020423 -1.129558 1.525711
v 0.020423 1.104655 1.525711
v 0.020423 -1.129558 1.461029
v 0.020423 1.104655 1.461028
v -0.020423 -1.012950 -1.527015
v -0.020423 1.024409 -1.527015
v -0.020423 -1.012950 -1.591697
v -0.020423 1.024409 -1.591698
v 0.020423 -1.012950 -1.527015
v 0.020423 1.024409 -1.527015
v 0.020423 -1.012950 -1.591697
v 0.020423 1.024409 -1.591698
vn 1.0000 -0.0000 -0.0000
vn -1.0000 -0.0000 -0.0000
vn -0.0000 -1.0000 -0.0000
vn -0.0000 -0.8690 -0.4949
vn -0.0000 0.2201 0.9755
vn -0.0000 -0.2428 0.9701
vn -0.0000 -0.5859 -0.8104
vn -0.0000 0.2201 -0.9755
vn -0.0000 0.4584 -0.8887
vn -0.0000 -0.2204 0.9754
vn -0.0000 0.2445 0.9697
vn -0.0000 -0.5859 0.8104
vn -0.0000 -0.2428 -0.9701
vn -0.0000 1.0000 -0.0000
vn -0.0000 0.8726 -0.4884
vn -0.0000 -0.8690 0.4949
vn -0.0000 0.4584 0.8887
vn -0.0000 0.8726 0.4884
vn -0.0000 0.2445 -0.9697
vn -0.0000 -0.2204 -0.9754
vn -0.0000 0.5910 0.8067
vn -0.0000 -0.4598 0.8880
vn -0.0000 0.5910 -0.8067
vn -0.0000 -0.4598 -0.8880
vn -0.0000 -0.0000 -1.0000
vn -0.0000 -0.0000 1.0000
vt 0.097357 -1.195544
vt 0.097357 -1.265658
vt 0.732463 -1.244574
vt 0.723673 -1.175297
vt 0.097357 2.195544
vt -1.093931 1.581054
vt -1.138635 1.625758
vt 0.097357 2.265658
vt 1.369971 1.856505
vt 0.723673 2.175297
vt 0.732463 2.244574
vt 1.397961 1.914221
vt -1.093931 -0.581055
vt -1.138635 -0.625758
vt -1.138635 0.015156
vt -1.093931 0.015156
vt -1.093931 0.984844
vt -1.138635 0.984844
vt 1.868250 -0.349769
vt 2.092825 0.499997
vt 2.138635 0.499997
vt 1.909693 -0.383282
vt 1.868250 1.349763
vt 1.909693 1.383276
vt 1.369970 -0.856504
vt 1.397960 -0.914221
vt 0.446936 0.499997
vt 0.553064 0.499997
vt 0.553064 1.349763
vt 0.446936 1.349763
vt 0.446936 0.097357
vt 0.553064 0.097357
vt 0.553064 0.723673
vt 0.446936 0.723673
vt 0.446936 0.015156
vt 0.446936 -0.625758
vt 0.553064 -0.625758
vt 0.553064 0.015156
vt 0.553064 0.984844
vt 0.553064 1.625758
vt 0.446936 1.625758
vt 0.446936 0.984844
vt 0.553064 1.856505
vt 0.446936 1.856505
vt 0.553064 -1.093931
vt 0.446936 -1.093931
vt 0.553064 0.732463
vt 0.446936 0.732463
vt 0.553064 1.369970
vt 0.446936 1.369970
vt 0.446936 1.369971
vt 0.553064 1.369971
vt 0.553064 0.723673
vt 0.446936 0.723673
vt 0.553064 -0.383282
vt 0.446936 -0.383282
vt 0.446936 -0.856504
vt 0.553064 -0.856504
vt 0.553064 -0.349769
vt 0.446936 -0.349769
vt 0.446936 1.383276
vt 0.553064 1.383276
vt 0.446936 0.732463
vt 0.553064 0.732463
vt 0.553064 -0.581055
vt 0.446936 -0.581055
vt 0.446936 1.581054
vt 0.553064 1.581054
vt 0.446936 1.914221
vt 0.553064 1.914221
vt 0.446936 -1.138635
vt 0.553064 -1.138635
vt 0.446936 1.397960
vt 0.553064 1.397960
vt 0.553064 1.397961
vt 0.446936 1.397961
vt 0.553064 -0.914221
vt 0.446936 -0.914221
vt 2.080089 0.422106
vt 2.080089 0.363414
vt 0.985608 0.363414
vt 0.985608 0.422106
vt 0.481468 0.985608
vt 0.481468 2.080089
vt 0.518531 2.080089
vt 0.518531 0.985608
vt 2.021214 0.191583
vt 2.021214 0.132891
vt 0.985608 0.132891
vt 0.985608 0.191583
vt 0.481468 2.021214
vt 0.518531 2.021214
vt -1.096622 -0.020802
vt 1.964950 -0.020802
vt 1.964950 -0.079494
vt -1.096622 -0.079494
vt 0.481468 -1.096622
vt 0.481468 1.964950
vt 0.518531 1.964950
vt 0.518531 -1.096622
vt -1.096622 -0.288856
vt 1.894876 -0.288856
vt 1.894876 -0.347548
vt -1.096622 -0.347548
vt 0.481468 1.894876
vt 0.518531 1.894876
vt 0.985608 0.636586
vt 2.080089 0.636586
vt 2.080089 0.577894
vt 0.985608 0.577894
vt 0.985608 0.867109
vt 2.021214 0.867109
vt 2.021214 0.808417
vt 0.985608 0.808417
vt -1.096622 1.020802
vt -1.096622 1.079494
vt 1.964950 1.079494
vt 1.964950 1.020802
vt 0.481468 -1.096622
vt 0.518531 -1.096622
vt 0.518531 1.964950
vt 0.481468 1.964950
vt -1.096622 1.288855
vt -1.096622 1.347548
vt 1.894876 1.347548
vt 1.894876 1.288856
vt -0.497878 -0.933023
vt -0.546081 -0.933023
vt -0.546081 0.015156
vt -0.497878 0.015156
vt -0.546081 1.918582
vt -0.497878 1.918582
vt -0.497878 0.984844
vt -0.546081 0.984844
vt 0.515220 -0.933023
vt 0.484780 -0.933023
vt 0.484780 0.015156
vt 0.515220 0.015156
vt 0.484780 0.984844
vt 0.484780 1.918582
vt 0.515220 1.918582
vt 0.515220 0.984844
vt 0.103383 0.984844
vt 0.103383 2.222567
vt 0.151586 2.222567
vt 0.151586 0.984844
vt 0.151586 -1.237008
vt 0.103383 -1.237008
vt 0.103383 0.015156
vt 0.151586 0.015156
vt 0.484780 2.222567
vt 0.515220 2.222567
vt 0.515220 -1.237008
vt 0.484780 -1.237008
vt 1.001956 -1.060469
vt 1.001956 2.046027
vt 1.050159 2.046027
vt 1.050158 -1.060469
vt 0.484780 -1.060469
vt 0.484780 2.046027
vt 0.515220 2.046027
vt 0.515220 -1.060469
vt 0.515220 0.151586
vt 0.484780 0.151586
vt 0.484780 0.103383
vt 0.515220 0.103383
vt 0.515220 -0.497878
vt 0.484780 -0.497878
vt 0.484780 -0.546081
vt 0.515220 -0.546081
vt 0.553064 0.052713
vt 0.446936 0.052713
vt -1.093931 0.947287
vt -1.138635 0.947287
vt 0.515220 -0.546081
vt 0.484780 -0.546081
vt 0.481468 0.191583
vt 0.481468 0.132891
vt 0.518531 0.132891
vt 0.518531 0.191583
vt 0.481468 0.422106
vt 0.481468 0.363414
vt 0.518531 0.363414
vt 0.518531 0.422106
vt 0.481468 0.867109
vt 0.481468 0.808417
vt 0.518531 0.808417
vt 0.518531 0.867109
vt 0.481468 0.636586
vt 0.481468 0.577894
vt 0.518531 0.577894
vt 0.518531 0.636586
vt -1.138635 0.052713
vt -1.093931 0.052713
vt 0.553064 0.960561
vt 0.446936 0.960561
vt 0.960561 0.015156
vt 0.960561 0.052713
vt 0.446936 0.947287
vt 0.553064 0.947287
vt 0.960561 0.984844
vt 0.960561 0.947287
vt 0.991180 0.947287
vt 0.991180 0.984844
vt 0.553064 0.991180
vt 0.446936 0.991180
vt 0.991180 0.015156
vt 0.991180 0.052713
vt -1.096622 -0.595917
vt 1.637841 -0.595917
vt 1.637841 -0.654609
vt -1.096622 -0.654609
vt 0.481468 1.637841
vt 0.518531 1.637841
vt -1.096622 1.611777
vt 1.684243 1.611776
vt 1.684243 1.553084
vt -1.096622 1.553085
vt 0.481468 1.684243
vt 0.518531 1.684243
vt -0.616754 1.884411
vt 1.410542 1.884411
vt 1.410542 1.825719
vt -0.616754 1.825719
vt 0.481468 -0.616754
vt 0.481468 1.410542
vt 0.518531 1.410542
vt 0.518531 -0.616754
vt -0.510946 -0.885594
vt 1.337728 -0.885594
vt 1.337728 -0.944286
vt -0.510946 -0.944286
vt 0.481468 -0.510946
vt 0.481468 1.337728
vt 0.518531 1.337728
vt 0.518531 -0.510946
s 1
usemtl Metal
f 24/1/1 35/2/1 34/3/1 23/4/1
f 13/1/2 12/4/2 1/3/2 2/2/2
f 15/5/2 14/6/2 3/7/2 4/8/2
f 16/9/2 17/10/2 6/11/2 9/12/2
f 18/13/2 13/1/2 2/2/2 5/14/2
f 18/13/2 5/14/2 119/15/2 117/16/2
f 14/6/2 118/17/2 120/18/2 3/7/2
f 17/10/2 15/5/2 4/8/2 6/11/2
f 19/19/2 20/20/2 7/21/2 11/22/2
f 20/20/2 21/23/2 8/24/2 7/21/2
f 21/23/2 16/9/2 9/12/2 8/24/2
f 12/4/2 22/25/2 10/26/2 1/3/2
f 22/25/2 19/19/2 11/22/2 10/26/2
f 26/5/1 37/8/1 36/7/1 25/6/1
f 27/9/1 38/12/1 39/11/1 28/10/1
f 29/13/1 40/14/1 35/2/1 24/1/1
f 121/15/1 40/14/1 29/13/1 123/16/1
f 124/17/1 25/6/1 36/7/1 122/18/1
f 28/10/1 39/11/1 37/8/1 26/5/1
f 30/19/1 41/22/1 42/21/1 31/20/1
f 31/20/1 42/21/1 43/24/1 32/23/1
f 32/23/1 43/24/1 38/12/1 27/9/1
f 23/4/1 34/3/1 44/26/1 33/25/1
f 33/25/1 44/26/1 41/22/1 30/19/1
f 20/27/3 31/28/3 32/29/4 21/30/4
f 13/31/5 24/32/5 23/33/6 12/34/6
f 119/35/3 5/36/3 40/37/3 121/38/3
f 122/39/3 36/40/3 3/41/3 120/42/3
f 21/30/4 32/29/4 27/43/7 16/44/7
f 15/31/8 26/32/8 25/45/9 14/46/9
f 4/31/10 37/32/10 39/47/11 6/48/11
f 12/34/6 23/33/6 33/49/12 22/50/12
f 16/51/7 27/52/7 28/53/13 17/54/13
f 7/27/14 42/28/14 41/55/15 11/56/15
f 22/57/12 33/58/12 30/59/16 19/60/16
f 18/46/17 29/45/17 24/32/5 13/31/5
f 8/61/18 43/62/18 42/28/14 7/27/14
f 1/63/19 34/64/19 35/32/20 2/31/20
f 29/65/14 18/66/14 117/35/14 123/38/14
f 118/42/14 14/67/14 25/68/14 124/39/14
f 9/69/21 38/70/21 43/62/18 8/61/18
f 3/71/22 36/72/22 37/32/10 4/31/10
f 17/54/13 28/53/13 26/32/8 15/31/8
f 10/73/23 44/74/23 34/64/19 1/63/19
f 6/48/11 39/47/11 38/75/21 9/76/21
f 19/60/16 30/59/16 31/28/3 20/27/3
f 11/56/15 41/55/15 44/77/23 10/78/23
f 2/31/20 35/32/20 40/72/24 5/71/24
f 45/79/2 46/80/2 126/81/2 125/82/2
f 126/83/25 46/84/25 48/85/25 127/86/25
f 48/80/1 47/79/1 128/82/1 127/81/1
f 128/86/26 47/85/26 45/84/26 125/83/26
f 49/87/2 50/88/2 130/89/2 129/90/2
f 130/83/25 50/91/25 52/92/25 131/86/25
f 52/88/1 51/87/1 132/90/1 131/89/1
f 132/86/26 51/92/26 49/91/26 129/83/26
f 53/93/2 54/94/2 56/95/2 55/96/2
f 55/97/25 56/98/25 60/99/25 59/100/25
f 59/96/1 60/95/1 58/94/1 57/93/1
f 57/100/26 58/99/26 54/98/26 53/97/26
f 61/101/2 62/102/2 64/103/2 63/104/2
f 63/97/25 64/105/25 68/106/25 67/100/25
f 67/104/1 68/103/1 66/102/1 65/101/1
f 65/100/26 66/106/26 62/105/26 61/97/26
f 133/107/2 70/108/2 69/109/2 134/110/2
f 135/86/26 72/85/26 70/84/26 133/83/26
f 136/110/1 71/109/1 72/108/1 135/107/1
f 134/83/25 69/84/25 71/85/25 136/86/25
f 137/111/2 74/112/2 73/113/2 138/114/2
f 139/86/26 76/92/26 74/91/26 137/83/26
f 140/114/1 75/113/1 76/112/1 139/111/1
f 138/83/25 73/91/25 75/92/25 140/86/25
f 77/115/2 79/116/2 80/117/2 78/118/2
f 79/119/26 83/120/26 84/121/26 80/122/26
f 83/116/1 81/115/1 82/118/1 84/117/1
f 81/120/25 77/119/25 78/122/25 82/121/25
f 85/123/2 87/124/2 88/125/2 86/126/2
f 87/119/26 91/120/26 92/106/26 88/105/26
f 91/124/1 89/123/1 90/126/1 92/125/1
f 89/120/25 85/119/25 86/105/25 90/106/25
f 95/127/2 93/128/2 141/129/2 143/130/2
f 94/131/2 96/132/2 144/133/2 142/134/2
f 99/135/14 95/136/14 143/137/14 145/138/14
f 144/139/14 96/140/14 100/141/14 146/142/14
f 97/128/1 99/127/1 145/130/1 147/129/1
f 146/133/1 100/132/1 98/131/1 148/134/1
f 141/137/3 93/136/3 97/135/3 147/138/3
f 148/142/3 98/141/3 94/140/3 142/139/3
f 150/143/2 102/144/2 104/145/2 152/146/2
f 103/147/2 101/148/2 149/149/2 151/150/2
f 152/139/14 104/151/14 108/152/14 154/142/14
f 107/153/14 103/154/14 151/137/14 153/138/14
f 154/146/1 108/145/1 106/144/1 156/143/1
f 155/149/1 105/148/1 107/147/1 153/150/1
f 156/142/3 106/152/3 102/151/3 150/139/3
f 149/137/3 101/154/3 105/153/3 155/138/3
f 109/155/2 110/156/2 112/157/2 111/158/2
f 111/159/14 112/160/14 116/161/14 115/162/14
f 115/158/1 116/157/1 114/156/1 113/155/1
f 113/162/3 114/161/3 110/160/3 109/159/3
f 153/163/26 151/164/26 149/165/26 155/166/26
f 145/167/26 143/168/26 141/169/26 147/170/26
f 119/35/3 121/38/3 164/171/3 163/172/3
f 150/165/25 152/164/25 154/163/25 156/166/25
f 120/18/2 118/17/2 161/173/2 159/174/2
f 144/168/25 146/167/25 148/175/25 142/176/25
f 129/177/3 130/178/3 131/179/3 132/180/3
f 125/181/3 126/182/3 127/183/3 128/184/3
f 137/185/3 138/186/3 140/187/3 139/188/3
f 133/189/3 134/190/3 136/191/3 135/192/3
f 157/46/26 163/71/26 164/72/26 158/45/26
f 160/72/25 159/71/25 161/46/25 162/45/25
f 117/16/2 119/15/2 163/193/2 157/194/2
f 124/17/1 122/18/1 160/174/1 162/173/1
f 121/15/1 123/16/1 158/194/1 164/193/1
f 157/46/26 158/45/26 170/195/26 169/196/26
f 158/194/1 123/16/1 166/197/1 170/198/1
f 122/39/3 120/42/3 159/199/3 160/200/3
f 168/201/1 172/202/1 180/203/1 176/204/1
f 167/196/26 168/195/26 176/205/26 175/206/26
f 124/17/1 162/173/1 172/202/1 168/201/1
f 162/45/25 161/46/25 171/196/25 172/195/25
f 117/16/2 157/194/2 169/198/2 165/197/2
f 123/45/25 117/46/25 165/196/25 166/195/25
f 161/173/2 118/17/2 167/201/2 171/202/2
f 118/46/26 124/45/26 168/195/26 167/196/26
f 174/38/14 173/35/14 177/172/14 178/171/14
f 175/42/14 176/39/14 180/200/14 179/199/14
f 171/202/2 167/201/2 175/204/2 179/203/2
f 179/199/14 180/200/14 178/171/14 177/172/14
f 166/195/25 165/196/25 173/206/25 174/205/25
f 170/198/1 166/197/1 174/207/1 178/208/1
f 165/197/2 169/198/2 177/208/2 173/207/2
f 171/202/2 179/203/2 177/208/2 169/198/2
f 180/203/1 172/202/1 170/198/1 178/208/1
f 172/200/3 171/199/3 169/172/3 170/171/3
f 181/209/2 182/210/2 184/211/2 183/212/2
f 183/97/25 184/213/25 188/214/25 187/100/25
f 187/212/1 188/211/1 186/210/1 185/209/1
f 185/100/26 186/214/26 182/213/26 181/97/26
f 189/215/2 190/216/2 192/217/2 191/218/2
f 191/97/25 192/219/25 196/220/25 195/100/25
f 195/218/1 196/217/1 194/216/1 193/215/1
f 193/100/26 194/220/26 190/219/26 189/97/26
f 197/221/2 198/222/2 200/223/2 199/224/2
f 199/225/25 200/226/25 204/227/25 203/228/25
f 203/224/1 204/223/1 202/222/1 201/221/1
f 201/228/26 202/227/26 198/226/26 197/225/26
f 205/229/2 206/230/2 208/231/2 207/232/2
f 207/233/25 208/234/25 212/235/25 211/236/25
f 211/232/1 212/231/1 210/230/1 209/229/1
f 209/236/26 210/235/26 206/234/26 205/233/26
