# Blender 4.5.9 LTS
# www.blender.org
mtllib Serwers01_008.mtl
o Serwers01_008
v -4.174786 5.135422 -0.685904
v -4.174786 5.135422 0.399145
v -3.119613 5.133982 -0.685904
v -3.119613 5.133982 0.399146
v 2.185812 -2.561713 6.000059
v 3.869725 -2.561713 6.000059
v 2.185812 -2.561713 -5.999941
v 3.869725 -2.561713 -5.999941
v 3.929231 -2.187449 6.000059
v 3.929231 -2.187449 -5.999941
v 4.157303 -2.187449 6.000059
v 4.157303 -2.187449 -5.999941
v 4.157303 -1.940267 6.000059
v 4.157303 -1.940267 -5.999941
v 4.239360 -1.940267 6.000059
v 4.239360 -1.940267 -5.999941
v 1.851272 -2.678080 6.000059
v 1.851272 -2.678080 -5.999941
v 1.284489 -2.843798 6.000059
v 1.284489 -2.843798 -5.999941
v -0.000000 -2.843798 6.000059
v -0.000000 -2.843798 -5.999941
v 4.511393 -1.048086 6.000059
v 4.511393 -1.048086 -5.999941
v 4.482758 0.207360 6.000059
v 4.482758 0.207360 -5.999940
v 4.210725 1.180951 6.000059
v 4.210725 1.180951 -5.999940
v 3.611235 2.131809 6.000059
v 3.611235 2.131809 -5.999940
v 2.565410 2.906828 6.000520
v 2.565410 2.906828 -5.999480
v 1.422453 3.345155 6.000520
v 1.422453 3.345155 -5.999480
v 0.359149 3.426353 6.000520
v 0.359149 3.426353 -5.999480
v -0.000000 3.441601 5.987757
v -0.000000 3.441601 -6.012244
v -2.185812 -2.561713 6.000059
v -3.869725 -2.561713 6.000059
v -2.185812 -2.561713 -5.999941
v -3.869725 -2.561713 -5.999941
v -3.929231 -2.187449 6.000059
v -3.929231 -2.187449 -5.999941
v -4.157303 -2.187449 6.000059
v -4.157303 -2.187449 -5.999941
v -4.157303 -1.940267 6.000059
v -4.157303 -1.940267 -5.999941
v -4.239360 -1.940267 6.000059
v -4.239360 -1.940267 -5.999941
v -1.851272 -2.678080 6.000059
v -1.851272 -2.678080 -5.999941
v -1.284490 -2.843798 6.000059
v -1.284490 -2.843798 -5.999941
v -4.511393 -1.048086 6.000059
v -4.511393 -1.048086 -5.999941
v -4.482758 0.207360 6.000059
v -4.482758 0.207360 -5.999940
v -4.210725 1.180951 6.000059
v -4.210725 1.180951 -5.999940
v -3.611235 2.131809 6.000059
v -3.611235 2.131809 -5.999940
v -2.565410 2.906828 6.000520
v -2.565410 2.906828 -5.999480
v -1.422453 3.345155 6.000520
v -1.422453 3.345155 -5.999480
v -0.359149 3.426353 6.000520
v -0.359149 3.426353 -5.999480
v -4.176501 1.235234 -0.685904
v -4.176501 1.235234 0.399145
v -3.120615 2.495389 0.399146
v -3.120615 2.495389 -0.685904
v -3.611236 2.131809 -0.685905
v -3.611236 2.131809 0.399146
v 2.281307 -2.656014 6.417408
v 4.038787 -2.656014 6.417408
v 4.100893 -2.265399 6.417408
v 4.338928 -2.265399 6.417408
v 4.338928 -2.007418 6.417408
v 4.424570 -2.007418 6.417408
v 1.932150 -2.777464 6.417408
v 1.340606 -2.950423 6.417408
v -0.000000 -2.950423 6.417408
v 4.708488 -1.076259 6.417408
v 4.678602 0.234035 6.417408
v 4.394684 1.250161 6.417408
v 3.769004 2.242560 6.417408
v 2.677489 3.051438 6.417889
v 1.484597 3.508914 6.417889
v 0.374840 3.593660 6.417889
v -0.000000 3.609575 6.404568
v -2.281307 -2.656014 6.417408
v -4.038787 -2.656014 6.417408
v -4.100893 -2.265399 6.417408
v -4.338928 -2.265399 6.417408
v -4.338928 -2.007418 6.417408
v -4.424570 -2.007418 6.417408
v -1.932151 -2.777464 6.417408
v -1.340607 -2.950423 6.417408
v -4.708488 -1.076259 6.417408
v -4.678602 0.234035 6.417408
v -4.394684 1.250161 6.417408
v -3.769004 2.242560 6.417408
v -2.677489 3.051438 6.417889
v -1.484598 3.508914 6.417889
v -0.374840 3.593660 6.417889
v 2.278535 -2.653277 -6.402455
v 4.033880 -2.653277 -6.402455
v 4.095911 -2.263137 -6.402455
v 4.333657 -2.263137 -6.402455
v 4.333657 -2.005469 -6.402455
v 4.419195 -2.005469 -6.402455
v 1.929803 -2.774580 -6.402455
v 1.338978 -2.947328 -6.402455
v -0.000000 -2.947328 -6.402455
v 4.702767 -1.075441 -6.402455
v 4.672917 0.233261 -6.402455
v 4.389345 1.248152 -6.402455
v 3.764425 2.239346 -6.402455
v 2.674236 3.047241 -6.401975
v 1.482794 3.504161 -6.401975
v 0.374384 3.588804 -6.401975
v -0.000000 3.604699 -6.415280
v -2.278535 -2.653277 -6.402455
v -4.033880 -2.653277 -6.402455
v -4.095911 -2.263137 -6.402455
v -4.333657 -2.263137 -6.402455
v -4.333657 -2.005469 -6.402455
v -4.419195 -2.005469 -6.402455
v -1.929803 -2.774580 -6.402455
v -1.338978 -2.947328 -6.402455
v -4.702767 -1.075441 -6.402455
v -4.672917 0.233261 -6.402455
v -4.389345 1.248152 -6.402455
v -3.764425 2.239346 -6.402455
v -2.674236 3.047241 -6.401975
v -1.482794 3.504161 -6.401975
v -0.374384 3.588804 -6.401975
vn 1.0000 -0.0004 -0.0000
vn -0.0000 -0.0000 -1.0000
vn -0.0000 -0.0000 1.0000
vn -1.0000 0.0004 -0.0000
vn -0.1739 0.9765 0.1271
vn -0.6021 0.7686 0.2161
vn -0.6017 0.7686 -0.2174
vn -0.1740 0.9764 -0.1280
vn -0.6576 0.7307 0.1833
vn -0.6575 0.7305 -0.1844
vn -0.6535 0.7248 0.2182
vn -0.6530 0.7249 -0.2195
vn -0.7137 0.6750 0.1869
vn -0.7136 0.6748 -0.1880
vn -0.5376 0.8225 0.1856
vn -0.5371 0.8226 -0.1867
vn -0.3009 0.9433 -0.1399
vn -0.3009 0.9435 0.1390
vn -0.1362 0.9815 -0.1344
vn -0.1362 0.9816 0.1336
vn -0.0000 0.9921 -0.1255
vn -0.0000 0.9922 0.1247
vn -0.9651 0.1325 0.2257
vn -0.9648 0.1325 -0.2270
vn -0.9642 -0.1436 0.2231
vn -0.9639 -0.1435 -0.2245
vn -0.8908 -0.3964 0.2223
vn -0.8905 -0.3962 -0.2237
vn -0.7132 -0.6662 0.2181
vn -0.7130 -0.6659 -0.2195
vn -0.4684 -0.8591 0.2063
vn -0.4683 -0.8588 -0.2075
vn -0.2125 -0.9567 0.1990
vn -0.2125 -0.9564 -0.2003
vn -0.0616 -0.9793 0.1926
vn -0.0548 -0.9803 -0.1895
vn -0.0000 -0.9823 0.1872
vn -0.0000 -0.9806 -0.1962
vn 0.1739 0.9765 0.1271
vn 0.1740 0.9764 -0.1280
vn 0.6017 0.7686 -0.2174
vn 0.6021 0.7686 0.2161
vn 0.6575 0.7305 -0.1844
vn 0.6576 0.7307 0.1833
vn 0.6530 0.7249 -0.2195
vn 0.6535 0.7248 0.2182
vn 0.7136 0.6748 -0.1880
vn 0.7137 0.6750 0.1869
vn 0.5371 0.8226 -0.1867
vn 0.5376 0.8225 0.1856
vn 0.3009 0.9435 0.1390
vn 0.3009 0.9433 -0.1399
vn 0.1362 0.9816 0.1336
vn 0.1362 0.9815 -0.1344
vn 0.9648 0.1325 -0.2270
vn 0.9651 0.1325 0.2257
vn 0.9639 -0.1435 -0.2245
vn 0.9642 -0.1436 0.2231
vn 0.8905 -0.3962 -0.2237
vn 0.8908 -0.3964 0.2223
vn 0.7130 -0.6659 -0.2195
vn 0.7332 -0.6800 -0.0000
vn 0.8459 -0.5333 -0.0000
vn 0.7132 -0.6662 0.2181
vn 0.4683 -0.8588 -0.2075
vn 0.4684 -0.8591 0.2063
vn 0.5954 -0.8034 -0.0000
vn 0.2125 -0.9564 -0.2003
vn 0.2125 -0.9567 0.1990
vn 0.0548 -0.9803 -0.1895
vn 0.0616 -0.9793 0.1926
vn 0.6271 0.6657 0.4044
vn 0.1424 0.9580 0.2490
vn 0.6043 0.6998 0.3808
vn 0.5833 0.7230 0.3702
vn 0.8940 -0.1326 0.4280
vn 0.8941 0.1231 0.4306
vn -0.6806 0.6074 0.4096
vn -0.5833 0.7230 0.3702
vn -0.6704 -0.6142 0.4164
vn -0.4456 -0.8021 0.3976
vn 0.2945 0.9152 0.2750
vn 0.0618 -0.9256 0.3734
vn 0.2069 -0.8999 0.3839
vn -0.6043 0.6998 0.3808
vn -0.8941 0.1231 0.4306
vn 0.8280 -0.3652 0.4255
vn -0.1424 0.9580 0.2490
vn -0.6271 0.6657 0.4044
vn -0.0000 -0.9275 0.3738
vn 0.5360 0.7623 0.3628
vn -0.2069 -0.8999 0.3839
vn 0.1445 0.9539 0.2631
vn -0.8940 -0.1326 0.4280
vn -0.2945 0.9152 0.2750
vn 0.6704 -0.6142 0.4164
vn -0.0000 0.9689 0.2475
vn 0.6806 0.6074 0.4096
vn -0.0618 -0.9256 0.3734
vn -0.5360 0.7623 0.3628
vn -0.8280 -0.3652 0.4255
vn 0.4456 -0.8021 0.3976
vn -0.1445 0.9539 0.2631
vn 0.8930 0.1229 -0.4329
vn 0.8929 -0.1324 -0.4304
vn -0.1445 0.9534 -0.2648
vn -0.0000 0.9685 -0.2491
vn -0.5822 0.7228 -0.3722
vn -0.6800 0.6066 -0.4120
vn -0.4453 -0.8012 -0.3999
vn -0.6697 -0.6133 -0.4187
vn 0.2067 -0.8990 -0.3861
vn 0.0483 -0.9256 -0.3754
vn 0.1422 0.9576 -0.2506
vn 0.6265 0.6648 -0.4068
vn -0.8930 0.1229 -0.4329
vn -0.6040 0.6989 -0.3831
vn 0.8270 -0.3647 -0.4279
vn 0.2944 0.9148 -0.2767
vn -0.0000 -0.9270 -0.3751
vn 0.5350 0.7620 -0.3648
vn -0.2067 -0.8990 -0.3861
vn -0.8929 -0.1324 -0.4304
vn 0.6697 -0.6133 -0.4187
vn 0.1445 0.9534 -0.2648
vn -0.6265 0.6648 -0.4068
vn -0.1422 0.9576 -0.2506
vn 0.6800 0.6066 -0.4120
vn -0.0483 -0.9256 -0.3754
vn -0.2944 0.9148 -0.2767
vn -0.5350 0.7620 -0.3648
vn -0.8270 -0.3647 -0.4279
vn 0.4453 -0.8012 -0.3999
vn 0.5822 0.7228 -0.3722
vn 0.6040 0.6989 -0.3831
vt 0.430002 0.807724
vt 0.430002 0.304513
vt 0.569998 0.304513
vt 0.569998 0.807724
vt 0.568181 0.807538
vt 0.568052 0.467101
vt 0.504751 0.420191
vt 0.431819 0.304513
vt 0.432040 0.807724
vt 0.432040 0.807724
vt 0.569998 0.807538
vt 0.569998 0.467101
vt 0.430002 0.467101
vt 0.430002 0.807538
vt 3.995035 0.122410
vt 3.995035 0.683603
vt -0.004168 0.683603
vt -0.004168 0.122411
vt 3.995036 0.809899
vt -0.004168 0.809900
vt 3.995034 0.885907
vt -0.004168 0.885908
vt 3.995035 0.968285
vt -0.004168 0.968286
vt 3.995035 0.995632
vt -0.004168 0.995633
vt 3.995034 0.122410
vt -0.004168 0.004367
vt 3.995034 0.004366
vt 6.071139 0.991128
vt -0.295877 0.991128
vt -0.295877 0.690402
vt 6.071139 0.690402
vt -0.295877 0.008872
vt 6.071139 0.008872
vt 0.001547 0.000060
vt 1.451498 0.000060
vt 1.451499 0.112762
vt 0.001547 0.112762
vt 1.451498 0.264496
vt 0.001547 0.264496
vt 1.451498 0.386640
vt 0.001547 0.386640
vt 1.451499 0.522460
vt 0.001547 0.522460
vt 1.451554 0.679742
vt 0.001603 0.679742
vt 1.451554 0.827653
vt 0.001603 0.827652
vt 1.451554 0.956505
vt 0.001603 0.956505
vt 1.450012 0.999940
vt 0.000060 0.999940
vt 0.643638 0.522460
vt 0.643638 0.394394
vt 0.774744 0.394394
vt 0.774744 0.522460
vt 0.774744 0.596245
vt 0.643638 0.596245
s 1
usemtl bricks
f 2/1/1 70/2/1 69/3/1 1/4/1
f 4/5/2 71/6/2 74/7/2 70/8/2 2/9/2
f 1/10/3 69/8/3 73/7/3 72/6/3 3/5/3
f 3/11/4 72/12/4 71/13/4 4/14/4
f 16/36/16 15/37/15 23/38/23 24/39/24
f 24/39/24 23/38/23 25/40/25 26/41/26
f 26/41/26 25/40/25 27/42/27 28/43/28
f 28/43/28 27/42/27 29/44/29 30/45/30
f 30/45/30 29/44/29 31/46/31 32/47/32
f 32/47/32 31/46/31 33/48/33 34/49/34
f 34/49/34 33/48/33 35/50/35 36/51/36
f 36/51/36 35/50/35 37/52/37 38/53/38
f 50/36/49 56/39/55 55/38/56 49/37/50
f 56/39/55 58/41/57 57/40/58 55/38/56
f 58/41/57 60/43/59 59/42/60 57/40/58
f 60/43/59 62/45/61 73/54/62 69/55/63 70/56/63 74/57/62 61/44/64 59/42/60
f 62/45/61 64/47/65 63/46/66 61/44/64 74/57/62 71/58/67 72/59/67 73/54/62
f 64/47/65 66/49/68 65/48/69 63/46/66
f 66/49/68 68/51/70 67/50/71 65/48/69
f 68/51/70 38/53/38 37/52/37 67/50/71
f 55/38/56 57/40/58 101/40/76 100/38/77
f 31/46/31 29/44/29 87/44/80 88/46/81
f 65/48/69 67/50/71 106/50/83 105/48/84
f 23/38/23 15/37/15 80/37/85 84/38/86
f 57/40/58 59/42/60 102/42/87 101/40/76
f 67/50/71 37/52/37 91/52/90 106/50/83
f 33/48/33 31/46/31 88/46/81 89/48/92
f 25/40/25 23/38/23 84/38/86 85/40/94
f 59/42/60 61/44/64 103/44/96 102/42/87
f 35/50/35 33/48/33 89/48/92 90/50/99
f 27/42/27 25/40/25 85/40/94 86/42/101
f 61/44/64 63/46/66 104/46/102 103/44/96
f 37/52/37 35/50/35 90/50/99 91/52/90
f 49/37/50 55/38/56 100/38/77 97/37/74
f 29/44/29 27/42/27 86/42/101 87/44/80
f 63/46/66 65/48/69 105/48/84 104/46/102
f 58/41/57 56/39/55 132/39/104 133/41/105
f 30/45/30 32/47/32 120/47/110 119/45/111
f 68/51/70 66/49/68 137/49/112 138/51/113
f 16/36/16 24/39/24 116/39/116 112/36/117
f 60/43/59 58/41/57 133/41/105 134/43/118
f 38/53/38 68/51/70 138/51/113 123/53/120
f 32/47/32 34/49/34 121/49/122 120/47/110
f 24/39/24 26/41/26 117/41/123 116/39/116
f 62/45/61 60/43/59 134/43/118 135/45/124
f 34/49/34 36/51/36 122/51/129 121/49/122
f 26/41/26 28/43/28 118/43/132 117/41/123
f 64/47/65 62/45/61 135/45/124 136/47/133
f 36/51/36 38/53/38 123/53/120 122/51/129
f 56/39/55 50/36/49 129/36/135 132/39/104
f 28/43/28 30/45/30 119/45/111 118/43/132
f 66/49/68 64/47/65 136/47/133 137/49/112
usemtl concrete_base_02
f 5/15/5 6/16/6 8/17/7 7/18/8
f 8/17/7 6/16/6 9/19/9 10/20/10
f 10/20/10 9/19/9 11/21/11 12/22/12
f 12/22/12 11/21/11 13/23/13 14/24/14
f 14/24/14 13/23/13 15/25/15 16/26/16
f 5/27/5 7/18/8 18/28/17 17/29/18
f 39/15/39 41/18/40 42/17/41 40/16/42
f 42/17/41 44/20/43 43/19/44 40/16/42
f 44/20/43 46/22/45 45/21/46 43/19/44
f 46/22/45 48/24/47 47/23/48 45/21/46
f 48/24/47 50/26/49 49/25/50 47/23/48
f 39/27/39 51/29/51 52/28/52 41/18/40
f 39/15/39 40/16/42 93/16/72 92/15/73
f 47/23/48 49/25/50 97/25/74 96/23/75
f 13/23/13 11/21/11 78/21/78 79/23/79
f 51/29/51 39/27/39 92/27/73 98/29/82
f 6/16/6 5/15/5 75/15/88 76/16/89
f 40/16/42 43/19/44 94/19/91 93/16/72
f 15/25/15 13/23/13 79/23/79 80/25/85
f 5/27/5 17/29/18 81/29/95 75/27/88
f 43/19/44 45/21/46 95/21/98 94/19/91
f 9/19/9 6/16/6 76/16/89 77/19/100
f 45/21/46 47/23/48 96/23/75 95/21/98
f 11/21/11 9/19/9 77/19/100 78/21/78
f 12/22/12 14/24/14 111/24/108 110/22/109
f 42/17/41 41/18/40 124/18/114 125/17/115
f 41/18/40 52/28/52 130/28/119 124/18/114
f 44/20/43 42/17/41 125/17/115 126/20/121
f 14/24/14 16/26/16 112/26/117 111/24/108
f 7/18/8 8/17/7 108/17/126 107/18/127
f 46/22/45 44/20/43 126/20/121 127/22/128
f 18/28/17 7/18/8 107/18/127 113/28/130
f 8/17/7 10/20/10 109/20/131 108/17/126
f 48/24/47 46/22/45 127/22/128 128/24/134
f 10/20/10 12/22/12 110/22/109 109/20/131
f 50/26/49 48/24/47 128/24/134 129/26/135
usemtl concrete_dirty
f 17/30/18 18/31/17 20/32/19 19/33/20
f 19/33/20 20/32/19 22/34/21 21/35/22
f 51/30/51 53/33/53 54/32/54 52/31/52
f 53/33/53 21/35/22 22/34/21 54/32/54
f 53/33/53 51/30/51 98/30/82 99/33/93
f 21/35/22 53/33/53 99/33/93 83/35/97
f 17/30/18 19/33/20 82/33/103 81/30/95
f 19/33/20 21/35/22 83/35/97 82/33/103
f 22/34/21 20/32/19 114/32/106 115/34/107
f 52/31/52 54/32/54 131/32/125 130/31/119
f 54/32/54 22/34/21 115/34/107 131/32/125
f 20/32/19 18/31/17 113/31/130 114/32/106
