# Blender 4.5.9 LTS
# www.blender.org
mtllib SerwersP1_002.mtl
o SerwersP1_002
v 2.093360 0.371344 -1.921355
v 2.093360 -0.310414 -1.926686
v 2.093360 -1.668468 1.240658
v 2.093360 -0.310414 1.926686
v 2.093360 -1.668468 -1.240659
v 2.093360 0.371343 1.921356
v 2.093360 1.929367 -0.000001
v 2.093360 1.680831 0.961888
v 2.093360 1.106803 1.560336
v 2.093360 1.106803 -1.560335
v 2.093360 1.680831 -0.961889
v -2.093360 0.371344 -1.921355
v -2.093360 -0.310414 -1.926686
v -2.093360 -1.668468 1.240658
v -2.093360 -0.310414 1.926686
v -2.093360 -1.668468 -1.240659
v -2.093360 0.371343 1.921356
v -2.093360 1.929367 -0.000001
v -2.093360 1.680831 0.961888
v -2.093360 1.106803 1.560336
v -2.093360 1.106803 -1.560335
v -2.093360 1.680831 -0.961889
v -1.921355 0.371344 -2.093360
v -1.926686 -0.310414 -2.093360
v 1.240658 -1.668468 -2.093360
v 1.926686 -0.310414 -2.093360
v -1.240659 -1.668468 -2.093360
v 1.921356 0.371343 -2.093360
v -0.000001 1.929367 -2.093360
v 0.961888 1.680831 -2.093360
v 1.560336 1.106803 -2.093360
v -1.560335 1.106803 -2.093360
v -0.961890 1.680831 -2.093360
v -1.921355 0.371344 2.093360
v -1.926686 -0.310414 2.093360
v 1.240658 -1.668468 2.093360
v 1.926686 -0.310414 2.093360
v -1.240659 -1.668468 2.093360
v 1.921356 0.371343 2.093360
v -0.000001 1.929367 2.093360
v 0.961888 1.680831 2.093360
v 1.560336 1.106803 2.093360
v -1.560335 1.106803 2.093360
v -0.961889 1.680831 2.093360
v 0.961888 1.680831 0.961888
v -0.961890 1.680831 0.961888
v -0.000001 1.929367 -0.000001
v 0.961888 1.680831 -0.961889
v -0.961890 1.680831 -0.961889
v -1.560335 1.106803 -1.560335
v 1.560336 1.106803 -1.560335
v -1.560335 1.106803 1.560336
v 1.560336 1.106803 1.560336
v 1.921356 0.371343 1.921356
v -1.921355 0.371343 1.921356
v 1.926686 -0.310414 1.926686
v -1.926686 -0.310414 1.926686
v -0.000001 -1.668468 -0.000000
v 0.735293 -1.668468 1.240658
v 1.240658 -1.668468 -0.735294
v -1.240659 -1.668468 0.735293
v -1.240659 -1.668468 1.240658
v 1.240658 -1.668468 1.240658
v 1.921356 0.371344 -1.921355
v -1.921356 0.371344 -1.921355
v 1.926686 -0.310414 -1.926686
v -1.926686 -0.310414 -1.926686
v -1.240660 -1.668468 -1.240659
v 1.240658 -1.668468 -1.240659
v 0.735293 -1.668468 1.240658
vn -0.0000 -0.2300 0.9732
vn -0.0000 -0.5902 0.8073
vn -0.4622 -0.7568 0.4622
vn -0.0000 -0.2564 0.9666
vn -0.0000 -0.2300 -0.9732
vn -0.0000 0.2280 -0.9737
vn -0.0000 0.2553 -0.9669
vn -0.0000 -0.2563 -0.9666
vn -0.0000 -0.8734 0.4871
vn -0.0000 -1.0000 -0.0000
vn -0.2016 -0.9585 0.2016
vn -0.0000 -0.5902 -0.8073
vn -0.4622 -0.7568 -0.4622
vn -0.0000 -0.8734 -0.4871
vn -0.2016 -0.9585 -0.2016
vn -0.0000 0.2280 0.9737
vn -0.0000 0.2553 0.9669
vn -0.0000 1.0000 -0.0000
vn -0.0000 0.4509 -0.8926
vn 0.9732 -0.2300 -0.0000
vn 0.8073 -0.5902 -0.0000
vn 0.4622 -0.7568 0.4622
vn 0.9666 -0.2564 -0.0000
vn -0.9732 -0.2300 -0.0000
vn -0.9737 0.2280 -0.0000
vn -0.9669 0.2553 -0.0000
vn -0.9666 -0.2564 -0.0000
vn 0.4871 -0.8734 -0.0000
vn 0.2016 -0.9585 0.2016
vn -0.8073 -0.5902 -0.0000
vn -0.4871 -0.8734 -0.0000
vn 0.9737 0.2280 -0.0000
vn 0.9669 0.2553 -0.0000
vn -0.8498 -0.5271 -0.0000
vn -0.0000 0.4509 0.8926
vn 0.2016 -0.9585 -0.2016
vn 0.4622 -0.7568 -0.4622
vn 0.8926 0.4509 -0.0000
vn -0.9666 -0.2563 -0.0000
vn 0.9666 -0.2563 -0.0000
vn -0.8926 0.4509 -0.0000
vt 0.686815 0.505475
vt 0.686815 0.686525
vt 0.522019 0.686525
vt 0.633636 0.505475
vt 0.686815 0.485184
vt 0.686815 0.345330
vt 0.635284 0.345330
vt 0.633636 0.485184
vt 0.686815 0.218512
vt 0.686815 0.509351
vt 0.039609 0.509351
vt 0.336997 0.218512
vt 0.686815 0.686525
vt 0.686815 0.505474
vt 0.633636 0.505474
vt 0.522019 0.686525
vt 0.686815 0.089200
vt 0.686815 0.276546
vt 0.336997 0.276546
vt 0.522019 0.089200
vt 0.686815 0.490648
vt 0.686815 0.781487
vt 0.336997 0.781487
vt 0.039610 0.490648
vt 0.686815 0.485184
vt 0.633636 0.485184
vt 0.686815 0.723454
vt 0.686815 0.910801
vt 0.522019 0.910801
vt 0.336997 0.723454
vt 0.997824 0.994752
vt 0.997824 0.005248
vt -0.331722 0.005248
vt -0.331722 0.793221
vt 0.657782 0.005248
vt 0.657782 0.206779
vt 0.657782 0.994752
vt 0.456252 0.994752
vt 1.280762 0.997661
vt 1.280762 0.009138
vt 0.292228 0.009138
vt -1.146062 0.009138
vt 0.660083 0.009138
vt 1.159440 0.997661
vt 0.522019 0.686525
vt 0.633636 0.505475
vt 0.039610 0.509351
vt 0.336997 0.218512
vt 0.336998 0.276546
vt 0.522019 0.089200
vt 0.336998 0.781487
vt 0.039610 0.490648
vt 0.633636 0.485184
vt 0.635284 0.345330
vt 0.522019 0.910801
vt 0.336998 0.723454
vt 0.292229 0.009138
vt -1.146061 0.009138
vt -1.645419 0.997661
vt -1.766741 0.997661
vt -1.766741 0.009137
vt -1.146062 0.009137
vt -0.556065 0.345330
vt -0.554417 0.485184
vt -0.607595 0.485184
vt -0.607595 0.345330
vt -0.257778 0.218512
vt -0.607595 0.509351
vt -0.607595 0.218512
vt -0.257778 0.781487
vt -0.607595 0.781487
vt -0.607595 0.490648
vt -0.442800 0.686525
vt -0.554417 0.505474
vt -0.607595 0.505474
vt -0.607595 0.686525
vt -0.331721 0.994752
vt -0.331721 0.793221
vt -0.331721 0.005248
vt -0.671763 0.005248
vt -0.671763 0.994752
vt -0.257778 0.723454
vt -0.442800 0.910800
vt -0.607595 0.910800
vt -0.607595 0.723454
vt -1.645419 0.997661
vt -1.766741 0.009138
vt -1.766741 0.997661
vt -1.146061 0.009137
vt -0.331722 0.994752
vt -0.442800 0.089200
vt -0.257778 0.276546
vt -0.607595 0.276546
vt -0.607595 0.089200
vt -0.442800 0.686525
vt -0.554417 0.505474
vt -0.607595 0.686525
vt -0.607596 0.505474
vt -0.257778 0.723454
vt -0.442800 0.910800
vt -0.554417 0.505474
vt -0.442800 0.686525
vt -0.556065 0.345330
vt -0.554417 0.485184
vt -1.645419 0.997661
vt -0.257778 0.781487
vt -0.257778 0.218512
vt -0.607595 0.345330
vt -0.607595 0.485184
vt -0.554417 0.485184
vt -0.442800 0.089200
vt -0.257778 0.276546
vt 0.586461 0.994967
vt 0.478955 0.013597
vt 0.478955 0.994967
vt 0.036171 0.994967
vt -0.071335 0.013597
vt -0.071335 0.994967
vt 1.028952 0.013597
vt 0.478661 0.013597
vt 0.660083 0.009138
vt 1.159440 0.997661
vt 0.671824 0.000000
vt 0.328176 0.000000
vt 0.328176 1.000000
vt 0.671824 1.000000
s 1
usemtl brick_modern
f 1/1/1 10/2/2 51/3/3 64/4/4
f 6/5/5 4/6/6 56/7/7 54/8/8
f 11/9/9 7/10/10 47/11/10 48/12/11
f 9/13/12 6/14/5 54/15/8 53/16/13
f 10/17/2 11/18/9 48/19/11 51/20/3
f 7/21/10 8/22/14 45/23/15 47/24/10
f 2/6/16 1/25/1 64/26/4 66/7/17
f 8/27/14 9/28/12 53/29/13 45/30/15
f 23/1/20 32/2/21 50/45/22 65/46/23
f 28/5/24 26/6/25 66/7/26 64/26/27
f 33/9/28 29/10/10 47/47/10 49/48/29
f 31/13/30 28/14/24 64/4/27 51/3/3
f 32/17/21 33/18/28 49/49/29 50/50/22
f 29/21/10 30/22/31 48/51/11 47/52/10
f 24/6/32 23/25/20 65/53/23 67/54/33
f 30/27/31 31/28/30 51/55/3 48/56/11
f 67/63/17 65/64/4 12/65/1 13/66/16
f 49/67/29 47/11/10 18/68/10 22/69/9
f 47/24/10 46/70/36 19/71/14 18/72/10
f 52/73/37 55/74/8 17/75/5 20/76/12
f 46/82/36 52/83/37 20/84/12 19/85/14
f 52/91/37 46/92/36 44/93/28 43/94/21
f 53/95/13 54/96/39 39/75/24 42/76/30
f 55/74/40 52/73/37 43/97/21 34/98/20
f 45/99/15 53/100/13 42/84/30 41/85/31
f 65/101/4 50/102/22 21/97/2 12/98/1
f 57/103/33 55/104/40 34/65/20 35/66/32
f 47/52/10 45/106/15 41/71/31 40/72/10
f 46/107/36 47/47/10 40/68/10 44/69/28
f 55/104/8 57/103/7 15/108/6 17/109/5
f 54/110/39 56/103/26 37/108/25 39/109/24
f 50/111/22 49/112/29 22/93/9 21/94/2
usemtl concrete_bare_01
f 4/39/6 3/40/19 70/41/19 62/42/19 59/41/19 63/43/19 56/44/7
f 69/57/34 60/57/34 63/58/34
f 67/59/17 13/60/16 16/61/35 68/62/35
f 57/86/7 62/42/19 14/87/19 15/88/6
f 57/86/33 35/60/32 38/61/38 62/89/38
f 56/105/26 63/58/41 36/87/41 37/88/25
f 66/113/17 5/114/35 2/115/16
f 67/116/33 27/117/38 24/118/32
f 69/119/35 5/114/35 66/113/17
f 68/120/38 27/117/38 67/116/33
f 26/39/25 25/40/41 69/121/41 66/122/26
usemtl brick_pavement
f 3/31/18 5/32/18 68/33/18 61/34/18 69/35/18 60/36/18 63/37/18 70/38/18
f 63/77/18 59/78/18 62/79/18 38/80/18 36/81/18
f 70/38/18 63/37/18 60/36/18 69/35/18 61/34/18 62/90/18
f 62/90/18 61/34/18 68/33/18 16/80/18 14/81/18
f 27/123/18 68/124/18 69/125/18 25/126/18
