# Blender 4.5.9 LTS
# www.blender.org
mtllib SerwersP_008.mtl
o SerwersP_008
v -0.000000 1.217912 -0.565150
v -0.159351 -1.163513 0.502913
v -0.000000 -1.164053 0.565150
v -0.159351 1.153800 0.502913
v -0.000000 -1.164053 -0.565150
v -0.000000 1.217912 0.565150
v -0.000000 1.153800 -0.502913
v -0.159351 -1.163513 -0.502913
v -0.000000 -1.163513 0.502913
v -0.159351 1.153800 -0.502913
v -0.000000 1.153800 0.502913
v -0.000000 -1.163513 -0.502913
v -0.159351 1.217912 -0.565150
v -0.159351 1.217912 0.565150
v -0.159351 -1.164053 -0.565150
v -0.159351 -1.164053 0.565150
v -0.159351 -1.205132 0.502913
v -0.159351 -1.205672 0.565150
v -0.000000 -1.205132 0.502913
v -0.000000 -1.205672 0.565150
v -0.000000 -1.205672 -0.565150
v -0.000000 -1.205132 -0.502913
v -0.159351 -1.205672 -0.565150
v -0.159351 -1.205132 -0.502913
vn -0.0000 -0.0000 1.0000
vn 1.0000 -0.0000 -0.0000
vn -1.0000 -0.0000 -0.0000
vn -0.0000 1.0000 -0.0000
vn -0.0000 -1.0000 -0.0000
vn -0.0000 -0.0000 -1.0000
vn -0.0000 -1.0000 0.0087
vn -0.0000 -1.0000 -0.0087
vt 0.532710 0.022333
vt 0.532710 0.973679
vt 0.467290 0.973679
vt 0.467290 0.022333
vt 0.973679 0.706465
vt 1.000000 0.732016
vt 0.022111 0.732016
vt 0.022333 0.706465
vt 0.022333 0.706465
vt 0.022111 0.732016
vt 0.527180 0.281570
vt 0.501629 0.255249
vt 0.965661 0.255249
vt 0.940110 0.281570
vt 0.022333 0.293535
vt 0.973679 0.293535
vt 1.000000 0.267984
vt 0.022111 0.267984
vt 0.022333 0.293535
vt 0.022111 0.267984
vt 0.532710 0.022111
vt 0.532710 1.000000
vt 0.467290 1.000000
vt 0.467290 0.022111
vt 0.965661 0.722539
vt 0.501629 0.722539
vt 0.501629 0.787959
vt 0.965661 0.787959
vt 0.740728 0.461862
vt 0.740728 0.538138
vt 0.259272 0.538138
vt 0.259272 0.461862
vt 0.467290 0.005025
vt 0.532710 0.005025
vt 0.532710 0.973679
vt 0.532710 0.022333
vt 0.467290 0.022333
vt 0.467290 0.973679
vt 0.527180 0.722539
vt 0.940110 0.722539
vt 0.940110 0.787959
vt 0.527180 0.787959
vt 0.532710 1.000000
vt 0.532710 0.022111
vt 0.467290 0.022111
vt 0.467290 1.000000
vt 0.532710 0.268028
vt 0.532710 0.293578
vt 0.467290 0.293578
vt 0.467290 0.268028
vt 0.532710 0.706422
vt 0.532710 0.731972
vt 0.467290 0.731972
vt 0.467290 0.706422
vt 0.005025 0.267984
vt 0.005247 0.293535
vt 0.005247 0.293535
vt 0.005025 0.267984
vt 0.740728 0.490039
vt 0.740728 0.509961
vt 0.259272 0.509961
vt 0.259272 0.490039
vt 0.005025 0.732016
vt 0.005247 0.706465
vt 0.005247 0.706465
vt 0.005025 0.732016
vt 0.532710 0.005025
vt 0.467290 0.005025
s 0
usemtl brick_modern
f 12/1/1 7/2/1 10/3/1 8/4/1
f 11/5/2 6/6/2 3/7/2 9/8/2
f 4/5/3 2/9/3 16/10/3 14/6/3
f 7/11/2 1/12/2 6/13/2 11/14/2
f 8/15/3 10/16/3 13/17/3 15/18/3
f 10/11/3 4/14/3 14/13/3 13/12/3
f 12/19/2 5/20/2 1/17/2 7/16/2
f 3/21/1 6/22/1 14/23/1 16/24/1
f 6/25/4 1/26/4 13/27/4 14/28/4
f 19/29/5 17/30/5 24/31/5 22/32/5
f 3/21/1 16/24/1 18/33/1 20/34/1
f 11/35/6 9/36/6 2/37/6 4/38/6
f 7/39/5 11/40/5 4/41/5 10/42/5
f 1/43/6 5/44/6 15/45/6 13/46/6
f 21/47/7 22/48/7 24/49/7 23/50/7
f 19/51/8 20/52/8 18/53/8 17/54/8
f 8/15/3 15/18/3 23/55/3 24/56/3
f 5/20/2 12/19/2 22/57/2 21/58/2
f 9/59/2 19/60/2 22/61/2 12/62/2
f 9/8/2 3/7/2 20/63/2 19/64/2
f 16/10/3 2/9/3 17/65/3 18/66/3
f 15/45/6 5/44/6 21/67/6 23/68/6
f 17/60/3 2/59/3 8/62/3 24/61/3
f 2/30/4 9/29/4 12/32/4 8/31/4
