# Blender 4.5.9 LTS
# www.blender.org
mtllib Serwers01_006.mtl
o Serwers01_006
v 2.185812 -2.561713 6.000059
v 3.869725 -2.561713 6.000059
v 2.185812 -2.561713 -5.999941
v 3.869725 -2.561713 -5.999941
v 3.929231 -2.187449 6.000059
v 3.929231 -2.187449 -5.999941
v 4.157303 -2.187449 6.000059
v 4.157303 -2.187449 -5.999941
v 4.157303 -1.940267 6.000059
v 4.157303 -1.940267 -5.999941
v 4.239360 -1.940267 6.000059
v 4.239360 -1.940267 -5.999941
v 1.851272 -2.678080 6.000059
v 1.851272 -2.678080 -5.999941
v 1.284489 -2.843798 6.000059
v 1.284489 -2.843798 -5.999941
v -0.000000 -2.843798 6.000059
v -0.000000 -2.843798 -5.999941
v 4.511393 -1.048086 6.000059
v 4.511393 -1.048086 -5.999941
v 4.482758 0.207360 6.000059
v 4.482758 0.207360 -5.999940
v 4.210725 1.180951 6.000059
v 4.210725 1.180951 -5.999940
v 3.611235 2.131809 6.000059
v 3.611235 2.131809 -5.999940
v 2.565410 2.906828 6.000520
v 2.565410 2.906828 -5.999480
v 1.422453 3.345155 6.000520
v 1.422453 3.345155 -5.999480
v 0.359149 3.426353 6.000520
v 0.359149 3.426353 -5.999480
v -0.000000 3.441601 5.987757
v -0.000000 3.441601 -6.012244
v -2.185812 -2.561713 6.000059
v -3.869725 -2.561713 6.000059
v -2.185812 -2.561713 -5.999941
v -3.869725 -2.561713 -5.999941
v -3.929231 -2.187449 6.000059
v -3.929231 -2.187449 -5.999941
v -4.157303 -2.187449 6.000059
v -4.157303 -2.187449 -5.999941
v -4.157303 -1.940267 6.000059
v -4.157303 -1.940267 -5.999941
v -4.239360 -1.940267 6.000059
v -4.239360 -1.940267 -5.999941
v -1.851272 -2.678080 6.000059
v -1.851272 -2.678080 -5.999941
v -1.284490 -2.843798 6.000059
v -1.284490 -2.843798 -5.999941
v -4.511393 -1.048086 6.000059
v -4.511393 -1.048086 -5.999941
v -4.482758 0.207360 6.000059
v -4.482758 0.207360 -5.999940
v -4.210725 1.180951 6.000059
v -4.210725 1.180951 -5.999940
v -3.611235 2.131809 6.000059
v -3.611235 2.131809 -5.999940
v -2.565410 2.906828 6.000520
v -2.565410 2.906828 -5.999480
v -1.422453 3.345155 6.000520
v -1.422453 3.345155 -5.999480
v -0.359149 3.426353 6.000520
v -0.359149 3.426353 -5.999480
v 0.462374 3.418470 0.636403
v 0.359149 3.426353 0.669942
v 0.748136 3.396648 0.243084
v 0.748136 3.396648 -0.243084
v 0.462374 3.418470 -0.636403
v 0.359149 3.426353 -0.669942
v -0.000000 3.441601 0.786637
v 0.000000 3.441601 0.786637
v 0.000000 3.441601 -0.786637
v -0.000000 3.441601 -0.786637
v -0.748136 3.396648 0.243084
v -0.748136 3.396648 -0.243084
v -0.359149 3.426353 0.669942
v -0.462374 3.418470 0.636403
v -0.359149 3.426353 -0.669942
v -0.462374 3.418470 -0.636403
v 0.462374 6.223914 0.636403
v 0.359149 6.225452 0.669942
v 0.748136 6.219657 0.243084
v 0.748136 6.219657 -0.243084
v 0.462374 6.223914 -0.636403
v 0.359149 6.225452 -0.669942
v -0.000000 6.228427 0.786637
v 0.000000 6.228427 0.786637
v 0.000000 6.228427 -0.786637
v -0.000000 6.228427 -0.786637
v -0.748136 6.219657 0.243084
v -0.748136 6.219657 -0.243084
v -0.359149 6.225452 0.669942
v -0.462374 6.223914 0.636403
v -0.359149 6.225452 -0.669942
v -0.462374 6.223914 -0.636403
v 2.281307 -2.656014 6.417408
v 4.038787 -2.656014 6.417408
v 4.100893 -2.265399 6.417408
v 4.338928 -2.265399 6.417408
v 4.338928 -2.007418 6.417408
v 4.424570 -2.007418 6.417408
v 1.932150 -2.777464 6.417408
v 1.340606 -2.950423 6.417408
v -0.000000 -2.950423 6.417408
v 4.708488 -1.076259 6.417408
v 4.678602 0.234035 6.417408
v 4.394684 1.250161 6.417408
v 3.769004 2.242560 6.417408
v 2.677489 3.051438 6.417889
v 1.484597 3.508914 6.417889
v 0.374840 3.593660 6.417889
v -0.000000 3.609575 6.404568
v -2.281307 -2.656014 6.417408
v -4.038787 -2.656014 6.417408
v -4.100893 -2.265399 6.417408
v -4.338928 -2.265399 6.417408
v -4.338928 -2.007418 6.417408
v -4.424570 -2.007418 6.417408
v -1.932151 -2.777464 6.417408
v -1.340607 -2.950423 6.417408
v -4.708488 -1.076259 6.417408
v -4.678602 0.234035 6.417408
v -4.394684 1.250161 6.417408
v -3.769004 2.242560 6.417408
v -2.677489 3.051438 6.417889
v -1.484598 3.508914 6.417889
v -0.374840 3.593660 6.417889
v 2.278535 -2.653277 -6.402455
v 4.033880 -2.653277 -6.402455
v 4.095911 -2.263137 -6.402455
v 4.333657 -2.263137 -6.402455
v 4.333657 -2.005469 -6.402455
v 4.419195 -2.005469 -6.402455
v 1.929803 -2.774580 -6.402455
v 1.338978 -2.947328 -6.402455
v -0.000000 -2.947328 -6.402455
v 4.702767 -1.075441 -6.402455
v 4.672917 0.233261 -6.402455
v 4.389345 1.248152 -6.402455
v 3.764425 2.239346 -6.402455
v 2.674236 3.047241 -6.401975
v 1.482794 3.504161 -6.401975
v 0.374384 3.588804 -6.401975
v -0.000000 3.604699 -6.415280
v -2.278535 -2.653277 -6.402455
v -4.033880 -2.653277 -6.402455
v -4.095911 -2.263137 -6.402455
v -4.333657 -2.263137 -6.402455
v -4.333657 -2.005469 -6.402455
v -4.419195 -2.005469 -6.402455
v -1.929803 -2.774580 -6.402455
v -1.338978 -2.947328 -6.402455
v -4.702767 -1.075441 -6.402455
v -4.672917 0.233261 -6.402455
v -4.389345 1.248152 -6.402455
v -3.764425 2.239346 -6.402455
v -2.674236 3.047241 -6.401975
v -1.482794 3.504161 -6.401975
v -0.374384 3.588804 -6.401975
vn -0.1739 0.9765 0.1271
vn -0.6021 0.7686 0.2161
vn -0.6017 0.7686 -0.2174
vn -0.1740 0.9764 -0.1280
vn -0.6576 0.7307 0.1833
vn -0.6575 0.7305 -0.1844
vn -0.6535 0.7248 0.2182
vn -0.6530 0.7249 -0.2195
vn -0.7137 0.6750 0.1869
vn -0.7136 0.6748 -0.1880
vn -0.5376 0.8225 0.1856
vn -0.5371 0.8226 -0.1867
vn -0.3009 0.9433 -0.1399
vn -0.3009 0.9435 0.1390
vn -0.1362 0.9815 -0.1344
vn -0.1362 0.9816 0.1336
vn -0.0000 0.9921 -0.1255
vn -0.0000 0.9922 0.1247
vn -0.9651 0.1325 0.2257
vn -0.9648 0.1325 -0.2270
vn -0.9642 -0.1436 0.2231
vn -0.9639 -0.1435 -0.2245
vn -0.8908 -0.3964 0.2223
vn -0.8905 -0.3962 -0.2237
vn -0.7132 -0.6662 0.2181
vn -0.7130 -0.6659 -0.2195
vn -0.4684 -0.8591 0.2063
vn -0.4683 -0.8588 -0.2075
vn -0.2125 -0.9567 0.1990
vn -0.2125 -0.9564 -0.2003
vn -0.0548 -0.9803 -0.1895
vn -0.0616 -0.9793 0.1926
vn -0.0627 -0.9980 -0.0000
vn -0.0761 -0.9971 -0.0000
vn -0.0000 -0.9806 -0.1962
vn -0.0424 -0.9991 -0.0000
vn 0.0039 -1.0000 -0.0000
vn -0.0000 -0.9823 0.1872
vn 0.1739 0.9765 0.1271
vn 0.1740 0.9764 -0.1280
vn 0.6017 0.7686 -0.2174
vn 0.6021 0.7686 0.2161
vn 0.6575 0.7305 -0.1844
vn 0.6576 0.7307 0.1833
vn 0.6530 0.7249 -0.2195
vn 0.6535 0.7248 0.2182
vn 0.7136 0.6748 -0.1880
vn 0.7137 0.6750 0.1869
vn 0.5371 0.8226 -0.1867
vn 0.5376 0.8225 0.1856
vn 0.3009 0.9435 0.1390
vn 0.3009 0.9433 -0.1399
vn 0.1362 0.9816 0.1336
vn 0.1362 0.9815 -0.1344
vn 0.9648 0.1325 -0.2270
vn 0.9651 0.1325 0.2257
vn 0.9639 -0.1435 -0.2245
vn 0.9642 -0.1436 0.2231
vn 0.8905 -0.3962 -0.2237
vn 0.8908 -0.3964 0.2223
vn 0.7130 -0.6659 -0.2195
vn 0.7132 -0.6662 0.2181
vn 0.4683 -0.8588 -0.2075
vn 0.4684 -0.8591 0.2063
vn 0.2125 -0.9564 -0.2003
vn 0.2125 -0.9567 0.1990
vn 0.0616 -0.9793 0.1926
vn 0.0548 -0.9803 -0.1895
vn 0.0627 -0.9980 -0.0000
vn 0.0761 -0.9971 -0.0000
vn 0.9525 -0.0000 -0.3045
vn 0.9525 -0.0000 0.3045
vn 0.9508 -0.0000 0.3099
vn 0.9508 -0.0000 -0.3099
vn -0.9525 -0.0000 0.3045
vn -0.9525 -0.0000 -0.3045
vn -0.9508 -0.0000 -0.3099
vn -0.9508 -0.0000 0.3099
vn 0.3090 -0.0000 -0.9511
vn 0.5976 -0.0000 -0.8018
vn 0.5859 -0.0000 -0.8104
vn -0.5976 -0.0000 0.8018
vn -0.5859 -0.0000 0.8104
vn 0.1584 -0.0000 -0.9874
vn 0.1560 -0.0000 -0.9878
vn 0.5976 -0.0000 0.8018
vn 0.5859 -0.0000 0.8104
vn 0.3090 -0.0000 0.9511
vn 0.1584 -0.0000 0.9874
vn 0.1560 -0.0000 0.9878
vn -0.1584 -0.0000 0.9874
vn -0.1560 -0.0000 0.9878
vn -0.3090 -0.0000 -0.9511
vn -0.1584 -0.0000 -0.9874
vn -0.1560 -0.0000 -0.9878
vn -0.3090 -0.0000 0.9511
vn -0.5976 -0.0000 -0.8018
vn -0.5859 -0.0000 -0.8104
vn -0.6043 0.6998 0.3808
vn -0.8941 0.1231 0.4306
vn 0.1424 0.9580 0.2490
vn 0.2945 0.9152 0.2750
vn 0.2069 -0.8999 0.3839
vn 0.4456 -0.8021 0.3976
vn -0.5360 0.7623 0.3628
vn -0.6806 0.6074 0.4096
vn -0.8940 -0.1326 0.4280
vn 0.1445 0.9539 0.2631
vn 0.6271 0.6657 0.4044
vn -0.5833 0.7230 0.3702
vn -0.0000 0.9689 0.2475
vn -0.8280 -0.3652 0.4255
vn 0.8941 0.1231 0.4306
vn 0.6043 0.6998 0.3808
vn 0.6704 -0.6142 0.4164
vn 0.8280 -0.3652 0.4255
vn 0.5360 0.7623 0.3628
vn -0.0618 -0.9256 0.3734
vn -0.0000 -0.9275 0.3738
vn -0.6704 -0.6142 0.4164
vn 0.8940 -0.1326 0.4280
vn -0.2945 0.9152 0.2750
vn -0.1424 0.9580 0.2490
vn 0.6806 0.6074 0.4096
vn -0.4456 -0.8021 0.3976
vn 0.0618 -0.9256 0.3734
vn -0.1445 0.9539 0.2631
vn 0.5833 0.7230 0.3702
vn -0.6271 0.6657 0.4044
vn -0.2069 -0.8999 0.3839
vn 0.2944 0.9148 -0.2767
vn 0.1422 0.9576 -0.2506
vn -0.5350 0.7620 -0.3648
vn -0.6265 0.6648 -0.4068
vn -0.1422 0.9576 -0.2506
vn -0.0000 0.9685 -0.2491
vn 0.1445 0.9534 -0.2648
vn -0.8930 0.1229 -0.4329
vn -0.6040 0.6989 -0.3831
vn 0.8929 -0.1324 -0.4304
vn 0.8270 -0.3647 -0.4279
vn -0.0000 -0.9270 -0.3751
vn -0.0483 -0.9256 -0.3754
vn 0.4453 -0.8012 -0.3999
vn 0.2067 -0.8990 -0.3861
vn -0.6800 0.6066 -0.4120
vn -0.8929 -0.1324 -0.4304
vn -0.5822 0.7228 -0.3722
vn 0.0483 -0.9256 -0.3754
vn 0.6265 0.6648 -0.4068
vn -0.8270 -0.3647 -0.4279
vn 0.6040 0.6989 -0.3831
vn 0.8930 0.1229 -0.4329
vn 0.5350 0.7620 -0.3648
vn -0.6697 -0.6133 -0.4187
vn -0.2944 0.9148 -0.2767
vn 0.6800 0.6066 -0.4120
vn -0.4453 -0.8012 -0.3999
vn -0.1445 0.9534 -0.2648
vn 0.5822 0.7228 -0.3722
vn -0.2067 -0.8990 -0.3861
vn 0.6697 -0.6133 -0.4187
vt 3.995035 0.122410
vt 3.995035 0.683603
vt -0.004168 0.683603
vt -0.004168 0.122411
vt 3.995036 0.809899
vt -0.004168 0.809900
vt 3.995034 0.885907
vt -0.004168 0.885908
vt 3.995035 0.968285
vt -0.004168 0.968286
vt 3.995035 0.995632
vt -0.004168 0.995633
vt 3.995034 0.122410
vt -0.004168 0.004367
vt 3.995034 0.004366
vt 6.071139 0.991128
vt -0.295877 0.991128
vt -0.295877 0.690402
vt 6.071139 0.690402
vt -0.295877 0.008872
vt 6.071139 0.008872
vt 0.001547 0.000060
vt 1.451498 0.000060
vt 1.451499 0.112762
vt 0.001547 0.112762
vt 1.451498 0.264496
vt 0.001547 0.264496
vt 1.451498 0.386640
vt 0.001547 0.386640
vt 1.451499 0.522460
vt 0.001547 0.522460
vt 1.451554 0.679742
vt 0.001603 0.679742
vt 1.451554 0.827653
vt 0.001603 0.827652
vt 0.001603 0.956505
vt 1.451554 0.956505
vt 0.807464 0.956505
vt 0.803412 0.943996
vt 0.755887 0.909367
vt 0.697144 0.909367
vt 0.649619 0.943996
vt 0.645567 0.956505
vt 0.000060 0.999940
vt 0.631467 0.999940
vt 1.450012 0.999940
vt 0.821564 0.999940
vt 0.649619 0.943996
vt 0.755887 0.909367
vt 0.803412 0.943996
vt 0.466465 0.304669
vt 0.533535 0.304669
vt 0.533535 0.694121
vt 0.466465 0.694121
vt 0.450453 0.308767
vt 0.436213 0.307679
vt 0.436213 0.694708
vt 0.450453 0.694921
vt 0.587796 0.307679
vt 0.587796 0.694708
vt 0.412204 0.307679
vt 0.412204 0.694708
vt 0.500000 0.310870
vt 0.500000 0.695331
vt 0.549547 0.308767
vt 0.549547 0.694921
vt 0.563787 0.307679
vt 0.563787 0.694708
s 1
usemtl bricks
f 12/22/12 11/23/11 19/24/19 20/25/20
f 20/25/20 19/24/19 21/26/21 22/27/22
f 22/27/22 21/26/21 23/28/23 24/29/24
f 24/29/24 23/28/23 25/30/25 26/31/26
f 26/31/26 25/30/25 27/32/27 28/33/28
f 28/33/28 27/32/27 29/34/29 30/35/30
f 32/36/31 30/35/30 29/34/29 31/37/32 66/38/33 65/39/34 67/40/34 68/41/34 69/42/34 70/43/33
f 34/44/35 32/36/31 70/43/33 73/45/36 74/45/37
f 31/37/32 33/46/38 71/47/37 72/47/36 66/38/33
f 46/22/49 52/25/55 51/24/56 45/23/50
f 52/25/55 54/27/57 53/26/58 51/24/56
f 54/27/57 56/29/59 55/28/60 53/26/58
f 56/29/59 58/31/61 57/30/62 55/28/60
f 58/31/61 60/33/63 59/32/64 57/30/62
f 60/33/63 62/35/65 61/34/66 59/32/64
f 63/37/67 61/34/66 62/35/65 64/36/68 79/43/69 80/48/70 76/41/70 75/49/70 78/50/70 77/38/69
f 79/43/69 64/36/68 34/44/35 74/45/37
f 33/46/38 63/37/67 77/38/69 71/47/37
f 75/51/71 76/52/72 92/53/73 91/54/74
f 68/52/75 67/51/76 83/54/77 84/53/78
f 77/55/79 78/56/80 94/57/81 93/58/79
f 69/59/82 68/52/75 84/53/78 85/60/83
f 78/61/80 75/51/71 91/54/74 94/62/81
f 71/63/84 77/55/79 93/58/79 87/64/85
f 76/52/72 80/59/86 96/60/87 92/53/73
f 79/55/88 74/63/89 90/64/90 95/58/88
f 74/63/89 73/63/91 89/64/92 90/64/90
f 80/56/86 79/55/88 95/58/88 96/57/87
f 66/65/93 72/63/94 88/64/95 82/66/93
f 72/63/94 71/63/84 87/64/85 88/64/95
f 73/63/91 70/65/96 86/66/96 89/64/92
f 65/67/97 66/65/93 82/66/93 81/68/98
f 70/65/96 69/67/82 85/68/83 86/66/96
f 67/51/76 65/61/97 81/62/98 83/54/77
f 19/24/19 11/23/11 102/23/99 106/24/100
f 59/32/64 61/34/66 127/34/103 126/32/104
f 21/26/21 19/24/19 106/24/100 107/26/107
f 23/28/23 21/26/21 107/26/107 108/28/112
f 45/23/50 51/24/56 122/24/113 119/23/114
f 55/28/60 57/30/62 125/30/115 124/28/116
f 33/46/38 31/37/32 112/37/118 113/46/119
f 25/30/25 23/28/23 108/28/112 109/30/120
f 51/24/56 53/26/58 123/26/121 122/24/113
f 27/32/27 25/30/25 109/30/120 110/32/125
f 53/26/58 55/28/60 124/28/116 123/26/121
f 63/37/67 33/46/38 113/46/119 128/37/126
f 61/34/66 63/37/67 128/37/126 127/34/103
f 29/34/29 27/32/27 110/32/125 111/34/130
f 31/37/32 29/34/29 111/34/130 112/37/118
f 57/30/62 59/32/64 126/32/104 125/30/115
f 12/22/12 20/25/20 138/25/138 134/22/139
f 56/29/59 54/27/57 155/27/140 156/29/141
f 32/36/31 34/44/35 145/44/142 144/36/143
f 62/35/65 60/33/63 158/33/144 159/35/145
f 20/25/20 22/27/22 139/27/147 138/25/138
f 64/36/68 62/35/65 159/35/145 160/36/149
f 22/27/22 24/29/24 140/29/151 139/27/147
f 52/25/55 46/22/49 151/22/152 154/25/153
f 24/29/24 26/31/26 141/31/155 140/29/151
f 54/27/57 52/25/55 154/25/153 155/27/140
f 26/31/26 28/33/28 142/33/158 141/31/155
f 34/44/35 64/36/68 160/36/149 145/44/142
f 28/33/28 30/35/30 143/35/161 142/33/158
f 58/31/61 56/29/59 156/29/141 157/31/162
f 30/35/30 32/36/31 144/36/143 143/35/161
f 60/33/63 58/31/61 157/31/162 158/33/144
usemtl concrete_base_02
f 1/1/1 2/2/2 4/3/3 3/4/4
f 4/3/3 2/2/2 5/5/5 6/6/6
f 6/6/6 5/5/5 7/7/7 8/8/8
f 8/8/8 7/7/7 9/9/9 10/10/10
f 10/10/10 9/9/9 11/11/11 12/12/12
f 1/13/1 3/4/4 14/14/13 13/15/14
f 35/1/39 37/4/40 38/3/41 36/2/42
f 38/3/41 40/6/43 39/5/44 36/2/42
f 40/6/43 42/8/45 41/7/46 39/5/44
f 42/8/45 44/10/47 43/9/48 41/7/46
f 44/10/47 46/12/49 45/11/50 43/9/48
f 35/13/39 47/15/51 48/14/52 37/4/40
f 47/15/51 35/13/39 114/13/101 120/15/102
f 7/7/7 5/5/5 99/5/105 100/7/106
f 35/1/39 36/2/42 115/2/109 114/1/101
f 9/9/9 7/7/7 100/7/106 101/9/110
f 11/11/11 9/9/9 101/9/110 102/11/99
f 36/2/42 39/5/44 116/5/117 115/2/109
f 1/13/1 13/15/14 103/15/122 97/13/123
f 39/5/44 41/7/46 117/7/124 116/5/117
f 41/7/46 43/9/48 118/9/128 117/7/124
f 2/2/2 1/1/1 97/1/123 98/2/129
f 43/9/48 45/11/50 119/11/114 118/9/128
f 5/5/5 2/2/2 98/2/129 99/5/105
f 37/4/40 48/14/52 152/14/131 146/4/132
f 4/3/3 6/6/6 131/6/133 130/3/134
f 3/4/4 4/3/3 130/3/134 129/4/135
f 6/6/6 8/8/8 132/8/146 131/6/133
f 8/8/8 10/10/10 133/10/148 132/8/146
f 38/3/41 37/4/40 146/4/132 147/3/150
f 10/10/10 12/12/12 134/12/139 133/10/148
f 40/6/43 38/3/41 147/3/150 148/6/154
f 14/14/13 3/4/4 129/4/135 135/14/156
f 42/8/45 40/6/43 148/6/154 149/8/157
f 44/10/47 42/8/45 149/8/157 150/10/160
f 46/12/49 44/10/47 150/10/160 151/12/152
usemtl concrete_dirty
f 13/16/14 14/17/13 16/18/15 15/19/16
f 15/19/16 16/18/15 18/20/17 17/21/18
f 47/16/51 49/19/53 50/18/54 48/17/52
f 49/19/53 17/21/18 18/20/17 50/18/54
f 49/19/53 47/16/51 120/16/102 121/19/108
f 17/21/18 49/19/53 121/19/108 105/21/111
f 13/16/14 15/19/16 104/19/127 103/16/122
f 15/19/16 17/21/18 105/21/111 104/19/127
f 50/18/54 18/20/17 137/20/136 153/18/137
f 16/18/15 14/17/13 135/17/156 136/18/159
f 48/17/52 50/18/54 153/18/137 152/17/131
f 18/20/17 16/18/15 136/18/159 137/20/136
