# Blender 4.5.9 LTS
# www.blender.org
mtllib Serwers_002.mtl
o Serwers_002
v 0.000000 3.386930 -4.386930
v -0.000000 3.386930 4.386930
v -4.386931 3.386930 -0.000000
v -4.386931 -2.882610 -0.000000
v -0.000000 -2.882610 4.386930
v 0.000000 -2.882610 -4.386930
v -0.979492 -2.882610 -4.386930
v -4.386931 -2.882610 -0.979492
v -0.979493 -2.882610 4.386930
v -4.386931 -2.111717 -1.157323
v -1.157324 -2.111717 4.386930
v -1.157324 -2.111717 -4.386930
v -2.648009 -2.111717 -4.386930
v -2.648010 -2.111717 4.386930
v -4.386931 -2.111717 -2.648009
v -3.302014 -0.753663 -4.386930
v -3.302014 -0.753663 4.386930
v -4.386931 -0.753663 -3.302013
v -3.302014 0.753663 -4.386930
v -3.302014 0.753663 4.386930
v -4.386931 0.753663 -3.302013
v -2.648010 2.111717 -4.386930
v -2.648010 2.111717 4.386930
v -4.386931 2.111717 -2.648009
v -1.469535 3.051519 -4.386930
v -4.386931 3.051519 -1.469534
v -1.469535 3.051519 4.386930
v -4.386931 -2.882610 0.979492
v -4.386931 -2.111717 1.157323
v -4.386931 -2.111717 2.648009
v -4.386931 -0.753663 3.302013
v -4.386931 0.753663 3.302013
v -4.386931 2.111717 2.648009
v -4.386931 3.051519 1.469534
v -1.157324 -2.111717 -1.157323
v -2.648009 -2.111717 -1.157323
v -0.979493 -2.882610 -0.979492
v 0.000000 -2.882610 -0.979492
v -2.648009 -2.111717 -2.648009
v -1.157324 -2.111717 -2.648009
v -3.302014 -0.753663 -3.302013
v -3.302014 0.753663 -3.302013
v -2.648010 2.111717 -2.648009
v -1.469535 3.051519 -1.469534
v -0.000000 3.386930 -0.000000
v -0.979493 -2.882610 0.979492
v 0.000000 -2.882610 0.979492
v -0.631380 -2.882610 0.979492
v -1.157324 -2.111717 1.157323
v -2.648010 -2.111717 1.157323
v -3.302014 -0.753663 3.302013
v -2.648010 -2.111717 2.648009
v -1.157324 -2.111717 2.648009
v -3.302014 0.753663 3.302013
v -2.648010 2.111717 2.648009
v -1.469535 3.051519 1.469534
v -0.979493 -2.882610 -0.000000
v -0.979493 -2.882610 0.631379
v 0.000000 -2.882610 -0.489746
v 0.000000 -2.882610 0.000000
v -0.572534 -2.882610 0.572534
v 4.386931 3.386931 0.000000
v 4.386931 -2.882610 0.000000
v 0.979493 -2.882610 -4.386930
v 4.386931 -2.882610 -0.979492
v 0.979493 -2.882610 4.386930
v 4.386931 -2.111717 -1.157323
v 1.157324 -2.111717 4.386930
v 1.157324 -2.111717 -4.386930
v 2.648010 -2.111717 -4.386930
v 2.648010 -2.111717 4.386930
v 4.386931 -2.111717 -2.648009
v 3.302014 -0.753663 -4.386930
v 3.302014 -0.753663 4.386930
v 4.386931 -0.753663 -3.302013
v 3.302014 0.753663 -4.386930
v 3.302014 0.753663 4.386930
v 4.386931 0.753663 -3.302013
v 2.648010 2.111717 -4.386930
v 2.648009 2.111717 4.386930
v 4.386931 2.111717 -2.648009
v 1.469535 3.051519 -4.386930
v 4.386931 3.051519 -1.469534
v 1.469535 3.051519 4.386930
v 4.386931 -2.882610 0.979492
v 4.386931 -2.111717 1.157323
v 4.386931 -2.111717 2.648009
v 4.386931 -0.753663 3.302013
v 4.386931 0.753663 3.302013
v 4.386931 2.111717 2.648009
v 4.386931 3.051519 1.469534
v 1.157324 -2.111717 -1.157323
v 2.648010 -2.111717 -1.157323
v 0.979493 -2.882610 -0.979492
v 2.648010 -2.111717 -2.648009
v 1.157324 -2.111717 -2.648009
v 3.302014 -0.753663 -3.302013
v 3.302014 0.753663 -3.302013
v 2.648010 2.111717 -2.648009
v 1.469535 3.051519 -1.469534
v 0.979493 -2.882610 0.979492
v 0.631380 -2.882610 0.979492
v 1.157324 -2.111717 1.157323
v 2.648010 -2.111717 1.157323
v 3.302014 -0.753663 3.302013
v 2.648010 -2.111717 2.648009
v 1.157324 -2.111717 2.648009
v 3.302014 0.753663 3.302013
v 2.648009 2.111717 2.648009
v 1.469535 3.051519 1.469534
v 0.979493 -2.882610 0.000000
v 0.979493 -2.882610 0.631379
v 0.572535 -2.882610 0.572534
v -0.000000 3.509012 4.666461
v -0.000000 -2.973241 4.666461
v -1.012725 -2.973241 4.666461
v -1.196590 -2.176193 4.666461
v -2.737851 -2.176193 4.666461
v -3.414045 -0.772063 4.666461
v -3.414045 0.786403 4.666461
v -2.737852 2.190533 4.666461
v -1.519394 3.162221 4.666461
v 1.012725 -2.973241 4.666461
v 1.196589 -2.176193 4.666461
v 2.737851 -2.176193 4.666461
v 3.414044 -0.772063 4.666461
v 3.414044 0.786404 4.666461
v 2.737851 2.190533 4.666461
v 1.519393 3.162221 4.666461
v -4.638509 3.536942 -0.000000
v -4.638509 -2.993976 -0.000000
v -4.638509 -2.993976 -1.020327
v -4.638509 -2.190944 -1.205572
v -4.638509 -2.190944 -2.758405
v -4.638509 -0.776273 -3.439674
v -4.638509 0.793894 -3.439674
v -4.638509 2.208565 -2.758405
v -4.638509 3.187547 -1.530799
v -4.638509 -2.993976 1.020327
v -4.638509 -2.190944 1.205572
v -4.638509 -2.190944 2.758404
v -4.638509 -0.776273 3.439674
v -4.638509 0.793894 3.439674
v -4.638509 2.208565 2.758404
v -4.638509 3.187547 1.530799
v 4.806227 3.473120 0.000000
v 4.806227 -2.946595 0.000000
v 4.806227 -2.946595 -1.002953
v 4.806227 -2.157236 -1.185044
v 4.806227 -2.157236 -2.711436
v 4.806227 -0.766653 -3.381106
v 4.806227 0.776778 -3.381106
v 4.806227 2.167361 -2.711436
v 4.806227 3.129674 -1.504733
v 4.806227 -2.946595 1.002954
v 4.806227 -2.157236 1.185045
v 4.806227 -2.157236 2.711437
v 4.806227 -0.766653 3.381106
v 4.806227 0.776778 3.381106
v 4.806227 2.167361 2.711437
v 4.806227 3.129674 1.504734
v 0.000000 3.596091 -4.750320
v 0.000000 -3.037887 -4.750320
v -1.036428 -3.037887 -4.750320
v -1.224597 -2.222183 -4.750320
v -2.801933 -2.222183 -4.750320
v -3.493953 -0.785188 -4.750320
v -3.493953 0.809756 -4.750320
v -2.801933 2.246751 -4.750320
v -1.554956 3.241182 -4.750320
v 1.036429 -3.037887 -4.750320
v 1.224597 -2.222183 -4.750320
v 2.801934 -2.222182 -4.750320
v 3.493954 -0.785188 -4.750320
v 3.493954 0.809757 -4.750320
v 2.801933 2.246751 -4.750320
v 1.554956 3.241182 -4.750320
vn -0.0000 1.0000 -0.0000
vn -0.2161 0.9764 -0.0000
vn -0.2069 0.9784 -0.0000
vn -0.0000 0.2248 0.9744
vn -0.1149 0.2233 0.9680
vn -0.1388 0.2226 0.9650
vn -0.1690 0.9856 -0.0000
vn -0.1427 0.9898 -0.0000
vn -0.2482 0.4203 0.8728
vn -0.0000 0.4339 0.9010
vn -0.0000 0.2481 0.9687
vn -0.2590 0.2171 0.9412
vn -0.0000 -0.2481 0.9687
vn -0.2652 -0.2124 0.9405
vn -0.0000 -0.6781 0.7350
vn -0.2707 -0.5989 0.7537
vn 0.1758 -0.9686 0.1758
vn -0.2744 -0.8660 0.4181
vn -0.0000 -1.0000 -0.0000
vn -0.0000 0.2248 -0.9744
vn -0.1388 0.2226 -0.9650
vn -0.1149 0.2233 -0.9680
vn -0.0000 0.2481 -0.9687
vn -0.0000 0.4339 -0.9010
vn -0.2482 0.4203 -0.8728
vn -0.2590 0.2171 -0.9412
vn -0.0000 -0.2481 -0.9687
vn -0.2652 -0.2124 -0.9405
vn -0.0000 -0.6781 -0.7350
vn -0.2707 -0.5989 -0.7537
vn -0.2744 -0.8660 -0.4181
vn 0.1758 -0.9686 -0.1758
vn 0.9744 0.2248 -0.0000
vn 0.9687 0.2481 -0.0000
vn 0.9010 0.4339 -0.0000
vn 0.9749 0.2225 -0.0000
vn 0.9749 -0.2225 -0.0000
vn 0.9687 -0.2481 -0.0000
vn 0.7818 -0.6235 -0.0000
vn 0.7350 -0.6781 -0.0000
vn 0.4339 -0.9010 -0.0000
vn 0.0756 0.9971 -0.0000
vn 0.0770 0.9970 -0.0000
vn 0.0461 0.2245 0.9734
vn 0.0430 0.2246 0.9735
vn 0.0529 0.9986 -0.0000
vn 0.0565 0.9984 -0.0000
vn 0.0915 0.4321 0.8972
vn 0.0954 0.2223 0.9703
vn 0.0980 -0.2206 0.9704
vn 0.1004 -0.6198 0.7783
vn 0.1021 -0.8961 0.4320
vn -0.1758 -0.9686 0.1758
vn 0.1027 -0.9947 -0.0000
vn 0.0430 0.2246 -0.9735
vn 0.0461 0.2245 -0.9734
vn 0.0954 0.2223 -0.9703
vn 0.0915 0.4321 -0.8972
vn 0.0980 -0.2206 -0.9704
vn 0.1004 -0.6198 -0.7783
vn 0.1021 -0.8961 -0.4320
vn -0.1758 -0.9686 -0.1758
vn -0.9744 0.2248 -0.0000
vn -0.9687 0.2481 -0.0000
vn -0.9749 0.2225 -0.0000
vn -0.9010 0.4339 -0.0000
vn -0.9749 -0.2225 -0.0000
vn -0.9687 -0.2481 -0.0000
vn -0.7818 -0.6235 -0.0000
vn -0.7350 -0.6781 -0.0000
vn -0.4339 -0.9010 -0.0000
vn -0.0000 0.9744 0.2248
vn 0.9028 0.2094 0.3756
vn 0.9006 -0.2022 0.3846
vn 0.8992 -0.2081 0.3848
vn 0.9041 0.2035 0.3757
vn 0.7206 -0.5714 0.3927
vn 0.3993 -0.8258 0.3983
vn 0.3969 -0.8270 0.3983
vn 0.7176 -0.5751 0.3928
vn -0.0000 0.9513 0.3084
vn -0.9006 -0.2022 0.3846
vn -0.9028 0.2094 0.3756
vn -0.9041 0.2035 0.3757
vn -0.8992 -0.2081 0.3848
vn -0.3993 -0.8258 0.3983
vn -0.7206 -0.5714 0.3927
vn -0.7176 -0.5751 0.3928
vn -0.3969 -0.8270 0.3983
vn 0.9575 0.2209 0.1854
vn 0.8395 0.4043 0.3631
vn -0.9575 0.2209 0.1854
vn -0.0000 -0.9164 0.4002
vn -0.8395 0.4043 0.3631
vn -0.5038 -0.5406 0.6737
vn -0.4947 -0.1966 0.8465
vn -0.3004 0.9538 -0.0000
vn -0.5121 -0.8589 -0.0000
vn -0.5100 -0.7756 -0.3719
vn -0.4843 0.1914 0.8537
vn -0.4697 0.3831 0.7954
vn -0.4843 0.1914 -0.8537
vn -0.4947 -0.1966 -0.8465
vn -0.2495 0.2177 0.9436
vn -0.5100 -0.7756 0.3719
vn -0.4048 0.9144 -0.0000
vn -0.5038 -0.5406 -0.6737
vn -0.2495 0.2177 -0.9436
vn -0.4697 0.3831 -0.7954
vn 0.0885 0.2239 0.9706
vn 0.1971 -0.6122 0.7657
vn 0.2002 -0.8830 0.4245
vn 0.1971 -0.6122 -0.7657
vn 0.1925 -0.2199 -0.9563
vn 0.1509 0.9886 -0.0000
vn 0.0885 0.2239 -0.9706
vn 0.1874 0.2171 0.9580
vn 0.1925 -0.2199 0.9563
vn 0.1874 0.2171 -0.9580
vn 0.1804 0.4268 -0.8862
vn 0.2002 -0.8830 -0.4245
vn 0.1079 0.9942 -0.0000
vn 0.2013 -0.9795 -0.0000
vn 0.1804 0.4268 0.8862
vn 0.3782 -0.7812 -0.4966
vn 0.6833 -0.5409 -0.4904
vn 0.6797 -0.5453 -0.4905
vn 0.3753 -0.7826 -0.4967
vn -0.0000 0.9196 -0.3929
vn -0.0000 0.9568 -0.2908
vn -0.8591 0.2002 -0.4711
vn -0.8554 -0.1912 -0.4813
vn -0.8537 -0.1982 -0.4815
vn -0.8606 0.1930 -0.4713
vn -0.6833 -0.5409 -0.4904
vn -0.3782 -0.7812 -0.4966
vn -0.3753 -0.7826 -0.4967
vn -0.6797 -0.5453 -0.4905
vn 0.9456 0.2181 -0.2414
vn 0.8591 0.2002 -0.4711
vn 0.8015 0.3860 -0.4568
vn 0.8606 0.1930 -0.4713
vn 0.8554 -0.1912 -0.4813
vn 0.8537 -0.1982 -0.4815
vn -0.0000 -0.8667 -0.4988
vn -0.9456 0.2181 -0.2414
vn -0.8015 0.3860 -0.4568
vt 0.308444 1.237606
vt 0.308444 1.006753
vt -0.494644 1.006753
vt -0.494644 1.237606
vt 0.539298 1.237606
vt 0.266532 0.195233
vt -0.084803 0.195233
vt -0.494644 0.195233
vt -0.494644 0.013544
vt 0.308444 0.013544
vt -0.084803 0.997347
vt -0.084803 0.646012
vt -0.494644 0.646012
vt -0.494644 0.997347
vt 0.736117 0.995588
vt 1.040246 0.995588
vt 1.040246 0.691459
vt -0.327959 0.005138
vt -0.025010 0.005138
vt -0.138949 0.241734
vt -0.327959 0.241734
vt -0.327959 0.241734
vt -0.138949 0.504335
vt -0.327959 0.504334
vt -0.327959 0.504335
vt -0.025010 0.740930
vt -0.327959 0.740930
vt -0.327959 0.533535
vt -0.025010 0.533535
vt 0.180299 0.738845
vt -0.327959 0.738845
vt -0.327959 0.738845
vt 0.436316 0.994861
vt -0.327959 0.994861
vt 0.308444 1.088799
vt -0.494644 1.237607
vt -0.494644 1.006753
vt 0.404359 1.102668
vt 0.390490 1.006753
vt -0.084803 0.195233
vt 0.266532 0.195233
vt -0.494644 0.013544
vt -0.494644 0.195233
vt -0.084803 0.646012
vt -0.084803 0.997347
vt -0.040246 0.691459
vt -0.040246 0.995588
vt 0.263883 0.995588
vt -0.138949 0.241734
vt -0.025010 0.005138
vt -0.327959 0.241734
vt -0.327959 0.241734
vt -0.327959 0.504334
vt -0.025010 0.740930
vt -0.327959 0.504335
vt -0.327959 0.740930
vt -0.327959 0.738845
vt 0.180299 0.738845
vt -0.025010 0.533535
vt -0.327959 0.533535
vt -0.327959 0.994861
vt -0.327959 0.738845
vt 0.770151 1.236073
vt 1.573239 1.237779
vt 1.573239 1.007217
vt 0.770151 1.006753
vt -0.494644 1.006753
vt -0.494644 1.237606
vt 1.573239 0.195233
vt 1.163398 0.195233
vt 0.812064 0.195233
vt 0.770151 0.013544
vt 1.573240 0.013544
vt -0.494644 0.013544
vt 1.163399 0.646012
vt 1.163399 0.997347
vt 1.573240 0.997347
vt 1.573240 0.646012
vt -0.084803 0.684337
vt -0.499574 0.684337
vt -0.499574 0.997347
vt -0.084803 0.997347
vt 1.011581 0.241734
vt 0.897642 0.005138
vt 1.200591 0.005138
vt 1.200591 0.241734
vt -0.327959 0.005138
vt -0.025010 0.005138
vt -0.327959 0.241734
vt 0.921226 0.502913
vt 1.109877 0.502913
vt 1.109877 0.240812
vt 0.921226 0.240812
vt 0.920944 0.240812
vt 0.920944 0.502913
vt 1.109596 0.502913
vt 1.109596 0.240812
vt 1.200591 0.740930
vt 0.897642 0.740930
vt 1.011581 0.504334
vt 1.200592 0.504334
vt -0.327959 0.504335
vt -0.025010 0.740930
vt -0.327959 0.740930
vt 0.692333 0.738845
vt 0.897642 0.533535
vt 1.200591 0.533535
vt 1.200591 0.738845
vt -0.327959 0.738845
vt -0.327959 0.533535
vt -0.025010 0.533535
vt 1.200591 0.738845
vt 1.200591 0.994862
vt -0.327959 0.994861
vt -0.327959 0.738845
vt 0.266532 0.997347
vt 0.002985 0.647853
vt 0.002985 0.999616
vt 0.354747 0.999616
vt 0.654724 1.237606
vt -0.494644 0.013544
vt -0.494644 0.195233
vt -0.494644 0.646012
vt -0.327959 0.005138
vt -0.327959 0.241734
vt -0.327959 0.241734
vt -0.327959 0.504335
vt -0.327959 0.504334
vt -0.327959 0.740930
vt -0.327959 0.533535
vt -0.327959 0.738845
vt -0.327959 0.994862
vt -0.494644 1.237607
vt -0.494644 0.997347
vt -0.327959 0.241734
vt -0.327959 0.005138
vt -0.327959 0.504335
vt -0.327959 0.241734
vt -0.327959 0.740930
vt -0.327959 0.994862
vt 1.573239 1.007217
vt -0.494644 1.006753
vt 1.573239 0.013544
vt -0.494644 0.013544
vt 1.573240 0.646012
vt 1.573240 0.997347
vt 1.200591 0.241734
vt 1.200591 0.005138
vt -0.327959 0.005138
vt -0.327959 0.241734
vt 1.200591 0.740929
vt 1.200591 0.504334
vt -0.327959 0.504334
vt -0.327959 0.740930
vt -0.327959 0.533535
vt 1.200591 0.994861
vt 1.200591 0.738845
vt -0.327959 0.994862
vt -0.327959 0.738845
s 1
usemtl concrete_base
f 57/1/1 37/2/1 8/3/2 4/4/3
f 57/1/1 60/5/1 37/2/1
f 35/6/4 36/7/4 10/8/5 8/9/6 37/10/4
f 36/11/1 39/12/1 15/13/7 10/14/8
f 35/15/1 40/16/1 39/17/1
f 46/2/1 58/35/1 57/1/1 4/36/3 28/37/2
f 58/35/1 61/38/1 60/5/1 57/1/1
f 48/39/1 61/38/1 46/2/1
f 50/40/20 49/41/20 46/10/20 28/42/21 29/43/22
f 52/44/1 50/45/1 29/14/8 30/13/7
f 52/46/1 53/47/1 49/48/1
f 38/63/1 6/64/1 7/65/1 37/66/1
f 48/35/1 46/2/1 9/67/1 5/68/1 47/1/1
f 48/35/1 61/38/1 46/2/1
f 12/69/33 40/70/33 35/71/33 37/72/33 7/73/33
f 49/41/33 53/40/33 11/43/33 9/74/33 46/10/33
f 39/75/1 40/76/1 12/77/1 13/78/1
f 52/79/1 14/80/1 11/81/1 53/82/1
f 49/116/1 50/45/1 52/79/1
f 39/117/1 36/118/1 35/119/1
f 61/38/1 58/39/1 46/2/1
f 61/38/1 58/35/1 46/2/1
f 61/38/1 48/35/1 47/1/1 60/5/1
f 60/5/1 59/120/1 38/63/1 37/66/1
f 111/1/1 63/36/42 65/3/43 94/2/1
f 111/1/1 94/2/1 60/5/1
f 92/6/4 94/10/4 65/121/44 67/122/45 93/7/4
f 93/11/1 67/14/46 72/123/47 95/12/1
f 92/15/1 95/17/1 96/16/1
f 101/2/1 85/3/43 63/133/42 111/1/1 112/35/1
f 112/35/1 111/1/1 60/5/1 113/38/1
f 102/39/1 101/2/1 113/38/1
f 104/40/20 86/43/55 85/9/56 101/10/20 103/41/20
f 106/44/1 87/13/47 86/134/46 104/45/1
f 106/46/1 103/48/1 107/47/1
f 38/63/1 94/66/1 64/141/1 6/64/1
f 102/35/1 47/1/1 5/4/1 66/142/1 101/2/1
f 102/35/1 101/2/1 113/38/1
f 69/69/63 64/143/63 94/72/63 92/71/63 96/70/63
f 103/41/63 101/10/63 66/144/63 68/43/63 107/40/63
f 95/75/1 70/145/1 69/146/1 96/76/1
f 106/79/1 107/82/1 68/81/1 71/80/1
f 103/116/1 106/79/1 104/45/1
f 95/117/1 92/119/1 93/118/1
f 113/38/1 101/2/1 112/39/1
f 113/38/1 101/2/1 112/35/1
f 113/38/1 60/5/1 47/1/1 102/35/1
f 60/5/1 94/66/1 38/63/1 59/120/1
f 11/81/72 14/80/72 118/80/72 117/81/72
f 66/142/81 5/4/81 115/4/81 123/142/81
f 71/80/72 68/81/72 124/81/72 125/80/72
f 9/74/90 11/43/90 117/43/90 116/74/90
f 68/43/92 66/144/92 123/144/92 124/43/92
f 5/68/81 9/67/81 116/67/81 115/68/81
f 30/13/7 29/14/8 140/14/97 141/13/97
f 8/9/6 10/8/5 133/8/104 132/9/104
f 4/4/3 8/3/2 132/3/106 131/4/106
f 28/37/2 4/36/3 131/36/106 139/37/106
f 29/43/22 28/42/21 139/42/108 140/43/108
f 10/14/8 15/13/7 134/13/97 133/14/97
f 67/122/45 65/121/44 148/121/110 149/122/110
f 63/133/42 85/3/43 155/3/115 147/133/115
f 85/9/56 86/43/55 156/43/116 155/9/116
f 65/3/43 63/36/42 147/36/115 148/3/115
f 72/123/47 67/14/46 149/14/122 150/123/122
f 86/134/46 87/13/47 157/13/122 156/134/122
f 6/64/129 64/141/129 171/141/129 163/64/129
f 69/146/130 70/145/130 173/145/130 172/146/130
f 12/69/139 7/73/139 164/73/139 165/69/139
f 7/65/129 6/64/129 163/64/129 164/65/129
f 64/143/146 69/69/146 172/69/146 171/143/146
f 13/78/130 12/77/130 165/77/130 166/78/130
usemtl brick_modern_01
f 15/18/9 39/19/10 41/20/11 18/21/12
f 18/22/12 41/20/11 42/23/13 21/24/14
f 21/25/14 42/23/13 43/26/15 24/27/16
f 24/28/16 43/29/15 44/30/17 26/31/18
f 26/32/18 44/30/17 45/33/19 3/34/19
f 51/49/23 52/50/24 30/18/25 31/51/26
f 54/23/27 51/49/23 31/52/26 32/53/28
f 55/54/29 54/23/27 32/55/28 33/56/30
f 34/57/31 56/58/32 55/59/29 33/60/30
f 3/61/19 45/33/19 56/58/32 34/62/31
f 41/83/34 39/84/35 13/85/35 16/86/36
f 14/87/35 52/88/35 51/49/34 17/89/36
f 19/90/37 42/91/38 41/92/34 16/93/36
f 51/94/34 54/95/38 20/96/37 17/97/36
f 22/98/39 43/99/40 42/100/38 19/101/37
f 20/102/37 54/23/38 55/103/40 23/104/39
f 44/105/17 43/106/40 22/107/39 25/108/41
f 27/109/41 23/110/39 55/111/40 56/58/32
f 45/33/19 44/105/17 25/112/41 1/113/19
f 2/114/19 27/115/41 56/58/32 45/33/19
f 72/124/48 75/125/49 97/20/11 95/19/10
f 75/126/49 78/127/50 98/23/13 97/20/11
f 78/128/50 81/129/51 99/26/15 98/23/13
f 81/130/51 83/32/52 100/30/53 99/29/15
f 83/131/52 62/132/54 45/33/19 100/30/53
f 105/49/23 88/135/57 87/136/58 106/50/24
f 108/23/27 89/137/59 88/138/57 105/49/23
f 109/54/29 90/139/60 89/55/59 108/23/27
f 91/32/61 90/130/60 109/59/29 110/58/62
f 62/140/54 91/31/61 110/58/62 45/33/19
f 97/83/64 73/147/65 70/148/66 95/84/66
f 71/149/66 74/150/65 105/49/64 106/88/66
f 76/90/67 73/93/65 97/92/64 98/91/68
f 105/94/64 74/97/65 77/96/67 108/95/68
f 79/151/69 76/152/67 98/100/68 99/99/70
f 77/153/67 80/154/69 109/103/70 108/23/68
f 100/105/53 82/112/71 79/107/69 99/106/70
f 84/57/71 110/58/62 109/111/70 80/155/69
f 45/33/19 1/156/19 82/157/71 100/105/53
f 2/158/19 45/33/19 110/58/62 84/159/71
f 17/97/73 20/96/74 120/96/75 119/97/76
f 23/110/77 27/109/78 122/109/79 121/110/80
f 77/96/82 74/97/83 126/97/84 127/96/85
f 84/57/86 80/155/87 128/155/88 129/57/89
f 14/87/91 17/89/73 119/89/76 118/87/91
f 20/102/74 23/104/77 121/104/80 120/102/75
f 27/115/78 2/114/93 114/114/93 122/115/79
f 74/150/83 71/149/94 125/149/94 126/150/84
f 2/158/93 84/159/86 129/159/89 114/158/93
f 80/154/87 77/153/82 127/153/85 128/154/88
f 21/25/14 24/27/16 137/27/95 136/25/96
f 3/61/98 34/62/31 145/62/99 130/61/98
f 15/18/9 18/21/12 135/21/100 134/18/101
f 32/53/28 31/52/26 142/52/102 143/53/103
f 24/28/16 26/31/18 138/31/105 137/28/95
f 33/56/30 32/55/28 143/55/103 144/56/107
f 18/22/12 21/24/14 136/24/96 135/22/100
f 31/51/26 30/18/25 141/18/109 142/51/102
f 26/32/18 3/34/98 130/34/98 138/32/105
f 34/57/31 33/60/30 144/60/107 145/57/99
f 83/32/52 81/130/51 153/130/111 154/32/112
f 89/55/59 90/139/60 160/139/113 159/55/114
f 78/127/50 75/126/49 151/126/117 152/127/118
f 87/136/58 88/135/57 158/135/119 157/136/120
f 90/130/60 91/32/61 161/32/121 160/130/113
f 62/132/54 83/131/52 154/131/112 146/132/123
f 91/31/61 62/140/54 146/140/123 161/31/121
f 81/129/51 78/128/50 152/128/118 153/129/111
f 88/138/57 89/137/59 159/137/114 158/138/119
f 75/125/49 72/124/48 150/124/124 151/125/117
f 25/108/125 22/107/126 169/107/127 170/108/128
f 73/93/131 76/90/132 175/90/133 174/93/134
f 79/107/135 82/112/136 177/112/137 176/107/138
f 16/86/140 13/85/141 166/85/141 167/86/142
f 22/98/126 19/101/143 168/101/144 169/98/127
f 1/113/145 25/112/125 170/112/128 162/113/145
f 70/148/147 73/147/131 174/147/134 173/148/147
f 82/157/136 1/156/145 162/156/145 177/157/137
f 76/152/132 79/151/135 176/151/138 175/152/133
f 19/90/143 16/93/140 167/93/142 168/90/144
