# Blender 4.5.9 LTS
# www.blender.org
mtllib Serwers02_001.mtl
o Serwers02_001
v 0.000001 3.254394 -4.248933
v 4.248928 3.254395 -0.000006
v -1.862713 -2.636669 -4.248932
v 4.248928 -2.636668 1.862709
v -2.455373 -2.122126 -4.248932
v 4.248928 -2.122126 2.455369
v -3.215856 -0.456902 -4.248932
v 4.248928 -0.456902 3.215851
v -2.955326 1.355121 -4.248932
v 4.248928 1.355121 2.955321
v -1.756501 2.738639 -4.248932
v 4.248928 2.738639 1.756496
v -0.999718 -2.636669 -4.248932
v 4.248928 -2.636668 0.999714
v -0.999718 -2.880242 -4.248932
v 4.248928 -2.880242 0.999714
v 0.000001 -2.880242 -4.248932
v 4.248928 -2.880242 -0.000006
v 1.862716 -2.636669 -4.248932
v 4.248928 -2.636669 -1.862721
v 2.455376 -2.122126 -4.248932
v 4.248928 -2.122126 -2.455380
v 3.215858 -0.456902 -4.248932
v 4.248928 -0.456902 -3.215863
v 2.955329 1.355121 -4.248932
v 4.248928 1.355121 -2.955333
v 1.756504 2.738639 -4.248932
v 4.248928 2.738639 -1.756508
v 0.999721 -2.636669 -4.248932
v 4.248928 -2.636668 -0.999725
v 0.999721 -2.880242 -4.248932
v 4.248928 -2.880242 -0.999725
v -2.455373 -2.122126 2.455369
v -1.862713 -2.636669 -1.862721
v -1.862713 -2.636668 -0.999725
v -1.862713 -2.636668 0.999714
v -1.862713 -2.636668 1.242044
v -1.862713 -2.636668 1.862709
v -3.215856 -0.456902 3.215851
v -3.215856 -0.456902 3.215851
v -2.955326 1.355121 2.955321
v -1.756501 2.738639 1.756496
v 0.000001 3.254395 -0.000006
v -0.999718 -2.636669 -1.862721
v -0.999718 -2.636668 -1.329697
v -0.999718 -2.636668 -0.999725
v -0.999718 -2.636668 0.999714
v -0.999718 -2.636668 1.862709
v -0.999718 -2.880242 0.999714
v -0.999718 -2.880242 -0.999725
v -0.999718 -2.880242 -0.000006
v -0.999718 -2.880242 0.382243
v 1.862716 -2.636668 1.862709
v 1.862716 -2.636669 -1.862721
v 1.862716 -2.636668 -0.999725
v 1.862716 -2.636668 0.999714
v 1.862716 -2.636668 1.620378
v 2.455376 -2.122126 -2.455380
v 3.215858 -0.456902 -3.215863
v 3.215858 -0.456902 -3.215863
v 2.955329 1.355121 -2.955333
v 1.756504 2.738639 -1.756508
v 0.999721 -2.880242 0.999714
v 0.999721 -2.880242 -0.999725
v 0.999721 -2.880242 -0.000006
v 0.999721 -2.880242 0.617465
v 0.999721 -2.636669 -1.862721
v 0.999721 -2.636668 -1.532749
v 0.999721 -2.636668 -0.999725
v 0.999721 -2.636668 0.999714
v 0.999721 -2.636668 1.862709
v 1.620386 -2.636668 1.862709
v -1.532742 -2.636668 0.999714
v 0.617472 -2.880242 0.999714
v 0.000001 -2.880242 0.999714
v 1.242052 -2.636669 -1.862721
v 0.382250 -2.880242 -0.999725
v 0.000001 -2.880242 -0.999725
v -1.329690 -2.636668 -0.999725
v 0.435035 -2.880242 -0.551045
v 0.000001 -2.880242 -0.499866
v -0.551037 -2.880242 0.435028
v 0.566507 -2.880242 0.566500
v -0.447243 -2.880242 -0.447250
v -0.499858 -2.880242 -0.000006
v 0.000001 -2.880242 -0.000006
v -1.299269 -2.636668 -1.299276
v -1.560469 -2.636668 1.272739
v 1.272746 -2.636668 -1.560476
v 1.592994 -2.636668 1.592987
v 0.000001 3.510803 -4.635354
v -1.980328 -2.752230 -4.635354
v -2.610409 -2.205199 -4.635354
v -3.418909 -0.434830 -4.635354
v -3.141930 1.491607 -4.635354
v -1.867409 2.962482 -4.635354
v -1.062842 -2.752230 -4.635353
v -1.062842 -3.011183 -4.635353
v 0.000001 -3.011183 -4.635353
v 1.980331 -2.752230 -4.635354
v 2.610412 -2.205199 -4.635354
v 3.418912 -0.434830 -4.635354
v 3.141932 1.491607 -4.635354
v 1.867412 2.962482 -4.635354
v 1.062845 -2.752230 -4.635353
v 1.062845 -3.011183 -4.635353
vn -0.0000 1.0000 -0.0000
vn 0.6883 0.7100 -0.1486
vn 0.3241 0.9272 -0.1877
vn 0.5270 0.6668 -0.5270
vn 0.7794 0.5883 -0.2157
vn 0.9584 0.1493 -0.2433
vn 0.6988 0.0075 -0.7153
vn 0.6216 0.3545 -0.6986
vn 0.8791 -0.3904 -0.2736
vn 0.6282 -0.4590 -0.6282
vn 0.5213 -0.8004 -0.2960
vn 0.3640 -0.8574 -0.3640
vn -0.0000 -0.9526 -0.3042
vn 0.0711 -0.9949 -0.0711
vn -0.0000 0.9867 -0.1626
vn 0.7198 0.6705 -0.1797
vn 1.0000 -0.0000 -0.0000
vn 0.7071 -0.0000 -0.7071
vn -0.3241 0.9272 -0.1877
vn -0.6883 0.7100 -0.1486
vn -0.7794 0.5883 -0.2157
vn -0.3699 0.8522 0.3699
vn -0.4500 0.7713 0.4500
vn -0.9584 0.1493 -0.2433
vn -0.7591 0.3770 0.5307
vn -0.8791 -0.3904 -0.2736
vn -0.6818 -0.0023 0.7315
vn -0.5658 -0.5999 0.5658
vn -0.5213 -0.8004 -0.2960
vn -0.2302 -0.9455 0.2302
vn -0.7198 0.6705 -0.1797
vn -0.7071 -0.0000 0.7071
vn -1.0000 -0.0000 -0.0000
vn -0.0000 -0.4154 -0.9096
vn -0.0000 0.1423 -0.9898
vn -0.0000 0.5989 -0.8008
vn -0.0000 -0.8413 -0.5406
vn 0.3699 0.8522 -0.3699
vn -0.0000 0.7551 -0.6556
vn -0.0000 -1.0000 -0.0000
vn -0.0000 -0.0000 -1.0000
vn -0.0000 0.7551 0.6556
vn -0.0000 0.5989 0.8008
vn -0.0000 0.1423 0.9898
vn -0.0000 -0.4154 0.9096
vn -0.0000 -0.8413 0.5406
vn -0.0000 -0.0000 1.0000
vn 0.6556 0.7551 -0.0000
vn 0.7782 -0.3710 -0.5068
vn 0.4480 -0.7118 -0.5409
vn -0.7343 0.5404 -0.4108
vn -0.3545 0.8607 -0.3653
vn -0.6361 0.6932 -0.3388
vn -0.0000 0.9471 -0.3209
vn -0.4480 -0.7118 -0.5409
vn -0.7782 -0.3710 -0.5068
vn -0.8824 0.1101 -0.4574
vn 0.6361 0.6932 -0.3388
vn 0.7069 0.6376 -0.3062
vn -0.7069 0.6376 -0.3062
vn 0.3545 0.8607 -0.3653
vn -0.0000 -0.8332 -0.5529
vn 0.7343 0.5404 -0.4108
vn 0.8824 0.1101 -0.4574
vt 0.084563 0.680855
vt -1.064508 0.680855
vt -1.064508 0.990118
vt 0.084563 0.990118
vt 0.500135 0.799104
vt 0.500135 0.990118
vt 1.462958 0.990118
vt 1.462958 0.871869
vt 1.462958 0.680855
vt 0.500135 0.680855
vt 1.579651 0.990118
vt 1.594432 0.881806
vt 1.878530 0.680855
vt 1.878530 0.990118
vt 0.355888 0.788202
vt 0.341238 0.680855
vt 1.540312 1.483310
vt -0.478291 1.483311
vt -0.478291 0.809576
vt 1.769287 0.809576
vt -0.478291 0.076448
vt 1.690844 0.076448
vt -0.478291 -0.483311
vt 1.329888 -0.483311
vt -0.478291 0.559866
vt -0.478291 -0.150799
vt 0.801021 -0.150799
vt 1.329888 0.559866
vt -0.699235 0.500000
vt -0.699235 0.991538
vt 0.500103 0.991538
vt 0.500103 0.500000
vt 1.238131 0.500000
vt 0.869117 0.500000
vt 0.869117 0.745769
vt 1.029695 0.770932
vt 1.010212 0.991538
vt 1.238131 0.991538
vt 0.869117 0.991538
vt 0.704032 0.719899
vt 0.684610 0.500000
vt 0.341239 0.791843
vt 0.500135 0.791843
vt 0.500135 0.879130
vt -1.064508 0.879130
vt -1.064508 0.791843
vt 0.084563 0.791843
vt 1.462958 0.791843
vt 1.462958 0.879130
vt 1.165617 0.879130
vt 0.981546 0.879130
vt 0.084563 0.680855
vt 0.084563 0.767697
vt 0.084563 0.990118
vt 0.243460 0.680855
vt 0.230108 0.778696
vt 0.500135 0.990118
vt 0.500135 0.680855
vt 1.878530 0.903276
vt 1.748646 0.893461
vt 1.761836 0.990118
vt 1.462958 0.990118
vt 1.878530 0.990118
vt -0.478291 0.842623
vt -0.478291 0.602839
vt 0.240175 0.602839
vt 0.061731 0.842623
vt 0.061731 1.483311
vt -0.167244 0.809576
vt -0.167244 0.809576
vt -0.088801 0.076448
vt -0.088801 0.076448
vt 0.272155 -0.483311
vt 0.272155 0.559866
vt -0.699235 0.008462
vt 0.500103 0.312057
vt 0.500103 0.008462
vt 1.238131 0.196405
vt 1.078224 0.221463
vt 1.097036 0.008462
vt 0.869117 0.008462
vt 0.665719 0.286105
vt 1.238131 0.008462
vt 0.500135 0.791843
vt 0.243460 0.791843
vt 0.084563 0.791843
vt 0.500135 0.879130
vt -0.167244 0.809576
vt -0.088801 0.076448
vt 2.080334 0.076448
vt 2.080334 0.809576
vt 3.027601 0.990118
vt 3.027601 0.680855
vt 1.878530 0.680855
vt 1.878530 0.903276
vt 1.761837 0.990118
vt 0.500135 0.990118
vt 0.084563 0.990118
vt 0.385866 0.961323
vt 0.396865 0.815778
vt 0.299024 0.802426
vt 0.299024 0.961323
vt 2.080334 1.483310
vt 0.061731 1.483311
vt 0.272155 -0.483311
vt 2.080334 -0.483311
vt -0.088801 0.076448
vt 0.240175 0.602839
vt 0.061730 0.842623
vt 2.080334 0.842623
vt 2.080334 0.602839
vt 1.361868 0.602839
vt 1.288904 0.602839
vt 1.102028 0.602839
vt 0.500015 0.602839
vt 0.272155 0.559866
vt 2.080334 -0.150799
vt 2.080334 0.559866
vt 1.238131 0.991538
vt 2.437469 0.991538
vt 2.437469 0.500000
vt 1.238131 0.500000
vt 1.238131 0.803595
vt 1.078224 0.778537
vt 1.097036 0.991538
vt 0.684610 0.500000
vt 0.665719 0.713895
vt 0.500103 0.687943
vt 0.500103 0.991538
vt 0.500103 0.500000
vt 0.630176 0.884927
vt 1.934717 0.884927
vt 1.934717 0.751766
vt 0.158376 0.751766
vt 0.158376 0.884927
vt -0.934717 0.751766
vt -0.934717 0.884927
vt -0.050599 0.751766
vt -0.388171 0.751766
vt 3.027601 0.990118
vt 1.878529 0.990118
vt 0.084563 0.990118
vt 0.084563 0.680855
vt 1.469570 0.610579
vt 1.587819 0.610579
vt 1.577883 0.742054
vt 1.469570 0.727273
vt 2.080334 0.842623
vt 1.540312 0.842623
vt 2.080334 1.483310
vt 1.769287 0.809576
vt 1.769286 0.809576
vt 1.540312 1.483310
vt 1.690844 0.076448
vt 2.080334 -0.483311
vt 1.329888 -0.483311
vt 2.080334 0.559866
vt 1.329888 0.559866
vt 2.437469 0.008462
vt 1.238131 0.008462
vt 0.869117 0.254231
vt 0.704031 0.280101
vt 1.010212 0.008462
vt 1.029696 0.229068
vt 0.500103 0.008462
vt 1.540312 0.842623
vt 1.361868 0.602839
vt 1.174991 0.602839
vt 0.500015 0.602839
vt 0.243459 0.680855
vt 0.230108 0.778696
vt 0.084563 0.767697
vt 1.579651 0.990118
vt 1.594432 0.881806
vt 1.462957 0.871869
s 1
usemtl concrete_base_03
f 33/17/4 5/18/5 7/19/6 39/20/7 40/20/8
f 7/19/6 9/21/9 41/22/10 39/20/7
f 9/21/9 11/23/11 42/24/12 41/22/10
f 11/25/11 1/26/13 43/27/14 42/28/12
f 21/64/21 19/65/19 54/66/22 58/67/23
f 23/19/24 21/18/21 58/68/23 59/69/25
f 25/21/26 23/19/24 59/69/25 60/70/27 61/71/28
f 27/23/29 25/21/26 61/72/28 62/73/30
f 43/27/14 1/26/13 27/25/29 62/74/30
f 40/88/8 39/88/7 41/89/10 10/90/34 8/91/35
f 40/88/8 8/91/35 6/103/36 33/104/4
f 42/105/12 12/106/37 10/90/34 41/107/10
f 38/108/38 33/109/4 6/110/36 4/111/39 53/112/39 72/113/39 71/114/39 48/115/39
f 42/116/12 43/27/14 2/117/40 12/118/37
f 54/112/22 20/111/42 22/148/43 58/149/23
f 22/150/43 24/91/44 60/151/27 59/152/25 58/153/23
f 60/151/27 24/91/44 26/90/45 61/154/28
f 26/90/45 28/155/46 62/156/30 61/154/28
f 28/157/46 2/117/40 43/27/14 62/158/30
f 34/108/48 3/65/3 5/64/5 33/166/4 38/167/38 37/168/48 36/114/48 35/169/48
f 11/23/11 9/21/9 95/21/49 96/23/50
f 19/65/19 21/64/21 101/64/51 100/65/52
f 25/21/26 27/23/29 104/23/55 103/21/56
f 21/18/21 23/19/24 102/19/57 101/18/51
f 27/25/29 1/26/13 91/26/62 104/25/55
f 5/64/5 3/65/3 92/65/61 93/64/63
f 23/19/24 25/21/26 103/21/56 102/19/57
f 9/21/9 7/19/6 94/19/64 95/21/49
f 1/26/13 11/25/11 96/25/50 91/26/62
f 7/19/6 5/18/5 93/18/63 94/19/64
usemtl soil_mud
f 17/29/15 15/30/16 50/31/1 78/32/1
f 75/33/1 86/34/1 85/35/1 82/36/1 52/37/1 49/38/1
f 82/36/1 85/35/1 51/39/1 52/37/1
f 50/31/1 51/39/1 85/35/1 84/40/1 81/41/1 78/32/1
f 81/41/1 84/40/1 85/35/1 86/34/1
f 31/75/31 17/29/15 78/32/1 77/76/1 64/77/1
f 75/33/1 74/78/1 83/79/1 66/80/1 65/81/1 86/34/1
f 77/76/1 78/32/1 81/41/1 80/82/1
f 66/80/1 83/79/1 74/78/1 63/83/1
f 65/81/1 64/77/1 77/76/1 80/82/1 81/41/1 86/34/1
f 63/119/1 16/120/1 18/121/1 65/122/1 66/123/1
f 66/123/1 83/124/1 74/125/1 63/119/1
f 75/39/1 86/34/1 85/126/1 82/127/1 52/128/1 49/129/1
f 82/127/1 85/126/1 51/130/1 52/128/1
f 75/39/1 74/125/1 83/124/1 66/123/1 65/122/1 86/34/1
f 65/122/1 18/121/1 32/159/1 64/160/1
f 81/161/1 84/162/1 85/126/1 86/34/1
f 65/122/1 64/160/1 77/163/1 80/164/1 81/161/1 86/34/1
f 50/165/1 51/130/1 85/126/1 84/162/1 81/161/1 78/81/1
f 77/163/1 78/81/1 81/161/1 80/164/1
f 17/29/15 31/75/31 106/75/53 99/29/54
f 15/30/16 17/29/15 99/29/54 98/30/58
usemtl concrete_base_02
f 44/1/1 13/2/2 3/3/3 34/4/1
f 79/5/1 35/6/1 36/7/1 73/8/1 47/9/1 46/10/1
f 37/11/1 88/12/1 73/8/1 36/7/1
f 48/13/1 47/9/1 38/14/1
f 87/15/1 45/16/1 44/1/1 34/4/1 35/6/1 79/5/1
f 45/16/1 87/15/1 79/5/1 46/10/1
f 45/42/17 46/43/17 50/44/17 15/45/16 13/46/2 44/47/17
f 50/44/17 46/43/17 47/48/18 49/49/18 52/50/17 51/51/17
f 19/3/19 29/2/20 67/52/1 76/53/1 54/54/1
f 67/52/1 68/55/1 89/56/1 76/53/1
f 55/57/1 54/54/1 69/58/1
f 70/9/1 71/13/1 72/59/1 90/60/1 57/61/1 56/62/1
f 57/61/1 90/60/1 72/59/1 53/63/1
f 69/84/32 68/85/33 67/86/33 29/46/20 31/45/31 64/87/32
f 4/92/1 14/93/1 56/94/1 57/95/1 53/63/1
f 57/95/1 90/60/1 72/96/1 53/63/1
f 48/97/1 71/7/1 70/9/1 47/10/1
f 48/97/1 47/10/1 38/98/1
f 37/99/1 88/100/1 73/101/1 36/102/1
f 70/9/1 71/7/1 72/96/1 90/60/1 57/95/1 56/94/1
f 56/131/41 14/132/41 16/133/41 63/134/41 70/135/41
f 49/136/18 47/137/18 70/135/41 63/134/41 74/138/41 75/139/41
f 55/13/1 30/93/1 20/140/1 54/141/1
f 45/5/1 87/15/1 79/16/1 46/10/1
f 55/13/1 54/141/1 69/9/1
f 87/15/1 45/5/1 44/57/1 34/142/1 35/143/1 79/16/1
f 67/144/1 68/145/1 89/146/1 76/147/1
f 69/135/32 64/134/32 32/133/47 30/132/47 55/131/47
f 38/98/1 47/10/1 73/170/1 88/171/1 37/172/1
f 38/14/1 47/9/1 73/8/1 88/12/1 37/11/1
f 69/9/1 54/141/1 76/173/1 89/174/1 68/175/1
f 69/58/1 54/54/1 76/53/1 89/56/1 68/55/1
f 13/46/2 15/45/16 98/45/58 97/46/59
f 31/45/31 29/46/20 105/46/60 106/45/53
f 3/3/3 13/2/2 97/2/59 92/3/61
f 29/2/20 19/3/19 100/3/52 105/2/60
