# Blender 4.5.9 LTS
# www.blender.org
mtllib SerwersP1_006.mtl
o SerwersP1_006
v 2.093360 0.371344 -1.921355
v 2.093360 -0.310414 -1.926686
v 2.093360 -1.668468 1.240659
v 2.093360 -0.310414 1.926686
v 2.093360 -1.668468 -1.240659
v 2.093360 0.371343 1.921356
v 2.093360 1.929367 -0.000001
v 2.093360 1.680831 0.961888
v 2.093360 1.106803 1.560336
v 2.093360 1.106803 -1.560336
v 2.093360 1.680831 -0.961890
v 1.906640 0.371344 -1.921355
v 1.906640 -0.310414 -1.926686
v 1.906640 -1.668468 1.240659
v 1.906640 -0.310414 1.926686
v 1.906640 -1.668468 -1.240659
v 1.906640 0.371343 1.921356
v 1.906640 1.929367 -0.000001
v 1.906640 1.680831 0.961888
v 1.906640 1.106803 1.560336
v 1.906640 1.106803 -1.560336
v 1.906640 1.680831 -0.961890
v -0.195621 0.371344 -1.549227
v -0.197660 -0.310414 -1.554152
v 1.014430 -1.668468 1.372092
v 1.276961 -0.310414 2.005899
v 0.064870 -1.668468 -0.920346
v 1.274921 0.371343 2.000975
v 0.539650 1.929367 0.225873
v 0.907749 1.680831 1.114542
v 1.136765 1.106803 1.667435
v -0.057464 1.106803 -1.215689
v 0.171551 1.680831 -0.662797
v -1.995449 0.371344 -0.400926
v -1.999218 -0.310414 -0.404695
v 0.240433 -1.668468 1.834956
v 0.725527 -0.310414 2.320050
v -1.514124 -1.668468 0.080399
v 0.721759 0.371343 2.316282
v -0.636846 1.929367 0.957677
v 0.043312 1.680831 1.637835
v 0.466479 1.106803 2.061001
v -1.740169 1.106803 -0.145646
v -1.317004 1.680831 0.277519
v -3.218837 0.371344 1.348731
v -3.223762 -0.310414 1.346691
v -0.297517 -1.668468 2.558781
v 0.336289 -0.310414 2.821312
v -2.589956 -1.668468 1.609222
v 0.331365 0.371343 2.819273
v -1.443737 1.929367 2.084001
v -0.555067 1.680831 2.452100
v -0.002174 1.106803 2.681116
v -2.885298 1.106803 1.486887
v -2.332406 1.680831 1.715903
v -3.679535 0.371344 3.433373
v -3.684866 -0.310414 3.433374
v -0.517522 -1.668468 3.433374
v 0.168505 -0.310414 3.433373
v -2.998839 -1.668468 3.433374
v 0.163176 0.371344 3.433374
v -1.758181 1.929367 3.433373
v -0.796292 1.680831 3.433373
v -0.197845 1.106803 3.433373
v -3.318516 1.106803 3.433374
v -2.720070 1.680831 3.433373
v -3.679535 0.371344 3.721956
v -3.684866 -0.310414 3.721957
v -0.517522 -1.668468 3.721957
v 0.168505 -0.310414 3.721956
v -2.998839 -1.668468 3.721957
v 0.163176 0.371344 3.721957
v -1.758181 1.929367 3.721956
v -0.796292 1.680831 3.721956
v -0.197845 1.106803 3.721956
v -3.318516 1.106803 3.721957
v -2.720070 1.680831 3.721956
vn -0.0000 -0.2300 0.9732
vn -0.0000 -0.5902 0.8073
vn 0.0704 -0.5835 0.8091
vn 0.0842 -0.2262 0.9704
vn -0.0000 -0.2300 -0.9732
vn -0.0000 0.2280 -0.9737
vn -0.0644 0.2284 -0.9714
vn -0.0632 -0.2303 -0.9711
vn -0.0000 -0.8734 0.4871
vn -0.0000 -1.0000 -0.0000
vn 0.0027 -0.9999 0.0130
vn 0.0436 -0.8663 0.4975
vn -0.0000 -0.5902 -0.8073
vn -0.0562 -0.5909 -0.8048
vn -0.0000 -0.8734 -0.4871
vn -0.0356 -0.8773 -0.4787
vn -0.0000 0.4509 0.8926
vn -0.0000 0.2280 0.9737
vn 0.0840 0.2240 0.9710
vn 0.0796 0.4486 0.8902
vn -0.0000 1.0000 -0.0000
vn -0.0000 0.4509 -0.8926
vn -0.0602 0.4480 -0.8920
vn -0.3111 0.2344 -0.9210
vn -0.3088 -0.2360 -0.9214
vn -0.2627 -0.6001 -0.7555
vn 0.2947 -0.5800 0.7595
vn 0.3540 -0.2240 0.9080
vn 0.0111 -0.9995 0.0292
vn 0.1831 -0.8599 0.4766
vn 0.3540 0.2217 0.9086
vn 0.3218 0.4508 0.8326
vn -0.1576 -0.8866 -0.4349
vn -0.2951 0.4503 -0.8427
vn 0.6746 -0.2240 0.7034
vn 0.6747 0.2217 0.7040
vn -0.3120 -0.8866 -0.3415
vn 0.0214 -0.9995 0.0227
vn -0.5952 0.4503 -0.6656
vn -0.6398 0.2344 -0.7319
vn -0.5318 -0.6001 -0.5975
vn -0.6379 -0.2360 -0.7331
vn 0.5629 -0.5800 0.5889
vn 0.3515 -0.8599 0.3702
vn 0.6160 0.4508 0.6460
vn -0.8699 -0.2360 -0.4332
vn -0.7200 -0.6001 -0.3485
vn 0.7454 -0.5800 0.3286
vn 0.8924 -0.2240 0.3917
vn 0.0285 -0.9995 0.0128
vn 0.4664 -0.8599 0.2075
vn 0.8928 0.2217 0.3922
vn 0.8163 0.4508 0.3611
vn -0.4190 -0.8866 -0.1961
vn -0.8046 0.4503 -0.3872
vn -0.8712 0.2344 -0.4313
vn -0.4695 -0.8811 -0.0564
vn 0.0182 -0.9998 0.0036
vn -0.8862 0.4502 -0.1097
vn -0.9641 0.2320 -0.1292
vn -0.7964 -0.5960 -0.1025
vn -0.9635 -0.2338 -0.1302
vn 0.8075 -0.5832 0.0887
vn 0.9685 -0.2260 0.1045
vn 0.4985 -0.8650 0.0568
vn 0.9690 0.2238 0.1046
vn 0.8876 0.4494 0.1007
vn 0.4871 -0.8734 -0.0000
vn 0.8073 -0.5902 -0.0000
vn 0.9732 -0.2300 -0.0000
vn 0.9737 0.2280 -0.0000
vn -0.4871 -0.8734 -0.0000
vn -0.8926 0.4509 -0.0000
vn -0.9737 0.2280 -0.0000
vn -0.8073 -0.5902 -0.0000
vn -0.9732 -0.2300 -0.0000
vn 0.8926 0.4509 -0.0000
vt 0.686815 0.505475
vt 0.686815 0.686525
vt 0.629086 0.686525
vt 0.629086 0.505475
vt 0.467967 0.485184
vt 0.467967 0.345330
vt 0.436371 0.345330
vt 0.436371 0.485184
vt 0.686815 0.218512
vt 0.686815 0.509351
vt 0.629086 0.509351
vt 0.629086 0.218512
vt 0.467967 0.686525
vt 0.467967 0.505474
vt 0.436371 0.505474
vt 0.436371 0.686525
vt 0.686815 0.089200
vt 0.686815 0.276546
vt 0.629086 0.276546
vt 0.629086 0.089200
vt 0.467967 0.490648
vt 0.467967 0.781487
vt 0.436371 0.781487
vt 0.436371 0.490648
vt 1.280762 0.009138
vt 1.280762 0.997661
vt 1.144849 0.997661
vt 1.144849 0.009138
vt 0.686815 0.345330
vt 0.686815 0.485184
vt 0.629086 0.485184
vt 0.629086 0.345330
vt 0.467967 0.723454
vt 0.467967 0.910801
vt 0.436371 0.910801
vt 0.436371 0.723454
vt 0.997824 0.994752
vt 0.997824 0.005248
vt 0.923363 0.005248
vt 0.923363 0.994752
vt 1.280762 0.997661
vt 1.144849 0.009138
vt 1.144849 0.997661
vt 0.684329 1.244838
vt 0.684329 1.382035
vt 0.452554 1.382035
vt 0.452554 1.244838
vt 0.684329 1.079969
vt 0.452554 1.079969
vt 1.082121 0.181512
vt 1.082121 0.346381
vt 0.658653 0.346381
vt 0.658653 0.181512
vt 1.082121 0.513253
vt 1.082121 0.713175
vt 0.658653 0.713175
vt 0.658653 0.513253
vt 2.204782 0.004905
vt 2.204782 0.996142
vt 0.668864 0.996142
vt 0.860484 0.004905
vt 1.082121 0.044315
vt 0.658653 0.044315
vt 0.684329 0.713175
vt 0.684329 0.913097
vt 0.452554 0.913097
vt 0.452554 0.713175
vt 0.992683 -0.997252
vt 0.002510 -0.997252
vt 0.002510 -0.323150
vt 0.992683 -0.323150
vt 1.553563 0.004905
vt 1.745183 0.996142
vt 0.235185 0.181512
vt 0.235185 0.044315
vt 0.220779 0.913097
vt 0.220779 0.713175
vt 0.002510 0.350952
vt 0.992683 0.350952
vt 0.988626 0.004905
vt 1.342694 0.996142
vt 0.220779 1.079969
vt 0.220779 1.382035
vt 0.220779 1.244838
vt 0.235185 0.346381
vt 0.235185 0.713175
vt 0.235185 0.513253
vt -0.646084 0.996142
vt -0.292017 0.004905
vt -0.010996 1.244838
vt -0.010996 1.079969
vt -0.188283 0.346381
vt -0.188283 0.181512
vt -0.188283 0.713175
vt -0.188283 0.513253
vt 1.496879 0.003518
vt 1.850946 0.994755
vt 0.572618 0.994756
vt 0.380998 0.003519
vt -0.188283 0.044315
vt -0.010996 0.913097
vt -0.010996 0.713175
vt 0.002510 1.025054
vt 0.992683 1.025054
vt 1.496878 0.994755
vt 1.850946 0.003518
vt 1.322629 0.003518
vt 1.131009 0.994755
vt -0.010996 1.382035
vt -0.242771 0.913097
vt -0.242771 0.713175
vt 0.002510 1.699156
vt 0.992683 1.699156
vt 0.684268 0.003518
vt 0.684268 0.994755
vt -0.242771 1.079969
vt -0.242771 1.382035
vt -0.242771 1.244838
vt -0.611751 0.346381
vt -0.611751 0.181512
vt -0.611751 0.713175
vt -0.611751 0.513253
vt -0.950441 0.994756
vt -0.950441 0.003519
vt -0.611751 0.044315
vt -0.674164 0.522401
vt -0.678475 0.355596
vt -0.667599 0.181608
vt -0.667633 0.044411
vt -0.296073 0.926311
vt -0.301388 0.726594
vt 0.002510 1.839543
vt 0.992683 1.839543
vt 0.484389 0.003059
vt 0.484486 0.994486
vt -0.314252 1.090174
vt -0.319118 0.923439
vt -0.344219 1.382152
vt -0.344283 1.244956
vt -0.333471 1.251319
vt -0.336361 1.086499
vt -0.668763 0.351846
vt -0.671025 0.186999
vt -0.685816 0.725896
vt -0.693536 0.526138
vt -0.950441 0.003519
vt -1.153079 0.998050
vt -1.153115 0.006896
s 1
usemtl brick_modern
f 1/1/1 10/2/2 21/3/3 12/4/4
f 6/5/5 4/6/6 15/7/7 17/8/8
f 11/9/9 7/10/10 18/11/11 22/12/12
f 9/13/13 6/14/5 17/15/8 20/16/14
f 10/17/2 11/18/9 22/19/12 21/20/3
f 7/21/10 8/22/15 19/23/16 18/24/11
f 2/29/18 1/30/1 12/31/4 13/32/19
f 8/33/15 9/34/13 20/35/14 19/36/16
f 17/44/8 15/45/7 26/46/24 28/47/25
f 20/48/14 17/44/8 28/47/25 31/49/26
f 12/50/4 21/51/3 32/52/27 23/53/28
f 22/54/12 18/55/11 29/56/29 33/57/30
f 21/51/3 22/54/12 33/57/30 32/52/27
f 13/62/19 12/50/4 23/53/28 24/63/31
f 18/64/11 19/65/16 30/66/33 29/67/29
f 19/65/16 20/48/14 31/49/26 30/66/33
f 24/63/31 23/53/28 34/74/35 35/75/36
f 29/67/29 30/66/33 41/76/37 40/77/38
f 30/66/33 31/49/26 42/82/41 41/76/37
f 28/47/25 26/46/24 37/83/40 39/84/42
f 31/49/26 28/47/25 39/84/42 42/82/41
f 23/53/28 32/52/27 43/85/43 34/74/35
f 33/57/30 29/56/29 40/86/38 44/87/44
f 32/52/27 33/57/30 44/87/44 43/85/43
f 42/82/41 39/84/42 50/90/46 53/91/47
f 34/74/35 43/85/43 54/92/48 45/93/49
f 44/87/44 40/86/38 51/94/50 55/95/51
f 43/85/43 44/87/44 55/95/51 54/92/48
f 35/75/36 34/74/35 45/93/49 46/100/52
f 40/77/38 41/76/37 52/101/54 51/102/50
f 41/76/37 42/82/41 53/91/47 52/101/54
f 39/84/42 37/83/40 48/109/56 50/90/46
f 51/102/50 52/101/54 63/110/57 62/111/58
f 52/101/54 53/91/47 64/116/61 63/110/57
f 50/90/46 48/109/56 59/117/60 61/118/62
f 53/91/47 50/90/46 61/118/62 64/116/61
f 45/93/49 54/92/48 65/119/63 56/120/64
f 55/95/51 51/94/50 62/121/58 66/122/65
f 54/92/48 55/95/51 66/122/65 65/119/63
f 46/100/52 45/93/49 56/120/64 57/125/66
f 65/119/63 66/122/65 77/126/68 76/127/69
f 57/125/66 56/120/64 67/128/70 68/129/71
f 62/111/58 63/110/57 74/130/72 73/131/10
f 63/110/57 64/116/61 75/136/75 74/137/72
f 61/118/62 59/117/60 70/138/74 72/139/76
f 64/116/61 61/118/62 72/140/76 75/141/75
f 56/120/64 65/119/63 76/142/69 67/143/70
f 66/122/65 62/121/58 73/144/10 77/145/68
usemtl concrete_bare_01
f 5/25/17 2/26/18 13/27/19 16/28/20
f 4/41/6 3/25/22 14/42/23 15/43/7
f 16/58/20 13/59/19 24/60/31 27/61/32
f 15/59/7 14/58/23 25/72/34 26/73/24
f 26/73/24 25/72/34 36/80/39 37/81/40
f 27/61/32 24/60/31 35/88/36 38/89/45
f 38/96/45 35/97/36 46/98/52 49/99/53
f 37/105/40 36/106/39 47/107/55 48/108/56
f 48/108/56 47/107/55 58/114/59 59/115/60
f 49/99/53 46/98/52 57/123/66 60/124/67
f 59/115/60 58/114/59 69/134/73 70/135/74
f 60/146/67 57/123/66 68/147/71 71/148/77
usemtl brick_pavement
f 3/37/21 5/38/21 16/39/21 14/40/21
f 14/68/21 16/69/21 27/70/21 25/71/21
f 25/71/21 27/70/21 38/78/21 36/79/21
f 36/79/21 38/78/21 49/103/21 47/104/21
f 47/104/21 49/103/21 60/112/21 58/113/21
f 58/113/21 60/112/21 71/132/21 69/133/21
