# Blender 4.5.9 LTS
# www.blender.org
mtllib Serwers_013.mtl
o Serwers_013
v 0.000000 3.386930 0.613069
v 0.000000 3.386931 3.386930
v 0.000000 -2.882610 3.386931
v 0.000000 -2.882610 0.613070
v -0.979492 -2.882610 0.613070
v -0.979492 -2.882610 3.386931
v -1.157323 -2.111717 3.386931
v -1.157323 -2.111717 0.613070
v -2.648009 -2.111717 0.613070
v -2.648009 -2.111717 3.386931
v -3.302013 -0.753663 0.613070
v -3.302013 -0.753663 3.386930
v -3.302013 0.753663 0.613069
v -3.302013 0.753663 3.386930
v -2.648009 2.111717 0.613069
v -2.648009 2.111717 3.386930
v -1.469534 3.051519 0.613069
v -1.469534 3.051519 3.386930
v 0.979492 -2.882610 0.613070
v 0.979492 -2.882610 3.386931
v 1.157323 -2.111717 3.386931
v 1.157323 -2.111717 0.613070
v 2.648009 -2.111717 0.613070
v 2.648009 -2.111717 3.386931
v 3.302013 -0.753663 0.613070
v 3.302013 -0.753663 3.386930
v 3.302013 0.753663 0.613069
v 3.302013 0.753663 3.386930
v 2.648009 2.111717 0.613069
v 2.648009 2.111717 3.386930
v 1.469534 3.051519 0.613069
v 1.469534 3.051519 3.386930
v -0.472757 3.386930 -1.590950
v -0.472757 -2.882610 -1.590950
v -1.377694 -2.882610 -1.216125
v -1.541989 -2.111717 -1.148074
v -2.919210 -2.111717 -0.577630
v -3.523434 -0.753663 -0.327360
v -3.523434 0.753663 -0.327360
v -2.919210 2.111717 -0.577630
v -1.830436 3.051519 -1.028600
v 0.432180 -2.882610 -1.965775
v 0.596476 -2.111717 -2.033826
v 1.973696 -2.111717 -2.604270
v 2.577920 -0.753663 -2.854540
v 2.577920 0.753663 -2.854540
v 1.973696 2.111717 -2.604271
v 0.884922 3.051519 -2.153301
v -1.752947 3.386930 -3.446298
v -1.752947 -2.882610 -3.446298
v -2.445569 -2.882610 -2.753709
v -2.571318 -2.111717 -2.627966
v -3.625416 -2.111717 -1.573917
v -4.087878 -0.753663 -1.111477
v -4.087878 0.753663 -1.111477
v -3.625416 2.111717 -1.573917
v -2.792089 3.051519 -2.407205
v -1.060326 -2.882610 -4.138887
v -0.934577 -2.111717 -4.264630
v 0.119522 -2.111717 -5.318679
v 0.581983 -0.753663 -5.781119
v 0.581983 0.753663 -5.781119
v 0.119522 2.111717 -5.318679
v -0.713805 3.051519 -4.485391
v -3.645686 3.386930 -4.670531
v -3.645686 -2.882610 -4.670530
v -4.020553 -2.882610 -3.765611
v -4.088612 -2.111717 -3.601319
v -4.659121 -2.111717 -2.224124
v -4.909419 -0.753663 -1.619912
v -4.909419 0.753663 -1.619912
v -4.659121 2.111717 -2.224125
v -4.208100 3.051519 -3.312878
v -3.270819 -2.882610 -5.575450
v -3.202760 -2.111717 -5.739742
v -2.632250 -2.111717 -7.116937
v -2.381953 -0.753664 -7.721149
v -2.381953 0.753662 -7.721149
v -2.632250 2.111717 -7.116937
v -3.083271 3.051519 -6.028183
v -5.862837 3.386930 -5.077281
v -5.862837 -2.882610 -5.077281
v -5.862883 -2.882610 -4.097788
v -5.862891 -2.111717 -3.919957
v -5.862961 -2.111717 -2.429271
v -5.862992 -0.753663 -1.775267
v -5.862992 0.753663 -1.775267
v -5.862961 2.111717 -2.429271
v -5.862906 3.051519 -3.607746
v -5.862791 -2.882610 -6.056772
v -5.862782 -2.111717 -6.234603
v -5.862713 -2.111717 -7.725290
v -5.862682 -0.753664 -8.379295
v -5.862682 0.753662 -8.379295
v -5.862713 2.111717 -7.725290
v -5.862768 3.051519 -6.546815
v -8.793406 3.386930 -5.077281
v -8.793406 -2.882610 -5.077281
v -8.793452 -2.882610 -4.097788
v -8.793461 -2.111717 -3.919957
v -8.793530 -2.111717 -2.429271
v -8.793562 -0.753663 -1.775267
v -8.793562 0.753663 -1.775267
v -8.793530 2.111717 -2.429271
v -8.793475 3.051519 -3.607746
v -8.793361 -2.882610 -6.056772
v -8.793351 -2.111717 -6.234603
v -8.793283 -2.111717 -7.725290
v -8.793251 -0.753664 -8.379295
v -8.793251 0.753662 -8.379295
v -8.793283 2.111717 -7.725290
v -8.793337 3.051519 -6.546815
vn -0.0000 1.0000 -0.0000
vn 0.9744 0.2248 -0.0000
vn 0.9692 0.2240 -0.1029
vn 0.9688 0.2239 -0.1060
vn 0.8960 0.4328 -0.0991
vn 0.9677 0.2254 -0.1132
vn 0.9749 0.2225 -0.0000
vn 0.9010 0.4339 -0.0000
vn 0.9677 -0.2254 -0.1132
vn 0.9749 -0.2225 -0.0000
vn 0.7717 -0.6300 -0.0874
vn 0.7818 -0.6235 -0.0000
vn 0.4200 -0.9064 -0.0452
vn 0.4339 -0.9010 -0.0000
vn -0.0150 -0.9999 0.0030
vn -0.0000 -1.0000 -0.0000
vn -0.9744 0.2248 -0.0000
vn -0.9694 0.2239 0.1002
vn -0.9691 0.2238 0.1032
vn -0.8967 0.4323 0.0955
vn -0.9010 0.4339 -0.0000
vn -0.9749 0.2225 -0.0000
vn -0.9708 0.2187 0.0991
vn -0.9749 -0.2225 -0.0000
vn -0.9708 -0.2187 0.0991
vn -0.7818 -0.6235 -0.0000
vn -0.7843 -0.6150 0.0813
vn -0.4339 -0.9010 -0.0000
vn -0.4446 -0.8945 0.0477
vn 0.8220 0.4337 -0.3690
vn 0.8863 0.2287 -0.4027
vn 0.8935 0.2247 -0.3889
vn 0.8931 0.2247 -0.3898
vn -0.8984 0.2167 0.3821
vn -0.8288 0.4339 0.3534
vn -0.8956 0.2248 0.3839
vn -0.8953 0.2248 0.3845
vn 0.7036 -0.6372 -0.3145
vn 0.3763 -0.9117 -0.1650
vn -0.4191 -0.8900 0.1795
vn -0.7287 -0.6103 0.3106
vn 0.8863 -0.2287 -0.4027
vn -0.8984 -0.2167 0.3821
vn -0.0255 -0.9996 0.0110
vn -0.0194 -0.9996 0.0199
vn -0.3185 -0.8900 0.3262
vn 0.6766 0.2247 -0.7012
vn 0.6759 0.2247 -0.7019
vn -0.6805 0.2248 0.6974
vn -0.6800 0.2248 0.6979
vn 0.6183 0.4337 -0.6555
vn 0.6647 0.2287 -0.7112
vn -0.6838 0.2167 0.6968
vn -0.6304 0.4339 0.6437
vn 0.6647 -0.2287 -0.7112
vn -0.6838 -0.2167 0.6968
vn 0.5297 -0.6372 -0.5598
vn -0.5544 -0.6103 0.5658
vn 0.2845 -0.9117 -0.2964
vn 0.3420 -0.2287 -0.9115
vn 0.2752 -0.6372 -0.7199
vn -0.2957 -0.6103 0.7349
vn -0.3651 -0.2167 0.9054
vn 0.1494 -0.9117 -0.3827
vn -0.1694 -0.8900 0.4233
vn -0.0103 -0.9996 0.0258
vn 0.3568 0.2247 -0.9067
vn 0.3559 0.2247 -0.9071
vn -0.3619 0.2248 0.9047
vn -0.3612 0.2248 0.9050
vn 0.3204 0.4337 -0.8422
vn 0.3420 0.2287 -0.9115
vn -0.3651 0.2167 0.9054
vn -0.3361 0.4339 0.8359
vn 0.0730 0.4317 -0.8991
vn 0.0805 0.2237 -0.9713
vn -0.0899 0.2188 0.9716
vn -0.0862 0.4319 0.8978
vn 0.0805 -0.2237 -0.9713
vn -0.0899 -0.2188 0.9716
vn 0.0662 -0.6272 -0.7761
vn -0.0732 -0.6154 0.7848
vn 0.0368 -0.9050 -0.4239
vn -0.0422 -0.8950 0.4442
vn -0.0026 -0.9999 0.0128
vn 0.0856 0.2236 -0.9709
vn 0.0878 0.2235 -0.9707
vn -0.0883 0.2236 0.9707
vn -0.0906 0.2236 0.9705
vn -0.0000 0.4339 -0.9010
vn -0.0000 0.2225 -0.9749
vn -0.0000 0.2225 0.9749
vn -0.0000 0.4339 0.9010
vn -0.0000 -0.2225 -0.9749
vn -0.0000 -0.2225 0.9749
vn -0.0000 -0.6235 -0.7818
vn -0.0000 -0.6235 0.7818
vn -0.0000 -0.9010 -0.4339
vn -0.0000 -0.9010 0.4339
vn -0.0000 0.2248 -0.9744
vn -0.0000 0.2248 0.9744
vt -0.258957 1.006753
vt -0.258957 1.237606
vt 0.394805 1.237606
vt 0.394805 1.006753
vt -0.258957 0.195233
vt -0.258957 0.013544
vt 0.394805 0.013544
vt 0.394805 0.195233
vt -0.258957 0.646012
vt -0.258957 0.997347
vt 0.394805 0.997347
vt 0.394806 0.646012
vt 0.329509 0.005138
vt 0.329509 0.241734
vt -0.153743 0.241734
vt -0.153743 0.005138
vt 0.329509 0.504334
vt -0.153743 0.504335
vt 0.329509 0.740930
vt -0.153743 0.740930
vt 0.329509 0.533535
vt 0.329509 0.738845
vt -0.153743 0.738845
vt -0.153743 0.533535
vt 0.329509 0.994861
vt -0.153743 0.994861
vt 1.329889 1.412638
vt 1.329889 1.589692
vt 1.139465 1.589692
vt 1.139465 1.412638
vt 0.390915 0.210513
vt 0.390915 0.008307
vt 0.870715 0.008307
vt 0.852865 0.210513
vt 1.925631 -0.180856
vt 1.925631 -0.003801
vt 1.437336 -0.003801
vt 1.437336 -0.180856
vt 0.679194 0.016340
vt 0.679194 0.188649
vt 1.270825 0.188649
vt 1.255614 0.016340
vt 1.329889 0.881473
vt 1.329889 1.058528
vt 1.139465 1.058528
vt 1.139465 0.881473
vt 1.925631 0.350309
vt 1.925631 0.527363
vt 1.437336 0.527363
vt 1.437336 0.350309
vt 1.329889 1.235583
vt 1.139465 1.235583
vt 1.565067 0.655575
vt 1.565067 0.995880
vt 1.153542 0.995880
vt 1.153542 0.655575
vt 1.925631 0.173254
vt 1.437336 0.173254
vt 2.076005 0.991921
vt 2.076005 0.680318
vt 1.388861 0.680318
vt 1.388861 0.991921
vt 1.549436 0.704418
vt 1.549436 0.881473
vt 1.249239 0.881473
vt 1.249239 0.704418
vt 0.409373 0.014675
vt 0.409373 0.225059
vt 0.811466 0.225059
vt 0.811466 0.014675
vt 1.925631 0.704418
vt 1.437336 0.704418
vt 1.714931 0.224079
vt 1.714931 0.004190
vt 1.208889 0.004190
vt 1.208889 0.224079
vt 1.213560 0.225059
vt 1.213560 0.014675
vt 0.949042 0.704418
vt 0.949042 0.527363
vt 0.702848 0.004190
vt 0.702848 0.224079
vt 1.274024 0.008307
vt 1.241042 0.210513
vt 1.769451 0.188649
vt 1.741345 0.016340
vt 0.742017 0.995880
vt 0.742017 0.655575
vt 0.701717 0.680318
vt 0.701717 0.991921
vt 0.949042 1.589692
vt 0.949042 1.412638
vt 0.949042 -0.003801
vt 0.949042 -0.180856
vt 0.949042 1.235583
vt 0.949042 0.173254
vt 0.949042 1.058528
vt 0.949042 0.350309
vt 0.949042 0.881473
vt 0.949042 0.704418
vt 0.758619 1.235583
vt 0.758619 1.058528
vt 0.460748 0.350309
vt 0.460748 0.173254
vt 0.758619 0.881473
vt 0.460748 0.527363
vt 0.648845 0.881473
vt 0.648845 0.704418
vt 1.615654 0.225059
vt 1.615654 0.014675
vt 0.460748 0.704418
vt 0.196807 0.004190
vt 0.196807 0.224079
vt 1.248938 0.210057
vt 1.281922 0.007851
vt 0.868802 0.007851
vt 0.850950 0.210057
vt 1.742298 0.017140
vt 1.770406 0.189450
vt 1.263424 0.189450
vt 1.248212 0.017140
vt 0.330492 0.995880
vt 0.330492 0.655575
vt 0.014573 0.680318
vt 0.014573 0.991921
vt 0.758619 1.589692
vt 0.758619 1.412638
vt 0.460747 -0.003801
vt 0.460747 -0.180856
vt -0.672571 0.680318
vt -0.672571 0.991921
vt 0.568196 1.589692
vt 0.568196 1.412638
vt -0.027547 -0.003801
vt -0.027547 -0.180856
vt 0.568196 1.235583
vt -0.027547 0.173254
vt 0.568196 1.058528
vt -0.027547 0.350309
vt 0.568196 0.881473
vt -0.027547 0.527363
vt 0.348648 0.881473
vt 0.348648 0.704418
vt 2.017747 0.225059
vt 2.017747 0.014675
vt -0.027547 0.704418
vt -0.309234 0.004190
vt -0.309234 0.224079
vt 0.385557 0.007851
vt 0.385554 0.210057
vt 0.668860 0.189450
vt 0.668858 0.017140
vt -0.081033 0.995880
vt -0.081033 0.655575
vt -1.370076 0.680318
vt -1.370076 0.991921
vt 0.568791 1.388283
vt 0.568791 1.565902
vt 0.070438 1.565902
vt 0.070438 1.388283
vt -0.446330 -0.003801
vt -0.446330 -0.180856
vt 0.568196 1.412638
vt -0.001891 1.412638
vt -0.001891 1.235583
vt -0.027547 0.173254
vt -0.424471 0.173254
vt -0.424471 -0.003801
vt 0.568771 1.082770
vt 0.568771 1.260389
vt 0.057779 1.260389
vt 0.057779 1.082770
vt -0.446331 0.350309
vt -0.446331 0.173254
vt 0.570943 0.927842
vt 0.570943 1.106154
vt 0.178205 1.106154
vt 0.178205 0.927842
vt -0.504195 0.527363
vt -0.504195 0.350309
vt 0.352652 0.765072
vt 0.352652 0.944560
vt -0.108777 0.944560
vt -0.108777 0.765072
vt 2.582991 0.225059
vt 2.582991 0.014675
vt -0.606946 0.704418
vt -0.606946 0.527363
vt -0.936157 0.004190
vt -0.936157 0.224079
vt -0.360208 0.037134
vt -0.360190 0.239366
vt 0.669381 -0.008627
vt 0.669381 0.163696
vt 0.034635 0.163696
vt 0.034635 -0.008627
vt -0.857511 0.995880
vt -0.857511 0.655575
s 1
usemtl concrete_base
f 6/1/1 3/2/1 4/3/1 5/4/1
f 7/5/2 6/6/2 5/7/3 8/8/4
f 10/9/1 7/10/1 8/11/1 9/12/1
f 20/1/1 19/4/1 4/3/1 3/2/1
f 21/5/17 22/8/18 19/7/19 20/6/17
f 24/9/1 23/12/1 22/11/1 21/10/1
f 8/31/4 5/32/3 35/33/32 36/34/33
f 19/39/19 22/40/18 43/41/36 42/42/37
f 9/53/1 8/54/1 36/55/1 37/56/1
f 22/59/1 23/60/1 44/61/1 43/62/1
f 5/67/1 4/68/1 34/69/1 35/70/1
f 4/73/1 19/74/1 42/75/1 34/76/1
f 35/70/1 34/69/1 50/77/1 51/78/1
f 34/76/1 42/75/1 58/81/1 50/82/1
f 36/34/33 35/33/32 51/83/47 52/84/48
f 42/42/37 43/41/36 59/85/49 58/86/50
f 37/56/1 36/55/1 52/87/1 53/88/1
f 43/62/1 44/61/1 60/89/1 59/90/1
f 51/78/1 50/77/1 66/109/1 67/110/1
f 50/82/1 58/81/1 74/112/1 66/113/1
f 52/114/48 51/115/47 67/116/67 68/117/68
f 58/118/50 59/119/49 75/120/69 74/121/70
f 53/88/1 52/87/1 68/122/1 69/123/1
f 59/90/1 60/89/1 76/124/1 75/125/1
f 75/125/1 76/124/1 92/130/1 91/131/1
f 67/110/1 66/109/1 82/144/1 83/145/1
f 66/113/1 74/112/1 90/147/1 82/148/1
f 68/117/68 67/116/67 83/149/86 84/150/87
f 74/121/70 75/120/69 91/151/88 90/152/89
f 69/123/1 68/122/1 84/153/1 85/154/1
f 91/131/1 92/130/1 108/155/1 107/156/1
f 83/145/1 82/144/1 98/185/1 99/186/1
f 82/148/1 90/147/1 106/189/1 98/190/1
f 84/150/87 83/149/86 99/191/100 100/192/100
f 90/193/89 91/194/88 107/195/101 106/196/101
f 85/154/1 84/153/1 100/197/1 101/198/1
usemtl brick_modern_01
f 9/13/5 11/14/6 12/15/7 10/16/8
f 11/14/6 13/17/9 14/18/10 12/15/7
f 13/17/9 15/19/11 16/20/12 14/18/10
f 15/21/11 17/22/13 18/23/14 16/24/12
f 17/22/13 1/25/15 2/26/16 18/23/14
f 23/13/20 24/16/21 26/15/22 25/14/23
f 25/14/23 26/15/22 28/18/24 27/17/25
f 27/17/25 28/18/24 30/20/26 29/19/27
f 29/21/27 30/24/26 32/23/28 31/22/29
f 31/22/29 32/23/28 2/26/16 1/25/15
f 11/27/6 9/28/5 37/29/30 38/30/31
f 23/35/20 25/36/23 45/37/34 44/38/35
f 17/43/13 15/44/11 40/45/38 41/46/39
f 29/47/27 31/48/29 48/49/40 47/50/41
f 13/51/9 11/27/6 38/30/31 39/52/42
f 25/36/23 27/57/25 46/58/43 45/37/34
f 1/63/15 17/64/13 41/65/39 33/66/44
f 31/48/29 1/71/15 33/72/44 48/49/40
f 15/44/11 13/51/9 39/52/42 40/45/38
f 27/57/25 29/47/27 47/50/41 46/58/43
f 48/49/40 33/72/44 49/79/45 64/80/46
f 38/30/31 37/29/30 53/91/51 54/92/52
f 44/38/35 45/37/34 61/93/53 60/94/54
f 39/52/42 38/30/31 54/92/52 55/95/55
f 45/37/34 46/58/43 62/96/56 61/93/53
f 40/45/38 39/52/42 55/95/55 56/97/57
f 46/58/43 47/50/41 63/98/58 62/96/56
f 41/46/39 40/45/38 56/97/57 57/99/59
f 47/50/41 48/49/40 64/80/46 63/98/58
f 33/66/44 41/65/39 57/99/59 49/100/45
f 56/97/57 55/95/55 71/101/60 72/102/61
f 62/96/56 63/98/58 79/103/62 78/104/63
f 57/99/59 56/97/57 72/102/61 73/105/64
f 63/98/58 64/80/46 80/106/65 79/103/62
f 49/100/45 57/99/59 73/107/64 65/108/66
f 64/80/46 49/79/45 65/111/66 80/106/65
f 54/92/52 53/91/51 69/126/71 70/127/72
f 60/94/54 61/93/53 77/128/73 76/129/74
f 55/95/55 54/92/52 70/127/72 71/101/60
f 61/93/53 62/96/56 78/104/63 77/128/73
f 70/127/72 69/126/71 85/132/75 86/133/76
f 76/129/74 77/128/73 93/134/77 92/135/78
f 71/101/60 70/127/72 86/133/76 87/136/79
f 77/128/73 78/104/63 94/137/80 93/134/77
f 72/102/61 71/101/60 87/136/79 88/138/81
f 78/104/63 79/103/62 95/139/82 94/137/80
f 73/105/64 72/102/61 88/138/81 89/140/83
f 79/103/62 80/106/65 96/141/84 95/139/82
f 65/108/66 73/107/64 89/142/83 81/143/85
f 80/106/65 65/111/66 81/146/85 96/141/84
f 86/157/76 85/158/75 101/159/90 102/160/91
f 92/135/78 93/134/77 109/161/92 108/162/93
f 87/136/79 86/163/76 102/164/91 103/165/94
f 93/134/77 94/166/80 110/167/95 109/168/92
f 88/169/81 87/170/79 103/171/94 104/172/96
f 94/137/80 95/139/82 111/173/97 110/174/95
f 89/175/83 88/176/81 104/177/96 105/178/98
f 95/139/82 96/141/84 112/179/99 111/180/97
f 81/181/85 89/182/83 105/183/98 97/184/16
f 96/141/84 81/146/85 97/187/16 112/188/99
