# Blender 4.5.9 LTS
# www.blender.org
mtllib Serwers01_009.mtl
o Serwers01_009
v 2.185812 0.000000 11.000000
v 3.869725 0.000000 11.000000
v 2.185812 1.000000 -1.000000
v 3.869725 1.000000 -1.000000
v 3.929231 0.374264 11.000000
v 3.929231 1.374264 -1.000000
v 4.157303 0.374264 11.000000
v 4.157303 1.374264 -1.000000
v 4.157303 0.621446 11.000000
v 4.157303 1.621446 -1.000000
v 4.239360 0.621446 11.000000
v 4.239360 1.621446 -1.000000
v 1.851272 -0.116367 11.000000
v 1.851272 0.883633 -1.000000
v 1.284489 -0.282085 11.000000
v 1.284489 0.717915 -1.000000
v 0.000000 -0.282085 11.000000
v 0.000000 0.717915 -1.000000
v 4.511393 1.513627 11.000000
v 4.511393 2.513628 -1.000000
v 4.482758 2.769073 11.000000
v 4.482758 3.769073 -1.000000
v 4.210725 3.742664 11.000000
v 4.210725 4.742664 -1.000000
v 3.611235 4.693522 11.000000
v 3.611235 5.693522 -0.999999
v 2.565410 5.468541 11.000461
v 2.565410 6.468541 -0.999539
v 1.422453 5.906868 11.000461
v 1.422453 6.906868 -0.999539
v 0.359149 5.988066 11.000461
v 0.359149 6.988066 -0.999539
v 0.000000 6.003314 10.987698
v 0.000000 7.003314 -1.012303
v 2.299661 -0.112426 11.500820
v 4.071281 -0.112426 11.500820
v 4.133887 0.281331 11.500820
v 4.373837 0.281331 11.500820
v 4.373837 0.541388 11.500820
v 4.460169 0.541388 11.500820
v 1.947696 -0.234854 11.500820
v 1.351393 -0.409204 11.500820
v -0.000000 -0.409204 11.500820
v 4.746370 1.480039 11.500820
v 4.716244 2.800875 11.500820
v 4.430042 3.825176 11.500820
v 3.799328 4.825561 11.500820
v 2.699031 5.640946 11.501306
v 1.496542 6.102103 11.501306
v 0.377856 6.187531 11.501306
v -0.000000 6.203573 11.487878
v -2.185812 0.000000 11.000000
v -3.869725 0.000000 11.000000
v -2.185812 1.000000 -1.000000
v -3.869725 1.000000 -1.000000
v -3.929231 0.374264 11.000000
v -3.929231 1.374264 -1.000000
v -4.157303 0.374264 11.000000
v -4.157303 1.374264 -1.000000
v -4.157303 0.621446 11.000000
v -4.157303 1.621446 -1.000000
v -4.239360 0.621446 11.000000
v -4.239360 1.621446 -1.000000
v -1.851272 -0.116367 11.000000
v -1.851272 0.883633 -1.000000
v -1.284489 -0.282085 11.000000
v -1.284489 0.717915 -1.000000
v -4.511393 1.513627 11.000000
v -4.511393 2.513628 -1.000000
v -4.482758 2.769073 11.000000
v -4.482758 3.769073 -1.000000
v -4.210725 3.742664 11.000000
v -4.210725 4.742664 -1.000000
v -3.611235 4.693522 11.000000
v -3.611235 5.693522 -0.999999
v -2.565410 5.468541 11.000461
v -2.565410 6.468541 -0.999539
v -1.422453 5.906868 11.000461
v -1.422453 6.906868 -0.999539
v -0.359149 5.988066 11.000461
v -0.359149 6.988066 -0.999539
v -2.299661 -0.112426 11.500820
v -4.071281 -0.112426 11.500820
v -4.133887 0.281331 11.500820
v -4.373837 0.281331 11.500820
v -4.373837 0.541388 11.500820
v -4.460169 0.541388 11.500820
v -1.947696 -0.234854 11.500820
v -1.351393 -0.409204 11.500820
v -4.746370 1.480039 11.500820
v -4.716244 2.800875 11.500820
v -4.430042 3.825176 11.500820
v -3.799328 4.825561 11.500820
v -2.699031 5.640946 11.501306
v -1.496542 6.102103 11.501306
v -0.377856 6.187531 11.501306
v 2.333738 0.853923 -1.417319
v 4.131610 0.853923 -1.417319
v 4.195144 1.253515 -1.417319
v 4.438650 1.253515 -1.417319
v 4.438650 1.517425 -1.417319
v 4.526260 1.517425 -1.417319
v 1.976557 0.729681 -1.417319
v 1.371418 0.552748 -1.417319
v -0.000000 0.552748 -1.417319
v 4.816703 2.469986 -1.417319
v 4.786130 3.810394 -1.417319
v 4.495687 4.849874 -1.417319
v 3.855627 5.865081 -1.417319
v 2.739025 6.692550 -1.416827
v 1.518718 7.160540 -1.416827
v 0.383455 7.247233 -1.416827
v -0.000000 7.263514 -1.430455
v -2.333738 0.853923 -1.417319
v -4.131610 0.853923 -1.417319
v -4.195144 1.253515 -1.417319
v -4.438650 1.253515 -1.417319
v -4.438650 1.517425 -1.417319
v -4.526260 1.517425 -1.417319
v -1.976557 0.729681 -1.417319
v -1.371418 0.552748 -1.417319
v -4.816703 2.469986 -1.417319
v -4.786130 3.810394 -1.417319
v -4.495687 4.849874 -1.417319
v -3.855627 5.865081 -1.417319
v -2.739025 6.692550 -1.416827
v -1.518718 7.160540 -1.416827
v -0.383455 7.247233 -1.416827
vn -0.1736 0.9705 0.1671
vn -0.5900 0.7693 0.2452
vn -0.5806 0.7612 -0.2890
vn -0.1762 0.9729 -0.1501
vn -0.6627 0.7180 0.2128
vn -0.6463 0.7283 -0.2277
vn -0.6405 0.7278 0.2452
vn -0.6271 0.7215 -0.2936
vn -0.7198 0.6605 0.2139
vn -0.7000 0.6750 -0.2333
vn -0.5268 0.8219 0.2169
vn -0.5138 0.8247 -0.2365
vn -0.2994 0.9391 -0.1685
vn -0.2989 0.9377 0.1772
vn -0.1342 0.9779 -0.1602
vn -0.1349 0.9756 0.1733
vn -0.0000 0.9892 -0.1463
vn -0.0000 0.9863 0.1651
vn -0.9635 0.1365 0.2302
vn -0.9400 0.1247 -0.3176
vn -0.9662 -0.1406 0.2162
vn -0.9350 -0.1427 -0.3248
vn -0.8957 -0.3947 0.2048
vn -0.8594 -0.3867 -0.3344
vn -0.7201 -0.6676 0.1893
vn -0.6839 -0.6451 -0.3408
vn -0.4733 -0.8645 0.1692
vn -0.4492 -0.8293 -0.3326
vn -0.2150 -0.9638 0.1578
vn -0.2032 -0.9227 -0.3275
vn -0.0613 -0.9866 0.1510
vn -0.0506 -0.9484 -0.3131
vn -0.0000 -0.9896 0.1441
vn -0.0000 -0.9470 -0.3212
vn -0.5844 0.7231 0.3683
vn -0.6047 0.7007 0.3786
vn -0.8952 0.1232 0.4283
vn -0.8951 -0.1328 0.4257
vn -0.2071 -0.9008 0.3818
vn -0.0618 -0.9265 0.3713
vn -0.0000 0.9693 0.2460
vn -0.1445 0.9543 0.2615
vn -0.1425 0.9583 0.2475
vn -0.6276 0.6666 0.4022
vn -0.5369 0.7625 0.3609
vn -0.6812 0.6083 0.4074
vn -0.6711 -0.6149 0.4142
vn -0.4460 -0.8030 0.3954
vn -0.2946 0.9157 0.2734
vn -0.8290 -0.3656 0.4233
vn -0.0000 -0.9284 0.3717
vn 0.1736 0.9705 0.1671
vn 0.1762 0.9729 -0.1501
vn 0.5806 0.7612 -0.2890
vn 0.5900 0.7693 0.2452
vn 0.6463 0.7283 -0.2277
vn 0.6627 0.7180 0.2128
vn 0.6271 0.7215 -0.2936
vn 0.6405 0.7278 0.2452
vn 0.7000 0.6750 -0.2333
vn 0.7198 0.6605 0.2139
vn 0.5138 0.8247 -0.2365
vn 0.5268 0.8219 0.2169
vn 0.2989 0.9377 0.1772
vn 0.2994 0.9391 -0.1685
vn 0.1349 0.9756 0.1733
vn 0.1342 0.9779 -0.1602
vn 0.9400 0.1247 -0.3176
vn 0.9635 0.1365 0.2302
vn 0.9350 -0.1427 -0.3248
vn 0.9662 -0.1406 0.2162
vn 0.8594 -0.3867 -0.3344
vn 0.8957 -0.3947 0.2048
vn 0.6839 -0.6451 -0.3408
vn 0.7201 -0.6676 0.1893
vn 0.4492 -0.8293 -0.3326
vn 0.4733 -0.8645 0.1692
vn 0.2032 -0.9227 -0.3275
vn 0.2150 -0.9638 0.1578
vn 0.0506 -0.9484 -0.3131
vn 0.0613 -0.9866 0.1510
vn 0.6047 0.7007 0.3786
vn 0.5844 0.7231 0.3683
vn 0.8951 -0.1328 0.4257
vn 0.8952 0.1232 0.4283
vn 0.0618 -0.9265 0.3713
vn 0.2071 -0.9008 0.3818
vn 0.1445 0.9543 0.2615
vn 0.6276 0.6666 0.4022
vn 0.1425 0.9583 0.2475
vn 0.6812 0.6083 0.4074
vn 0.5369 0.7625 0.3609
vn 0.4460 -0.8030 0.3954
vn 0.6711 -0.6149 0.4142
vn 0.2946 0.9157 0.2734
vn 0.8290 -0.3656 0.4233
vn 0.6200 0.5358 -0.5731
vn 0.4959 0.7031 -0.5096
vn -0.7967 0.1097 -0.5943
vn -0.5633 0.6231 -0.5426
vn 0.5633 0.6231 -0.5426
vn 0.7967 0.1097 -0.5943
vn -0.4959 0.7031 -0.5096
vn -0.1898 -0.8189 -0.5416
vn -0.4047 -0.7249 -0.5575
vn 0.4047 -0.7249 -0.5575
vn 0.1898 -0.8189 -0.5416
vn -0.7976 -0.1182 -0.5915
vn 0.7976 -0.1182 -0.5915
vn -0.5734 0.5915 -0.5669
vn -0.1277 0.9211 -0.3677
vn -0.0410 -0.8477 -0.5289
vn 0.0410 -0.8477 -0.5289
vn 0.1277 0.9211 -0.3677
vn 0.5734 0.5915 -0.5669
vn -0.2807 0.8700 -0.4052
vn -0.4574 0.7329 -0.5035
vn -0.7398 -0.3256 -0.5888
vn 0.7398 -0.3256 -0.5888
vn 0.2807 0.8700 -0.4052
vn -0.0000 -0.8490 -0.5283
vn 0.4574 0.7329 -0.5035
vn -0.1413 0.9101 -0.3896
vn -0.6200 0.5358 -0.5731
vn -0.6026 -0.5494 -0.5788
vn 0.6026 -0.5494 -0.5788
vn 0.1413 0.9101 -0.3896
vn -0.0000 0.9298 -0.3680
vt 3.995035 0.122410
vt 3.995035 0.683603
vt -0.004168 0.683603
vt -0.004168 0.122411
vt 3.995036 0.809899
vt -0.004168 0.809900
vt 3.995034 0.885907
vt -0.004168 0.885908
vt 3.995035 0.968285
vt -0.004168 0.968286
vt 3.995035 0.995632
vt -0.004168 0.995633
vt 3.995034 0.122410
vt -0.004168 0.004367
vt 3.995034 0.004366
vt 6.071139 0.991128
vt -0.295877 0.991128
vt -0.295877 0.690402
vt 6.071139 0.690402
vt -0.295877 0.008872
vt 6.071139 0.008872
vt 0.001547 0.000060
vt 1.451498 0.000060
vt 1.451499 0.112762
vt 0.001547 0.112762
vt 1.451498 0.264496
vt 0.001547 0.264496
vt 1.451498 0.386640
vt 0.001547 0.386640
vt 1.451499 0.522460
vt 0.001547 0.522460
vt 1.451554 0.679742
vt 0.001603 0.679742
vt 1.451554 0.827653
vt 0.001603 0.827652
vt 1.451554 0.956505
vt 0.001603 0.956505
vt 1.450012 0.999940
vt 0.000060 0.999940
vt 3.995035 0.968285
vt 1.451498 0.112762
vt 1.451554 0.827652
vt 6.071139 0.690402
vt 3.995035 0.809899
vt 1.451498 0.522460
s 1
usemtl bricks
f 12/22/12 11/23/11 19/24/19 20/25/20
f 20/25/20 19/24/19 21/26/21 22/27/22
f 22/27/22 21/26/21 23/28/23 24/29/24
f 24/29/24 23/28/23 25/30/25 26/31/26
f 26/31/26 25/30/25 27/32/27 28/33/28
f 28/33/28 27/32/27 29/34/29 30/35/30
f 30/35/30 29/34/29 31/36/31 32/37/32
f 32/37/32 31/36/31 33/38/33 34/39/34
f 21/26/21 19/24/19 44/41/37 45/26/38
f 31/36/31 29/34/29 49/42/39 50/36/40
f 27/32/27 25/30/25 47/45/47 48/32/48
f 23/28/23 21/26/21 45/26/38 46/28/50
f 33/38/33 31/36/31 50/36/40 51/38/51
f 19/24/19 11/23/11 40/23/36 44/41/37
f 29/34/29 27/32/27 48/32/48 49/42/39
f 25/30/25 23/28/23 46/28/50 47/45/47
f 63/22/62 69/25/68 68/24/69 62/23/63
f 69/25/68 71/27/70 70/26/71 68/24/69
f 71/27/70 73/29/72 72/28/73 70/26/71
f 73/29/72 75/31/74 74/30/75 72/28/73
f 75/31/74 77/33/76 76/32/77 74/30/75
f 77/33/76 79/35/78 78/34/79 76/32/77
f 79/35/78 81/37/80 80/36/81 78/34/79
f 81/37/80 34/39/34 33/38/33 80/36/81
f 70/26/71 91/26/84 90/41/85 68/24/69
f 80/36/81 96/36/86 95/42/87 78/34/79
f 76/32/77 94/32/93 93/45/94 74/30/75
f 72/28/73 92/28/96 91/26/84 70/26/71
f 33/38/33 51/38/51 96/36/86 80/36/81
f 68/24/69 90/41/85 87/23/82 62/23/63
f 78/34/79 95/42/87 94/32/93 76/32/77
f 74/30/75 93/45/94 92/28/96 72/28/73
f 12/22/12 20/25/20 106/25/99 102/22/100
f 69/25/68 63/22/62 119/22/101 122/25/102
f 28/33/28 30/35/30 111/35/104 110/33/105
f 79/35/78 77/33/76 126/33/106 127/35/107
f 20/25/20 22/27/22 107/27/108 106/25/99
f 71/27/70 69/25/68 122/25/102 123/27/109
f 30/35/30 32/37/32 112/37/112 111/35/104
f 81/37/80 79/35/78 127/35/107 128/37/113
f 22/27/22 24/29/24 108/29/118 107/27/108
f 73/29/72 71/27/70 123/27/109 124/29/119
f 34/39/34 81/37/80 128/37/113 113/39/121
f 32/37/32 34/39/34 113/39/121 112/37/112
f 24/29/24 26/31/26 109/31/125 108/29/118
f 75/31/74 73/29/72 124/29/119 125/31/126
f 26/31/26 28/33/28 110/33/105 109/31/125
f 77/33/76 75/31/74 125/31/126 126/33/106
usemtl concrete_base_02
f 1/1/1 2/2/2 4/3/3 3/4/4
f 4/3/3 2/2/2 5/5/5 6/6/6
f 6/6/6 5/5/5 7/7/7 8/8/8
f 8/8/8 7/7/7 9/9/9 10/10/10
f 10/10/10 9/9/9 11/11/11 12/12/12
f 1/13/1 3/4/4 14/14/13 13/15/14
f 11/11/11 9/9/9 39/40/35 40/11/36
f 2/2/2 1/1/1 35/1/43 36/2/44
f 7/7/7 5/5/5 37/44/45 38/7/46
f 1/13/1 13/15/14 41/15/49 35/13/43
f 9/9/9 7/7/7 38/7/46 39/40/35
f 5/5/5 2/2/2 36/2/44 37/44/45
f 52/1/52 54/4/53 55/3/54 53/2/55
f 55/3/54 57/6/56 56/5/57 53/2/55
f 57/6/56 59/8/58 58/7/59 56/5/57
f 59/8/58 61/10/60 60/9/61 58/7/59
f 61/10/60 63/12/62 62/11/63 60/9/61
f 52/13/52 64/15/64 65/14/65 54/4/53
f 62/11/63 87/11/82 86/40/83 60/9/61
f 53/2/55 83/2/89 82/1/90 52/1/52
f 58/7/59 85/7/91 84/44/92 56/5/57
f 52/13/52 82/13/90 88/15/95 64/15/64
f 60/9/61 86/40/83 85/7/91 58/7/59
f 56/5/57 84/44/92 83/2/89 53/2/55
f 61/10/60 59/8/58 117/8/97 118/10/98
f 10/10/10 12/12/12 102/12/100 101/10/103
f 63/12/62 61/10/60 118/10/98 119/12/101
f 3/4/4 4/3/3 98/3/110 97/4/111
f 55/3/54 54/4/53 114/4/114 115/3/115
f 14/14/13 3/4/4 97/4/111 103/14/116
f 4/3/3 6/6/6 99/6/117 98/3/110
f 54/4/53 65/14/65 120/14/120 114/4/114
f 57/6/56 55/3/54 115/3/115 116/6/122
f 6/6/6 8/8/8 100/8/124 99/6/117
f 59/8/58 57/6/56 116/6/122 117/8/97
f 8/8/8 10/10/10 101/10/103 100/8/124
usemtl concrete_dirty
f 13/16/14 14/17/13 16/18/15 15/19/16
f 15/19/16 16/18/15 18/20/17 17/21/18
f 15/19/16 17/21/18 43/21/41 42/43/42
f 13/16/14 15/19/16 42/43/42 41/16/49
f 64/16/64 66/19/66 67/18/67 65/17/65
f 66/19/66 17/21/18 18/20/17 67/18/67
f 66/19/66 89/43/88 43/21/41 17/21/18
f 64/16/64 88/16/95 89/43/88 66/19/66
f 16/18/15 14/17/13 103/17/116 104/18/123
f 65/17/65 67/18/67 121/18/127 120/17/120
f 18/20/17 16/18/15 104/18/123 105/20/128
f 67/18/67 18/20/17 105/20/128 121/18/127
