# Blender 4.5.9 LTS
# www.blender.org
mtllib Serwers02_009.mtl
o Serwers02_009
v 0.000000 5.680936 -0.684098
v 0.483726 5.680936 -0.483732
v 0.684091 5.680936 -0.000007
v 0.483726 5.680936 0.483719
v 0.000000 5.680936 0.684084
v -0.483726 5.680936 0.483719
v -0.684091 5.680936 -0.000007
v -0.483726 5.680936 -0.483732
v -0.000000 3.254395 -4.248927
v -0.000000 3.254395 4.248926
v -1.862715 -2.636669 -4.248927
v -1.862715 -2.636668 4.248927
v -2.455375 -2.122127 -4.248927
v -2.455375 -2.122126 4.248927
v -3.215858 -0.456902 -4.248927
v -3.215858 -0.456902 4.248927
v -2.955328 1.355121 -4.248927
v -2.955328 1.355122 4.248927
v -1.756503 2.738639 -4.248927
v -1.756503 2.738640 4.248927
v -0.999720 -2.636669 -4.248926
v -0.999720 -2.636668 4.248926
v -0.999720 -2.880242 -4.248926
v -0.999720 -2.880242 4.248926
v -0.000000 -2.880242 -4.248926
v -0.000000 -2.880242 4.248926
v 1.862715 -2.636669 -4.248927
v 1.862715 -2.636668 4.248927
v 2.455374 -2.122127 -4.248927
v 2.455374 -2.122126 4.248927
v 3.215857 -0.456902 -4.248927
v 3.215857 -0.456902 4.248927
v 2.955327 1.355121 -4.248927
v 2.955327 1.355122 4.248927
v 1.756502 2.738639 -4.248927
v 1.756502 2.738640 4.248927
v 0.999720 -2.636669 -4.248926
v 0.999719 -2.636668 4.248926
v 0.999720 -2.880242 -4.248926
v 0.999719 -2.880242 4.248926
v 0.000000 3.254395 0.684085
v 0.483726 3.112360 0.483719
v -0.483726 3.112360 0.483719
v 0.684091 3.053528 -0.000006
v -0.684091 3.053528 -0.000006
v 0.483726 3.112360 -0.483732
v 0.000000 3.254395 -0.684098
v -0.483726 3.112360 -0.483732
v -0.000000 3.521715 4.749735
v -1.985334 -2.757147 4.749735
v -2.617008 -2.208733 4.749735
v -3.427551 -0.433890 4.749735
v -3.149872 1.497415 4.749735
v -1.872130 2.972008 4.749735
v -1.065529 -2.757147 4.749735
v -1.065529 -3.016754 4.749735
v -0.000000 -3.016754 4.749735
v 1.985334 -2.757147 4.749735
v 2.617007 -2.208733 4.749735
v 3.427551 -0.433890 4.749735
v 3.149871 1.497415 4.749735
v 1.872130 2.972008 4.749735
v 1.065529 -2.757147 4.749735
v 1.065529 -3.016754 4.749735
v -0.000000 3.490638 -4.596705
v -1.971079 -2.743141 -4.596705
v -2.598217 -2.198665 -4.596705
v -3.402941 -0.436566 -4.596705
v -3.127255 1.480873 -4.596705
v -1.858688 2.944877 -4.596705
v -1.057879 -2.743141 -4.596705
v -1.057879 -3.000885 -4.596705
v -0.000000 -3.000885 -4.596705
v 1.971079 -2.743141 -4.596705
v 2.598217 -2.198665 -4.596705
v 3.402941 -0.436566 -4.596705
v 3.127255 1.480873 -4.596705
v 1.858687 2.944877 -4.596705
v 1.057879 -2.743141 -4.596705
v 1.057879 -3.000885 -4.596705
vn 0.6879 0.7098 -0.1517
vn 0.3234 0.9266 -0.1917
vn 0.3298 0.9316 0.1530
vn 0.6924 0.7111 0.1224
vn 0.7785 0.5878 -0.2202
vn 0.7860 0.5924 0.1767
vn 0.9571 0.1493 -0.2483
vn 0.9684 0.1488 0.2001
vn 0.8777 -0.3896 -0.2790
vn 0.8895 -0.3968 0.2266
vn 0.5204 -0.7989 -0.3017
vn 0.5282 -0.8126 0.2463
vn -0.0000 -0.9508 -0.3099
vn -0.0000 -1.0000 -0.0000
vn 0.2817 -0.9595 -0.0000
vn -0.0000 -0.9673 0.2536
vn -0.0000 0.9861 -0.1662
vn 0.7199 0.6693 -0.1838
vn 0.7186 0.6800 0.1453
vn -0.0000 0.9912 0.1327
vn -0.6879 0.7098 -0.1517
vn -0.6924 0.7111 0.1224
vn -0.3298 0.9316 0.1530
vn -0.3234 0.9266 -0.1917
vn -0.7860 0.5924 0.1767
vn -0.7785 0.5878 -0.2202
vn -0.9684 0.1488 0.2001
vn -0.9571 0.1493 -0.2483
vn -0.8895 -0.3968 0.2266
vn -0.8777 -0.3896 -0.2790
vn -0.5282 -0.8126 0.2463
vn -0.5204 -0.7989 -0.3017
vn -0.2817 -0.9595 -0.0000
vn -0.7186 0.6800 0.1453
vn -0.7199 0.6693 -0.1838
vn 0.7430 -0.0000 0.6693
vn 0.7071 -0.0000 0.7071
vn 1.0000 -0.0000 -0.0000
vn -1.0000 -0.0000 -0.0000
vn -0.7071 -0.0000 0.7071
vn -0.7430 -0.0000 0.6693
vn 0.7071 -0.0000 -0.7071
vn 0.7430 -0.0000 -0.6693
vn -0.7430 -0.0000 -0.6693
vn -0.7071 -0.0000 -0.7071
vn -0.0000 -0.0000 1.0000
vn -0.0000 -0.0000 -1.0000
vn -0.0000 -0.8822 0.4709
vn 0.4741 -0.7511 0.4595
vn -0.7566 0.5581 0.3407
vn -0.9167 0.1170 0.3821
vn 0.3586 0.8838 0.3004
vn 0.7114 0.6563 0.2514
vn -0.0000 0.9648 0.2630
vn -0.6541 0.7036 0.2777
vn 0.8170 -0.3872 0.4274
vn 0.9167 0.1170 0.3821
vn -0.4741 -0.7511 0.4595
vn -0.7114 0.6563 0.2514
vn -0.3586 0.8838 0.3004
vn 0.7566 0.5581 0.3407
vn -0.8170 -0.3872 0.4274
vn 0.6541 0.7036 0.2777
vn -0.7063 0.6352 -0.3126
vn -0.6338 0.6918 -0.3460
vn 0.8780 0.1093 -0.4659
vn 0.7733 -0.3689 -0.5157
vn -0.0000 -0.8272 -0.5619
vn -0.4448 -0.7069 -0.5499
vn -0.3539 0.8577 -0.3729
vn 0.3539 0.8577 -0.3729
vn 0.7315 0.5381 -0.4189
vn -0.7733 -0.3689 -0.5157
vn -0.8780 0.1093 -0.4659
vn -0.0000 0.9448 -0.3277
vn 0.6338 0.6918 -0.3460
vn 0.4448 -0.7069 -0.5499
vn -0.7315 0.5381 -0.4189
vn 0.7063 0.6352 -0.3126
vt -1.064508 0.680855
vt -1.064508 0.990118
vt 3.027601 0.990118
vt 3.027601 0.680855
vt -0.478291 0.602839
vt -0.478291 0.842623
vt 2.080334 0.842623
vt 2.080334 0.602839
vt -0.478291 1.483311
vt -0.478291 0.809576
vt 2.080334 0.809576
vt 2.080334 1.483310
vt -0.478291 0.076448
vt 2.080334 0.076448
vt -0.478291 -0.483311
vt 2.080334 -0.483311
vt -0.478291 0.559866
vt -0.478291 -0.150799
vt 0.595046 -0.150799
vt 0.655374 0.044912
vt 0.801019 0.125978
vt 0.946665 0.044912
vt 1.006993 -0.150799
vt 2.080334 -0.150799
vt 2.080334 0.559866
vt -0.699235 0.500000
vt -0.699235 0.991538
vt 2.437469 0.991538
vt 2.437469 0.500000
vt -1.064508 0.791843
vt 3.027601 0.791843
vt 3.027601 0.879130
vt -1.064508 0.879130
vt 3.027601 0.990118
vt 2.080334 0.842623
vt 2.080334 1.483310
vt 2.080334 -0.483311
vt 2.080334 0.559866
vt 0.946665 0.044912
vt 0.801020 0.125978
vt 0.655374 0.044912
vt 2.437469 0.008462
vt -0.699235 0.008462
vt 3.027601 0.879130
vt 3.027601 0.791843
vt 0.125000 0.594868
vt 0.125000 1.533550
vt 0.250000 1.533550
vt 0.250000 0.573368
vt 0.750000 0.573368
vt 0.750000 1.533551
vt 0.875000 1.533550
vt 0.875000 0.594868
vt 0.250000 1.533551
vt 0.375000 1.533551
vt 0.375000 0.594868
vt 0.625000 0.594868
vt 0.625000 1.533550
vt 0.750000 1.533550
vt 0.000000 0.646775
vt 0.000000 1.533550
vt 0.125000 1.533550
vt 0.500000 0.646775
vt 0.500000 1.533550
vt 0.625000 1.533550
vt 0.875000 1.533549
vt 1.000000 1.533548
vt 1.000000 0.646775
vt 0.375000 1.533550
vt 0.500000 1.533550
s 1
usemtl concrete_base_03
f 11/5/2 13/6/5 14/7/6 12/8/3
f 13/9/5 15/10/7 16/11/8 14/12/6
f 15/10/7 17/13/9 18/14/10 16/11/8
f 17/13/9 19/15/11 20/16/12 18/14/10
f 19/17/11 9/18/13 47/19/14 48/20/15 45/21/15 43/22/15 41/23/14 10/24/16 20/25/12
f 27/5/24 28/8/23 30/35/25 29/6/26
f 29/9/26 30/36/25 32/11/27 31/10/28
f 31/10/28 32/11/27 34/14/29 33/13/30
f 33/13/30 34/14/29 36/37/31 35/15/32
f 35/17/32 36/38/31 10/24/16 41/23/14 42/39/33 44/40/33 46/41/33 47/19/14 9/18/13
f 48/46/36 8/47/37 7/48/38 45/49/38
f 44/50/39 3/51/39 2/52/40 46/53/41
f 45/49/38 7/54/38 6/55/42 43/56/43
f 42/57/44 4/58/45 3/59/39 44/50/39
f 47/60/46 1/61/46 8/62/37 48/46/36
f 41/63/47 5/64/47 4/65/45 42/57/44
f 46/53/41 2/66/40 1/67/46 47/68/46
f 43/56/43 6/69/42 5/70/47 41/63/47
f 20/25/12 10/24/16 49/24/48 54/25/49
f 32/11/27 30/36/25 59/36/50 60/11/51
f 16/11/8 18/14/10 53/14/56 52/11/57
f 10/24/16 36/38/31 62/38/58 49/24/48
f 12/8/3 14/7/6 51/7/61 50/8/52
f 34/14/29 32/11/27 60/11/51 61/14/62
f 18/14/10 20/16/12 54/16/49 53/14/56
f 30/35/25 28/8/23 58/8/60 59/35/50
f 14/12/6 16/11/8 52/11/57 51/12/61
f 36/37/31 34/14/29 61/14/62 62/37/58
f 17/13/9 15/10/7 68/10/66 69/13/67
f 35/17/32 9/18/13 65/18/68 78/17/69
f 13/6/5 11/5/2 66/5/71 67/6/72
f 31/10/28 33/13/30 77/13/73 76/10/74
f 19/15/11 17/13/9 69/13/67 70/15/77
f 27/5/24 29/6/26 75/6/78 74/5/70
f 15/10/7 13/9/5 67/9/72 68/10/66
f 33/13/30 35/15/32 78/15/69 77/13/73
f 9/18/13 19/17/11 70/17/77 65/18/68
f 29/9/26 31/10/28 76/10/74 75/9/78
usemtl soil_mud
f 25/26/17 23/27/18 24/28/19 26/29/20
f 25/26/17 26/29/20 40/42/34 39/43/35
f 40/42/34 26/29/20 57/29/54 64/42/55
f 26/29/20 24/28/19 56/28/63 57/29/54
f 23/27/18 25/26/17 73/26/75 72/27/76
f 25/26/17 39/43/35 80/43/65 73/26/75
usemtl concrete_base_02
f 21/1/1 11/2/2 12/3/3 22/4/4
f 21/30/1 22/31/4 24/32/19 23/33/18
f 37/1/21 38/4/22 28/34/23 27/2/24
f 37/30/21 39/33/35 40/44/34 38/45/22
f 22/4/4 12/3/3 50/3/52 55/4/53
f 28/34/23 38/4/22 63/4/59 58/34/60
f 24/32/19 22/31/4 55/31/53 56/32/63
f 38/45/22 40/44/34 64/44/55 63/45/59
f 39/33/35 37/30/21 79/30/64 80/33/65
f 37/1/21 27/2/24 74/2/70 79/1/64
f 21/30/1 23/33/18 72/33/76 71/30/79
f 11/2/2 21/1/1 71/1/79 66/2/71
