# Blender 4.5.9 LTS
# www.blender.org
mtllib SerwersP_004.mtl
o SerwersP_004
v -1.001134 0.924283 -1.827993
v -1.001134 0.107398 -1.827993
v 1.480183 -1.250656 -1.827994
v 1.480184 0.107398 -1.827994
v -1.001134 -1.250655 -1.827993
v 1.480184 0.924282 -1.827994
v 0.239524 1.983807 -1.827993
v 0.806296 1.856955 -1.827993
v 1.234599 1.524616 -1.827993
v -0.755548 1.524615 -1.827993
v -0.327246 1.856955 -1.827993
v -2.061979 0.924283 -1.183435
v -2.061979 0.107399 -1.183435
v -2.061979 -1.250655 1.297882
v -2.061979 0.107399 1.297883
v -2.061979 -1.250655 -1.183436
v -2.061979 0.924283 1.297883
v -2.061979 1.983807 0.057223
v -2.061979 1.856955 0.623994
v -2.061979 1.524616 1.052297
v -2.061979 1.524616 -0.937850
v -2.061979 1.856955 -0.509548
v -0.755548 1.524615 -0.937850
v -0.755548 1.524616 1.052297
v -1.001133 0.924283 1.297883
v -1.001134 0.924283 -1.183435
v 1.480184 0.107398 1.297882
v 1.480184 0.107398 -1.183435
v 1.480184 0.924282 1.297883
v 1.480184 0.924283 -1.183435
v 0.239525 1.983807 0.057223
v -0.327246 1.856955 0.623994
v -0.327246 1.856955 -0.509548
v 1.234599 1.524616 -0.937850
v 1.234599 1.524616 1.052297
v 0.806296 1.856955 0.623994
v 0.806296 1.856955 -0.509548
v -1.001134 0.107398 1.297882
v -1.001134 0.107398 -1.183435
v -1.001134 -1.250655 -1.183436
v -1.001134 -1.250655 1.297882
v 1.480184 -1.250656 1.297882
v 1.480184 -1.250656 0.915876
v 1.480183 -1.250656 -1.183436
v -0.372410 -1.250655 1.297882
v 0.276712 -1.250655 0.202622
vn 0.9771 -0.2128 -0.0000
vn 0.9812 -0.1929 -0.0000
vn 0.7963 -0.6049 -0.0000
vn 0.7456 -0.6664 -0.0000
vn -0.9812 -0.1929 -0.0000
vn -1.0000 -0.0000 -0.0000
vn 0.1722 -0.9699 0.1722
vn 0.4260 -0.9047 -0.0000
vn -0.0000 -1.0000 -0.0000
vn -0.0549 -0.9970 -0.0549
vn -0.7963 -0.6049 -0.0000
vn -0.4260 -0.9047 -0.0000
vn 1.0000 -0.0000 -0.0000
vn -0.0000 1.0000 -0.0000
vn -0.0000 -0.0000 -1.0000
vn -0.0000 -0.6049 0.7963
vn -0.0000 -0.1929 0.9812
vn -0.0000 -0.2128 0.9771
vn -0.0000 -0.6664 0.7456
vn -0.0000 -0.1929 -0.9812
vn -0.0000 -0.9047 0.4260
vn -0.0000 -0.6049 -0.7963
vn -0.0000 -0.9047 -0.4260
vn -0.0000 -0.0000 1.0000
vn -0.0000 -0.1678 -0.9858
vn -0.0000 -0.5250 -0.8511
vn -0.2790 -0.9189 -0.2790
vn -0.9858 -0.1678 -0.0000
vn -0.8511 -0.5250 -0.0000
vt 0.487536 0.597886
vt 0.686815 0.597886
vt 0.686815 0.783491
vt 0.411609 0.783491
vt 0.487536 0.597886
vt 0.686815 0.597886
vt 0.686815 0.345330
vt 0.487537 0.345330
vt 0.279190 0.324771
vt 0.686815 0.324771
vt 0.686815 0.500000
vt 0.103962 0.500000
vt 0.411609 0.783491
vt 0.686815 0.783491
vt 0.487536 0.597886
vt 0.411609 0.192353
vt 0.686815 0.192353
vt 0.686815 0.675229
vt 0.279190 0.675229
vt 0.811590 0.009138
vt 1.280762 0.009138
vt 1.280762 0.997661
vt 0.811590 0.997661
vt 0.487537 0.345330
vt 0.686815 0.807647
vt 0.411609 0.807647
vt 0.997824 0.994752
vt 0.997824 0.005248
vt 0.740786 0.005248
vt 0.740786 0.994752
vt -0.248718 0.994752
vt -0.096381 0.994752
vt 0.188052 0.514829
vt -0.248718 0.255972
vt -0.248718 0.005248
vt 1.406806 0.996305
vt -0.406806 0.996305
vt -0.406806 0.003695
vt 0.947267 0.003695
vt 1.406806 0.003695
vt 0.811590 0.997661
vt 0.811590 0.009138
vt -0.607595 0.783491
vt -0.607595 0.597886
vt -0.279613 0.597886
vt -0.203686 0.783491
vt 0.211380 0.591234
vt -0.080147 0.591234
vt -0.080147 0.366749
vt 0.211380 0.366749
vt 0.103961 0.500000
vt -0.607595 0.500000
vt -0.607595 0.324771
vt -0.071267 0.324771
vt -0.279614 0.597886
vt -0.607595 0.597886
vt -0.607595 0.783491
vt -0.203685 0.783491
vt -0.607595 0.192353
vt -0.203686 0.192353
vt -0.071267 0.675229
vt -0.607595 0.675229
vt 2.697605 0.997626
vt 2.697605 0.002374
vt 1.920164 0.002374
vt 1.920164 0.997626
vt -0.080147 0.366749
vt 0.211380 0.366749
vt -0.203686 0.807647
vt -0.607595 0.807647
vt -0.248718 0.005248
vt -0.671763 0.005248
vt -0.671763 0.994752
vt -0.248718 0.994752
vt 0.002006 0.994752
vt 0.260863 0.557982
vt 0.740786 0.842415
vt 0.740786 0.005248
vt 0.740786 0.994752
vt 0.115796 0.599907
vt 0.115796 0.353338
vt 0.864762 0.353338
vt 0.864761 0.599907
vt 0.864761 0.599908
vt 0.790634 0.781113
vt 0.189924 0.781113
vt 0.411609 0.783491
vt -0.203685 0.783491
vt 0.279190 0.675229
vt 1.408329 0.997139
vt 1.408329 0.002861
vt -0.128649 0.002861
vt -0.408329 0.002861
vt -0.408329 0.997139
vt 0.267024 0.346883
vt 1.031676 0.346883
vt 1.031677 0.095149
vt 0.267024 0.095149
vt 0.342705 0.531884
vt 0.955996 0.531884
vt 0.955996 0.508302
vt 0.342705 0.508302
vt 0.474692 0.376314
vt 0.824009 0.376314
vt 0.649351 0.201656
s 1
usemtl brick_modern
f 26/1/1 1/2/2 10/3/3 23/4/4
f 30/5/5 6/6/5 4/7/6 28/8/6
f 33/9/7 11/10/8 7/11/9 31/12/10
f 34/13/11 9/14/11 6/6/5 30/15/5
f 23/16/4 10/17/3 11/10/8 33/9/7
f 7/11/9 8/18/12 37/19/12 31/12/10
f 39/24/13 2/7/13 1/2/2 26/1/1
f 8/18/12 9/25/11 34/26/11 37/19/12
f 21/43/16 12/44/17 26/45/18 23/46/19
f 38/47/15 15/48/15 17/49/20 25/50/20
f 31/51/10 18/52/9 22/53/21 33/54/7
f 25/55/20 17/56/20 20/57/22 24/58/22
f 33/54/7 22/53/21 21/59/16 23/60/19
f 32/61/23 19/62/23 18/52/9 31/51/10
f 12/67/17 13/48/24 39/47/24 26/68/18
f 24/69/22 20/70/22 19/62/23 32/61/23
f 29/80/25 27/81/15 38/82/15 25/83/20
f 25/84/20 24/85/22 35/86/26 29/80/25
f 35/87/26 24/88/22 32/61/23 36/89/27
f 32/61/23 31/51/10 36/89/27
f 29/95/28 30/96/5 28/97/6 27/98/6
f 35/99/29 34/100/11 30/96/5 29/95/28
f 34/101/11 35/102/29 36/103/27 37/104/12
f 36/103/27 31/105/10 37/104/12
usemtl concrete_bare_01
f 40/20/13 5/21/13 2/22/13 39/23/13
s 0
f 38/36/15 27/37/15 42/38/15 45/39/15 41/40/15
s 1
f 28/41/6 4/22/6 3/21/6 44/42/6
f 13/63/24 16/64/24 40/65/24 39/66/24
f 41/65/15 14/64/15 15/63/15 38/66/15
s 0
f 28/90/6 44/91/6 43/92/6 42/93/6 27/94/6
s 1
usemtl brick_pavement
f 3/27/14 5/28/14 40/29/14 44/30/14
f 42/31/14 43/32/14 46/33/14 45/34/14
f 40/29/14 41/35/14 45/34/14 46/33/14 43/32/14 44/30/14
f 40/71/14 16/72/14 14/73/14 41/74/14
f 40/71/14 41/74/14 45/75/14 46/76/14 43/77/14 44/78/14
f 42/79/14 43/77/14 46/76/14 45/75/14
