# Blender 4.5.9 LTS
# www.blender.org
mtllib SerwersP_009.mtl
o SerwersP_009
v -0.148034 0.763594 -0.534114
v -0.148034 -0.250842 -0.534114
v -0.148034 -1.608895 0.534119
v -0.148034 -0.250842 0.534119
v -0.148034 -1.608895 -0.534114
v -0.148034 0.763594 0.534119
v -0.148034 0.566043 -1.240658
v -0.148034 -0.250842 -1.240658
v -0.148034 -1.608895 1.240659
v -0.148034 -0.250842 1.240659
v -0.148034 -1.608896 -1.240659
v -0.148034 0.566042 1.240660
v -0.148034 1.625567 -0.000000
v -0.148034 1.498715 0.566771
v -0.148034 1.166376 0.995074
v -0.148034 1.166375 -0.995073
v -0.148034 1.498715 -0.566771
v 0.148034 0.763594 -0.534114
v 0.148034 -0.250842 -0.534114
v 0.148034 -1.608895 0.534119
v 0.148034 -0.250842 0.534119
v 0.148034 0.763594 0.534119
v 0.148034 -1.608895 -0.534114
v 0.148034 0.566043 -1.240658
v 0.148034 -0.250842 -1.240658
v 0.148034 -1.608895 1.240659
v 0.148034 -0.250842 1.240659
v 0.148034 1.166376 0.995074
v 0.148034 0.566042 1.240660
v 0.148034 -1.608896 -1.240659
v 0.148034 1.498715 -0.566771
v 0.148034 1.625567 -0.000000
v 0.148034 1.498715 0.566771
v 0.148034 1.166375 -0.995073
vn -1.0000 -0.0000 -0.0000
vn 1.0000 -0.0000 -0.0000
vn -0.0000 -0.0000 1.0000
vn -0.0000 -1.0000 -0.0000
vn -0.0000 0.1929 0.9812
vn -0.0000 0.6049 0.7963
vn -0.0000 -0.0000 -1.0000
vn -0.0000 1.0000 -0.0000
vn -0.0000 0.9047 -0.4260
vn -0.0000 0.9047 0.4260
vn -0.0000 0.6049 -0.7963
vn -0.0000 0.1929 -0.9812
vt 0.470261 0.507944
vt 0.470261 0.194310
vt 0.251820 0.194310
vt 0.251820 0.446866
vt 0.090364 0.009287
vt 0.090364 0.997811
vt -0.423927 0.997811
vt -0.423928 0.009287
vt 0.800527 0.507944
vt 0.327748 0.632472
vt 0.460166 0.735221
vt 0.635395 0.774440
vt 0.810624 0.735221
vt 0.943042 0.632472
vt 1.018970 0.446867
vt 0.867928 0.997811
vt 0.867928 0.009287
vt 1.382217 0.009287
vt 1.382217 0.997811
vt 0.800527 0.194310
vt 1.018970 0.194310
vt 0.392489 0.006852
vt 0.607511 0.006852
vt 0.607511 0.993148
vt 0.392489 0.993148
vt 0.454232 0.665133
vt 0.545768 0.665133
vt 0.545768 0.883575
vt 0.454232 0.883575
vt 0.454232 0.603908
vt 0.545768 0.603908
vt 0.545768 0.789513
vt 0.454232 0.789513
vt 0.545181 0.608322
vt 0.454819 0.608322
vt 0.454819 0.298710
vt 0.545181 0.298710
vt 0.390995 1.000000
vt 0.609005 1.000000
vt 0.609005 -0.000000
vt 0.390995 -0.000000
vt 0.454232 0.500000
vt 0.545768 0.500000
vt 0.545768 0.324771
vt 0.454232 0.324771
vt 0.454232 0.351352
vt 0.545768 0.351352
vt 0.663015 0.455164
vt 0.663015 0.545526
vt 0.336985 0.545526
vt 0.336985 0.455164
vt 0.454232 0.675229
vt 0.545768 0.675229
vt 0.454232 0.807647
vt 0.545768 0.807647
vt 0.545181 0.298710
vt 0.454819 0.298710
vt 0.454232 0.789513
vt 0.545768 0.789513
vt 0.545768 0.603908
vt 0.454232 0.603908
vt 0.454232 0.116425
vt 0.545768 0.116425
vt 0.545768 0.334868
vt 0.454232 0.334868
vt 0.545768 0.192353
vt 0.454232 0.192353
s 1
usemtl brick_modern
f 6/1/1 4/2/1 10/3/1 12/4/1
f 1/9/1 6/1/1 12/4/1 15/10/1 14/11/1 13/12/1 17/13/1 16/14/1 7/15/1
f 2/20/1 1/9/1 7/15/1 8/21/1
f 22/1/2 29/4/2 27/3/2 21/2/2
f 18/9/2 24/15/2 34/14/2 31/13/2 32/12/2 33/11/2 28/10/2 29/4/2 22/1/2
f 19/20/2 25/21/2 24/15/2 18/9/2
f 12/30/5 29/31/5 28/32/6 15/33/6
f 2/34/3 19/35/3 18/36/3 1/37/3
f 13/42/8 32/43/8 31/44/9 17/45/9
f 10/46/3 27/47/3 29/31/5 12/30/5
f 1/48/4 18/49/4 22/50/4 6/51/4
f 14/52/10 33/53/10 32/43/8 13/42/8
f 15/54/6 28/55/6 33/53/10 14/52/10
f 6/56/7 22/57/7 21/35/7 4/34/7
f 16/58/11 34/59/11 24/60/12 7/61/12
f 7/61/12 24/60/12 25/47/7 8/46/7
f 17/45/9 31/44/9 34/66/11 16/67/11
usemtl concrete_bare_01
f 5/5/1 2/6/1 8/7/1 11/8/1
f 4/16/1 3/17/1 9/18/1 10/19/1
f 23/5/2 30/8/2 25/7/2 19/6/2
f 21/16/2 27/19/2 26/18/2 20/17/2
f 9/22/3 26/23/3 27/24/3 10/25/3
f 3/26/4 20/27/4 26/28/4 9/29/4
f 8/25/7 25/24/7 30/23/7 11/22/7
f 4/38/7 21/39/7 20/40/7 3/41/7
f 5/41/3 23/40/3 19/39/3 2/38/3
f 11/62/4 30/63/4 23/64/4 5/65/4
