# Blender 4.5.9 LTS
# www.blender.org
mtllib SerwersP_002.mtl
o SerwersP_002
v -1.075617 0.856579 -2.050258
v 2.050258 0.856579 -1.405700
v -1.075617 0.039695 -2.050258
v 2.050258 0.039694 -1.405700
v 1.405700 -1.318359 -2.050258
v 2.050258 -1.318359 1.075617
v 2.050258 0.039694 1.075617
v 1.405701 0.039694 -2.050258
v -1.075618 -1.318359 -2.050258
v 2.050258 -1.318359 -1.405701
v 1.405701 0.856578 -2.050258
v 2.050258 0.856578 1.075618
v 2.050258 1.916103 -0.165042
v 0.165041 1.916103 -2.050258
v 2.050258 1.789251 0.401729
v 0.731812 1.789251 -2.050258
v 2.050258 1.456912 0.830032
v 1.160115 1.456912 -2.050258
v -0.830032 1.456911 -2.050258
v 2.050258 1.456911 -1.160115
v 2.050258 1.789251 -0.731813
v -0.401730 1.789251 -2.050258
v -1.075617 0.856579 2.136462
v -2.136462 0.856579 -1.405700
v -2.136462 0.039695 -1.405700
v -1.075617 0.039695 2.136462
v 1.405700 -1.318359 2.136462
v -2.136462 -1.318359 1.075617
v -2.136462 0.039695 1.075618
v 1.405701 0.039694 2.136462
v -1.075617 -1.318359 2.136462
v -2.136462 -1.318359 -1.405700
v -2.136462 0.856579 1.075618
v 1.405701 0.856578 2.136462
v -2.136462 1.916103 -0.165042
v 0.165041 1.916103 2.136462
v 0.731812 1.789251 2.136462
v -2.136462 1.789251 0.401729
v 1.160115 1.456912 2.136462
v -2.136462 1.456912 0.830032
v -2.136462 1.456912 -1.160115
v -0.830031 1.456911 2.136462
v -2.136462 1.789251 -0.731813
v -0.401729 1.789251 2.136462
v -0.830032 1.456911 -1.160115
v -0.830031 1.456911 0.830032
v -1.075617 0.856579 1.075618
v -1.075617 0.856579 -1.405700
v 1.405701 0.039694 1.075617
v 1.405701 0.039694 -1.405700
v 1.405701 0.856578 1.075618
v 1.405701 0.856578 -1.405700
v 0.165041 1.916103 -0.165042
v -0.401729 1.789251 0.401729
v -0.401730 1.789251 -0.731813
v 1.405701 0.856579 -1.405700
v 1.160115 1.456911 -1.160115
v 1.160115 1.456912 -1.160114
v 1.160115 1.456912 0.830032
v -0.830031 1.456912 0.830032
v 0.731812 1.789251 0.401729
v 0.731812 1.789251 -0.731813
v -1.075617 0.039695 1.075618
v -1.075617 0.039695 -1.405700
v -1.075618 -1.318359 -1.405701
v -1.075617 -1.318359 1.075617
v -1.075617 0.856579 1.075618
v 1.405700 -1.318359 1.075617
v 1.405700 -1.318359 0.693611
v 1.405700 -1.318359 -1.405701
v -0.446893 -1.318359 1.075617
v 0.202228 -1.318359 -0.019643
vn 0.7963 -0.6049 -0.0000
vn 0.9812 -0.1929 -0.0000
vn 0.9695 -0.2450 -0.0000
vn 0.7602 -0.6497 -0.0000
vn 0.9771 -0.2128 -0.0000
vn 0.7456 -0.6664 -0.0000
vn -1.0000 -0.0000 -0.0000
vn -0.9812 -0.1929 -0.0000
vn -0.9771 -0.2128 -0.0000
vn -0.0000 -1.0000 -0.0000
vn 0.4260 -0.9047 -0.0000
vn 0.1722 -0.9699 -0.1722
vn 0.1722 -0.9699 0.1722
vn -0.7963 -0.6049 -0.0000
vn -0.7456 -0.6664 -0.0000
vn -0.9255 -0.3786 -0.0000
vn -0.6989 -0.7153 -0.0000
vn 0.6130 -0.7901 -0.0000
vn -0.1722 -0.9699 -0.1722
vn -0.4260 -0.9047 -0.0000
vn -0.1722 -0.9699 0.1722
vn 1.0000 -0.0000 -0.0000
vn -0.0000 1.0000 -0.0000
vn -0.0000 -0.6049 0.7963
vn -0.0000 -0.1929 0.9812
vn -0.0000 -0.2128 0.9771
vn -0.0000 -0.6664 0.7456
vn -0.0000 -0.6480 0.7616
vn -0.0000 -0.2450 0.9695
vn -0.0000 -0.0000 -1.0000
vn -0.0000 -0.1929 -0.9812
vn -0.0000 -0.2128 -0.9771
vn -0.0000 -0.9047 0.4260
vn -0.0000 -0.6049 -0.7963
vn -0.0000 -0.7066 -0.7076
vn -0.0000 -0.3786 -0.9255
vn -0.0000 -0.6664 -0.7456
vn -0.0000 -0.7901 0.6130
vn -0.0000 -0.9047 -0.4260
vn -0.0000 -0.0000 1.0000
vt -0.607595 0.783491
vt -0.607595 0.597886
vt -0.279614 0.597886
vt -0.203686 0.783491
vt 0.487536 0.597886
vt 0.686815 0.597886
vt 0.686815 0.783491
vt 0.411609 0.783491
vt -0.279614 0.345330
vt -0.607595 0.345330
vt -0.607595 0.597886
vt 0.487536 0.597886
vt 0.686815 0.597886
vt 0.686815 0.345330
vt 0.487537 0.345330
vt -0.607595 0.500000
vt -0.607595 0.324771
vt -0.071267 0.324771
vt 0.103962 0.500000
vt 0.279190 0.324771
vt 0.686815 0.324771
vt 0.686815 0.500000
vt -0.607595 0.783491
vt -0.203686 0.783491
vt 0.411609 0.783491
vt 0.411609 0.783491
vt 0.686815 0.783491
vt 0.487536 0.597886
vt -0.607595 0.192353
vt -0.203686 0.192353
vt -0.203686 0.192353
vt -0.071267 0.324771
vt 0.411609 0.192353
vt 0.686815 0.192353
vt -0.071267 0.675229
vt -0.607595 0.675229
vt 0.686815 0.675229
vt 0.279190 0.675229
vt -0.994555 0.997661
vt -1.766741 0.997661
vt -1.766741 0.009137
vt -0.994555 0.009137
vt 0.811590 0.009138
vt 1.280762 0.009138
vt 1.280762 0.997661
vt 0.811590 0.997661
vt -0.607595 0.345330
vt -0.279614 0.345330
vt -0.279614 0.597886
vt 0.487537 0.345330
vt -0.203686 0.807647
vt -0.607595 0.807647
vt -0.071267 0.675229
vt 0.686815 0.807647
vt 0.411609 0.807647
vt -0.671763 0.005248
vt -0.671763 0.994752
vt -0.248718 0.994752
vt -0.248718 0.255972
vt -0.248718 0.005248
vt 0.997824 0.994752
vt 0.997824 0.005248
vt 0.740786 0.005248
vt 0.740786 0.994752
vt -0.096381 0.994752
vt 0.188052 0.514829
vt -0.994555 0.009138
vt -1.766741 0.009138
vt -1.766741 0.997661
vt -0.994555 0.997661
vt 0.811590 0.997661
vt 0.811590 0.009138
vt -0.279613 0.597886
vt -0.203686 0.783491
vt 0.211380 0.591234
vt -0.080147 0.591234
vt -0.080147 0.366749
vt 0.211380 0.366749
vt 0.893263 0.366749
vt 1.070391 0.366749
vt 1.070391 0.591234
vt 0.893263 0.591234
vt 0.103961 0.500000
vt -0.071267 0.324771
vt 0.279190 0.324771
vt -0.203685 0.783491
vt -0.203685 0.783491
vt 0.411609 0.783491
vt 0.487537 0.597886
vt -0.203686 0.192353
vt 0.411609 0.192353
vt -0.071267 0.675229
vt 0.279190 0.675229
vt 2.697605 0.997626
vt 2.697605 0.002374
vt 1.920164 0.002374
vt 1.920164 0.997626
vt 0.101728 0.002374
vt -0.370637 0.002374
vt -0.370637 0.997626
vt 0.101727 0.997626
vt -0.080147 0.366749
vt 0.211380 0.366749
vt 1.070391 0.366749
vt 0.893263 0.366749
vt -0.203686 0.807647
vt 0.411609 0.807647
vt -0.248718 0.005248
vt -0.248718 0.994752
vt 0.740786 0.842415
vt 0.740786 0.994752
vt 0.740786 0.005248
vt 0.002006 0.994752
vt 0.260863 0.557982
s 1
usemtl brick_modern
f 42/1/1 23/2/2 47/3/3 46/4/4
f 48/5/5 1/6/2 19/7/1 45/8/6
f 49/9/7 30/10/7 34/11/8 51/3/9
f 52/12/8 11/13/8 8/14/7 50/15/7
f 36/16/10 44/17/11 54/18/12 53/19/10
f 55/20/13 22/21/11 14/22/10 53/19/10
f 34/11/8 39/23/14 59/24/15 51/3/9
f 57/25/16 58/26/17 18/27/14 11/13/8 52/12/8 56/28/16
f 44/17/11 42/29/1 46/30/4 60/31/18 54/32/12
f 45/33/6 19/34/1 22/21/11 55/20/13
f 61/35/19 37/36/20 36/16/10 53/19/10
f 14/22/10 16/37/20 62/38/21 53/19/10
f 23/2/2 26/47/22 63/48/22 67/49/22 47/3/3
f 64/50/22 3/14/22 1/6/2 48/5/5
f 59/51/15 39/52/14 37/36/20 61/53/19
f 16/37/20 18/54/14 58/55/17 62/38/21
f 41/1/24 24/2/25 48/73/26 45/74/27
f 2/6/25 20/7/24 57/25/28 56/28/29
f 63/75/30 29/76/30 33/77/31 67/78/31
f 51/79/32 12/80/31 7/81/30 49/82/30
f 53/83/10 35/16/10 43/17/33 55/84/13
f 62/85/21 21/21/33 13/22/10 53/83/10
f 67/49/31 33/11/31 40/23/34 60/86/35 46/87/36 47/3/36
f 59/88/37 17/27/34 12/13/31 51/89/32
f 55/84/13 43/17/33 41/29/24 45/90/27
f 57/91/28 20/34/24 21/21/33 62/85/21 58/91/38
f 54/92/12 38/36/39 35/16/10 53/83/10
f 53/83/10 13/22/10 15/37/39 61/93/19
f 24/102/25 25/76/40 64/75/40 48/103/26
f 4/81/40 2/104/25 56/105/29 52/79/40 50/82/40
f 60/106/35 40/52/34 38/36/39 54/92/12
f 61/93/19 15/37/39 17/54/34 59/107/37
usemtl concrete_bare_01
f 63/39/22 26/40/22 31/41/22 66/42/22
f 65/43/22 9/44/22 3/45/22 64/46/22
f 68/67/7 27/68/7 30/69/7 49/70/7
f 50/71/7 8/45/7 5/44/7 70/72/7
f 25/94/40 32/95/40 65/96/40 64/97/40
f 70/98/40 10/99/40 4/100/40 50/101/40
f 66/96/30 28/95/30 29/94/30 63/97/30
f 49/101/30 7/100/30 6/99/30 68/98/30
usemtl brick_pavement
f 31/56/23 27/57/23 68/58/23 71/59/23 66/60/23
f 5/61/23 9/62/23 65/63/23 70/64/23
f 68/58/23 69/65/23 72/66/23 71/59/23
f 65/63/23 66/60/23 71/59/23 72/66/23 69/65/23 70/64/23
f 65/108/23 32/56/23 28/57/23 66/109/23
f 69/110/23 68/111/23 6/61/23 10/62/23 70/112/23
f 65/108/23 66/109/23 71/113/23 72/114/23 69/110/23 70/112/23
f 68/111/23 69/110/23 72/114/23 71/113/23
