# Blender 4.5.9 LTS
# www.blender.org
mtllib Serwers_012.mtl
o Serwers_012
v 0.000000 4.386930 -3.386931
v 0.000000 3.386931 3.386930
v 0.000000 -2.882610 3.386931
v 0.000000 -1.882610 -3.386930
v -0.979492 -1.882610 -3.386930
v -0.979492 -2.882610 3.386931
v -1.157323 -2.111717 3.386931
v -1.157323 -1.111717 -3.386930
v -2.648009 -1.111717 -3.386930
v -2.648009 -2.111717 3.386931
v -3.302013 0.246337 -3.386930
v -3.302013 -0.753663 3.386930
v -3.302013 1.753663 -3.386931
v -3.302013 0.753663 3.386930
v -2.648009 3.111717 -3.386931
v -2.648009 2.111717 3.386930
v -1.469534 4.051518 -3.386931
v -1.469534 3.051519 3.386930
v 0.979492 -1.882610 -3.386930
v 0.979492 -2.882610 3.386931
v 1.157323 -2.111717 3.386931
v 1.157323 -1.111717 -3.386930
v 2.648009 -1.111717 -3.386930
v 2.648009 -2.111717 3.386931
v 3.302013 0.246337 -3.386930
v 3.302013 -0.753663 3.386930
v 3.302013 1.753663 -3.386931
v 3.302013 0.753663 3.386930
v 2.648009 3.111717 -3.386931
v 2.648009 2.111717 3.386930
v 1.469534 4.051518 -3.386931
v 1.469534 3.051519 3.386930
v 0.000000 4.565804 -3.821657
v 0.000000 -2.015403 -3.821657
v -1.028184 -2.015403 -3.821657
v -1.214855 -1.206187 -3.821657
v -2.779644 -1.206187 -3.821657
v -3.466160 0.219377 -3.821657
v -3.466160 1.801633 -3.821657
v -2.779644 3.227198 -3.821657
v -1.542586 4.213718 -3.821657
v 1.028184 -2.015403 -3.821657
v 1.214855 -1.206187 -3.821657
v 2.779644 -1.206187 -3.821657
v 3.466160 0.219377 -3.821657
v 3.466160 1.801633 -3.821657
v 2.779644 3.227198 -3.821657
v 1.542586 4.213718 -3.821657
v -0.000000 3.578697 3.725052
v -0.000000 -3.024973 3.725052
v -1.031693 -3.024973 3.725052
v -1.219002 -2.212996 3.725052
v -2.789132 -2.212996 3.725052
v -3.477991 -0.782566 3.725052
v -3.477991 0.805092 3.725052
v -2.789132 2.235522 3.725052
v -1.547852 3.225410 3.725052
v 1.031693 -3.024973 3.725052
v 1.219002 -2.212996 3.725052
v 2.789132 -2.212996 3.725052
v 3.477991 -0.782566 3.725052
v 3.477991 0.805092 3.725052
v 2.789132 2.235522 3.725052
v 1.547852 3.225410 3.725052
vn -0.0000 0.9616 0.2744
vn -0.0000 0.9631 0.2692
vn -0.0000 0.9972 -0.0749
vn -0.0000 0.9966 -0.0822
vn 0.9670 0.2231 0.1234
vn 0.9632 0.2222 0.1515
vn 0.9717 0.2241 -0.0749
vn 0.9720 0.2242 -0.0701
vn -0.0000 0.9744 0.2247
vn -0.0000 0.9771 0.2129
vn -0.0000 0.9997 -0.0259
vn -0.0000 0.9988 -0.0490
vn 0.8922 0.4297 -0.1390
vn 0.9624 0.2109 -0.1714
vn 0.9372 0.2263 0.2654
vn 0.8658 0.4170 0.2766
vn 0.9517 -0.2257 -0.2084
vn 0.9492 -0.2040 0.2397
vn 0.7548 -0.6102 -0.2406
vn 0.7888 -0.6080 -0.0898
vn 0.4156 -0.8710 -0.2622
vn 0.4384 -0.8892 -0.1313
vn -0.0000 -0.9629 -0.2698
vn -0.0000 -0.9893 -0.1460
vn -0.9670 0.2231 0.1234
vn -0.9720 0.2242 -0.0701
vn -0.9717 0.2241 -0.0749
vn -0.9632 0.2222 0.1515
vn -0.8922 0.4297 -0.1390
vn -0.8658 0.4170 0.2766
vn -0.9372 0.2263 0.2654
vn -0.9624 0.2109 -0.1714
vn -0.9492 -0.2040 0.2397
vn -0.9517 -0.2257 -0.2084
vn -0.7888 -0.6080 -0.0898
vn -0.7548 -0.6102 -0.2406
vn -0.4384 -0.8892 -0.1313
vn -0.4156 -0.8710 -0.2622
vn -0.0000 -0.9248 -0.3805
vn -0.4005 -0.8344 -0.3786
vn 0.9068 -0.2097 -0.3656
vn 0.7240 -0.5801 -0.3733
vn -0.0000 0.9564 -0.2921
vn -0.7240 -0.5801 -0.3733
vn -0.9069 -0.2097 -0.3656
vn 0.8458 0.4073 -0.3446
vn 0.9113 0.2052 -0.3568
vn 0.9594 0.2213 -0.1751
vn -0.9113 0.2052 -0.3568
vn -0.8458 0.4073 -0.3446
vn -0.9594 0.2213 -0.1751
vn 0.4005 -0.8344 -0.3786
vn -0.0000 0.9772 -0.2124
vn 0.8634 0.1937 0.4659
vn 0.8039 0.3871 0.4515
vn 0.9464 0.2183 0.2380
vn -0.8039 0.3871 0.4515
vn -0.8634 0.1937 0.4659
vn -0.9464 0.2183 0.2380
vn 0.6857 -0.5428 0.4849
vn 0.3795 -0.7841 0.4911
vn 0.3767 -0.7854 0.4912
vn 0.6821 -0.5472 0.4851
vn -0.3795 -0.7841 0.4911
vn -0.6857 -0.5428 0.4849
vn -0.6821 -0.5472 0.4851
vn -0.3767 -0.7854 0.4912
vn 0.8566 -0.1988 0.4761
vn -0.0000 0.9579 0.2869
vn -0.8566 -0.1988 0.4761
vn -0.0000 -0.8698 0.4933
vn -0.0000 0.9216 0.3880
vt -0.258957 1.006753
vt -0.258957 1.237606
vt 1.337553 1.237606
vt 1.337553 1.006753
vt -0.258957 0.195233
vt -0.258957 0.013544
vt 1.337553 0.013544
vt 1.337553 0.195233
vt -0.258957 0.646012
vt -0.258957 0.997347
vt 1.337553 0.997347
vt 1.337553 0.646012
vt 1.026375 0.005138
vt 1.026375 0.241734
vt -0.153743 0.241734
vt -0.153743 0.005138
vt 1.026375 0.504334
vt -0.153743 0.504335
vt 1.026375 0.740930
vt -0.153743 0.740930
vt 1.026375 0.533535
vt 1.026375 0.738845
vt -0.153743 0.738845
vt -0.153743 0.533535
vt 1.026375 0.994861
vt -0.153743 0.994861
s 1
usemtl concrete_base
f 6/1/1 3/2/2 4/3/3 5/4/4
f 7/5/5 6/6/6 5/7/7 8/8/8
f 10/9/9 7/10/10 8/11/11 9/12/12
f 20/1/1 19/4/4 4/3/3 3/2/2
f 21/5/25 22/8/26 19/7/27 20/6/28
f 24/9/9 23/12/12 22/11/11 21/10/10
f 4/3/3 19/4/4 42/4/43 34/3/43
f 8/8/8 5/7/7 35/7/48 36/8/48
f 19/7/27 22/8/26 43/8/51 42/7/51
f 9/12/12 8/11/11 36/11/53 37/12/53
f 22/11/11 23/12/12 44/12/53 43/11/53
f 5/4/4 4/3/3 34/3/43 35/4/43
f 6/6/6 7/5/5 52/5/56 51/6/56
f 21/5/25 20/6/28 58/6/59 59/5/59
f 7/10/10 10/9/9 53/9/69 52/10/69
f 24/9/9 21/10/10 59/10/69 60/9/69
f 3/2/2 6/1/1 51/1/72 50/2/72
f 20/1/1 3/2/2 50/2/72 58/1/72
usemtl brick_modern_01
f 9/13/13 11/14/14 12/15/15 10/16/16
f 11/14/14 13/17/17 14/18/18 12/15/15
f 13/17/17 15/19/19 16/20/20 14/18/18
f 15/21/19 17/22/21 18/23/22 16/24/20
f 17/22/21 1/25/23 2/26/24 18/23/22
f 23/13/29 24/16/30 26/15/31 25/14/32
f 25/14/32 26/15/31 28/18/33 27/17/34
f 27/17/34 28/18/33 30/20/35 29/19/36
f 29/21/36 30/24/35 32/23/37 31/22/38
f 31/22/38 32/23/37 2/26/24 1/25/23
f 31/22/38 1/25/23 33/25/39 48/22/40
f 15/19/19 13/17/17 39/17/41 40/19/42
f 27/17/34 29/19/36 47/19/44 46/17/45
f 11/14/14 9/13/13 37/13/46 38/14/47
f 23/13/29 25/14/32 45/14/49 44/13/50
f 17/22/21 15/21/19 40/21/42 41/22/52
f 29/21/36 31/22/38 48/22/40 47/21/44
f 13/17/17 11/14/14 38/14/47 39/17/41
f 25/14/32 27/17/34 46/17/45 45/14/49
f 1/25/23 17/22/21 41/22/52 33/25/39
f 10/16/16 12/15/15 54/15/54 53/16/55
f 26/15/31 24/16/30 60/16/57 61/15/58
f 16/24/60 18/23/61 57/23/62 56/24/63
f 32/23/64 30/24/65 63/24/66 64/23/67
f 12/15/15 14/18/18 55/18/68 54/15/54
f 28/18/33 26/15/31 61/15/58 62/18/70
f 18/23/61 2/26/71 49/26/71 57/23/62
f 2/26/71 32/23/64 64/23/67 49/26/71
f 14/18/18 16/20/60 56/20/63 55/18/68
f 30/20/65 28/18/33 62/18/70 63/20/66
