# Blender 4.5.9 LTS
# www.blender.org
mtllib Serwers01_011.mtl
o Serwers01_011
v 2.185812 -2.561713 1.000059
v 3.869726 -2.561713 1.000059
v 2.185812 -2.561713 -0.999941
v 3.869726 -2.561713 -0.999941
v 3.929232 -2.187449 1.000059
v 3.929232 -2.187449 -0.999941
v 4.157303 -2.187449 1.000059
v 4.157303 -2.187449 -0.999941
v 4.157303 -1.940267 1.000059
v 4.157303 -1.940267 -0.999941
v 4.239361 -1.940267 1.000059
v 4.239361 -1.940267 -0.999941
v 1.851271 -2.678079 1.000059
v 1.851271 -2.678079 -0.999941
v 1.284489 -2.843798 1.000059
v 1.284489 -2.843798 -0.999941
v 0.000000 -2.843798 1.000059
v 0.000000 -2.843798 -0.999941
v 4.511393 -1.048085 1.000059
v 4.511393 -1.048085 -0.999941
v 4.482758 0.207361 1.000059
v 4.482758 0.207361 -0.999941
v 4.210724 1.180952 1.000059
v 4.210724 1.180952 -0.999941
v 3.611235 2.131810 1.000059
v 3.611235 2.131810 -0.999941
v 2.565411 2.906828 1.000519
v 2.565411 2.906828 -0.999481
v 1.422453 3.345155 1.000519
v 1.422453 3.345155 -0.999481
v 0.359150 3.426353 1.000519
v 0.359150 3.426353 -0.999481
v 0.000000 3.441601 0.987756
v 0.000000 3.441601 -1.012244
v -2.185812 -2.561713 1.000059
v -3.869726 -2.561713 1.000059
v -2.185812 -2.561713 -0.999941
v -3.869726 -2.561713 -0.999941
v -3.929232 -2.187449 1.000059
v -3.929232 -2.187449 -0.999941
v -4.157303 -2.187449 1.000059
v -4.157303 -2.187449 -0.999941
v -4.157303 -1.940267 1.000059
v -4.157303 -1.940267 -0.999941
v -4.239361 -1.940267 1.000059
v -4.239361 -1.940267 -0.999941
v -1.851273 -2.678079 1.000059
v -1.851273 -2.678079 -0.999941
v -1.284489 -2.843798 1.000059
v -1.284489 -2.843798 -0.999941
v -4.511393 -1.048085 1.000059
v -4.511393 -1.048085 -0.999941
v -4.482758 0.207361 1.000059
v -4.482758 0.207361 -0.999941
v -4.210724 1.180952 1.000059
v -4.210724 1.180952 -0.999941
v -3.611235 2.131810 1.000059
v -3.611235 2.131810 -0.999941
v -2.565411 2.906828 1.000519
v -2.565411 2.906828 -0.999481
v -1.422453 3.345155 1.000519
v -1.422453 3.345155 -0.999481
v -0.359150 3.426353 1.000519
v -0.359150 3.426353 -0.999481
v 2.730846 -2.561713 -5.455399
v 4.357382 -2.561713 -5.019570
v 4.414860 -2.187449 -5.004169
v 4.635160 -2.187449 -4.945140
v 4.635160 -1.940267 -4.945140
v 4.714422 -1.940267 -4.923902
v 2.407704 -2.678079 -5.541985
v 1.860235 -2.843798 -5.688679
v 0.619514 -2.843798 -6.021129
v 4.977185 -1.048085 -4.853495
v 4.949525 0.207361 -4.860906
v 4.686761 1.180952 -4.931313
v 4.107698 2.131810 -5.086472
v 3.097391 2.906828 -5.356707
v 1.993379 3.345155 -5.652526
v 0.966307 3.426353 -5.927729
v 0.622698 3.441601 -6.033012
v -1.491818 -2.561713 -6.586859
v -3.118354 -2.561713 -7.022688
v -3.175832 -2.187449 -7.038089
v -3.396132 -2.187449 -7.097118
v -3.396132 -1.940267 -7.097118
v -3.475394 -1.940267 -7.118356
v -1.168678 -2.678079 -6.500274
v -0.621207 -2.843798 -6.353579
v -3.738157 -1.048085 -7.188763
v -3.710497 0.207361 -7.181352
v -3.447733 1.180952 -7.110944
v -2.868671 2.131810 -6.955785
v -1.858602 2.906828 -6.684661
v -0.754589 3.345155 -6.388842
v 0.272483 3.426353 -6.113639
v 4.410466 -2.561713 -9.617975
v 5.868779 -2.561713 -8.776019
v 5.920312 -2.187449 -8.746265
v 6.117827 -2.187449 -8.632230
v 6.117827 -1.940267 -8.632230
v 6.188891 -1.940267 -8.591201
v 4.120745 -2.678079 -9.785246
v 3.629897 -2.843798 -10.068637
v 2.517498 -2.843798 -10.710881
v 6.424479 -1.048085 -8.455185
v 6.399679 0.207361 -8.469502
v 6.164091 1.180952 -8.605519
v 5.644918 2.131810 -8.905264
v 4.738978 2.906828 -9.427776
v 3.749147 3.345155 -9.999256
v 2.828300 3.426353 -10.530908
v 2.523649 3.441601 -10.721536
v 0.624529 -2.561713 -11.803787
v -0.833784 -2.561713 -12.645744
v -0.885317 -2.187449 -12.675497
v -1.082832 -2.187449 -12.789533
v -1.082832 -1.940267 -12.789533
v -1.153897 -1.940267 -12.830562
v 0.914248 -2.678079 -11.636518
v 1.405098 -2.843798 -11.353126
v -1.389483 -1.048085 -12.966578
v -1.364684 0.207361 -12.952260
v -1.129097 1.180952 -12.816242
v -0.609923 2.131810 -12.516499
v 0.295556 2.906828 -11.993187
v 1.285387 3.345155 -11.421709
v 2.206234 3.426353 -10.890058
v 7.110209 -2.561713 -13.203998
v 8.300916 -2.561713 -12.013291
v 8.342993 -2.187449 -11.971213
v 8.504263 -2.187449 -11.809943
v 8.504263 -1.940267 -11.809943
v 8.562286 -1.940267 -11.751920
v 6.873652 -2.678079 -13.440554
v 6.472877 -2.843798 -13.841330
v 5.564606 -2.843798 -14.749600
v 8.754642 -1.048085 -11.559565
v 8.734394 0.207361 -11.579812
v 8.542037 1.180952 -11.772169
v 8.118134 2.131810 -12.196072
v 7.378300 2.906828 -12.935254
v 6.570107 3.345155 -13.743448
v 5.818237 3.426353 -14.495317
v 5.573305 3.441601 -14.758299
v 4.019004 -2.561713 -16.295202
v 2.828297 -2.561713 -17.485909
v 2.786220 -2.187449 -17.527985
v 2.624949 -2.187449 -17.689257
v 2.624949 -1.940267 -17.689257
v 2.566925 -1.940267 -17.747280
v 4.255559 -2.678079 -16.058647
v 4.656335 -2.843798 -15.657871
v 2.374569 -1.048085 -17.939636
v 2.394818 0.207361 -17.919388
v 2.587174 1.180952 -17.727032
v 3.011077 2.131810 -17.303127
v 3.750261 2.906828 -16.563293
v 4.558454 3.345155 -15.755100
v 5.310323 3.426353 -15.003232
v 10.646090 -2.561713 -15.969084
v 11.488047 -2.561713 -14.510773
v 11.517800 -2.187449 -14.459238
v 11.631836 -2.187449 -14.261724
v 11.631836 -1.940267 -14.261724
v 11.672865 -1.940267 -14.190660
v 10.478819 -2.678079 -16.258804
v 10.195428 -2.843798 -16.749653
v 9.553185 -2.843798 -17.862053
v 11.808881 -1.048085 -13.955073
v 11.794563 0.207361 -13.979872
v 11.658545 1.180952 -14.215460
v 11.358801 2.131810 -14.734632
v 10.835490 2.906828 -15.640111
v 10.264011 3.345155 -16.629942
v 9.732360 3.426353 -17.550789
v 9.563839 3.441601 -17.868204
v 8.460279 -2.561713 -19.755022
v 7.618321 -2.561713 -21.213333
v 7.588568 -2.187449 -21.264866
v 7.474533 -2.187449 -21.462383
v 7.474533 -1.940267 -21.462383
v 7.433503 -1.940267 -21.533445
v 8.627548 -2.678079 -19.465302
v 8.910940 -2.843798 -18.974453
v 7.297487 -1.048085 -21.769033
v 7.311806 0.207361 -21.744234
v 7.447822 1.180952 -21.508648
v 7.747566 2.131810 -20.989471
v 8.270080 2.906828 -20.083534
v 8.841558 3.345155 -19.093704
v 9.373211 3.426353 -18.172855
v 14.777145 -2.561713 -17.724800
v 15.212975 -2.561713 -16.098265
v 15.228376 -2.187449 -16.040785
v 15.287407 -2.187449 -15.820486
v 15.287407 -1.940267 -15.820486
v 15.308645 -1.940267 -15.741224
v 14.690559 -2.678079 -18.047939
v 14.543867 -2.843798 -18.595411
v 14.211417 -2.843798 -19.836132
v 15.379051 -1.048085 -15.478462
v 15.371641 0.207361 -15.506121
v 15.301231 1.180952 -15.768887
v 15.146072 2.131810 -16.347948
v 14.874949 2.906828 -17.358017
v 14.579129 3.345155 -18.462029
v 14.303926 3.426353 -19.489101
v 14.223301 3.441601 -19.839315
v 13.645688 -2.561713 -21.947464
v 13.209858 -2.561713 -23.573997
v 13.194456 -2.187449 -23.631477
v 13.135427 -2.187449 -23.851778
v 13.135427 -1.940267 -23.851778
v 13.114188 -1.940267 -23.931038
v 13.732272 -2.678079 -21.624323
v 13.878967 -2.843798 -21.076853
v 13.043782 -1.048085 -24.193802
v 13.051194 0.207361 -24.166142
v 13.121601 1.180952 -23.903379
v 13.276760 2.131810 -23.324314
v 13.546994 2.906828 -22.314011
v 13.842814 3.345155 -21.209997
v 14.118017 3.426353 -20.182926
v 19.221851 -2.561713 -18.351494
v 19.221851 -2.561713 -16.667582
v 19.221853 -2.187449 -16.608074
v 19.221855 -2.187449 -16.380005
v 19.221855 -1.940267 -16.380005
v 19.221855 -1.940267 -16.297947
v 19.221851 -2.678079 -18.686033
v 19.221853 -2.843798 -19.252819
v 19.221853 -2.843798 -20.537308
v 19.221853 -1.048085 -16.025913
v 19.221855 0.207361 -16.054548
v 19.221853 1.180952 -16.326584
v 19.221851 2.131810 -16.926073
v 19.221392 2.906828 -17.971895
v 19.221392 3.345155 -19.114853
v 19.221394 3.426353 -20.178158
v 19.234156 3.441601 -20.537306
v 19.221855 -2.561713 -22.723118
v 19.221851 -2.561713 -24.407030
v 19.221851 -2.187449 -24.466537
v 19.221853 -2.187449 -24.694609
v 19.221853 -1.940267 -24.694609
v 19.221851 -1.940267 -24.776665
v 19.221851 -2.678079 -22.388577
v 19.221853 -2.843798 -21.821796
v 19.221853 -1.048085 -25.048698
v 19.221853 0.207361 -25.020061
v 19.221853 1.180952 -24.748032
v 19.221851 2.131810 -24.148537
v 19.221392 2.906828 -23.102718
v 19.221394 3.345155 -21.959759
v 19.221394 3.426353 -20.896458
v 21.221851 -2.561713 -18.351494
v 21.221851 -2.561713 -16.667582
v 21.221853 -2.187449 -16.608074
v 21.221855 -2.187449 -16.380005
v 21.221855 -1.940267 -16.380005
v 21.221855 -1.940267 -16.297947
v 21.221851 -2.678079 -18.686033
v 21.221853 -2.843798 -19.252819
v 21.221853 -2.843798 -20.537308
v 21.221853 -1.048085 -16.025913
v 21.221855 0.207361 -16.054548
v 21.221853 1.180952 -16.326584
v 21.221851 2.131810 -16.926073
v 21.221392 2.906828 -17.971895
v 21.221392 3.345155 -19.114853
v 21.221394 3.426353 -20.178158
v 21.234156 3.441601 -20.537306
v 21.221855 -2.561713 -22.723118
v 21.221851 -2.561713 -24.407030
v 21.221851 -2.187449 -24.466537
v 21.221853 -2.187449 -24.694609
v 21.221853 -1.940267 -24.694609
v 21.221851 -1.940267 -24.776665
v 21.221851 -2.678079 -22.388577
v 21.221853 -2.843798 -21.821796
v 21.221853 -1.048085 -25.048698
v 21.221853 0.207361 -25.020061
v 21.221853 1.180952 -24.748032
v 21.221851 2.131810 -24.148537
v 21.221392 2.906828 -23.102718
v 21.221394 3.345155 -21.959759
v 21.221394 3.426353 -20.896458
v 2.288103 -2.662725 1.338192
v 4.050820 -2.662725 1.338192
v 4.113111 -2.270947 1.338192
v 4.351855 -2.270947 1.338192
v 4.351855 -2.012197 1.338192
v 4.437753 -2.012197 1.338192
v 1.937906 -2.784538 1.338192
v 1.344600 -2.958012 1.338192
v 0.000000 -2.958012 1.338192
v 4.722515 -1.078264 1.338192
v 4.692540 0.235934 1.338192
v 4.407776 1.255087 1.338192
v 3.780232 2.250443 1.338192
v 2.685466 3.061731 1.338674
v 1.489020 3.520570 1.338674
v 0.375957 3.605568 1.338674
v 0.000000 3.621530 1.325314
v -2.288103 -2.662725 1.338192
v -4.050820 -2.662725 1.338192
v -4.113110 -2.270947 1.338192
v -4.351855 -2.270947 1.338192
v -4.351855 -2.012197 1.338192
v -4.437753 -2.012197 1.338192
v -1.937908 -2.784538 1.338192
v -1.344600 -2.958012 1.338192
v -4.722515 -1.078264 1.338192
v -4.692540 0.235934 1.338192
v -4.407776 1.255087 1.338192
v -3.780232 2.250443 1.338192
v -2.685466 3.061731 1.338674
v -1.489020 3.520570 1.338674
v -0.375957 3.605568 1.338674
v 21.608257 -2.693342 -18.218199
v 21.608257 -2.693342 -16.431599
v 21.608261 -2.296255 -16.368462
v 21.608263 -2.296255 -16.126484
v 21.608263 -2.033999 -16.126484
v 21.608263 -2.033999 -16.039423
v 21.608257 -2.816805 -18.573139
v 21.608261 -2.992629 -19.174488
v 21.608261 -2.992629 -20.537308
v 21.608261 -1.087411 -15.750800
v 21.608263 0.244595 -15.781181
v 21.608261 1.277557 -16.069805
v 21.608257 2.286400 -16.705853
v 21.607771 3.108681 -17.815453
v 21.607771 3.573738 -19.028109
v 21.607773 3.659887 -20.156256
v 21.621313 3.676065 -20.537306
v 21.608263 -2.693342 -22.856413
v 21.608257 -2.693342 -24.643013
v 21.608257 -2.296255 -24.706150
v 21.608261 -2.296255 -24.948128
v 21.608261 -2.033999 -24.948128
v 21.608257 -2.033999 -25.035189
v 21.608257 -2.816805 -22.501471
v 21.608261 -2.992629 -21.900127
v 21.608261 -1.087411 -25.323811
v 21.608261 0.244595 -25.293428
v 21.608261 1.277557 -25.004810
v 21.608257 2.286400 -24.368755
v 21.607771 3.108681 -23.259163
v 21.607773 3.573738 -22.046503
v 21.607773 3.659887 -20.918360
vn -0.1751 0.9706 0.1650
vn -0.5811 0.7649 0.2780
vn -0.0000 1.0000 -0.0000
vn -0.1729 0.9849 -0.0110
vn -0.9859 0.1566 -0.0592
vn -0.6536 0.7212 0.2295
vn -0.9858 0.1566 -0.0599
vn -0.6291 0.7251 0.2802
vn -0.9982 -0.0000 -0.0602
vn -0.7088 0.6658 0.2332
vn -0.5158 0.8236 0.2359
vn -0.3039 0.9525 -0.0186
vn -0.2987 0.9372 0.1801
vn -0.1364 0.9906 -0.0080
vn -0.1341 0.9756 0.1738
vn -0.0000 0.9868 0.1622
vn -0.9550 0.2910 -0.0569
vn -0.9495 0.1303 0.2854
vn -0.9888 0.1366 -0.0599
vn -0.9489 -0.1414 0.2820
vn -0.9873 -0.1474 -0.0598
vn -0.8766 -0.3903 0.2814
vn -0.9119 -0.4067 -0.0553
vn -0.7016 -0.6565 0.2769
vn -0.7293 -0.6827 -0.0443
vn -0.4613 -0.8475 0.2625
vn -0.4771 -0.8784 -0.0289
vn -0.2092 -0.9443 0.2540
vn -0.2141 -0.9767 -0.0128
vn -0.0619 -0.9675 0.2453
vn -0.0587 -0.9983 -0.0035
vn -0.0000 -0.9711 0.2388
vn 0.0017 -1.0000 0.0002
vn 0.1751 0.9706 0.1650
vn 0.1603 0.9870 0.0096
vn 0.5811 0.7649 0.2780
vn 0.9857 0.1567 0.0616
vn 0.9858 0.1567 0.0609
vn 0.6536 0.7212 0.2295
vn 0.6291 0.7251 0.2802
vn 0.9981 -0.0000 0.0621
vn 0.7088 0.6658 0.2332
vn 0.5158 0.8236 0.2359
vn 0.2987 0.9372 0.1801
vn 0.3057 0.9520 0.0190
vn 0.1341 0.9756 0.1738
vn 0.1472 0.9891 0.0095
vn 0.9548 0.2910 0.0601
vn 0.9890 0.1350 0.0612
vn 0.9495 0.1303 0.2854
vn 0.9874 -0.1461 0.0611
vn 0.9489 -0.1414 0.2820
vn 0.9136 -0.4026 0.0566
vn 0.8766 -0.3903 0.2814
vn 0.7358 -0.6756 0.0457
vn 0.7016 -0.6565 0.2769
vn 0.4851 -0.8739 0.0303
vn 0.4613 -0.8475 0.2625
vn 0.2249 -0.9743 0.0143
vn 0.2092 -0.9443 0.2540
vn 0.0600 -0.9982 0.0037
vn 0.0619 -0.9675 0.2453
vn 0.9256 0.2916 0.2413
vn 0.9588 0.1344 0.2502
vn -0.2932 0.9531 -0.0758
vn -0.1260 0.9915 -0.0327
vn -0.7031 -0.6877 -0.1809
vn -0.8834 -0.4100 -0.2269
vn 0.4740 -0.8719 0.1233
vn 0.2234 -0.9730 0.0580
vn 0.9573 -0.1456 0.2498
vn -0.9686 -0.0000 -0.2488
vn -0.4575 -0.8814 -0.1180
vn 0.0588 -0.9982 0.0152
vn 0.1481 0.9882 0.0386
vn -0.9594 0.1380 -0.2461
vn -0.9264 0.2916 -0.2381
vn 0.8864 -0.4011 0.2312
vn 0.2967 0.9518 0.0771
vn 0.0034 -1.0000 0.0009
vn 0.9557 0.1570 0.2491
vn 0.9556 0.1570 0.2492
vn -0.2013 -0.9781 -0.0521
vn -0.9579 -0.1486 -0.2458
vn 0.7162 -0.6725 0.1867
vn 0.1484 0.9882 0.0385
vn -0.1743 0.9837 -0.0449
vn -0.0561 -0.9983 -0.0145
vn -0.9565 0.1570 -0.2457
vn -0.9565 0.1570 -0.2460
vn 0.9676 -0.0000 0.2523
vn -0.1568 0.9837 -0.0885
vn -0.2636 0.9531 -0.1490
vn 0.8694 -0.0000 0.4942
vn -0.1132 0.9915 -0.0642
vn 0.2667 0.9518 0.1513
vn 0.1331 0.9882 0.0756
vn -0.8630 0.1380 -0.4860
vn -0.8332 0.2916 -0.4697
vn 0.1334 0.9882 0.0756
vn -0.8616 -0.1486 -0.4853
vn -0.7946 -0.4100 -0.4478
vn 0.8316 0.2916 0.4726
vn 0.8614 0.1344 0.4898
vn -0.6323 -0.6877 -0.3567
vn 0.8600 -0.1456 0.4890
vn -0.4113 -0.8814 -0.2324
vn 0.7963 -0.4011 0.4527
vn -0.1809 -0.9781 -0.1024
vn 0.6435 -0.6725 0.3657
vn -0.0504 -0.9983 -0.0285
vn -0.8603 0.1570 -0.4849
vn -0.8602 0.1570 -0.4852
vn 0.4259 -0.8719 0.2418
vn 0.0031 -1.0000 0.0017
vn 0.2008 -0.9730 0.1138
vn -0.8712 -0.0000 -0.4910
vn 0.0528 -0.9982 0.0299
vn 0.8587 0.1570 0.4879
vn 0.8586 0.1570 0.4881
vn -0.7078 0.1380 -0.6928
vn -0.6833 0.2916 -0.6694
vn 0.1093 0.9882 0.1075
vn 0.2184 0.9518 0.2152
vn -0.7067 -0.1486 -0.6918
vn -0.6517 -0.4100 -0.6382
vn 0.6809 0.2916 0.6718
vn 0.7053 0.1344 0.6961
vn -0.5184 -0.6877 -0.5082
vn 0.7041 -0.1456 0.6950
vn -0.3372 -0.8814 -0.3309
vn 0.6520 -0.4011 0.6434
vn -0.1483 -0.9781 -0.1458
vn -0.1285 0.9837 -0.1261
vn 0.5269 -0.6725 0.5198
vn -0.0413 -0.9983 -0.0406
vn -0.7055 0.1570 -0.6911
vn -0.7053 0.1570 -0.6913
vn 0.3488 -0.8719 0.3438
vn 0.0025 -1.0000 0.0025
vn 0.1645 -0.9730 0.1619
vn 0.1089 0.9882 0.1075
vn -0.7144 -0.0000 -0.6997
vn 0.0433 -0.9982 0.0425
vn 0.7031 0.1570 0.6935
vn 0.7030 0.1570 0.6937
vn -0.2160 0.9531 -0.2122
vn 0.7118 -0.0000 0.7024
vn -0.0928 0.9915 -0.0913
vn -0.3692 -0.6877 -0.6251
vn -0.4643 -0.4100 -0.7851
vn 0.5011 0.1344 0.8549
vn 0.5003 -0.1456 0.8535
vn -0.2400 -0.8814 -0.4069
vn 0.4633 -0.4011 0.7903
vn -0.1055 -0.9781 -0.1792
vn -0.0915 0.9837 -0.1550
vn 0.3744 -0.6725 0.6384
vn -0.0294 -0.9983 -0.0499
vn -0.5026 0.1570 -0.8501
vn -0.5024 0.1570 -0.8503
vn 0.2479 -0.8719 0.4223
vn 0.0018 -1.0000 0.0030
vn 0.1170 -0.9730 0.1990
vn 0.0774 0.9882 0.1320
vn -0.5089 -0.0000 -0.8608
vn 0.0308 -0.9982 0.0523
vn 0.4997 0.1570 0.8519
vn 0.4995 0.1570 0.8520
vn -0.1537 0.9531 -0.2609
vn 0.5058 -0.0000 0.8627
vn -0.0660 0.9915 -0.1122
vn 0.1553 0.9518 0.2644
vn -0.5044 0.1380 -0.8524
vn -0.4867 0.2916 -0.8234
vn 0.0777 0.9882 0.1321
vn -0.5035 -0.1486 -0.8511
vn 0.4839 0.2916 0.8251
vn -0.0155 -0.9983 -0.0558
vn -0.0555 -0.9781 -0.2004
vn -0.2654 0.1570 -0.9513
vn -0.2652 0.1570 -0.9513
vn 0.1965 -0.6725 0.7136
vn 0.1302 -0.8719 0.4721
vn 0.0010 -1.0000 0.0034
vn 0.0615 -0.9730 0.2225
vn 0.0406 0.9882 0.1476
vn -0.2688 -0.0000 -0.9632
vn 0.0162 -0.9982 0.0585
vn 0.2622 0.1570 0.9522
vn 0.2620 0.1570 0.9522
vn -0.0483 0.9837 -0.1734
vn -0.0810 0.9531 -0.2918
vn 0.2653 -0.0000 0.9642
vn -0.0347 0.9915 -0.1254
vn 0.0816 0.9518 0.2955
vn -0.2666 0.1380 -0.9539
vn -0.2570 0.2916 -0.9213
vn 0.0409 0.9882 0.1477
vn -0.2661 -0.1486 -0.9524
vn -0.2453 -0.4100 -0.8785
vn 0.2538 0.2916 0.9222
vn 0.2627 0.1344 0.9555
vn -0.1949 -0.6877 -0.6993
vn 0.2623 -0.1456 0.9539
vn -0.1265 -0.8814 -0.4552
vn 0.2430 -0.4011 0.8832
vn 0.0684 0.1567 0.9853
vn 0.0675 0.1567 0.9853
vn 0.0043 -0.9982 0.0600
vn 0.0003 -1.0000 0.0019
vn -0.0127 0.9847 -0.1737
vn -0.0213 0.9526 -0.3034
vn 0.0687 -0.0000 0.9976
vn -0.0091 0.9907 -0.1355
vn 0.0213 0.9520 0.3055
vn 0.0106 0.9872 0.1594
vn -0.0705 0.1369 -0.9881
vn -0.0667 0.2912 -0.9543
vn 0.0107 0.9890 0.1478
vn -0.0703 -0.1477 -0.9865
vn -0.0648 -0.4073 -0.9110
vn 0.0666 0.2911 0.9544
vn 0.0676 0.1350 0.9885
vn -0.0515 -0.6835 -0.7281
vn 0.0676 -0.1461 0.9870
vn -0.0333 -0.8788 -0.4760
vn 0.0627 -0.4025 0.9133
vn -0.0146 -0.9769 -0.2131
vn 0.0508 -0.6754 0.7357
vn -0.0041 -0.9983 -0.0585
vn -0.0701 0.1567 -0.9851
vn -0.0691 0.1568 -0.9852
vn 0.0339 -0.8737 0.4852
vn 0.0161 -0.9742 0.2253
vn -0.0706 -0.0000 -0.9975
vn 0.1828 0.9832 -0.0000
vn 0.1959 0.9716 0.1329
vn 0.3118 -0.3866 -0.8679
vn 0.3123 -0.1400 -0.9396
vn 0.2624 0.8231 0.5036
vn 0.3162 0.1290 0.9399
vn 0.3075 -0.6503 -0.6947
vn 0.3123 -0.1400 0.9396
vn 0.2918 -0.8402 -0.4571
vn 0.3118 -0.3866 0.8679
vn 0.2829 -0.9365 -0.2071
vn 0.3109 0.7615 -0.5687
vn 0.1857 0.9668 -0.1755
vn 0.3075 -0.6503 0.6947
vn 0.2671 -0.9622 -0.0523
vn 0.2531 0.7160 -0.6506
vn 0.2918 -0.8402 0.4571
vn 0.2765 -0.9610 -0.0000
vn 0.3130 0.7240 -0.6147
vn 0.2829 -0.9365 0.2071
vn 0.1857 0.9668 0.1755
vn 0.3109 0.7615 0.5687
vn 0.2566 0.6609 -0.7053
vn 0.2671 -0.9622 0.0523
vn 0.2531 0.7160 0.6506
vn 0.2624 0.8231 -0.5036
vn 0.3130 0.7240 0.6147
vn 0.2025 0.9331 -0.2973
vn 0.2566 0.6609 0.7053
vn 0.1959 0.9716 -0.1329
vn 0.2025 0.9331 0.2973
vn 0.3162 0.1290 -0.9399
vn -0.1973 -0.8538 0.4817
vn -0.0608 -0.8807 0.4698
vn -0.5972 0.6225 0.5058
vn -0.4894 0.7466 0.4505
vn -0.8384 -0.1243 0.5307
vn -0.7772 -0.3423 0.5280
vn 0.4222 -0.7580 0.4971
vn 0.6315 -0.5769 0.5180
vn -0.1430 0.9297 0.3394
vn -0.2869 0.8902 0.3538
vn 0.5316 0.7129 0.4575
vn 0.6468 0.5654 0.5118
vn -0.0000 -0.8825 0.4704
vn 0.8379 0.1154 0.5335
vn 0.5826 0.6551 0.4812
vn -0.6468 0.5654 0.5118
vn -0.6315 -0.5769 0.5180
vn 0.1973 -0.8538 0.4817
vn -0.0000 0.9474 0.3200
vn 0.5972 0.6225 0.5058
vn 0.1337 0.9377 0.3206
vn 0.8384 -0.1243 0.5307
vn -0.5316 0.7129 0.4575
vn -0.4222 -0.7580 0.4971
vn 0.2869 0.8902 0.3538
vn 0.0608 -0.8807 0.4698
vn -0.5826 0.6551 0.4812
vn -0.8379 0.1154 0.5335
vn 0.7772 -0.3423 0.5280
vn -0.1337 0.9377 0.3206
vn 0.4894 0.7466 0.4505
vn 0.1430 0.9297 0.3394
vn 0.3961 0.8739 0.2819
vn 0.3593 0.9243 0.1287
vn 0.5839 0.1108 -0.8042
vn 0.5319 0.6290 -0.5670
vn 0.3807 0.9138 0.1416
vn 0.5811 -0.1193 -0.8051
vn 0.3594 0.9332 -0.0000
vn 0.5783 -0.3287 -0.7467
vn 0.5319 0.6290 0.5670
vn 0.5839 0.1108 0.8042
vn 0.5683 -0.5544 -0.6080
vn 0.5811 -0.1193 0.8051
vn 0.5471 -0.7309 -0.4080
vn 0.5783 -0.3287 0.7467
vn 0.5312 -0.8254 -0.1912
vn 0.5563 0.5972 -0.5778
vn 0.3593 0.9243 -0.1288
vn 0.5683 -0.5544 0.6080
vn 0.5185 -0.8540 -0.0415
vn 0.4943 0.7356 -0.4632
vn 0.5471 -0.7309 0.4080
vn 0.5180 -0.8554 -0.0000
vn 0.5625 0.5412 -0.6251
vn 0.5312 -0.8254 0.1912
vn 0.5563 0.5972 0.5778
vn 0.5006 0.7050 -0.5023
vn 0.5185 -0.8540 0.0415
vn 0.4944 0.7356 0.4632
vn 0.5625 0.5412 0.6251
vn 0.3961 0.8739 -0.2819
vn 0.5006 0.7050 0.5023
vn 0.3807 0.9138 -0.1416
vt 3.995035 0.122410
vt 3.995035 0.683603
vt 3.328501 0.683603
vt 3.328501 0.122410
vt 3.995036 0.809899
vt 3.328502 0.809899
vt 3.995034 0.885907
vt 3.328501 0.885908
vt 3.995035 0.968285
vt 3.328501 0.968285
vt 3.995035 0.995632
vt 3.328501 0.995632
vt 3.995034 0.122410
vt 3.328500 0.122410
vt 3.328501 0.004366
vt 3.995034 0.004366
vt 6.071139 0.991128
vt 5.009970 0.991128
vt 5.009970 0.690402
vt 6.071139 0.690402
vt 5.009969 0.008872
vt 6.071139 0.008872
vt 1.209840 0.000060
vt 1.451498 0.000060
vt 1.451499 0.112762
vt 1.209840 0.112762
vt 1.451498 0.264496
vt 1.209840 0.264496
vt 1.209840 0.264496
vt 1.451498 0.386640
vt 1.209840 0.386640
vt 1.209840 0.386640
vt 1.451499 0.522460
vt 1.209840 0.522460
vt 1.451554 0.679742
vt 1.209895 0.679742
vt 1.209895 0.679742
vt 1.451554 0.827653
vt 1.209896 0.827653
vt 1.451554 0.956505
vt 1.209895 0.956505
vt 1.450012 0.999940
vt 1.208353 0.999940
vt 5.009970 0.008872
vt 1.208353 0.999940
vt -1.844528 0.117170
vt -1.844528 0.004945
vt -1.227316 0.004944
vt -1.227316 0.117170
vt 9.008749 0.685526
vt 9.008749 0.998390
vt 6.328256 0.998390
vt 6.328256 0.685526
vt 5.020387 0.811151
vt 5.020387 0.886822
vt 3.511993 0.886822
vt 3.511993 0.811151
vt 1.694263 0.390633
vt 1.694263 0.525409
vt 1.208861 0.525409
vt 1.208861 0.390633
vt -1.844528 0.829041
vt -1.844528 0.681756
vt -1.227316 0.681756
vt -1.227316 0.829041
vt -5.948774 0.992507
vt -5.948774 0.965169
vt -4.055295 0.965169
vt -4.055295 0.992507
vt -1.844528 0.268263
vt -1.227316 0.268263
vt 9.008749 0.004979
vt 6.328256 0.004979
vt 5.020387 0.968833
vt 3.511993 0.968834
vt 1.694263 0.681483
vt 1.208861 0.681483
vt -1.844528 0.957349
vt -1.227316 0.957349
vt -5.948774 0.680581
vt -5.948774 0.119578
vt -4.055295 0.119578
vt -4.055295 0.680581
vt 1.694263 0.007024
vt 1.694263 0.118860
vt 1.208861 0.118860
vt 1.208861 0.007024
vt -1.844528 0.389891
vt -1.227316 0.389891
vt -5.948774 0.001574
vt -4.055295 0.001574
vt -1.844528 1.000628
vt -1.227316 1.000628
vt -5.948774 0.806836
vt -4.055295 0.806836
vt 5.020387 0.996059
vt 3.511993 0.996059
vt 1.694263 0.828256
vt 1.208861 0.828256
vt 1.694263 0.269428
vt 1.208861 0.269428
vt -1.844528 0.525138
vt -1.227316 0.525138
vt -9.329956 0.995100
vt -9.329956 0.683561
vt -6.283457 0.683563
vt -6.283458 0.995100
vt 5.020387 0.126714
vt 5.020387 0.685415
vt 3.511993 0.685415
vt 3.511992 0.126714
vt -5.948774 0.882819
vt -4.055295 0.882819
vt 1.694263 0.956118
vt 1.208861 0.956118
vt 5.020387 0.009195
vt 3.511992 0.009195
vt -9.329956 0.005901
vt -6.283458 0.005901
vt 1.694263 0.999246
vt 1.208861 0.999246
vt 2.003598 0.126714
vt 2.003598 0.009195
vt -2.161815 0.882818
vt -2.161815 0.965169
vt 3.647764 0.998390
vt 3.647764 0.685526
vt -2.161815 0.992507
vt 3.647764 0.004979
vt -2.161815 0.001573
vt -2.161815 0.119578
vt 0.723459 0.118860
vt 0.723459 0.007025
vt -3.236956 0.683561
vt -3.236956 0.995100
vt 0.723459 0.269428
vt -3.236956 0.005901
vt 0.723459 0.390633
vt -0.610104 0.004944
vt -0.610104 0.117170
vt 0.723459 0.525409
vt -0.610104 0.268263
vt 0.723459 0.681483
vt -0.610104 0.389891
vt 0.723459 0.828256
vt 2.003598 0.685415
vt -0.610104 0.525138
vt 0.723459 0.956118
vt 2.003598 0.811151
vt -0.610104 0.681756
vt 0.723459 0.999246
vt 2.003598 0.886822
vt -0.610104 0.829041
vt -2.161815 0.680581
vt 2.003598 0.968834
vt -0.610104 0.957349
vt -2.161815 0.806836
vt 2.003598 0.996059
vt -0.610104 1.000628
vt 0.238057 0.118860
vt 0.238057 0.007025
vt -0.190456 0.683561
vt -0.190456 0.995100
vt 0.238057 0.269428
vt -0.190456 0.005901
vt 0.238057 0.390633
vt 0.007107 0.004944
vt 0.007107 0.117170
vt 0.238057 0.525409
vt 0.007107 0.268263
vt 0.238057 0.681483
vt 0.007107 0.389891
vt 0.238057 0.828256
vt 0.495204 0.685415
vt 0.495204 0.126714
vt 0.007107 0.525138
vt 0.238057 0.956118
vt 0.495204 0.811151
vt 0.007107 0.681756
vt 0.238057 0.999246
vt 0.495204 0.886822
vt 0.007107 0.829041
vt -0.268336 0.119578
vt -0.268336 0.680581
vt 0.495204 0.968834
vt 0.007107 0.957349
vt -0.268336 0.806835
vt 0.495204 0.996059
vt 0.007107 1.000628
vt -0.268336 0.882818
vt 0.495204 0.009195
vt -0.268336 0.965169
vt 0.967273 0.998390
vt 0.967273 0.685526
vt -0.268336 0.992506
vt 0.967273 0.004979
vt -0.268336 0.001573
vt -0.247345 0.525409
vt -0.247345 0.390633
vt 0.624319 0.117170
vt 0.624319 0.268263
vt -0.247345 0.681483
vt 0.624319 0.389891
vt -0.247345 0.828256
vt -1.013190 0.685415
vt -1.013190 0.126714
vt 0.624319 0.525138
vt -0.247345 0.956118
vt -1.013190 0.811151
vt 0.624319 0.681756
vt -0.247345 0.999246
vt -1.013190 0.886822
vt 0.624319 0.829041
vt 1.625144 0.119578
vt 1.625144 0.680581
vt -1.013190 0.968834
vt 0.624319 0.957349
vt 1.625143 0.806835
vt -1.013190 0.996059
vt 0.624319 1.000628
vt 1.625143 0.882818
vt -1.013190 0.009195
vt 1.625144 0.965169
vt -1.713219 0.998390
vt -1.713219 0.685526
vt 1.625143 0.992506
vt -1.713219 0.004979
vt 1.625144 0.001573
vt -0.247345 0.118860
vt -0.247345 0.007025
vt 2.856045 0.683561
vt 2.856045 0.995100
vt -0.247345 0.269428
vt 2.856045 0.005901
vt 0.624319 0.004944
vt -0.732747 0.956118
vt -0.732747 0.828256
vt -2.521584 0.811151
vt -2.521584 0.685415
vt 1.241530 0.525138
vt 1.241531 0.681756
vt -0.732747 0.999246
vt -2.521584 0.886822
vt 1.241530 0.829041
vt 3.518623 0.119578
vt 3.518623 0.680581
vt -2.521584 0.968834
vt 1.241530 0.957349
vt 3.518623 0.806835
vt -2.521584 0.996059
vt 1.241530 1.000628
vt 3.518622 0.882818
vt -2.521584 0.126714
vt -2.521584 0.009195
vt 3.518623 0.965168
vt -4.393712 0.998390
vt -4.393712 0.685526
vt 3.518623 0.992506
vt -4.393712 0.004979
vt 3.518623 0.001573
vt -0.732747 0.118860
vt -0.732747 0.007025
vt 5.902545 0.683561
vt 5.902545 0.995099
vt -0.732747 0.269428
vt 5.902545 0.005901
vt -0.732747 0.390633
vt 1.241530 0.004944
vt 1.241530 0.117170
vt -0.732747 0.525409
vt 1.241530 0.268263
vt -0.732747 0.681483
vt 1.241530 0.389891
vt 5.412102 0.680581
vt 5.412103 0.806835
vt -4.029978 0.996060
vt -4.029978 0.968834
vt 1.858742 0.957349
vt 1.858742 1.000628
vt 5.412102 0.882818
vt -4.029978 0.126714
vt -4.029978 0.009195
vt 5.412102 0.965168
vt -7.074203 0.998390
vt -7.074203 0.685526
vt 5.412103 0.992506
vt -7.074203 0.004979
vt 5.412102 0.001573
vt 5.412102 0.119577
vt -1.218149 0.118860
vt -1.218149 0.007025
vt 8.949046 0.683561
vt 8.949046 0.995099
vt -1.218149 0.269428
vt 8.949046 0.005901
vt -1.218149 0.390633
vt 1.858742 0.004944
vt 1.858742 0.117170
vt -1.218149 0.525409
vt 1.858742 0.268263
vt -1.218149 0.681483
vt 1.858742 0.389891
vt -1.218149 0.828256
vt -4.029978 0.685416
vt 1.858742 0.525137
vt -1.218149 0.956118
vt -4.029978 0.811151
vt 1.858742 0.681756
vt -1.218149 0.999246
vt -4.029978 0.886822
vt 1.858742 0.829041
vt 10.153372 0.005901
vt 10.153372 0.683561
vt -1.410035 0.390633
vt -1.410035 0.269428
vt 2.102735 0.004944
vt 2.102735 0.117170
vt -1.410035 0.525409
vt 2.102735 0.268263
vt -1.410035 0.681483
vt 2.102735 0.389891
vt -1.410035 0.828256
vt -4.626268 0.685415
vt -4.626268 0.126714
vt 2.102735 0.525137
vt -1.410035 0.956118
vt -4.626268 0.811151
vt 2.102735 0.681756
vt -1.410035 0.999246
vt -4.626268 0.886822
vt 2.102735 0.829041
vt 6.160621 0.119577
vt 6.160621 0.680581
vt -4.626268 0.968834
vt 2.102735 0.957349
vt 6.160622 0.806835
vt -4.626268 0.996059
vt 2.102735 1.000628
vt 6.160621 0.882818
vt -4.626268 0.009195
vt 6.160621 0.965168
vt -8.133841 0.998390
vt -8.133841 0.685526
vt 6.160622 0.992506
vt -8.133841 0.004979
vt 6.160621 0.001573
vt -1.410035 0.118860
vt -1.410035 0.007025
vt 10.153372 0.995099
s 1
usemtl bricks
f 12/23/17 11/24/11 19/25/18 20/26/19
f 20/26/19 19/25/18 21/27/20 22/28/21
f 22/29/21 21/27/20 23/30/22 24/31/23
f 24/32/23 23/30/22 25/33/24 26/34/25
f 26/34/25 25/33/24 27/35/26 28/36/27
f 28/37/27 27/35/26 29/38/28 30/39/29
f 30/39/29 29/38/28 31/40/30 32/41/31
f 32/41/31 31/40/30 33/42/32 34/43/33
f 46/23/48 52/26/49 51/25/50 45/24/43
f 52/26/49 54/29/51 53/27/52 51/25/50
f 54/28/51 56/32/53 55/30/54 53/27/52
f 56/31/53 58/34/55 57/33/56 55/30/54
f 58/34/55 60/37/57 59/35/58 57/33/56
f 60/36/57 62/39/59 61/38/60 59/35/58
f 62/39/59 64/41/61 63/40/62 61/38/60
f 64/41/61 34/45/33 33/42/32 63/40/62
f 52/46/49 46/47/48 87/48/63 90/49/64
f 24/58/23 26/59/25 77/60/67 76/61/68
f 62/62/59 60/63/57 94/64/69 95/65/70
f 54/70/51 52/46/49 90/49/64 91/71/71
f 26/59/25 28/76/27 78/77/73 77/60/67
f 64/78/61 62/62/59 95/65/70 96/79/74
f 12/84/17 20/85/19 74/86/76 70/87/77
f 56/88/53 54/70/51 91/71/71 92/89/78
f 34/92/33 64/78/61 96/79/74 81/93/80
f 28/76/27 30/98/29 79/99/83 78/77/73
f 20/85/19 22/100/21 75/101/84 74/86/76
f 58/102/55 56/88/53 92/89/78 93/103/85
f 30/98/29 32/114/31 80/115/88 79/99/83
f 22/100/21 24/58/23 76/61/68 75/101/84
f 60/63/57 58/102/55 93/103/85 94/64/69
f 32/114/31 34/120/33 81/121/80 80/115/88
f 70/87/77 74/86/76 106/132/98 102/133/99
f 74/86/76 75/101/84 107/136/101 106/132/98
f 75/101/84 76/61/68 108/138/102 107/136/101
f 90/49/64 87/48/63 119/139/103 122/140/104
f 76/61/68 77/60/67 109/141/105 108/138/102
f 91/71/71 90/49/64 122/140/104 123/142/106
f 77/60/67 78/77/73 110/143/107 109/141/105
f 92/89/78 91/71/71 123/142/106 124/144/108
f 78/77/73 79/99/83 111/145/109 110/143/107
f 93/103/85 92/89/78 124/144/108 125/147/110
f 79/99/83 80/115/88 112/148/111 111/145/109
f 94/64/69 93/103/85 125/147/110 126/150/114
f 80/115/88 81/121/80 113/151/115 112/148/111
f 95/65/70 94/64/69 126/150/114 127/153/116
f 96/79/74 95/65/70 127/153/116 128/156/118
f 81/93/80 96/79/74 128/156/118 113/159/115
f 102/133/99 106/132/98 138/160/121 134/161/122
f 106/132/98 107/136/101 139/164/125 138/160/121
f 107/136/101 108/138/102 140/166/126 139/164/125
f 122/140/104 119/139/103 151/167/127 154/168/128
f 108/138/102 109/141/105 141/169/129 140/166/126
f 123/142/106 122/140/104 154/168/128 155/170/130
f 109/141/105 110/143/107 142/171/131 141/169/129
f 124/144/108 123/142/106 155/170/130 156/172/132
f 110/143/107 111/145/109 143/173/133 142/171/131
f 125/147/110 124/144/108 156/172/132 157/176/135
f 111/145/109 112/148/111 144/177/136 143/173/133
f 126/150/114 125/147/110 157/176/135 158/179/139
f 112/148/111 113/151/115 145/180/140 144/177/136
f 127/153/116 126/150/114 158/179/139 159/182/141
f 128/156/118 127/153/116 159/182/141 160/186/144
f 113/159/115 128/156/118 160/186/144 145/189/140
f 140/166/126 141/169/129 173/198/150 172/199/151
f 155/170/130 154/168/128 186/200/152 187/201/153
f 141/169/129 142/171/131 174/202/154 173/198/150
f 156/172/132 155/170/130 187/201/153 188/203/155
f 142/171/131 143/173/133 175/204/156 174/202/154
f 157/176/135 156/172/132 188/203/155 189/207/158
f 143/173/133 144/177/136 176/208/159 175/204/156
f 158/179/139 157/176/135 189/207/158 190/210/162
f 144/177/136 145/180/140 177/211/163 176/208/159
f 159/182/141 158/179/139 190/210/162 191/213/164
f 160/186/144 159/182/141 191/213/164 192/217/167
f 145/189/140 160/186/144 192/217/167 177/220/163
f 134/161/122 138/160/121 170/229/174 166/230/175
f 138/160/121 139/164/125 171/233/177 170/229/174
f 139/164/125 140/166/126 172/199/151 171/233/177
f 154/168/128 151/167/127 183/235/178 186/200/152
f 175/204/156 176/208/159 208/236/179 207/237/180
f 190/210/162 189/207/158 221/240/183 222/241/184
f 176/208/159 177/211/163 209/242/185 208/236/179
f 191/213/164 190/210/162 222/241/184 223/244/186
f 192/217/167 191/213/164 223/244/186 224/248/189
f 177/220/163 192/217/167 224/248/189 209/251/185
f 166/230/175 170/229/174 202/261/197 198/262/198
f 170/229/174 171/233/177 203/265/200 202/261/197
f 171/233/177 172/199/151 204/267/201 203/265/200
f 186/200/152 183/235/178 215/268/202 218/269/203
f 172/199/151 173/198/150 205/270/204 204/267/201
f 187/201/153 186/200/152 218/269/203 219/271/205
f 173/198/150 174/202/154 206/272/206 205/270/204
f 188/203/155 187/201/153 219/271/205 220/273/207
f 174/202/154 175/204/156 207/237/180 206/272/206
f 189/207/158 188/203/155 220/273/207 221/240/183
f 209/251/185 224/248/189 256/278/210 241/279/211
f 198/262/198 202/261/197 234/290/218 230/291/219
f 202/261/197 203/265/200 235/294/221 234/290/218
f 203/265/200 204/267/201 236/296/222 235/294/221
f 218/269/203 215/268/202 247/297/223 250/298/224
f 204/267/201 205/270/204 237/299/225 236/296/222
f 219/271/205 218/269/203 250/298/224 251/300/226
f 205/270/204 206/272/206 238/301/227 237/299/225
f 220/273/207 219/271/205 251/300/226 252/302/228
f 206/272/206 207/237/180 239/303/229 238/301/227
f 221/240/183 220/273/207 252/302/228 253/305/230
f 207/237/180 208/236/179 240/306/231 239/303/229
f 222/241/184 221/240/183 253/305/230 254/308/234
f 208/236/179 209/242/185 241/309/211 240/306/231
f 223/244/186 222/241/184 254/308/234 255/311/235
f 224/248/189 223/244/186 255/311/235 256/278/210
f 235/294/221 236/296/222 268/314/239 267/315/240
f 250/298/224 247/297/223 279/316/241 282/317/242
f 236/296/222 237/299/225 269/318/243 268/314/239
f 251/300/226 250/298/224 282/317/242 283/319/244
f 237/299/225 238/301/227 270/320/245 269/318/243
f 252/302/228 251/300/226 283/319/244 284/321/246
f 238/301/227 239/303/229 271/322/247 270/320/245
f 253/305/230 252/302/228 284/321/246 285/325/250
f 239/303/229 240/306/231 272/326/251 271/322/247
f 254/308/234 253/305/230 285/325/250 286/328/253
f 240/306/231 241/309/211 273/329/254 272/326/251
f 255/311/235 254/308/234 286/328/253 287/331/256
f 256/278/210 255/311/235 287/331/256 288/335/260
f 241/279/211 256/278/210 288/335/260 273/338/254
f 230/291/219 234/290/218 266/347/268 262/348/262
f 234/290/218 235/294/221 267/315/240 266/347/268
f 31/40/30 29/38/28 303/38/269 304/40/270
f 23/30/22 21/27/20 299/27/273 300/30/274
f 57/33/56 59/35/58 318/35/275 317/33/276
f 33/42/32 31/40/30 304/40/270 305/42/281
f 45/24/43 51/25/50 314/25/282 311/24/283
f 25/33/24 23/30/22 300/30/274 301/33/285
f 59/35/58 61/38/60 319/38/286 318/35/275
f 51/25/50 53/27/52 315/27/290 314/25/282
f 27/35/26 25/33/24 301/33/285 302/35/292
f 61/38/60 63/40/62 320/40/294 319/38/286
f 19/25/18 11/24/11 294/24/295 298/25/296
f 53/27/52 55/30/54 316/30/297 315/27/290
f 63/40/62 33/42/32 305/42/281 320/40/294
f 29/38/28 27/35/26 302/35/292 303/38/269
f 21/27/20 19/25/18 298/25/296 299/27/273
f 55/30/54 57/33/56 317/33/276 316/30/297
f 262/348/262 266/347/268 330/347/303 326/348/304
f 266/347/268 267/315/240 331/315/306 330/347/303
f 267/315/240 268/314/239 332/314/308 331/315/306
f 282/317/242 279/316/241 343/316/309 346/317/310
f 268/314/239 269/318/243 333/318/311 332/314/308
f 283/319/244 282/317/242 346/317/310 347/319/312
f 269/318/243 270/320/245 334/320/313 333/318/311
f 284/321/246 283/319/244 347/319/312 348/321/314
f 270/320/245 271/322/247 335/322/315 334/320/313
f 285/325/250 284/321/246 348/321/314 349/325/318
f 271/322/247 272/326/251 336/326/319 335/322/315
f 286/328/253 285/325/250 349/325/318 350/328/321
f 272/326/251 273/329/254 337/329/322 336/326/319
f 287/331/256 286/328/253 350/328/321 351/331/324
f 288/335/260 287/331/256 351/331/324 352/335/327
f 273/338/254 288/335/260 352/335/327 337/338/322
usemtl concrete_base_02
f 1/1/1 2/2/2 4/3/3 3/4/4
f 4/3/5 2/2/2 5/5/6 6/6/7
f 6/6/3 5/5/6 7/7/8 8/8/3
f 8/8/9 7/7/8 9/9/10 10/10/9
f 10/10/3 9/9/10 11/11/11 12/12/3
f 1/13/1 3/14/4 14/15/12 13/16/13
f 35/1/34 37/4/35 38/3/3 36/2/36
f 38/3/37 40/6/38 39/5/39 36/2/36
f 40/6/3 42/8/3 41/7/40 39/5/39
f 42/8/41 44/10/41 43/9/42 41/7/40
f 44/10/3 46/12/3 45/11/43 43/9/42
f 35/13/34 47/16/44 48/15/45 37/14/35
f 6/54/3 8/55/3 68/56/3 67/57/3
f 46/66/3 44/67/3 86/68/3 87/69/3
f 8/55/9 10/74/9 69/75/72 68/56/72
f 38/80/3 37/81/35 82/82/75 83/83/3
f 37/81/35 48/90/45 88/91/79 82/82/75
f 40/94/38 38/80/37 83/83/81 84/95/82
f 10/74/3 12/96/3 70/97/3 69/75/3
f 3/108/4 4/109/3 66/110/3 65/111/87
f 42/112/3 40/94/3 84/95/3 85/113/3
f 14/116/12 3/108/4 65/111/87 71/117/65
f 4/109/5 6/54/7 67/57/89 66/110/90
f 44/67/41 42/112/41 85/113/91 86/68/91
f 71/117/65 65/111/87 97/122/92 103/123/93
f 86/68/91 85/113/91 117/124/94 118/125/94
f 87/69/3 86/68/3 118/125/3 119/128/3
f 82/82/75 88/91/79 120/130/96 114/131/97
f 65/111/87 66/110/3 98/146/3 97/122/92
f 66/110/90 67/57/89 99/149/112 98/146/113
f 67/57/3 68/56/3 100/152/3 99/149/3
f 83/83/3 82/82/75 114/131/97 115/154/3
f 68/56/72 69/75/72 101/155/117 100/152/117
f 84/95/82 83/83/81 115/154/119 116/157/120
f 69/75/3 70/97/3 102/158/3 101/155/3
f 85/113/3 84/95/3 116/157/3 117/124/3
f 97/122/92 98/146/3 130/174/3 129/175/134
f 98/146/113 99/149/112 131/178/137 130/174/138
f 99/149/3 100/152/3 132/181/3 131/178/3
f 115/154/3 114/131/97 146/183/142 147/184/3
f 100/152/117 101/155/117 133/185/143 132/181/143
f 116/157/120 115/154/119 147/184/145 148/187/146
f 101/155/3 102/158/3 134/188/3 133/185/3
f 117/124/3 116/157/3 148/187/3 149/190/3
f 103/123/93 97/122/92 129/175/134 135/191/147
f 118/125/94 117/124/94 149/190/148 150/192/148
f 119/128/3 118/125/3 150/192/3 151/195/3
f 114/131/97 120/130/96 152/197/124 146/183/142
f 129/175/134 130/174/3 162/205/3 161/206/157
f 130/174/138 131/178/137 163/209/160 162/205/161
f 131/178/3 132/181/3 164/212/3 163/209/3
f 147/184/3 146/183/142 178/214/165 179/215/3
f 132/181/143 133/185/143 165/216/166 164/212/166
f 148/187/146 147/184/145 179/215/168 180/218/169
f 133/185/3 134/188/3 166/219/3 165/216/3
f 149/190/3 148/187/3 180/218/3 181/221/3
f 135/191/147 129/175/134 161/206/157 167/222/170
f 150/192/148 149/190/148 181/221/171 182/223/171
f 151/195/3 150/192/3 182/223/3 183/226/3
f 146/183/142 152/197/124 184/228/173 178/214/165
f 162/205/161 163/209/160 195/238/181 194/239/182
f 163/209/3 164/212/3 196/243/3 195/238/3
f 179/215/3 178/214/165 210/245/187 211/246/3
f 164/212/166 165/216/166 197/247/188 196/243/188
f 180/218/169 179/215/168 211/246/190 212/249/191
f 165/216/3 166/219/3 198/250/3 197/247/3
f 181/221/3 180/218/3 212/249/3 213/252/3
f 167/222/170 161/206/157 193/253/192 199/254/193
f 182/223/171 181/221/171 213/252/194 214/255/194
f 183/226/3 182/223/3 214/255/3 215/258/3
f 178/214/165 184/228/173 216/260/196 210/245/187
f 161/206/157 162/205/3 194/239/3 193/253/192
f 212/249/191 211/246/190 243/274/208 244/275/209
f 197/247/3 198/250/3 230/276/3 229/277/3
f 213/252/3 212/249/3 244/275/3 245/280/3
f 199/254/193 193/253/192 225/281/212 231/282/213
f 214/255/194 213/252/194 245/280/214 246/283/214
f 215/258/3 214/255/3 246/283/3 247/286/3
f 210/245/187 216/260/196 248/288/216 242/289/217
f 193/253/192 194/239/3 226/304/3 225/281/212
f 194/239/182 195/238/181 227/307/232 226/304/233
f 195/238/3 196/243/3 228/310/3 227/307/3
f 211/246/3 210/245/187 242/289/217 243/274/3
f 196/243/188 197/247/188 229/277/236 228/310/236
f 225/281/212 226/304/3 258/323/248 257/324/249
f 226/304/233 227/307/232 259/327/252 258/323/248
f 227/307/3 228/310/3 260/330/255 259/327/252
f 243/274/3 242/289/217 274/332/257 275/333/258
f 228/310/236 229/277/236 261/334/259 260/330/255
f 244/275/209 243/274/208 275/333/258 276/336/261
f 229/277/3 230/276/3 262/337/262 261/334/259
f 245/280/3 244/275/3 276/336/261 277/339/263
f 231/282/213 225/281/212 257/324/249 263/340/264
f 246/283/214 245/280/214 277/339/263 278/341/265
f 247/286/3 246/283/3 278/341/265 279/344/241
f 242/289/217 248/288/216 280/346/267 274/332/257
f 5/5/6 2/2/2 290/2/271 291/5/272
f 41/7/40 43/9/42 310/9/279 309/7/280
f 7/7/8 5/5/6 291/5/272 292/7/284
f 35/1/34 36/2/36 307/2/288 306/1/289
f 43/9/42 45/11/43 311/11/283 310/9/279
f 9/9/10 7/7/8 292/7/284 293/9/291
f 47/16/44 35/13/34 306/13/289 312/16/293
f 2/2/2 1/1/1 289/1/298 290/2/271
f 36/2/36 39/5/39 308/5/299 307/2/288
f 11/11/11 9/9/10 293/9/291 294/11/295
f 1/13/1 13/16/13 295/16/278 289/13/298
f 39/5/39 41/7/40 309/7/280 308/5/299
f 274/332/257 280/346/267 344/346/301 338/332/302
f 257/324/249 258/323/248 322/323/316 321/324/317
f 258/323/248 259/327/252 323/327/320 322/323/316
f 259/327/252 260/330/255 324/330/323 323/327/320
f 275/333/258 274/332/257 338/332/302 339/333/325
f 260/330/255 261/334/259 325/334/326 324/330/323
f 276/336/261 275/333/258 339/333/325 340/336/328
f 261/334/259 262/337/262 326/337/304 325/334/326
f 277/339/263 276/336/261 340/336/328 341/339/329
f 263/340/264 257/324/249 321/324/317 327/340/330
f 278/341/265 277/339/263 341/339/329 342/341/331
f 279/344/241 278/341/265 342/341/331 343/344/309
usemtl concrete_dirty
f 13/17/13 14/18/12 16/19/14 15/20/15
f 15/20/15 16/19/14 18/21/3 17/22/16
f 47/17/44 49/20/46 50/19/47 48/18/45
f 49/20/46 17/22/16 18/44/3 50/19/47
f 16/50/14 14/51/12 71/52/65 72/53/66
f 18/72/3 16/50/14 72/53/66 73/73/3
f 48/104/45 50/105/47 89/106/86 88/107/79
f 50/105/47 18/118/3 73/119/3 89/106/86
f 72/53/66 71/52/65 103/126/93 104/127/95
f 73/73/3 72/53/66 104/127/95 105/129/3
f 88/107/79 89/106/86 121/134/100 120/135/96
f 89/106/86 73/119/3 105/137/3 121/134/100
f 120/135/96 121/134/100 153/162/123 152/163/124
f 121/134/100 105/137/3 137/165/3 153/162/123
f 104/127/95 103/126/93 135/193/147 136/194/149
f 105/129/3 104/127/95 136/194/149 137/196/3
f 136/194/149 135/193/147 167/224/170 168/225/172
f 137/196/3 136/194/149 168/225/172 169/227/3
f 152/163/124 153/162/123 185/231/176 184/232/173
f 153/162/123 137/165/3 169/234/3 185/231/176
f 168/225/172 167/224/170 199/256/193 200/257/195
f 169/227/3 168/225/172 200/257/195 201/259/3
f 184/232/173 185/231/176 217/263/199 216/264/196
f 185/231/176 169/234/3 201/266/3 217/263/199
f 200/257/195 199/256/193 231/284/213 232/285/215
f 201/259/3 200/257/195 232/285/215 233/287/3
f 216/264/196 217/263/199 249/292/220 248/293/216
f 217/263/199 201/266/3 233/295/3 249/292/220
f 249/292/220 233/295/3 265/312/237 281/313/238
f 232/285/215 231/284/213 263/342/264 264/343/266
f 233/287/3 232/285/215 264/343/266 265/345/237
f 248/293/216 249/292/220 281/313/238 280/349/267
f 13/17/13 15/20/15 296/20/277 295/17/278
f 15/20/15 17/22/16 297/22/287 296/20/277
f 49/20/46 47/17/44 312/17/293 313/20/300
f 17/22/16 49/20/46 313/20/300 297/22/287
f 280/349/267 281/313/238 345/313/305 344/349/301
f 281/313/238 265/312/237 329/312/307 345/313/305
f 264/343/266 263/342/264 327/342/330 328/343/332
f 265/345/237 264/343/266 328/343/332 329/345/307
