# Blender 4.5.9 LTS
# www.blender.org
mtllib SerwersP_003.mtl
o SerwersP_003
v -1.059938 0.894868 -1.828490
v 2.065938 0.894867 -1.183931
v -1.059938 0.077983 -1.828490
v 2.065938 0.077983 -1.183932
v 1.421379 -1.280071 -1.828490
v 2.065938 -1.280071 1.297386
v 2.065938 0.077983 1.297386
v 1.421380 0.077983 -1.828490
v -1.059938 -1.280071 -1.828490
v 2.065938 -1.280071 -1.183932
v 1.421380 0.894867 -1.828490
v 2.065938 0.894867 1.297386
v 2.065938 1.954391 0.056727
v 0.180720 1.954391 -1.828490
v 2.065938 1.827539 0.623498
v 0.747491 1.827540 -1.828490
v 2.065938 1.495200 1.051801
v 1.175794 1.495200 -1.828490
v -0.814352 1.495200 -1.828490
v 2.065938 1.495200 -0.938346
v 2.065938 1.827539 -0.510044
v -0.386050 1.827540 -1.828490
v -2.120783 0.894868 -1.183931
v -2.120783 0.077983 -1.183931
v -2.120783 -1.280071 1.297386
v -2.120783 0.077983 1.297386
v -2.120783 -1.280071 -1.183932
v -2.120783 0.894867 1.297387
v -2.120783 1.954391 0.056727
v -2.120783 1.827540 0.623498
v -2.120783 1.495200 1.051801
v -2.120783 1.495200 -0.938346
v -2.120783 1.827540 -0.510044
v -0.814352 1.495200 -0.938346
v -0.814352 1.495200 1.051801
v -1.059937 0.894867 1.297386
v -1.059938 0.894868 -1.183931
v 1.421380 0.077983 1.297386
v 1.421380 0.077983 -1.183932
v 1.421380 0.894867 1.297386
v 1.421380 0.894867 -1.183931
v 0.180720 1.954391 0.056727
v -0.386050 1.827540 0.623498
v -0.386050 1.827540 -0.510044
v 1.421380 0.894867 -1.183931
v 1.175795 1.495200 -0.938346
v 1.175794 1.495200 -0.938346
v 1.175795 1.495200 1.051801
v 0.747492 1.827540 0.623498
v 0.747491 1.827540 -0.510044
v -1.059938 0.077983 1.297386
v -1.059938 0.077983 -1.183932
v -1.059938 -1.280071 -1.183932
v -1.059938 -1.280071 1.297386
v 1.421380 -1.280071 1.297386
v 1.421380 -1.280071 0.915380
v 1.421379 -1.280071 -1.183932
v -0.431214 -1.280071 1.297386
v 0.217907 -1.280071 0.202125
vn 0.9771 -0.2128 -0.0000
vn 0.9812 -0.1929 -0.0000
vn 0.7963 -0.6049 -0.0000
vn 0.7456 -0.6664 -0.0000
vn -0.9812 -0.1929 -0.0000
vn -1.0000 -0.0000 -0.0000
vn 0.1722 -0.9699 0.1722
vn 0.4260 -0.9047 -0.0000
vn -0.0000 -1.0000 -0.0000
vn -0.0000 -0.9985 -0.0546
vn -0.9255 -0.3786 -0.0000
vn -0.7076 -0.7066 -0.0000
vn -0.7963 -0.6049 -0.0000
vn -0.4260 -0.9047 -0.0000
vn -0.1722 -0.9699 0.1722
vn 1.0000 -0.0000 -0.0000
vn -0.0000 1.0000 -0.0000
vn -0.0000 -0.6049 0.7963
vn -0.0000 -0.1929 0.9812
vn -0.0000 -0.2128 0.9771
vn -0.0000 -0.6664 0.7456
vn -0.0000 -0.6497 0.7602
vn -0.0000 -0.2450 0.9695
vn -0.0000 -0.0000 -1.0000
vn -0.0000 -0.1929 -0.9812
vn -0.0000 -0.9047 0.4260
vn -0.0000 -0.6049 -0.7963
vn -0.0000 -0.7901 0.6130
vn -0.0000 -0.9047 -0.4260
vn -0.0000 -0.0000 1.0000
vt 0.487536 0.597886
vt 0.686815 0.597886
vt 0.686815 0.783491
vt 0.411609 0.783491
vt 0.487536 0.597886
vt 0.686815 0.597886
vt 0.686815 0.345330
vt 0.487537 0.345330
vt 0.279190 0.324771
vt 0.686815 0.324771
vt 0.686815 0.500000
vt 0.103962 0.500000
vt 0.411609 0.783491
vt 0.411609 0.783491
vt 0.686815 0.783491
vt 0.487536 0.597886
vt 0.411609 0.192353
vt 0.686815 0.192353
vt 0.686815 0.675229
vt 0.279190 0.675229
vt 0.811590 0.009138
vt 1.280762 0.009138
vt 1.280762 0.997661
vt 0.811590 0.997661
vt 0.487537 0.345330
vt 0.686815 0.807647
vt 0.411609 0.807647
vt 0.997824 0.994752
vt 0.997824 0.005248
vt 0.740786 0.005248
vt 0.740786 0.994752
vt -0.248718 0.994752
vt -0.096381 0.994752
vt 0.188052 0.514829
vt -0.248718 0.255972
vt -0.248718 0.005248
vt 0.811590 0.997661
vt 0.811590 0.009138
vt -0.607595 0.783491
vt -0.607595 0.597886
vt -0.279613 0.597886
vt -0.203686 0.783491
vt 0.211380 0.591234
vt -0.080147 0.591234
vt -0.080147 0.366749
vt 0.211380 0.366749
vt 0.893263 0.366749
vt 1.070391 0.366749
vt 1.070391 0.591234
vt 0.893263 0.591234
vt 0.103961 0.500000
vt -0.607595 0.500000
vt -0.607595 0.324771
vt -0.071267 0.324771
vt 0.279190 0.324771
vt -0.279614 0.597886
vt -0.607595 0.597886
vt -0.607595 0.783491
vt -0.203685 0.783491
vt 0.411609 0.783491
vt 0.487537 0.597886
vt -0.607595 0.192353
vt -0.203686 0.192353
vt 0.411609 0.192353
vt -0.071267 0.675229
vt -0.607595 0.675229
vt 0.279190 0.675229
vt 2.697605 0.997626
vt 2.697605 0.002374
vt 1.920164 0.002374
vt 1.920164 0.997626
vt 0.101728 0.002374
vt -0.370637 0.002374
vt -0.370637 0.997626
vt 0.101727 0.997626
vt -0.080147 0.366749
vt 0.211380 0.366749
vt 1.070391 0.366749
vt 0.893263 0.366749
vt -0.203686 0.807647
vt -0.607595 0.807647
vt 0.411609 0.807647
vt -0.248718 0.005248
vt -0.671763 0.005248
vt -0.671763 0.994752
vt -0.248718 0.994752
vt 0.740786 0.842415
vt 0.740786 0.994752
vt 0.740786 0.005248
vt 0.002006 0.994752
vt 0.260863 0.557982
vt 1.412616 0.999485
vt -0.412616 0.999485
vt -0.412616 0.000515
vt 0.950133 0.000515
vt 1.412616 0.000515
vt 0.110940 0.597870
vt 0.110940 0.348103
vt 0.869618 0.348103
vt 0.869618 0.597870
vt 0.869618 0.597871
vt 0.794529 0.781426
vt 0.186029 0.781426
s 1
usemtl brick_modern
f 37/1/1 1/2/2 19/3/3 34/4/4
f 41/5/5 11/6/5 8/7/6 39/8/6
f 44/9/7 22/10/8 14/11/9 42/12/10
f 46/13/11 47/14/12 18/15/13 11/6/5 41/5/5 45/16/11
f 34/17/4 19/18/3 22/10/8 44/9/7
f 14/11/9 16/19/14 50/20/15 42/12/10
f 52/25/16 3/7/16 1/2/2 37/1/1
f 16/19/14 18/26/13 47/27/12 50/20/15
f 32/39/18 23/40/19 37/41/20 34/42/21
f 2/2/19 20/3/18 46/13/22 45/16/23
f 51/43/24 26/44/24 28/45/25 36/46/25
f 40/47/25 12/48/25 7/49/24 38/50/24
f 42/51/10 29/52/9 33/53/26 44/54/7
f 50/55/15 21/10/26 13/11/9 42/51/10
f 36/56/25 28/57/25 31/58/27 35/59/27
f 48/60/27 17/15/27 12/6/25 40/61/25
f 44/54/7 33/53/26 32/62/18 34/63/21
f 46/64/22 20/18/18 21/10/26 50/55/15 47/64/28
f 43/65/29 30/66/29 29/52/9 42/51/10
f 42/51/10 13/11/9 15/19/29 49/67/29
f 23/76/19 24/44/30 52/43/30 37/77/20
f 4/49/30 2/78/19 45/79/23 41/47/30 39/50/30
f 35/80/27 31/81/27 30/66/29 43/65/29
f 49/67/29 15/19/29 17/26/27 48/82/27
f 40/97/25 38/98/24 51/99/24 36/100/25
f 36/101/25 35/102/27 48/103/27 40/97/25
f 43/65/29 49/67/29 48/82/27 35/80/27
f 49/67/29 43/65/29 42/51/10
usemtl concrete_bare_01
f 53/21/16 9/22/16 3/23/16 52/24/16
f 39/37/6 8/23/6 5/22/6 57/38/6
f 24/68/30 27/69/30 53/70/30 52/71/30
f 57/72/30 10/73/30 4/74/30 39/75/30
f 54/70/24 25/69/24 26/68/24 51/71/24
f 38/75/24 7/74/24 6/73/24 55/72/24
f 51/92/24 38/93/24 55/94/24 58/95/24 54/96/24
usemtl brick_pavement
f 5/28/17 9/29/17 53/30/17 57/31/17
f 55/32/17 56/33/17 59/34/17 58/35/17
f 53/30/17 54/36/17 58/35/17 59/34/17 56/33/17 57/31/17
f 53/83/17 27/84/17 25/85/17 54/86/17
f 56/87/17 55/88/17 6/28/17 10/29/17 57/89/17
f 53/83/17 54/86/17 58/90/17 59/91/17 56/87/17 57/89/17
f 55/88/17 56/87/17 59/91/17 58/90/17
