# Blender 4.5.9 LTS
# www.blender.org
mtllib Serwers01_004.mtl
o Serwers01_004
v 2.185812 -2.561713 6.000059
v 3.869725 -2.561713 6.000059
v 2.185812 -2.561713 -5.999941
v 3.869725 -2.561713 -5.999941
v 3.929231 -2.187449 6.000059
v 3.929231 -2.187449 -5.999941
v 4.157303 -2.187449 6.000059
v 4.157303 -2.187449 -5.999941
v 4.157303 -1.940267 6.000059
v 4.157303 -1.940267 -5.999941
v 4.239360 -1.940267 6.000059
v 4.239360 -1.940267 -5.999941
v 1.851272 -2.678080 6.000059
v 1.851272 -2.678080 -5.999941
v 1.284489 -2.843798 6.000059
v 1.284489 -2.843798 -5.999941
v -0.000000 -2.843798 6.000059
v -0.000000 -2.843798 -5.999941
v 4.511393 -1.048086 6.000059
v 4.511393 -1.048086 -5.999941
v 4.482758 0.207360 6.000059
v 4.482758 0.207360 -5.999940
v 4.210725 1.180951 6.000059
v 4.210725 1.180951 -5.999940
v 3.611235 2.131809 6.000059
v 3.611235 2.131809 -5.999940
v 2.565410 2.906828 6.000520
v 2.565410 2.906828 -5.999480
v 1.422453 3.345155 6.000520
v 1.422453 3.345155 -5.999480
v 0.359149 3.426353 6.000520
v 0.359149 3.426353 -5.999480
v -0.000000 3.441601 5.987757
v -0.000000 3.441601 -6.012244
v -2.185812 -2.561713 6.000059
v -3.869725 -2.561713 6.000059
v -2.185812 -2.561713 -5.999941
v -3.869725 -2.561713 -5.999941
v -3.929231 -2.187449 6.000059
v -3.929231 -2.187449 -5.999941
v -4.157303 -2.187449 6.000059
v -4.157303 -2.187449 -5.999941
v -4.157303 -1.940267 6.000059
v -4.157303 -1.940267 -5.999941
v -4.239360 -1.940267 6.000059
v -4.239360 -1.940267 -5.999941
v -1.851272 -2.678080 6.000059
v -1.851272 -2.678080 -5.999941
v -1.284490 -2.843798 6.000059
v -1.284490 -2.843798 -5.999941
v -4.511393 -1.048086 6.000059
v -4.511393 -1.048086 -5.999941
v -4.482758 0.207360 6.000059
v -4.482758 0.207360 -5.999940
v -4.210725 1.180951 6.000059
v -4.210725 1.180951 -5.999940
v -3.611235 2.131809 6.000059
v -3.611235 2.131809 -5.999940
v -2.565410 2.906828 6.000520
v -2.565410 2.906828 -5.999480
v -1.422453 3.345155 6.000520
v -1.422453 3.345155 -5.999480
v -0.359149 3.426353 6.000520
v -0.359149 3.426353 -5.999480
v -3.869725 -2.561713 0.861707
v -3.869725 -2.561713 -0.206525
v -3.929231 -2.187449 0.861707
v -3.929231 -2.187449 -0.206525
v -4.157303 -2.187449 0.861707
v -4.157303 -2.187449 -0.206525
v -4.157303 -1.940267 0.861707
v -4.157303 -1.940267 -0.206525
v -4.239360 -1.940267 0.861707
v -4.239360 -1.940267 -0.206525
v -4.511393 -1.048086 0.861707
v -4.511393 -1.048086 -0.206525
v -4.491803 -0.189224 0.861707
v -4.491803 -0.189223 -0.206525
v -5.896253 -2.187449 -0.206525
v -5.896253 -2.561713 -0.206525
v -5.896253 -2.561713 0.861707
v -5.896253 -1.940267 -0.206525
v -5.896254 -1.048086 -0.206525
v -5.896253 -0.189223 -0.206525
v -5.896253 -0.189224 0.861707
v -5.896253 -2.187449 0.861707
v -5.896253 -1.940267 0.861707
v -5.896254 -1.048086 0.861707
v 2.281307 -2.656014 6.417408
v 4.038787 -2.656014 6.417408
v 4.100893 -2.265399 6.417408
v 4.338928 -2.265399 6.417408
v 4.338928 -2.007418 6.417408
v 4.424570 -2.007418 6.417408
v 1.932150 -2.777464 6.417408
v 1.340606 -2.950423 6.417408
v -0.000000 -2.950423 6.417408
v 4.708488 -1.076259 6.417408
v 4.678602 0.234035 6.417408
v 4.394684 1.250161 6.417408
v 3.769004 2.242560 6.417408
v 2.677489 3.051438 6.417889
v 1.484597 3.508914 6.417889
v 0.374840 3.593660 6.417889
v -0.000000 3.609575 6.404568
v -2.281307 -2.656014 6.417408
v -4.038787 -2.656014 6.417408
v -4.100893 -2.265399 6.417408
v -4.338928 -2.265399 6.417408
v -4.338928 -2.007418 6.417408
v -4.424570 -2.007418 6.417408
v -1.932151 -2.777464 6.417408
v -1.340607 -2.950423 6.417408
v -4.708488 -1.076259 6.417408
v -4.678602 0.234035 6.417408
v -4.394684 1.250161 6.417408
v -3.769004 2.242560 6.417408
v -2.677489 3.051438 6.417889
v -1.484598 3.508914 6.417889
v -0.374840 3.593660 6.417889
v 2.278535 -2.653277 -6.402455
v 4.033880 -2.653277 -6.402455
v 4.095911 -2.263137 -6.402455
v 4.333657 -2.263137 -6.402455
v 4.333657 -2.005469 -6.402455
v 4.419195 -2.005469 -6.402455
v 1.929803 -2.774580 -6.402455
v 1.338978 -2.947328 -6.402455
v -0.000000 -2.947328 -6.402455
v 4.702767 -1.075441 -6.402455
v 4.672917 0.233261 -6.402455
v 4.389345 1.248152 -6.402455
v 3.764425 2.239346 -6.402455
v 2.674236 3.047241 -6.401975
v 1.482794 3.504161 -6.401975
v 0.374384 3.588804 -6.401975
v -0.000000 3.604699 -6.415280
v -2.278535 -2.653277 -6.402455
v -4.033880 -2.653277 -6.402455
v -4.095911 -2.263137 -6.402455
v -4.333657 -2.263137 -6.402455
v -4.333657 -2.005469 -6.402455
v -4.419195 -2.005469 -6.402455
v -1.929803 -2.774580 -6.402455
v -1.338978 -2.947328 -6.402455
v -4.702767 -1.075441 -6.402455
v -4.672917 0.233261 -6.402455
v -4.389345 1.248152 -6.402455
v -3.764425 2.239346 -6.402455
v -2.674236 3.047241 -6.401975
v -1.482794 3.504161 -6.401975
v -0.374384 3.588804 -6.401975
vn -0.1739 0.9765 0.1271
vn -0.6021 0.7686 0.2161
vn -0.6017 0.7686 -0.2174
vn -0.1740 0.9764 -0.1280
vn -0.6576 0.7307 0.1833
vn -0.6575 0.7305 -0.1844
vn -0.6535 0.7248 0.2182
vn -0.6530 0.7249 -0.2195
vn -0.7137 0.6750 0.1869
vn -0.7136 0.6748 -0.1880
vn -0.5376 0.8225 0.1856
vn -0.5371 0.8226 -0.1867
vn -0.3009 0.9433 -0.1399
vn -0.3009 0.9435 0.1390
vn -0.1362 0.9815 -0.1344
vn -0.1362 0.9816 0.1336
vn -0.0000 0.9921 -0.1255
vn -0.0000 0.9922 0.1247
vn -0.9651 0.1325 0.2257
vn -0.9648 0.1325 -0.2270
vn -0.9642 -0.1436 0.2231
vn -0.9639 -0.1435 -0.2245
vn -0.8908 -0.3964 0.2223
vn -0.8905 -0.3962 -0.2237
vn -0.7132 -0.6662 0.2181
vn -0.7130 -0.6659 -0.2195
vn -0.4684 -0.8591 0.2063
vn -0.4683 -0.8588 -0.2075
vn -0.2125 -0.9567 0.1990
vn -0.2125 -0.9564 -0.2003
vn -0.0616 -0.9793 0.1926
vn -0.0548 -0.9803 -0.1895
vn -0.0000 -0.9823 0.1872
vn -0.0000 -0.9806 -0.1962
vn -0.0000 -0.0000 1.0000
vn -0.0000 0.9266 0.3760
vn 0.9876 0.1570 -0.0000
vn 0.6017 0.7686 -0.2174
vn 0.6575 0.7305 -0.1844
vn 0.6576 0.7307 0.1833
vn 0.6021 0.7686 0.2161
vn -0.0000 1.0000 -0.0000
vn 0.6530 0.7249 -0.2195
vn 0.6535 0.7248 0.2182
vn 1.0000 -0.0000 -0.0000
vn 0.7136 0.6748 -0.1880
vn 0.7137 0.6750 0.1869
vn 0.5371 0.8226 -0.1867
vn 0.5376 0.8225 0.1856
vn 0.1739 0.9765 0.1271
vn 0.3009 0.9435 0.1390
vn 0.3009 0.9433 -0.1399
vn 0.1740 0.9764 -0.1280
vn 0.1362 0.9816 0.1336
vn 0.1362 0.9815 -0.1344
vn 0.9565 0.2917 -0.0000
vn 0.9648 0.1325 -0.2270
vn 0.9907 0.1361 -0.0000
vn 0.9651 0.1325 0.2257
vn 0.9639 -0.1435 -0.2245
vn 0.9642 -0.1436 0.2231
vn 0.9997 -0.0228 -0.0000
vn 0.8905 -0.3962 -0.2237
vn 0.8908 -0.3964 0.2223
vn 0.7130 -0.6659 -0.2195
vn 0.7132 -0.6662 0.2181
vn 0.4683 -0.8588 -0.2075
vn 0.4684 -0.8591 0.2063
vn 0.2125 -0.9564 -0.2003
vn 0.2125 -0.9567 0.1990
vn 0.0548 -0.9803 -0.1895
vn 0.0616 -0.9793 0.1926
vn -0.0000 -0.0000 -1.0000
vn -0.0000 -1.0000 -0.0000
vn -0.6271 0.6657 0.4044
vn -0.5360 0.7623 0.3628
vn -0.6043 0.6998 0.3808
vn -0.8941 0.1231 0.4306
vn 0.1424 0.9580 0.2490
vn 0.2945 0.9152 0.2750
vn 0.2069 -0.8999 0.3839
vn 0.4456 -0.8021 0.3976
vn -0.6806 0.6074 0.4096
vn -0.8940 -0.1326 0.4280
vn 0.1445 0.9539 0.2631
vn 0.6271 0.6657 0.4044
vn -0.0618 -0.9256 0.3734
vn -0.0000 -0.9275 0.3738
vn -0.5833 0.7230 0.3702
vn -0.0000 0.9689 0.2475
vn -0.8280 -0.3652 0.4255
vn 0.8941 0.1231 0.4306
vn 0.6043 0.6998 0.3808
vn 0.5360 0.7623 0.3628
vn -0.6704 -0.6142 0.4164
vn 0.8940 -0.1326 0.4280
vn 0.6704 -0.6142 0.4164
vn 0.8280 -0.3652 0.4255
vn -0.2945 0.9152 0.2750
vn -0.1424 0.9580 0.2490
vn 0.6806 0.6074 0.4096
vn 0.0618 -0.9256 0.3734
vn -0.4456 -0.8021 0.3976
vn -0.1445 0.9539 0.2631
vn 0.5833 0.7230 0.3702
vn -0.2069 -0.8999 0.3839
vn -0.0483 -0.9256 -0.3754
vn -0.2067 -0.8990 -0.3861
vn 0.6697 -0.6133 -0.4187
vn 0.4453 -0.8012 -0.3999
vn -0.5350 0.7620 -0.3648
vn -0.6265 0.6648 -0.4068
vn -0.1422 0.9576 -0.2506
vn -0.8930 0.1229 -0.4329
vn -0.6040 0.6989 -0.3831
vn -0.0000 -0.9270 -0.3751
vn 0.2067 -0.8990 -0.3861
vn -0.6800 0.6066 -0.4120
vn -0.8929 -0.1324 -0.4304
vn -0.5822 0.7228 -0.3722
vn 0.1422 0.9576 -0.2506
vn 0.6265 0.6648 -0.4068
vn -0.8270 -0.3647 -0.4279
vn 0.6040 0.6989 -0.3831
vn 0.8930 0.1229 -0.4329
vn 0.0483 -0.9256 -0.3754
vn 0.5350 0.7620 -0.3648
vn -0.6697 -0.6133 -0.4187
vn 0.8929 -0.1324 -0.4304
vn -0.2944 0.9148 -0.2767
vn 0.6800 0.6066 -0.4120
vn -0.4453 -0.8012 -0.3999
vn 0.8270 -0.3647 -0.4279
vn 0.1445 0.9534 -0.2648
vn 0.2944 0.9148 -0.2767
vn -0.1445 0.9534 -0.2648
vn 0.5822 0.7228 -0.3722
vn -0.0000 0.9685 -0.2491
vt 3.995035 0.122410
vt 3.995035 0.683603
vt -0.004168 0.683603
vt -0.004168 0.122411
vt 3.995036 0.809899
vt -0.004168 0.809900
vt 3.995034 0.885907
vt -0.004168 0.885908
vt 3.995035 0.968285
vt -0.004168 0.968286
vt 3.995035 0.995632
vt -0.004168 0.995633
vt 3.995034 0.122410
vt -0.004168 0.004367
vt 3.995034 0.004366
vt 6.071139 0.991128
vt -0.295877 0.991128
vt -0.295877 0.690402
vt 6.071139 0.690402
vt -0.295877 0.008872
vt 6.071139 0.008872
vt 0.001547 0.000060
vt 1.451498 0.000060
vt 1.451499 0.112762
vt 0.001547 0.112762
vt 1.451498 0.264496
vt 0.001547 0.264496
vt 1.451498 0.386640
vt 0.001547 0.386640
vt 1.451499 0.522460
vt 0.001547 0.522460
vt 1.451554 0.679742
vt 0.001603 0.679742
vt 1.451554 0.827653
vt 0.001603 0.827652
vt 1.451554 0.956505
vt 0.001603 0.956505
vt 1.450012 0.999940
vt 0.000060 0.999940
vt 1.926586 0.968286
vt 1.926586 0.995633
vt 1.926586 0.683603
vt 1.926586 0.809899
vt 2.282593 0.809899
vt 2.282592 0.683603
vt 1.926586 0.885908
vt 2.282592 0.885908
vt 2.282593 0.968286
vt 2.282592 0.995632
vt 0.701561 0.000060
vt 0.701561 0.112762
vt 0.830635 0.112762
vt 0.830635 0.000060
vt 0.830635 0.216564
vt 0.701561 0.216564
vt 0.843180 0.900043
vt 0.864591 0.765376
vt 0.135409 0.765376
vt 0.135409 0.900043
vt 0.861475 0.261653
vt 0.861475 0.131749
vt 0.690685 0.131749
vt 0.690685 0.261653
vt 0.884431 0.113060
vt 0.915542 0.011027
vt 0.726053 0.011027
vt 0.726053 0.113060
vt 0.135409 0.900043
vt 0.703670 0.825144
vt 0.296330 0.825144
vt 0.296330 0.052385
vt 0.703670 0.052385
vt 0.886671 0.211283
vt 0.726053 0.211283
vt 0.761116 0.988984
vt 0.761116 0.900043
vt 0.135409 0.988984
s 1
usemtl bricks
f 12/22/12 11/23/11 19/24/19 20/25/20
f 20/25/20 19/24/19 21/26/21 22/27/22
f 22/27/22 21/26/21 23/28/23 24/29/24
f 24/29/24 23/28/23 25/30/25 26/31/26
f 26/31/26 25/30/25 27/32/27 28/33/28
f 28/33/28 27/32/27 29/34/29 30/35/30
f 30/35/30 29/34/29 31/36/31 32/37/32
f 32/37/32 31/36/31 33/38/33 34/39/34
f 74/50/56 46/22/48 52/25/57 76/51/58
f 75/52/58 51/24/59 45/23/49 73/53/56
f 76/51/58 52/25/57 54/27/60 53/26/61 51/24/59 75/52/58 77/54/62 78/55/62
f 54/27/60 56/29/63 55/28/64 53/26/61
f 56/29/63 58/31/65 57/30/66 55/28/64
f 58/31/65 60/33/67 59/32/68 57/30/66
f 60/33/67 62/35/69 61/34/70 59/32/68
f 62/35/69 64/37/71 63/36/72 61/34/70
f 64/37/71 34/39/34 33/38/33 63/36/72
f 78/60/74 77/61/74 85/62/74 84/63/74
f 75/64/73 73/65/73 87/66/73 88/67/73
f 74/65/36 76/64/35 83/67/35 82/66/35
f 77/73/73 75/64/73 88/67/73 85/74/73
f 76/64/35 78/73/35 84/74/35 83/67/35
f 19/24/19 11/23/11 94/23/77 98/24/78
f 59/32/68 61/34/70 119/34/81 118/32/82
f 21/26/21 19/24/19 98/24/78 99/26/84
f 33/38/33 31/36/31 104/36/87 105/38/88
f 23/28/23 21/26/21 99/26/84 100/28/91
f 45/23/49 51/24/59 114/24/92 111/23/93
f 25/30/25 23/28/23 100/28/91 101/30/95
f 51/24/59 53/26/61 115/26/96 114/24/92
f 55/28/64 57/30/66 117/30/97 116/28/98
f 63/36/72 33/38/33 105/38/88 120/36/102
f 27/32/27 25/30/25 101/30/95 102/32/103
f 53/26/61 55/28/64 116/28/98 115/26/96
f 61/34/70 63/36/72 120/36/102 119/34/81
f 29/34/29 27/32/27 102/32/103 103/34/106
f 31/36/31 29/34/29 103/34/106 104/36/87
f 57/30/66 59/32/68 118/32/82 117/30/97
f 30/35/30 32/37/32 136/37/107 135/35/108
f 60/33/67 58/31/65 149/31/109 150/33/110
f 12/22/12 20/25/20 130/25/114 126/22/115
f 32/37/32 34/39/34 137/39/116 136/37/107
f 62/35/69 60/33/67 150/33/110 151/35/117
f 20/25/20 22/27/22 131/27/119 130/25/114
f 22/27/22 24/29/24 132/29/123 131/27/119
f 52/25/57 46/22/48 143/22/124 146/25/125
f 64/37/71 62/35/69 151/35/117 152/37/126
f 34/39/34 64/37/71 152/37/126 137/39/116
f 24/29/24 26/31/26 133/31/128 132/29/123
f 54/27/60 52/25/57 146/25/125 147/27/129
f 26/31/26 28/33/28 134/33/132 133/31/128
f 56/29/63 54/27/60 147/27/129 148/29/133
f 28/33/28 30/35/30 135/35/108 134/33/132
f 58/31/65 56/29/63 148/29/133 149/31/109
usemtl concrete_base_02
f 1/1/1 2/2/2 4/3/3 3/4/4
f 4/3/3 2/2/2 5/5/5 6/6/6
f 6/6/6 5/5/5 7/7/7 8/8/8
f 8/8/8 7/7/7 9/9/9 10/10/10
f 10/10/10 9/9/9 11/11/11 12/12/12
f 1/13/1 3/4/4 14/14/13 13/15/14
f 72/40/35 74/41/36 82/40/35
f 66/42/37 38/3/38 40/6/39 68/43/37
f 67/44/37 39/5/40 36/2/41 65/45/37
f 68/43/42 40/6/39 42/8/43 70/46/42
f 69/47/42 41/7/44 39/5/40 67/44/42
f 70/46/45 42/8/43 44/10/46 72/40/45
f 71/48/45 43/9/47 41/7/44 69/47/45
f 72/40/42 44/10/46 46/12/48 74/41/42
f 73/49/42 45/11/49 43/9/47 71/48/42
f 35/13/50 47/15/51 48/14/52 37/4/53
f 67/56/73 65/57/73 81/58/73 86/59/73
f 66/42/42 65/45/42 36/2/41 35/1/50 37/4/53 38/3/38
f 66/57/35 68/56/35 79/68/35 80/58/35
f 65/69/42 66/70/42 80/71/42 81/72/42
f 71/75/73 69/76/73 86/59/73 87/77/73
f 70/76/35 72/75/35 82/77/35 79/68/35
f 5/5/5 2/2/2 90/2/75 91/5/76
f 47/15/51 35/13/50 106/13/79 112/15/80
f 7/7/7 5/5/5 91/5/76 92/7/83
f 35/1/50 36/2/41 107/2/86 106/1/79
f 9/9/9 7/7/7 92/7/83 93/9/89
f 11/11/11 9/9/9 93/9/89 94/11/77
f 36/2/41 39/5/40 108/5/94 107/2/86
f 1/13/1 13/15/14 95/15/99 89/13/100
f 39/5/40 41/7/44 109/7/101 108/5/94
f 41/7/44 43/9/47 110/9/105 109/7/101
f 2/2/2 1/1/1 89/1/100 90/2/75
f 43/9/47 45/11/49 111/11/93 110/9/105
f 4/3/3 6/6/6 123/6/111 122/3/112
f 3/4/4 4/3/3 122/3/112 121/4/113
f 6/6/6 8/8/8 124/8/118 123/6/111
f 8/8/8 10/10/10 125/10/120 124/8/118
f 38/3/38 37/4/53 138/4/121 139/3/122
f 10/10/10 12/12/12 126/12/115 125/10/120
f 40/6/39 38/3/38 139/3/122 140/6/127
f 14/14/13 3/4/4 121/4/113 127/14/130
f 42/8/43 40/6/39 140/6/127 141/8/131
f 44/10/46 42/8/43 141/8/131 142/10/137
f 37/4/53 48/14/52 144/14/135 138/4/121
f 46/12/48 44/10/46 142/10/137 143/12/124
usemtl concrete_dirty
f 13/16/14 14/17/13 16/18/15 15/19/16
f 15/19/16 16/18/15 18/20/17 17/21/18
f 47/16/51 49/19/54 50/18/55 48/17/52
f 49/19/54 17/21/18 18/20/17 50/18/55
f 49/19/54 47/16/51 112/16/80 113/19/85
f 17/21/18 49/19/54 113/19/85 97/21/90
f 13/16/14 15/19/16 96/19/104 95/16/99
f 15/19/16 17/21/18 97/21/90 96/19/104
f 48/17/52 50/18/55 145/18/134 144/17/135
f 16/18/15 14/17/13 127/17/130 128/18/136
f 50/18/55 18/20/17 129/20/138 145/18/134
f 18/20/17 16/18/15 128/18/136 129/20/138
