# Blender 4.5.9 LTS
# www.blender.org
mtllib SerwersP1_003.mtl
o SerwersP1_003
v 2.093360 0.371344 -1.921355
v 2.093360 -0.310414 -1.926686
v 2.093360 -1.668468 1.240658
v 2.093360 -0.310414 1.926686
v 2.093360 -1.668468 -1.240659
v 2.093360 0.371343 1.921356
v 2.093360 1.929367 -0.000001
v 2.093360 1.680831 0.961888
v 2.093360 1.106803 1.560336
v 2.093360 1.106803 -1.560335
v 2.093360 1.680831 -0.961889
v -2.093360 0.371344 -1.921355
v -2.093360 -0.310414 -1.926686
v -2.093360 -1.668468 1.240658
v -2.093360 -0.310414 1.926686
v -2.093360 -1.668468 -1.240659
v -2.093360 0.371343 1.921356
v -2.093360 1.929367 -0.000001
v -2.093360 1.680831 0.961888
v -2.093360 1.106803 1.560336
v -2.093360 1.106803 -1.560335
v -2.093360 1.680831 -0.961889
v -1.921355 0.371344 2.093360
v -1.926686 -0.310414 2.093360
v 1.240658 -1.668468 2.093360
v 1.926686 -0.310414 2.093360
v -1.240659 -1.668468 2.093360
v 1.921356 0.371343 2.093360
v -0.000001 1.929367 2.093360
v 0.961888 1.680831 2.093360
v 1.560336 1.106803 2.093360
v -1.560335 1.106803 2.093360
v -0.961889 1.680831 2.093360
v 0.961888 1.680831 0.961888
v -0.961890 1.680831 0.961888
v -0.000001 1.929367 -0.000001
v -1.560335 1.106803 1.560336
v 1.560336 1.106803 1.560336
v 1.921356 0.371343 1.921356
v -1.921355 0.371343 1.921356
v 1.926686 -0.310414 1.926686
v -1.926686 -0.310414 1.926686
v -0.000001 -1.668468 -0.000000
v 0.735293 -1.668468 1.240658
v 1.240658 -1.668468 -0.735294
v -1.240659 -1.668468 0.735293
v -1.240659 -1.668468 1.240658
v 1.240658 -1.668468 1.240658
v 1.926686 -0.310414 -1.926686
v -1.926686 -0.310414 -1.926686
v -1.240660 -1.668468 -1.240659
v 1.240658 -1.668468 -1.240659
v 0.735293 -1.668468 1.240658
vn -0.0000 -0.2300 -0.9732
vn -0.0000 0.2280 -0.9737
vn -0.0000 0.2553 -0.9669
vn -0.0000 -0.2563 -0.9666
vn -0.0000 -0.5902 -0.8073
vn -0.4622 -0.7568 -0.4622
vn -0.0000 -0.5902 0.8073
vn -0.0000 -0.8734 0.4871
vn -0.0000 -1.0000 -0.0000
vn -0.0000 -0.8734 -0.4871
vn -0.2016 -0.9585 -0.2016
vn -0.0000 -0.9980 0.0625
vn -0.0000 1.0000 -0.0000
vn -0.0000 0.4509 -0.8926
vn -0.0000 0.8517 -0.5240
vn -0.0000 0.8113 -0.5847
vn -0.8498 -0.5271 -0.0000
vn -0.0000 0.2280 0.9737
vn -0.0000 0.4509 0.8926
vn -0.0000 -0.2300 0.9732
vn 0.2016 -0.9585 -0.2016
vn 0.4622 -0.7568 -0.4622
vn 0.9669 0.2553 -0.0000
vn 0.9737 0.2280 -0.0000
vn 0.8926 0.4509 -0.0000
vn 0.4871 -0.8734 -0.0000
vn 0.8073 -0.5902 -0.0000
vn -0.9666 -0.2563 -0.0000
vn -0.9732 -0.2300 -0.0000
vn -0.8073 -0.5902 -0.0000
vn 0.9666 -0.2563 -0.0000
vn 0.9732 -0.2300 -0.0000
vn -0.4871 -0.8734 -0.0000
vn -0.9669 0.2553 -0.0000
vn -0.8926 0.4509 -0.0000
vn -0.9737 0.2280 -0.0000
vt 0.686815 0.485184
vt 0.686815 0.345330
vt 0.635284 0.345330
vt 0.633636 0.485184
vt 0.686815 0.686525
vt 0.686815 0.505474
vt 0.633636 0.505474
vt 0.522019 0.686525
vt -0.607595 0.089200
vt 0.686815 0.089200
vt 0.686815 0.276546
vt -0.607595 0.276546
vt 0.686815 0.490648
vt 0.686815 0.781487
vt 0.336997 0.781487
vt 0.039610 0.490648
vt 0.686815 0.723454
vt 0.686815 0.910801
vt 0.522019 0.910801
vt 0.336997 0.723454
vt 0.997824 0.994752
vt 0.997824 0.005248
vt -0.331722 0.005248
vt -0.331722 0.793221
vt 0.657782 0.005248
vt 0.657782 0.206779
vt 0.657782 0.994752
vt 0.456252 0.994752
vt 1.280762 0.997661
vt 1.280762 0.009138
vt 0.292228 0.009138
vt -1.146062 0.009138
vt 0.660083 0.009138
vt 1.159440 0.997661
vt 0.292229 0.009138
vt -1.146061 0.009138
vt -1.645419 0.997661
vt -1.766741 0.997661
vt -1.766741 0.009137
vt -1.146062 0.009137
vt 0.686815 0.485184
vt -0.607595 0.485184
vt -0.607595 0.345330
vt 0.039609 0.509351
vt -0.607595 0.509351
vt -0.607595 0.218512
vt 0.686815 0.218512
vt 0.686815 0.509351
vt -0.257778 0.781487
vt -0.607595 0.781487
vt -0.607595 0.490648
vt -0.442800 0.686525
vt -0.554417 0.505474
vt -0.607595 0.505474
vt -0.607595 0.686525
vt -0.331721 0.994752
vt -0.331721 0.793221
vt -0.331721 0.005248
vt -0.671763 0.005248
vt -0.671763 0.994752
vt -0.257778 0.723454
vt -0.442800 0.910800
vt -0.607595 0.910800
vt -0.607595 0.723454
vt -1.645419 0.997661
vt -1.766741 0.009138
vt -1.766741 0.997661
vt -1.146061 0.009137
vt -0.331722 0.994752
vt -0.442800 0.089200
vt -0.257778 0.276546
vt -0.442800 0.686525
vt -0.554417 0.505474
vt -0.607595 0.686525
vt -0.607596 0.505474
vt -0.257778 0.723454
vt -0.442800 0.910800
vt 0.686815 0.686525
vt 0.686815 0.505475
vt -0.556065 0.345330
vt -0.554417 0.485184
vt -1.645419 0.997661
vt 0.039610 0.490648
vt -0.257778 0.781487
vt -0.257778 0.218512
vt 0.039610 0.509351
vt -0.607595 0.345330
vt -0.607595 0.485184
vt -0.554417 0.485184
vt 0.586461 0.994967
vt 0.478955 0.013597
vt 0.478955 0.994967
vt 1.028952 0.013597
vt 1.917181 0.999461
vt 1.412571 0.000539
vt -0.412571 0.000540
vt -0.917181 0.999461
s 1
usemtl brick_modern
f 6/1/1 4/2/2 41/3/3 39/4/4
f 9/5/5 6/6/1 39/7/4 38/8/6
f 21/9/7 10/10/7 11/11/8 22/12/8
f 7/13/9 8/14/10 34/15/11 36/16/12
f 8/17/10 9/18/5 38/19/6 34/20/11
f 50/37/18 49/3/18 2/2/18 1/41/20 12/42/20 13/43/18
f 36/44/12 18/45/9 22/46/8 11/47/8 7/48/9
f 36/16/12 35/49/21 19/50/10 18/51/9
f 37/52/22 40/53/4 17/54/1 20/55/5
f 35/61/21 37/62/22 20/63/5 19/64/10
f 37/70/22 35/71/21 33/12/26 32/9/27
f 38/72/6 39/73/28 28/54/29 31/55/30
f 40/53/31 37/52/22 32/74/27 23/75/32
f 34/76/11 38/77/6 31/63/30 30/64/33
f 10/78/7 21/74/7 12/75/20 1/79/20
f 42/80/23 40/81/31 23/42/32 24/43/24
f 36/83/12 34/84/11 30/50/33 29/51/9
f 35/85/21 36/86/12 29/45/9 33/46/26
f 40/81/4 42/80/3 15/87/2 17/88/1
f 39/89/28 41/80/34 26/87/36 28/88/29
usemtl concrete_bare_01
f 4/29/2 3/30/14 53/31/14 47/32/13 44/31/15 48/33/16 41/34/3
f 52/35/17 45/35/17 48/36/17
f 50/37/18 13/38/18 16/39/19 51/40/19
f 42/65/3 47/32/14 14/66/14 15/67/2
f 42/65/23 24/38/24 27/39/25 47/68/25
f 41/82/34 48/36/35 25/66/35 26/67/36
f 49/90/18 5/91/19 2/92/18
f 52/93/19 5/91/19 49/90/18
f 50/94/18 51/95/19 52/96/19 49/97/18
usemtl brick_pavement
f 3/21/13 5/22/13 51/23/13 46/24/13 52/25/13 45/26/13 48/27/13 53/28/13
f 48/56/16 44/57/15 47/58/13 27/59/13 25/60/13
f 53/28/13 48/27/13 45/26/13 52/25/13 46/24/13 47/69/13
f 47/69/13 46/24/13 51/23/13 16/59/13 14/60/13
