# Blender 4.5.9 LTS
# www.blender.org
mtllib SerwersP1_007.mtl
o SerwersP1_007
v 2.093360 0.371344 -1.921355
v 2.093360 -0.310414 -1.926686
v 2.093360 -1.668468 1.240659
v 2.093360 -0.310414 1.926686
v 2.093360 -1.668468 -1.240659
v 2.093360 0.371343 1.921356
v 2.093360 1.929367 -0.000001
v 2.093360 1.680831 0.961888
v 2.093360 1.106803 1.560336
v 2.093360 1.106803 -1.560336
v 2.093360 1.680831 -0.961890
v 1.906640 0.371344 -1.921355
v 1.906640 -0.310414 -1.926686
v 1.906640 -1.668468 1.240659
v 1.906640 -0.310414 1.926686
v 1.906640 -1.668468 -1.240659
v 1.906640 0.371343 1.921356
v 1.906640 1.929367 -0.000001
v 1.906640 1.680831 0.961888
v 1.906640 1.106803 1.560336
v 1.906640 1.106803 -1.560336
v 1.906640 1.680831 -0.961890
v -0.486276 0.371344 -1.639397
v -0.487656 -0.310414 -1.644546
v 0.332113 -1.668468 1.414874
v 0.509670 -0.310414 2.077526
v -0.310099 -1.668468 -0.981895
v 0.508291 0.371343 2.072377
v 0.011007 1.929367 0.216489
v 0.259962 1.680831 1.145602
v 0.414852 1.106803 1.723658
v -0.392837 1.106803 -1.290678
v -0.237948 1.680831 -0.712624
v -2.724679 0.371344 -0.747713
v -2.727345 -0.310414 -0.752330
v -1.143673 -1.668468 1.990671
v -0.800659 -0.310414 2.584788
v -2.384331 -1.668468 -0.158213
v -0.803324 0.371343 2.580172
v -1.764002 1.929367 0.916228
v -1.283058 1.680831 1.749249
v -0.983834 1.106803 2.267519
v -2.544169 1.106803 -0.435061
v -2.244946 1.680831 0.083208
v -4.656026 0.371344 0.692928
v -4.659796 -0.310414 0.689159
v -2.420145 -1.668468 2.928810
v -1.935050 -0.310414 3.413904
v -4.174702 -1.668468 1.174253
v -1.938819 0.371343 3.410135
v -3.297423 1.929367 2.051531
v -2.617265 1.680831 2.731689
v -2.194099 1.106803 3.154855
v -4.400746 1.106803 0.948208
v -3.977582 1.680831 1.371373
v -6.148698 0.371344 2.584350
v -6.153315 -0.310414 2.581685
v -3.410315 -1.668468 4.165357
v -2.816197 -0.310414 4.508370
v -5.559198 -1.668468 2.924698
v -2.820813 0.371344 4.505706
v -4.484756 1.929367 3.545027
v -3.651736 1.680831 4.025972
v -3.133466 1.106803 4.325195
v -5.836046 1.106803 2.764860
v -5.317777 1.680831 3.064083
v -7.100973 0.371344 4.797656
v -7.106122 -0.310414 4.796276
v -4.046702 -1.668468 5.616045
v -3.384051 -0.310414 5.793602
v -6.443471 -1.668468 4.973833
v -3.389199 0.371344 5.792222
v -5.245087 1.929367 5.294939
v -4.315974 1.680831 5.543894
v -3.737918 1.106804 5.698783
v -6.752254 1.106803 4.891094
v -6.174200 1.680831 5.045983
v -7.447954 0.371344 7.182012
v -7.453284 -0.310413 7.182011
v -4.285940 -1.668467 7.182011
v -3.599914 -0.310413 7.182011
v -6.767259 -1.668467 7.182011
v -3.605243 0.371344 7.182011
v -5.526600 1.929368 7.182011
v -4.564712 1.680832 7.182011
v -3.966264 1.106804 7.182011
v -7.086934 1.106804 7.182011
v -6.488488 1.680832 7.182011
v -7.447954 0.371345 7.412307
v -7.453284 -0.310413 7.412306
v -4.285940 -1.668467 7.412306
v -3.599914 -0.310413 7.412306
v -6.767259 -1.668467 7.412306
v -3.605243 0.371344 7.412306
v -5.526600 1.929368 7.412306
v -4.564712 1.680832 7.412306
v -3.966264 1.106804 7.412306
v -7.086934 1.106804 7.412306
v -6.488488 1.680832 7.412306
vn -0.0000 -0.2300 0.9732
vn -0.0000 -0.5902 0.8073
vn 0.0472 -0.5862 0.8088
vn 0.0566 -0.2277 0.9721
vn -0.0000 -0.2300 -0.9732
vn -0.0000 0.2280 -0.9737
vn -0.0531 0.2292 -0.9719
vn -0.0529 -0.2311 -0.9715
vn -0.0000 -0.8734 0.4871
vn -0.0000 -1.0000 -0.0000
vn 0.0012 -1.0000 0.0090
vn 0.0290 -0.8689 0.4941
vn -0.0000 -0.5902 -0.8073
vn -0.0441 -0.5920 -0.8047
vn -0.0000 -0.8734 -0.4871
vn -0.0265 -0.8767 -0.4804
vn -0.0000 0.4509 0.8926
vn -0.0000 0.2280 0.9737
vn 0.0565 0.2255 0.9726
vn 0.0530 0.4499 0.8915
vn -0.0000 1.0000 -0.0000
vn -0.0000 0.4509 -0.8926
vn -0.0479 0.4499 -0.8918
vn 0.2394 0.2237 0.9448
vn 0.2184 0.4509 0.8655
vn 0.1227 -0.8644 0.4876
vn 0.1991 -0.5833 0.7874
vn 0.2394 -0.2259 0.9443
vn -0.1129 -0.8823 -0.4570
vn 0.0050 -0.9998 0.0202
vn -0.2128 0.4508 -0.8669
vn -0.2300 0.2324 -0.9450
vn -0.1906 -0.5971 -0.7792
vn -0.2296 -0.2342 -0.9447
vn -0.4667 0.2324 -0.8533
vn -0.4663 -0.2342 -0.8531
vn -0.3858 -0.5971 -0.7033
vn 0.3961 -0.5833 0.7091
vn 0.4756 -0.2259 0.8501
vn 0.0100 -0.9998 0.0183
vn 0.2447 -0.8644 0.4393
vn 0.4758 0.2237 0.8506
vn 0.4349 0.4509 0.7795
vn -0.2273 -0.8823 -0.4122
vn -0.4299 0.4508 -0.7823
vn 0.3501 -0.8644 0.3610
vn 0.5662 -0.5833 0.5824
vn 0.6795 -0.2259 0.6981
vn 0.6798 0.2237 0.6985
vn -0.3263 -0.8823 -0.3393
vn 0.0144 -0.9998 0.0150
vn -0.6177 0.4508 -0.6444
vn -0.6717 0.2324 -0.7034
vn -0.5547 -0.5971 -0.5795
vn -0.6712 -0.2342 -0.7033
vn 0.6218 0.4509 0.6403
vn -0.8309 0.2324 -0.5056
vn -0.8304 -0.2342 -0.5056
vn -0.6858 -0.5971 -0.4162
vn 0.6976 -0.5833 0.4160
vn 0.8370 -0.2259 0.4984
vn 0.0178 -0.9998 0.0108
vn 0.4316 -0.8644 0.2581
vn 0.8374 0.2237 0.4988
vn 0.7664 0.4509 0.4576
vn -0.4030 -0.8823 -0.2433
vn -0.7634 0.4508 -0.4625
vn 0.9375 -0.2259 0.2648
vn 0.9379 0.2237 0.2650
vn -0.4522 -0.8823 -0.1307
vn 0.0200 -0.9998 0.0058
vn -0.8571 0.4508 -0.2492
vn -0.9334 0.2324 -0.2733
vn -0.7701 -0.5971 -0.2245
vn -0.9329 -0.2342 -0.2735
vn 0.7815 -0.5833 0.2213
vn 0.4837 -0.8644 0.1376
vn 0.8587 0.4509 0.2436
vn -0.9697 -0.2322 -0.0755
vn -0.8023 -0.5937 -0.0616
vn 0.8083 -0.5858 0.0587
vn 0.9713 -0.2274 0.0697
vn 0.0118 -0.9999 0.0016
vn 0.4951 -0.8680 0.0367
vn 0.9718 0.2253 0.0698
vn 0.8905 0.4502 0.0661
vn -0.4768 -0.8783 -0.0357
vn -0.8903 0.4504 -0.0667
vn -0.9702 0.2302 -0.0755
vn -0.4871 -0.8734 -0.0000
vn -0.8926 0.4509 -0.0000
vn -0.9737 0.2280 -0.0000
vn -0.8073 -0.5902 -0.0000
vn -0.9732 -0.2300 -0.0000
vn 0.8073 -0.5902 -0.0000
vn 0.9732 -0.2300 -0.0000
vn 0.4871 -0.8734 -0.0000
vn 0.9737 0.2279 -0.0000
vn 0.8926 0.4509 -0.0000
vt 0.686815 0.505475
vt 0.686815 0.686525
vt 0.629086 0.686525
vt 0.629086 0.505475
vt 0.467967 0.485184
vt 0.467967 0.345330
vt 0.436371 0.345330
vt 0.436371 0.485184
vt 0.686815 0.218512
vt 0.686815 0.509351
vt 0.629086 0.509351
vt 0.629086 0.218512
vt 0.467967 0.686525
vt 0.467967 0.505474
vt 0.436371 0.505474
vt 0.436371 0.686525
vt 0.686815 0.089200
vt 0.686815 0.276546
vt 0.629086 0.276546
vt 0.629086 0.089200
vt 0.467967 0.490648
vt 0.467967 0.781487
vt 0.436371 0.781487
vt 0.436371 0.490648
vt 1.280762 0.009138
vt 1.280762 0.997661
vt 1.144849 0.997661
vt 1.144849 0.009138
vt 0.686815 0.345330
vt 0.686815 0.485184
vt 0.629086 0.485184
vt 0.629086 0.345330
vt 0.467967 0.723454
vt 0.467967 0.910801
vt 0.436371 0.910801
vt 0.436371 0.723454
vt 0.997824 0.994752
vt 0.997824 0.005248
vt 0.923363 0.005248
vt 0.923363 0.994752
vt 1.280762 0.997661
vt 1.144849 0.009138
vt 1.144849 0.997661
vt 4.814609 0.005164
vt 4.814609 0.997579
vt 3.358891 0.997579
vt 3.358891 0.005164
vt 1.783379 0.355716
vt 1.783379 0.526764
vt 1.237917 0.526764
vt 1.237917 0.355716
vt 1.783379 0.046091
vt 1.783379 0.186721
vt 1.237917 0.186721
vt 1.237917 0.046091
vt 1.100833 0.731688
vt 1.100833 0.936613
vt 0.778399 0.936613
vt 0.778399 0.731688
vt -1.756603 0.004499
vt -1.756603 0.993749
vt -0.995936 0.993749
vt -0.995936 0.004499
vt -4.041171 0.998284
vt -4.041171 0.005869
vt -3.124682 0.005869
vt -3.124682 0.998284
vt 1.100833 1.107661
vt 0.778399 1.107661
vt 1.100833 1.276656
vt 1.100833 1.417286
vt 0.778399 1.417286
vt 0.778399 1.276656
vt 1.783379 0.731688
vt 1.237917 0.731688
vt 0.455966 1.417286
vt 0.455966 1.276656
vt 0.455966 1.107661
vt 0.692454 0.355716
vt 0.692454 0.186721
vt 0.692454 0.731688
vt 0.692454 0.526764
vt 1.903174 0.997579
vt 1.903174 0.005164
vt 0.692454 0.046091
vt 0.455966 0.936613
vt 0.455966 0.731688
vt -0.235269 0.993749
vt -0.235269 0.004499
vt -2.208193 0.005869
vt -2.208193 0.998284
vt 0.146992 0.526764
vt 0.146992 0.355716
vt 0.146992 0.186721
vt 0.146992 0.046091
vt 0.133532 0.936613
vt 0.133532 0.731688
vt 0.525398 0.993749
vt 0.525398 0.004499
vt -1.291704 0.005869
vt -1.291704 0.998284
vt 0.133532 1.107661
vt 0.133532 1.417286
vt 0.133532 1.276656
vt 0.146992 0.731688
vt 0.447456 0.997579
vt 0.447456 0.005164
vt -0.188902 1.417286
vt -0.188902 1.276656
vt -0.188902 1.107661
vt -0.398471 0.355716
vt -0.398471 0.186721
vt -0.398471 0.731688
vt -0.398471 0.526764
vt -1.008262 0.997579
vt -1.008262 0.005164
vt -0.398471 0.046091
vt -0.188902 0.936613
vt -0.188902 0.731688
vt 1.286065 0.993749
vt 1.286065 0.004499
vt -0.375214 0.005868
vt -0.375214 0.998284
vt -0.943933 0.186721
vt -0.943933 0.046091
vt -0.511335 0.936613
vt -0.511335 0.731688
vt 2.046732 0.993749
vt 2.046732 0.004499
vt 0.541275 0.005868
vt 0.541275 0.998284
vt -0.511335 1.107661
vt -0.511335 1.417286
vt -0.511335 1.276656
vt -0.943933 0.355716
vt -0.943933 0.731688
vt -0.943933 0.526764
vt -2.463980 0.997579
vt -2.463980 0.005165
vt -0.833769 1.276656
vt -0.833769 1.107661
vt -1.489395 0.355716
vt -1.489395 0.186721
vt -1.489395 0.731688
vt -1.489395 0.526764
vt -3.919698 0.997579
vt -3.919698 0.005165
vt -1.489395 0.046091
vt -0.833769 0.936613
vt -0.833769 0.731688
vt 2.807399 0.993749
vt 2.807399 0.004499
vt 1.457764 0.005868
vt 1.457764 0.998284
vt -0.833769 1.417286
vt -0.872687 0.936613
vt -0.872687 0.731688
vt 2.899213 0.993749
vt 2.899213 0.004499
vt 1.568386 0.005868
vt 1.568386 0.998284
vt -0.872687 1.107661
vt -0.872687 1.417286
vt -0.872687 1.276656
vt -1.555234 0.355716
vt -1.555234 0.186721
vt -1.555234 0.731688
vt -1.555234 0.526764
vt -4.095406 0.997579
vt -4.095406 0.005165
vt -1.555234 0.046091
s 1
usemtl brick_modern
f 1/1/1 10/2/2 21/3/3 12/4/4
f 6/5/5 4/6/6 15/7/7 17/8/8
f 11/9/9 7/10/10 18/11/11 22/12/12
f 9/13/13 6/14/5 17/15/8 20/16/14
f 10/17/2 11/18/9 22/19/12 21/20/3
f 7/21/10 8/22/15 19/23/16 18/24/11
f 2/29/18 1/30/1 12/31/4 13/32/19
f 8/33/15 9/34/13 20/35/14 19/36/16
f 21/48/3 22/49/12 33/50/26 32/51/27
f 13/52/19 12/53/4 23/54/28 24/55/24
f 18/56/11 19/57/16 30/58/29 29/59/30
f 19/57/16 20/68/14 31/69/33 30/58/29
f 17/70/8 15/71/7 26/72/32 28/73/34
f 20/68/14 17/70/8 28/73/34 31/69/33
f 12/53/4 21/48/3 32/51/27 23/54/28
f 22/49/12 18/74/11 29/75/30 33/50/26
f 28/73/34 26/72/32 37/76/35 39/77/36
f 31/69/33 28/73/34 39/77/36 42/78/37
f 23/54/28 32/51/27 43/79/38 34/80/39
f 33/50/26 29/75/30 40/81/40 44/82/41
f 32/51/27 33/50/26 44/82/41 43/79/38
f 24/55/24 23/54/28 34/80/39 35/85/42
f 29/59/30 30/58/29 41/86/44 40/87/40
f 30/58/29 31/69/33 42/78/37 41/86/44
f 43/79/38 44/82/41 55/92/46 54/93/47
f 35/85/42 34/80/39 45/94/48 46/95/49
f 40/87/40 41/86/44 52/96/50 51/97/51
f 41/86/44 42/78/37 53/102/54 52/96/50
f 39/77/36 37/76/35 48/103/53 50/104/55
f 42/78/37 39/77/36 50/104/55 53/102/54
f 34/80/39 43/79/38 54/93/47 45/94/48
f 44/82/41 40/81/40 51/105/51 55/92/46
f 50/104/55 48/103/53 59/108/57 61/109/58
f 53/102/54 50/104/55 61/109/58 64/110/59
f 45/94/48 54/93/47 65/111/60 56/112/61
f 55/92/46 51/105/51 62/113/62 66/114/63
f 54/93/47 55/92/46 66/114/63 65/111/60
f 46/95/49 45/94/48 56/112/61 57/117/64
f 51/97/51 52/96/50 63/118/66 62/119/62
f 52/96/50 53/102/54 64/110/59 63/118/66
f 57/117/64 56/112/61 67/124/68 68/125/69
f 62/119/62 63/118/66 74/126/70 73/127/71
f 63/118/66 64/110/59 75/132/74 74/126/70
f 61/109/58 59/108/57 70/133/73 72/134/75
f 64/110/59 61/109/58 72/134/75 75/132/74
f 56/112/61 65/111/60 76/135/76 67/124/68
f 66/114/63 62/113/62 73/136/71 77/137/77
f 65/111/60 66/114/63 77/137/77 76/135/76
f 75/132/74 72/134/75 83/140/79 86/141/80
f 67/124/68 76/135/76 87/142/81 78/143/82
f 77/137/77 73/136/71 84/144/83 88/145/84
f 76/135/76 77/137/77 88/145/84 87/142/81
f 68/125/69 67/124/68 78/143/82 79/148/85
f 73/127/71 74/126/70 85/149/87 84/150/83
f 74/126/70 75/132/74 86/141/80 85/149/87
f 72/134/75 70/133/73 81/155/89 83/140/79
f 84/150/83 85/149/87 96/156/90 95/157/10
f 85/149/87 86/141/80 97/162/93 96/156/90
f 83/140/79 81/155/89 92/163/92 94/164/94
f 86/141/80 83/140/79 94/164/94 97/162/93
f 78/143/82 87/142/81 98/165/95 89/166/96
f 88/145/84 84/144/83 95/167/10 99/168/97
f 87/142/81 88/145/84 99/168/97 98/165/95
f 79/148/85 78/143/82 89/166/96 90/171/98
usemtl concrete_bare_01
f 5/25/17 2/26/18 13/27/19 16/28/20
f 4/41/6 3/25/22 14/42/23 15/43/7
f 16/44/20 13/45/19 24/46/24 27/47/25
f 15/64/7 14/65/23 25/66/31 26/67/32
f 27/47/25 24/46/24 35/83/42 38/84/43
f 26/67/32 25/66/31 36/90/45 37/91/35
f 37/91/35 36/90/45 47/100/52 48/101/53
f 38/84/43 35/83/42 46/106/49 49/107/56
f 49/107/56 46/106/49 57/115/64 60/116/65
f 48/101/53 47/100/52 58/122/67 59/123/57
f 59/123/57 58/122/67 69/130/72 70/131/73
f 60/116/65 57/115/64 68/138/69 71/139/78
f 71/139/78 68/138/69 79/146/85 82/147/86
f 70/131/73 69/130/72 80/153/88 81/154/89
f 81/154/89 80/153/88 91/160/91 92/161/92
f 82/147/86 79/146/85 90/169/98 93/170/99
usemtl brick_pavement
f 3/37/21 5/38/21 16/39/21 14/40/21
f 14/60/21 16/61/21 27/62/21 25/63/21
f 25/63/21 27/62/21 38/88/21 36/89/21
f 36/89/21 38/88/21 49/98/21 47/99/21
f 47/99/21 49/98/21 60/120/21 58/121/21
f 58/121/21 60/120/21 71/128/21 69/129/21
f 69/129/21 71/128/21 82/151/21 80/152/21
f 80/152/21 82/151/21 93/158/21 91/159/21
