# Blender 4.5.9 LTS
# www.blender.org
mtllib SerwersP_010.mtl
o SerwersP_010
v -0.148034 -0.121189 -0.534114
v -0.148034 -0.121189 0.534118
v -0.148034 0.695695 -1.240659
v -0.148034 -0.121189 -1.240659
v -0.148034 -1.479243 1.240659
v -0.148034 -0.121189 1.240659
v -0.148034 -1.479243 -1.240659
v -0.148034 0.695695 1.240659
v -0.148034 1.755219 -0.000001
v -0.148034 1.628368 0.566770
v -0.148034 1.296028 0.995073
v -0.148034 1.296028 -0.995073
v -0.148034 1.628368 -0.566771
v 0.148034 -0.121189 -0.534114
v 0.148034 -0.121189 0.534118
v 0.148034 0.695695 -1.240659
v 0.148034 -0.121189 -1.240659
v 0.148034 -1.479243 1.240659
v 0.148034 -0.121189 1.240659
v 0.148034 1.296028 0.995073
v 0.148034 0.695695 1.240659
v 0.148034 -1.479243 -1.240659
v 0.148034 1.628368 -0.566771
v 0.148034 1.755219 -0.000001
v 0.148034 1.628368 0.566770
v 0.148034 1.296028 -0.995073
vn -1.0000 -0.0000 -0.0000
vn 1.0000 -0.0000 -0.0000
vn -0.0000 -0.0000 1.0000
vn -0.0000 0.1929 0.9812
vn -0.0000 0.6049 0.7963
vn -0.0000 -0.0000 -1.0000
vn -0.0000 1.0000 -0.0000
vn -0.0000 0.9047 -0.4260
vn -0.0000 0.9047 0.4260
vn -0.0000 -1.0000 -0.0000
vn -0.0000 0.6049 -0.7963
vn -0.0000 0.1929 -0.9812
vt 0.470261 0.194310
vt 0.251820 0.194310
vt 0.251820 0.446866
vt -0.423928 0.009287
vt 1.382217 0.009287
vt 1.382217 0.997811
vt 0.867928 0.997811
vt 0.090364 0.997811
vt -0.423927 0.997811
vt 0.800527 0.194310
vt 1.018970 0.446867
vt 0.943042 0.632472
vt 0.810624 0.735221
vt 0.635395 0.774440
vt 0.460166 0.735221
vt 0.327748 0.632472
vt 1.018970 0.194310
vt 0.392489 0.006852
vt 0.607511 0.006852
vt 0.607511 0.993148
vt 0.392489 0.993148
vt 0.454232 0.603908
vt 0.545768 0.603908
vt 0.545768 0.789513
vt 0.454232 0.789513
vt 0.454232 0.500000
vt 0.545768 0.500000
vt 0.545768 0.324771
vt 0.454232 0.324771
vt 0.454232 0.351352
vt 0.545768 0.351352
vt 0.454232 0.675229
vt 0.545768 0.675229
vt 0.454232 0.116425
vt 0.545768 0.116425
vt 0.545768 0.883575
vt 0.454232 0.883575
vt 0.454232 0.807647
vt 0.545768 0.807647
vt 0.454232 0.789513
vt 0.545768 0.789513
vt 0.545768 0.603908
vt 0.454232 0.603908
vt 0.545768 0.192353
vt 0.454232 0.192353
s 1
usemtl brick_modern
f 2/1/1 6/2/1 8/3/1
f 15/1/2 14/10/2 16/11/2 26/12/2 23/13/2 24/14/2 25/15/2 20/16/2 21/3/2
f 1/10/1 3/11/1 4/17/1
f 15/1/2 21/3/2 19/2/2
f 14/10/2 17/17/2 16/11/2
f 8/22/4 21/23/4 20/24/5 11/25/5
f 9/26/7 24/27/7 23/28/8 13/29/8
f 6/30/3 19/31/3 21/23/4 8/22/4
f 10/32/9 25/33/9 24/27/7 9/26/7
f 11/38/5 20/39/5 25/33/9 10/32/9
f 12/40/11 26/41/11 16/42/12 3/43/12
f 3/43/12 16/42/12 17/31/6 4/30/6
f 13/29/8 23/28/8 26/44/11 12/45/11
f 2/1/1 8/3/1 11/16/1 10/15/1 9/14/1 13/13/1 12/12/1 3/11/1 1/10/1
usemtl concrete_bare_01
f 7/4/1 5/5/1 6/6/1 2/7/1 1/8/1 4/9/1
f 14/8/2 15/7/2 19/6/2 18/5/2 22/4/2 17/9/2
f 5/18/3 18/19/3 19/20/3 6/21/3
f 4/21/6 17/20/6 22/19/6 7/18/6
f 7/34/10 22/35/10 18/36/10 5/37/10
