# Blender 4.5.9 LTS
# www.blender.org
mtllib Serwers_015.mtl
o Serwers_015
v 0.000000 3.386930 0.613069
v 0.000000 3.386931 3.386930
v 0.000000 -2.882610 3.386931
v 0.000000 -2.882610 0.613070
v -0.979492 -2.882610 0.613070
v -0.979492 -2.882610 3.386931
v -1.157323 -2.111717 3.386931
v -1.157323 -2.111717 0.613070
v -2.648009 -2.053543 0.613070
v -2.648009 -2.111717 3.386931
v -3.302013 -0.664609 0.613070
v -3.302013 -0.753663 3.386930
v -3.302013 0.836372 0.613069
v -3.302013 0.753663 3.386930
v -2.648009 2.151977 0.613069
v -2.648009 2.111717 3.386930
v -1.469534 3.051519 0.613069
v -1.469534 3.051519 3.386930
v 0.979492 -2.882610 0.613070
v 0.979492 -2.882610 3.386931
v 1.157323 -2.111717 3.386931
v 1.157323 -2.111717 0.613070
v 2.648009 -2.111717 0.613070
v 2.648009 -2.111717 3.386931
v 3.302013 -0.753663 0.613070
v 3.302013 -0.753663 3.386930
v 3.302013 0.753663 0.613069
v 3.302013 0.753663 3.386930
v 2.648009 2.111717 0.613069
v 2.648009 2.111717 3.386930
v 1.469534 3.051519 0.613069
v 1.469534 3.051519 3.386930
v -0.436495 3.502196 -3.935666
v -0.436495 -2.734057 -3.935665
v -1.382609 -2.682609 -3.682144
v -1.554380 -1.901474 -3.636117
v -2.994268 -1.828124 -3.250284
v -3.625986 -0.443693 -3.081010
v -3.625986 1.057717 -3.081010
v -2.994268 2.378574 -3.250285
v -1.855952 3.248412 -3.555308
v 0.509619 -2.787609 -4.189186
v 0.681391 -2.025948 -4.235214
v 2.121279 -2.111717 -4.621046
v 2.752997 -0.753663 -4.790321
v 2.752997 0.753662 -4.790321
v 2.121279 2.111717 -4.621046
v 0.982962 3.091172 -4.316023
v -2.035458 3.766363 -8.216417
v -2.035458 -2.470665 -8.216417
v -2.883714 -2.423686 -7.726654
v -3.037718 -1.641850 -7.637735
v -4.328675 -1.579202 -6.892366
v -4.895053 -0.199378 -6.565353
v -4.895053 1.302705 -6.565353
v -4.328675 2.628047 -6.892366
v -3.308098 3.504421 -7.481625
v -1.187203 -2.520524 -8.706181
v -1.033198 -1.754277 -8.795099
v 0.257758 -1.836161 -9.540467
v 0.824136 -0.517056 -9.867480
v 0.824136 0.984197 -9.867480
v 0.257758 2.372411 -9.540467
v -0.762819 3.362993 -8.951210
v -4.687916 4.056140 -11.937437
v -4.687916 -2.193360 -11.937437
v -5.380501 -2.153364 -11.244811
v -5.506243 -1.366689 -11.119061
v -6.560286 -1.311443 -10.064956
v -7.022723 0.064158 -9.602490
v -7.022723 1.567396 -9.602490
v -6.560286 2.895805 -10.064956
v -5.727003 3.777974 -10.898289
v -3.995331 -2.235933 -12.630063
v -3.869589 -1.473760 -12.755814
v -2.815547 -1.549139 -13.809919
v -2.353110 -0.229228 -14.272384
v -2.353110 1.277366 -14.272384
v -2.815547 2.667690 -13.809919
v -3.648829 3.660383 -12.976586
v -8.213093 4.365108 -14.845124
v -8.213094 -1.888357 -14.845124
v -8.702806 -1.853283 -13.996841
v -8.791716 -1.078502 -13.842831
v -9.537006 -1.036370 -12.551829
v -9.863986 0.342403 -11.985431
v -9.863986 1.848002 -11.985431
v -9.537006 3.176634 -12.551829
v -8.947810 4.083961 -13.572441
v -7.723381 -1.931874 -15.693411
v -7.634471 -1.168686 -15.847420
v -6.889180 -1.230949 -17.138422
v -6.562201 0.089072 -17.704821
v -6.562201 1.577297 -17.704821
v -6.889180 2.998900 -17.138422
v -7.478377 3.985777 -16.117811
v -12.370737 4.701337 -16.741310
v -12.370738 -1.561922 -16.741310
v -12.624202 -1.546253 -15.795182
v -12.670220 -0.771691 -15.623406
v -13.055966 -0.740944 -14.183498
v -13.225203 0.630597 -13.551765
v -13.225203 2.137923 -13.551765
v -13.055966 3.482490 -14.183498
v -12.751011 4.395791 -15.321831
v -12.117273 -1.581830 -17.687443
v -12.071255 -0.823622 -17.859215
v -11.685511 -0.848690 -19.299128
v -11.516273 0.491166 -19.930857
v -11.516273 2.001689 -19.930857
v -11.685511 3.373237 -19.299128
v -11.990465 4.338579 -18.160793
v -16.877491 5.064403 -17.496765
v -16.877491 -1.205138 -17.496763
v -16.877432 -1.205138 -16.517273
v -16.877420 -0.434245 -16.339439
v -16.877333 -0.434244 -14.848755
v -16.877293 0.923809 -14.194748
v -16.877293 2.431135 -14.194748
v -16.877333 3.789189 -14.848755
v -16.877403 4.728992 -16.027229
v -16.877548 -1.205138 -18.476257
v -16.877558 -0.434245 -18.654091
v -16.877649 -0.434245 -20.144773
v -16.877689 0.923809 -20.798780
v -16.877689 2.431135 -20.798780
v -16.877649 3.789189 -20.144773
v -16.877579 4.728991 -18.966301
v -19.877491 5.064403 -17.496765
v -19.877491 -1.205138 -17.496763
v -19.877434 -1.205138 -16.517273
v -19.877422 -0.434245 -16.339439
v -19.877333 -0.434244 -14.848755
v -19.877293 0.923809 -14.194748
v -19.877293 2.431135 -14.194748
v -19.877333 3.789189 -14.848755
v -19.877403 4.728992 -16.027229
v -19.877548 -1.205138 -18.476257
v -19.877560 -0.434245 -18.654091
v -19.877649 -0.434245 -20.144773
v -19.877689 0.923809 -20.798780
v -19.877689 2.431135 -20.798780
v -19.877649 3.789189 -20.144773
v -19.877581 4.728991 -18.966301
vn -0.0000 1.0000 -0.0000
vn 0.0156 0.9998 0.0147
vn 0.0162 0.9997 0.0187
vn 0.9744 0.2248 -0.0000
vn 0.9740 0.2233 -0.0394
vn 0.9739 0.2232 -0.0411
vn 0.0195 0.9998 0.0105
vn 0.0349 0.9990 0.0291
vn 0.0358 0.9989 0.0302
vn 0.9042 0.4267 -0.0207
vn 0.9746 0.2216 -0.0335
vn 0.9744 0.2246 0.0060
vn 0.9028 0.4299 0.0114
vn 0.9728 -0.2257 -0.0523
vn 0.9752 -0.2215 -0.0049
vn 0.7702 -0.6353 -0.0562
vn 0.7776 -0.6287 -0.0079
vn 0.4131 -0.9098 -0.0396
vn 0.4291 -0.9032 -0.0029
vn -0.0212 -0.9997 -0.0106
vn -0.0000 -1.0000 -0.0000
vn 0.0149 0.9998 0.0112
vn -0.9744 0.2248 -0.0000
vn -0.9732 0.2247 0.0496
vn -0.9732 0.2247 0.0497
vn 0.0145 0.9999 0.0027
vn 0.0154 0.9999 0.0028
vn -0.9004 0.4327 0.0461
vn -0.9010 0.4339 -0.0000
vn -0.9749 0.2225 -0.0000
vn -0.9742 0.2204 0.0489
vn -0.9749 -0.2225 -0.0000
vn -0.9742 -0.2204 0.0489
vn -0.7818 -0.6235 -0.0000
vn -0.7860 -0.6170 0.0388
vn -0.4339 -0.9010 -0.0000
vn -0.4483 -0.8937 0.0183
vn -0.9474 0.2231 0.2296
vn -0.8738 0.4369 0.2136
vn -0.9459 0.2265 0.2324
vn -0.9476 0.2264 0.2252
vn 0.7322 -0.6498 -0.2039
vn 0.3635 -0.9224 -0.1309
vn -0.4685 -0.8797 0.0818
vn -0.7790 -0.6040 0.1683
vn 0.9547 0.2228 -0.1971
vn 0.9464 -0.2318 -0.2249
vn 0.0592 0.9972 0.0452
vn 0.0589 0.9972 0.0454
vn -0.9515 -0.2144 0.2205
vn 0.0522 0.9985 0.0179
vn 0.0514 0.9985 0.0174
vn -0.0663 -0.9975 -0.0255
vn 0.0509 0.9982 0.0320
vn 0.0503 0.9981 0.0365
vn 0.0515 0.9983 0.0283
vn 0.8888 0.4262 -0.1683
vn 0.9539 0.2223 -0.2017
vn 0.9524 0.2223 -0.2087
vn 0.8705 0.2212 -0.4397
vn 0.8666 0.2212 -0.4473
vn -0.8506 0.2266 0.4745
vn -0.8555 0.2266 0.4655
vn 0.0700 0.9969 0.0356
vn 0.0699 0.9969 0.0359
vn 0.0754 0.9969 0.0214
vn 0.0753 0.9969 0.0217
vn 0.8158 0.4272 -0.3899
vn 0.8717 0.2233 -0.4363
vn -0.8529 0.2233 0.4719
vn -0.7817 0.4415 0.4404
vn 0.8555 -0.2312 -0.4634
vn -0.8647 -0.2145 0.4543
vn 0.6520 -0.6499 -0.3905
vn -0.7178 -0.6014 0.3509
vn 0.3073 -0.9237 -0.2290
vn -0.4458 -0.8763 0.1829
vn -0.0862 -0.9960 -0.0223
vn 0.0725 0.9970 0.0280
vn 0.0718 0.9970 0.0299
vn 0.0732 0.9970 0.0264
vn 0.5281 -0.6473 -0.5496
vn 0.2387 -0.9209 -0.3083
vn -0.3853 -0.8770 0.2870
vn -0.6062 -0.5989 0.5233
vn -0.0880 -0.9961 -0.0075
vn 0.0767 0.9969 0.0147
vn 0.0761 0.9969 0.0174
vn 0.0772 0.9969 0.0123
vn 0.7278 0.2213 -0.6491
vn 0.7217 0.2213 -0.6558
vn -0.6980 0.2268 0.6793
vn -0.7055 0.2268 0.6714
vn 0.0744 0.9970 0.0231
vn 0.0743 0.9970 0.0234
vn 0.0776 0.9970 0.0073
vn 0.0776 0.9970 0.0075
vn 0.6881 0.4279 -0.5861
vn 0.7296 0.2235 -0.6463
vn -0.7006 0.2244 0.6774
vn -0.6383 0.4441 0.6287
vn 0.7057 -0.2309 -0.6698
vn -0.7187 -0.2130 0.6619
vn -0.4995 0.2243 0.8368
vn -0.4511 0.4428 0.7749
vn 0.5381 0.2236 -0.8127
vn 0.5076 -0.2303 -0.8303
vn -0.5248 -0.2111 0.8247
vn 0.3674 -0.6431 -0.6719
vn -0.4538 -0.5996 0.6591
vn 0.1509 -0.9176 -0.3679
vn -0.2997 -0.8796 0.3694
vn -0.0870 -0.9962 0.0057
vn 0.0786 0.9969 0.0043
vn 0.0775 0.9970 0.0077
vn 0.0796 0.9968 0.0015
vn 0.5360 0.2226 -0.8144
vn 0.5278 0.2226 -0.8197
vn -0.4965 0.2274 0.8377
vn -0.5068 0.2273 0.8316
vn 0.0771 0.9970 0.0112
vn 0.0771 0.9970 0.0114
vn 0.0782 0.9969 0.0010
vn 0.5143 0.4281 -0.7431
vn 0.3084 0.2237 -0.9246
vn 0.2984 0.2237 -0.9279
vn -0.2603 0.2271 0.9384
vn -0.2731 0.2271 0.9348
vn 0.0792 0.9969 0.0029
vn 0.0792 0.9969 0.0030
vn 0.0791 0.9969 0.0013
vn 0.0790 0.9969 0.0012
vn 0.3059 0.4296 -0.8496
vn 0.3102 0.2244 -0.9238
vn -0.2643 0.2216 0.9387
vn -0.2322 0.4389 0.8680
vn 0.2750 -0.2287 -0.9338
vn -0.2955 -0.2151 0.9308
vn 0.1804 -0.6386 -0.7481
vn -0.2716 -0.6053 0.7482
vn 0.0500 -0.9129 -0.4051
vn -0.1973 -0.8841 0.4235
vn -0.0845 -0.9963 0.0143
vn 0.0787 0.9969 0.0007
vn 0.0778 0.9970 0.0029
vn 0.0794 0.9968 -0.0010
vn 0.0407 -0.6335 -0.7726
vn -0.0018 -0.9070 -0.4211
vn -0.0712 -0.8958 0.4388
vn -0.0866 -0.6198 0.7800
vn -0.0415 -0.9991 0.0111
vn 0.0395 0.9992 0.0005
vn 0.0416 0.9991 0.0012
vn 0.0373 0.9993 -0.0000
vn 0.0918 0.2244 -0.9702
vn 0.0896 0.2244 -0.9704
vn -0.0683 0.2253 0.9719
vn -0.0734 0.2253 0.9715
vn 0.0378 0.9993 -0.0000
vn 0.0421 0.9991 -0.0000
vn 0.0378 0.9993 0.0009
vn 0.0419 0.9991 0.0010
vn 0.0949 0.4329 -0.8964
vn 0.0944 0.2193 -0.9711
vn -0.0697 0.2150 0.9741
vn -0.0577 0.4342 0.8990
vn 0.0757 -0.2307 -0.9701
vn -0.0860 -0.2248 0.9706
vn -0.0000 0.2225 0.9749
vn -0.0000 0.4339 0.9010
vn -0.0000 0.2225 -0.9749
vn -0.0000 -0.2225 -0.9749
vn -0.0000 -0.2225 0.9749
vn -0.0000 -0.6235 -0.7818
vn -0.0000 -0.6235 0.7818
vn -0.0000 -0.9010 -0.4339
vn -0.0000 -0.9010 0.4339
vn -0.0000 0.2248 -0.9744
vn -0.0000 0.2248 0.9744
vn -0.0000 0.4339 -0.9010
vt -0.258957 1.006753
vt -0.258957 1.237606
vt 0.394805 1.237606
vt 0.394805 1.006753
vt -0.258957 0.195233
vt -0.258957 0.013544
vt 0.394805 0.013544
vt 0.394805 0.195233
vt -0.258957 0.646012
vt -0.258957 0.997347
vt 0.394805 0.997347
vt 0.394806 0.646012
vt 0.329509 0.005138
vt 0.329509 0.241734
vt -0.153743 0.241734
vt -0.153743 0.005138
vt 0.329509 0.504334
vt -0.153743 0.504335
vt 0.329509 0.740930
vt -0.153743 0.740930
vt 0.329509 0.533535
vt 0.329509 0.738845
vt -0.153743 0.738845
vt -0.153743 0.533535
vt 0.329509 0.994861
vt -0.153743 0.994861
vt 2.714325 -0.006102
vt 2.714325 0.206588
vt 2.052948 0.206588
vt 2.052948 -0.006102
vt 2.688709 0.018021
vt 2.688709 0.169361
vt 1.736902 0.169361
vt 1.745938 0.018021
vt 2.714325 1.270038
vt 2.714325 1.482728
vt 2.052948 1.482728
vt 2.052948 1.270038
vt 2.714325 0.631968
vt 2.714325 0.844658
vt 2.052948 0.844658
vt 2.052948 0.631968
vt 2.714325 1.695418
vt 2.714325 1.908109
vt 2.052948 1.908109
vt 2.052948 1.695418
vt 3.337347 0.674754
vt 3.337347 0.992236
vt 2.511244 0.992235
vt 2.511244 0.674754
vt 2.714325 0.419278
vt 2.052948 0.419278
vt 4.268844 0.993903
vt 4.268844 0.666461
vt 3.198754 0.666461
vt 3.198754 0.993904
vt 2.714325 1.057348
vt 2.052948 1.057348
vt 3.981991 0.005643
vt 3.981991 0.228148
vt 3.001989 0.228148
vt 3.001989 0.005643
vt 3.964236 0.188033
vt 3.964236 0.006958
vt 3.072226 0.006958
vt 3.072226 0.188033
vt 2.714325 2.120799
vt 2.052948 2.120799
vt 2.399425 0.190849
vt 2.399425 0.015062
vt 1.419986 0.015062
vt 1.430482 0.190849
vt 0.497716 0.015062
vt 0.517992 0.190849
vt 0.841713 0.169361
vt 0.859169 0.018021
vt 1.685141 0.992235
vt 1.685141 0.674754
vt 2.128666 0.666461
vt 2.128666 0.993904
vt 1.391571 2.120799
vt 1.391572 1.908109
vt 1.391571 0.206588
vt 1.391571 -0.006102
vt 1.391571 1.695418
vt 1.391571 0.419278
vt 1.391571 1.482728
vt 1.391571 0.631968
vt 1.391571 1.270038
vt 1.391571 0.844658
vt 1.391571 1.057348
vt 2.021988 0.228147
vt 2.021988 0.005643
vt 2.180214 0.006958
vt 2.180214 0.188033
vt 0.730194 1.482728
vt 0.730194 1.270038
vt 0.730194 0.844658
vt 0.730194 0.631968
vt 0.730194 1.057348
vt 1.041986 0.228147
vt 1.041986 0.005643
vt 1.288202 0.006958
vt 1.288202 0.188033
vt -0.304529 0.015062
vt -0.275855 0.190849
vt 0.064152 0.169361
vt 0.088839 0.018021
vt 0.859039 0.992235
vt 0.859039 0.674754
vt 1.058578 0.666461
vt 1.058578 0.993904
vt 0.730194 2.120799
vt 0.730194 1.908109
vt 0.730194 0.206588
vt 0.730194 -0.006102
vt 0.730194 1.695418
vt 0.730194 0.419278
vt 0.068817 0.206588
vt 0.068817 -0.006102
vt 0.068818 1.908109
vt 0.068818 1.695418
vt 0.068817 0.419278
vt 0.068817 1.482728
vt 0.068817 0.631968
vt 0.068817 1.270038
vt 0.068817 0.844658
vt 0.068817 1.057348
vt 0.061984 0.228147
vt 0.061984 0.005643
vt 0.396191 0.006958
vt 0.396191 0.188033
vt 2.273993 0.187221
vt 2.302666 0.011434
vt 1.545080 0.011434
vt 1.524806 0.187221
vt 2.341690 0.021260
vt 2.366376 0.172601
vt 1.627260 0.172601
vt 1.609806 0.021260
vt 0.032936 0.992235
vt 0.032936 0.674754
vt -0.011511 0.666461
vt -0.011511 0.993904
vt 0.068818 2.120799
vt 0.650884 0.011434
vt 0.640390 0.187221
vt 0.756239 0.172601
vt 0.747205 0.021260
vt -0.793166 0.992235
vt -0.793166 0.674754
vt -1.081599 0.666461
vt -1.081599 0.993904
vt -0.592559 2.120799
vt -0.592559 1.908109
vt -0.592559 0.206588
vt -0.592559 -0.006102
vt -0.592559 1.695418
vt -0.592559 0.419278
vt -0.592559 1.482728
vt -0.592559 0.631968
vt -0.592559 1.270038
vt -0.592559 0.844658
vt -0.592559 1.057348
vt -0.918017 0.228147
vt -0.918017 0.005643
vt -0.495821 0.006958
vt -0.495821 0.188033
vt -1.253937 1.482728
vt -1.253937 1.270038
vt -1.253937 0.844658
vt -1.253937 0.631968
vt -1.253937 1.057348
vt -1.898019 0.228147
vt -1.898019 0.005643
vt -1.387832 0.006958
vt -1.387832 0.188033
vt -0.318981 0.011434
vt -0.318978 0.187221
vt -0.187326 0.172601
vt -0.187325 0.021260
vt -1.619269 0.992235
vt -1.619269 0.674754
vt -2.151689 0.666461
vt -2.151689 0.993904
vt -1.253937 2.120799
vt -1.253937 1.908109
vt -1.253937 0.206588
vt -1.253937 -0.006102
vt -1.253937 1.695418
vt -1.253937 0.419278
vt -1.688131 0.206588
vt -1.688131 -0.006102
vt -1.688131 1.908109
vt -1.688131 1.695419
vt -1.688131 0.419278
vt -1.688131 1.482728
vt -1.688131 0.631968
vt -1.688131 1.270038
vt -1.688131 0.844658
vt -1.688131 1.057348
vt -2.541391 0.228147
vt -2.541391 0.005643
vt -1.973439 0.006958
vt -1.973439 0.188033
vt -1.003072 0.011434
vt -1.003069 0.187221
vt -0.776282 0.172601
vt -0.776280 0.021260
vt -2.161606 0.992235
vt -2.161606 0.674754
vt -2.854203 0.666461
vt -2.854203 0.993904
vt -1.688131 2.120799
s 1
usemtl concrete_base
f 6/1/1 3/2/1 4/3/2 5/4/3
f 7/5/4 6/6/4 5/7/5 8/8/6
f 10/9/7 7/10/7 8/11/8 9/12/9
f 20/1/1 19/4/22 4/3/2 3/2/1
f 21/5/23 22/8/24 19/7/25 20/6/23
f 24/9/1 23/12/26 22/11/27 21/10/1
f 19/31/25 22/32/24 43/33/40 42/34/41
f 9/47/9 8/48/8 36/49/48 37/50/49
f 22/53/27 23/54/26 44/55/51 43/56/52
f 5/59/3 4/60/2 34/61/54 35/62/55
f 4/63/2 19/64/22 42/65/56 34/66/54
f 8/69/6 5/70/5 35/71/58 36/72/59
f 36/72/59 35/71/58 51/73/60 52/74/61
f 42/34/41 43/33/40 59/75/62 58/76/63
f 37/50/49 36/49/48 52/77/64 53/78/65
f 43/56/52 44/55/51 60/79/66 59/80/67
f 35/62/55 34/61/54 50/92/79 51/93/80
f 34/66/54 42/65/56 58/94/81 50/95/79
f 51/93/80 50/92/79 66/101/87 67/102/88
f 50/95/79 58/94/81 74/103/89 66/104/87
f 52/74/61 51/73/60 67/105/90 68/106/91
f 58/76/63 59/75/62 75/107/92 74/108/93
f 53/78/65 52/77/64 68/109/94 69/110/95
f 59/80/67 60/79/66 76/111/96 75/112/97
f 67/102/88 66/101/87 82/129/114 83/130/115
f 66/104/87 74/103/89 90/131/116 82/132/114
f 68/133/91 67/134/90 83/135/117 84/136/118
f 74/137/93 75/138/92 91/139/119 90/140/120
f 69/110/95 68/109/94 84/141/121 85/142/122
f 75/112/97 76/111/96 92/143/123 91/144/123
f 84/136/118 83/135/117 99/146/125 100/147/126
f 90/140/120 91/139/119 107/148/127 106/149/128
f 85/142/122 84/141/121 100/150/129 101/151/130
f 91/144/123 92/143/123 108/152/131 107/153/132
f 83/130/115 82/129/114 98/165/144 99/166/145
f 82/132/114 90/131/116 106/167/146 98/168/144
f 99/166/145 98/165/144 114/174/152 115/175/153
f 98/168/144 106/167/146 122/176/154 114/177/152
f 100/147/126 99/146/125 115/178/155 116/179/156
f 106/149/128 107/148/127 123/180/157 122/181/158
f 101/151/130 100/150/129 116/182/159 117/183/160
f 107/153/132 108/152/131 124/184/161 123/185/162
f 115/175/153 114/174/152 130/202/1 131/203/1
f 114/177/152 122/176/154 138/204/1 130/205/1
f 116/179/156 115/178/155 131/206/178 132/207/178
f 122/181/158 123/180/157 139/208/179 138/209/179
f 117/183/160 116/182/159 132/210/1 133/211/1
f 123/185/162 124/184/161 140/212/1 139/213/1
usemtl brick_modern_01
f 9/13/10 11/14/11 12/15/12 10/16/13
f 11/14/11 13/17/14 14/18/15 12/15/12
f 13/17/14 15/19/16 16/20/17 14/18/15
f 15/21/16 17/22/18 18/23/19 16/24/17
f 17/22/18 1/25/20 2/26/21 18/23/19
f 23/13/28 24/16/29 26/15/30 25/14/31
f 25/14/31 26/15/30 28/18/32 27/17/33
f 27/17/33 28/18/32 30/20/34 29/19/35
f 29/21/35 30/24/34 32/23/36 31/22/37
f 31/22/37 32/23/36 2/26/21 1/25/20
f 23/27/28 25/28/31 45/29/38 44/30/39
f 17/35/18 15/36/16 40/37/42 41/38/43
f 29/39/35 31/40/37 48/41/44 47/42/45
f 13/43/14 11/44/11 38/45/46 39/46/47
f 25/28/31 27/51/33 46/52/50 45/29/38
f 1/57/20 17/35/18 41/38/43 33/58/53
f 31/40/37 1/57/20 33/58/53 48/41/44
f 15/36/16 13/43/14 39/46/47 40/37/42
f 27/51/33 29/39/35 47/42/45 46/52/50
f 11/44/11 9/67/10 37/68/57 38/45/46
f 38/45/46 37/68/57 53/81/68 54/82/69
f 44/30/39 45/29/38 61/83/70 60/84/71
f 39/46/47 38/45/46 54/82/69 55/85/72
f 45/29/38 46/52/50 62/86/73 61/83/70
f 40/37/42 39/46/47 55/85/72 56/87/74
f 46/52/50 47/42/45 63/88/75 62/86/73
f 41/38/43 40/37/42 56/87/74 57/89/76
f 47/42/45 48/41/44 64/90/77 63/88/75
f 33/58/53 41/38/43 57/89/76 49/91/78
f 48/41/44 33/58/53 49/91/78 64/90/77
f 57/89/76 56/87/74 72/96/82 73/97/83
f 63/88/75 64/90/77 80/98/84 79/99/85
f 49/91/78 57/89/76 73/97/83 65/100/86
f 64/90/77 49/91/78 65/100/86 80/98/84
f 54/82/69 53/81/68 69/113/98 70/114/99
f 60/84/71 61/83/70 77/115/100 76/116/101
f 55/85/72 54/82/69 70/114/99 71/117/102
f 61/83/70 62/86/73 78/118/103 77/115/100
f 56/87/74 55/85/72 71/117/102 72/96/82
f 62/86/73 63/88/75 79/99/85 78/118/103
f 76/116/101 77/115/100 93/119/104 92/120/105
f 71/117/102 70/114/99 86/121/106 87/122/107
f 77/115/100 78/118/103 94/123/108 93/119/104
f 72/96/82 71/117/102 87/122/107 88/124/109
f 78/118/103 79/99/85 95/125/110 94/123/108
f 73/97/83 72/96/82 88/124/109 89/126/111
f 79/99/85 80/98/84 96/127/112 95/125/110
f 65/100/86 73/97/83 89/126/111 81/128/113
f 80/98/84 65/100/86 81/128/113 96/127/112
f 70/114/99 69/113/98 85/145/124 86/121/106
f 86/121/106 85/145/124 101/154/133 102/155/134
f 92/120/105 93/119/104 109/156/135 108/157/136
f 87/122/107 86/121/106 102/155/134 103/158/137
f 93/119/104 94/123/108 110/159/138 109/156/135
f 88/124/109 87/122/107 103/158/137 104/160/139
f 94/123/108 95/125/110 111/161/140 110/159/138
f 89/126/111 88/124/109 104/160/139 105/162/141
f 95/125/110 96/127/112 112/163/142 111/161/140
f 81/128/113 89/126/111 105/162/141 97/164/143
f 96/127/112 81/128/113 97/164/143 112/163/142
f 105/162/141 104/160/139 120/169/147 121/170/148
f 111/161/140 112/163/142 128/171/149 127/172/150
f 97/164/143 105/162/141 121/170/148 113/173/151
f 112/163/142 97/164/143 113/173/151 128/171/149
f 102/155/134 101/154/133 117/186/163 118/187/164
f 108/157/136 109/156/135 125/188/165 124/189/166
f 103/158/137 102/155/134 118/187/164 119/190/167
f 109/156/135 110/159/138 126/191/168 125/188/165
f 104/160/139 103/158/137 119/190/167 120/169/147
f 110/159/138 111/161/140 127/172/150 126/191/168
f 124/189/166 125/188/165 141/192/169 140/193/170
f 119/190/167 118/187/164 134/194/171 135/195/172
f 125/188/165 126/191/168 142/196/173 141/192/169
f 120/169/147 119/190/167 135/195/172 136/197/174
f 126/191/168 127/172/150 143/198/175 142/196/173
f 121/170/148 120/169/147 136/197/174 137/199/176
f 127/172/150 128/171/149 144/200/177 143/198/175
f 113/173/151 121/170/148 137/199/176 129/201/21
f 128/171/149 113/173/151 129/201/21 144/200/177
f 118/187/164 117/186/163 133/214/180 134/194/171
