# Blender 4.5.9 LTS
# www.blender.org
mtllib SerwersP1_012.mtl
o SerwersP1_012
v 0.025531 -1.294195 0.003512
v 0.025531 -1.294195 0.973524
v 0.025531 0.967408 0.003511
v 0.025531 0.967408 0.973524
v 0.025531 0.940438 0.035423
v 0.025531 -1.267225 0.035423
v 0.025531 -1.267225 0.941612
v 0.025531 0.940438 0.941612
v -0.023688 0.940438 0.035423
v -0.023688 -1.267225 0.035423
v -0.023688 -1.267225 0.941612
v -0.023688 0.940438 0.941612
v -0.023688 0.967408 0.003511
v -0.023688 -1.294195 0.003512
v -0.023688 -1.294195 0.973524
v -0.023688 0.967408 0.973524
v -0.009715 -1.055696 0.965107
v -0.009715 -1.024045 0.965107
v -0.009715 -1.055696 0.011928
v -0.009715 -1.024045 0.011928
v 0.011353 -1.055696 0.965107
v 0.011353 -1.024045 0.965107
v 0.011353 -1.055696 0.011928
v 0.011353 -1.024045 0.011928
v -0.009715 -0.773598 0.965107
v -0.009715 -0.741947 0.965107
v -0.009715 -0.773598 0.011928
v -0.009715 -0.741948 0.011928
v 0.011353 -0.773598 0.965107
v 0.011353 -0.741947 0.965107
v 0.011353 -0.773598 0.011928
v 0.011353 -0.741948 0.011928
v -0.009715 -0.444231 0.965107
v -0.009715 -0.412580 0.965107
v -0.009715 -0.444231 0.011928
v -0.009715 -0.412580 0.011928
v 0.011353 -0.444231 0.965107
v 0.011353 -0.412580 0.965107
v 0.011353 -0.444231 0.011928
v 0.011353 -0.412580 0.011928
v -0.009715 -0.031518 0.965107
v -0.009715 0.000133 0.965107
v -0.009715 -0.031518 0.011928
v -0.009715 0.000133 0.011928
v 0.011353 -0.031518 0.965107
v 0.011353 0.000133 0.965107
v 0.011353 -0.031518 0.011928
v 0.011353 0.000133 0.011928
v -0.009715 0.228016 0.965107
v -0.009715 0.259667 0.965107
v -0.009715 0.228016 0.011928
v -0.009715 0.259667 0.011928
v 0.011353 0.228016 0.965107
v 0.011353 0.259667 0.965107
v 0.011353 0.228016 0.011928
v 0.011353 0.259667 0.011928
v -0.009715 0.487550 0.965107
v -0.009715 0.519201 0.965107
v -0.009715 0.487550 0.011928
v -0.009715 0.519201 0.011928
v 0.011353 0.487550 0.965107
v 0.011353 0.519201 0.965107
v 0.011353 0.487550 0.011928
v 0.011353 0.519201 0.011928
v -0.009715 0.747084 0.965107
v -0.009715 0.778734 0.965107
v -0.009715 0.747084 0.011928
v -0.009715 0.778734 0.011928
v 0.011353 0.747084 0.965107
v 0.011353 0.778734 0.965107
v 0.011353 0.747084 0.011928
v 0.011353 0.778734 0.011928
v -0.000384 -1.270052 0.220625
v -0.000384 -1.270052 0.252276
v -0.000384 0.953048 0.220625
v -0.000384 0.953048 0.252276
v 0.020684 -1.270052 0.220625
v 0.020684 -1.270052 0.252276
v 0.020684 0.953048 0.220625
v 0.020684 0.953048 0.252276
v -0.000384 -1.270052 0.480160
v -0.000384 -1.270052 0.511810
v -0.000384 0.953048 0.480159
v -0.000384 0.953048 0.511810
v 0.020684 -1.270052 0.480160
v 0.020684 -1.270052 0.511810
v 0.020684 0.953048 0.480159
v 0.020684 0.953048 0.511810
v -0.000384 -1.270052 0.739694
v -0.000384 -1.270052 0.771344
v -0.000384 0.953048 0.739694
v -0.000384 0.953048 0.771344
v 0.020684 -1.270052 0.739694
v 0.020684 -1.270052 0.771344
v 0.020684 0.953048 0.739694
v 0.020684 0.953048 0.771344
v -0.018433 -0.131353 0.955167
v -0.018433 0.013192 0.955167
v -0.018433 -0.131353 0.765473
v -0.018433 0.013192 0.765473
v 0.021276 -0.131353 0.955167
v 0.021276 0.013192 0.955167
v 0.021276 -0.131353 0.765473
v 0.021276 0.013192 0.765473
v 0.000000 0.501290 0.005531
v 0.000000 0.596725 0.005531
v -0.005531 0.501290 -0.000000
v -0.005531 0.596725 -0.000000
v 0.005531 0.501290 -0.000000
v 0.005531 0.596725 -0.000000
v 0.000000 0.501290 -0.005531
v 0.000000 0.596725 -0.005531
v -0.000000 -0.444901 0.005531
v -0.000000 -0.540335 0.005531
v -0.005531 -0.444901 0.000000
v -0.005531 -0.540335 0.000000
v 0.005531 -0.444901 0.000000
v 0.005531 -0.540335 0.000000
v -0.000000 -0.444901 -0.005531
v -0.000000 -0.540335 -0.005531
vn 1.0000 -0.0000 -0.0000
vn -1.0000 -0.0000 -0.0000
vn -0.0000 -1.0000 -0.0000
vn -0.0000 -0.0000 1.0000
vn -0.0000 1.0000 -0.0000
vn -0.0000 -0.0000 -1.0000
vn -0.7071 -0.0000 0.7071
vn -0.7071 -0.0000 -0.7071
vn 0.7071 -0.0000 -0.7071
vn 0.7071 -0.0000 0.7071
vt -0.463463 0.149745
vt -0.484360 0.125019
vt 1.267960 0.125019
vt 1.247064 0.149745
vt 1.247064 0.851872
vt 1.267960 0.876598
vt -0.484360 0.876598
vt -0.463463 0.851872
vt -0.463463 0.851873
vt -0.484359 0.876598
vt -0.484359 0.125020
vt -0.463463 0.149745
vt -0.463463 0.149745
vt -0.463463 0.851872
vt -0.463463 0.851873
vt -0.484359 0.125020
vt -0.484360 0.876598
vt 0.519623 0.149745
vt 0.519623 0.851872
vt 0.481488 0.851872
vt 0.481488 0.149745
vt 0.519623 -0.463463
vt 0.519623 1.247064
vt 0.481488 1.247064
vt 0.481488 -0.463463
vt 0.519623 0.125019
vt 0.519623 0.876598
vt 0.481488 0.876598
vt 0.481488 0.125019
vt 0.519623 -0.484360
vt 0.519623 1.267960
vt 0.481488 1.267960
vt 0.481488 -0.484360
vt 0.519623 -0.463463
vt 0.481488 -0.463463
vt 0.519623 -0.484359
vt -0.299567 0.870076
vt -0.275044 0.870077
vt -0.275044 0.131541
vt -0.299567 0.131540
vt -0.299568 0.131541
vt -0.299568 0.870077
vt 0.492315 0.131540
vt 0.508638 0.131540
vt 0.508638 0.870077
vt 0.492315 0.870077
vt -0.080994 0.870077
vt -0.056471 0.870077
vt -0.056471 0.131540
vt -0.080994 0.131541
vt -0.056471 0.131540
vt -0.056471 0.870077
vt -0.080994 0.870077
vt 0.492315 0.870076
vt 0.174204 0.870077
vt 0.198727 0.870076
vt 0.198727 0.131540
vt 0.174204 0.131540
vt 0.174204 0.131540
vt 0.198727 0.131541
vt 0.198727 0.870076
vt 0.174204 0.870077
vt 0.492315 0.131540
vt 0.508638 0.131540
vt 0.493980 0.870077
vt 0.518503 0.870077
vt 0.518503 0.131540
vt 0.493980 0.131540
vt 0.695070 0.870077
vt 0.719593 0.870077
vt 0.719593 0.131540
vt 0.695070 0.131540
vt 0.896160 0.870077
vt 0.920684 0.870077
vt 0.920684 0.131540
vt 0.896160 0.131540
vt 1.097251 0.870077
vt 1.121774 0.870077
vt 1.121774 0.131540
vt 1.097251 0.131540
vt -0.465653 0.293242
vt -0.465653 0.317765
vt 1.256834 0.317765
vt 1.256834 0.293242
vt -0.465653 0.317765
vt -0.465653 0.293242
vt 0.499544 1.256834
vt 0.515868 1.256834
vt 0.515868 -0.465653
vt 0.499544 -0.465653
vt -0.465653 0.494333
vt -0.465653 0.518856
vt 1.256834 0.518856
vt 1.256834 0.494333
vt -0.465653 0.518856
vt -0.465653 0.494332
vt -0.465653 0.695423
vt -0.465653 0.719946
vt 1.256834 0.719946
vt 1.256834 0.695423
vt -0.465653 0.695423
vt 0.536441 0.741832
vt 0.536441 0.893909
vt 0.736019 0.893909
vt 0.736019 0.741832
vt 0.615341 0.741832
vt 0.615341 0.893909
vt 0.657119 0.893909
vt 0.657119 0.741832
vt 0.615341 0.917659
vt 0.657119 0.917659
vt 0.657119 0.718081
vt 0.615341 0.718081
vt 0.498021 0.800243
vt 0.498021 0.844894
vt 0.505838 0.844894
vt 0.505838 0.800243
vt 0.498020 0.800243
vt 0.498020 0.844894
vt 0.505837 0.844894
vt 0.505837 0.800243
vt 0.505838 0.800242
vt 0.505838 0.844893
vt 0.498022 0.844893
vt 0.498022 0.800242
vt 0.505836 0.800243
vt 0.505836 0.844894
vt 0.498020 0.844894
vt 0.498020 0.800243
vt 0.498020 0.505838
vt 0.505837 0.505838
vt 0.505837 0.498021
vt 0.498020 0.498022
vt 0.498020 0.505838
vt 0.498020 0.498022
vt 0.505837 0.498021
s 0
usemtl Metal
f 6/1/1 1/2/1 3/3/1 5/4/1
f 8/5/1 4/6/1 2/7/1 7/8/1
f 5/4/1 3/3/1 4/6/1 8/5/1
f 7/9/1 2/10/1 1/11/1 6/12/1
f 10/13/2 9/4/2 13/3/2 14/2/2
f 12/5/2 11/14/2 15/7/2 16/6/2
f 9/4/2 12/5/2 16/6/2 13/3/2
f 11/15/2 10/12/2 14/16/2 15/17/2
f 5/18/3 8/19/3 12/20/3 9/21/3
f 6/22/4 5/23/4 9/24/4 10/25/4
f 1/26/3 2/27/3 15/28/3 14/29/3
f 2/30/4 4/31/4 16/32/4 15/33/4
f 7/19/5 6/18/5 10/21/5 11/20/5
f 8/23/6 7/34/6 11/35/6 12/24/6
f 4/27/5 3/26/5 13/29/5 16/28/5
f 3/31/6 1/36/6 14/33/6 13/32/6
f 17/37/2 18/38/2 20/39/2 19/40/2
f 23/41/1 24/39/1 22/38/1 21/42/1
f 19/43/3 23/44/3 21/45/3 17/46/3
f 24/44/5 20/43/5 18/46/5 22/45/5
f 25/47/2 26/48/2 28/49/2 27/50/2
f 31/50/1 32/51/1 30/52/1 29/53/1
f 27/43/3 31/44/3 29/45/3 25/46/3
f 32/44/5 28/43/5 26/54/5 30/45/5
f 33/55/2 34/56/2 36/57/2 35/58/2
f 39/59/1 40/60/1 38/61/1 37/62/1
f 35/63/3 39/64/3 37/45/3 33/46/3
f 40/64/5 36/63/5 34/46/5 38/45/5
f 41/65/2 42/66/2 44/67/2 43/68/2
f 47/68/1 48/67/1 46/66/1 45/65/1
f 43/63/3 47/64/3 45/45/3 41/46/3
f 48/64/5 44/63/5 42/46/5 46/45/5
f 49/69/2 50/70/2 52/71/2 51/72/2
f 55/72/1 56/71/1 54/70/1 53/69/1
f 51/63/3 55/64/3 53/45/3 49/46/3
f 56/64/5 52/63/5 50/46/5 54/45/5
f 57/73/2 58/74/2 60/75/2 59/76/2
f 63/76/1 64/75/1 62/74/1 61/73/1
f 59/63/3 63/64/3 61/45/3 57/46/3
f 64/64/5 60/63/5 58/46/5 62/45/5
f 65/77/2 66/78/2 68/79/2 67/80/2
f 71/80/1 72/79/1 70/78/1 69/77/1
f 67/63/3 71/64/3 69/45/3 65/46/3
f 72/64/5 68/63/5 66/46/5 70/45/5
f 73/81/2 74/82/2 76/83/2 75/84/2
f 79/84/1 80/83/1 78/85/1 77/86/1
f 75/87/6 79/88/6 77/89/6 73/90/6
f 80/88/4 76/87/4 74/90/4 78/89/4
f 81/91/2 82/92/2 84/93/2 83/94/2
f 87/94/1 88/93/1 86/95/1 85/96/1
f 83/87/6 87/88/6 85/89/6 81/90/6
f 88/88/4 84/87/4 82/90/4 86/89/4
f 89/97/2 90/98/2 92/99/2 91/100/2
f 95/100/1 96/99/1 94/98/1 93/101/1
f 91/87/6 95/88/6 93/89/6 89/90/6
f 96/88/4 92/87/4 90/90/4 94/89/4
f 97/102/2 98/103/2 100/104/2 99/105/2
f 99/106/6 100/107/6 104/108/6 103/109/6
f 103/105/1 104/104/1 102/103/1 101/102/1
f 101/109/4 102/108/4 98/107/4 97/106/4
f 99/110/3 103/111/3 101/112/3 97/113/3
f 104/111/5 100/110/5 98/113/5 102/112/5
f 105/114/7 106/115/7 108/116/7 107/117/7
f 107/118/8 108/119/8 112/120/8 111/121/8
f 111/122/9 112/123/9 110/124/9 109/125/9
f 109/126/10 110/127/10 106/128/10 105/129/10
f 107/130/3 111/131/3 109/132/3 105/133/3
f 112/131/5 108/134/5 106/135/5 110/136/5
f 113/114/7 115/117/7 116/116/7 114/115/7
f 115/118/8 119/121/8 120/120/8 116/119/8
f 119/122/9 117/125/9 118/124/9 120/123/9
f 117/126/10 113/129/10 114/128/10 118/127/10
f 115/130/5 113/133/5 117/132/5 119/131/5
f 120/131/3 118/136/3 114/135/3 116/134/3
