# Blender 4.5.9 LTS
# www.blender.org
mtllib Serwers_005.mtl
o Serwers_005
v 0.000000 3.386930 -3.386931
v 0.000000 3.386931 3.386930
v 0.000000 -2.882610 3.386931
v 0.000000 -2.882610 -3.386930
v -0.979492 -2.882610 -3.386930
v -0.979492 -2.882610 3.386931
v -1.157323 -2.111717 3.386931
v -1.157323 -2.111717 -3.386930
v -2.648009 -2.111717 -3.386930
v -2.648009 -2.111717 3.386931
v -3.302013 -0.753663 -3.386930
v -3.302013 -0.753663 3.386930
v -3.302013 0.753663 -3.386930
v -3.302013 0.753663 3.386930
v -2.648009 2.111717 -3.386931
v -2.648009 2.111717 3.386930
v -1.469534 3.051519 -3.386931
v -1.469534 3.051519 3.386930
v 0.979492 -2.882610 -3.386930
v 0.979492 -2.882610 3.386931
v 1.157323 -2.111717 3.386931
v 1.157323 -2.111717 -3.386930
v 2.648009 -2.111717 -3.386930
v 2.648009 -2.111717 3.386931
v 3.302013 -0.753663 -3.386930
v 3.302013 -0.753663 3.386930
v 3.302013 0.753663 -3.386930
v 3.302013 0.753663 3.386930
v 2.648009 2.111717 -3.386931
v 2.648009 2.111717 3.386930
v 1.469534 3.051519 -3.386931
v 1.469534 3.051519 3.386930
v -2.648009 2.111717 -0.542525
v -2.648009 2.111717 0.542525
v -3.175864 1.015614 -0.542525
v -3.175864 1.015614 0.542525
v -2.090815 2.556064 -0.542525
v -2.090815 2.556064 0.542525
v -2.540492 5.428495 -0.542525
v -2.540492 5.428495 0.542524
v -3.214684 5.429415 -0.542525
v -3.214684 5.429415 0.542524
v -2.159512 5.427975 -0.542525
v -2.159512 5.427975 0.542524
v -0.000000 3.527967 3.676748
v -0.000000 -2.987313 3.676749
v -1.017884 -2.987313 3.676749
v -1.202685 -2.186203 3.676749
v -2.751799 -2.186203 3.676749
v -3.431437 -0.774920 3.676749
v -3.431437 0.791487 3.676749
v -2.751799 2.202770 3.676748
v -1.527133 3.179409 3.676748
v 1.017884 -2.987313 3.676749
v 1.202685 -2.186203 3.676749
v 2.751799 -2.186203 3.676749
v 3.431437 -0.774920 3.676749
v 3.431437 0.791487 3.676749
v 2.751799 2.202770 3.676748
v 1.527133 3.179409 3.676748
v -0.000000 3.611554 -3.755911
v -0.000000 -3.049367 -3.755911
v -1.040638 -3.049367 -3.755911
v -1.229570 -2.230350 -3.755911
v -2.813313 -2.230350 -3.755911
v -3.508144 -0.787519 -3.755911
v -3.508144 0.813903 -3.755911
v -2.813313 2.256735 -3.755911
v -1.561271 3.255204 -3.755911
v 1.040638 -3.049367 -3.755911
v 1.229570 -2.230350 -3.755911
v 2.813313 -2.230350 -3.755911
v 3.508144 -0.787519 -3.755911
v 3.508144 0.813903 -3.755911
v 2.813313 2.256735 -3.755911
v 1.561271 3.255204 -3.755911
vn 0.6343 0.7510 0.1838
vn -0.0000 0.9850 0.1725
vn -0.0000 0.9776 -0.2106
vn 0.6345 0.7388 -0.2270
vn 0.6123 0.7786 0.1372
vn 0.6088 0.7756 -0.1668
vn 0.4936 0.8462 0.2008
vn 0.4814 0.8412 -0.2462
vn 0.9399 0.2168 -0.2636
vn 0.9513 0.2191 0.2169
vn 0.9393 -0.2121 -0.2698
vn 0.9509 -0.2151 0.2224
vn 0.7818 -0.6235 -0.0000
vn 0.7623 -0.6060 0.2272
vn 0.7527 -0.5980 -0.2754
vn 0.9010 -0.4339 -0.0000
vn 0.4175 -0.8647 -0.2792
vn 0.4229 -0.8763 0.2306
vn 0.6235 -0.7818 -0.0000
vn -0.0000 -0.9598 -0.2805
vn -0.0000 -0.9728 0.2318
vn -0.6343 0.7510 0.1838
vn -0.6345 0.7388 -0.2270
vn -0.6123 0.7786 0.1372
vn -0.6088 0.7756 -0.1668
vn -0.4936 0.8462 0.2008
vn -0.4814 0.8412 -0.2462
vn -0.9513 0.2191 0.2169
vn -0.9399 0.2168 -0.2636
vn -0.9509 -0.2151 0.2224
vn -0.9393 -0.2121 -0.2698
vn -0.7623 -0.6060 0.2272
vn -0.7527 -0.5980 -0.2754
vn -0.4229 -0.8763 0.2306
vn -0.4175 -0.8647 -0.2792
vn -0.0000 -0.0000 -1.0000
vn -0.9997 -0.0239 -0.0000
vn 1.0000 0.0088 -0.0000
vn -0.0000 -0.0000 1.0000
vn -0.8891 0.1998 0.4117
vn -0.8835 -0.2047 0.4213
vn -0.5561 0.7554 0.3466
vn -0.6094 0.7397 0.2855
vn 0.6094 0.7397 0.2855
vn 0.5561 0.7554 0.3466
vn 0.5250 0.7599 0.3833
vn -0.7045 -0.5648 0.4297
vn -0.0000 -0.8992 0.4376
vn 0.3894 -0.8116 0.4355
vn 0.7045 -0.5648 0.4297
vn 0.8835 -0.2047 0.4213
vn -0.5250 0.7599 0.3833
vn -0.0000 0.9405 0.3398
vn -0.3894 -0.8116 0.4355
vn 0.8891 0.1998 0.4117
vn 0.8422 -0.1957 -0.5024
vn 0.6701 -0.5378 -0.5116
vn -0.5094 0.7262 -0.4617
vn -0.5994 0.7204 -0.3490
vn -0.3699 -0.7714 -0.5178
vn -0.6701 -0.5378 -0.5116
vn 0.5994 0.7204 -0.3490
vn 0.5094 0.7262 -0.4617
vn 0.3699 -0.7714 -0.5178
vn 0.5333 0.7342 -0.4202
vn -0.8495 0.1904 -0.4920
vn 0.8495 0.1904 -0.4920
vn -0.0000 -0.8542 -0.5200
vn -0.5333 0.7342 -0.4202
vn -0.0000 0.9113 -0.4118
vn -0.8422 -0.1957 -0.5024
vt -0.258957 1.006753
vt -0.258957 1.237606
vt 1.337553 1.237606
vt 1.337553 1.006753
vt -0.258957 0.195233
vt -0.258957 0.013544
vt 1.337553 0.013544
vt 1.337553 0.195233
vt -0.258957 0.646012
vt -0.258957 0.997347
vt 1.337553 0.997347
vt 1.337553 0.646012
vt 1.026375 0.005138
vt 1.026375 0.241734
vt -0.153743 0.241734
vt -0.153743 0.005138
vt 1.026375 0.504334
vt -0.153743 0.504335
vt 0.341799 0.740930
vt -0.153743 0.740930
vt 1.026375 0.740930
vt 0.530833 0.740930
vt 0.530833 0.549971
vt 0.341799 0.549971
vt 0.530833 0.533535
vt 1.026375 0.533535
vt 1.026375 0.738845
vt -0.153743 0.738845
vt -0.153743 0.533535
vt 0.341799 0.533535
vt 0.341799 0.630607
vt 0.530833 0.630607
vt 1.026375 0.994861
vt -0.153743 0.994861
vt 0.497784 0.148867
vt 0.378192 -0.099468
vt 0.369397 0.900532
vt 0.522144 0.900324
vt 0.277616 0.675600
vt 0.523448 0.675600
vt 0.523447 0.024934
vt 0.277616 0.024934
vt 0.523448 1.024608
vt 0.277617 1.024608
vt 0.277616 0.024608
vt 0.523447 0.024608
vt 0.624023 0.249540
vt 0.608459 0.900206
s 1
usemtl concrete_base
f 6/1/1 3/2/2 4/3/3 5/4/4
f 7/5/5 6/6/1 5/7/4 8/8/6
f 10/9/7 7/10/5 8/11/6 9/12/8
f 20/1/22 19/4/23 4/3/3 3/2/2
f 21/5/24 22/8/25 19/7/23 20/6/22
f 24/9/26 23/12/27 22/11/25 21/10/24
f 21/5/24 20/6/22 54/6/42 55/5/43
f 6/6/1 7/5/5 48/5/44 47/6/45
f 7/10/5 10/9/7 49/9/46 48/10/44
f 24/9/26 21/10/24 55/10/43 56/9/52
f 3/2/2 6/1/1 47/1/45 46/2/53
f 20/1/22 3/2/2 46/2/53 54/1/42
f 22/11/25 23/12/27 72/12/58 71/11/59
f 9/12/8 8/11/6 64/11/62 65/12/63
f 8/8/6 5/7/4 63/7/65 64/8/62
f 4/3/3 19/4/23 70/4/69 62/3/70
f 5/4/4 4/3/3 62/3/70 63/4/65
f 19/7/23 22/8/25 71/8/59 70/7/69
usemtl brick_modern_01
f 9/13/8 11/14/9 12/15/10 10/16/7
f 11/14/9 13/17/11 14/18/12 12/15/10
f 34/19/13 16/20/14 14/18/12 13/17/11 15/21/15 33/22/13 35/23/16 36/24/16
f 33/25/13 15/26/15 17/27/17 18/28/18 16/29/14 34/30/13 38/31/19 37/32/19
f 17/27/17 1/33/20 2/34/21 18/28/18
f 23/13/27 24/16/26 26/15/28 25/14/29
f 25/14/29 26/15/28 28/18/30 27/17/31
f 27/17/31 28/18/30 30/20/32 29/21/33
f 29/26/33 30/29/32 32/28/34 31/27/35
f 31/27/35 32/28/34 2/34/21 1/33/20
f 34/35/36 36/36/36 42/37/36 40/38/36
f 37/39/37 38/40/37 44/41/37 43/42/37
f 36/43/38 35/44/38 41/45/38 42/46/38
f 33/35/39 37/47/39 43/48/39 39/38/39
f 38/47/36 34/35/36 40/38/36 44/48/36
f 35/36/39 33/35/39 39/38/39 41/37/39
f 28/18/30 26/15/28 57/15/40 58/18/41
f 30/20/32 28/18/30 58/18/41 59/20/47
f 18/28/18 2/34/21 45/34/48 53/28/49
f 14/18/12 16/20/14 52/20/50 51/18/51
f 32/28/34 30/29/32 59/29/47 60/28/54
f 16/29/14 18/28/18 53/28/49 52/29/50
f 26/15/28 24/16/26 56/16/52 57/15/40
f 2/34/21 32/28/34 60/28/54 45/34/48
f 10/16/7 12/15/10 50/15/55 49/16/46
f 12/15/10 14/18/12 51/18/51 50/15/55
f 15/21/15 13/17/11 67/17/56 68/21/57
f 29/26/33 31/27/35 76/27/60 75/26/61
f 17/27/17 15/26/15 68/26/57 69/27/64
f 23/13/27 25/14/29 73/14/66 72/13/58
f 11/14/9 9/13/8 65/13/63 66/14/67
f 31/27/35 1/33/20 61/33/68 76/27/60
f 1/33/20 17/27/17 69/27/64 61/33/68
f 13/17/11 11/14/9 66/14/67 67/17/56
f 25/14/29 27/17/31 74/17/71 73/14/66
f 27/17/31 29/21/33 75/21/61 74/17/71
