# Blender 4.5.9 LTS
# www.blender.org
mtllib SerwersP_001.mtl
o SerwersP_001
v 2.093360 0.746998 -1.240659
v 2.093360 -0.069886 -1.240659
v 2.093360 -1.427940 1.240659
v 2.093360 -0.069886 1.240659
v 2.093360 -1.427940 -1.240659
v 2.093360 0.746998 1.240659
v 2.093360 1.806522 -0.000001
v 2.093360 1.679670 0.566770
v 2.093360 1.347331 0.995073
v 2.093360 1.347331 -0.995073
v 2.093360 1.679670 -0.566771
v -2.093360 0.746998 -1.240659
v -2.093360 -0.069886 -1.240659
v -2.093360 -1.427940 1.240659
v -2.093360 -0.069886 1.240659
v -2.093360 -1.427940 -1.240659
v -2.093360 0.746998 1.240659
v -2.093360 1.806522 -0.000001
v -2.093360 1.679670 0.566770
v -2.093360 1.347331 0.995073
v -2.093360 1.347331 -0.995073
v -2.093360 1.679670 -0.566771
vn -0.0000 -0.1929 0.9812
vn -0.0000 -0.6049 0.7963
vn -0.0000 -0.1929 -0.9812
vn -0.0000 -0.0000 -1.0000
vn -0.0000 -0.9047 0.4260
vn -0.0000 -1.0000 -0.0000
vn -0.0000 -0.6049 -0.7963
vn -0.0000 -0.9047 -0.4260
vn -0.0000 -0.0000 1.0000
vn -0.0000 1.0000 -0.0000
vt 0.686815 0.597886
vt 0.686815 0.783491
vt -0.607595 0.783491
vt -0.607595 0.597886
vt 0.686815 0.597886
vt 0.686815 0.345330
vt -0.607595 0.345330
vt -0.607595 0.597886
vt 0.686815 0.324771
vt 0.686815 0.500000
vt -0.607595 0.500000
vt -0.607595 0.324771
vt 0.686815 0.783491
vt -0.607595 0.783491
vt 0.686815 0.192353
vt -0.607595 0.324771
vt -0.607595 0.192353
vt 0.686815 0.675229
vt -0.607595 0.675229
vt -0.607595 0.500000
vt 1.280762 0.009138
vt 1.280762 0.997661
vt -1.766741 0.997661
vt -1.766741 0.009137
vt -0.607595 0.345330
vt 0.686815 0.807647
vt -0.607595 0.807647
vt -0.607595 0.675229
vt 0.997824 0.994752
vt 0.997824 0.005248
vt -0.671763 0.005248
vt -0.671763 0.994752
vt -1.766741 0.009138
vt -1.766741 0.997661
s 1
usemtl brick_modern
f 1/1/1 10/2/2 21/3/2 12/4/1
f 6/5/3 4/6/4 15/7/4 17/8/3
f 11/9/5 7/10/6 18/11/6 22/12/5
f 9/13/7 6/5/3 17/4/3 20/14/7
f 10/15/2 11/9/5 22/16/5 21/17/2
f 7/10/6 8/18/8 19/19/8 18/20/6
f 2/6/9 1/1/1 12/4/1 13/25/9
f 8/18/8 9/26/7 20/27/7 19/28/8
usemtl concrete_bare_01
f 5/21/9 2/22/9 13/23/9 16/24/9
f 4/22/4 3/21/4 14/33/4 15/34/4
usemtl brick_pavement
f 3/29/10 5/30/10 16/31/10 14/32/10
