# Blender 4.5.9 LTS
# www.blender.org
mtllib Serwers01_003.mtl
o Serwers01_003
v 2.185812 -2.561713 6.000059
v 6.000059 -2.561713 -2.185812
v 3.869725 -2.561713 6.000059
v 6.000059 -2.561713 -3.869725
v 2.185812 -2.561713 -5.999941
v -5.999941 -2.561713 -2.185812
v -5.999941 -2.561713 -3.869725
v 3.869725 -2.561713 -5.999941
v 3.929231 -2.187449 6.000059
v 6.000059 -2.187449 -3.929231
v -5.999941 -2.187449 -3.929231
v 3.929231 -2.187449 -5.999941
v 6.000059 -2.187449 -4.157303
v 4.157303 -2.187449 6.000059
v 4.157303 -2.187449 -5.999941
v -5.999941 -2.187449 -4.157303
v 6.000059 -1.940267 -4.157303
v 4.157303 -1.940267 6.000059
v -5.999941 -1.940267 -4.157303
v 4.157303 -1.940267 -5.999941
v 6.000059 -1.940267 -4.239360
v 4.239360 -1.940267 6.000059
v -5.999941 -1.940267 -4.239360
v 4.239360 -1.940267 -5.999941
v 6.000059 -2.678080 -1.851272
v 1.851272 -2.678080 6.000059
v -5.999941 -2.678080 -1.851272
v 1.851272 -2.678080 -5.999941
v 6.000059 -2.843798 -1.284489
v 1.284489 -2.843798 6.000059
v -5.999941 -2.843798 -1.284489
v 1.284489 -2.843798 -5.999941
v -0.000000 -2.843798 6.000059
v 6.000059 -2.843798 0.000000
v -0.000000 -2.843798 -5.999941
v -5.999941 -2.843798 0.000000
v 6.000059 -1.048086 -4.511393
v 4.511393 -1.048086 6.000059
v 4.511393 -1.048086 -5.999941
v -5.999941 -1.048086 -4.511393
v 6.000059 0.207360 -4.482758
v 4.482758 0.207360 6.000059
v 4.482758 0.207360 -5.999940
v -5.999940 0.207360 -4.482758
v 6.000059 1.180951 -4.210725
v 4.210725 1.180951 6.000059
v -5.999940 1.180951 -4.210725
v 4.210725 1.180951 -5.999940
v 6.000059 2.131809 -3.611235
v 3.611235 2.131809 6.000059
v -5.999940 2.131809 -3.611235
v 3.611235 2.131809 -5.999940
v 6.000520 2.906828 -2.565410
v 2.565410 2.906828 6.000520
v -5.999480 2.906828 -2.565410
v 2.565410 2.906828 -5.999480
v 1.422453 3.345155 6.000520
v 6.000520 3.345155 -1.422453
v 1.422453 3.345155 -5.999480
v -5.999480 3.345155 -1.422453
v 0.359149 3.426353 6.000520
v 6.000520 3.426353 -0.359149
v 0.359149 3.426353 -5.999480
v -5.999480 3.426353 -0.359149
v -0.000000 3.441601 5.987757
v 5.987757 3.441601 0.000000
v -0.000000 3.441601 -6.012244
v -6.012244 3.441601 0.000000
v -2.185812 -2.561713 6.000059
v 6.000059 -2.561713 2.185812
v 6.000059 -2.561713 3.869725
v -3.869725 -2.561713 6.000059
v -2.185812 -2.561713 -5.999941
v -5.999941 -2.561713 2.185812
v -5.999941 -2.561713 3.869725
v -3.869725 -2.561713 -5.999941
v -3.929231 -2.187449 6.000059
v 6.000059 -2.187449 3.929231
v -3.929231 -2.187449 -5.999941
v -5.999941 -2.187449 3.929231
v 6.000059 -2.187449 4.157303
v -4.157303 -2.187449 6.000059
v -4.157303 -2.187449 -5.999941
v -5.999941 -2.187449 4.157303
v 6.000059 -1.940267 4.157303
v -4.157303 -1.940267 6.000059
v -4.157303 -1.940267 -5.999941
v -5.999941 -1.940267 4.157303
v -4.239360 -1.940267 6.000059
v 6.000059 -1.940267 4.239360
v -4.239360 -1.940267 -5.999941
v -5.999941 -1.940267 4.239360
v -1.851272 -2.678080 6.000059
v 6.000059 -2.678080 1.851272
v -1.851272 -2.678080 -5.999941
v -5.999941 -2.678080 1.851272
v -1.284490 -2.843798 6.000059
v 6.000059 -2.843798 1.284490
v -1.284490 -2.843798 -5.999941
v -5.999941 -2.843798 1.284490
v -4.511393 -1.048086 6.000059
v 6.000059 -1.048086 4.511393
v -4.511393 -1.048086 -5.999941
v -5.999941 -1.048086 4.511393
v -4.482758 0.207360 6.000059
v 6.000059 0.207360 4.482758
v -4.482758 0.207360 -5.999940
v -5.999940 0.207360 4.482758
v -4.210725 1.180951 6.000059
v 6.000059 1.180951 4.210725
v -4.210725 1.180951 -5.999940
v -5.999940 1.180951 4.210725
v -3.611235 2.131809 6.000059
v 6.000059 2.131809 3.611235
v -3.611235 2.131809 -5.999940
v -5.999940 2.131809 3.611235
v -2.565410 2.906828 6.000520
v 6.000520 2.906828 2.565410
v -5.999480 2.906828 2.565410
v -2.565410 2.906828 -5.999480
v 6.000520 3.345155 1.422453
v -1.422453 3.345155 6.000520
v -5.999480 3.345155 1.422453
v -1.422453 3.345155 -5.999480
v 6.000520 3.426353 0.359149
v -0.359149 3.426353 6.000520
v -0.359149 3.426353 -5.999480
v -5.999480 3.426353 0.359149
v 3.869725 -2.561713 3.869725
v 3.869725 -2.561713 -3.869725
v 3.869725 -2.561713 -2.484754
v 3.869725 -2.561713 -2.185812
v 3.869725 -2.561713 2.185812
v 3.929231 -2.187449 4.157303
v 3.929231 -2.187449 3.929231
v 3.929231 -2.187449 -3.929231
v 3.929231 -2.187449 -4.117945
v 3.929231 -2.187449 -4.157303
v 4.157303 -2.187449 4.157303
v 4.157303 -2.187449 4.122280
v 4.157303 -2.187449 -4.157303
v 4.157303 -2.187449 -3.929231
v 4.157303 -2.187449 3.929231
v 4.157303 -1.940267 4.239360
v 4.157303 -1.940267 4.157303
v 4.157303 -1.940267 -4.157303
v 4.157303 -1.940267 -4.226759
v 4.157303 -1.940267 -4.239360
v 2.185812 -2.561713 3.869725
v 2.185812 -2.561713 2.721051
v 2.185812 -2.561713 2.185812
v 2.185812 -2.561713 -2.185812
v 2.185812 -2.561713 -3.869725
v 1.851272 -2.678080 1.851272
v 1.851272 -2.678080 -1.851272
v 1.284489 -2.843798 -1.284489
v 1.284489 -2.843798 1.284490
v 1.284489 -2.843798 0.779731
v 1.284489 -2.843798 0.000000
v 4.239360 -1.940267 4.239360
v 4.239360 -1.940267 4.227320
v 4.239360 -1.940267 -4.239360
v 4.239360 -1.940267 -4.157303
v 4.239360 -1.940267 4.157303
v 4.511393 -1.048086 4.511393
v 4.511393 -1.048086 -4.511393
v 4.482758 0.207360 -4.482758
v 4.482758 0.207360 4.482758
v 4.210725 1.180951 -4.210725
v 4.210725 1.180951 4.210725
v 3.611235 2.131809 -3.611235
v 3.611235 2.131809 3.611235
v 2.565410 2.906828 2.565410
v 2.565410 2.906828 -2.565410
v 1.422453 3.345155 1.422453
v 1.422453 3.345155 -1.422453
v 0.359149 3.426353 0.359149
v 0.359149 3.426353 -0.359149
v -0.000000 3.441601 0.000000
v -3.929231 -2.187449 3.929231
v -3.929231 -2.187449 4.157303
v -3.929231 -2.187449 -3.929231
v -3.929231 -2.187449 -3.968587
v -3.929231 -2.187449 -4.157303
v -3.869725 -2.561713 3.869725
v -3.869725 -2.561713 -3.869725
v -3.869725 -2.561713 -3.570801
v -3.869725 -2.561713 -2.185812
v -3.869725 -2.561713 2.185812
v -4.157303 -1.940267 4.157303
v -4.157303 -1.940267 4.239360
v -4.157303 -1.940267 -4.157303
v -4.157303 -1.940267 -4.169903
v -4.157303 -1.940267 -4.239360
v -4.157303 -2.187449 3.964252
v -4.157303 -2.187449 4.157303
v -4.157303 -2.187449 -4.157303
v -4.157303 -2.187449 -3.929231
v -4.157303 -2.187449 3.929231
v -1.851272 -2.678080 -1.851272
v -1.851272 -2.678080 1.851272
v -2.185812 -2.561713 -3.869725
v -2.185812 -2.561713 3.869725
v -2.185812 -2.561713 3.334504
v -2.185812 -2.561713 2.185812
v -2.185812 -2.561713 -2.185812
v -1.284490 -2.843798 1.284490
v -1.284490 -2.843798 0.504746
v -1.284490 -2.843798 0.000000
v -1.284490 -2.843798 -1.284489
v -4.511393 -1.048086 4.511393
v -4.511393 -1.048086 -4.511393
v -4.239360 -1.940267 4.239360
v -4.239360 -1.940267 4.169342
v -4.239360 -1.940267 -4.239360
v -4.239360 -1.940267 -4.157303
v -4.239360 -1.940267 4.157303
v -4.482758 0.207360 4.482758
v -4.482758 0.207360 -4.482758
v -4.210725 1.180951 4.210725
v -4.210725 1.180951 -4.210725
v -3.611235 2.131809 3.611235
v -3.611235 2.131809 -3.611235
v -2.565410 2.906828 2.565410
v -2.565410 2.906828 -2.565410
v -1.422453 3.345155 1.422453
v -1.422453 3.345155 -1.422453
v -0.359149 3.426353 0.359149
v -0.359149 3.426353 -0.359149
v -3.570801 -2.561713 -3.869725
v -3.968587 -2.187449 -3.929231
v 3.964252 -2.187449 -4.157303
v -4.169903 -1.940267 -4.157303
v 3.334504 -2.561713 -2.185812
v -0.000000 -2.843798 -1.284489
v 0.504746 -2.843798 -1.284489
v 4.169342 -1.940267 -4.239360
v -4.117945 -2.187449 3.929231
v -2.484754 -2.561713 3.869725
v -4.226759 -1.940267 4.157303
v 4.122280 -2.187449 4.157303
v 2.721051 -2.561713 2.185812
v -0.000000 -2.843798 1.284490
v 0.779731 -2.843798 1.284490
v 4.227320 -1.940267 4.239360
v -4.118624 -2.187449 3.964988
v -3.967853 -2.187449 -3.967853
v 4.121601 -2.187449 4.121601
v 3.964988 -2.187449 -4.118624
v -4.226842 -1.940267 4.169427
v -4.169817 -1.940267 -4.169817
v 4.227237 -1.940267 4.227237
v 4.169427 -1.940267 -4.226842
v 0.719225 -2.843798 0.719225
v 0.566996 -2.843798 -0.702930
v -0.580140 -2.843798 -0.580140
v -0.000000 -2.843798 -0.642238
v -0.702930 -2.843798 0.566996
v -0.642238 -2.843798 0.000000
v -0.000000 -2.843798 0.000000
v -3.522007 -2.561713 -3.522007
v -2.552636 -2.561713 3.385979
v 2.655185 -2.561713 2.655185
v 3.385979 -2.561713 -2.552636
v 2.299661 -2.674139 6.500879
v 4.071281 -2.674139 6.500879
v 4.133887 -2.280382 6.500879
v 4.373837 -2.280382 6.500879
v 4.373837 -2.020325 6.500879
v 4.460169 -2.020325 6.500879
v 1.947696 -2.796567 6.500879
v 1.351392 -2.970917 6.500879
v -0.000000 -2.970917 6.500879
v 4.746370 -1.081674 6.500879
v 4.716244 0.239162 6.500879
v 4.430042 1.263463 6.500879
v 3.799328 2.263847 6.500879
v 2.699031 3.079233 6.501364
v 1.496542 3.540390 6.501364
v 0.377855 3.625818 6.501364
v -0.000000 3.641860 6.487936
v -2.299661 -2.674139 6.500879
v -4.071281 -2.674139 6.500879
v -4.133887 -2.280382 6.500879
v -4.373837 -2.280382 6.500879
v -4.373837 -2.020325 6.500879
v -4.460169 -2.020325 6.500879
v -1.947696 -2.796567 6.500879
v -1.351393 -2.970917 6.500879
v -4.746370 -1.081674 6.500879
v -4.716244 0.239162 6.500879
v -4.430042 1.263463 6.500879
v -3.799328 2.263847 6.500879
v -2.699031 3.079233 6.501364
v -1.496542 3.540390 6.501364
v -0.377856 3.625818 6.501364
v 2.320230 -2.694450 -6.556373
v 4.107696 -2.694450 -6.556373
v 4.170861 -2.297171 -6.556373
v 4.412958 -2.297171 -6.556373
v 4.412958 -2.034789 -6.556373
v 4.500061 -2.034789 -6.556373
v 1.965116 -2.817973 -6.556373
v 1.363479 -2.993883 -6.556373
v -0.000000 -2.993883 -6.556373
v 4.788822 -1.087742 -6.556373
v 4.758426 0.244908 -6.556372
v 4.469665 1.278370 -6.556372
v 3.833309 2.287702 -6.556372
v 2.723171 3.110381 -6.555883
v 1.509927 3.575662 -6.555883
v 0.381235 3.661853 -6.555883
v -0.000000 3.678040 -6.569432
v -2.320230 -2.694450 -6.556373
v -4.107696 -2.694450 -6.556373
v -4.170861 -2.297171 -6.556373
v -4.412958 -2.297171 -6.556373
v -4.412958 -2.034789 -6.556373
v -4.500061 -2.034789 -6.556373
v -1.965116 -2.817973 -6.556373
v -1.363480 -2.993883 -6.556373
v -4.788822 -1.087742 -6.556373
v -4.758426 0.244908 -6.556372
v -4.469665 1.278370 -6.556372
v -3.833309 2.287702 -6.556372
v -2.723171 3.110381 -6.555883
v -1.509927 3.575662 -6.555883
v -0.381235 3.661853 -6.555883
v -6.531260 -2.666827 -2.292257
v -6.531260 -2.666827 -4.058173
v -6.531260 -2.274338 -4.120577
v -6.531260 -2.274338 -4.359755
v -6.531260 -2.015119 -4.359755
v -6.531260 -2.015119 -4.445808
v -6.531260 -2.788861 -1.941425
v -6.531260 -2.962650 -1.347041
v -6.531260 -2.962650 0.000000
v -6.531260 -1.079489 -4.731088
v -6.531260 0.237094 -4.701059
v -6.531260 1.258097 -4.415779
v -6.531260 2.255260 -3.787095
v -6.530777 3.068021 -2.690341
v -6.530777 3.527693 -1.491723
v -6.530777 3.612845 -0.376639
v -6.544162 3.628836 0.000000
v -6.531260 -2.666827 2.292257
v -6.531260 -2.666827 4.058173
v -6.531260 -2.274338 4.120577
v -6.531260 -2.274338 4.359755
v -6.531260 -2.015119 4.359755
v -6.531260 -2.015119 4.445808
v -6.531260 -2.788861 1.941425
v -6.531260 -2.962650 1.347041
v -6.531260 -1.079489 4.731088
v -6.531260 0.237094 4.701059
v -6.531260 1.258097 4.415779
v -6.531260 2.255260 3.787095
v -6.530777 3.068021 2.690341
v -6.530777 3.527693 1.491724
v -6.530777 3.612845 0.376639
vn -0.0000 1.0000 -0.0000
vn -0.1739 0.9766 0.1264
vn -0.6025 0.7687 0.2148
vn -0.5986 0.7682 -0.2272
vn -0.1742 0.9756 -0.1338
vn -0.9876 0.1570 -0.0000
vn -0.6577 0.7309 0.1823
vn -0.6571 0.7290 -0.1918
vn -0.6540 0.7248 0.2168
vn -0.6494 0.7251 -0.2293
vn -1.0000 -0.0000 -0.0000
vn -0.7138 0.6752 0.1859
vn -0.7130 0.6734 -0.1954
vn -0.5380 0.8225 0.1845
vn -0.5338 0.8229 -0.1947
vn -0.3285 0.9445 -0.0000
vn -0.2931 0.9561 -0.0000
vn -0.3010 0.9436 0.1381
vn -0.3006 0.9425 -0.1463
vn -0.0960 0.9954 -0.0000
vn -0.1363 0.9817 0.1327
vn -0.1359 0.9807 -0.1407
vn -0.0000 0.9923 0.1240
vn -0.0000 0.9913 -0.1313
vn -0.9565 0.2917 -0.0000
vn -0.9654 0.1326 0.2244
vn -0.9626 0.1322 -0.2366
vn -0.9644 -0.1436 0.2219
vn -0.9875 -0.1576 -0.0000
vn -0.9997 -0.0228 -0.0000
vn -0.9617 -0.1432 -0.2339
vn -0.8910 -0.3965 0.2211
vn -0.9004 -0.4351 -0.0000
vn -0.8884 -0.3954 -0.2331
vn -0.7134 -0.6664 0.2168
vn -0.8459 -0.5333 -0.0000
vn -0.7113 -0.6645 -0.2289
vn -0.4685 -0.8593 0.2051
vn -0.4272 -0.9042 -0.0000
vn -0.5954 -0.8034 -0.0000
vn -0.4673 -0.8572 -0.2165
vn -0.2126 -0.9569 0.1979
vn -0.0755 -0.9943 -0.0755
vn -0.2120 -0.9547 -0.2090
vn -0.0755 -0.9943 0.0755
vn -0.0616 -0.9796 0.1915
vn -0.0255 -0.9994 -0.0255
vn -0.0545 -0.9787 -0.1977
vn -0.0255 -0.9994 0.0255
vn -0.0000 -0.9825 0.1861
vn -0.0000 -1.0000 -0.0000
vn -0.0000 -0.9788 -0.2047
vn 0.6025 0.7687 0.2148
vn 0.1739 0.9766 0.1264
vn 0.1742 0.9756 -0.1338
vn 0.5986 0.7682 -0.2272
vn 0.9876 0.1570 -0.0000
vn 0.6577 0.7309 0.1823
vn 0.6571 0.7290 -0.1918
vn 0.6540 0.7248 0.2168
vn 0.6494 0.7251 -0.2293
vn 1.0000 -0.0000 -0.0000
vn 0.7138 0.6752 0.1859
vn 0.7130 0.6734 -0.1954
vn 0.5380 0.8225 0.1845
vn 0.5338 0.8229 -0.1947
vn 0.3285 0.9445 -0.0000
vn 0.3010 0.9436 0.1381
vn 0.2931 0.9561 -0.0000
vn 0.3006 0.9425 -0.1463
vn 0.1363 0.9817 0.1327
vn 0.0960 0.9954 -0.0000
vn 0.1359 0.9807 -0.1407
vn 0.9565 0.2917 -0.0000
vn 0.9654 0.1326 0.2244
vn 0.9626 0.1322 -0.2366
vn 0.9644 -0.1436 0.2219
vn 0.9997 -0.0228 -0.0000
vn 0.9875 -0.1576 -0.0000
vn 0.9616 -0.1432 -0.2339
vn 0.8910 -0.3965 0.2211
vn 0.9004 -0.4351 -0.0000
vn 0.8884 -0.3954 -0.2331
vn 0.7134 -0.6664 0.2168
vn 0.8459 -0.5333 -0.0000
vn 0.7113 -0.6645 -0.2289
vn 0.4685 -0.8593 0.2051
vn 0.5954 -0.8034 -0.0000
vn 0.4272 -0.9042 -0.0000
vn 0.4673 -0.8572 -0.2165
vn 0.2126 -0.9569 0.1979
vn 0.0755 -0.9943 -0.0755
vn 0.2120 -0.9547 -0.2090
vn 0.0755 -0.9943 0.0755
vn 0.0616 -0.9796 0.1915
vn 0.0255 -0.9994 -0.0255
vn 0.0545 -0.9787 -0.1977
vn 0.0255 -0.9994 0.0255
vn -0.1907 0.7693 0.6098
vn -0.1120 0.9785 0.1733
vn -0.1636 0.7346 0.6585
vn -0.0000 0.1570 0.9876
vn -0.1926 0.7240 0.6624
vn -0.1671 0.6789 0.7150
vn -0.0000 -0.0000 1.0000
vn -0.1646 0.8215 0.5459
vn -0.0000 0.9445 0.3285
vn -0.1225 0.9455 0.3017
vn -0.0000 0.9561 0.2931
vn -0.0000 0.9525 0.3047
vn -0.1175 0.9836 0.1370
vn -0.0000 0.9954 0.0960
vn -0.0000 0.9899 0.1417
vn -0.1098 0.9940 -0.0000
vn -0.2005 0.1333 0.9706
vn -0.0000 0.2917 0.9565
vn -0.1983 -0.1444 0.9695
vn -0.0000 -0.0228 0.9997
vn -0.0000 -0.1576 0.9875
vn -0.0000 -0.1471 0.9891
vn -0.1975 -0.3984 0.8957
vn -0.0000 -0.4351 0.9004
vn -0.0000 -0.4055 0.9141
vn -0.1935 -0.6694 0.7173
vn -0.0000 -0.5333 0.8459
vn -0.0000 -0.9042 0.4272
vn -0.1829 -0.8630 0.4709
vn -0.0000 -0.8034 0.5954
vn -0.0000 -0.8766 0.4811
vn -0.1763 -0.9609 0.2138
vn -0.0000 -0.9756 0.2194
vn -0.1670 -0.9844 0.0554
vn -0.0000 -0.9982 0.0595
vn -0.1729 -0.9849 -0.0000
vn -0.1120 0.9785 -0.1733
vn -0.1907 0.7693 -0.6098
vn -0.0000 0.1570 -0.9876
vn -0.1636 0.7346 -0.6585
vn -0.1926 0.7240 -0.6624
vn -0.0000 -0.0000 -1.0000
vn -0.1671 0.6789 -0.7150
vn -0.1646 0.8215 -0.5459
vn -0.0000 0.9445 -0.3285
vn -0.0000 0.9561 -0.2931
vn -0.1225 0.9455 -0.3017
vn -0.0000 0.9525 -0.3047
vn -0.1175 0.9836 -0.1370
vn -0.0000 0.9954 -0.0960
vn -0.0000 0.9899 -0.1417
vn -0.0000 0.2917 -0.9565
vn -0.2005 0.1333 -0.9706
vn -0.1983 -0.1444 -0.9695
vn -0.0000 -0.1576 -0.9875
vn -0.0000 -0.0228 -0.9997
vn -0.0000 -0.1471 -0.9891
vn -0.1975 -0.3984 -0.8957
vn -0.0000 -0.4351 -0.9004
vn -0.0000 -0.4055 -0.9141
vn -0.1935 -0.6694 -0.7173
vn -0.0000 -0.5333 -0.8459
vn -0.1829 -0.8630 -0.4709
vn -0.0000 -0.9042 -0.4272
vn -0.0000 -0.8034 -0.5954
vn -0.0000 -0.8766 -0.4811
vn -0.1763 -0.9609 -0.2138
vn -0.0000 -0.9756 -0.2194
vn -0.1670 -0.9844 -0.0554
vn -0.0000 -0.9982 -0.0595
vn -0.5844 0.7231 0.3683
vn -0.6047 0.7007 0.3786
vn 0.5369 0.7625 0.3609
vn 0.6276 0.6666 0.4022
vn -0.2946 0.9157 0.2734
vn -0.1425 0.9583 0.2475
vn 0.2946 0.9157 0.2734
vn 0.1445 0.9543 0.2615
vn -0.6276 0.6666 0.4022
vn -0.5369 0.7625 0.3609
vn -0.2071 -0.9008 0.3818
vn -0.0618 -0.9265 0.3713
vn 0.8951 -0.1327 0.4257
vn 0.8952 0.1232 0.4283
vn -0.0000 -0.9284 0.3717
vn -0.1445 0.9543 0.2615
vn 0.8290 -0.3656 0.4233
vn -0.0000 0.9693 0.2460
vn 0.6711 -0.6149 0.4142
vn 0.1425 0.9583 0.2475
vn 0.4460 -0.8030 0.3954
vn 0.5844 0.7231 0.3683
vn 0.6812 0.6083 0.4074
vn -0.4460 -0.8030 0.3954
vn -0.8952 0.1232 0.4283
vn 0.0618 -0.9265 0.3713
vn 0.2071 -0.9008 0.3818
vn 0.6047 0.7007 0.3786
vn -0.8951 -0.1327 0.4257
vn -0.8290 -0.3656 0.4233
vn -0.6812 0.6083 0.4074
vn -0.6711 -0.6149 0.4142
vn 0.6641 -0.6078 -0.4353
vn 0.4419 -0.7947 -0.4160
vn -0.8848 -0.1312 -0.4472
vn -0.8848 0.1218 -0.4498
vn 0.2933 0.9113 -0.2891
vn 0.1409 0.9548 -0.2618
vn -0.2933 0.9113 -0.2891
vn -0.1443 0.9500 -0.2767
vn -0.8196 -0.3614 -0.4447
vn 0.5279 0.7600 -0.3791
vn 0.6753 0.6003 -0.4286
vn -0.0000 0.9655 -0.2604
vn 0.5744 0.7216 -0.3865
vn -0.6012 0.6922 -0.3993
vn 0.2054 -0.8923 -0.4020
vn 0.6224 0.6584 -0.4232
vn -0.1409 0.9548 -0.2618
vn 0.0476 -0.9192 -0.3909
vn 0.6012 0.6922 -0.3993
vn 0.1443 0.9500 -0.2767
vn -0.6224 0.6584 -0.4232
vn -0.5279 0.7600 -0.3791
vn -0.0000 -0.9205 -0.3906
vn 0.8848 0.1218 -0.4498
vn -0.5744 0.7216 -0.3865
vn -0.6753 0.6003 -0.4286
vn 0.8848 -0.1312 -0.4472
vn -0.6641 -0.6078 -0.4353
vn -0.0476 -0.9192 -0.3909
vn -0.2054 -0.8923 -0.4020
vn -0.4419 -0.7947 -0.4160
vn 0.8196 -0.3614 -0.4447
vn -0.3323 -0.9419 0.0500
vn -0.3421 -0.9159 0.2101
vn -0.3854 0.1258 0.9141
vn -0.3381 0.7164 0.6103
vn -0.3854 0.1258 -0.9141
vn -0.3830 -0.1356 -0.9137
vn -0.2200 0.9646 -0.1457
vn -0.3606 0.6817 -0.6366
vn -0.3248 0.7668 -0.5537
vn -0.3654 0.6232 -0.6915
vn -0.3807 -0.3733 -0.8460
vn -0.3547 -0.8175 -0.4537
vn -0.3421 -0.9159 -0.2101
vn -0.3320 -0.9433 -0.0000
vn -0.3722 -0.6273 -0.6841
vn -0.3323 -0.9419 -0.0500
vn -0.3722 -0.6273 0.6841
vn -0.3807 -0.3733 0.8460
vn -0.2200 0.9646 0.1457
vn -0.2429 0.9235 0.2969
vn -0.3248 0.7668 0.5537
vn -0.3606 0.6817 0.6366
vn -0.3830 -0.1356 0.9137
vn -0.2183 0.9759 -0.0000
vn -0.2322 0.9618 -0.1448
vn -0.3547 -0.8175 0.4537
vn -0.3320 0.7254 -0.6030
vn -0.3654 0.6232 0.6915
vn -0.3381 0.7164 -0.6103
vn -0.2429 0.9235 -0.2969
vn -0.3320 0.7254 0.6030
vn -0.2322 0.9618 0.1448
vt 3.285065 0.122410
vt 3.995035 0.122410
vt 3.995035 0.683603
vt 3.285066 0.683603
vt 1.266955 0.683603
vt 1.167328 0.683603
vt 1.144705 0.522386
vt 1.266955 0.505231
vt 0.705763 0.683603
vt -0.004168 0.683603
vt -0.004168 0.122411
vt 0.705762 0.122411
vt 1.266955 0.122411
vt 2.902250 0.122410
vt 2.723873 0.683603
vt 2.723873 0.300788
vt 2.880299 0.278837
vt 2.723872 0.122410
vt 3.995036 0.809899
vt 3.380906 0.809899
vt 3.304897 0.809899
vt 0.609923 0.809900
vt -0.004168 0.809900
vt 0.685931 0.809900
vt 0.623039 0.809900
vt 3.995034 0.885907
vt 3.380905 0.885908
vt 3.380905 0.874236
vt 0.609923 0.885908
vt -0.004168 0.885908
vt 0.609923 0.821571
vt 0.622813 0.821816
vt 0.685931 0.885908
vt 3.369233 0.885908
vt 3.369007 0.874009
vt 3.304896 0.885908
vt 3.995035 0.968285
vt 3.408252 0.968285
vt 3.380906 0.968285
vt 0.582576 0.968286
vt -0.004168 0.968286
vt 0.609923 0.968286
vt 0.586775 0.968286
vt 3.995035 0.995632
vt 3.408252 0.995632
vt 3.408252 0.991620
vt 0.582575 0.995633
vt -0.004168 0.995633
vt 0.582576 0.972298
vt 0.586747 0.972327
vt 0.609923 0.995633
vt 3.404240 0.995632
vt 3.404212 0.991592
vt 3.380905 0.995632
vt 2.612381 0.004367
vt 3.995034 0.004366
vt 3.995034 0.122410
vt 3.285065 0.122410
vt -0.004168 0.004367
vt 1.378446 0.004367
vt 3.569130 0.690402
vt 6.071139 0.690402
vt 6.071139 0.991128
vt 3.869856 0.991128
vt 1.905344 0.991128
vt -0.295877 0.991128
vt -0.295877 0.690402
vt 2.206069 0.690402
vt 3.569130 0.008872
vt 6.071139 0.008872
vt 3.569130 0.422585
vt -0.295877 0.008872
vt 2.206069 0.008872
vt 2.206069 0.276682
vt 3.301313 0.690402
vt 3.269209 0.390481
vt 2.887600 0.690402
vt 2.514636 0.309711
vt 2.546838 0.008872
vt 2.887600 0.008872
vt 1.238754 0.000060
vt 1.451498 0.000060
vt 1.451499 0.112762
vt 1.271624 0.112762
vt 0.181407 0.112762
vt 0.001547 0.112762
vt 0.001547 0.000060
vt 0.214277 0.000060
vt 1.451498 0.264496
vt 1.268164 0.264496
vt 0.184867 0.264496
vt 0.001547 0.264496
vt 1.451498 0.386640
vt 1.235294 0.386640
vt 0.217737 0.386640
vt 0.001547 0.386640
vt 1.451499 0.522460
vt 1.162859 0.522460
vt 0.290173 0.522460
vt 0.001547 0.522460
vt 1.451554 0.679742
vt 1.036492 0.679742
vt 0.001603 0.679742
vt 0.416539 0.679742
vt 1.451554 0.827653
vt 0.898389 0.827652
vt 0.001603 0.827652
vt 0.554642 0.827652
vt 1.451554 0.956505
vt 0.769911 0.956505
vt 0.001603 0.956505
vt 0.683120 0.956505
vt 1.450012 0.999940
vt 0.726515 0.999940
vt 0.000060 0.999940
vt 3.285065 0.683603
vt 3.285065 0.122410
vt 3.285065 0.222038
vt 0.705763 0.122411
vt 0.705762 0.683603
vt 0.705763 0.583982
vt 3.106693 0.122410
vt 3.123849 0.244660
vt 2.723873 0.122410
vt 2.723873 0.683603
vt 1.266955 0.122411
vt 0.821646 0.567720
vt 0.805384 0.683603
vt 1.266955 0.683603
vt 0.685931 0.809900
vt 0.609923 0.809900
vt 0.672815 0.809900
vt 0.609922 0.885908
vt 3.316567 0.885908
vt 3.316813 0.873017
vt 3.304896 0.872791
vt 0.673060 0.822771
vt 0.685931 0.823016
vt 0.685931 0.885908
vt 0.609923 0.968286
vt 0.582576 0.968286
vt 0.605723 0.968286
vt 0.582576 0.995633
vt 3.384917 0.995632
vt 3.384946 0.991460
vt 3.380905 0.991433
vt 0.605752 0.972457
vt 0.609923 0.972485
vt 0.609922 0.995633
vt 3.285065 0.122410
vt 2.612381 0.004367
vt 3.869856 0.991128
vt 1.905343 0.991128
vt 2.887600 0.690402
vt 2.887600 0.349634
vt 2.579787 0.316685
vt 3.155410 0.690402
vt 3.188439 0.381836
vt 1.238754 0.000060
vt 0.214277 0.000060
vt 0.181407 0.112762
vt 0.184867 0.264496
vt 0.217737 0.386640
vt 1.162858 0.522460
vt 0.290172 0.522460
vt 0.416539 0.679742
vt 0.898390 0.827652
vt 0.683120 0.956505
vt 0.705763 0.583982
vt 3.106693 0.122410
vt 3.123849 0.244661
vt 0.672815 0.809900
vt 3.304897 0.809899
vt 3.304897 0.872791
vt 3.316813 0.873017
vt 0.242178 0.994351
vt 0.242178 0.919338
vt 0.801371 0.919338
vt 0.801371 0.994351
vt 0.797547 0.994351
vt 0.776469 0.994351
vt 0.246878 0.994351
vt 0.246878 0.919338
vt 0.806106 0.919338
vt 0.806106 0.994351
vt 0.271780 0.994351
vt 0.609923 0.972485
vt 3.384946 0.991460
vt 3.285065 0.122410
vt 3.155410 0.690402
vt 2.887599 0.349634
vt 3.188439 0.381836
vt 2.546838 0.008872
vt 2.723873 0.300788
vt 2.902250 0.122410
vt 1.167328 0.683603
vt 1.144705 0.522386
vt 0.609923 0.809900
vt 0.623039 0.809900
vt 3.380905 0.874236
vt 3.369233 0.885908
vt 0.622813 0.821816
vt 0.780293 0.994351
vt 3.408252 0.991620
vt 3.404240 0.995632
vt 1.905343 0.991128
vt 2.206069 0.690402
vt 2.206069 0.276682
vt 3.569130 0.422585
vt 2.514636 0.309711
vt 0.214277 0.000060
vt 0.181407 0.112762
vt 0.184867 0.264496
vt 0.217736 0.386640
vt 0.416539 0.679742
vt 0.554642 0.827652
s 1
usemtl bricks
f 160/81/25 22/82/14 38/83/26 165/84/25
f 166/85/25 39/86/27 24/87/15 162/88/25
f 38/83/26 42/89/28 168/90/29 165/84/30
f 167/91/29 43/92/31 39/86/27 166/85/30
f 46/93/32 170/94/33 168/90/29 42/89/28
f 169/95/33 48/96/34 43/92/31 167/91/29
f 50/97/35 172/98/36 170/94/33 46/93/32
f 171/99/36 52/100/37 48/96/34 169/95/33
f 50/97/35 54/101/38 173/102/39 172/98/40
f 56/103/41 52/100/37 171/99/40 174/104/39
f 54/101/38 57/105/42 175/106/43 173/102/39
f 59/107/44 56/103/41 174/104/39 176/108/45
f 57/105/42 61/109/46 177/110/47 175/106/43
f 63/111/48 59/107/44 176/108/45 178/112/49
f 61/109/46 65/113/50 179/114/51 177/110/47
f 67/115/52 63/111/48 178/112/49 179/114/51
f 211/84/74 101/83/75 89/82/65 213/159/74
f 215/160/74 91/87/66 103/86/76 212/161/74
f 105/89/77 101/83/75 211/84/78 218/90/79
f 212/161/78 103/86/76 107/92/80 219/162/79
f 109/93/81 105/89/77 218/90/79 220/94/82
f 219/162/79 107/92/80 111/96/83 221/163/82
f 113/97/84 109/93/81 220/94/82 222/164/85
f 221/163/82 111/96/83 115/100/86 223/165/85
f 117/101/87 113/97/84 222/164/88 224/102/89
f 115/100/86 120/103/90 225/166/89 223/165/88
f 122/105/91 117/101/87 224/102/89 226/167/92
f 120/103/90 124/107/93 227/108/94 225/166/89
f 126/109/95 122/105/91 226/167/92 228/110/96
f 124/107/93 127/111/97 229/168/98 227/108/94
f 65/113/50 126/109/95 228/110/96 179/114/51
f 127/111/97 67/115/52 179/114/51 229/168/98
f 40/86/115 23/87/106 215/160/116 212/161/116
f 162/81/116 21/82/116 37/83/116 166/84/116
f 44/92/117 40/86/115 212/161/118 219/162/119
f 166/84/118 37/83/118 41/89/120 167/90/119
f 47/96/121 44/92/117 219/162/119 221/163/122
f 167/90/119 41/89/120 45/93/123 169/94/122
f 51/100/124 47/96/121 221/163/122 223/165/125
f 45/93/123 49/97/125 171/98/125 169/94/122
f 225/166/126 55/103/127 51/100/124 223/165/128
f 53/101/129 174/102/126 171/98/128 49/97/128
f 227/108/94 60/107/130 55/103/127 225/166/126
f 58/105/131 176/106/45 174/102/126 53/101/129
f 229/168/98 64/111/132 60/107/130 227/108/94
f 62/109/133 178/110/49 176/106/45 58/105/131
f 179/114/51 68/115/134 64/111/132 229/168/98
f 66/113/51 179/114/51 178/110/49 62/109/133
f 213/211/150 92/87/142 104/86/151 211/212/150
f 102/83/150 90/82/150 160/81/150 165/84/150
f 104/86/151 108/92/152 218/213/153 211/212/154
f 168/90/153 106/89/155 102/83/154 165/84/154
f 108/92/152 112/96/156 220/214/157 218/213/153
f 170/94/157 110/93/158 106/89/155 168/90/153
f 112/96/156 116/100/159 222/165/160 220/214/157
f 172/98/160 114/97/160 110/93/158 170/94/157
f 116/100/159 119/103/161 224/215/162 222/165/163
f 173/102/162 118/101/164 114/97/163 172/98/163
f 119/103/161 123/107/165 226/216/92 224/215/162
f 175/106/43 121/105/166 118/101/164 173/102/162
f 123/107/165 128/111/167 228/112/96 226/216/92
f 177/110/47 125/109/168 121/105/166 175/106/43
f 128/111/167 68/115/134 179/114/51 228/112/96
f 179/114/51 66/113/51 125/109/168 177/110/47
f 61/109/46 57/105/42 279/105/179 280/109/180
f 101/83/75 105/89/77 291/89/181 290/83/182
f 65/113/50 61/109/46 280/109/180 281/113/183
f 105/89/77 109/93/81 292/93/185 291/89/181
f 109/93/81 113/97/84 293/97/187 292/93/185
f 113/97/84 117/101/87 294/101/189 293/97/187
f 57/105/42 54/101/38 278/101/192 279/105/179
f 38/83/26 22/82/14 270/82/170 274/83/193
f 122/105/91 126/109/95 296/109/194 295/105/195
f 117/101/87 122/105/91 295/105/195 294/101/189
f 126/109/95 65/113/50 281/113/183 296/109/194
f 89/82/65 101/83/75 290/83/182 287/82/196
f 42/89/28 38/83/26 274/83/193 275/89/197
f 46/93/32 42/89/28 275/89/197 276/93/198
f 50/97/35 46/93/32 276/93/198 277/97/200
f 54/101/38 50/97/35 277/97/200 278/101/192
f 120/103/90 115/100/86 325/100/201 326/103/202
f 39/86/27 43/92/31 307/92/203 306/86/204
f 43/92/31 48/96/34 308/96/209 307/92/203
f 24/87/15 39/86/27 306/86/204 302/87/214
f 124/107/93 120/103/90 326/103/202 327/107/215
f 127/111/97 124/107/93 327/107/215 328/111/218
f 67/115/52 127/111/97 328/111/218 313/115/223
f 103/86/76 91/87/66 319/87/219 322/86/224
f 107/92/80 103/86/76 322/86/224 323/92/227
f 48/96/34 52/100/37 309/100/228 308/96/209
f 59/107/44 63/111/48 312/111/229 311/107/230
f 52/100/37 56/103/41 310/103/231 309/100/228
f 63/111/48 67/115/52 313/115/223 312/111/229
f 56/103/41 59/107/44 311/107/230 310/103/231
f 111/96/83 107/92/80 323/92/227 324/96/232
f 115/100/86 111/96/83 324/96/232 325/100/201
f 60/107/130 64/111/132 344/111/233 343/107/234
f 23/87/106 40/86/115 338/86/235 334/87/236
f 108/92/152 104/86/151 354/86/237 355/92/238
f 112/96/156 108/92/152 355/92/238 356/96/243
f 123/107/165 119/103/161 358/103/244 359/107/245
f 64/111/132 68/115/134 345/115/246 344/111/233
f 116/100/159 112/96/156 356/96/243 357/100/247
f 119/103/161 116/100/159 357/100/247 358/103/244
f 128/111/167 123/107/165 359/107/245 360/111/248
f 47/96/121 51/100/124 341/100/249 340/96/250
f 40/86/115 44/92/117 339/92/255 338/86/235
f 68/115/134 128/111/167 360/111/248 345/115/246
f 51/100/124 55/103/127 342/103/258 341/100/249
f 44/92/117 47/96/121 340/96/250 339/92/255
f 55/103/127 60/107/130 343/107/234 342/103/258
f 104/86/151 92/87/142 351/87/261 354/86/237
usemtl concrete_base_02
f 149/1/1 1/2/2 3/3/3 129/4/1
f 132/5/1 131/6/1 264/7/1 234/8/1
f 130/9/1 8/10/4 5/11/5 153/12/1
f 131/6/1 130/9/1 153/12/1 152/13/1 234/8/1 264/7/1
f 150/14/1 149/1/1 129/4/1 133/15/1 242/16/1 263/17/1
f 151/18/1 150/14/1 263/17/1 242/16/1
f 129/4/6 3/3/3 9/19/7 134/20/6 135/21/6
f 138/22/6 12/23/8 8/10/4 130/9/6 136/24/6 137/25/6
f 134/20/1 9/19/7 14/26/9 139/27/1 241/28/1
f 141/29/1 15/30/10 12/23/8 138/22/1 232/31/1
f 232/31/1 138/22/1 137/25/1 249/32/1
f 137/25/1 136/24/1 142/33/1 141/29/1 232/31/1 249/32/1
f 139/27/1 140/34/1 248/35/1 241/28/1
f 140/34/1 143/36/1 135/21/1 134/20/1 241/28/1 248/35/1
f 139/27/11 14/26/9 18/37/12 144/38/11 145/39/11
f 148/40/11 20/41/13 15/30/10 141/29/11 146/42/11 147/43/11
f 144/38/1 18/37/12 22/44/14 160/45/1 245/46/1
f 162/47/1 24/48/15 20/41/13 148/40/1 237/49/1
f 237/49/1 148/40/1 147/43/1 253/50/1
f 147/43/1 146/42/1 163/51/1 162/47/1 237/49/1 253/50/1
f 160/45/1 161/52/1 252/53/1 245/46/1
f 145/39/1 144/38/1 245/46/1 252/53/1 161/52/1 164/54/1
f 150/14/16 151/18/16 154/55/17 26/56/18 1/57/2 149/58/16
f 153/12/16 5/11/5 28/59/19 155/60/17 152/13/16
f 185/116/1 72/3/53 69/2/54 203/117/1 239/118/1
f 202/119/1 73/11/55 76/10/56 186/120/1 230/121/1
f 239/118/1 203/117/1 204/122/1 262/123/1
f 204/122/1 205/124/1 189/125/1 185/116/1 239/118/1 262/123/1
f 206/126/1 202/119/1 230/121/1 261/127/1 187/128/1 188/129/1
f 186/120/1 187/128/1 261/127/1 230/121/1
f 180/21/57 181/20/57 77/19/58 72/3/53 185/116/57
f 182/130/57 186/120/57 76/10/56 79/23/59 184/131/57 183/132/57
f 196/27/1 82/26/60 77/19/58 181/20/1
f 184/131/1 79/23/59 83/30/61 197/133/1
f 199/36/1 195/134/1 246/135/1 238/136/1
f 195/134/1 196/27/1 181/20/1 180/21/1 238/136/1 246/135/1
f 182/130/1 183/132/1 247/137/1 231/138/1
f 197/133/1 198/139/1 231/138/1 247/137/1 183/132/1 184/131/1
f 191/38/62 86/37/63 82/26/60 196/27/62 190/39/62
f 192/140/62 197/133/62 83/30/61 87/41/64 194/141/62 193/142/62
f 213/45/1 89/44/65 86/37/63 191/38/1
f 194/141/1 87/41/64 91/48/66 215/143/1
f 217/54/1 214/144/1 250/145/1 240/146/1
f 214/144/1 213/45/1 191/38/1 190/39/1 240/146/1 250/145/1
f 192/140/1 193/142/1 251/147/1 233/148/1
f 215/143/1 216/149/1 233/148/1 251/147/1 193/142/1 194/141/1
f 203/150/67 69/57/54 93/56/68 201/151/69 205/124/67 204/122/67
f 200/60/69 95/59/70 73/11/55 202/119/67 206/126/67
f 187/169/1 186/120/1 7/10/99 6/11/100 188/12/1
f 186/120/1 187/169/1 261/127/1 230/128/1
f 131/118/1 132/1/1 2/2/1 4/3/1 130/4/1
f 131/118/1 130/4/1 153/15/1 152/18/1 234/170/1 264/171/1
f 206/126/1 202/5/1 230/128/1 261/127/1 187/169/1 188/12/1
f 132/1/1 131/118/1 264/171/1 234/170/1
f 11/23/101 7/10/99 186/120/102 182/130/102 231/172/102 198/22/102
f 136/173/102 130/4/102 4/3/102 10/19/102 142/20/102
f 197/133/1 16/30/103 11/23/101 198/22/1
f 142/20/1 10/19/1 13/26/1 141/27/1
f 182/130/1 183/138/1 247/137/1 231/172/1
f 137/174/1 136/173/1 142/20/1 141/27/1 232/134/1 249/175/1
f 197/133/1 198/22/1 231/172/1 247/137/1 183/138/1 184/33/1
f 232/134/1 138/36/1 137/174/1 249/175/1
f 19/176/104 16/177/103 197/178/105 192/179/105 233/180/105 216/181/105
f 146/182/105 141/183/105 13/184/105 17/185/105 163/186/105
f 215/143/1 23/48/106 19/41/104 216/141/1
f 163/38/1 17/37/1 21/44/1 162/45/1
f 192/140/1 193/187/1 251/147/1 233/142/1
f 147/146/1 146/39/1 163/38/1 162/45/1 237/144/1 253/188/1
f 215/143/1 216/141/1 233/142/1 251/147/1 193/187/1 194/51/1
f 237/144/1 148/54/1 147/146/1 253/188/1
f 188/12/107 6/11/100 27/59/108 200/60/109 206/126/107
f 152/18/107 155/55/109 25/56/110 2/57/107 132/189/107 234/170/107
f 189/119/1 74/11/135 75/10/136 185/120/1
f 129/4/1 71/3/1 70/2/1 133/117/1
f 151/18/1 150/194/1 263/17/1 242/195/1
f 204/8/1 205/126/1 189/119/1 185/120/1 239/196/1 262/197/1
f 239/196/1 203/129/1 204/8/1 262/197/1
f 150/194/1 149/125/1 129/4/1 133/117/1 242/195/1 263/17/1
f 180/130/137 185/120/137 75/10/136 80/23/138 199/198/137 238/199/137
f 78/19/137 71/3/137 129/4/137 135/21/137 143/20/137
f 195/31/1 199/198/1 80/23/138 84/30/139 196/133/1
f 140/200/1 139/27/1 81/26/1 78/19/1 143/20/1
f 139/27/1 140/200/1 248/35/1 241/201/1
f 195/31/1 196/133/1 181/139/1 180/130/1 238/199/1 246/202/1
f 199/198/1 195/31/1 246/202/1 238/199/1
f 140/200/1 143/20/1 135/21/1 134/36/1 241/201/1 248/35/1
f 240/203/140 190/179/140 196/178/140 84/177/139 88/176/141 217/181/140
f 85/185/140 81/184/140 139/183/140 145/182/140 164/186/140
f 214/49/1 217/40/1 88/41/141 92/48/142 213/143/1
f 161/204/1 160/45/1 90/44/1 85/37/1 164/38/1
f 160/45/1 161/204/1 252/53/1 245/205/1
f 214/49/1 213/143/1 191/149/1 190/42/1 240/43/1 250/50/1
f 217/40/1 214/49/1 250/50/1 240/43/1
f 145/39/1 144/54/1 245/205/1 252/53/1 161/204/1 164/38/1
f 205/126/143 201/60/144 96/59/145 74/11/135 189/119/143
f 242/195/143 133/58/143 70/57/143 94/56/146 154/55/144 151/18/143
f 22/44/14 18/37/12 269/37/169 270/44/170
f 72/3/53 77/19/58 284/19/171 283/3/172
f 1/57/2 26/56/18 271/56/173 265/57/174
f 9/19/7 3/3/3 266/3/177 267/19/178
f 3/3/3 1/2/2 265/2/174 266/3/177
f 69/2/54 72/3/53 283/3/172 282/2/188
f 82/26/60 86/37/63 286/37/190 285/26/191
f 86/37/63 89/44/65 287/44/196 286/37/190
f 77/19/58 82/26/60 285/26/191 284/19/171
f 14/26/9 9/19/7 267/19/178 268/26/199
f 93/56/68 69/57/54 282/57/188 288/56/175
f 18/37/12 14/26/9 268/26/199 269/37/169
f 73/11/55 95/59/70 320/59/205 314/11/206
f 83/30/61 79/23/59 316/23/210 317/30/211
f 87/41/64 83/30/61 317/30/211 318/41/213
f 79/23/59 76/10/56 315/10/216 316/23/210
f 28/59/19 5/11/5 297/11/217 303/59/207
f 91/48/66 87/41/64 318/41/213 319/48/219
f 5/11/5 8/10/4 298/10/221 297/11/217
f 8/10/4 12/23/8 299/23/222 298/10/221
f 76/10/56 73/11/55 314/11/206 315/10/216
f 15/30/10 20/41/13 301/41/225 300/30/226
f 12/23/8 15/30/10 300/30/226 299/23/222
f 20/41/13 24/48/15 302/48/214 301/41/225
f 75/10/136 74/11/135 346/11/239 347/10/240
f 84/30/139 80/23/138 348/23/241 349/30/242
f 80/23/138 75/10/136 347/10/240 348/23/241
f 27/59/108 6/11/100 329/11/251 335/59/252
f 7/10/99 11/23/101 331/23/253 330/10/254
f 88/176/141 84/177/139 349/177/242 350/176/259
f 11/23/101 16/30/103 332/30/260 331/23/253
f 92/48/142 88/41/141 350/41/259 351/48/261
f 74/11/135 96/59/145 352/59/262 346/11/239
f 19/41/104 23/48/106 334/48/236 333/41/263
f 16/177/103 19/176/104 333/176/263 332/177/260
f 6/11/100 7/10/99 330/10/254 329/11/251
usemtl concrete_dirty
f 157/61/20 30/62/21 26/63/18 154/64/17
f 155/65/17 28/66/19 32/67/22 156/68/20
f 243/69/1 33/70/23 30/62/21 157/61/20 244/71/1
f 156/68/20 32/67/22 35/72/24 235/73/1 236/74/1
f 157/61/1 158/75/1 254/76/1 244/71/1
f 159/77/1 156/68/1 236/74/1 255/78/1 257/79/1 260/80/1
f 236/74/1 235/73/1 257/79/1 255/78/1
f 243/69/1 244/71/1 254/76/1 158/75/1 159/77/1 260/80/1
f 201/152/69 93/63/68 97/62/71 207/61/72
f 210/68/72 99/67/73 95/66/70 200/153/69
f 207/61/72 97/62/71 33/70/23 243/69/1
f 235/73/1 35/72/24 99/67/73 210/68/72
f 235/73/1 210/68/1 209/154/1 259/155/1 256/156/1 257/79/1
f 257/79/1 256/156/1 259/155/1 260/80/1
f 208/157/1 207/61/1 243/69/1 260/80/1 259/155/1 258/158/1
f 209/154/1 208/157/1 258/158/1 259/155/1
f 27/66/108 31/67/111 210/68/112 200/153/109
f 156/61/112 29/62/113 25/63/110 155/64/109
f 210/68/112 31/67/111 36/72/114 209/73/1
f 159/69/1 34/70/1 29/62/113 156/61/112
f 236/190/1 235/154/1 257/191/1 255/192/1
f 235/154/1 210/68/1 209/73/1 259/193/1 256/156/1 257/191/1
f 257/191/1 256/156/1 259/193/1 260/80/1
f 159/69/1 156/61/1 236/190/1 255/192/1 257/191/1 260/80/1
f 100/67/147 96/66/145 201/206/144 207/207/148
f 154/64/144 94/63/146 98/62/149 157/61/148
f 208/208/1 209/73/1 36/72/114 100/67/147 207/207/148
f 158/209/1 157/61/148 98/62/149 34/70/1 159/69/1
f 209/73/1 208/208/1 258/210/1 259/193/1
f 157/61/1 158/209/1 254/76/1 244/75/1
f 208/208/1 207/207/1 243/154/1 260/80/1 259/193/1 258/210/1
f 243/154/1 244/75/1 254/76/1 158/209/1 159/69/1 260/80/1
f 97/62/71 93/63/68 288/63/175 289/62/176
f 26/63/18 30/62/21 272/62/184 271/63/173
f 30/62/21 33/70/23 273/70/186 272/62/184
f 33/70/23 97/62/71 289/62/176 273/70/186
f 32/67/22 28/66/19 303/66/207 304/67/208
f 35/72/24 32/67/22 304/67/208 305/72/212
f 95/66/70 99/67/73 321/67/220 320/66/205
f 99/67/73 35/72/24 305/72/212 321/67/220
f 100/67/147 36/72/114 337/72/256 353/67/257
f 96/66/145 100/67/147 353/67/257 352/66/262
f 31/67/111 27/66/108 335/66/252 336/67/264
f 36/72/114 31/67/111 336/67/264 337/72/256
