# Blender 4.5.9 LTS
# www.blender.org
mtllib Serwers_006.mtl
o Serwers_006
v 0.000000 3.386930 -3.386934
v 0.000000 3.386931 3.386927
v 0.000000 -2.882610 3.386927
v 0.000000 -2.882610 -3.386934
v -0.979492 -2.882610 -3.386934
v -0.979492 -2.882610 3.386927
v -1.157323 -2.111717 3.386927
v -1.157323 -2.111717 -3.386934
v -2.648009 -2.111717 -3.386934
v -2.648009 -2.111717 3.386927
v -3.302013 -0.753663 -3.386934
v -3.302013 -0.753663 3.386927
v -3.302013 0.753663 -3.386934
v -3.302013 0.753663 3.386927
v -2.648009 2.111717 -3.386934
v -2.648009 2.111717 3.386927
v -1.469534 3.051519 -3.386934
v -1.469534 3.051519 3.386927
v 0.979492 -2.882610 -3.386934
v 0.979492 -2.882610 3.386927
v 1.157323 -2.111717 3.386927
v 1.157323 -2.111717 -3.386934
v 2.648009 -2.111717 -3.386934
v 2.648009 -2.111717 3.386927
v 3.302013 -0.753663 -3.386934
v 3.302013 -0.753663 3.386927
v 3.302013 0.753663 -3.386934
v 3.302013 0.753663 3.386927
v 2.648009 2.111717 -3.386934
v 2.648009 2.111717 3.386927
v 1.469534 3.051519 -3.386934
v 1.469534 3.051519 3.386927
v -0.565100 3.257950 -0.450656
v 0.000000 3.386930 -0.722794
v 0.000000 3.386930 0.651208
v -0.313607 3.315352 0.651208
v -0.704669 3.226094 0.160833
v 0.704669 3.226094 0.160833
v 0.565100 3.257950 -0.450656
v 0.313607 3.315352 0.651208
v -0.565100 6.214805 -0.451090
v 0.000000 6.211053 -0.721386
v 0.000000 6.230123 0.652352
v -0.313607 6.230109 0.651359
v -0.704669 6.223286 0.159839
v 0.704669 6.223286 0.159839
v 0.565100 6.214805 -0.451090
v 0.313607 6.230109 0.651359
v -0.000000 3.609653 -3.722372
v -0.000000 -3.047955 -3.722371
v -1.040120 -3.047955 -3.722371
v -1.228958 -2.229346 -3.722371
v -2.811913 -2.229346 -3.722371
v -3.506399 -0.787232 -3.722371
v -3.506399 0.813393 -3.722371
v -2.811913 2.255507 -3.722372
v -1.560494 3.253480 -3.722372
v 1.040120 -3.047955 -3.722371
v 1.228958 -2.229346 -3.722371
v 2.811913 -2.229346 -3.722371
v 3.506399 -0.787232 -3.722371
v 3.506399 0.813393 -3.722371
v 2.811913 2.255507 -3.722372
v 1.560494 3.253480 -3.722372
v -0.000000 3.600228 3.655278
v -0.000000 -3.040958 3.655278
v -1.037554 -3.040958 3.655278
v -1.225927 -2.224367 3.655278
v -2.804977 -2.224367 3.655278
v -3.497750 -0.785811 3.655278
v -3.497750 0.810866 3.655278
v -2.804977 2.249423 3.655278
v -1.556645 3.244934 3.655278
v 1.037554 -3.040958 3.655278
v 1.225927 -2.224367 3.655278
v 2.804977 -2.224367 3.655278
v 3.497750 -0.785811 3.655278
v 3.497750 0.810866 3.655278
v 2.804977 2.249423 3.655278
v 1.556645 3.244934 3.655278
vn 0.6326 0.7188 0.2885
vn -0.0000 0.9647 0.2634
vn -0.0000 0.9739 -0.2270
vn 0.6342 0.7330 -0.2459
vn 0.6032 0.7701 0.2079
vn 0.6071 0.7740 -0.1795
vn 0.4626 0.8309 0.3091
vn 0.4758 0.8385 -0.2657
vn 0.9345 0.2157 -0.2833
vn 0.9210 0.2129 0.3264
vn 0.9336 -0.2107 -0.2898
vn 0.9198 -0.2073 0.3333
vn 0.7481 -0.5942 -0.2955
vn 0.7367 -0.5849 0.3394
vn 0.4149 -0.8592 -0.2995
vn 0.4085 -0.8456 0.3435
vn -0.0000 -1.0000 -0.0000
vn -0.0000 -0.9386 0.3450
vn -0.0000 -0.9537 -0.3009
vn 0.2225 -0.9749 -0.0000
vn -0.6326 0.7188 0.2885
vn -0.6342 0.7330 -0.2459
vn -0.6032 0.7701 0.2079
vn -0.6071 0.7740 -0.1795
vn -0.4626 0.8309 0.3091
vn -0.4758 0.8385 -0.2657
vn -0.9210 0.2129 0.3264
vn -0.9345 0.2157 -0.2833
vn -0.9198 -0.2073 0.3333
vn -0.9336 -0.2107 -0.2898
vn -0.7367 -0.5849 0.3394
vn -0.7481 -0.5942 -0.2955
vn -0.4085 -0.8456 0.3435
vn -0.4149 -0.8592 -0.2995
vn -0.2225 -0.9749 -0.0000
vn 0.4858 0.0001 -0.8740
vn 0.9782 -0.0000 -0.2078
vn 0.9742 -0.0000 -0.2257
vn 0.4333 0.0001 -0.9012
vn 0.8063 -0.0000 0.5916
vn -0.0000 -0.0002 1.0000
vn 0.7832 -0.0001 0.6217
vn -0.9782 -0.0000 -0.2078
vn -0.4858 0.0001 -0.8740
vn -0.4333 0.0001 -0.9012
vn -0.9742 -0.0000 -0.2257
vn -0.0000 0.0002 -1.0000
vn -0.8063 -0.0000 0.5916
vn -0.7832 -0.0001 0.6217
vn 0.8307 0.1860 -0.5248
vn 0.8227 -0.1913 -0.5353
vn 0.3607 -0.7526 -0.5509
vn -0.0000 -0.8331 -0.5531
vn -0.6540 -0.5250 -0.5446
vn -0.8227 -0.1913 -0.5353
vn -0.3607 -0.7526 -0.5509
vn 0.6540 -0.5250 -0.5446
vn -0.5942 0.7109 -0.3762
vn -0.5227 0.7234 -0.4511
vn -0.5013 0.7104 -0.4940
vn 0.5942 0.7109 -0.3762
vn 0.5013 0.7104 -0.4940
vn -0.8307 0.1860 -0.5248
vn 0.5227 0.7234 -0.4511
vn -0.0000 0.8970 -0.4421
vn -0.7759 -0.1808 0.6045
vn -0.6155 -0.4945 0.6138
vn 0.4802 0.6724 0.5632
vn 0.5805 0.6872 0.4369
vn -0.5805 0.6872 0.4369
vn -0.4802 0.6724 0.5632
vn 0.4973 0.6958 0.5182
vn -0.0000 0.8612 0.5082
vn -0.0000 -0.7828 0.6222
vn 0.3390 -0.7076 0.6200
vn -0.3390 -0.7076 0.6200
vn -0.7853 0.1754 0.5938
vn 0.7853 0.1754 0.5938
vn 0.7759 -0.1808 0.6045
vn 0.6155 -0.4945 0.6138
vn -0.4973 0.6958 0.5182
vt -0.258957 1.006753
vt -0.258957 1.237606
vt 1.337553 1.237606
vt 1.337553 1.006753
vt -0.258957 0.195233
vt -0.258957 0.013544
vt 1.337553 0.013544
vt 1.337553 0.195233
vt -0.258957 0.646012
vt -0.258957 0.997347
vt 1.337553 0.997347
vt 1.337553 0.646012
vt 1.026375 0.005138
vt 1.026375 0.241734
vt -0.153743 0.241734
vt -0.153743 0.005138
vt 1.026375 0.504334
vt -0.153743 0.504335
vt 1.026375 0.740930
vt -0.153743 0.740930
vt 1.026375 0.533535
vt 1.026375 0.738845
vt -0.153743 0.738845
vt -0.153743 0.533535
vt 0.322864 0.994861
vt -0.153743 0.994861
vt 1.026375 0.994861
vt 0.562238 0.994861
vt 0.514827 0.896412
vt 0.408296 0.872097
vt 0.322864 0.940226
vt 0.322864 0.940226
vt 0.514827 0.896412
vt 0.597406 0.788522
vt 0.504336 0.805463
vt 0.504147 0.236617
vt 0.597435 0.235322
vt 0.391502 0.220649
vt 0.498754 0.245129
vt 0.498754 0.781128
vt 0.391502 0.781840
vt 0.388280 0.799417
vt 0.388197 0.238226
vt 0.558275 0.231544
vt 0.498754 0.784747
vt 0.558275 0.784745
vt 0.606006 0.220649
vt 0.606006 0.781840
vt 0.439234 0.231544
vt 0.439234 0.784745
s 1
usemtl concrete_base
f 6/1/1 3/2/2 4/3/3 5/4/4
f 7/5/5 6/6/1 5/7/4 8/8/6
f 10/9/7 7/10/5 8/11/6 9/12/8
f 20/1/21 19/4/22 4/3/3 3/2/2
f 21/5/23 22/8/24 19/7/22 20/6/21
f 24/9/25 23/12/26 22/11/24 21/10/23
f 19/7/22 22/8/24 59/8/58 58/7/59
f 22/11/24 23/12/26 60/12/60 59/11/58
f 9/12/8 8/11/6 52/11/61 53/12/62
f 8/8/6 5/7/4 51/7/64 52/8/61
f 4/3/3 19/4/22 58/4/59 50/3/65
f 5/4/4 4/3/3 50/3/65 51/4/64
f 7/10/5 10/9/7 69/9/68 68/10/69
f 24/9/25 21/10/23 75/10/70 76/9/71
f 3/2/2 6/1/1 67/1/72 66/2/73
f 20/1/21 3/2/2 66/2/73 74/1/81
f 21/5/23 20/6/21 74/6/81 75/5/70
f 6/6/1 7/5/5 68/5/69 67/6/72
usemtl brick_modern_01
f 9/13/8 11/14/9 12/15/10 10/16/7
f 11/14/9 13/17/11 14/18/12 12/15/10
f 13/17/11 15/19/13 16/20/14 14/18/12
f 15/21/13 17/22/15 18/23/16 16/24/14
f 35/25/17 2/26/18 18/23/16 17/22/15 1/27/19 34/28/17 33/29/20 37/30/20 36/31/20
f 23/13/26 24/16/25 26/15/27 25/14/28
f 25/14/28 26/15/27 28/18/29 27/17/30
f 27/17/30 28/18/29 30/20/31 29/19/32
f 29/21/32 30/24/31 32/23/33 31/22/34
f 34/28/17 1/27/19 31/22/34 32/23/33 2/26/18 35/25/17 40/32/35 38/30/35 39/33/35
f 36/34/36 37/35/37 45/36/38 44/37/39
f 33/38/40 34/39/41 42/40/41 41/41/42
f 37/35/37 33/42/40 41/43/42 45/36/38
f 38/35/43 40/34/44 48/37/45 46/36/46
f 40/44/44 35/39/47 43/45/47 48/46/45
f 34/39/41 39/47/48 47/48/49 42/40/41
f 35/39/47 36/49/36 44/50/39 43/45/47
f 39/42/48 38/35/43 46/36/46 47/43/49
f 13/17/11 11/14/9 54/14/50 55/17/51
f 1/27/19 17/22/15 57/22/52 49/27/53
f 27/17/30 29/19/32 63/19/54 62/17/55
f 31/22/34 1/27/19 49/27/53 64/22/56
f 15/19/13 13/17/11 55/17/51 56/19/57
f 29/21/32 31/22/34 64/22/56 63/21/54
f 17/22/15 15/21/13 56/21/57 57/22/52
f 25/14/28 27/17/30 62/17/55 61/14/63
f 23/13/26 25/14/28 61/14/63 60/13/60
f 11/14/9 9/13/8 53/13/62 54/14/50
f 30/20/31 28/18/29 78/18/66 79/20/67
f 18/23/16 2/26/18 65/26/74 73/23/75
f 32/23/33 30/24/31 79/24/67 80/23/76
f 26/15/27 24/16/25 76/16/71 77/15/77
f 10/16/7 12/15/10 70/15/78 69/16/68
f 12/15/10 14/18/12 71/18/79 70/15/78
f 14/18/12 16/20/14 72/20/80 71/18/79
f 16/24/14 18/23/16 73/23/75 72/24/80
f 28/18/29 26/15/27 77/15/77 78/18/66
f 2/26/18 32/23/33 80/23/76 65/26/74
