# Blender 4.5.9 LTS
# www.blender.org
mtllib Serwers02_006.mtl
o Serwers02_006
v -0.000000 3.254395 2.751073
v -0.000000 3.254395 4.248926
v -1.862715 -2.636668 2.751073
v -1.862715 -2.636668 4.248927
v -2.455375 -2.122126 2.751073
v -2.455375 -2.122126 4.248927
v -3.215858 -0.456902 2.751073
v -3.215858 -0.456902 4.248927
v -2.955328 1.355122 2.751073
v -2.955328 1.355122 4.248927
v -1.756503 2.738640 2.751073
v -1.756503 2.738640 4.248927
v -0.999720 -2.636668 2.751074
v -0.999720 -2.636668 4.248926
v -0.999720 -2.880241 2.751074
v -0.999720 -2.880242 4.248926
v -0.000000 -2.880241 2.751074
v -0.000000 -2.880242 4.248926
v 1.862715 -2.636668 2.751073
v 1.862715 -2.636668 4.248927
v 2.455374 -2.122126 2.751073
v 2.455374 -2.122126 4.248927
v 3.215857 -0.456902 2.751073
v 3.215857 -0.456902 4.248927
v 2.955327 1.355122 2.751073
v 2.955327 1.355122 4.248927
v 1.756502 2.738640 2.751073
v 1.756502 2.738640 4.248927
v 0.999720 -2.636668 2.751074
v 0.999719 -2.636668 4.248926
v 0.999720 -2.880241 2.751074
v 0.999719 -2.880242 4.248926
v 0.568339 3.254395 -0.130515
v -1.152585 -2.636668 -0.843345
v -1.700131 -2.122126 -1.070146
v -2.402725 -0.456902 -1.361170
v -2.162027 1.355121 -1.261470
v -1.054457 2.738639 -0.802699
v -0.355281 -2.636668 -0.513090
v -0.355281 -2.880242 -0.513090
v 0.568339 -2.880242 -0.130514
v 2.289263 -2.636668 0.582316
v 2.836809 -2.122126 0.809117
v 3.539403 -0.456902 1.100141
v 3.298705 1.355121 1.000440
v 2.191136 2.738639 0.541669
v 1.491960 -2.636668 0.252062
v 1.491960 -2.880242 0.252062
v 2.196152 3.254394 -2.575261
v 0.879014 -2.636669 -3.892398
v 0.459940 -2.122127 -4.311472
v -0.077802 -0.456903 -4.849215
v 0.106421 1.355120 -4.664993
v 0.954117 2.738638 -3.817295
v 1.489243 -2.636669 -3.282169
v 1.489243 -2.880242 -3.282169
v 2.196152 -2.880242 -2.575260
v 3.513290 -2.636669 -1.258122
v 3.932364 -2.122126 -0.839049
v 4.470106 -0.456903 -0.301306
v 4.285884 1.355121 -0.485529
v 3.438186 2.738638 -1.333226
v 2.903060 -2.636669 -1.868352
v 2.903060 -2.880242 -1.868352
v 4.635619 3.254393 -4.210975
v 3.922789 -2.636669 -5.931898
v 3.695988 -2.122127 -6.479444
v 3.404964 -0.456904 -7.182038
v 3.504665 1.355119 -6.941340
v 3.963434 2.738637 -5.833770
v 4.253043 -2.636669 -5.134594
v 4.253043 -2.880243 -5.134594
v 4.635619 -2.880242 -4.210974
v 5.348448 -2.636669 -2.490050
v 5.575249 -2.122127 -1.942504
v 5.866273 -0.456903 -1.239910
v 5.766573 1.355120 -1.480608
v 5.307803 2.738638 -2.588178
v 5.018195 -2.636669 -3.287353
v 5.018195 -2.880242 -3.287353
v 7.515352 3.254392 -4.788633
v 7.515353 -2.636669 -6.651347
v 7.515352 -2.122127 -7.244007
v 7.515352 -0.456904 -8.004488
v 7.515353 1.355119 -7.743959
v 7.515352 2.738637 -6.545135
v 7.515352 -2.636669 -5.788352
v 7.515352 -2.880243 -5.788352
v 7.515352 -2.880243 -4.788632
v 7.515352 -2.636669 -2.925918
v 7.515352 -2.122127 -2.333259
v 7.515351 -0.456903 -1.572777
v 7.515352 1.355120 -1.833306
v 7.515352 2.738637 -3.032131
v 7.515352 -2.636669 -3.788913
v 7.515352 -2.880242 -3.788913
v 9.050523 3.254392 -4.788633
v 9.050524 -2.636669 -6.651347
v 9.050523 -2.122127 -7.244007
v 9.050523 -0.456904 -8.004488
v 9.050524 1.355119 -7.743959
v 9.050523 2.738637 -6.545135
v 9.050523 -2.636669 -5.788352
v 9.050523 -2.880243 -5.788352
v 9.050523 -2.880243 -4.788632
v 9.050523 -2.636669 -2.925918
v 9.050523 -2.122127 -2.333259
v 9.050522 -0.456903 -1.572777
v 9.050523 1.355120 -1.833306
v 9.050523 2.738637 -3.032131
v 9.050523 -2.636669 -3.788913
v 9.050523 -2.880242 -3.788913
v -0.000000 3.506342 4.490442
v -1.978283 -2.750219 4.490443
v -2.607713 -2.203753 4.490443
v -3.415378 -0.435214 4.490443
v -3.138684 1.489232 4.490443
v -1.865481 2.958587 4.490443
v -1.061745 -2.750219 4.490443
v -1.061745 -3.008904 4.490443
v -0.000000 -3.008904 4.490443
v 1.978282 -2.750219 4.490443
v 2.607712 -2.203753 4.490443
v 3.415378 -0.435214 4.490443
v 3.138684 1.489232 4.490443
v 1.865480 2.958587 4.490443
v 1.061745 -2.750219 4.490443
v 1.061745 -3.008904 4.490443
v 9.352416 3.381731 -4.788633
v 9.352417 -2.694060 -6.709757
v 9.352416 -2.163383 -7.321001
v 9.352416 -0.445943 -8.105330
v 9.352417 1.422900 -7.836632
v 9.352416 2.849803 -6.600214
v 9.352416 -2.694060 -5.819701
v 9.352416 -2.945271 -5.819701
v 9.352416 -2.945271 -4.788632
v 9.352416 -2.694059 -2.867508
v 9.352416 -2.163383 -2.256265
v 9.352416 -0.445942 -1.471936
v 9.352416 1.422901 -1.740635
v 9.352416 2.849803 -2.977051
v 9.352416 -2.694059 -3.757564
v 9.352416 -2.945271 -3.757564
vn -0.0000 1.0000 -0.0000
vn 0.3075 0.9096 0.2793
vn 0.6767 0.7038 0.2162
vn 0.6542 0.7534 0.0673
vn 0.8028 0.5910 0.0785
vn 0.7565 0.5731 0.3151
vn 0.9857 0.1394 0.0949
vn 0.9248 0.1482 0.3504
vn 0.9089 -0.4077 0.0880
vn 0.8443 -0.3715 0.3862
vn 0.5517 -0.8323 0.0550
vn 0.4988 -0.7629 0.4114
vn 0.0174 -0.9998 0.0035
vn -0.0000 -0.9074 0.4204
vn 0.7193 0.6384 0.2738
vn -0.0000 0.9702 0.2423
vn 0.9953 -0.0000 0.0973
vn -0.6767 0.7038 0.2162
vn -0.3075 0.9096 0.2793
vn -0.6544 0.7536 -0.0609
vn -0.7565 0.5731 0.3151
vn -0.7936 0.6034 -0.0778
vn -0.9248 0.1482 0.3504
vn -0.9848 0.1442 -0.0973
vn -0.8443 -0.3715 0.3862
vn -0.9029 -0.4205 -0.0890
vn -0.4988 -0.7629 0.4114
vn -0.5272 -0.8482 -0.0509
vn -0.7193 0.6384 0.2738
vn -0.9953 -0.0000 -0.0971
vn -0.8353 -0.4292 -0.3434
vn -0.9148 0.1475 -0.3760
vn 0.8460 -0.4027 0.3493
vn 0.5219 -0.8254 0.2154
vn -0.7315 0.6119 -0.3009
vn -0.6062 0.7551 -0.2496
vn 0.7486 0.5865 0.3090
vn 0.9155 0.1376 0.3780
vn -0.4761 -0.8573 -0.1960
vn 0.9244 -0.0000 0.3814
vn 0.0325 -0.9994 0.0134
vn -0.9246 -0.0000 -0.3810
vn 0.6060 0.7551 0.2501
vn -0.7084 -0.0000 -0.7058
vn 0.4642 0.7551 0.4629
vn 0.5734 0.5865 0.5720
vn -0.5607 0.6119 -0.5579
vn -0.4645 0.7551 -0.4626
vn 0.7012 0.1376 0.6996
vn -0.7013 0.1475 -0.6974
vn 0.6480 -0.4027 0.6465
vn -0.6403 -0.4292 -0.6370
vn 0.3998 -0.8254 0.3987
vn -0.3648 -0.8573 -0.3633
vn 0.0249 -0.9994 0.0248
vn 0.7081 -0.0000 0.7061
vn 0.2167 -0.8254 0.5213
vn 0.0135 -0.9994 0.0325
vn -0.1980 -0.8573 -0.4752
vn 0.3840 -0.0000 0.9233
vn -0.3844 -0.0000 -0.9232
vn 0.2517 0.7551 0.6053
vn 0.3108 0.5865 0.7479
vn -0.3045 0.6119 -0.7300
vn -0.2521 0.7551 -0.6052
vn 0.3801 0.1376 0.9147
vn -0.3810 0.1475 -0.9127
vn 0.3512 -0.4027 0.8452
vn -0.3478 -0.4292 -0.8335
vn -0.1001 0.1443 -0.9845
vn -0.0798 0.6037 -0.7932
vn 0.0960 0.1394 0.9856
vn 0.0890 -0.4076 0.9088
vn -0.0914 -0.4208 -0.9025
vn 0.0557 -0.8322 0.5517
vn -0.0520 -0.8484 -0.5268
vn 0.0035 -0.9998 0.0177
vn 0.0987 -0.0000 0.9951
vn -0.0989 -0.0000 -0.9951
vn 0.0682 0.7534 0.6540
vn 0.0794 0.5910 0.8028
vn -0.0623 0.7537 -0.6542
vn 0.1606 0.1480 0.9759
vn 0.1827 -0.4021 0.8972
vn 0.1827 -0.4021 -0.8972
vn 0.1606 0.1480 -0.9759
vn 0.1994 -0.8221 0.5332
vn 0.1994 -0.8221 -0.5332
vn 0.2055 -0.9786 -0.0000
vn 0.1059 0.9944 -0.0000
vn 0.1150 0.6875 0.7170
vn 0.1150 0.6875 -0.7170
vn 0.0985 0.7115 0.6957
vn 0.1220 0.9344 0.3346
vn 0.0985 0.7115 -0.6957
vn 0.1220 0.9344 -0.3346
vn 0.1414 0.5952 0.7910
vn 0.1414 0.5952 -0.7910
vn 0.3331 0.7818 0.5270
vn 0.6847 0.5760 0.4466
vn -0.0000 0.8826 0.4702
vn -0.5783 0.6490 0.4943
vn 0.6611 -0.3190 0.6791
vn 0.7717 0.0917 0.6293
vn -0.3730 -0.5960 0.7111
vn -0.0000 -0.6920 0.7219
vn -0.6847 0.5760 0.4466
vn -0.3331 0.7818 0.5270
vn 0.6585 0.4817 0.5782
vn -0.7717 0.0917 0.6293
vn -0.6611 -0.3190 0.6791
vn 0.3730 -0.5960 0.7111
vn -0.6585 0.4817 0.5782
vn 0.5783 0.6490 0.4943
vn 0.2016 0.6708 0.7137
vn 0.2410 0.9011 0.3603
vn 0.2016 0.6708 -0.7137
vn 0.2223 0.7099 -0.6683
vn 0.2410 0.9011 -0.3603
vn 0.2753 0.5716 0.7730
vn 0.2753 0.5717 -0.7730
vn 0.3104 0.1229 0.9426
vn 0.3104 0.1229 -0.9426
vn 0.3498 -0.3992 0.8475
vn 0.3498 -0.3992 -0.8475
vn 0.3783 -0.7821 0.4951
vn 0.3783 -0.7821 -0.4951
vn 0.3886 -0.9214 -0.0000
vn 0.2106 0.9776 -0.0000
vn 0.2223 0.7099 0.6683
vt 2.306316 0.680855
vt 2.306315 0.990118
vt 3.027601 0.990118
vt 3.027601 0.680855
vt 1.629344 0.602839
vt 1.629344 0.842623
vt 2.080334 0.842623
vt 2.080334 0.602839
vt 1.629344 1.483310
vt 1.629344 0.809576
vt 2.080334 0.809576
vt 2.080334 1.483310
vt 1.629344 0.809576
vt 1.629344 0.076448
vt 2.080334 0.076448
vt 2.080334 0.809576
vt 1.629344 0.076448
vt 1.629344 -0.483311
vt 2.080334 -0.483311
vt 2.080334 0.076448
vt 1.629344 0.559866
vt 1.629344 -0.150799
vt 2.080334 -0.150799
vt 2.080334 0.559866
vt 1.884586 0.500000
vt 1.884586 0.991538
vt 2.437469 0.991538
vt 2.437469 0.500000
vt 2.306316 0.791843
vt 3.027601 0.791843
vt 3.027601 0.879130
vt 2.306316 0.879130
vt 3.027601 0.990118
vt 1.629344 0.602839
vt 2.080334 0.842623
vt 1.629344 0.842623
vt 1.629345 1.483310
vt 2.080334 1.483310
vt 1.629344 0.809576
vt 1.629344 0.809576
vt 2.080334 0.809576
vt 1.629344 0.076448
vt 1.629344 0.076448
vt 2.080334 0.076448
vt 2.080334 -0.483311
vt 1.629344 -0.483311
vt 1.629345 0.559866
vt 2.080334 0.559866
vt 2.080334 -0.150799
vt 1.629344 -0.150799
vt 1.884586 0.500000
vt 2.437469 0.500000
vt 2.437469 0.008462
vt 1.884586 0.008462
vt 2.306316 0.791843
vt 2.306316 0.879130
vt 3.027601 0.879130
vt 3.027601 0.791843
vt 1.936235 -0.304310
vt 1.936235 0.721986
vt 1.277283 0.721986
vt 1.277283 -0.304310
vt 2.848446 0.992061
vt 2.848446 0.498906
vt 1.826078 0.498906
vt 1.826078 0.992061
vt -1.849455 1.665499
vt -1.849455 1.078195
vt -0.903381 1.078195
vt -0.903381 1.665499
vt 1.936235 -1.770609
vt 1.936235 -1.330605
vt 1.277283 -1.330605
vt 1.277283 -1.770608
vt 2.848446 0.005751
vt 1.826078 0.005751
vt -1.849455 0.490891
vt -1.849455 -0.096412
vt -0.903381 -0.096412
vt -0.903381 0.490891
vt 1.936235 1.748281
vt 1.277283 1.748281
vt 2.660581 0.696763
vt 2.660581 0.615102
vt 1.675885 0.615102
vt 1.675885 0.696763
vt -1.849455 2.252802
vt -0.903381 2.252802
vt 2.660581 0.986091
vt 1.675885 0.986091
vt -1.507884 0.623795
vt -1.507884 0.705456
vt -0.653964 0.705456
vt -0.653964 0.623795
vt 1.936235 2.774577
vt 1.277283 2.774578
vt -1.507884 0.994785
vt -0.653964 0.994785
vt -1.849455 -0.348207
vt -0.903381 -0.348207
vt 0.691189 0.696763
vt 0.691189 0.986091
vt 0.199956 0.705456
vt 0.199956 0.623795
vt 0.199956 0.994785
vt 0.042694 -0.348207
vt 0.042694 -0.096412
vt 0.618331 -1.330605
vt 0.618331 -1.770608
vt 0.042694 0.490891
vt 0.618331 -0.304310
vt 0.042694 1.078195
vt 0.618331 0.721986
vt 0.042694 1.665499
vt 0.618331 1.748282
vt 0.042694 2.252802
vt 0.618331 2.774578
vt 0.803710 0.498906
vt 0.803710 0.992061
vt 0.803710 0.005751
vt 0.691189 0.615102
vt 0.988769 1.665499
vt 0.988769 2.252802
vt -0.040621 2.774578
vt -0.040621 1.748282
vt -0.218659 0.498906
vt -0.218659 0.992061
vt -0.218659 0.005751
vt -0.293508 0.615102
vt -0.293508 0.696763
vt -0.293508 0.986091
vt 1.053877 0.705456
vt 1.053877 0.623795
vt 1.053877 0.994785
vt 0.988769 -0.348207
vt 0.988769 -0.096412
vt -0.040621 -1.330605
vt -0.040621 -1.770608
vt 0.988769 0.490891
vt -0.040621 -0.304310
vt 0.988769 1.078195
vt -0.040621 0.721986
vt -0.699573 -0.304310
vt -0.699573 -1.330605
vt 1.934844 0.490891
vt 1.934844 1.078195
vt -0.699573 0.721986
vt 1.934844 1.665499
vt -0.699573 1.748282
vt 1.934844 2.252802
vt -0.699573 2.774578
vt -1.241027 0.498906
vt -1.241027 0.992061
vt -1.241027 0.005751
vt -1.278204 0.615102
vt -1.278204 0.696763
vt -1.278204 0.986091
vt 1.907797 0.705456
vt 1.907797 0.623795
vt 1.907797 0.994784
vt 1.934844 -0.348207
vt 1.934844 -0.096412
vt -0.699573 -1.770608
vt 2.429341 0.490891
vt 2.429340 1.078195
vt -1.043996 0.721986
vt -1.043996 -0.304310
vt 2.429341 1.665499
vt -1.043996 1.748282
vt 2.429341 2.252802
vt -1.043996 2.774578
vt -1.775401 0.498906
vt -1.775401 0.992061
vt -1.775401 0.005751
vt -1.792887 0.615102
vt -1.792887 0.696763
vt -1.792887 0.986091
vt 2.354126 0.705456
vt 2.354126 0.623795
vt 2.354126 0.994784
vt 2.429341 -0.348207
vt 2.429341 -0.096412
vt -1.043996 -1.330605
vt -1.043996 -1.770608
s 1
usemtl concrete_base_03
f 3/5/4 5/6/5 6/7/6 4/8/2
f 5/9/5 7/10/7 8/11/8 6/12/6
f 7/13/7 9/14/9 10/15/10 8/16/8
f 9/17/9 11/18/11 12/19/12 10/20/10
f 11/21/11 1/22/13 2/23/14 12/24/12
f 19/34/20 20/8/19 22/35/21 21/36/22
f 21/37/22 22/38/21 24/11/23 23/39/24
f 23/40/24 24/41/23 26/15/25 25/42/26
f 25/43/26 26/44/25 28/45/27 27/46/28
f 27/47/28 28/48/27 2/49/14 1/50/13
f 23/59/24 25/60/26 45/61/31 44/62/32
f 11/67/11 9/68/9 37/69/33 38/70/34
f 19/71/20 21/72/22 43/73/35 42/74/36
f 7/77/7 5/78/5 35/79/37 36/80/38
f 25/60/26 27/81/28 46/82/39 45/61/31
f 1/87/13 11/67/11 38/70/34 33/88/41
f 21/72/22 23/59/24 44/62/32 43/73/35
f 9/68/9 7/77/7 36/80/38 37/69/33
f 27/81/28 1/95/13 33/96/41 46/82/39
f 5/78/5 3/99/4 34/100/43 35/79/37
f 35/79/37 34/100/43 50/106/45 51/107/46
f 42/74/36 43/73/35 59/108/47 58/109/48
f 36/80/38 35/79/37 51/107/46 52/110/49
f 43/73/35 44/62/32 60/111/50 59/108/47
f 37/69/33 36/80/38 52/110/49 53/112/51
f 44/62/32 45/61/31 61/113/52 60/111/50
f 38/70/34 37/69/33 53/112/51 54/114/53
f 45/61/31 46/82/39 62/115/54 61/113/52
f 33/88/41 38/70/34 54/114/53 49/116/55
f 46/82/39 33/96/41 49/117/55 62/115/54
f 49/116/55 54/114/53 70/122/57 65/123/58
f 62/115/54 49/117/55 65/124/58 78/125/59
f 51/107/46 50/106/45 66/135/62 67/136/63
f 58/109/48 59/108/47 75/137/64 74/138/65
f 52/110/49 51/107/46 67/136/63 68/139/66
f 59/108/47 60/111/50 76/140/67 75/137/64
f 53/112/51 52/110/49 68/139/66 69/141/68
f 60/111/50 61/113/52 77/142/69 76/140/67
f 54/114/53 53/112/51 69/141/68 70/122/57
f 61/113/52 62/115/54 78/125/59 77/142/69
f 75/137/64 76/140/67 92/143/70 91/144/71
f 69/141/68 68/139/66 84/145/72 85/146/73
f 76/140/67 77/142/69 93/147/74 92/143/70
f 70/122/57 69/141/68 85/146/73 86/148/75
f 77/142/69 78/125/59 94/149/76 93/147/74
f 65/123/58 70/122/57 86/148/75 81/150/77
f 78/125/59 65/124/58 81/151/77 94/149/76
f 67/136/63 66/135/62 82/161/80 83/162/81
f 74/138/65 75/137/64 91/144/71 90/163/82
f 68/139/66 67/136/63 83/162/81 84/145/72
f 85/146/73 84/145/72 100/164/83 101/165/84
f 92/143/70 93/147/74 109/166/85 108/167/86
f 86/148/75 85/146/73 101/165/84 102/168/87
f 93/147/74 94/149/76 110/169/88 109/166/85
f 81/150/77 86/148/75 102/168/87 97/170/89
f 94/149/76 81/151/77 97/171/89 110/169/88
f 83/162/81 82/161/80 98/181/94 99/182/97
f 90/163/82 91/144/71 107/183/98 106/184/96
f 84/145/72 83/162/81 99/182/97 100/164/83
f 91/144/71 92/143/70 108/167/86 107/183/98
f 8/16/8 10/15/10 117/15/103 116/16/104
f 2/49/14 28/48/27 126/48/105 113/49/106
f 4/8/2 6/7/6 115/7/109 114/8/99
f 26/15/25 24/41/23 124/41/110 125/15/111
f 10/20/10 12/19/12 118/19/112 117/20/103
f 22/35/21 20/8/19 122/8/108 123/35/113
f 6/12/6 8/11/8 116/11/104 115/12/109
f 28/45/27 26/44/25 125/44/111 126/45/105
f 12/24/12 2/23/14 113/23/106 118/24/112
f 24/11/23 22/38/21 123/38/113 124/11/110
f 99/182/97 98/181/94 130/181/116 131/182/120
f 106/184/96 107/183/98 139/183/121 138/184/119
f 100/164/83 99/182/97 131/182/120 132/164/122
f 107/183/98 108/167/86 140/167/123 139/183/121
f 101/165/84 100/164/83 132/164/122 133/165/124
f 108/167/86 109/166/85 141/166/125 140/167/123
f 102/168/87 101/165/84 133/165/124 134/168/126
f 109/166/85 110/169/88 142/169/127 141/166/125
f 97/170/89 102/168/87 134/168/126 129/170/128
f 110/169/88 97/171/89 129/171/128 142/169/127
usemtl soil_mud
f 17/25/1 15/26/1 16/27/15 18/28/16
f 17/51/1 18/52/16 32/53/29 31/54/1
f 15/63/1 17/64/1 41/65/1 40/66/1
f 17/64/1 31/75/1 48/76/1 41/65/1
f 40/66/1 41/65/1 57/118/1 56/119/1
f 41/65/1 48/76/1 64/120/1 57/118/1
f 56/119/1 57/118/1 73/126/1 72/127/1
f 57/118/1 64/120/1 80/128/1 73/126/1
f 72/127/1 73/126/1 89/152/1 88/153/1
f 73/126/1 80/128/1 96/154/1 89/152/1
f 88/153/1 89/152/1 105/172/90 104/173/91
f 89/152/1 96/154/1 112/174/92 105/172/90
f 32/53/29 18/52/16 121/52/101 128/53/102
f 18/28/16 16/27/15 120/27/114 121/28/101
f 104/173/91 105/172/90 137/172/129 136/173/130
f 105/172/90 112/174/92 144/174/118 137/172/129
usemtl concrete_base_02
f 13/1/1 3/2/1 4/3/2 14/4/3
f 13/29/17 14/30/3 16/31/15 15/32/17
f 29/1/1 30/4/18 20/33/19 19/2/1
f 29/55/30 31/56/30 32/57/29 30/58/18
f 13/83/17 15/84/17 40/85/40 39/86/40
f 3/89/1 13/83/1 39/86/1 34/90/1
f 31/91/30 29/92/30 47/93/42 48/94/42
f 29/92/1 19/97/1 42/98/1 47/93/1
f 34/90/1 39/86/1 55/101/1 50/102/1
f 48/94/42 47/93/42 63/103/44 64/104/44
f 47/93/1 42/98/1 58/105/1 63/103/1
f 39/86/40 40/85/40 56/121/56 55/101/56
f 55/101/56 56/121/56 72/129/60 71/130/60
f 50/102/1 55/101/1 71/130/1 66/131/1
f 64/104/44 63/103/44 79/132/61 80/133/61
f 63/103/1 58/105/1 74/134/1 79/132/1
f 71/130/60 72/129/60 88/155/78 87/156/78
f 66/131/1 71/130/1 87/156/1 82/157/1
f 80/133/61 79/132/61 95/158/79 96/159/79
f 79/132/1 74/134/1 90/160/1 95/158/1
f 87/156/78 88/155/78 104/175/91 103/176/93
f 82/157/1 87/156/1 103/176/93 98/177/94
f 96/159/79 95/158/79 111/178/95 112/179/92
f 95/158/1 90/160/1 106/180/96 111/178/95
f 14/4/3 4/3/2 114/3/99 119/4/100
f 20/33/19 30/4/18 127/4/107 122/33/108
f 16/31/15 14/30/3 119/30/100 120/31/114
f 30/58/18 32/57/29 128/57/102 127/58/107
f 98/177/94 103/176/93 135/176/115 130/177/116
f 112/179/92 111/178/95 143/178/117 144/179/118
f 111/178/95 106/180/96 138/180/119 143/178/117
f 103/176/93 104/175/91 136/175/130 135/176/115
