# Blender 4.5.9 LTS
# www.blender.org
mtllib Serwers02_002.mtl
o Serwers02_002
v 0.000001 3.254394 -4.248933
v -4.248925 3.254395 -0.000006
v 4.248928 3.254395 -0.000006
v -4.248925 -2.636668 1.862709
v -1.862713 -2.636669 -4.248932
v 4.248928 -2.636668 1.862709
v -4.248925 -2.122126 2.455369
v -2.455373 -2.122126 -4.248932
v 4.248928 -2.122126 2.455369
v -3.215856 -0.456902 -4.248932
v -4.248925 -0.456902 3.215851
v 4.248928 -0.456902 3.215851
v -2.955326 1.355121 -4.248932
v -4.248925 1.355121 2.955321
v 4.248928 1.355121 2.955321
v -1.756501 2.738639 -4.248932
v -4.248925 2.738639 1.756496
v 4.248928 2.738639 1.756496
v -0.999718 -2.636669 -4.248932
v -4.248924 -2.636668 0.999714
v 4.248928 -2.636668 0.999714
v -0.999718 -2.880242 -4.248932
v -4.248924 -2.880242 0.999714
v 4.248928 -2.880242 0.999714
v -4.248924 -2.880242 -0.000006
v 0.000001 -2.880242 -4.248932
v 4.248928 -2.880242 -0.000006
v -4.248925 -2.636669 -1.862721
v 1.862716 -2.636669 -4.248932
v 4.248928 -2.636669 -1.862721
v -4.248925 -2.122126 -2.455380
v 2.455376 -2.122126 -4.248932
v 4.248928 -2.122126 -2.455380
v 3.215858 -0.456902 -4.248932
v -4.248925 -0.456902 -3.215863
v 4.248928 -0.456902 -3.215863
v 2.955329 1.355121 -4.248932
v -4.248925 1.355121 -2.955333
v 4.248928 1.355121 -2.955333
v 1.756504 2.738639 -4.248932
v -4.248925 2.738639 -1.756508
v 4.248928 2.738639 -1.756508
v 0.999721 -2.636669 -4.248932
v -4.248924 -2.636668 -0.999726
v 4.248928 -2.636668 -0.999725
v 0.999721 -2.880242 -4.248932
v -4.248924 -2.880242 -0.999726
v 4.248928 -2.880242 -0.999725
v -2.455373 -2.122126 -2.455380
v -2.455373 -2.122126 2.455369
v -1.862713 -2.636669 -1.862721
v -1.862713 -2.636668 -0.999725
v -1.862713 -2.636668 0.999714
v -1.862713 -2.636668 1.242044
v -1.862713 -2.636668 1.862709
v -3.215856 -0.456902 3.215851
v -3.215856 -0.456902 3.215851
v -3.215856 -0.456902 -3.215863
v -3.215856 -0.456902 -3.215863
v -2.955326 1.355121 -2.955333
v -2.955326 1.355121 2.955321
v -1.756501 2.738639 -1.756508
v -1.756501 2.738639 1.756496
v 0.000001 3.254395 -0.000006
v -0.999718 -2.636669 -1.862721
v -0.999718 -2.636668 -1.329697
v -0.999718 -2.636668 -0.999725
v -0.999718 -2.636668 0.999714
v -0.999718 -2.636668 1.862709
v -0.999718 -2.880242 0.999714
v -0.999718 -2.880242 -0.999725
v -0.999718 -2.880242 -0.000006
v -0.999718 -2.880242 0.382243
v 1.862716 -2.636668 1.862709
v 1.862716 -2.636669 -1.862721
v 1.862716 -2.636668 -0.999725
v 1.862716 -2.636668 0.999714
v 1.862716 -2.636668 1.620378
v 2.455376 -2.122126 -2.455380
v 2.455376 -2.122126 2.455369
v 3.215858 -0.456902 3.215851
v 3.215858 -0.456902 3.215851
v 3.215858 -0.456902 -3.215863
v 3.215858 -0.456902 -3.215863
v 2.955329 1.355121 -2.955333
v 2.955329 1.355121 2.955321
v 1.756504 2.738639 -1.756508
v 1.756504 2.738639 1.756496
v 0.999721 -2.880242 0.999714
v 0.999721 -2.880242 -0.999725
v 0.999721 -2.880242 -0.000006
v 0.999721 -2.880242 0.617465
v 0.999721 -2.636669 -1.862721
v 0.999721 -2.636668 -1.532749
v 0.999721 -2.636668 -0.999725
v 0.999721 -2.636668 0.999714
v 0.999721 -2.636668 1.862709
v 1.620386 -2.636668 1.862709
v -1.532742 -2.636668 0.999714
v 0.617472 -2.880242 0.999714
v 0.000001 -2.880242 0.999714
v 1.242052 -2.636669 -1.862721
v 0.382250 -2.880242 -0.999725
v 0.000001 -2.880242 -0.999725
v -1.329690 -2.636668 -0.999725
v 0.435035 -2.880242 -0.551045
v 0.000001 -2.880242 -0.499866
v -0.551037 -2.880242 0.435028
v 0.566507 -2.880242 0.566500
v -0.447243 -2.880242 -0.447250
v -0.499858 -2.880242 -0.000006
v 0.000001 -2.880242 -0.000006
v -1.299269 -2.636668 -1.299276
v -1.560469 -2.636668 1.272739
v 1.272746 -2.636668 -1.560476
v 1.592994 -2.636668 1.592987
v 0.000001 3.510803 -4.635354
v -1.980328 -2.752230 -4.635354
v -2.610409 -2.205199 -4.635354
v -3.418909 -0.434830 -4.635354
v -3.141930 1.491607 -4.635354
v -1.867409 2.962482 -4.635354
v -1.062842 -2.752230 -4.635353
v -1.062842 -3.011183 -4.635353
v 0.000001 -3.011183 -4.635353
v 1.980331 -2.752230 -4.635354
v 2.610412 -2.205199 -4.635354
v 3.418912 -0.434830 -4.635354
v 3.141932 1.491607 -4.635354
v 1.867412 2.962482 -4.635354
v 1.062845 -2.752230 -4.635353
v 1.062845 -3.011183 -4.635353
vn -0.0000 1.0000 -0.0000
vn 0.6883 0.7100 -0.1486
vn 0.3241 0.9272 -0.1877
vn 0.3699 0.8522 0.3699
vn 0.7794 0.5883 -0.2157
vn 0.4500 0.7713 0.4500
vn 0.9584 0.1493 -0.2433
vn 0.8940 0.0530 0.4450
vn 0.3719 0.3241 0.8699
vn 0.8791 -0.3904 -0.2736
vn 0.5658 -0.5999 0.5658
vn 0.5213 -0.8004 -0.2960
vn 0.2302 -0.9455 0.2302
vn -0.0000 -0.9526 -0.3042
vn -0.0000 -0.9975 -0.0704
vn -0.0000 0.9867 -0.1626
vn 0.7198 0.6705 -0.1797
vn 1.0000 -0.0000 -0.0000
vn 0.7071 -0.0000 0.7071
vn -0.3241 0.9272 -0.1877
vn -0.6883 0.7100 -0.1486
vn -0.7794 0.5883 -0.2157
vn -0.3699 0.8522 0.3699
vn -0.4500 0.7713 0.4500
vn -0.9584 0.1493 -0.2433
vn -0.7591 0.3770 0.5307
vn -0.8791 -0.3904 -0.2736
vn -0.6818 -0.0023 0.7315
vn -0.5658 -0.5999 0.5658
vn -0.5213 -0.8004 -0.2960
vn -0.2302 -0.9455 0.2302
vn -0.7198 0.6705 -0.1797
vn -0.7071 -0.0000 0.7071
vn -1.0000 -0.0000 -0.0000
vn -0.0000 0.7551 -0.6556
vn -0.0000 0.5989 -0.8008
vn -0.0000 0.1423 -0.9898
vn -0.0000 -0.1423 -0.9898
vn -0.0000 -0.4154 -0.9096
vn -0.0000 -0.8413 -0.5406
vn -0.0000 -1.0000 -0.0000
vn -0.0000 -0.0000 -1.0000
vn -0.0000 0.7551 0.6556
vn -0.0000 0.5989 0.8008
vn -0.0000 0.1423 0.9898
vn -0.0000 -0.4154 0.9096
vn -0.0000 -0.8413 0.5406
vn -0.0000 -0.0000 1.0000
vn 0.8824 0.1101 -0.4574
vn 0.7782 -0.3710 -0.5068
vn -0.0000 0.9471 -0.3209
vn 0.6361 0.6932 -0.3388
vn 0.4480 -0.7118 -0.5409
vn -0.0000 -0.8332 -0.5529
vn -0.6361 0.6932 -0.3388
vn -0.7069 0.6376 -0.3062
vn -0.4480 -0.7118 -0.5409
vn -0.7343 0.5404 -0.4108
vn -0.3545 0.8607 -0.3653
vn -0.7782 -0.3710 -0.5068
vn -0.8824 0.1101 -0.4574
vn 0.3545 0.8607 -0.3653
vn 0.7343 0.5404 -0.4108
vn 0.7069 0.6376 -0.3062
vt 0.084563 0.680855
vt -1.064508 0.680855
vt -1.064508 0.990118
vt 0.084563 0.990118
vt 1.579651 0.990118
vt 1.594432 0.881806
vt 1.462958 0.871869
vt 1.462958 0.990118
vt 1.878530 0.680855
vt 1.462958 0.680855
vt 1.878530 0.990118
vt 0.355888 0.788202
vt 0.341238 0.680855
vt 0.500135 0.680855
vt 0.240175 0.602839
vt -0.478291 0.602839
vt -0.478291 0.842623
vt 0.061731 0.842623
vt 0.061731 1.483311
vt -0.478291 1.483311
vt -0.478291 0.809576
vt -0.167244 0.809576
vt -0.167243 0.809576
vt -0.478291 0.076448
vt -0.088801 0.076448
vt -0.088801 0.076448
vt -0.478291 -0.483311
vt 0.272155 -0.483311
vt 0.272155 0.559866
vt -0.478291 0.559866
vt -0.478291 -0.150799
vt 0.801021 -0.150799
vt -0.699235 0.500000
vt -0.699235 0.991538
vt 0.500103 0.991538
vt 0.500103 0.500000
vt 1.238131 0.500000
vt 0.869117 0.500000
vt 0.869117 0.745769
vt 1.029695 0.770932
vt 1.010212 0.991538
vt 1.238131 0.991538
vt 0.869117 0.991538
vt 0.704032 0.719899
vt 0.684610 0.500000
vt 0.341239 0.791843
vt 0.500135 0.791843
vt 0.500135 0.879130
vt -1.064508 0.879130
vt -1.064508 0.791843
vt 0.084563 0.791843
vt 0.084563 0.680855
vt 0.084563 0.767697
vt 0.084563 0.990118
vt 0.243460 0.680855
vt 0.230108 0.778696
vt 0.500135 0.990118
vt 0.500135 0.680855
vt 1.878530 0.903276
vt 1.748646 0.893461
vt 1.761836 0.990118
vt 1.462958 0.990118
vt 1.878530 0.990118
vt 0.240175 0.602839
vt 0.061731 0.842623
vt 0.061731 1.483311
vt -0.167244 0.809576
vt -0.167244 0.809576
vt -0.088801 0.076448
vt -0.088801 0.076448
vt 0.272155 -0.483311
vt 0.272155 0.559866
vt -0.699235 0.008462
vt 0.500103 0.312057
vt 0.500103 0.008462
vt 1.238131 0.196405
vt 1.078224 0.221463
vt 1.097036 0.008462
vt 0.869117 0.008462
vt 0.665719 0.286105
vt 1.238131 0.008462
vt 0.500135 0.791843
vt 0.243460 0.791843
vt 0.084563 0.791843
vt 0.500135 0.879130
vt 0.084563 0.990118
vt 0.084563 0.767697
vt 3.027601 0.990118
vt 3.027601 0.680855
vt 1.878530 0.680855
vt 1.878530 0.903276
vt 1.761837 0.990118
vt 0.500135 0.990118
vt 0.243459 0.680855
vt 0.230108 0.778696
vt 0.061730 0.842623
vt 1.540312 0.842623
vt 2.080334 0.842623
vt 2.080334 0.602839
vt 1.361868 0.602839
vt 1.288904 0.602839
vt 1.102028 0.602839
vt 0.500015 0.602839
vt -0.167244 0.809576
vt 1.769287 0.809576
vt 2.080334 0.809576
vt 2.080334 1.483310
vt 1.540312 1.483310
vt -0.088801 0.076448
vt 1.690843 0.076448
vt 2.080334 0.076448
vt 0.272155 -0.483311
vt -0.088801 0.076448
vt 1.329888 -0.483311
vt 2.080334 -0.483311
vt 0.272155 0.559866
vt 2.080334 -0.150799
vt 2.080334 0.559866
vt 1.329888 0.559866
vt 0.500103 0.991538
vt 0.500103 0.687943
vt 0.500103 0.500000
vt 1.238131 0.991538
vt 2.437469 0.991538
vt 2.437469 0.500000
vt 1.238131 0.500000
vt 1.238131 0.803595
vt 1.078224 0.778537
vt 1.097036 0.991538
vt 0.684610 0.500000
vt 0.665719 0.713895
vt 0.071451 0.926678
vt 0.220482 0.926678
vt 0.220482 0.858576
vt -0.687984 0.858576
vt -0.687984 0.926678
vt -0.020808 0.926678
vt 1.020808 0.926678
vt 1.687984 0.926678
vt 1.687984 0.858576
vt 0.779518 0.858576
vt 0.779518 0.926678
vt 0.672642 0.858576
vt 0.500000 0.858576
vt 0.084563 0.680855
vt 0.084563 0.990118
vt 3.027601 0.990118
vt 1.878529 0.990118
vt 0.255966 0.564031
vt 0.245065 0.708279
vt 0.137717 0.564031
vt 0.446980 0.564031
vt 0.446980 0.979603
vt 1.385236 0.574643
vt 1.503485 0.574643
vt 1.493549 0.706117
vt 1.385236 0.691336
vt 2.080334 0.842623
vt 1.540312 0.842623
vt 0.061731 1.483311
vt 2.080334 1.483310
vt 1.769287 0.809576
vt 1.769286 0.809576
vt 1.540312 1.483310
vt 1.690844 0.076448
vt 2.080334 -0.483311
vt 1.329888 -0.483311
vt 2.080334 0.559866
vt 1.329888 0.559866
vt 0.500103 0.008462
vt 2.437469 0.008462
vt 1.238131 0.008462
vt 0.869117 0.254231
vt 0.704031 0.280101
vt 1.010212 0.008462
vt 1.029696 0.229068
vt 0.128223 0.926678
vt 0.226147 0.574643
vt 0.333494 0.718890
vt 0.344396 0.574643
vt 0.535410 0.990215
vt 0.535410 0.574643
vt 1.694499 0.574643
vt 1.385236 0.990215
s 1
usemtl concrete_base_03
f 51/15/4 5/16/3 8/17/5 49/18/6
f 49/19/6 8/20/5 10/21/7 58/22/8 59/22/9
f 58/23/8 10/21/7 13/24/10 60/25/11
f 60/26/11 13/24/10 16/27/12 62/28/13
f 62/29/13 16/30/12 1/31/14 64/32/15
f 32/17/22 29/16/20 75/64/23 79/65/24
f 34/21/25 32/20/22 79/66/24 83/67/26
f 37/24/27 34/21/25 83/67/26 84/68/28 85/69/29
f 40/27/30 37/24/27 85/70/29 87/71/31
f 64/32/15 1/31/14 40/30/30 87/72/31
f 55/15/35 4/16/35 7/17/36 50/96/36
f 80/97/36 9/98/36 6/99/35 74/100/35
f 55/15/35 50/96/36 80/97/36 74/100/35 98/101/35 97/102/35 69/103/35
f 50/19/36 7/20/36 11/21/37 57/104/37
f 81/105/37 12/106/37 9/107/36 80/108/36
f 57/104/37 81/105/37 80/108/36 50/19/36
f 56/104/38 57/104/37 11/21/37 14/24/39 61/109/39
f 86/110/39 15/111/39 12/106/37 81/105/37 82/105/38
f 82/105/38 81/105/37 57/104/37 56/104/38 61/109/39 86/110/39
f 14/24/39 17/27/40 63/112/40 61/113/39
f 88/114/40 18/115/40 15/111/39 86/110/39
f 63/112/40 88/114/40 86/110/39 61/113/39
f 63/116/40 17/30/40 2/31/41 64/32/15
f 64/32/15 3/117/41 18/118/40 88/119/40
f 63/116/40 64/32/15 88/119/40
f 28/16/43 51/15/4 49/65/6 31/17/44
f 75/100/23 30/99/43 33/158/44 79/159/24
f 35/21/45 31/20/44 49/160/6 59/22/9
f 33/161/44 36/106/45 84/162/28 83/163/26 79/164/24
f 38/24/46 35/21/45 59/22/9 58/22/8 60/26/11
f 84/162/28 36/106/45 39/111/46 85/165/29
f 41/27/47 38/24/46 60/26/11 62/28/13
f 39/111/46 42/166/47 87/167/31 85/165/29
f 64/32/15 2/31/41 41/30/47 62/29/13
f 42/168/47 3/117/41 64/32/15 87/169/31
f 13/24/10 10/21/7 120/21/49 121/24/50
f 1/31/14 16/30/12 122/30/53 117/31/54
f 16/27/12 13/24/10 121/24/50 122/27/53
f 40/30/30 1/31/14 117/31/54 130/30/57
f 29/16/20 32/17/22 127/17/58 126/16/59
f 34/21/25 37/24/27 129/24/60 128/21/61
f 8/17/5 5/16/3 118/16/62 119/17/63
f 32/20/22 34/21/25 128/21/61 127/20/58
f 37/24/27 40/27/30 130/27/57 129/24/60
f 10/21/7 8/20/5 119/20/63 120/21/49
usemtl soil_mud
f 26/33/16 22/34/17 71/35/1 104/36/1
f 101/37/1 112/38/1 111/39/1 108/40/1 73/41/1 70/42/1
f 108/40/1 111/39/1 72/43/1 73/41/1
f 71/35/1 72/43/1 111/39/1 110/44/1 107/45/1 104/36/1
f 107/45/1 110/44/1 111/39/1 112/38/1
f 46/73/32 26/33/16 104/36/1 103/74/1 90/75/1
f 101/37/1 100/76/1 109/77/1 92/78/1 91/79/1 112/38/1
f 103/74/1 104/36/1 107/45/1 106/80/1
f 92/78/1 109/77/1 100/76/1 89/81/1
f 91/79/1 90/75/1 103/74/1 106/80/1 107/45/1 112/38/1
f 25/33/1 23/34/1 70/120/1 73/121/1 72/122/1
f 89/123/1 24/124/1 27/125/1 91/126/1 92/127/1
f 92/127/1 109/128/1 100/129/1 89/123/1
f 101/43/1 112/38/1 111/130/1 108/131/1 73/121/1 70/120/1
f 108/131/1 111/130/1 72/122/1 73/121/1
f 101/43/1 100/129/1 109/128/1 92/127/1 91/126/1 112/38/1
f 71/170/1 47/73/1 25/33/1 72/122/1
f 91/126/1 27/125/1 48/171/1 90/172/1
f 107/173/1 110/174/1 111/130/1 112/38/1
f 91/126/1 90/172/1 103/175/1 106/176/1 107/173/1 112/38/1
f 71/170/1 72/122/1 111/130/1 110/174/1 107/173/1 104/79/1
f 103/175/1 104/79/1 107/173/1 106/176/1
f 22/34/17 26/33/16 125/33/51 124/34/52
f 26/33/16 46/73/32 132/73/55 125/33/51
usemtl concrete_base_02
f 65/1/1 19/2/2 5/3/3 51/4/1
f 54/5/1 114/6/1 99/7/1 53/8/1
f 69/9/1 68/10/1 99/7/1 114/6/1 54/5/1 55/11/1
f 113/12/1 66/13/1 65/1/1 51/4/1
f 66/13/1 113/12/1 67/14/1
f 66/46/18 67/47/19 71/48/19 22/49/17 19/50/2 65/51/18
f 29/3/20 43/2/21 93/52/1 102/53/1 75/54/1
f 93/52/1 94/55/1 115/56/1 102/53/1
f 76/57/1 75/54/1 95/58/1
f 96/10/1 97/9/1 98/59/1 116/60/1 78/61/1 77/62/1
f 78/61/1 116/60/1 98/59/1 74/63/1
f 95/82/33 94/83/34 93/84/34 43/50/21 46/49/32 90/85/33
f 53/1/1 20/2/1 4/3/1 55/86/1 54/87/1
f 6/88/1 21/89/1 77/90/1 78/91/1 74/63/1
f 78/91/1 116/60/1 98/92/1 74/63/1
f 69/93/1 97/8/1 96/10/1 68/14/1
f 69/93/1 68/14/1 99/94/1 114/95/1 54/87/1 55/86/1
f 54/87/1 114/95/1 99/94/1 53/1/1
f 96/10/1 97/8/1 98/92/1 116/60/1 78/91/1 77/90/1
f 99/132/42 68/133/42 70/134/42 23/135/42 20/136/42 53/137/42
f 77/138/42 21/139/42 24/140/42 89/141/42 96/142/42
f 70/134/42 68/133/42 96/142/42 89/141/42 100/143/42 101/144/42
f 28/3/1 44/2/1 52/145/1 51/146/1
f 76/9/1 45/89/1 30/147/1 75/148/1
f 66/149/1 113/150/1 67/151/1
f 76/9/1 75/148/1 95/10/1
f 113/150/1 66/149/1 65/152/1 51/153/1
f 93/154/1 94/155/1 115/156/1 102/157/1
f 105/177/48 52/137/48 44/136/48 47/135/48 71/134/19 67/133/19
f 95/142/33 90/141/33 48/140/48 45/139/48 76/138/48
f 67/14/1 113/12/1 105/13/1
f 67/178/1 113/179/1 105/180/1
f 51/146/1 52/145/1 105/13/1 113/12/1
f 51/181/1 52/182/1 105/180/1 113/179/1
f 95/58/1 75/54/1 102/53/1 115/56/1 94/55/1
f 95/183/1 75/184/1 102/157/1 115/156/1 94/155/1
f 46/49/32 43/50/21 131/50/56 132/49/55
f 43/2/21 29/3/20 126/3/59 131/2/56
f 5/3/3 19/2/2 123/2/64 118/3/62
f 19/50/2 22/49/17 124/49/52 123/50/64
