# Blender 4.5.9 LTS
# www.blender.org
mtllib TB.mtl
o TB
v 0.410345 -0.047750 -0.784934
v 0.264264 -0.047750 -0.784934
v 0.410346 -0.047750 0.786388
v 0.264264 -0.047750 0.786388
v 0.073029 -0.047750 -0.784934
v -0.073053 -0.047750 -0.784934
v 0.073029 -0.047750 0.786388
v -0.073052 -0.047750 0.786388
v -0.273151 -0.047750 0.786388
v -0.419232 -0.047750 0.786388
v -0.273151 -0.047750 -0.784934
v -0.419233 -0.047750 -0.784934
v -0.610468 -0.047750 0.786388
v -0.756549 -0.047750 0.786388
v -0.610468 -0.047750 -0.784934
v -0.756549 -0.047750 -0.784934
v 0.766773 -0.047750 -0.784934
v 0.620692 -0.047750 -0.784934
v 0.766773 -0.047750 0.786388
v 0.620692 -0.047750 0.786388
v 0.410346 -0.083702 0.786388
v 0.410345 -0.083702 -0.784934
v 0.264264 -0.083702 -0.784934
v 0.264264 -0.083702 0.786388
v 0.073029 -0.083702 0.786388
v 0.073029 -0.083702 -0.784934
v -0.073053 -0.083702 -0.784934
v -0.073052 -0.083702 0.786388
v -0.273151 -0.083702 0.786388
v -0.273151 -0.083702 -0.784934
v -0.419232 -0.083702 0.786388
v -0.419233 -0.083702 -0.784934
v -0.610468 -0.083702 0.786388
v -0.610468 -0.083702 -0.784934
v -0.756549 -0.083702 0.786388
v -0.756549 -0.083702 -0.784934
v 0.766773 -0.083702 -0.784934
v 0.766773 -0.083702 0.786388
v 0.620692 -0.083702 -0.784934
v 0.620692 -0.083702 0.786388
v -0.409815 0.083942 0.786381
v -0.263734 0.083942 0.786381
v -0.409816 0.083942 -0.784940
v -0.263734 0.083942 -0.784940
v -0.072499 0.083942 0.786381
v 0.073583 0.083942 0.786381
v -0.072499 0.083942 -0.784940
v 0.073582 0.083942 -0.784940
v 0.273681 0.083942 -0.784940
v 0.419762 0.083942 -0.784940
v 0.273681 0.083942 0.786381
v 0.419763 0.083942 0.786381
v 0.610998 0.083942 -0.784940
v 0.757079 0.083942 -0.784940
v 0.610998 0.083942 0.786381
v 0.757079 0.083942 0.786381
v -0.766243 0.083942 0.786381
v -0.620162 0.083942 0.786381
v -0.766243 0.083942 -0.784940
v -0.620162 0.083942 -0.784940
v -0.409816 0.047990 -0.784940
v -0.409815 0.047990 0.786381
v -0.263734 0.047990 0.786381
v -0.263734 0.047990 -0.784940
v -0.072499 0.047990 -0.784940
v -0.072499 0.047990 0.786381
v 0.073583 0.047990 0.786381
v 0.073582 0.047990 -0.784940
v 0.273681 0.047990 -0.784940
v 0.273681 0.047990 0.786381
v 0.419762 0.047990 -0.784940
v 0.419763 0.047990 0.786381
v 0.610998 0.047990 -0.784940
v 0.610998 0.047990 0.786381
v 0.757079 0.047990 -0.784940
v 0.757079 0.047990 0.786381
v -0.766243 0.047990 0.786381
v -0.766243 0.047990 -0.784940
v -0.620162 0.047990 0.786381
v -0.620162 0.047990 -0.784940
v -0.754368 -0.051097 -0.721897
v -0.754368 0.050251 -0.721897
v -0.754368 -0.051097 -0.776628
v -0.754368 0.050251 -0.776628
v 0.754897 -0.051097 -0.721898
v 0.754897 0.050251 -0.721898
v 0.754897 -0.051097 -0.776628
v 0.754897 0.050251 -0.776628
v -0.756171 -0.051097 0.776277
v -0.756171 0.050251 0.776277
v -0.756171 -0.051097 0.721547
v -0.756171 0.050251 0.721547
v 0.753094 -0.051097 0.776277
v 0.753094 0.050251 0.776277
v 0.753094 -0.051097 0.721547
v 0.753094 0.050251 0.721547
v -0.756171 -0.051097 0.020037
v -0.756171 0.050251 0.020037
v -0.756171 -0.051097 -0.034694
v -0.756171 0.050251 -0.034694
v 0.753094 -0.051097 0.020036
v 0.753094 0.050251 0.020036
v 0.753094 -0.051097 -0.034694
v 0.753094 0.050251 -0.034694
vn -0.0000 1.0000 -0.0000
vn -0.0000 -1.0000 -0.0000
vn -0.0000 -0.0000 -1.0000
vn 1.0000 -0.0000 -0.0000
vn -0.0000 -0.0000 1.0000
vn -1.0000 -0.0000 -0.0000
vt 0.006684 0.006684
vt 0.065657 0.006684
vt 0.065657 0.578444
vt 0.006684 0.578444
vt 0.079026 0.006684
vt 0.137999 0.006684
vt 0.137999 0.578444
vt 0.079026 0.578444
vt 0.044081 0.440098
vt 0.028844 0.440098
vt 0.028844 0.386154
vt 0.044081 0.386154
vt 0.044081 0.028954
vt 0.028844 0.028954
vt 0.028844 0.551957
vt 0.044081 0.551957
vt 0.044081 0.187700
vt 0.044081 0.133756
vt 0.028844 0.133756
vt 0.028844 0.187700
vt 0.044081 0.571718
vt 0.028844 0.571718
vt 0.028844 0.517773
vt 0.044081 0.517773
vt 0.044081 0.315536
vt 0.028844 0.315536
vt 0.028844 0.261591
vt 0.044081 0.261591
vt 0.044081 0.063138
vt 0.044081 0.009194
vt 0.028844 0.009194
vt 0.028844 0.063138
vt 0.042208 0.403314
vt 0.030717 0.403314
vt 0.030717 0.362630
vt 0.042208 0.362630
vt 0.042208 0.093235
vt 0.030717 0.093235
vt 0.030717 0.487677
vt 0.042208 0.487677
vt 0.042208 0.212959
vt 0.042208 0.172275
vt 0.030717 0.172275
vt 0.030717 0.212959
vt 0.042208 0.502579
vt 0.030717 0.502579
vt 0.030717 0.461895
vt 0.042208 0.461895
vt 0.042208 0.309371
vt 0.030717 0.309371
vt 0.030717 0.268687
vt 0.042208 0.268687
vt 0.042208 0.119016
vt 0.042208 0.078332
vt 0.030717 0.078332
vt 0.030717 0.119016
vt 0.089336 0.294130
vt 0.126460 0.294130
vt 0.126460 0.274082
vt 0.089336 0.274082
vt 0.089336 0.560526
vt 0.126460 0.560526
vt 0.126460 0.007685
vt 0.089336 0.007685
vt 0.117922 0.560526
vt 0.117922 0.007685
vt 0.097874 0.007685
vt 0.097874 0.560526
vt 0.017900 0.294130
vt 0.055024 0.294130
vt 0.055024 0.274082
vt 0.017900 0.274082
vt 0.017900 0.560526
vt 0.055024 0.560526
vt 0.055024 0.007685
vt 0.017900 0.007685
vt 0.046486 0.560526
vt 0.046486 0.007685
vt 0.026438 0.007685
vt 0.026438 0.560526
s 0
usemtl Trash_01
f 1/1/1 2/2/1 4/3/1 3/4/1
f 5/5/1 6/6/1 8/7/1 7/8/1
f 9/1/1 11/4/1 12/3/1 10/2/1
f 13/5/1 15/8/1 16/7/1 14/6/1
f 17/1/1 18/2/1 20/3/1 19/4/1
f 22/1/2 21/4/2 24/3/2 23/2/2
f 26/5/2 25/8/2 28/7/2 27/6/2
f 29/1/2 31/2/2 32/3/2 30/4/2
f 33/5/2 35/6/2 36/7/2 34/8/2
f 37/1/2 38/4/2 40/3/2 39/2/2
f 1/9/3 22/10/3 23/11/3 2/12/3
f 19/13/4 38/14/4 37/15/4 17/16/4
f 9/17/5 10/18/5 31/19/5 29/20/5
f 2/16/6 23/15/6 24/14/6 4/13/6
f 17/21/3 37/22/3 39/23/3 18/24/3
f 10/13/6 12/16/6 32/15/6 31/14/6
f 4/12/5 24/11/5 21/10/5 3/9/5
f 18/16/6 39/15/6 40/14/6 20/13/6
f 12/18/3 11/17/3 30/20/3 32/19/3
f 7/13/4 25/14/4 26/15/4 5/16/4
f 20/24/5 40/23/5 38/22/5 19/21/5
f 15/16/4 13/13/4 33/14/4 34/15/4
f 5/25/3 26/26/3 27/27/3 6/28/3
f 13/29/5 14/30/5 35/31/5 33/32/5
f 6/16/6 27/15/6 28/14/6 8/13/6
f 14/13/6 16/16/6 36/15/6 35/14/6
f 8/28/5 28/27/5 25/26/5 7/25/5
f 3/13/4 21/14/4 22/15/4 1/16/4
f 16/30/3 15/29/3 34/32/3 36/31/3
f 11/16/4 9/13/4 29/14/4 30/15/4
f 41/1/1 42/2/1 44/3/1 43/4/1
f 45/5/1 46/6/1 48/7/1 47/8/1
f 49/1/1 51/4/1 52/3/1 50/2/1
f 53/5/1 55/8/1 56/7/1 54/6/1
f 57/1/1 58/2/1 60/3/1 59/4/1
f 62/1/2 61/4/2 64/3/2 63/2/2
f 66/5/2 65/8/2 68/7/2 67/6/2
f 69/1/2 71/2/2 72/3/2 70/4/2
f 73/5/2 75/6/2 76/7/2 74/8/2
f 77/1/2 78/4/2 80/3/2 79/2/2
f 41/33/5 62/34/5 63/35/5 42/36/5
f 59/37/6 78/38/6 77/39/6 57/40/6
f 49/41/3 50/42/3 71/43/3 69/44/3
f 42/40/4 63/39/4 64/38/4 44/37/4
f 57/45/5 77/46/5 79/47/5 58/48/5
f 50/37/4 52/40/4 72/39/4 71/38/4
f 44/36/3 64/35/3 61/34/3 43/33/3
f 58/40/4 79/39/4 80/38/4 60/37/4
f 52/42/5 51/41/5 70/44/5 72/43/5
f 47/37/6 65/38/6 66/39/6 45/40/6
f 60/48/3 80/47/3 78/46/3 59/45/3
f 55/40/6 53/37/6 73/38/6 74/39/6
f 45/49/5 66/50/5 67/51/5 46/52/5
f 53/53/3 54/54/3 75/55/3 73/56/3
f 46/40/4 67/39/4 68/38/4 48/37/4
f 54/37/4 56/40/4 76/39/4 75/38/4
f 48/52/3 68/51/3 65/50/3 47/49/3
f 43/37/6 61/38/6 62/39/6 41/40/6
f 56/54/5 55/53/5 74/56/5 76/55/5
f 51/40/6 49/37/6 69/38/6 70/39/6
f 81/57/6 82/58/6 84/59/6 83/60/6
f 83/61/3 84/62/3 88/63/3 87/64/3
f 87/60/4 88/59/4 86/58/4 85/57/4
f 85/64/5 86/63/5 82/62/5 81/61/5
f 83/65/2 87/66/2 85/67/2 81/68/2
f 88/66/1 84/65/1 82/68/1 86/67/1
f 89/69/6 90/70/6 92/71/6 91/72/6
f 91/73/3 92/74/3 96/75/3 95/76/3
f 95/72/4 96/71/4 94/70/4 93/69/4
f 93/76/5 94/75/5 90/74/5 89/73/5
f 91/77/2 95/78/2 93/79/2 89/80/2
f 96/78/1 92/77/1 90/80/1 94/79/1
f 97/69/6 98/70/6 100/71/6 99/72/6
f 99/73/3 100/74/3 104/75/3 103/76/3
f 103/72/4 104/71/4 102/70/4 101/69/4
f 101/76/5 102/75/5 98/74/5 97/73/5
f 99/77/2 103/78/2 101/79/2 97/80/2
f 104/78/1 100/77/1 98/80/1 102/79/1
