# Blender 4.5.9 LTS
# www.blender.org
mtllib Tire.mtl
o Tire
v 0.000000 0.000000 -0.471114
v 0.235557 0.000000 -0.407997
v 0.407997 0.000000 -0.235557
v 0.471114 0.000000 0.000000
v 0.407997 0.000000 0.235557
v 0.235557 0.000000 0.407997
v 0.000000 0.000000 0.471114
v -0.235557 0.000000 0.407997
v -0.407997 0.000000 0.235557
v -0.471114 0.000000 0.000000
v -0.407997 0.000000 -0.235557
v -0.235557 0.000000 -0.407997
v 0.000000 0.104603 -0.275156
v 0.000000 0.075848 -0.471114
v 0.000000 0.132498 -0.407941
v 0.137578 0.104603 -0.238292
v 0.235557 0.075848 -0.407997
v 0.203971 0.132498 -0.353288
v 0.238292 0.104603 -0.137578
v 0.407997 0.075848 -0.235557
v 0.353288 0.132498 -0.203971
v 0.275156 0.104603 0.000000
v 0.471114 0.075848 0.000000
v 0.407941 0.132498 0.000000
v 0.238292 0.104603 0.137578
v 0.407997 0.075848 0.235557
v 0.353288 0.132498 0.203971
v 0.137578 0.104603 0.238292
v 0.235557 0.075848 0.407997
v 0.203971 0.132498 0.353288
v -0.000000 0.104603 0.275156
v 0.000000 0.075848 0.471114
v -0.000000 0.132498 0.407941
v -0.137578 0.104603 0.238292
v -0.235557 0.075848 0.407997
v -0.203971 0.132498 0.353288
v -0.238292 0.104603 0.137578
v -0.407997 0.075848 0.235557
v -0.353288 0.132498 0.203971
v -0.275156 0.104603 -0.000000
v -0.471114 0.075848 0.000000
v -0.407941 0.132498 -0.000000
v -0.238292 0.104603 -0.137578
v -0.407997 0.075848 -0.235557
v -0.353288 0.132498 -0.203971
v -0.137578 0.104603 -0.238292
v -0.235557 0.075848 -0.407997
v -0.203971 0.132498 -0.353288
v 0.000000 -0.104603 -0.275156
v 0.000000 -0.075848 -0.471114
v 0.000000 -0.132498 -0.407941
v 0.137578 -0.104603 -0.238292
v 0.235557 -0.075848 -0.407997
v 0.203971 -0.132498 -0.353288
v 0.238292 -0.104603 -0.137578
v 0.407997 -0.075848 -0.235557
v 0.353288 -0.132498 -0.203971
v 0.275156 -0.104603 0.000000
v 0.471114 -0.075848 0.000000
v 0.407941 -0.132498 0.000000
v 0.238292 -0.104603 0.137578
v 0.407997 -0.075848 0.235557
v 0.353288 -0.132498 0.203971
v 0.137578 -0.104603 0.238292
v 0.235557 -0.075848 0.407997
v 0.203971 -0.132498 0.353288
v -0.000000 -0.104603 0.275156
v 0.000000 -0.075848 0.471114
v -0.000000 -0.132498 0.407941
v -0.137578 -0.104603 0.238292
v -0.235557 -0.075848 0.407997
v -0.203971 -0.132498 0.353288
v -0.238292 -0.104603 0.137578
v -0.407997 -0.075848 0.235557
v -0.353288 -0.132498 0.203971
v -0.275156 -0.104603 -0.000000
v -0.471114 -0.075848 0.000000
v -0.407941 -0.132498 -0.000000
v -0.238292 -0.104603 -0.137578
v -0.407997 -0.075848 -0.235557
v -0.353288 -0.132498 -0.203971
v -0.137578 -0.104603 -0.238292
v -0.235557 -0.075848 -0.407997
v -0.203971 -0.132498 -0.353288
v 0.000000 0.000000 -0.441114
v 0.220557 0.000000 -0.382016
v 0.382016 0.000000 -0.220557
v 0.441114 0.000000 0.000000
v 0.382016 0.000000 0.220557
v 0.220557 0.000000 0.382016
v 0.000000 0.000000 0.441114
v -0.220557 0.000000 0.382016
v -0.382016 0.000000 0.220557
v -0.441114 0.000000 0.000000
v -0.382016 0.000000 -0.220557
v -0.220557 0.000000 -0.382016
v 0.000000 0.075244 -0.281323
v -0.000000 0.064311 -0.443421
v 0.000000 0.104140 -0.398153
v 0.140662 0.075244 -0.243633
v 0.221710 0.064311 -0.384014
v 0.199076 0.104140 -0.344810
v 0.243633 0.075244 -0.140662
v 0.384014 0.064311 -0.221710
v 0.344810 0.104140 -0.199076
v 0.281323 0.075244 0.000000
v 0.443421 0.064311 0.000000
v 0.398153 0.104140 0.000000
v 0.243633 0.075244 0.140662
v 0.384014 0.064311 0.221710
v 0.344810 0.104140 0.199076
v 0.140662 0.075244 0.243633
v 0.221710 0.064311 0.384014
v 0.199076 0.104140 0.344810
v -0.000000 0.075244 0.281323
v 0.000000 0.064311 0.443421
v -0.000000 0.104140 0.398153
v -0.140662 0.075244 0.243633
v -0.221710 0.064311 0.384014
v -0.199076 0.104140 0.344810
v -0.243633 0.075244 0.140662
v -0.384014 0.064311 0.221710
v -0.344810 0.104140 0.199076
v -0.281323 0.075244 -0.000000
v -0.443421 0.064311 -0.000000
v -0.398153 0.104140 -0.000000
v -0.243633 0.075244 -0.140662
v -0.384014 0.064311 -0.221710
v -0.344810 0.104140 -0.199076
v -0.140662 0.075244 -0.243633
v -0.221710 0.064311 -0.384014
v -0.199076 0.104140 -0.344810
v 0.000000 -0.075244 -0.281323
v 0.000000 -0.064311 -0.443421
v 0.000000 -0.104140 -0.398153
v 0.140662 -0.075244 -0.243633
v 0.221710 -0.064311 -0.384014
v 0.199076 -0.104140 -0.344810
v 0.243633 -0.075244 -0.140662
v 0.384014 -0.064311 -0.221710
v 0.344810 -0.104140 -0.199076
v 0.281323 -0.075244 0.000000
v 0.443421 -0.064311 0.000000
v 0.398153 -0.104140 0.000000
v 0.243633 -0.075244 0.140662
v 0.384014 -0.064311 0.221710
v 0.344810 -0.104140 0.199076
v 0.140662 -0.075244 0.243633
v 0.221710 -0.064311 0.384014
v 0.199076 -0.104140 0.344810
v -0.000000 -0.075244 0.281323
v 0.000000 -0.064311 0.443421
v -0.000000 -0.104140 0.398153
v -0.140662 -0.075244 0.243633
v -0.221710 -0.064311 0.384014
v -0.199076 -0.104140 0.344810
v -0.243633 -0.075244 0.140662
v -0.384014 -0.064311 0.221710
v -0.344810 -0.104140 0.199076
v -0.281323 -0.075244 -0.000000
v -0.443421 -0.064311 -0.000000
v -0.398153 -0.104140 -0.000000
v -0.243633 -0.075244 -0.140662
v -0.384014 -0.064311 -0.221710
v -0.344810 -0.104140 -0.199076
v -0.140662 -0.075244 -0.243633
v -0.221710 -0.064311 -0.384014
v -0.199076 -0.104140 -0.344810
vn -0.0000 -0.0000 -1.0000
vn 0.5000 -0.0000 -0.8660
vn 0.8660 -0.0000 -0.5000
vn 1.0000 -0.0000 -0.0000
vn 0.8660 -0.0000 0.5000
vn 0.5000 -0.0000 0.8660
vn -0.0000 -0.0000 1.0000
vn -0.5000 -0.0000 0.8660
vn -0.8660 -0.0000 0.5000
vn -1.0000 -0.0000 -0.0000
vn -0.8660 -0.0000 -0.5000
vn -0.5000 -0.0000 -0.8660
vn -0.0000 0.6074 0.7944
vn -0.0000 0.3846 -0.9231
vn -0.0000 0.9453 -0.3263
vn -0.3972 0.6074 0.6880
vn 0.4615 0.3846 -0.7994
vn 0.1631 0.9453 -0.2826
vn -0.6880 0.6074 0.3972
vn 0.7994 0.3846 -0.4615
vn 0.2826 0.9453 -0.1631
vn -0.7944 0.6074 -0.0000
vn 0.9231 0.3846 -0.0000
vn 0.3263 0.9453 -0.0000
vn -0.6880 0.6074 -0.3972
vn 0.7994 0.3846 0.4615
vn 0.2826 0.9453 0.1631
vn -0.3972 0.6074 -0.6880
vn 0.4615 0.3846 0.7994
vn 0.1631 0.9453 0.2826
vn -0.0000 0.6074 -0.7944
vn -0.0000 0.3846 0.9231
vn -0.0000 0.9453 0.3263
vn 0.3972 0.6074 -0.6880
vn -0.4615 0.3846 0.7994
vn -0.1631 0.9453 0.2826
vn 0.6880 0.6074 -0.3972
vn -0.7994 0.3846 0.4615
vn -0.2826 0.9453 0.1631
vn 0.7944 0.6074 -0.0000
vn -0.9231 0.3846 -0.0000
vn -0.3263 0.9453 -0.0000
vn 0.6880 0.6074 0.3972
vn -0.7994 0.3846 -0.4615
vn -0.2826 0.9453 -0.1631
vn 0.3972 0.6074 0.6880
vn -0.4615 0.3846 -0.7994
vn -0.1631 0.9453 -0.2826
vn -0.0000 -0.6074 0.7944
vn -0.0000 -0.3846 -0.9231
vn -0.0000 -0.9453 -0.3263
vn -0.3972 -0.6074 0.6880
vn 0.4615 -0.3846 -0.7994
vn 0.1631 -0.9453 -0.2826
vn -0.6880 -0.6074 0.3972
vn 0.7994 -0.3846 -0.4615
vn 0.2826 -0.9453 -0.1631
vn -0.7944 -0.6074 -0.0000
vn 0.9231 -0.3846 -0.0000
vn 0.3263 -0.9453 -0.0000
vn -0.6880 -0.6074 -0.3972
vn 0.7994 -0.3846 0.4615
vn 0.2826 -0.9453 0.1631
vn -0.3972 -0.6074 -0.6880
vn 0.4615 -0.3846 0.7994
vn 0.1631 -0.9453 0.2826
vn -0.0000 -0.6074 -0.7944
vn -0.0000 -0.3846 0.9231
vn -0.0000 -0.9453 0.3263
vn 0.3972 -0.6074 -0.6880
vn -0.4615 -0.3846 0.7994
vn -0.1631 -0.9453 0.2826
vn 0.6880 -0.6074 -0.3972
vn -0.7994 -0.3846 0.4615
vn -0.2826 -0.9453 0.1631
vn 0.7944 -0.6074 -0.0000
vn -0.9231 -0.3846 -0.0000
vn -0.3263 -0.9453 -0.0000
vn 0.6880 -0.6074 0.3972
vn -0.7994 -0.3846 -0.4615
vn -0.2826 -0.9453 -0.1631
vn 0.3972 -0.6074 0.6880
vn -0.4615 -0.3846 -0.7994
vn -0.1631 -0.9453 -0.2826
vn -0.0000 -0.9005 0.4349
vn -0.0000 -0.3720 0.9282
vn -0.0000 -0.9516 0.3072
vn -0.2174 -0.9005 0.3766
vn -0.4641 -0.3720 0.8039
vn -0.1536 -0.9516 0.2661
vn -0.3766 -0.9005 0.2174
vn -0.8039 -0.3720 0.4641
vn -0.2661 -0.9516 0.1536
vn -0.4349 -0.9005 -0.0000
vn -0.9282 -0.3720 -0.0000
vn -0.3072 -0.9516 -0.0000
vn -0.3766 -0.9005 -0.2174
vn -0.8039 -0.3720 -0.4641
vn -0.2661 -0.9516 -0.1536
vn -0.2174 -0.9005 -0.3766
vn -0.4641 -0.3720 -0.8039
vn -0.1536 -0.9516 -0.2661
vn -0.0000 -0.9005 -0.4349
vn -0.0000 -0.3720 -0.9282
vn -0.0000 -0.9516 -0.3072
vn 0.2174 -0.9005 -0.3766
vn 0.4641 -0.3720 -0.8039
vn 0.1536 -0.9516 -0.2661
vn 0.3766 -0.9005 -0.2174
vn 0.8039 -0.3720 -0.4641
vn 0.2661 -0.9516 -0.1536
vn 0.4349 -0.9005 -0.0000
vn 0.9282 -0.3720 -0.0000
vn 0.3072 -0.9516 -0.0000
vn 0.3766 -0.9005 0.2174
vn 0.8039 -0.3720 0.4641
vn 0.2661 -0.9516 0.1536
vn 0.2174 -0.9005 0.3766
vn 0.4641 -0.3720 0.8039
vn 0.1536 -0.9516 0.2661
vn -0.0000 0.9005 0.4349
vn -0.0000 0.3720 0.9282
vn -0.0000 0.9516 0.3072
vn -0.2174 0.9005 0.3766
vn -0.4641 0.3720 0.8039
vn -0.1536 0.9516 0.2661
vn -0.3766 0.9005 0.2174
vn -0.8039 0.3720 0.4641
vn -0.2661 0.9516 0.1536
vn -0.4349 0.9005 -0.0000
vn -0.9282 0.3720 -0.0000
vn -0.3072 0.9516 -0.0000
vn -0.3766 0.9005 -0.2174
vn -0.8039 0.3720 -0.4641
vn -0.2661 0.9516 -0.1536
vn -0.2174 0.9005 -0.3766
vn -0.4641 0.3720 -0.8039
vn -0.1536 0.9516 -0.2661
vn -0.0000 0.9005 -0.4349
vn -0.0000 0.3720 -0.9282
vn -0.0000 0.9516 -0.3072
vn 0.2174 0.9005 -0.3766
vn 0.4641 0.3720 -0.8039
vn 0.1536 0.9516 -0.2661
vn 0.3766 0.9005 -0.2174
vn 0.8039 0.3720 -0.4641
vn 0.2661 0.9516 -0.1536
vn 0.4349 0.9005 -0.0000
vn 0.9282 0.3720 -0.0000
vn 0.3072 0.9516 -0.0000
vn 0.3766 0.9005 0.2174
vn 0.8039 0.3720 0.4641
vn 0.2661 0.9516 0.1536
vn 0.2174 0.9005 0.3766
vn 0.4641 0.3720 0.8039
vn 0.1536 0.9516 0.2661
vt 0.746621 0.562467
vt 0.770275 0.562467
vt 0.770275 0.489007
vt 0.746621 0.489007
vt 0.498427 0.716857
vt 0.522080 0.716857
vt 0.522080 0.790317
vt 0.498427 0.790317
vt 0.522080 0.863777
vt 0.498427 0.863777
vt 0.783644 0.361771
vt 0.807297 0.361771
vt 0.807297 0.415547
vt 0.783644 0.415547
vt 0.807297 0.489007
vt 0.783644 0.489007
vt 0.807297 0.562467
vt 0.783644 0.562467
vt 0.807297 0.616243
vt 0.783644 0.616243
vt 0.094339 0.738732
vt 0.117993 0.738732
vt 0.117993 0.665273
vt 0.094339 0.665273
vt 0.117993 0.591813
vt 0.094339 0.591813
vt 0.746621 0.616243
vt 0.770275 0.616243
vt 0.770275 0.415547
vt 0.746621 0.415547
vt 0.770275 0.361771
vt 0.746621 0.361771
vt 0.993316 0.186624
vt 0.955290 0.252486
vt 0.941359 0.238555
vt 0.974286 0.181525
vt 0.912078 0.209274
vt 0.934287 0.170807
vt 0.993316 0.110572
vt 0.974286 0.115671
vt 0.934287 0.126389
vt 0.955290 0.044710
vt 0.941359 0.058641
vt 0.912078 0.087922
vt 0.889428 0.006684
vt 0.884329 0.025714
vt 0.873611 0.065713
vt 0.813376 0.006684
vt 0.818475 0.025714
vt 0.829193 0.065713
vt 0.747514 0.044710
vt 0.761445 0.058641
vt 0.790726 0.087922
vt 0.709488 0.110572
vt 0.728518 0.115671
vt 0.768517 0.126389
vt 0.709488 0.186624
vt 0.728518 0.181525
vt 0.768517 0.170807
vt 0.747514 0.252486
vt 0.761445 0.238555
vt 0.790726 0.209274
vt 0.813376 0.290511
vt 0.818475 0.271482
vt 0.829193 0.231483
vt 0.889428 0.290511
vt 0.884329 0.271482
vt 0.873611 0.231483
s 1
usemtl Trash_01
f 12/1/12 47/2/47 14/3/14 1/4/1
f 3/5/3 20/6/20 23/7/23 4/8/4
f 4/8/4 23/7/23 26/9/26 5/10/5
f 5/11/5 26/12/26 29/13/29 6/14/6
f 6/14/6 29/13/29 32/15/32 7/16/7
f 7/16/7 32/15/32 35/17/35 8/18/8
f 8/18/8 35/17/35 38/19/38 9/20/9
f 9/21/9 38/22/38 41/23/41 10/24/10
f 10/24/10 41/23/41 44/25/44 11/26/11
f 11/27/11 44/28/44 47/2/47 12/1/12
f 1/4/1 14/3/14 17/29/17 2/30/2
f 2/30/2 17/29/17 20/31/20 3/32/3
f 17/33/17 14/34/14 15/35/15 18/36/18
f 18/36/18 15/35/15 13/37/13 16/38/16
f 20/39/20 17/33/17 18/36/18 21/40/21
f 21/40/21 18/36/18 16/38/16 19/41/19
f 23/42/23 20/39/20 21/40/21 24/43/24
f 24/43/24 21/40/21 19/41/19 22/44/22
f 26/45/26 23/42/23 24/43/24 27/46/27
f 27/46/27 24/43/24 22/44/22 25/47/25
f 29/48/29 26/45/26 27/46/27 30/49/30
f 30/49/30 27/46/27 25/47/25 28/50/28
f 32/51/32 29/48/29 30/49/30 33/52/33
f 33/52/33 30/49/30 28/50/28 31/53/31
f 35/54/35 32/51/32 33/52/33 36/55/36
f 36/55/36 33/52/33 31/53/31 34/56/34
f 38/57/38 35/54/35 36/55/36 39/58/39
f 39/58/39 36/55/36 34/56/34 37/59/37
f 41/60/41 38/57/38 39/58/39 42/61/42
f 42/61/42 39/58/39 37/59/37 40/62/40
f 44/63/44 41/60/41 42/61/42 45/64/45
f 45/64/45 42/61/42 40/62/40 43/65/43
f 47/66/47 44/63/44 45/64/45 48/67/48
f 48/67/48 45/64/45 43/65/43 46/68/46
f 14/34/14 47/66/47 48/67/48 15/35/15
f 15/35/15 48/67/48 46/68/46 13/37/13
f 12/1/12 1/4/1 50/3/50 83/2/83
f 3/5/3 4/8/4 59/7/59 56/6/56
f 4/8/4 5/10/5 62/9/62 59/7/59
f 5/11/5 6/14/6 65/13/65 62/12/62
f 6/14/6 7/16/7 68/15/68 65/13/65
f 7/16/7 8/18/8 71/17/71 68/15/68
f 8/18/8 9/20/9 74/19/74 71/17/71
f 9/21/9 10/24/10 77/23/77 74/22/74
f 10/24/10 11/26/11 80/25/80 77/23/77
f 11/27/11 12/1/12 83/2/83 80/28/80
f 1/4/1 2/30/2 53/29/53 50/3/50
f 2/30/2 3/32/3 56/31/56 53/29/53
f 53/33/53 54/36/54 51/35/51 50/34/50
f 54/36/54 52/38/52 49/37/49 51/35/51
f 56/39/56 57/40/57 54/36/54 53/33/53
f 57/40/57 55/41/55 52/38/52 54/36/54
f 59/42/59 60/43/60 57/40/57 56/39/56
f 60/43/60 58/44/58 55/41/55 57/40/57
f 62/45/62 63/46/63 60/43/60 59/42/59
f 63/46/63 61/47/61 58/44/58 60/43/60
f 65/48/65 66/49/66 63/46/63 62/45/62
f 66/49/66 64/50/64 61/47/61 63/46/63
f 68/51/68 69/52/69 66/49/66 65/48/65
f 69/52/69 67/53/67 64/50/64 66/49/66
f 71/54/71 72/55/72 69/52/69 68/51/68
f 72/55/72 70/56/70 67/53/67 69/52/69
f 74/57/74 75/58/75 72/55/72 71/54/71
f 75/58/75 73/59/73 70/56/70 72/55/72
f 77/60/77 78/61/78 75/58/75 74/57/74
f 78/61/78 76/62/76 73/59/73 75/58/75
f 80/63/80 81/64/81 78/61/78 77/60/77
f 81/64/81 79/65/79 76/62/76 78/61/78
f 83/66/83 84/67/84 81/64/81 80/63/80
f 84/67/84 82/68/82 79/65/79 81/64/81
f 50/34/50 51/35/51 84/67/84 83/66/83
f 51/35/51 49/37/49 82/68/82 84/67/84
f 96/1/6 85/4/7 98/3/86 131/2/119
f 87/5/9 88/8/10 107/7/95 104/6/92
f 88/8/10 89/10/11 110/9/98 107/7/95
f 89/11/11 90/14/12 113/13/101 110/12/98
f 90/14/12 91/16/1 116/15/104 113/13/101
f 91/16/1 92/18/2 119/17/107 116/15/104
f 92/18/2 93/20/3 122/19/110 119/17/107
f 93/21/3 94/24/4 125/23/113 122/22/110
f 94/24/4 95/26/5 128/25/116 125/23/113
f 95/27/5 96/1/6 131/2/119 128/28/116
f 85/4/7 86/30/8 101/29/89 98/3/86
f 86/30/8 87/32/9 104/31/92 101/29/89
f 101/33/89 102/36/90 99/35/87 98/34/86
f 102/36/90 100/38/88 97/37/85 99/35/87
f 104/39/92 105/40/93 102/36/90 101/33/89
f 105/40/93 103/41/91 100/38/88 102/36/90
f 107/42/95 108/43/96 105/40/93 104/39/92
f 108/43/96 106/44/94 103/41/91 105/40/93
f 110/45/98 111/46/99 108/43/96 107/42/95
f 111/46/99 109/47/97 106/44/94 108/43/96
f 113/48/101 114/49/102 111/46/99 110/45/98
f 114/49/102 112/50/100 109/47/97 111/46/99
f 116/51/104 117/52/105 114/49/102 113/48/101
f 117/52/105 115/53/103 112/50/100 114/49/102
f 119/54/107 120/55/108 117/52/105 116/51/104
f 120/55/108 118/56/106 115/53/103 117/52/105
f 122/57/110 123/58/111 120/55/108 119/54/107
f 123/58/111 121/59/109 118/56/106 120/55/108
f 125/60/113 126/61/114 123/58/111 122/57/110
f 126/61/114 124/62/112 121/59/109 123/58/111
f 128/63/116 129/64/117 126/61/114 125/60/113
f 129/64/117 127/65/115 124/62/112 126/61/114
f 131/66/119 132/67/120 129/64/117 128/63/116
f 132/67/120 130/68/118 127/65/115 129/64/117
f 98/34/86 99/35/87 132/67/120 131/66/119
f 99/35/87 97/37/85 130/68/118 132/67/120
f 96/1/6 167/2/155 134/3/122 85/4/7
f 87/5/9 140/6/128 143/7/131 88/8/10
f 88/8/10 143/7/131 146/9/134 89/10/11
f 89/11/11 146/12/134 149/13/137 90/14/12
f 90/14/12 149/13/137 152/15/140 91/16/1
f 91/16/1 152/15/140 155/17/143 92/18/2
f 92/18/2 155/17/143 158/19/146 93/20/3
f 93/21/3 158/22/146 161/23/149 94/24/4
f 94/24/4 161/23/149 164/25/152 95/26/5
f 95/27/5 164/28/152 167/2/155 96/1/6
f 85/4/7 134/3/122 137/29/125 86/30/8
f 86/30/8 137/29/125 140/31/128 87/32/9
f 137/33/125 134/34/122 135/35/123 138/36/126
f 138/36/126 135/35/123 133/37/121 136/38/124
f 140/39/128 137/33/125 138/36/126 141/40/129
f 141/40/129 138/36/126 136/38/124 139/41/127
f 143/42/131 140/39/128 141/40/129 144/43/132
f 144/43/132 141/40/129 139/41/127 142/44/130
f 146/45/134 143/42/131 144/43/132 147/46/135
f 147/46/135 144/43/132 142/44/130 145/47/133
f 149/48/137 146/45/134 147/46/135 150/49/138
f 150/49/138 147/46/135 145/47/133 148/50/136
f 152/51/140 149/48/137 150/49/138 153/52/141
f 153/52/141 150/49/138 148/50/136 151/53/139
f 155/54/143 152/51/140 153/52/141 156/55/144
f 156/55/144 153/52/141 151/53/139 154/56/142
f 158/57/146 155/54/143 156/55/144 159/58/147
f 159/58/147 156/55/144 154/56/142 157/59/145
f 161/60/149 158/57/146 159/58/147 162/61/150
f 162/61/150 159/58/147 157/59/145 160/62/148
f 164/63/152 161/60/149 162/61/150 165/64/153
f 165/64/153 162/61/150 160/62/148 163/65/151
f 167/66/155 164/63/152 165/64/153 168/67/156
f 168/67/156 165/64/153 163/65/151 166/68/154
f 134/34/122 167/66/155 168/67/156 135/35/123
f 135/35/123 168/67/156 166/68/154 133/37/121
f 16/38/16 13/37/13 97/37/85 100/38/88
f 19/41/19 16/38/16 100/38/88 103/41/91
f 22/44/22 19/41/19 103/41/91 106/44/94
f 25/47/25 22/44/22 106/44/94 109/47/97
f 28/50/28 25/47/25 109/47/97 112/50/100
f 31/53/31 28/50/28 112/50/100 115/53/103
f 34/56/34 31/53/31 115/53/103 118/56/106
f 37/59/37 34/56/34 118/56/106 121/59/109
f 40/62/40 37/59/37 121/59/109 124/62/112
f 43/65/43 40/62/40 124/62/112 127/65/115
f 46/68/46 43/65/43 127/65/115 130/68/118
f 13/37/13 46/68/46 130/68/118 97/37/85
f 49/37/49 52/38/52 136/38/124 133/37/121
f 52/38/52 55/41/55 139/41/127 136/38/124
f 55/41/55 58/44/58 142/44/130 139/41/127
f 58/44/58 61/47/61 145/47/133 142/44/130
f 61/47/61 64/50/64 148/50/136 145/47/133
f 64/50/64 67/53/67 151/53/139 148/50/136
f 67/53/67 70/56/70 154/56/142 151/53/139
f 70/56/70 73/59/73 157/59/145 154/56/142
f 73/59/73 76/62/76 160/62/148 157/59/145
f 76/62/76 79/65/79 163/65/151 160/62/148
f 79/65/79 82/68/82 166/68/154 163/65/151
f 82/68/82 49/37/49 133/37/121 166/68/154
