# Blender 4.5.9 LTS
# www.blender.org
mtllib Trash_005.mtl
o Trash_005
v -0.131341 0.034266 0.130141
v -0.131341 0.063695 0.099165
v 0.131341 0.039744 0.129934
v 0.131341 0.062476 0.099161
v -0.131341 0.066552 -0.104081
v -0.131341 0.032755 -0.132671
v 0.131341 0.051802 -0.095866
v 0.131341 0.026901 -0.128800
v -0.131341 -0.078955 0.104549
v -0.131341 -0.053854 0.133467
v 0.131341 -0.080464 0.104557
v 0.131341 -0.049030 0.133285
v -0.131341 -0.059369 -0.129193
v -0.131341 -0.083735 -0.098408
v 0.131341 -0.061303 -0.128737
v 0.131341 -0.088961 -0.097500
v 0.268017 0.025677 0.013610
v 0.268017 0.009563 0.031873
v 0.268017 0.007741 -0.029978
v 0.268017 0.021336 -0.009583
v 0.268017 -0.036193 -0.010238
v 0.268017 -0.015981 -0.028710
v 0.268017 -0.014562 0.031764
v 0.268017 -0.032054 0.013673
v 0.202282 -0.049553 -0.098568
v 0.202282 -0.072142 -0.067932
v 0.202282 -0.039641 0.103968
v 0.202282 -0.065608 0.073422
v 0.202282 0.032165 0.101585
v 0.202282 0.055265 0.069729
v 0.202282 0.014491 -0.097743
v 0.202282 0.042863 -0.064954
v 0.306855 -0.017410 -0.027901
v 0.306855 -0.030625 -0.011737
v 0.306855 -0.031380 0.014006
v 0.306855 -0.013050 0.031143
v 0.306855 0.011565 0.030814
v 0.306855 0.029463 0.012216
v 0.306855 0.028660 -0.012852
v 0.306855 0.009159 -0.029476
v -0.161093 0.070436 0.092030
v -0.161093 0.048118 0.120714
v -0.161093 0.033575 -0.123798
v -0.161093 0.064388 -0.097119
v -0.161093 -0.079921 -0.091672
v -0.161093 -0.055193 -0.120447
v -0.161093 -0.050355 0.124431
v -0.161093 -0.075079 0.097522
v -0.014971 0.032675 0.129530
v -0.009391 0.036679 0.100195
v 0.022481 -0.014424 -0.127708
v 0.019544 0.000845 -0.099292
v 0.012442 -0.090858 -0.098150
v 0.018022 -0.071465 -0.128064
v -0.019431 -0.063236 0.131799
v -0.016493 -0.090673 0.102851
vn -0.0032 -0.3985 0.9171
vn 0.2105 -0.3456 0.9145
vn 0.1565 0.5092 0.8463
vn 0.0077 0.5300 0.8480
vn 0.5755 -0.3508 -0.7387
vn 0.5517 0.3513 -0.7564
vn 0.4013 0.4062 -0.8210
vn 0.4610 -0.3623 -0.8101
vn 0.4746 -0.8144 0.3338
vn 0.4838 -0.8324 -0.2702
vn 0.3791 -0.8949 -0.2353
vn 0.3541 -0.8759 0.3277
vn 0.3782 0.8616 -0.3386
vn 0.3994 0.8823 0.2493
vn 0.2388 0.9448 0.2244
vn 0.1799 0.9236 -0.3385
vn 0.0175 0.9823 0.1865
vn 0.0173 0.9714 0.2369
vn -0.0158 0.9260 -0.3772
vn -0.0050 0.9222 -0.3868
vn 0.0605 -0.9296 -0.3635
vn 0.0550 -0.9056 0.4205
vn 0.5441 0.3939 0.7408
vn 0.5688 -0.3150 0.7597
vn 0.4664 -0.3526 0.8113
vn 0.4436 0.3885 0.8077
vn -0.0123 0.3670 -0.9301
vn 0.0957 0.4877 -0.8678
vn 0.2170 -0.4111 -0.8854
vn 0.0023 -0.4717 -0.8818
vn -0.0091 -0.9523 -0.3050
vn 0.1881 -0.9246 -0.3312
vn 0.1903 -0.8877 0.4192
vn -0.0114 -0.9282 0.3720
vn -0.0388 0.3912 -0.9195
vn 0.1173 0.9081 -0.4021
vn -0.1374 -0.9340 -0.3298
vn -0.1542 -0.4384 -0.8855
vn -0.1581 -0.3752 0.9134
vn -0.1411 -0.9134 0.3817
vn -0.2013 -0.9244 0.3239
vn -0.2003 -0.9382 -0.2823
vn 1.0000 -0.0000 -0.0000
vn 0.0265 -0.4252 -0.9047
vn -0.0517 0.3908 -0.9190
vn 0.0237 -0.3698 0.9288
vn -0.0075 0.4167 0.9090
vn -0.1334 0.9059 -0.4019
vn -0.1016 0.9494 0.2972
vn -1.0000 -0.0000 -0.0000
vn 0.1552 0.9370 0.3131
vn -0.0592 0.9247 -0.3761
vn 0.0827 0.9560 0.2814
vn -0.2638 0.3444 -0.9010
vn -0.0565 0.4198 0.9058
vn -0.0566 0.5456 0.8361
vn -0.3009 -0.3765 0.8762
vn -0.2972 -0.4253 -0.8549
vt 0.360513 0.712975
vt 0.407066 0.718744
vt 0.406246 0.746251
vt 0.361008 0.742718
vt 0.345521 0.982244
vt 0.325681 0.982244
vt 0.327502 0.961228
vt 0.334844 0.960740
vt 0.612719 0.520476
vt 0.568887 0.520476
vt 0.587166 0.500113
vt 0.594616 0.500113
vt 0.635876 0.125467
vt 0.594040 0.125467
vt 0.611758 0.145830
vt 0.618988 0.145830
vt 0.584827 0.059898
vt 0.584845 0.103492
vt 0.645340 0.103492
vt 0.646996 0.068861
vt 0.586767 0.488082
vt 0.594727 0.488082
vt 0.191346 0.958642
vt 0.191346 0.980897
vt 0.169250 0.972391
vt 0.169531 0.964923
vt 0.725355 0.385270
vt 0.709862 0.417844
vt 0.737077 0.420054
vt 0.743061 0.385322
vt 0.559314 0.579282
vt 0.559537 0.542451
vt 0.622183 0.542451
vt 0.621535 0.588245
vt 0.575793 0.058169
vt 0.575585 0.103492
vt 0.655971 0.069771
vt 0.656956 0.022122
vt 0.647711 0.022122
vt 0.559317 0.623821
vt 0.550073 0.623821
vt 0.550281 0.577553
vt 0.630817 0.589155
vt 0.631443 0.623821
vt 0.622198 0.623821
vt 0.341031 0.954938
vt 0.352396 0.972665
vt 0.622478 0.520476
vt 0.631443 0.542451
vt 0.164043 0.959746
vt 0.181721 0.951162
vt 0.646357 0.125467
vt 0.655826 0.103492
vt 0.620068 0.633037
vt 0.561447 0.633037
vt 0.625460 0.145830
vt 0.584449 0.125467
vt 0.181622 0.988623
vt 0.163469 0.977620
vt 0.550191 0.542451
vt 0.559667 0.520476
vt 0.428935 0.722646
vt 0.428272 0.744892
vt 0.712274 0.440087
vt 0.732024 0.441691
vt 0.045644 0.599211
vt 0.040692 0.595051
vt 0.040314 0.586815
vt 0.045544 0.580844
vt 0.053312 0.580699
vt 0.058998 0.586319
vt 0.058998 0.593945
vt 0.053615 0.599552
vt 0.334856 0.577228
vt 0.334856 0.570756
vt 0.322825 0.571207
vt 0.322825 0.575487
vt 0.334856 0.563398
vt 0.322825 0.562965
vt 0.282748 0.192056
vt 0.290209 0.191762
vt 0.290209 0.203802
vt 0.282591 0.204103
vt 0.619914 0.157861
vt 0.625288 0.157861
vt 0.612145 0.157861
vt 0.606293 0.145830
vt 0.606597 0.157861
vt 0.600420 0.500113
vt 0.600245 0.488082
vt 0.371071 0.511259
vt 0.380347 0.519824
vt 0.407864 0.519665
vt 0.415805 0.511001
vt 0.416178 0.452377
vt 0.408790 0.443801
vt 0.378265 0.443977
vt 0.371071 0.452637
vt 0.584830 0.022122
vt 0.645581 0.012905
vt 0.586960 0.012905
vt 0.704503 0.335770
vt 0.714598 0.336590
vt 0.715194 0.327392
vt 0.705998 0.326645
vt 0.575585 0.022122
vt 0.578342 0.012905
vt 0.325776 0.714825
vt 0.324962 0.742129
vt 0.315619 0.746251
vt 0.316529 0.715739
vt 0.743061 0.338902
vt 0.742621 0.329619
vt 0.628687 0.633037
vt 0.552829 0.633037
s 1
usemtl Trash
f 55/1/1 12/2/2 3/3/3 49/4/4
f 25/5/5 31/6/6 19/7/7 22/8/8
f 28/9/9 26/10/10 21/11/11 24/12/12
f 32/13/13 30/14/14 17/15/15 20/16/16
f 50/17/17 4/18/18 7/19/19 52/20/20
f 24/12/12 21/11/11 34/21/21 35/22/22
f 29/23/23 27/24/24 23/25/25 18/26/26
f 51/27/27 8/28/28 15/29/29 54/30/30
f 53/31/31 16/32/32 11/33/33 56/34/34
f 49/35/4 3/36/3 4/18/18 50/17/17
f 51/37/27 6/38/35 5/39/36 52/20/20
f 53/31/31 14/40/37 13/41/38 54/42/30
f 55/43/1 10/44/39 9/45/40 56/34/34
f 25/5/5 22/8/8 21/46/11 26/47/10
f 27/48/24 12/49/2 11/33/33 28/9/9
f 29/23/23 18/26/26 17/50/15 30/51/14
f 31/52/6 8/53/28 7/19/19 32/13/13
f 14/40/37 9/45/40 48/54/41 45/55/42
f 19/56/7 31/52/6 32/13/13 20/16/16
f 3/36/3 29/57/23 30/14/14 4/18/18
f 23/25/25 27/24/24 28/58/9 24/59/12
f 15/60/29 25/61/5 26/10/10 16/32/32
f 3/3/3 12/2/2 27/62/24 29/63/23
f 7/19/19 4/18/18 30/14/14 32/13/13
f 11/33/33 16/32/32 26/10/10 28/9/9
f 15/29/29 8/28/28 31/64/6 25/65/5
f 34/66/43 33/67/43 40/68/43 39/69/43 38/70/43 37/71/43 36/72/43 35/73/43
f 21/74/11 22/75/8 33/76/44 34/77/21
f 22/75/8 19/78/7 40/79/45 33/76/44
f 18/80/26 23/81/25 36/82/46 37/83/47
f 19/56/7 20/16/16 39/84/48 40/85/45
f 20/16/16 17/15/15 38/86/49 39/84/48
f 17/15/15 18/87/26 37/88/47 38/86/49
f 23/89/25 24/12/12 35/22/22 36/90/46
f 44/91/50 43/92/50 46/93/50 45/94/50 48/95/50 47/96/50 42/97/50 41/98/50
f 2/99/51 5/39/36 44/100/52 41/101/53
f 5/102/36 6/103/35 43/104/54 44/105/52
f 1/106/55 2/99/51 41/101/53 42/107/56
f 10/108/39 1/109/55 42/110/56 47/111/57
f 6/103/35 13/112/38 46/113/58 43/104/54
f 9/45/40 10/44/39 47/114/57 48/54/41
f 13/41/38 14/40/37 45/55/42 46/115/58
f 12/49/2 55/43/1 56/34/34 11/33/33
f 16/32/32 53/31/31 54/42/30 15/60/29
f 8/53/28 51/37/27 52/20/20 7/19/19
f 1/106/55 49/35/4 50/17/17 2/99/51
f 14/40/37 53/31/31 56/34/34 9/45/40
f 6/103/35 51/27/27 54/30/30 13/112/38
f 2/99/51 50/17/17 52/20/20 5/39/36
f 10/108/39 55/1/1 49/4/4 1/109/55
