# Blender 4.5.9 LTS
# www.blender.org
mtllib Trash_001.mtl
o Trash_001
v -0.062656 -0.033061 0.084593
v -0.084593 -0.033061 0.062656
v -0.101758 0.027356 0.079820
v -0.079820 0.027356 0.101758
v -0.084593 -0.033061 -0.062656
v -0.062656 -0.033061 -0.084593
v -0.079820 0.027356 -0.101758
v -0.101758 0.027356 -0.079820
v 0.084593 -0.033061 0.062656
v 0.062656 -0.033061 0.084593
v 0.079820 0.027356 0.101758
v 0.101758 0.027356 0.079820
v 0.062656 -0.033061 -0.084593
v 0.084593 -0.033061 -0.062656
v 0.101758 0.027356 -0.079820
v 0.079820 0.027356 -0.101758
v 0.170982 0.007677 0.084593
v 0.154481 -0.006778 0.062656
v 0.101758 0.027356 0.079820
v 0.118259 0.041811 0.101758
v 0.154481 -0.006778 -0.062656
v 0.170982 0.007677 -0.084593
v 0.118259 0.041811 -0.101758
v 0.101758 0.027356 -0.079820
v 0.281740 0.104708 0.062656
v 0.265239 0.090252 0.084593
v 0.238337 0.147007 0.101758
v 0.254838 0.161463 0.079820
v 0.265239 0.090252 -0.084593
v 0.281740 0.104708 -0.062656
v 0.254838 0.161463 -0.079820
v 0.238337 0.147007 -0.101758
v 0.269746 0.177074 0.046330
v 0.269746 0.177074 -0.046330
v -0.062656 -0.033061 0.084593
v -0.084593 -0.033061 0.062656
v -0.101758 0.027356 0.079820
v -0.079820 0.027356 0.101758
v -0.084593 -0.033061 -0.062656
v -0.062656 -0.033061 -0.084593
v -0.079820 0.027356 -0.101758
v -0.101758 0.027356 -0.079820
v 0.084593 -0.033061 0.062656
v 0.062656 -0.033061 0.084593
v 0.079820 0.027356 0.101758
v 0.101758 0.027356 0.079820
v 0.062656 -0.033061 -0.084593
v 0.084593 -0.033061 -0.062656
v 0.101758 0.027356 -0.079820
v 0.079820 0.027356 -0.101758
v 0.170982 0.007677 0.084593
v 0.154481 -0.006778 0.062656
v 0.101758 0.027356 0.079820
v 0.118259 0.041811 0.101758
v 0.154481 -0.006778 -0.062656
v 0.170982 0.007677 -0.084593
v 0.118259 0.041811 -0.101758
v 0.101758 0.027356 -0.079820
v 0.281740 0.104708 0.062656
v 0.265239 0.090252 0.084593
v 0.238337 0.147007 0.101758
v 0.254838 0.161463 0.079820
v 0.265239 0.090252 -0.084593
v 0.281740 0.104708 -0.062656
v 0.254838 0.161463 -0.079820
v 0.238337 0.147007 -0.101758
v 0.269746 0.177074 0.046330
v 0.269746 0.177074 -0.046330
v -0.061116 -0.027915 0.080412
v -0.080412 -0.027915 0.061116
v -0.095949 0.029750 0.077200
v -0.077200 0.029750 0.095949
v -0.080412 -0.027915 -0.061116
v -0.061116 -0.027915 -0.080412
v -0.077200 0.029750 -0.095949
v -0.095949 0.029750 -0.077200
v 0.080412 -0.027915 0.061116
v 0.061116 -0.027915 0.080412
v 0.077200 0.029750 0.095949
v 0.095949 0.029750 0.077200
v 0.061116 -0.027915 -0.080412
v 0.080412 -0.027915 -0.061116
v 0.095949 0.029750 -0.077200
v 0.077200 0.029750 -0.095949
v 0.168749 0.012563 0.080412
v 0.154235 -0.000152 0.061116
v 0.104549 0.032985 0.077200
v 0.118651 0.045339 0.095949
v 0.154235 -0.000152 -0.061116
v 0.168749 0.012563 -0.080412
v 0.118651 0.045339 -0.095949
v 0.104549 0.032985 -0.077200
v 0.275203 0.105823 0.061116
v 0.260689 0.093108 0.080412
v 0.234789 0.147082 0.095949
v 0.248521 0.160541 0.077456
v 0.260689 0.093108 -0.080412
v 0.275203 0.105823 -0.061115
v 0.248522 0.160541 -0.077456
v 0.234789 0.147082 -0.095949
v 0.264823 0.181776 0.046330
v 0.264823 0.181776 -0.046330
v -0.061116 -0.027915 0.080412
v -0.080412 -0.027915 0.061116
v -0.095949 0.029750 0.077200
v -0.077200 0.029750 0.095949
v -0.080412 -0.027915 -0.061116
v -0.061116 -0.027915 -0.080412
v -0.077200 0.029750 -0.095949
v -0.095949 0.029750 -0.077200
v 0.080412 -0.027915 0.061116
v 0.061116 -0.027915 0.080412
v 0.077200 0.029750 0.095949
v 0.095949 0.029750 0.077200
v 0.061116 -0.027915 -0.080412
v 0.080412 -0.027915 -0.061116
v 0.095949 0.029750 -0.077200
v 0.077200 0.029750 -0.095949
v 0.168749 0.012563 0.080412
v 0.154235 -0.000152 0.061116
v 0.104549 0.032985 0.077200
v 0.118651 0.045339 0.095949
v 0.154235 -0.000152 -0.061116
v 0.168749 0.012563 -0.080412
v 0.118651 0.045339 -0.095949
v 0.104549 0.032985 -0.077200
v 0.275203 0.105823 0.061116
v 0.260689 0.093108 0.080412
v 0.234789 0.147082 0.095949
v 0.248521 0.160541 0.077456
v 0.260689 0.093108 -0.080412
v 0.275203 0.105823 -0.061115
v 0.248522 0.160541 -0.077456
v 0.234789 0.147082 -0.095949
v 0.264823 0.181776 0.046330
v 0.264823 0.181776 -0.046330
vn 0.3247 -0.3427 0.8816
vn 0.3782 0.3596 0.8530
vn -0.3782 0.3596 0.8530
vn -0.3247 -0.3427 0.8816
vn 0.8816 -0.3427 -0.3247
vn 0.8530 0.3596 -0.3782
vn 0.8530 0.3596 0.3782
vn 0.8816 -0.3427 0.3247
vn -0.8816 -0.3427 0.3247
vn -0.8530 0.3596 0.3782
vn -0.8530 0.3596 -0.3782
vn -0.8816 -0.3427 -0.3247
vn -0.3247 -0.3427 -0.8816
vn -0.3782 0.3596 -0.8530
vn 0.3782 0.3596 -0.8530
vn 0.3247 -0.3427 -0.8816
vn -0.0000 -1.0000 -0.0000
vn 0.4700 -0.0438 0.8816
vn 0.0662 0.5082 0.8587
vn -0.5214 0.0213 0.8530
vn -0.0184 -0.4717 0.8816
vn 0.8889 0.3231 -0.3247
vn 0.5691 0.6344 -0.5231
vn 0.5691 0.6344 0.5231
vn 0.8889 0.3231 0.3247
vn -0.4373 -0.8387 0.3247
vn -0.8786 -0.2916 0.3782
vn -0.8786 -0.2916 -0.3782
vn -0.4373 -0.8387 -0.3247
vn -0.0184 -0.4717 -0.8816
vn -0.5214 0.0213 -0.8530
vn 0.0662 0.5082 -0.8587
vn 0.4700 -0.0438 -0.8816
vn 0.6590 -0.7522 -0.0000
vn 0.9475 0.1935 -0.2545
vn 0.9475 0.1935 0.2545
vn -0.3261 0.3297 -0.8860
vn 0.3261 0.3297 -0.8860
vn 0.1154 0.9673 -0.2258
vn -0.1154 0.9673 -0.2258
vn -0.8860 0.3297 0.3261
vn -0.8860 0.3297 -0.3261
vn -0.2258 0.9673 -0.1154
vn -0.2258 0.9673 0.1154
vn 0.8860 0.3297 -0.3261
vn 0.8860 0.3297 0.3261
vn 0.2258 0.9673 0.1154
vn 0.2258 0.9673 -0.1154
vn 0.3261 0.3297 0.8860
vn -0.3261 0.3297 0.8860
vn -0.1154 0.9673 0.2258
vn 0.1154 0.9673 0.2258
vn -0.0000 1.0000 -0.0000
vn -0.4622 0.0337 -0.8861
vn 0.0281 0.4629 -0.8860
vn -0.5506 0.8036 -0.2258
vn -0.7201 0.6625 -0.2062
vn -0.8841 -0.3338 0.3269
vn -0.8841 -0.3338 -0.3269
vn -0.8056 0.5849 0.0942
vn -0.8056 0.5849 -0.0942
vn 0.4492 0.8318 -0.3261
vn 0.4492 0.8318 0.3261
vn -0.4676 0.8764 0.1154
vn -0.4676 0.8764 -0.1154
vn 0.0281 0.4629 0.8860
vn -0.4622 0.0337 0.8861
vn -0.7201 0.6625 0.2062
vn -0.5506 0.8036 0.2258
vn -0.6590 0.7522 -0.0000
vn -0.1511 0.9668 0.2060
vn -0.1511 0.9668 -0.2060
vt 0.202637 0.656956
vt 0.194827 0.629463
vt 0.267470 0.629463
vt 0.259659 0.656956
vt 0.881403 0.266834
vt 0.908895 0.259024
vt 0.908895 0.331667
vt 0.881403 0.323856
vt 0.884592 0.799033
vt 0.912084 0.806844
vt 0.912084 0.734201
vt 0.884592 0.742011
vt 0.597572 0.792240
vt 0.625065 0.800050
vt 0.625065 0.727407
vt 0.597572 0.735218
vt 0.277452 0.629463
vt 0.269642 0.656956
vt 0.597572 0.802222
vt 0.625065 0.810033
vt 0.625065 0.717425
vt 0.597572 0.725235
vt 0.192655 0.656956
vt 0.184844 0.629463
vt 0.476356 0.912084
vt 0.486338 0.902101
vt 0.486338 0.845080
vt 0.476356 0.835097
vt 0.419334 0.835097
vt 0.409352 0.845080
vt 0.409352 0.902101
vt 0.419334 0.912084
vt 0.912084 0.231372
vt 0.884592 0.239183
vt 0.884592 0.166540
vt 0.912084 0.174350
vt 0.573000 0.379633
vt 0.598826 0.371822
vt 0.598826 0.444465
vt 0.573000 0.436654
vt 0.799961 0.185097
vt 0.775970 0.177287
vt 0.775970 0.249930
vt 0.799961 0.242119
vt 0.900922 0.837684
vt 0.873430 0.829874
vt 0.873430 0.902517
vt 0.900922 0.894706
vt 0.807470 0.175115
vt 0.783479 0.167304
vt 0.783479 0.259912
vt 0.807470 0.252101
vt 0.566422 0.369650
vt 0.592248 0.361839
vt 0.592248 0.454447
vt 0.566422 0.446637
vt 0.850361 0.252101
vt 0.857869 0.242119
vt 0.857869 0.185097
vt 0.850361 0.175115
vt 0.605930 0.387061
vt 0.605930 0.429226
s 1
usemtl Trash
f 10/1/1 11/2/2 4/3/3 1/4/4
f 14/5/5 15/6/6 12/7/7 9/8/8
f 2/9/9 3/10/10 8/11/11 5/12/12
f 6/13/13 7/14/14 16/15/15 13/16/16
f 1/4/4 4/3/3 3/17/10 2/18/9
f 7/14/14 6/13/13 5/19/12 8/20/11
f 15/21/6 14/22/5 13/16/16 16/15/15
f 11/2/2 10/1/1 9/23/8 12/24/7
f 5/25/17 6/26/17 13/27/17 14/28/17 9/29/17 10/30/17 1/31/17 2/32/17
f 26/33/18 27/34/19 20/35/20 17/36/21
f 30/37/22 31/38/23 28/39/24 25/40/25
f 18/41/26 19/42/27 24/43/28 21/44/29
f 22/45/30 23/46/31 32/47/32 29/48/33
f 17/49/21 20/50/20 19/42/27 18/41/26
f 23/51/31 22/52/30 21/44/29 24/43/28
f 31/38/23 30/37/22 29/53/33 32/54/32
f 27/55/19 26/56/18 25/40/25 28/39/24
f 21/44/34 22/52/34 29/57/34 30/58/34 25/59/34 26/60/34 17/49/34 18/41/34
f 28/39/24 31/38/23 34/61/35 33/62/36
f 44/1/1 45/2/2 38/3/3 35/4/4
f 48/5/5 49/6/6 46/7/7 43/8/8
f 36/9/9 37/10/10 42/11/11 39/12/12
f 40/13/13 41/14/14 50/15/15 47/16/16
f 35/4/4 38/3/3 37/17/10 36/18/9
f 41/14/14 40/13/13 39/19/12 42/20/11
f 49/21/6 48/22/5 47/16/16 50/15/15
f 45/2/2 44/1/1 43/23/8 46/24/7
f 39/25/17 40/26/17 47/27/17 48/28/17 43/29/17 44/30/17 35/31/17 36/32/17
f 60/33/18 61/34/19 54/35/20 51/36/21
f 64/37/22 65/38/23 62/39/24 59/40/25
f 52/41/26 53/42/27 58/43/28 55/44/29
f 56/45/30 57/46/31 66/47/32 63/48/33
f 51/49/21 54/50/20 53/42/27 52/41/26
f 57/51/31 56/52/30 55/44/29 58/43/28
f 65/38/23 64/37/22 63/53/33 66/54/32
f 61/55/19 60/56/18 59/40/25 62/39/24
f 55/44/34 56/52/34 63/57/34 64/58/34 59/59/34 60/60/34 51/49/34 52/41/34
f 62/39/24 65/38/23 68/61/35 67/62/36
f 78/1/37 69/4/38 72/3/39 79/2/40
f 82/5/41 77/8/42 80/7/43 83/6/44
f 70/9/45 73/12/46 76/11/47 71/10/48
f 74/13/49 81/16/50 84/15/51 75/14/52
f 69/4/38 70/18/45 71/17/48 72/3/39
f 75/14/52 76/20/47 73/19/46 74/13/49
f 83/21/44 84/15/51 81/16/50 82/22/41
f 79/2/40 80/24/43 77/23/42 78/1/37
f 73/25/53 70/32/53 69/31/53 78/30/53 77/29/53 82/28/53 81/27/53 74/26/53
f 94/33/54 85/36/55 88/35/56 95/34/57
f 98/37/58 93/40/59 96/39/60 99/38/61
f 86/41/62 89/44/63 92/43/64 87/42/65
f 90/45/66 97/48/67 100/47/68 91/46/69
f 85/49/55 86/41/62 87/42/65 88/50/56
f 91/51/69 92/43/64 89/44/63 90/52/66
f 99/38/61 100/54/68 97/53/67 98/37/58
f 95/55/57 96/39/60 93/40/59 94/56/54
f 89/44/70 86/41/70 85/49/70 94/60/70 93/59/70 98/58/70 97/57/70 90/52/70
f 96/39/60 101/62/71 102/61/72 99/38/61
f 112/1/37 103/4/38 106/3/39 113/2/40
f 116/5/41 111/8/42 114/7/43 117/6/44
f 104/9/45 107/12/46 110/11/47 105/10/48
f 108/13/49 115/16/50 118/15/51 109/14/52
f 103/4/38 104/18/45 105/17/48 106/3/39
f 109/14/52 110/20/47 107/19/46 108/13/49
f 117/21/44 118/15/51 115/16/50 116/22/41
f 113/2/40 114/24/43 111/23/42 112/1/37
f 107/25/53 104/32/53 103/31/53 112/30/53 111/29/53 116/28/53 115/27/53 108/26/53
f 128/33/54 119/36/55 122/35/56 129/34/57
f 132/37/58 127/40/59 130/39/60 133/38/61
f 120/41/62 123/44/63 126/43/64 121/42/65
f 124/45/66 131/48/67 134/47/68 125/46/69
f 119/49/55 120/41/62 121/42/65 122/50/56
f 125/51/69 126/43/64 123/44/63 124/52/66
f 133/38/61 134/54/68 131/53/67 132/37/58
f 129/55/57 130/39/60 127/40/59 128/56/54
f 123/44/70 120/41/70 119/49/70 128/60/70 127/59/70 132/58/70 131/57/70 124/52/70
f 130/39/60 135/62/71 136/61/72 133/38/61
f 3/17/10 4/3/3 72/3/39 71/17/48
f 7/14/14 8/20/11 76/20/47 75/14/52
f 15/21/6 16/15/15 84/15/51 83/21/44
f 11/2/2 12/24/7 80/24/43 79/2/40
f 8/11/11 3/10/10 71/10/48 76/11/47
f 4/3/3 11/2/2 79/2/40 72/3/39
f 12/7/7 15/6/6 83/6/44 80/7/43
f 16/15/15 7/14/14 75/14/52 84/15/51
f 19/42/27 20/50/20 88/50/56 87/42/65
f 23/51/31 24/43/28 92/43/64 91/51/69
f 31/38/23 32/54/32 100/54/68 99/38/61
f 27/55/19 28/39/24 96/39/60 95/55/57
f 24/43/28 19/42/27 87/42/65 92/43/64
f 20/35/20 27/34/19 95/34/57 88/35/56
f 32/47/32 23/46/31 91/46/69 100/47/68
f 33/62/36 34/61/35 102/61/72 101/62/71
f 28/39/24 33/62/36 101/62/71 96/39/60
f 34/61/35 31/38/23 99/38/61 102/61/72
f 37/17/10 38/3/3 106/3/39 105/17/48
f 41/14/14 42/20/11 110/20/47 109/14/52
f 49/21/6 50/15/15 118/15/51 117/21/44
f 45/2/2 46/24/7 114/24/43 113/2/40
f 42/11/11 37/10/10 105/10/48 110/11/47
f 38/3/3 45/2/2 113/2/40 106/3/39
f 46/7/7 49/6/6 117/6/44 114/7/43
f 50/15/15 41/14/14 109/14/52 118/15/51
f 53/42/27 54/50/20 122/50/56 121/42/65
f 57/51/31 58/43/28 126/43/64 125/51/69
f 65/38/23 66/54/32 134/54/68 133/38/61
f 61/55/19 62/39/24 130/39/60 129/55/57
f 58/43/28 53/42/27 121/42/65 126/43/64
f 54/35/20 61/34/19 129/34/57 122/35/56
f 66/47/32 57/46/31 125/46/69 134/47/68
f 67/62/36 68/61/35 136/61/72 135/62/71
f 62/39/24 67/62/36 135/62/71 130/39/60
f 68/61/35 65/38/23 133/38/61 136/61/72
