# Blender 4.5.9 LTS
# www.blender.org
mtllib Trash_007.mtl
o Trash_007
v -0.098732 0.000215 -0.040248
v -0.076589 0.021985 -0.065818
v 0.099084 0.011565 -0.040248
v 0.076940 0.007391 -0.065818
v -0.098732 -0.014921 -0.019930
v -0.076589 -0.037471 -0.032714
v 0.099084 -0.017632 -0.019930
v 0.076940 -0.034205 -0.032714
v -0.098732 -0.015469 0.020708
v -0.076589 -0.040541 0.033492
v 0.099084 -0.012229 0.020708
v 0.076940 -0.032292 0.033492
v -0.098732 0.018451 0.041026
v -0.076589 0.012315 0.066596
v 0.099084 0.013519 0.041026
v 0.076940 0.023548 0.066596
v -0.098732 0.019505 0.020708
v -0.076589 0.034437 0.033492
v 0.099084 0.037710 0.020708
v 0.076940 0.038835 0.033492
v -0.098732 0.029468 -0.019930
v -0.076589 0.036869 -0.032714
v 0.099084 0.030976 -0.019930
v 0.076940 0.041259 -0.032714
v -0.033510 0.016704 -0.065828
v -0.033830 -0.037189 -0.032715
v -0.033847 0.007385 -0.032724
v -0.034514 -0.032288 0.033487
v -0.034867 0.001209 0.066582
v -0.034533 0.018885 0.033476
v -0.000129 0.006824 -0.062146
v 0.010753 0.010394 -0.030849
v 0.010178 -0.033117 -0.031037
v 0.031859 -0.032329 0.031528
v 0.043274 0.011467 0.062998
v 0.032591 0.022982 0.031767
vn -0.8687 -0.0880 -0.4875
vn -0.2618 0.4013 -0.8777
vn 0.8731 0.0955 -0.4781
vn 0.3000 0.1174 -0.9467
vn -0.8980 -0.3868 -0.2098
vn -0.3214 -0.8228 -0.4686
vn 0.8762 -0.4500 -0.1725
vn 0.3447 -0.8440 -0.4109
vn -0.9083 -0.3679 0.1991
vn -0.3669 -0.8353 0.4095
vn 0.8816 -0.4102 0.2335
vn 0.3362 -0.8146 0.4726
vn -0.8386 0.3148 0.4446
vn -0.2887 0.2369 0.9276
vn 0.8778 0.0460 0.4768
vn 0.2216 0.3284 0.9182
vn -0.8512 0.5114 0.1178
vn -0.0352 0.9662 0.2555
vn 0.7569 0.6424 0.1203
vn 0.0671 0.9545 0.2905
vn -0.8253 0.5571 -0.0922
vn -0.1347 0.9715 -0.1951
vn 0.7994 0.5692 -0.1921
vn 0.0730 0.9404 -0.3322
vn 0.2343 0.4485 -0.8625
vn 0.0351 -0.8815 -0.4709
vn 0.2151 0.9749 -0.0581
vn 0.0513 -0.8885 0.4560
vn 0.0900 0.1008 0.9908
vn 0.1657 0.9667 0.1952
vn -0.0345 0.2987 -0.9537
vn -0.1474 0.9709 -0.1890
vn 0.0044 -0.9010 -0.4338
vn 0.0339 -0.8931 0.4485
vn -0.1343 0.1909 0.9724
vn -0.2339 0.9557 0.1789
vt 0.834679 0.815770
vt 0.834679 0.841312
vt 0.849896 0.841312
vt 0.849896 0.815770
vt 0.913793 0.057635
vt 0.915273 0.083134
vt 0.889641 0.084511
vt 0.893559 0.058722
vt 0.789027 0.815770
vt 0.789027 0.841312
vt 0.804244 0.841312
vt 0.804244 0.815770
vt 0.889760 0.567020
vt 0.889760 0.592562
vt 0.859326 0.592562
vt 0.859326 0.567020
vt 0.366729 0.899841
vt 0.353956 0.910050
vt 0.344433 0.901322
vt 0.340106 0.882887
vt 0.350583 0.872831
vt 0.363012 0.881366
vt 0.866464 0.682439
vt 0.865948 0.707981
vt 0.885070 0.707981
vt 0.884698 0.682439
vt 0.859240 0.637405
vt 0.886571 0.637405
vt 0.876205 0.627226
vt 0.869247 0.627226
vt 0.374720 0.905200
vt 0.356649 0.921651
vt 0.849896 0.916264
vt 0.843962 0.886381
vt 0.834184 0.894852
vt 0.838423 0.913047
vt 0.883883 0.602741
vt 0.865203 0.602741
vt 0.816722 0.877440
vt 0.816805 0.889527
vt 0.345204 0.861408
vt 0.371825 0.874891
vt 0.789027 0.770736
vt 0.804244 0.770736
vt 0.810121 0.760556
vt 0.800781 0.760556
vt 0.800781 0.851491
vt 0.810121 0.851491
vt 0.834679 0.770736
vt 0.828802 0.760556
vt 0.828802 0.851491
vt 0.816722 0.924466
vt 0.827016 0.937597
vt 0.833910 0.923784
vt 0.818614 0.917945
vt 0.340106 0.907499
vt 0.818577 0.898711
vt 0.861661 0.656897
vt 0.886438 0.656897
vt 0.889760 0.521986
vt 0.889760 0.541478
vt 0.859326 0.541478
vt 0.859326 0.521986
vt 0.804244 0.790228
vt 0.834679 0.790228
vt 0.789027 0.790228
vt 0.915273 0.012456
vt 0.912534 0.032124
vt 0.897160 0.032950
vt 0.891011 0.013760
vt 0.849896 0.790228
vt 0.849896 0.770736
s 1
usemtl Trash
f 32/1/32 24/2/24 4/3/4 31/4/31
f 34/5/34 12/6/12 16/7/16 35/8/35
f 35/9/35 16/10/16 20/11/20 36/12/36
f 36/12/36 20/11/20 24/2/24 32/1/32
f 33/13/33 8/14/8 12/15/12 34/16/34
f 7/17/7 3/18/3 23/19/23 19/20/19 15/21/15 11/22/11
f 31/23/31 4/24/4 8/25/8 33/26/33
f 2/27/2 6/28/6 5/29/5 1/30/1
f 8/31/8 4/32/4 3/18/3 7/17/7
f 6/33/6 10/34/10 9/35/9 5/36/5
f 12/15/12 8/14/8 7/37/7 11/38/11
f 10/34/10 14/39/14 13/40/13 9/35/9
f 16/41/16 12/42/12 11/22/11 15/21/15
f 14/43/14 18/44/18 17/45/17 13/46/13
f 20/11/20 16/10/16 15/47/15 19/48/19
f 18/44/18 22/49/22 21/50/21 17/45/17
f 24/2/24 20/11/20 19/48/19 23/51/23
f 22/52/22 2/53/2 1/54/1 21/55/21
f 4/32/4 24/56/24 23/19/23 3/18/3
f 1/54/1 5/36/5 9/35/9 13/40/13 17/57/17 21/55/21
f 2/27/2 25/58/25 26/59/26 6/28/6
f 6/60/6 26/61/26 28/62/28 10/63/10
f 18/44/18 30/64/30 27/65/27 22/49/22
f 14/43/14 29/66/29 30/64/30 18/44/18
f 10/67/10 28/68/28 29/69/29 14/70/14
f 22/49/22 27/65/27 25/71/25 2/72/2
f 25/58/25 31/23/31 33/26/33 26/59/26
f 26/61/26 33/13/33 34/16/34 28/62/28
f 30/64/30 36/12/36 32/1/32 27/65/27
f 29/66/29 35/9/35 36/12/36 30/64/30
f 28/68/28 34/5/34 35/8/35 29/69/29
f 27/65/27 32/1/32 31/4/31 25/71/25
