# Blender 4.5.9 LTS
# www.blender.org
mtllib Trash_004.mtl
o Trash_004
v 0.000000 -0.043244 -0.043244
v 0.000000 0.111634 -0.059939
v 0.033810 -0.043244 -0.026962
v 0.047543 0.111634 -0.037044
v 0.042160 -0.043244 0.009623
v 0.059285 0.111634 0.014402
v 0.018763 -0.043244 0.038962
v 0.026384 0.111634 0.055658
v -0.018763 -0.043244 0.038962
v -0.026384 0.111634 0.055658
v -0.042160 -0.043244 0.009623
v -0.059285 0.111634 0.014402
v -0.033810 -0.043244 -0.026962
v -0.047543 0.111634 -0.037044
v 0.053845 0.111634 -0.041670
v 0.000000 0.111634 -0.067601
v 0.067144 0.111634 0.016595
v 0.029882 0.111634 0.063320
v -0.029882 0.111634 0.063320
v -0.067144 0.111634 0.016595
v -0.053845 0.111634 -0.041670
v 0.053845 0.122123 -0.041670
v 0.000000 0.122123 -0.067601
v 0.067144 0.122123 0.016595
v 0.029882 0.122123 0.063320
v -0.029882 0.122123 0.063320
v -0.067144 0.122123 0.016595
v -0.053845 0.122123 -0.041670
v 0.048276 0.122123 -0.037581
v 0.000000 0.122123 -0.060830
v 0.060199 0.122123 0.014657
v 0.026791 0.122123 0.056549
v -0.026791 0.122123 0.056549
v -0.060199 0.122123 0.014657
v -0.048276 0.122123 -0.037581
v 0.042896 0.137849 -0.033632
v 0.000000 0.137849 -0.054289
v 0.053490 0.137849 0.012785
v 0.023805 0.137849 0.050009
v -0.023805 0.137849 0.050009
v -0.053490 0.137849 0.012785
v -0.042896 0.137849 -0.033632
vn -0.0000 -0.1072 -0.9942
vn 0.7779 -0.1093 -0.6189
vn 0.7764 -0.1092 -0.6207
vn 0.9683 -0.1139 0.2225
vn 0.9689 -0.1139 0.2195
vn 0.4303 -0.1177 0.8950
vn 0.4315 -0.1177 0.8944
vn -0.4303 -0.1177 0.8950
vn -0.4315 -0.1177 0.8944
vn -0.9683 -0.1139 0.2225
vn -0.9689 -0.1139 0.2195
vn -0.0000 -1.0000 -0.0000
vn -0.7779 -0.1093 -0.6189
vn -0.7764 -0.1092 -0.6207
vn -0.0000 -0.0000 -1.0000
vn -0.7818 -0.0000 -0.6235
vn -0.0000 1.0000 -0.0000
vn -0.9749 -0.0000 0.2225
vn -0.4339 -0.0000 0.9010
vn 0.4339 -0.0000 0.9010
vn 0.9749 -0.0000 0.2225
vn 0.7818 -0.0000 -0.6235
vn 0.3929 0.4158 0.8202
vn 0.8906 0.4047 0.2076
vn 0.8929 0.4045 0.1978
vn 0.3969 0.4157 0.8183
vn 0.7219 0.3905 -0.5713
vn -0.0000 0.3840 -0.9233
vn 0.7169 0.3904 -0.5777
vn -0.7219 0.3905 -0.5713
vn -0.8906 0.4047 0.2076
vn -0.8929 0.4045 0.1978
vn -0.7169 0.3904 -0.5777
vn -0.3929 0.4158 0.8202
vn -0.3969 0.4157 0.8183
vt 0.011844 0.815701
vt 0.097268 0.815701
vt 0.097268 0.789479
vt 0.011844 0.797054
vt 0.654449 0.805922
vt 0.739872 0.800361
vt 0.739872 0.828736
vt 0.654449 0.826100
vt 0.739872 0.851491
vt 0.654449 0.842282
vt 0.853666 0.306837
vt 0.857869 0.392260
vt 0.828765 0.392260
vt 0.832968 0.306837
vt 0.825516 0.058086
vt 0.816307 0.143510
vt 0.839062 0.143510
vt 0.841698 0.058086
vt 0.159851 0.911154
vt 0.131476 0.904677
vt 0.128656 0.907938
vt 0.160792 0.915273
vt 0.867437 0.143510
vt 0.861876 0.058086
vt 0.011844 0.834349
vt 0.097268 0.841924
vt 0.982244 0.206362
vt 0.973264 0.187714
vt 0.953085 0.183109
vt 0.936904 0.196013
vt 0.936904 0.216711
vt 0.953085 0.229616
vt 0.973264 0.225010
vt 0.915867 0.537963
vt 0.915867 0.567661
vt 0.921651 0.567661
vt 0.921651 0.537963
vt 0.182606 0.863903
vt 0.182606 0.893007
vt 0.186563 0.894721
vt 0.186563 0.861759
vt 0.118848 0.878455
vt 0.131476 0.852232
vt 0.128656 0.848542
vt 0.114354 0.878240
vt 0.159851 0.845756
vt 0.160792 0.841207
vt 0.530483 0.914317
vt 0.516181 0.884618
vt 0.520153 0.884808
vt 0.532976 0.911434
vt 0.919056 0.393596
vt 0.919056 0.419367
vt 0.924841 0.419367
vt 0.924841 0.393596
vt 0.931812 0.315721
vt 0.931812 0.289950
vt 0.937597 0.289950
vt 0.937597 0.315721
vt 0.915867 0.508264
vt 0.921651 0.508264
vt 0.919056 0.361460
vt 0.924841 0.361460
vt 0.702196 0.502284
vt 0.702196 0.469322
vt 0.707981 0.469322
vt 0.707981 0.502284
vt 0.931812 0.257814
vt 0.937597 0.257814
vt 0.941680 0.063782
vt 0.941680 0.040677
vt 0.950353 0.039644
vt 0.950353 0.060175
vt 0.530483 0.854920
vt 0.562619 0.847585
vt 0.561788 0.851605
vt 0.532976 0.858181
vt 0.588390 0.868137
vt 0.588390 0.901100
vt 0.584893 0.899585
vt 0.584893 0.870031
vt 0.562619 0.921651
vt 0.561788 0.918011
vt 0.959689 0.922705
vt 0.971083 0.946364
vt 0.959689 0.970023
vt 0.934088 0.975866
vt 0.913557 0.959494
vt 0.913557 0.933234
vt 0.934088 0.916862
vt 0.935302 0.691403
vt 0.935302 0.718030
vt 0.943975 0.718030
vt 0.943975 0.694371
vt 0.948058 0.515743
vt 0.948058 0.544555
vt 0.956732 0.543523
vt 0.956732 0.517921
vt 0.785414 0.730305
vt 0.785414 0.700752
vt 0.794087 0.702399
vt 0.794087 0.728658
vt 0.941680 0.011864
vt 0.950353 0.014043
vt 0.935302 0.744656
vt 0.943975 0.741689
vt 0.948058 0.567661
vt 0.956732 0.564053
s 1
usemtl Trash
f 1/1/1 2/2/1 4/3/2 3/4/3
f 3/5/3 4/6/2 6/7/4 5/8/5
f 5/8/5 6/7/4 8/9/6 7/10/7
f 7/11/7 8/12/6 10/13/8 9/14/9
f 9/15/9 10/16/8 12/17/10 11/18/11
f 2/19/12 14/20/12 21/21/12 16/22/12
f 11/18/11 12/17/10 14/23/13 13/24/14
f 13/25/14 14/26/13 2/2/1 1/1/1
f 1/27/12 3/28/12 5/29/12 7/30/12 9/31/12 11/32/12 13/33/12
f 16/34/15 21/35/16 28/36/16 23/37/15
f 6/38/12 4/39/12 15/40/12 17/41/12
f 12/42/12 10/43/12 19/44/12 20/45/12
f 4/39/12 2/19/12 16/22/12 15/40/12
f 8/46/12 6/38/12 17/41/12 18/47/12
f 14/20/12 12/42/12 20/45/12 21/21/12
f 10/43/12 8/46/12 18/47/12 19/44/12
f 28/48/17 27/49/17 34/50/17 35/51/17
f 20/52/18 19/53/19 26/54/19 27/55/18
f 18/56/20 17/57/21 24/58/21 25/59/20
f 15/60/22 16/34/15 23/37/15 22/61/22
f 21/62/16 20/52/18 27/55/18 28/63/16
f 19/64/19 18/65/20 25/66/20 26/67/19
f 17/57/21 15/68/22 22/69/22 24/58/21
f 32/70/23 31/71/24 38/72/25 39/73/26
f 26/74/17 25/75/17 32/76/17 33/77/17
f 24/78/17 22/79/17 29/80/17 31/81/17
f 23/82/17 28/48/17 35/51/17 30/83/17
f 27/49/17 26/74/17 33/77/17 34/50/17
f 25/75/17 24/78/17 31/81/17 32/76/17
f 22/79/17 23/82/17 30/83/17 29/80/17
f 36/84/17 37/85/17 42/86/17 41/87/17 40/88/17 39/89/17 38/90/17
f 29/91/27 30/92/28 37/93/28 36/94/29
f 35/95/30 34/96/31 41/97/32 42/98/33
f 33/99/34 32/100/23 39/101/26 40/102/35
f 31/71/24 29/103/27 36/104/29 38/72/25
f 30/92/28 35/105/30 42/106/33 37/93/28
f 34/96/31 33/107/34 40/108/35 41/97/32
