# Blender 4.5.9 LTS
# www.blender.org
mtllib Trash_003.mtl
o Trash_003
v -0.159779 0.065177 0.070685
v 0.126664 0.068379 0.069822
v -0.159779 0.065177 -0.073460
v 0.135695 0.055314 -0.072596
v -0.175601 -0.055656 0.070685
v 0.139059 -0.055656 0.070685
v -0.175601 -0.055656 -0.073460
v 0.139059 -0.055656 -0.073460
v 0.173036 0.015404 0.070685
v 0.173036 0.015404 -0.073460
v 0.173036 0.004707 -0.073460
v 0.173036 0.004707 0.070685
v 0.195715 0.020226 0.069327
v 0.201963 0.005088 -0.073642
v 0.202758 -0.005798 -0.072101
v 0.196510 0.009870 0.070868
v -0.059662 0.056232 0.070308
v -0.059967 0.041482 -0.073460
v -0.059967 -0.055656 -0.073460
v -0.059967 -0.055656 0.070685
v 0.055975 0.063918 0.071063
v 0.056280 0.041482 -0.073460
v 0.056280 -0.055656 -0.073460
v 0.056280 -0.055656 0.070685
vn -0.1203 0.9847 -0.1257
vn 0.0050 0.0042 -1.0000
vn -0.0000 -1.0000 -0.0000
vn 0.0080 0.0024 1.0000
vn -0.9915 0.1298 -0.0000
vn 0.8714 -0.4905 -0.0000
vn -0.1013 -0.9935 0.0520
vn 0.7428 0.6695 -0.0071
vn -0.0112 0.0054 0.9999
vn -0.0140 0.0067 -0.9999
vn 0.9962 0.0796 0.0350
vn 0.1042 0.9933 -0.0501
vn 0.0095 0.0734 0.9973
vn -0.0053 -0.0714 -0.9974
vn 0.0018 0.0015 1.0000
vn -0.0000 -0.0000 -1.0000
vn 0.1608 0.9857 -0.0507
vn -0.0033 -0.0000 1.0000
vn -0.0324 0.9913 -0.1279
vt 0.420202 0.685658
vt 0.454810 0.685050
vt 0.459231 0.615325
vt 0.420351 0.614902
vt 0.235702 0.123685
vt 0.227637 0.162317
vt 0.281880 0.165776
vt 0.283232 0.125271
vt 0.514243 0.302302
vt 0.514243 0.342829
vt 0.443673 0.342829
vt 0.443673 0.302302
vt 0.369139 0.126679
vt 0.369139 0.167206
vt 0.308414 0.161138
vt 0.310598 0.126530
vt 0.012597 0.934408
vt 0.071755 0.934408
vt 0.071755 0.863837
vt 0.012597 0.863837
vt 0.242372 0.851081
vt 0.242372 0.921651
vt 0.212820 0.921651
vt 0.212820 0.851081
vt 0.924948 0.597614
vt 0.928030 0.668118
vt 0.913463 0.668088
vt 0.913463 0.598027
vt 0.296636 0.933667
vt 0.291377 0.863847
vt 0.317316 0.863847
vt 0.316166 0.934408
vt 0.339586 0.183840
vt 0.334350 0.183840
vt 0.246555 0.181241
vt 0.251789 0.181415
vt 0.620281 0.905536
vt 0.614901 0.905706
vt 0.615159 0.835321
vt 0.620281 0.835123
vt 0.189941 0.344013
vt 0.189941 0.414584
vt 0.201044 0.413918
vt 0.204103 0.343924
vt 0.337059 0.195333
vt 0.331989 0.194944
vt 0.251130 0.195563
vt 0.256444 0.196130
vt 0.369139 0.013155
vt 0.369139 0.069767
vt 0.314361 0.069916
vt 0.309982 0.020901
vt 0.514243 0.188777
vt 0.514243 0.245390
vt 0.443673 0.245390
vt 0.443673 0.188777
vt 0.227637 0.017578
vt 0.237600 0.066805
vt 0.285131 0.068391
vt 0.287019 0.011810
vt 0.314573 0.685473
vt 0.363588 0.685288
vt 0.363439 0.614902
vt 0.314573 0.614902
s 0
usemtl Trash
f 21/1/1 2/2/1 4/3/1 22/4/1
f 22/5/2 4/6/2 8/7/2 23/8/2
f 23/9/3 8/10/3 6/11/3 24/12/3
f 24/13/4 6/14/4 2/15/4 21/16/4
f 3/17/5 7/18/5 5/19/5 1/20/5
f 6/21/6 8/22/6 11/23/6 12/24/6
f 12/25/7 11/26/7 15/27/7 16/28/7
f 4/29/8 2/30/8 9/31/8 10/32/8
f 2/15/9 6/14/9 12/33/9 9/34/9
f 8/7/10 4/6/10 10/35/10 11/36/10
f 15/37/11 14/38/11 13/39/11 16/40/11
f 10/41/12 9/42/12 13/43/12 14/44/12
f 9/34/13 12/33/13 16/45/13 13/46/13
f 11/36/14 10/35/14 14/47/14 15/48/14
f 5/49/15 20/50/15 17/51/15 1/52/15
f 7/53/3 19/54/3 20/55/3 5/56/3
f 3/57/16 18/58/16 19/59/16 7/60/16
f 1/61/17 17/62/17 18/63/17 3/64/17
f 20/50/18 24/13/18 21/16/18 17/51/18
f 19/54/3 23/9/3 24/12/3 20/55/3
f 18/58/16 22/5/16 23/8/16 19/59/16
f 17/62/19 21/1/19 22/4/19 18/63/19
