# Blender 4.5.9 LTS
# www.blender.org
mtllib Trash_009.mtl
o Trash_009
v -0.123991 -0.184906 0.042043
v -0.123991 0.184906 0.042043
v -0.123991 -0.184906 -0.042043
v -0.123991 0.184906 -0.042043
v 0.123991 -0.184906 0.042043
v 0.123991 0.184906 0.042043
v 0.123991 -0.184906 -0.042043
v 0.123991 0.184906 -0.042043
vn -1.0000 -0.0000 -0.0000
vn -0.0000 -0.0000 -1.0000
vn 1.0000 -0.0000 -0.0000
vn -0.0000 -0.0000 1.0000
vn -0.0000 -1.0000 -0.0000
vn -0.0000 1.0000 -0.0000
vt 0.190528 0.478366
vt 0.344423 0.478366
vt 0.344423 0.443374
vt 0.190528 0.443374
vt 0.011938 0.445677
vt 0.165833 0.445677
vt 0.165833 0.342481
vt 0.011938 0.342481
vt 0.011938 0.470481
vt 0.165833 0.470481
vt 0.165833 0.505473
vt 0.011938 0.505473
vt 0.496703 0.011938
vt 0.496703 0.165833
vt 0.393507 0.165833
vt 0.393507 0.011938
vt 0.794087 0.114808
vt 0.794087 0.011611
vt 0.759095 0.011611
vt 0.759095 0.114808
vt 0.803654 0.320955
vt 0.803654 0.424151
vt 0.768663 0.424151
vt 0.768663 0.320955
s 1
usemtl Trash
f 1/1/1 2/2/1 4/3/1 3/4/1
f 3/5/2 4/6/2 8/7/2 7/8/2
f 7/9/3 8/10/3 6/11/3 5/12/3
f 5/13/4 6/14/4 2/15/4 1/16/4
f 3/17/5 7/18/5 5/19/5 1/20/5
f 8/21/6 4/22/6 2/23/6 6/24/6
