# Blender 4.5.9 LTS
# www.blender.org
mtllib Trash_M.mtl
o Trash_M
v 0.741668 -0.087323 0.012172
v 0.741668 0.282489 0.012172
v 0.687726 -0.087323 0.076675
v 0.687726 0.282489 0.076675
v 0.551438 -0.087323 -0.146910
v 0.551438 0.282489 -0.146910
v 0.497496 -0.087323 -0.082407
v 0.497496 0.282489 -0.082407
v -0.654836 0.124759 -0.017901
v -0.733385 0.067474 -0.238288
v -0.469861 0.124759 -0.110362
v -0.598999 0.067474 -0.305463
v -0.643462 -0.080467 0.004855
v -0.725121 -0.081625 -0.221756
v -0.458486 -0.080467 -0.087606
v -0.590735 -0.081626 -0.288930
v -0.641388 0.156232 -0.139943
v -0.575544 0.156232 -0.172855
v -0.625181 -0.136174 -0.107520
v -0.559338 -0.136174 -0.140433
v -0.734120 0.046567 -0.078281
v -0.470567 0.046567 -0.210019
v -0.730071 -0.026485 -0.070181
v -0.466518 -0.026485 -0.201919
v -0.654836 0.124759 -0.017901
v -0.733385 0.067474 -0.238288
v -0.469861 0.124759 -0.110362
v -0.598999 0.067474 -0.305463
v -0.643462 -0.080467 0.004855
v -0.725121 -0.081625 -0.221756
v -0.458486 -0.080467 -0.087606
v -0.590735 -0.081626 -0.288930
v -0.641388 0.156232 -0.139943
v -0.575544 0.156232 -0.172855
v -0.625181 -0.136174 -0.107520
v -0.559338 -0.136174 -0.140433
v -0.734120 0.046567 -0.078281
v -0.470567 0.046567 -0.210019
v -0.730071 -0.026485 -0.070181
v -0.466518 -0.026485 -0.201919
v 0.465629 -0.080991 0.056524
v 0.483861 -0.080991 0.081625
v 0.503501 -0.020574 0.067360
v 0.485269 -0.020574 0.042258
v 0.464242 -0.080991 0.205391
v 0.439140 -0.080991 0.223624
v 0.453406 -0.020574 0.243264
v 0.478508 -0.020574 0.225032
v 0.316761 -0.080991 0.055137
v 0.341863 -0.080991 0.036905
v 0.327597 -0.020574 0.017265
v 0.302496 -0.020574 0.035497
v 0.315375 -0.080991 0.204004
v 0.297142 -0.080991 0.178903
v 0.277502 -0.020574 0.193169
v 0.295734 -0.020574 0.218270
v 0.234873 -0.040252 0.019945
v 0.247736 -0.054708 0.044195
v 0.302496 -0.020574 0.035497
v 0.289633 -0.006118 0.011246
v 0.228116 -0.054708 0.167961
v 0.208384 -0.040252 0.187045
v 0.257770 -0.006118 0.212252
v 0.277502 -0.020574 0.193169
v 0.122046 0.056778 0.024271
v 0.141778 0.042323 0.005188
v 0.171035 0.099078 -0.007553
v 0.151303 0.113534 0.011530
v 0.115290 0.042323 0.172287
v 0.102427 0.056778 0.148037
v 0.126309 0.113534 0.169202
v 0.139172 0.099078 0.193452
v 0.131336 0.129145 0.042273
v 0.116829 0.129145 0.133791
v 0.465629 -0.080991 0.056524
v 0.483861 -0.080991 0.081625
v 0.503501 -0.020574 0.067360
v 0.485269 -0.020574 0.042258
v 0.464242 -0.080991 0.205391
v 0.439140 -0.080991 0.223624
v 0.453406 -0.020574 0.243264
v 0.478508 -0.020574 0.225032
v 0.316761 -0.080991 0.055137
v 0.341863 -0.080991 0.036905
v 0.327597 -0.020574 0.017265
v 0.302496 -0.020574 0.035497
v 0.315375 -0.080991 0.204004
v 0.297142 -0.080991 0.178903
v 0.277502 -0.020574 0.193169
v 0.295734 -0.020574 0.218270
v 0.234873 -0.040252 0.019945
v 0.247736 -0.054708 0.044195
v 0.302496 -0.020574 0.035497
v 0.289633 -0.006118 0.011246
v 0.228116 -0.054708 0.167961
v 0.208384 -0.040252 0.187045
v 0.257770 -0.006118 0.212252
v 0.277502 -0.020574 0.193169
v 0.122046 0.056778 0.024271
v 0.141778 0.042323 0.005188
v 0.171035 0.099078 -0.007553
v 0.151303 0.113534 0.011530
v 0.115290 0.042323 0.172287
v 0.102427 0.056778 0.148037
v 0.126309 0.113534 0.169202
v 0.139172 0.099078 0.193452
v 0.131336 0.129145 0.042273
v 0.116829 0.129145 0.133791
v 0.463453 -0.075845 0.060413
v 0.479490 -0.075845 0.082492
v 0.497354 -0.018179 0.069038
v 0.481772 -0.018179 0.047585
v 0.460353 -0.075845 0.203216
v 0.438274 -0.075845 0.219253
v 0.451728 -0.018179 0.237116
v 0.473181 -0.018179 0.221534
v 0.320650 -0.075845 0.057313
v 0.342729 -0.075845 0.041276
v 0.329276 -0.018179 0.023412
v 0.307823 -0.018179 0.038994
v 0.317550 -0.075845 0.200116
v 0.301513 -0.075845 0.178037
v 0.283649 -0.018179 0.191490
v 0.299231 -0.018179 0.212943
v 0.236423 -0.035366 0.024424
v 0.247737 -0.048081 0.045755
v 0.299329 -0.014945 0.037648
v 0.288336 -0.002590 0.016922
v 0.228600 -0.048081 0.166479
v 0.211244 -0.035366 0.183264
v 0.258291 -0.002590 0.206453
v 0.275155 -0.014945 0.190144
v 0.128261 0.057894 0.026816
v 0.145617 0.045179 0.010030
v 0.173630 0.099153 -0.001261
v 0.157172 0.112612 0.014854
v 0.120438 0.045179 0.168870
v 0.109124 0.057894 0.147539
v 0.132918 0.112612 0.167856
v 0.143586 0.099153 0.188271
v 0.136198 0.133846 0.043044
v 0.121691 0.133846 0.134562
v 0.463453 -0.075845 0.060413
v 0.479490 -0.075845 0.082492
v 0.497354 -0.018179 0.069038
v 0.481772 -0.018179 0.047585
v 0.460353 -0.075845 0.203216
v 0.438274 -0.075845 0.219253
v 0.451728 -0.018179 0.237116
v 0.473181 -0.018179 0.221534
v 0.320650 -0.075845 0.057313
v 0.342729 -0.075845 0.041276
v 0.329276 -0.018179 0.023412
v 0.307823 -0.018179 0.038994
v 0.317550 -0.075845 0.200116
v 0.301513 -0.075845 0.178037
v 0.283649 -0.018179 0.191490
v 0.299231 -0.018179 0.212943
v 0.236423 -0.035366 0.024424
v 0.247737 -0.048081 0.045755
v 0.299329 -0.014945 0.037648
v 0.288336 -0.002590 0.016922
v 0.228600 -0.048081 0.166479
v 0.211244 -0.035366 0.183264
v 0.258291 -0.002590 0.206453
v 0.275155 -0.014945 0.190144
v 0.128261 0.057894 0.026816
v 0.145617 0.045179 0.010030
v 0.173630 0.099153 -0.001261
v 0.157172 0.112612 0.014854
v 0.120438 0.045179 0.168870
v 0.109124 0.057894 0.147539
v 0.132918 0.112612 0.167856
v 0.143586 0.099153 0.188271
v 0.136198 0.133846 0.043044
v 0.121691 0.133846 0.134562
v -0.034625 -0.075101 -0.443905
v -0.038154 0.066334 -0.442666
v 0.014347 -0.075101 -0.420321
v 0.012103 0.071947 -0.422735
v 0.026442 -0.075101 -0.367329
v 0.027311 0.082491 -0.371628
v -0.007448 -0.075101 -0.324833
v -0.003982 0.090027 -0.327828
v -0.061803 -0.075101 -0.324833
v -0.058211 0.088879 -0.324318
v -0.095692 -0.075101 -0.367329
v -0.094541 0.079912 -0.363741
v -0.083597 -0.075101 -0.420321
v -0.085615 0.069879 -0.416411
v -0.033390 0.002632 -0.438405
v 0.013838 -0.009294 -0.414031
v 0.024525 -0.013218 -0.360765
v -0.009378 -0.006185 -0.318718
v -0.062341 0.006508 -0.319552
v -0.094481 0.015304 -0.362639
v -0.081596 0.013579 -0.415533
v -0.467249 0.044191 -0.337505
v -0.241691 0.047393 -0.514067
v -0.555756 0.044191 -0.451278
v -0.322010 0.034328 -0.632023
v -0.479737 -0.076642 -0.327790
v -0.231377 -0.076642 -0.520997
v -0.568244 -0.076642 -0.441563
v -0.319885 -0.076642 -0.634770
v -0.204560 -0.005583 -0.541859
v -0.293067 -0.005583 -0.655632
v -0.293067 -0.016279 -0.655632
v -0.204560 -0.016279 -0.541859
v -0.187494 -0.000760 -0.556857
v -0.270347 -0.015898 -0.673538
v -0.268773 -0.026784 -0.672809
v -0.185920 -0.011116 -0.556128
v -0.388459 0.035245 -0.399277
v -0.476975 0.020496 -0.512565
v -0.476975 -0.076642 -0.512565
v -0.388467 -0.076642 -0.398792
v -0.296724 0.042932 -0.469684
v -0.385222 0.020496 -0.583942
v -0.385222 -0.076642 -0.583942
v -0.296715 -0.076642 -0.470169
v -0.000672 -0.044092 -0.031526
v 0.023221 -0.025412 -0.184321
v -0.017127 -0.010529 -0.028217
v 0.000082 0.021784 -0.179668
v -0.053720 -0.002239 -0.028928
v -0.051374 0.033440 -0.180668
v -0.082894 -0.025466 -0.033124
v -0.092399 0.000780 -0.186568
v -0.082681 -0.062718 -0.037645
v -0.092100 -0.051604 -0.192926
v -0.053242 -0.085944 -0.039087
v -0.050703 -0.084265 -0.194953
v -0.016745 -0.077655 -0.036364
v 0.000620 -0.072608 -0.191124
v 0.004667 0.028040 -0.178692
v 0.030874 -0.025412 -0.183962
v -0.053609 0.041241 -0.179824
v -0.100071 0.004251 -0.186507
v -0.099733 -0.055076 -0.193707
v -0.052849 -0.092066 -0.196003
v 0.005277 -0.078864 -0.191666
v 0.005156 0.029305 -0.189092
v 0.031363 -0.024147 -0.194362
v -0.053120 0.042506 -0.190225
v -0.099583 0.005516 -0.196907
v -0.099244 -0.053811 -0.204107
v -0.052360 -0.090801 -0.206403
v 0.005766 -0.077599 -0.202066
v 0.001103 0.023776 -0.189955
v 0.024599 -0.024147 -0.194680
v -0.051145 0.035612 -0.190971
v -0.092802 0.002448 -0.196962
v -0.092499 -0.050743 -0.203417
v -0.050464 -0.083907 -0.205476
v 0.001650 -0.072071 -0.201587
v -0.002079 0.020332 -0.206383
v 0.018798 -0.022251 -0.210581
v -0.048505 0.030849 -0.207285
v -0.085519 0.001381 -0.212608
v -0.085249 -0.045882 -0.218344
v -0.047899 -0.075350 -0.220173
v -0.001593 -0.064833 -0.216718
v -0.558220 -0.032815 0.539816
v -0.542926 -0.078024 0.560968
v -0.512339 -0.078024 0.603271
v -0.497046 -0.032815 0.624423
v -0.512339 0.012394 0.603271
v -0.542926 0.012394 0.560968
v -0.514206 -0.056917 0.555241
v -0.522359 -0.032815 0.543965
v -0.497899 -0.056917 0.577793
v -0.489746 -0.032815 0.589069
v -0.497900 -0.008714 0.577793
v -0.514206 -0.008714 0.555241
v -0.433642 -0.045205 0.505334
v -0.437833 -0.032815 0.499538
v -0.425259 -0.045205 0.516928
v -0.421068 -0.032815 0.522724
v -0.425259 -0.020426 0.516928
v -0.433642 -0.020426 0.505334
v -0.699733 -0.032815 0.661442
v -0.697920 -0.032815 0.640826
v -0.689022 -0.064476 0.676254
v -0.682627 -0.078024 0.661977
v -0.667602 -0.064476 0.705880
v -0.652040 -0.078024 0.704280
v -0.656892 -0.032815 0.720693
v -0.636746 -0.032815 0.725432
v -0.667602 -0.001155 0.705880
v -0.652040 0.012394 0.704280
v -0.689022 -0.001155 0.676254
v -0.682627 0.012394 0.661977
v 0.784911 -0.040728 0.278730
v 0.796103 -0.018959 0.310650
v 0.686648 -0.029379 0.450414
v 0.719839 -0.033552 0.443897
v 0.767276 -0.055864 0.268637
v 0.767373 -0.078415 0.294206
v 0.669013 -0.058576 0.440321
v 0.691109 -0.075149 0.427453
v 0.732007 -0.056412 0.248450
v 0.709912 -0.081485 0.261318
v 0.633744 -0.053173 0.420135
v 0.633648 -0.073236 0.394566
v 0.714373 -0.022493 0.238357
v 0.681181 -0.028628 0.244875
v 0.616110 -0.027425 0.410042
v 0.604918 -0.017396 0.378122
v 0.732007 -0.021439 0.248450
v 0.709912 -0.006506 0.261318
v 0.633744 -0.003233 0.420135
v 0.633648 -0.002108 0.394566
v 0.767276 -0.011475 0.268637
v 0.767373 -0.004075 0.294206
v 0.669013 -0.009968 0.440321
v 0.691109 0.000315 0.427453
v 0.774713 -0.024240 0.348043
v 0.746134 -0.078133 0.331316
v 0.746150 -0.033558 0.331306
v 0.689016 -0.073232 0.297838
v 0.660469 -0.039735 0.281092
v 0.689035 -0.022059 0.297826
v 0.754936 -0.034120 0.375185
v 0.722368 -0.030550 0.369083
v 0.722817 -0.074061 0.368677
v 0.657746 -0.073273 0.356416
v 0.624763 -0.029476 0.350690
v 0.657176 -0.017961 0.356932
v 0.323999 -0.078184 0.713873
v 0.278761 -0.051963 0.709861
v 0.278761 0.000479 0.709861
v 0.323999 0.026700 0.713873
v 0.369238 0.000479 0.717886
v 0.369238 -0.051963 0.717886
v 0.342646 -0.065561 0.503631
v 0.341158 -0.078184 0.520408
v 0.308297 -0.045652 0.500584
v 0.295919 -0.051963 0.516396
v 0.308297 -0.005833 0.500584
v 0.295919 0.000479 0.516396
v 0.342646 0.014076 0.503631
v 0.341158 0.026700 0.520408
v 0.376995 -0.005833 0.506677
v 0.386397 0.000479 0.524420
v 0.376995 -0.045652 0.506677
v 0.386397 -0.051963 0.524420
v 0.321841 -0.049690 0.762322
v 0.301170 -0.037709 0.760489
v 0.301170 -0.013746 0.760489
v 0.321841 -0.001765 0.762322
v 0.342512 -0.013746 0.764156
v 0.342512 -0.037709 0.764156
v 0.318360 -0.049745 0.797845
v 0.297689 -0.037764 0.796011
v 0.297689 -0.013801 0.796011
v 0.318360 -0.001820 0.797845
v 0.339032 -0.013801 0.799678
v 0.339032 -0.037764 0.799678
v -0.051150 -0.026356 0.455474
v -0.071438 0.001503 0.475997
v -0.112013 0.012311 0.517044
v -0.132301 -0.037342 0.537568
v -0.112013 -0.070426 0.517044
v -0.071438 -0.075342 0.475997
v 0.104288 -0.019414 0.628661
v 0.100871 -0.019639 0.605749
v 0.088884 0.009334 0.644244
v 0.080584 0.006412 0.626272
v 0.058076 0.021860 0.675410
v 0.040008 0.018063 0.667319
v 0.042672 -0.024268 0.690993
v 0.019721 -0.012664 0.687842
v 0.058076 -0.052834 0.675410
v 0.040008 -0.064961 0.667319
v 0.088884 -0.060289 0.644244
v 0.080584 -0.075362 0.626272
v -0.111119 -0.038105 0.440289
v -0.120389 -0.002465 0.449667
v -0.138929 -0.005292 0.468423
v -0.148199 -0.023483 0.477801
v -0.138929 -0.047121 0.468423
v -0.120389 -0.048581 0.449667
v -0.139012 -0.019640 0.412632
v -0.148282 0.001494 0.422009
v -0.166823 0.004662 0.440765
v -0.176093 -0.014770 0.450143
v -0.166823 -0.035506 0.440765
v -0.148282 -0.036511 0.422009
v 0.065193 -0.028557 0.570480
v 0.044905 0.013916 0.591004
v 0.044905 -0.072964 0.591004
v 0.004330 0.008495 0.632051
v -0.015958 -0.017459 0.652574
v 0.004330 -0.065454 0.632051
v 0.007021 -0.023675 0.512977
v -0.013266 -0.067747 0.533500
v -0.013266 -0.029539 0.533500
v -0.053842 -0.032786 0.574547
v -0.074129 -0.022299 0.595071
v -0.053842 -0.077051 0.574547
v -0.307860 -0.024761 0.193906
v -0.306752 0.059565 0.146373
v -0.291571 -0.079035 0.083991
v -0.305416 0.012599 0.072976
v -0.244318 -0.037769 0.193632
v -0.244311 0.047061 0.157656
v -0.244350 -0.072517 0.109613
v -0.248102 0.013424 0.068568
v -0.315410 -0.078703 0.152075
v -0.319013 0.050263 0.101974
v -0.232627 -0.065005 0.155694
v -0.236619 0.039832 0.106027
v -0.312271 0.026976 0.174477
v -0.302814 -0.039788 0.056947
v -0.233541 -0.032952 0.081504
v -0.226766 0.022197 0.178782
v -0.206974 -0.012099 0.133864
v -0.344174 -0.012099 0.133864
v 0.435361 -0.083561 -0.239715
v 0.208766 -0.083561 -0.392353
v 0.461708 -0.056333 -0.278829
v 0.235114 -0.056333 -0.431467
v 0.461708 -0.001876 -0.278829
v 0.235114 -0.001876 -0.431467
v 0.435361 0.025352 -0.239715
v 0.208766 0.025352 -0.392353
v 0.409013 -0.001876 -0.200601
v 0.182419 -0.001876 -0.353239
v 0.409013 -0.056333 -0.200601
v 0.182419 -0.056333 -0.353239
v 0.208965 -0.049928 -0.435706
v 0.188815 -0.070752 -0.405793
v 0.208965 -0.008281 -0.435706
v 0.188815 0.012542 -0.405793
v 0.168665 -0.008281 -0.375879
v 0.168665 -0.049928 -0.375879
v 0.185315 -0.036636 -0.423879
v 0.178027 -0.044168 -0.413060
v 0.185315 -0.021573 -0.423879
v 0.178027 -0.014041 -0.413060
v 0.170739 -0.021573 -0.402240
v 0.170739 -0.036636 -0.402240
v 0.117767 -0.036636 -0.469381
v 0.110479 -0.044168 -0.458561
v 0.117767 -0.021573 -0.469381
v 0.110479 -0.014041 -0.458561
v 0.103191 -0.021573 -0.447742
v 0.103191 -0.036636 -0.447742
v -0.036427 -0.066432 -0.437887
v -0.039624 0.061700 -0.436764
v 0.007939 -0.066432 -0.416521
v 0.005906 0.066785 -0.418708
v 0.018896 -0.066432 -0.368513
v 0.019683 0.076338 -0.372407
v -0.011806 -0.066432 -0.330014
v -0.008666 0.083164 -0.332727
v -0.061049 -0.066432 -0.330014
v -0.057795 0.082124 -0.329547
v -0.091751 -0.066432 -0.368513
v -0.090708 0.074001 -0.365262
v -0.080794 -0.066432 -0.416521
v -0.082621 0.064911 -0.412978
v -0.035308 0.003989 -0.432904
v 0.007478 -0.006815 -0.410823
v 0.017159 -0.010370 -0.362567
v -0.013555 -0.003999 -0.324474
v -0.061536 0.007501 -0.325229
v -0.090653 0.015470 -0.364264
v -0.078981 0.013907 -0.412184
vn 0.7671 -0.0000 0.6415
vn -0.6415 -0.0000 0.7671
vn -0.7671 -0.0000 -0.6415
vn 0.6415 -0.0000 -0.7671
vn -0.0000 -1.0000 -0.0000
vn -0.0000 1.0000 -0.0000
vn -0.1071 0.9709 -0.2142
vn 0.8358 -0.0145 -0.5489
vn 0.0022 -1.0000 0.0043
vn -0.9407 -0.0145 0.3390
vn -0.4437 -0.1230 -0.8877
vn 0.2310 -0.8563 0.4620
vn 0.1305 0.9565 0.2610
vn -0.6359 0.0501 0.7701
vn 0.9977 0.0501 -0.0464
vn 0.1071 -0.9709 0.2142
vn -0.8358 0.0145 0.5489
vn -0.0022 1.0000 -0.0043
vn 0.9407 0.0145 -0.3390
vn 0.4437 0.1230 0.8877
vn -0.2310 0.8563 -0.4620
vn -0.1305 -0.9565 -0.2610
vn 0.6359 -0.0501 -0.7701
vn -0.9977 -0.0501 0.0464
vn -0.1827 -0.3427 -0.9215
vn -0.2399 0.3596 -0.9017
vn 0.5071 0.3596 -0.7833
vn 0.4587 -0.3427 -0.8198
vn -0.9215 -0.3427 0.1827
vn -0.9017 0.3596 0.2399
vn -0.7833 0.3596 -0.5071
vn -0.8198 -0.3427 -0.4587
vn 0.9215 -0.3427 -0.1827
vn 0.9017 0.3596 -0.2399
vn 0.7833 0.3596 0.5071
vn 0.8198 -0.3427 0.4587
vn 0.1827 -0.3427 0.9215
vn 0.2399 0.3596 0.9017
vn -0.5071 0.3596 0.7833
vn -0.4587 -0.3427 0.8198
vn -0.3262 -0.0438 -0.9443
vn 0.0690 0.5082 -0.8585
vn 0.6485 0.0213 -0.7609
vn 0.1562 -0.4717 -0.8678
vn -0.9288 0.3231 0.1815
vn -0.6440 0.6344 0.4276
vn -0.4802 0.6344 -0.6058
vn -0.8271 0.3231 -0.4599
vn 0.4827 -0.8387 -0.2522
vn 0.9270 -0.2916 -0.2359
vn 0.8086 -0.2916 0.5111
vn 0.3810 -0.8387 0.3891
vn -0.1198 -0.4717 0.8736
vn 0.3814 0.0213 0.9242
vn -0.1998 0.5082 0.8377
vn -0.6023 -0.0438 0.7971
vn -0.6508 -0.7522 -0.1032
vn -0.9757 0.1935 0.1030
vn -0.8960 0.1935 -0.3997
vn 0.1834 0.3297 0.9261
vn -0.4608 0.3297 0.8240
vn -0.1493 0.9673 0.2049
vn 0.0786 0.9673 0.2411
vn 0.9261 0.3297 -0.1834
vn 0.8240 0.3297 0.4608
vn 0.2049 0.9673 0.1493
vn 0.2411 0.9673 -0.0786
vn -0.9261 0.3297 0.1834
vn -0.8240 0.3297 -0.4608
vn -0.2049 0.9673 -0.1493
vn -0.2411 0.9673 0.0786
vn -0.1834 0.3297 -0.9261
vn 0.4608 0.3297 -0.8240
vn 0.1493 0.9673 -0.2049
vn -0.0786 0.9673 -0.2411
vn 0.3177 0.0337 0.9476
vn -0.1664 0.4629 0.8707
vn 0.5085 0.8036 0.3092
vn 0.6790 0.6625 0.3164
vn 0.9244 -0.3338 -0.1845
vn 0.8220 -0.3338 0.4613
vn 0.8104 0.5849 0.0331
vn 0.7809 0.5849 0.2192
vn -0.4947 0.8318 0.2518
vn -0.3926 0.8318 -0.3924
vn 0.4799 0.8764 -0.0408
vn 0.4438 0.8764 0.1872
vn 0.1110 0.4629 -0.8794
vn 0.5952 0.0337 -0.8029
vn 0.7435 0.6625 -0.0909
vn 0.5792 0.8036 -0.1368
vn 0.6508 0.7522 0.1032
vn 0.1814 0.9668 -0.1798
vn 0.1169 0.9668 0.2271
vn 0.0048 -0.0002 -1.0000
vn -0.0788 0.7596 -0.6456
vn 0.4279 0.7487 -0.5063
vn 0.7960 0.0087 -0.6052
vn 0.5998 0.8001 0.0087
vn 0.9688 -0.0014 0.2477
vn 0.2537 0.8621 0.4387
vn 0.4226 -0.0071 0.9063
vn -0.3038 0.8717 0.3845
vn -0.4291 0.0078 0.9032
vn -0.5417 0.8388 -0.0543
vn -0.9715 0.0038 0.2372
vn -0.4273 0.8111 -0.3995
vn -0.7891 -0.0088 -0.6142
vn -0.7707 0.0523 -0.6351
vn 0.0108 0.0750 -0.9971
vn -0.9807 -0.0004 0.1953
vn -0.4548 -0.0596 0.8886
vn 0.4394 -0.0625 0.8961
vn 0.9792 0.0036 0.2029
vn 0.7798 0.0618 -0.6230
vn -0.1722 0.9847 -0.0254
vn -0.6101 0.0042 -0.7923
vn 0.6203 0.0024 0.7843
vn -0.7826 0.1298 0.6088
vn 0.6878 -0.4905 -0.5351
vn -0.0480 -0.9935 0.1032
vn 0.5819 0.6695 -0.4617
vn 0.6051 0.0054 0.7961
vn -0.6250 0.0067 -0.7806
vn 0.8078 0.0796 -0.5841
vn 0.0515 0.9933 -0.1036
vn 0.6199 0.0734 0.7813
vn -0.6167 -0.0714 -0.7840
vn 0.6154 0.0015 0.7882
vn -0.6140 -0.0000 -0.7893
vn 0.0958 0.9857 -0.1387
vn 0.6114 -0.0000 0.7913
vn -0.1041 0.9913 -0.0810
vn 0.9882 -0.0129 0.1529
vn 0.6087 0.7590 0.2311
vn 0.6106 0.7575 0.2310
vn -0.2330 0.9475 0.2192
vn -0.2301 0.9481 0.2194
vn -0.9019 0.4130 0.1265
vn -0.9013 0.4142 0.1267
vn -0.8970 -0.4413 0.0228
vn -0.8965 -0.4425 0.0227
vn -0.2220 -0.9749 -0.0141
vn -0.2191 -0.9756 -0.0141
vn -0.0466 -0.1206 0.9916
vn 0.6175 -0.7854 0.0437
vn 0.6194 -0.7839 0.0439
vn 0.9989 -0.0000 0.0469
vn 0.6272 -0.7761 -0.0649
vn 0.0466 0.1206 -0.9916
vn -0.2168 -0.9678 -0.1279
vn -0.8975 -0.4307 -0.0946
vn -0.9024 0.4307 0.0100
vn -0.2278 0.9678 0.1070
vn 0.6184 0.7761 0.1235
vn -0.8022 0.4402 -0.4034
vn -0.1935 0.9329 -0.3037
vn -0.1838 0.9352 -0.3028
vn -0.8003 0.4442 -0.4028
vn 0.5848 0.7637 -0.2734
vn 0.9402 0.0463 -0.3375
vn 0.5912 0.7587 -0.2736
vn 0.5930 -0.6695 -0.4473
vn -0.1835 -0.8353 -0.5183
vn -0.1737 -0.8376 -0.5179
vn 0.5993 -0.6645 -0.4463
vn -0.7977 -0.3399 -0.4981
vn -0.7958 -0.3439 -0.4985
vn -0.5737 0.8037 -0.1578
vn -0.0108 0.8181 -0.5750
vn -0.2875 -0.0000 -0.9578
vn -0.8456 -0.0000 -0.5339
vn -0.0299 -0.8037 0.5942
vn 0.5427 -0.8181 0.1904
vn 0.8194 -0.0000 0.5732
vn 0.2420 -0.0000 0.9703
vn 0.5427 0.8181 0.1904
vn -0.0299 0.8037 0.5942
vn 0.8975 -0.0000 0.4411
vn 0.6387 0.7650 0.0832
vn -0.5737 -0.8037 -0.1578
vn -0.0108 -0.8181 -0.5750
vn 0.1211 0.7650 -0.6326
vn 0.4048 0.8573 0.3181
vn -0.1752 0.8573 -0.4841
vn 0.1211 -0.7650 -0.6326
vn 0.6387 -0.7650 0.0832
vn -0.1376 -0.0000 -0.9905
vn 0.8104 -0.0000 -0.5859
vn 0.4048 -0.8573 0.3181
vn 0.6948 -0.0000 0.7192
vn -0.4653 -0.0000 -0.8852
vn -0.1752 -0.8573 -0.4841
vn -0.8564 -0.3830 0.3463
vn -0.9859 -0.0000 0.1671
vn -0.5972 -0.3830 0.7047
vn -0.4677 -0.0000 0.8839
vn -0.5972 0.3830 0.7047
vn -0.8564 0.3830 0.3463
vn 0.2372 0.9709 -0.0341
vn 0.2521 0.9404 0.2284
vn 0.6726 0.1174 0.7306
vn 0.8449 0.2987 0.4438
vn -0.4061 -0.8931 -0.1934
vn -0.5772 -0.8146 0.0570
vn -0.9070 0.3284 -0.2637
vn -0.7772 0.1909 -0.5996
vn -0.2855 0.9545 -0.0861
vn -0.0391 0.9557 -0.2919
vn 0.3744 -0.9010 0.2193
vn 0.1854 -0.8440 0.5033
vn -0.2855 -0.4500 0.8462
vn -0.0187 0.0955 0.9953
vn -0.2304 0.5692 0.7893
vn -0.4804 0.6424 0.5972
vn -0.8499 0.0460 0.5250
vn -0.6405 -0.4102 0.6491
vn 0.8918 0.4013 0.2088
vn 0.5664 -0.8228 -0.0461
vn 0.6282 -0.3868 -0.6751
vn 0.8546 -0.0880 -0.5117
vn -0.1731 -0.8353 -0.5218
vn 0.2784 -0.3679 -0.8872
vn -0.6617 0.2369 -0.7113
vn 0.0307 0.3148 -0.9487
vn -0.2042 0.9662 -0.1575
vn 0.3206 0.5114 -0.7973
vn 0.2362 0.9715 -0.0200
vn 0.4900 0.5571 -0.6705
vn 0.6322 0.4485 0.6318
vn 0.3913 -0.8815 0.2643
vn -0.4213 -0.8885 -0.1820
vn -0.2517 0.9667 0.0469
vn -0.0564 0.9749 0.2156
vn -0.9046 0.1008 -0.4141
vn 0.8513 -0.4786 -0.2150
vn 0.8177 -0.4883 0.3050
vn -0.0256 -0.9698 0.2425
vn 0.0256 -0.9572 -0.2882
vn -0.8002 0.4786 -0.3615
vn -0.8576 0.4818 0.1801
vn -0.0256 0.9699 0.2423
vn 0.0256 0.9572 -0.2883
vn 0.8177 0.4882 0.3049
vn 0.8513 0.4786 -0.2150
vn -0.8002 -0.4786 -0.3615
vn -0.8576 -0.4818 0.1802
vn -0.4007 -0.2751 -0.8739
vn 0.0738 -0.5501 -0.8318
vn -0.4007 0.2750 -0.8739
vn 0.0738 0.5501 -0.8319
vn 0.5483 0.2750 -0.7898
vn 0.5483 -0.2751 -0.7898
vn -0.8476 -0.4809 0.2245
vn -0.8472 0.4812 0.2251
vn 0.8075 0.4771 0.3469
vn 0.8080 -0.4767 0.3463
vn -0.0163 0.9579 0.2866
vn -0.0162 -0.9583 0.2854
vn 0.8613 0.5009 0.0852
vn 0.8610 -0.5016 0.0836
vn -0.8629 0.4984 -0.0838
vn -0.0031 1.0000 0.0012
vn -0.0028 -1.0000 -0.0018
vn -0.8623 -0.4991 -0.0853
vn -0.0883 -0.0000 0.9961
vn 0.3632 -0.8635 -0.3498
vn 0.1733 -0.8639 -0.4730
vn 0.5514 0.1683 -0.8171
vn 0.6682 0.2659 -0.6949
vn -0.1792 0.9761 0.1230
vn -0.2432 0.9364 0.2528
vn -0.8317 0.0085 0.5552
vn -0.6859 0.2876 0.6684
vn -0.4948 -0.8532 0.1648
vn -0.3013 -0.8852 0.3545
vn 0.1476 0.9730 -0.1776
vn 0.2591 0.9246 -0.2794
vn 0.8559 0.1335 -0.4996
vn 0.4063 0.8577 -0.3152
vn 0.6992 0.6785 0.2252
vn 0.9820 0.1175 0.1482
vn -0.1965 0.9113 0.3617
vn 0.3537 0.7487 0.5607
vn -0.5075 0.1686 0.8450
vn 0.1540 -0.0953 0.9835
vn -0.1917 -0.7952 0.5753
vn 0.3668 -0.4508 0.8138
vn 0.5118 -0.8565 -0.0675
vn 0.7709 -0.4728 0.4268
vn 0.2893 0.8582 -0.4240
vn -0.3720 0.8902 0.2630
vn -0.5845 -0.8105 0.0392
vn -0.0351 -0.8547 -0.5179
vn -0.8755 0.0121 0.4830
vn 0.4130 -0.1938 -0.8899
vn -0.5450 -0.8085 0.2221
vn 0.0564 -0.8755 -0.4799
vn -0.1743 0.8882 0.4250
vn -0.6846 0.1120 0.7202
vn 0.6795 -0.0047 -0.7336
vn 0.4887 0.8372 -0.2455
vn -0.7112 -0.0000 -0.7030
vn 0.6524 0.0915 -0.7523
vn 0.0973 0.9258 -0.3653
vn -0.3459 0.9377 0.0323
vn -0.3617 -0.8396 0.4052
vn 0.3262 -0.8890 -0.3214
vn -0.7549 0.2306 0.6139
vn -0.9995 -0.0249 0.0183
vn -0.5435 0.7527 -0.3715
vn -0.4067 0.3466 -0.8453
vn -0.3686 -0.3015 -0.8793
vn 0.4143 0.3704 -0.8314
vn 0.6875 -0.2126 -0.6944
vn 0.9998 -0.0017 -0.0214
vn 0.5830 0.7079 -0.3987
vn 0.4067 0.8561 0.3190
vn 0.6268 0.4178 0.6577
vn -0.3495 0.8918 0.2871
vn -0.5344 0.4196 0.7337
vn -0.5347 -0.7886 0.3036
vn 0.6060 -0.7184 0.3415
vn 0.3705 -0.2802 0.8856
vn -0.4166 -0.1602 0.8948
vn -0.1967 -0.8453 -0.4967
vn 0.5232 -0.8039 -0.2829
vn -0.1873 -0.9742 -0.1262
vn 0.2841 -0.4871 -0.8259
vn 0.4838 -0.5000 -0.7183
vn 0.2841 0.4871 -0.8259
vn 0.4838 0.5000 -0.7183
vn -0.1873 0.9742 -0.1262
vn -0.6586 0.4871 0.5735
vn -0.4838 0.5000 0.7183
vn -0.5577 0.7402 -0.3756
vn -0.9158 0.3701 0.1560
vn -0.6586 -0.4871 0.5735
vn -0.4838 -0.5000 0.7183
vn 0.8294 -0.0000 0.5587
vn -0.9158 -0.3701 0.1560
vn -0.8950 0.3912 0.2141
vn -0.8950 -0.3912 0.2141
vn -0.1995 -0.3701 -0.9073
vn -0.1995 0.3701 -0.9073
vn -0.5577 -0.7402 -0.3756
vn -0.1379 0.3912 -0.9099
vn -0.5165 0.7824 -0.3479
vn -0.5165 -0.7824 -0.3479
vn -0.1379 -0.3912 -0.9099
vn -0.8294 -0.0000 -0.5587
vn -0.0048 0.0002 1.0000
vn -0.7960 -0.0087 0.6052
vn -0.6734 0.5353 0.5099
vn 0.0801 0.4921 0.8669
vn -0.9688 0.0014 -0.2477
vn -0.8372 0.4864 -0.2500
vn -0.4226 0.0071 -0.9063
vn -0.3944 0.3975 -0.8285
vn 0.4291 -0.0078 -0.9032
vn 0.3580 0.3260 -0.8750
vn 0.9715 -0.0038 -0.2372
vn 0.8972 0.3239 -0.3001
vn 0.7891 0.0088 0.6142
vn 0.7862 0.3964 0.4740
vn 0.7707 -0.0523 0.6351
vn -0.0108 -0.0750 0.9971
vn 0.9807 0.0004 -0.1953
vn 0.4548 0.0596 -0.8886
vn -0.4394 0.0625 -0.8961
vn -0.9792 -0.0036 -0.2029
vn -0.7798 -0.0618 0.6230
vt 0.190528 0.478366
vt 0.344423 0.478366
vt 0.344423 0.443374
vt 0.190528 0.443374
vt 0.011938 0.445677
vt 0.165833 0.445677
vt 0.165833 0.342481
vt 0.011938 0.342481
vt 0.011938 0.470481
vt 0.165833 0.470481
vt 0.165833 0.505473
vt 0.011938 0.505473
vt 0.496703 0.011938
vt 0.496703 0.165833
vt 0.393507 0.165833
vt 0.393507 0.011938
vt 0.794087 0.114808
vt 0.794087 0.011611
vt 0.759095 0.011611
vt 0.759095 0.114808
vt 0.803654 0.320955
vt 0.803654 0.424151
vt 0.768663 0.424151
vt 0.768663 0.320955
vt 0.816411 0.567661
vt 0.727960 0.567661
vt 0.740055 0.466062
vt 0.804316 0.466062
vt 0.253534 0.737527
vt 0.253534 0.825978
vt 0.151935 0.813883
vt 0.151935 0.749622
vt 0.553310 0.819600
vt 0.553310 0.731149
vt 0.451711 0.743244
vt 0.451711 0.807504
vt 0.832356 0.682469
vt 0.832356 0.594017
vt 0.730758 0.606113
vt 0.730758 0.670373
vt 0.726637 0.943975
vt 0.790898 0.943975
vt 0.790898 0.879714
vt 0.726637 0.879714
vt 0.511181 0.759633
vt 0.511181 0.791118
vt 0.756442 0.525532
vt 0.787927 0.525532
vt 0.548737 0.736480
vt 0.510278 0.762509
vt 0.510278 0.791280
vt 0.548737 0.817308
vt 0.547834 0.816693
vt 0.509375 0.790664
vt 0.509375 0.761893
vt 0.547834 0.735864
vt 0.202637 0.656956
vt 0.194827 0.629463
vt 0.267470 0.629463
vt 0.259659 0.656956
vt 0.881403 0.266834
vt 0.908895 0.259024
vt 0.908895 0.331667
vt 0.881403 0.323856
vt 0.884592 0.799033
vt 0.912084 0.806844
vt 0.912084 0.734201
vt 0.884592 0.742011
vt 0.597572 0.792240
vt 0.625065 0.800050
vt 0.625065 0.727407
vt 0.597572 0.735218
vt 0.277452 0.629463
vt 0.269642 0.656956
vt 0.597572 0.802222
vt 0.625065 0.810033
vt 0.625065 0.717425
vt 0.597572 0.725235
vt 0.192655 0.656956
vt 0.184844 0.629463
vt 0.476356 0.912084
vt 0.486338 0.902101
vt 0.486338 0.845080
vt 0.476356 0.835097
vt 0.419334 0.835097
vt 0.409352 0.845080
vt 0.409352 0.902101
vt 0.419334 0.912084
vt 0.912084 0.231372
vt 0.884592 0.239183
vt 0.884592 0.166540
vt 0.912084 0.174350
vt 0.573000 0.379633
vt 0.598826 0.371822
vt 0.598826 0.444465
vt 0.573000 0.436654
vt 0.799961 0.185097
vt 0.775970 0.177287
vt 0.775970 0.249930
vt 0.799961 0.242119
vt 0.900922 0.837684
vt 0.873430 0.829874
vt 0.873430 0.902517
vt 0.900922 0.894706
vt 0.807470 0.175115
vt 0.783479 0.167304
vt 0.783479 0.259912
vt 0.807470 0.252101
vt 0.566422 0.369650
vt 0.592248 0.361839
vt 0.592248 0.454447
vt 0.566422 0.446637
vt 0.850361 0.252101
vt 0.857869 0.242119
vt 0.857869 0.185097
vt 0.850361 0.175115
vt 0.605930 0.387061
vt 0.605930 0.429226
vt 0.338453 0.804507
vt 0.381008 0.807095
vt 0.384287 0.773505
vt 0.330056 0.773101
vt 0.696863 0.708126
vt 0.751171 0.703207
vt 0.757648 0.737428
vt 0.693661 0.743628
vt 0.762196 0.766739
vt 0.697893 0.771763
vt 0.750376 0.230719
vt 0.752629 0.294992
vt 0.716460 0.293467
vt 0.714858 0.238447
vt 0.067912 0.762196
vt 0.122781 0.757534
vt 0.116089 0.731394
vt 0.073005 0.733292
vt 0.108447 0.696435
vt 0.070902 0.698034
vt 0.346206 0.836576
vt 0.383814 0.838735
vt 0.893155 0.489428
vt 0.908895 0.456744
vt 0.893155 0.424060
vt 0.857788 0.415988
vt 0.829426 0.438606
vt 0.829426 0.474882
vt 0.857788 0.497500
vt 0.287045 0.838735
vt 0.286590 0.806054
vt 0.012606 0.731790
vt 0.011652 0.696435
vt 0.013371 0.760142
vt 0.752629 0.184762
vt 0.716360 0.184000
vt 0.652437 0.738570
vt 0.651972 0.766928
vt 0.653018 0.703207
vt 0.286136 0.773373
vt 0.420202 0.685658
vt 0.454810 0.685050
vt 0.459231 0.615325
vt 0.420351 0.614902
vt 0.235702 0.123685
vt 0.227637 0.162317
vt 0.281880 0.165776
vt 0.283232 0.125271
vt 0.514243 0.302302
vt 0.514243 0.342829
vt 0.443673 0.342829
vt 0.443673 0.302302
vt 0.369139 0.126679
vt 0.369139 0.167206
vt 0.308414 0.161138
vt 0.310598 0.126530
vt 0.012597 0.934408
vt 0.071755 0.934408
vt 0.071755 0.863837
vt 0.012597 0.863837
vt 0.242372 0.851081
vt 0.242372 0.921651
vt 0.212820 0.921651
vt 0.212820 0.851081
vt 0.924948 0.597614
vt 0.928030 0.668118
vt 0.913463 0.668088
vt 0.913463 0.598027
vt 0.296636 0.933667
vt 0.291377 0.863847
vt 0.317316 0.863847
vt 0.316166 0.934408
vt 0.339586 0.183840
vt 0.334350 0.183840
vt 0.246555 0.181241
vt 0.251789 0.181415
vt 0.620281 0.905536
vt 0.614901 0.905706
vt 0.615159 0.835321
vt 0.620281 0.835123
vt 0.189941 0.344013
vt 0.189941 0.414584
vt 0.201044 0.413918
vt 0.204103 0.343924
vt 0.337059 0.195333
vt 0.331989 0.194944
vt 0.251130 0.195563
vt 0.256444 0.196130
vt 0.369139 0.013155
vt 0.369139 0.069767
vt 0.314361 0.069916
vt 0.309982 0.020901
vt 0.514243 0.188777
vt 0.514243 0.245390
vt 0.443673 0.245390
vt 0.443673 0.188777
vt 0.227637 0.017578
vt 0.237600 0.066805
vt 0.285131 0.068391
vt 0.287019 0.011810
vt 0.314573 0.685473
vt 0.363588 0.685288
vt 0.363439 0.614902
vt 0.314573 0.614902
vt 0.011844 0.815701
vt 0.097268 0.815701
vt 0.097268 0.789479
vt 0.011844 0.797054
vt 0.654449 0.805922
vt 0.739872 0.800361
vt 0.739872 0.828736
vt 0.654449 0.826100
vt 0.739872 0.851491
vt 0.654449 0.842282
vt 0.853666 0.306837
vt 0.857869 0.392260
vt 0.828765 0.392260
vt 0.832968 0.306837
vt 0.825516 0.058086
vt 0.816307 0.143510
vt 0.839062 0.143510
vt 0.841698 0.058086
vt 0.159851 0.911154
vt 0.131476 0.904677
vt 0.128656 0.907938
vt 0.160792 0.915273
vt 0.867437 0.143510
vt 0.861876 0.058086
vt 0.011844 0.834349
vt 0.097268 0.841924
vt 0.982244 0.206362
vt 0.973264 0.187714
vt 0.953085 0.183109
vt 0.936904 0.196013
vt 0.936904 0.216711
vt 0.953085 0.229616
vt 0.973264 0.225010
vt 0.915867 0.537963
vt 0.915867 0.567661
vt 0.921651 0.567661
vt 0.921651 0.537963
vt 0.182606 0.863903
vt 0.182606 0.893007
vt 0.186563 0.894721
vt 0.186563 0.861759
vt 0.118848 0.878455
vt 0.131476 0.852232
vt 0.128656 0.848542
vt 0.114354 0.878240
vt 0.159851 0.845756
vt 0.160792 0.841207
vt 0.530483 0.914317
vt 0.516181 0.884618
vt 0.520153 0.884808
vt 0.532976 0.911434
vt 0.919056 0.393596
vt 0.919056 0.419367
vt 0.924841 0.419367
vt 0.924841 0.393596
vt 0.931812 0.315721
vt 0.931812 0.289950
vt 0.937597 0.289950
vt 0.937597 0.315721
vt 0.915867 0.508264
vt 0.921651 0.508264
vt 0.919056 0.361460
vt 0.924841 0.361460
vt 0.702196 0.502284
vt 0.702196 0.469322
vt 0.707981 0.469322
vt 0.707981 0.502284
vt 0.931812 0.257814
vt 0.937597 0.257814
vt 0.941680 0.063782
vt 0.941680 0.040677
vt 0.950353 0.039644
vt 0.950353 0.060175
vt 0.530483 0.854920
vt 0.562619 0.847585
vt 0.561788 0.851605
vt 0.532976 0.858181
vt 0.588390 0.868137
vt 0.588390 0.901100
vt 0.584893 0.899585
vt 0.584893 0.870031
vt 0.562619 0.921651
vt 0.561788 0.918011
vt 0.959689 0.922705
vt 0.971083 0.946364
vt 0.959689 0.970023
vt 0.934088 0.975866
vt 0.913557 0.959494
vt 0.913557 0.933234
vt 0.934088 0.916862
vt 0.935302 0.691403
vt 0.935302 0.718030
vt 0.943975 0.718030
vt 0.943975 0.694371
vt 0.948058 0.515743
vt 0.948058 0.544555
vt 0.956732 0.543523
vt 0.956732 0.517921
vt 0.785414 0.730305
vt 0.785414 0.700752
vt 0.794087 0.702399
vt 0.794087 0.728658
vt 0.941680 0.011864
vt 0.950353 0.014043
vt 0.935302 0.744656
vt 0.943975 0.741689
vt 0.948058 0.567661
vt 0.956732 0.564053
vt 0.659887 0.530303
vt 0.659887 0.615919
vt 0.682340 0.615919
vt 0.682340 0.530303
vt 0.480872 0.659887
vt 0.566488 0.659887
vt 0.566488 0.682340
vt 0.480872 0.682340
vt 0.566488 0.704792
vt 0.480872 0.704792
vt 0.446062 0.372442
vt 0.446062 0.458058
vt 0.471988 0.458058
vt 0.471988 0.372442
vt 0.579713 0.682340
vt 0.579713 0.694309
vt 0.733494 0.012073
vt 0.733494 0.097690
vt 0.707568 0.097690
vt 0.707568 0.012073
vt 0.704792 0.615919
vt 0.704792 0.530303
vt 0.465935 0.471284
vt 0.452114 0.471284
vt 0.455471 0.518230
vt 0.462576 0.518230
vt 0.727441 0.110915
vt 0.713620 0.110915
vt 0.682340 0.629144
vt 0.694309 0.629144
vt 0.579713 0.670370
vt 0.670370 0.629144
vt 0.097268 0.592810
vt 0.091115 0.596363
vt 0.084962 0.592810
vt 0.084962 0.585705
vt 0.091115 0.582153
vt 0.097268 0.585705
vt 0.626659 0.676187
vt 0.626659 0.682340
vt 0.682340 0.676090
vt 0.688493 0.676090
vt 0.676187 0.676090
vt 0.626659 0.688493
vt 0.724083 0.157861
vt 0.716978 0.157861
vt 0.959792 0.487933
vt 0.982244 0.474970
vt 0.975516 0.471085
vt 0.959792 0.480164
vt 0.982244 0.449044
vt 0.975516 0.452929
vt 0.959792 0.436081
vt 0.959792 0.443851
vt 0.937339 0.449044
vt 0.944068 0.452929
vt 0.468103 0.365713
vt 0.449946 0.365713
vt 0.937339 0.474970
vt 0.944068 0.471085
vt 0.834679 0.815770
vt 0.834679 0.841312
vt 0.849896 0.841312
vt 0.849896 0.815770
vt 0.913793 0.057635
vt 0.915273 0.083134
vt 0.889641 0.084511
vt 0.893559 0.058722
vt 0.789027 0.815770
vt 0.789027 0.841312
vt 0.804244 0.841312
vt 0.804244 0.815770
vt 0.889760 0.567020
vt 0.889760 0.592562
vt 0.859326 0.592562
vt 0.859326 0.567020
vt 0.366729 0.899841
vt 0.353956 0.910050
vt 0.344433 0.901322
vt 0.340106 0.882887
vt 0.350583 0.872831
vt 0.363012 0.881366
vt 0.866464 0.682439
vt 0.865948 0.707981
vt 0.885070 0.707981
vt 0.884698 0.682439
vt 0.859240 0.637405
vt 0.886571 0.637405
vt 0.876205 0.627226
vt 0.869247 0.627226
vt 0.374720 0.905200
vt 0.356649 0.921651
vt 0.849896 0.916264
vt 0.843962 0.886381
vt 0.834184 0.894852
vt 0.838423 0.913047
vt 0.883883 0.602741
vt 0.865203 0.602741
vt 0.816722 0.877440
vt 0.816805 0.889527
vt 0.345204 0.861408
vt 0.371825 0.874891
vt 0.789027 0.770736
vt 0.804244 0.770736
vt 0.810121 0.760556
vt 0.800781 0.760556
vt 0.800781 0.851491
vt 0.810121 0.851491
vt 0.834679 0.770736
vt 0.828802 0.760556
vt 0.828802 0.851491
vt 0.816722 0.924466
vt 0.827016 0.937597
vt 0.833910 0.923784
vt 0.818614 0.917945
vt 0.340106 0.907499
vt 0.818577 0.898711
vt 0.861661 0.656897
vt 0.886438 0.656897
vt 0.889760 0.521986
vt 0.889760 0.541478
vt 0.859326 0.541478
vt 0.859326 0.521986
vt 0.804244 0.790228
vt 0.834679 0.790228
vt 0.789027 0.790228
vt 0.915273 0.012456
vt 0.912534 0.032124
vt 0.897160 0.032950
vt 0.891011 0.013760
vt 0.849896 0.790228
vt 0.849896 0.770736
vt 0.020245 0.669712
vt 0.116264 0.669712
vt 0.116264 0.647260
vt 0.020245 0.647260
vt 0.679279 0.366263
vt 0.679279 0.462282
vt 0.656827 0.462282
vt 0.656827 0.366263
vt 0.634375 0.462282
vt 0.634375 0.366263
vt 0.662921 0.176511
vt 0.662921 0.272530
vt 0.688847 0.272530
vt 0.688847 0.176511
vt 0.150998 0.685245
vt 0.247017 0.685245
vt 0.247017 0.711170
vt 0.150998 0.711170
vt 0.116264 0.624807
vt 0.020245 0.624807
vt 0.011918 0.630212
vt 0.011918 0.647260
vt 0.142671 0.708050
vt 0.142671 0.688364
vt 0.656827 0.357936
vt 0.673875 0.357936
vt 0.639779 0.357936
vt 0.685727 0.168184
vt 0.666042 0.168184
vt 0.011918 0.664307
vt 0.253534 0.975591
vt 0.253534 0.955906
vt 0.236486 0.946063
vt 0.219438 0.955906
vt 0.219438 0.975591
vt 0.236486 0.985434
vt 0.270969 0.692291
vt 0.270969 0.704138
vt 0.669953 0.296482
vt 0.681800 0.296482
vt 0.666033 0.486234
vt 0.655774 0.486234
vt 0.140216 0.648313
vt 0.140216 0.638054
vt 0.140216 0.658572
vt 0.645514 0.486234
vt 0.669981 0.314127
vt 0.681827 0.314127
vt 0.666196 0.503879
vt 0.655936 0.503879
vt 0.157861 0.648150
vt 0.157861 0.637891
vt 0.157861 0.658410
vt 0.645677 0.503879
vt 0.288614 0.692264
vt 0.288614 0.704111
vt 0.033486 0.976321
vt 0.023226 0.982244
vt 0.012967 0.976321
vt 0.012967 0.964475
vt 0.023226 0.958551
vt 0.033486 0.964475
vt 0.496193 0.434870
vt 0.496193 0.472471
vt 0.519171 0.472471
vt 0.519171 0.434870
vt 0.259469 0.502571
vt 0.297070 0.502571
vt 0.297070 0.525549
vt 0.259469 0.525549
vt 0.297070 0.548526
vt 0.259469 0.548526
vt 0.520400 0.081677
vt 0.520400 0.119278
vt 0.546932 0.119278
vt 0.546932 0.081677
vt 0.080880 0.529967
vt 0.118480 0.529967
vt 0.118480 0.556499
vt 0.080880 0.556499
vt 0.542148 0.472471
vt 0.542148 0.434870
vt 0.519171 0.374207
vt 0.542148 0.374207
vt 0.536617 0.365686
vt 0.519171 0.365686
vt 0.020217 0.529967
vt 0.020217 0.556499
vt 0.011695 0.553305
vt 0.011695 0.533160
vt 0.198807 0.502571
vt 0.198807 0.525549
vt 0.190285 0.525549
vt 0.190285 0.508102
vt 0.198807 0.548526
vt 0.190285 0.542995
vt 0.520400 0.021014
vt 0.546932 0.021014
vt 0.543739 0.012493
vt 0.523593 0.012493
vt 0.496193 0.374207
vt 0.501724 0.365686
vt 0.865936 0.982244
vt 0.883382 0.972172
vt 0.883382 0.952026
vt 0.865936 0.941954
vt 0.848489 0.952026
vt 0.848489 0.972172
vt 0.142993 0.537178
vt 0.142993 0.549302
vt 0.527597 0.143790
vt 0.539720 0.143790
vt 0.321582 0.516128
vt 0.321582 0.526627
vt 0.518093 0.496983
vt 0.528592 0.496983
vt 0.507593 0.496983
vt 0.321582 0.537126
vt 0.527624 0.161847
vt 0.539748 0.161847
vt 0.339640 0.515961
vt 0.339640 0.526460
vt 0.518259 0.515040
vt 0.528758 0.515040
vt 0.507760 0.515040
vt 0.339640 0.536959
vt 0.161050 0.537151
vt 0.161050 0.549274
vt 0.838735 0.718498
vt 0.838735 0.730622
vt 0.828235 0.736683
vt 0.817736 0.730622
vt 0.817736 0.718498
vt 0.828235 0.712436
vt 0.519171 0.397269
vt 0.542148 0.397269
vt 0.043279 0.529967
vt 0.043279 0.556499
vt 0.520400 0.044076
vt 0.546932 0.044076
vt 0.221869 0.525549
vt 0.221869 0.548526
vt 0.221869 0.502571
vt 0.496193 0.397269
vt 0.670856 0.908040
vt 0.700009 0.921710
vt 0.699932 0.899859
vt 0.690997 0.876314
vt 0.591772 0.956379
vt 0.591772 0.975866
vt 0.618138 0.975370
vt 0.623470 0.953025
vt 0.493508 0.959185
vt 0.500191 0.985433
vt 0.476355 0.982954
vt 0.469676 0.969525
vt 0.420962 0.967832
vt 0.410404 0.980370
vt 0.380848 0.982244
vt 0.381816 0.963322
vt 0.925504 0.136243
vt 0.963110 0.129203
vt 0.956044 0.108816
vt 0.926736 0.108816
vt 0.135537 0.965446
vt 0.097825 0.961920
vt 0.105289 0.942015
vt 0.134110 0.942015
vt 0.128425 0.985433
vt 0.102341 0.981333
vt 0.938798 0.164239
vt 0.959448 0.150473
vt 0.519176 0.955666
vt 0.519824 0.977789
vt 0.667111 0.933675
vt 0.686500 0.937597
vt 0.645478 0.920355
vt 0.645478 0.888976
vt 0.511006 0.934906
vt 0.489614 0.933165
vt 0.418210 0.938740
vt 0.388491 0.938740
vt 0.469676 0.941126
vt 0.595615 0.934683
vt 0.617176 0.931630
vt 0.670117 0.869676
vt 0.561779 0.186426
vt 0.561779 0.322112
vt 0.585201 0.322112
vt 0.585201 0.186426
vt 0.144170 0.575696
vt 0.279856 0.575696
vt 0.279856 0.602741
vt 0.144170 0.602741
vt 0.364219 0.543141
vt 0.499904 0.543141
vt 0.499904 0.566563
vt 0.364219 0.566563
vt 0.499904 0.589984
vt 0.364219 0.589984
vt 0.511851 0.566563
vt 0.511851 0.584475
vt 0.610776 0.184034
vt 0.610776 0.319720
vt 0.637821 0.319720
vt 0.637821 0.184034
vt 0.538358 0.186426
vt 0.538358 0.322112
vt 0.972677 0.871454
vt 0.972677 0.844409
vt 0.949255 0.830887
vt 0.925834 0.844409
vt 0.925834 0.871454
vt 0.949255 0.884977
vt 0.961143 0.808438
vt 0.943230 0.798096
vt 0.954664 0.791495
vt 0.961143 0.795236
vt 0.291803 0.578877
vt 0.291803 0.599560
vt 0.613957 0.331667
vt 0.634640 0.331667
vt 0.561779 0.334059
vt 0.579692 0.334059
vt 0.511851 0.548650
vt 0.543867 0.334059
vt 0.892949 0.353406
vt 0.885468 0.353406
vt 0.885468 0.393854
vt 0.892949 0.393854
vt 0.943230 0.777413
vt 0.961143 0.767071
vt 0.961143 0.780274
vt 0.954664 0.784014
vt 0.979055 0.777413
vt 0.979055 0.798096
vt 0.967622 0.791495
vt 0.967622 0.784014
vt 0.411294 0.204103
vt 0.404815 0.200362
vt 0.404815 0.192881
vt 0.411294 0.189140
vt 0.417773 0.192881
vt 0.417773 0.200362
vt 0.956631 0.592589
vt 0.963110 0.592589
vt 0.963110 0.633037
vt 0.956631 0.633037
vt 0.966299 0.340650
vt 0.959820 0.340650
vt 0.959820 0.381098
vt 0.966299 0.381098
vt 0.953341 0.340650
vt 0.953341 0.381098
vt 0.950152 0.592589
vt 0.950152 0.633037
vt 0.965196 0.257733
vt 0.972677 0.257733
vt 0.972677 0.298181
vt 0.965196 0.298181
vt 0.339112 0.804201
vt 0.331500 0.775723
vt 0.380642 0.776158
vt 0.377658 0.806506
vt 0.698352 0.709193
vt 0.695449 0.741343
vt 0.753422 0.735759
vt 0.747550 0.704715
vt 0.695665 0.745175
vt 0.699500 0.770692
vt 0.757754 0.766092
vt 0.753636 0.739618
vt 0.747675 0.232403
vt 0.715500 0.239408
vt 0.716948 0.289248
vt 0.749720 0.290641
vt 0.068644 0.760097
vt 0.073261 0.733941
vt 0.112285 0.732145
vt 0.118363 0.755985
vt 0.072994 0.731769
vt 0.071088 0.699821
vt 0.105107 0.698399
vt 0.112020 0.730024
vt 0.346221 0.836105
vt 0.339195 0.807071
vt 0.377755 0.809362
vt 0.380287 0.838101
vt 0.889710 0.487038
vt 0.857670 0.494351
vt 0.831975 0.473860
vt 0.831975 0.440995
vt 0.857670 0.420504
vt 0.889710 0.427817
vt 0.903970 0.457428
vt 0.292997 0.837950
vt 0.292580 0.808317
vt 0.339568 0.806935
vt 0.346592 0.835985
vt 0.018420 0.730327
vt 0.017555 0.698308
vt 0.071233 0.699751
vt 0.073138 0.731694
vt 0.019017 0.758226
vt 0.018326 0.732476
vt 0.073043 0.733859
vt 0.068430 0.760036
vt 0.749540 0.190185
vt 0.716684 0.189504
vt 0.715323 0.238827
vt 0.747500 0.231827
vt 0.658010 0.740795
vt 0.657590 0.766462
vt 0.699192 0.770854
vt 0.695357 0.745363
vt 0.658956 0.704893
vt 0.658425 0.736954
vt 0.695775 0.741521
vt 0.698675 0.709359
vt 0.292637 0.805451
vt 0.292215 0.775918
vt 0.332012 0.775616
vt 0.339618 0.804076
s 1
usemtl Trash
f 1/1/1 2/2/1 4/3/1 3/4/1
f 3/5/2 4/6/2 8/7/2 7/8/2
f 7/9/3 8/10/3 6/11/3 5/12/3
f 5/13/4 6/14/4 2/15/4 1/16/4
f 3/17/5 7/18/5 5/19/5 1/20/5
f 8/21/6 4/22/6 2/23/6 6/24/6
s 0
f 9/25/7 11/26/7 12/27/7 10/28/7
f 11/29/8 15/30/8 16/31/8 12/32/8
f 15/33/9 13/34/9 14/35/9 16/36/9
f 13/37/10 9/38/10 10/39/10 14/40/10
f 16/41/11 14/42/11 10/43/11 12/44/11
f 13/34/12 19/45/12 20/46/12 15/33/12
f 11/26/13 18/47/13 17/48/13 9/25/13
f 9/49/14 21/50/14 23/51/14 13/52/14
f 15/53/15 24/54/15 22/55/15 11/56/15
f 25/25/16 26/28/16 28/27/16 27/26/16
f 27/29/17 28/32/17 32/31/17 31/30/17
f 31/33/18 32/36/18 30/35/18 29/34/18
f 29/37/19 30/40/19 26/39/19 25/38/19
f 32/41/20 28/44/20 26/43/20 30/42/20
f 29/34/21 31/33/21 36/46/21 35/45/21
f 27/26/22 25/25/22 33/48/22 34/47/22
f 25/49/23 29/52/23 39/51/23 37/50/23
f 31/53/24 27/56/24 38/55/24 40/54/24
s 1
f 50/57/25 51/58/26 44/59/27 41/60/28
f 54/61/29 55/62/30 52/63/31 49/64/32
f 42/65/33 43/66/34 48/67/35 45/68/36
f 46/69/37 47/70/38 56/71/39 53/72/40
f 41/60/28 44/59/27 43/73/34 42/74/33
f 47/70/38 46/69/37 45/75/36 48/76/35
f 55/77/30 54/78/29 53/72/40 56/71/39
f 51/58/26 50/57/25 49/79/32 52/80/31
f 45/81/5 46/82/5 53/83/5 54/84/5 49/85/5 50/86/5 41/87/5 42/88/5
f 66/89/41 67/90/42 60/91/43 57/92/44
f 70/93/45 71/94/46 68/95/47 65/96/48
f 58/97/49 59/98/50 64/99/51 61/100/52
f 62/101/53 63/102/54 72/103/55 69/104/56
f 57/105/44 60/106/43 59/98/50 58/97/49
f 63/107/54 62/108/53 61/100/52 64/99/51
f 71/94/46 70/93/45 69/109/56 72/110/55
f 67/111/42 66/112/41 65/96/48 68/95/47
f 61/100/57 62/108/57 69/113/57 70/114/57 65/115/57 66/116/57 57/105/57 58/97/57
f 68/95/47 71/94/46 74/117/58 73/118/59
f 84/57/25 85/58/26 78/59/27 75/60/28
f 88/61/29 89/62/30 86/63/31 83/64/32
f 76/65/33 77/66/34 82/67/35 79/68/36
f 80/69/37 81/70/38 90/71/39 87/72/40
f 75/60/28 78/59/27 77/73/34 76/74/33
f 81/70/38 80/69/37 79/75/36 82/76/35
f 89/77/30 88/78/29 87/72/40 90/71/39
f 85/58/26 84/57/25 83/79/32 86/80/31
f 79/81/5 80/82/5 87/83/5 88/84/5 83/85/5 84/86/5 75/87/5 76/88/5
f 100/89/41 101/90/42 94/91/43 91/92/44
f 104/93/45 105/94/46 102/95/47 99/96/48
f 92/97/49 93/98/50 98/99/51 95/100/52
f 96/101/53 97/102/54 106/103/55 103/104/56
f 91/105/44 94/106/43 93/98/50 92/97/49
f 97/107/54 96/108/53 95/100/52 98/99/51
f 105/94/46 104/93/45 103/109/56 106/110/55
f 101/111/42 100/112/41 99/96/48 102/95/47
f 95/100/57 96/108/57 103/113/57 104/114/57 99/115/57 100/116/57 91/105/57 92/97/57
f 102/95/47 105/94/46 108/117/58 107/118/59
f 118/57/60 109/60/61 112/59/62 119/58/63
f 122/61/64 117/64/65 120/63/66 123/62/67
f 110/65/68 113/68/69 116/67/70 111/66/71
f 114/69/72 121/72/73 124/71/74 115/70/75
f 109/60/61 110/74/68 111/73/71 112/59/62
f 115/70/75 116/76/70 113/75/69 114/69/72
f 123/77/67 124/71/74 121/72/73 122/78/64
f 119/58/63 120/80/66 117/79/65 118/57/60
f 113/81/6 110/88/6 109/87/6 118/86/6 117/85/6 122/84/6 121/83/6 114/82/6
f 134/89/76 125/92/77 128/91/78 135/90/79
f 138/93/80 133/96/81 136/95/82 139/94/83
f 126/97/84 129/100/85 132/99/86 127/98/87
f 130/101/88 137/104/89 140/103/90 131/102/91
f 125/105/77 126/97/84 127/98/87 128/106/78
f 131/107/91 132/99/86 129/100/85 130/108/88
f 139/94/83 140/110/90 137/109/89 138/93/80
f 135/111/79 136/95/82 133/96/81 134/112/76
f 129/100/92 126/97/92 125/105/92 134/116/92 133/115/92 138/114/92 137/113/92 130/108/92
f 136/95/82 141/118/93 142/117/94 139/94/83
f 152/57/60 143/60/61 146/59/62 153/58/63
f 156/61/64 151/64/65 154/63/66 157/62/67
f 144/65/68 147/68/69 150/67/70 145/66/71
f 148/69/72 155/72/73 158/71/74 149/70/75
f 143/60/61 144/74/68 145/73/71 146/59/62
f 149/70/75 150/76/70 147/75/69 148/69/72
f 157/77/67 158/71/74 155/72/73 156/78/64
f 153/58/63 154/80/66 151/79/65 152/57/60
f 147/81/6 144/88/6 143/87/6 152/86/6 151/85/6 156/84/6 155/83/6 148/82/6
f 168/89/76 159/92/77 162/91/78 169/90/79
f 172/93/80 167/96/81 170/95/82 173/94/83
f 160/97/84 163/100/85 166/99/86 161/98/87
f 164/101/88 171/104/89 174/103/90 165/102/91
f 159/105/77 160/97/84 161/98/87 162/106/78
f 165/107/91 166/99/86 163/100/85 164/108/88
f 173/94/83 174/110/90 171/109/89 172/93/80
f 169/111/79 170/95/82 167/96/81 168/112/76
f 163/100/92 160/97/92 159/105/92 168/116/92 167/115/92 172/114/92 171/113/92 164/108/92
f 170/95/82 175/118/93 176/117/94 173/94/83
f 43/73/34 44/59/27 112/59/62 111/73/71
f 47/70/38 48/76/35 116/76/70 115/70/75
f 55/77/30 56/71/39 124/71/74 123/77/67
f 51/58/26 52/80/31 120/80/66 119/58/63
f 48/67/35 43/66/34 111/66/71 116/67/70
f 44/59/27 51/58/26 119/58/63 112/59/62
f 52/63/31 55/62/30 123/62/67 120/63/66
f 56/71/39 47/70/38 115/70/75 124/71/74
f 59/98/50 60/106/43 128/106/78 127/98/87
f 63/107/54 64/99/51 132/99/86 131/107/91
f 71/94/46 72/110/55 140/110/90 139/94/83
f 67/111/42 68/95/47 136/95/82 135/111/79
f 64/99/51 59/98/50 127/98/87 132/99/86
f 60/91/43 67/90/42 135/90/79 128/91/78
f 72/103/55 63/102/54 131/102/91 140/103/90
f 73/118/59 74/117/58 142/117/94 141/118/93
f 68/95/47 73/118/59 141/118/93 136/95/82
f 74/117/58 71/94/46 139/94/83 142/117/94
f 77/73/34 78/59/27 146/59/62 145/73/71
f 81/70/38 82/76/35 150/76/70 149/70/75
f 89/77/30 90/71/39 158/71/74 157/77/67
f 85/58/26 86/80/31 154/80/66 153/58/63
f 82/67/35 77/66/34 145/66/71 150/67/70
f 78/59/27 85/58/26 153/58/63 146/59/62
f 86/63/31 89/62/30 157/62/67 154/63/66
f 90/71/39 81/70/38 149/70/75 158/71/74
f 93/98/50 94/106/43 162/106/78 161/98/87
f 97/107/54 98/99/51 166/99/86 165/107/91
f 105/94/46 106/110/55 174/110/90 173/94/83
f 101/111/42 102/95/47 170/95/82 169/111/79
f 98/99/51 93/98/50 161/98/87 166/99/86
f 94/91/43 101/90/42 169/90/79 162/91/78
f 106/103/55 97/102/54 165/102/91 174/103/90
f 107/118/59 108/117/58 176/117/94 175/118/93
f 102/95/47 107/118/59 175/118/93 170/95/82
f 108/117/58 105/94/46 173/94/83 176/117/94
f 191/119/95 178/120/96 180/121/97 192/122/98
f 192/123/98 180/124/97 182/125/99 193/126/100
f 193/126/100 182/125/99 184/127/101 194/128/102
f 194/129/102 184/130/101 186/131/103 195/132/104
f 195/133/104 186/134/103 188/135/105 196/136/106
f 196/136/106 188/135/105 190/137/107 197/138/108
f 197/139/108 190/140/107 178/120/96 191/119/95
f 177/141/5 179/142/5 181/143/5 183/144/5 185/145/5 187/146/5 189/147/5
f 189/148/109 197/139/108 191/119/95 177/149/110
f 187/150/111 196/136/106 197/138/108 189/151/109
f 185/152/112 195/133/104 196/136/106 187/150/111
f 183/153/113 194/129/102 195/132/104 185/154/112
f 181/155/114 193/126/100 194/128/102 183/156/113
f 179/157/115 192/123/98 193/126/100 181/155/114
f 177/149/110 191/119/95 192/122/98 179/158/115
s 0
f 218/159/116 199/160/116 201/161/116 219/162/116
f 219/163/117 201/164/117 205/165/117 220/166/117
f 220/167/5 205/168/5 203/169/5 221/170/5
f 221/171/118 203/172/118 199/173/118 218/174/118
f 200/175/119 204/176/119 202/177/119 198/178/119
f 203/179/120 205/180/120 208/181/120 209/182/120
f 209/183/121 208/184/121 212/185/121 213/186/121
f 201/187/122 199/188/122 206/189/122 207/190/122
f 199/173/123 203/172/123 209/191/123 206/192/123
f 205/165/124 201/164/124 207/193/124 208/194/124
f 212/195/125 211/196/125 210/197/125 213/198/125
f 207/199/126 206/200/126 210/201/126 211/202/126
f 206/192/127 209/191/127 213/203/127 210/204/127
f 208/194/128 207/193/128 211/205/128 212/206/128
f 202/207/129 217/208/129 214/209/129 198/210/129
f 204/211/5 216/212/5 217/213/5 202/214/5
f 200/215/130 215/216/130 216/217/130 204/218/130
f 198/219/131 214/220/131 215/221/131 200/222/131
f 217/208/132 221/171/132 218/174/132 214/209/132
f 216/212/5 220/167/5 221/170/5 217/213/5
f 215/216/130 219/163/130 220/166/130 216/217/130
f 214/220/133 218/159/133 219/162/133 215/221/133
s 1
f 222/223/134 223/224/134 225/225/135 224/226/136
f 224/227/136 225/228/135 227/229/137 226/230/138
f 226/230/138 227/229/137 229/231/139 228/232/140
f 228/233/140 229/234/139 231/235/141 230/236/142
f 230/237/142 231/238/141 233/239/143 232/240/144
f 223/241/145 235/242/145 242/243/145 237/244/145
f 232/240/144 233/239/143 235/245/146 234/246/147
f 234/247/147 235/248/146 223/224/134 222/223/134
f 222/249/145 224/250/145 226/251/145 228/252/145 230/253/145 232/254/145 234/255/145
f 237/256/148 242/257/149 249/258/149 244/259/148
f 227/260/145 225/261/145 236/262/145 238/263/145
f 233/264/145 231/265/145 240/266/145 241/267/145
f 225/261/145 223/241/145 237/244/145 236/262/145
f 229/268/145 227/260/145 238/263/145 239/269/145
f 235/242/145 233/264/145 241/267/145 242/243/145
f 231/265/145 229/268/145 239/269/145 240/266/145
f 249/270/150 248/271/150 255/272/150 256/273/150
f 241/274/151 240/275/152 247/276/152 248/277/151
f 239/278/153 238/279/154 245/280/154 246/281/153
f 236/282/155 237/256/148 244/259/148 243/283/155
f 242/284/149 241/274/151 248/277/151 249/285/149
f 240/286/152 239/287/153 246/288/153 247/289/152
f 238/279/154 236/290/155 243/291/155 245/280/154
f 253/292/156 252/293/157 259/294/158 260/295/159
f 247/296/150 246/297/150 253/298/150 254/299/150
f 245/300/150 243/301/150 250/302/150 252/303/150
f 244/304/150 249/270/150 256/273/150 251/305/150
f 248/271/150 247/296/150 254/299/150 255/272/150
f 246/297/150 245/300/150 252/303/150 253/298/150
f 243/301/150 244/304/150 251/305/150 250/302/150
f 257/306/150 258/307/150 263/308/150 262/309/150 261/310/150 260/311/150 259/312/150
f 250/313/160 251/314/161 258/315/161 257/316/162
f 256/317/163 255/318/164 262/319/165 263/320/166
f 254/321/167 253/322/156 260/323/159 261/324/168
f 252/293/157 250/325/160 257/326/162 259/294/158
f 251/314/161 256/327/163 263/328/166 258/315/161
f 255/318/164 254/329/167 261/330/168 262/319/165
f 293/331/169 269/332/170 264/333/171 283/334/172
f 287/335/173 266/336/174 267/337/175 289/338/176
f 289/338/176 267/337/175 268/339/177 291/340/178
f 291/341/178 268/342/177 269/343/170 293/344/169
f 268/339/177 267/337/175 273/345/179 274/346/180
f 285/347/181 265/348/182 266/349/174 287/350/173
f 283/334/172 264/333/171 265/351/182 285/352/181
f 275/353/183 274/354/180 280/355/184 281/356/185
f 266/349/174 265/348/182 270/357/186 272/358/187
f 269/343/170 268/342/177 274/354/180 275/353/183
f 265/351/182 264/333/171 271/359/188 270/360/186
f 267/337/175 266/336/174 272/361/187 273/345/179
f 264/333/171 269/332/170 275/362/183 271/359/188
f 276/363/189 277/364/189 281/365/189 280/366/189 279/367/189 278/368/189
f 273/345/179 272/361/187 278/369/190 279/370/191
f 270/360/186 271/359/188 277/371/192 276/372/193
f 271/359/188 275/362/183 281/373/185 277/371/192
f 274/346/180 273/345/179 279/370/191 280/374/184
f 272/358/187 270/357/186 276/375/193 278/376/190
f 283/377/172 285/378/181 284/379/194 282/380/195
f 285/378/181 287/381/173 286/382/196 284/379/194
f 287/381/173 289/383/176 288/384/197 286/382/196
f 289/383/176 291/385/178 290/386/198 288/384/197
f 291/341/178 293/344/169 292/387/199 290/388/198
f 293/389/169 283/377/172 282/380/195 292/390/199
f 282/380/195 284/379/194 286/382/196 288/384/197 290/386/198 292/390/199
f 325/391/200 317/392/201 297/393/202 324/394/203
f 327/395/204 305/396/205 309/397/206 328/398/207
f 328/399/207 309/400/206 313/401/208 329/402/209
f 329/402/209 313/401/208 317/392/201 325/391/200
f 326/403/210 301/404/211 305/405/205 327/406/204
f 300/407/212 296/408/213 316/409/214 312/410/215 308/411/216 304/412/217
f 324/413/203 297/414/202 301/415/211 326/416/210
f 295/417/218 299/418/219 298/419/220 294/420/221
f 301/421/211 297/422/202 296/408/213 300/407/212
f 299/423/219 303/424/222 302/425/223 298/426/220
f 305/405/205 301/404/211 300/427/212 304/428/217
f 303/424/222 307/429/224 306/430/225 302/425/223
f 309/431/206 305/432/205 304/412/217 308/411/216
f 307/433/224 311/434/226 310/435/227 306/436/225
f 313/401/208 309/400/206 308/437/216 312/438/215
f 311/434/226 315/439/228 314/440/229 310/435/227
f 317/392/201 313/401/208 312/438/215 316/441/214
f 315/442/228 295/443/218 294/444/221 314/445/229
f 297/422/202 317/446/201 316/409/214 296/408/213
f 294/444/221 298/426/220 302/425/223 306/430/225 310/447/227 314/445/229
f 295/417/218 318/448/230 319/449/231 299/418/219
f 299/450/219 319/451/231 321/452/232 303/453/222
f 311/434/226 323/454/233 320/455/234 315/439/228
f 307/433/224 322/456/235 323/454/233 311/434/226
f 303/457/222 321/458/232 322/459/235 307/460/224
f 315/439/228 320/455/234 318/461/230 295/462/218
f 318/448/230 324/413/203 326/416/210 319/449/231
f 319/451/231 326/403/210 327/406/204 321/452/232
f 323/454/233 329/402/209 325/391/200 320/455/234
f 322/456/235 328/399/207 329/402/209 323/454/233
f 321/458/232 327/395/204 328/398/207 322/459/235
f 320/455/234 325/391/200 324/394/203 318/461/230
f 347/463/236 335/464/237 330/465/238 337/466/239
f 341/467/240 332/468/241 333/469/242 343/470/243
f 343/470/243 333/469/242 334/471/244 345/472/245
f 345/473/245 334/474/244 335/475/237 347/476/236
f 339/477/246 331/478/247 332/479/241 341/480/240
f 337/466/239 330/465/238 331/481/247 339/482/246
f 337/466/239 339/482/246 338/483/248 336/484/249
f 339/477/246 341/480/240 340/485/250 338/486/248
f 341/467/240 343/470/243 342/487/251 340/488/250
f 343/470/243 345/472/245 344/489/252 342/487/251
f 345/473/245 347/476/236 346/490/253 344/491/252
f 347/463/236 337/466/239 336/484/249 346/492/253
f 336/493/249 338/494/248 340/495/250 342/496/251 344/497/252 346/498/253
f 332/479/241 331/478/247 349/499/254 350/500/255
f 335/475/237 334/474/244 352/501/256 353/502/257
f 333/469/242 332/468/241 350/503/255 351/504/258
f 331/481/247 330/465/238 348/505/259 349/506/254
f 330/465/238 335/464/237 353/507/257 348/505/259
f 334/471/244 333/469/242 351/504/258 352/508/256
f 353/502/257 352/501/256 358/509/260 359/510/261
f 351/504/258 350/503/255 356/511/262 357/512/263
f 349/506/254 348/505/259 354/513/264 355/514/265
f 348/505/259 353/507/257 359/515/261 354/513/264
f 352/508/256 351/504/258 357/512/263 358/516/260
f 350/500/255 349/499/254 355/517/265 356/518/262
f 355/519/266 354/520/266 359/521/266 358/522/266 357/523/266 356/524/266
f 397/525/267 365/526/268 360/527/269 396/528/270
f 399/529/271 362/530/272 363/531/273 400/532/274
f 400/532/274 363/531/273 364/533/275 401/534/276
f 401/535/276 364/536/275 365/537/268 397/538/267
f 398/539/277 361/540/278 362/541/272 399/542/271
f 396/528/270 360/527/269 361/543/278 398/544/277
f 367/545/279 369/546/280 368/547/281 366/548/282
f 369/549/280 371/550/283 370/551/284 368/552/281
f 371/553/283 373/554/285 372/555/286 370/556/284
f 373/554/285 375/557/287 374/558/288 372/555/286
f 375/559/287 377/560/289 376/561/290 374/562/288
f 377/563/289 367/545/279 366/548/282 376/564/290
f 366/565/282 368/566/281 370/567/284 372/568/286 374/569/288 376/570/290
f 362/541/272 361/540/278 379/571/291 380/572/292
f 365/537/268 364/536/275 382/573/293 383/574/294
f 363/531/273 362/530/272 380/575/292 381/576/295
f 361/543/278 360/527/269 378/577/296 379/578/291
f 360/527/269 365/526/268 383/579/294 378/577/296
f 364/533/275 363/531/273 381/576/295 382/580/293
f 383/574/294 382/573/293 388/581/297 389/582/298
f 381/576/295 380/575/292 386/583/299 387/584/300
f 379/578/291 378/577/296 384/585/301 385/586/302
f 378/577/296 383/579/294 389/587/298 384/585/301
f 382/580/293 381/576/295 387/584/300 388/588/297
f 380/572/292 379/571/291 385/589/302 386/590/299
f 385/591/303 384/592/303 389/593/303 388/594/303 387/595/303 386/596/303
f 367/545/279 390/597/304 391/598/305 369/546/280
f 369/549/280 391/599/305 393/600/306 371/550/283
f 375/559/287 395/601/307 392/602/308 377/560/289
f 373/554/285 394/603/309 395/604/307 375/557/287
f 371/553/283 393/605/306 394/603/309 373/554/285
f 377/563/289 392/606/308 390/597/304 367/545/279
f 390/597/304 396/528/270 398/544/277 391/598/305
f 391/599/305 398/539/277 399/542/271 393/600/306
f 395/601/307 401/535/276 397/538/267 392/602/308
f 394/603/309 400/532/274 401/534/276 395/604/307
f 393/605/306 399/529/271 400/532/274 394/603/309
f 392/606/308 397/525/267 396/528/270 390/597/304
f 419/607/310 411/608/311 405/609/312 415/610/313
f 415/611/313 405/612/312 409/613/314 416/614/315
f 418/615/316 413/616/317 407/617/318 417/618/319
f 417/619/319 407/620/318 403/621/320 414/622/321
f 410/623/322 412/624/323 406/625/324 402/626/325
f 413/627/317 411/628/311 403/629/320 407/630/318
f 409/631/314 405/632/312 411/628/311 413/627/317
f 404/633/326 408/634/327 412/624/323 410/623/322
f 416/635/315 409/636/314 413/616/317 418/615/316
f 414/637/321 403/638/320 411/608/311 419/607/310
f 402/639/325 414/637/321 419/607/310 410/640/322
f 408/641/327 416/635/315 418/615/316 412/642/323
f 406/643/324 417/619/319 414/622/321 402/644/325
f 412/642/323 418/615/316 417/618/319 406/645/324
f 404/646/326 415/611/313 416/614/315 408/647/327
f 410/640/322 419/607/310 415/610/313 404/648/326
f 420/649/5 421/650/328 423/651/329 422/652/330
f 422/653/330 423/654/329 425/655/331 424/656/332
f 424/657/332 425/658/331 427/659/333 426/660/6
f 426/660/6 427/659/333 429/661/334 428/662/335
f 429/661/334 427/659/333 435/663/336 436/664/337
f 428/665/335 429/666/334 431/667/338 430/668/339
f 430/669/339 431/670/338 421/650/328 420/649/5
f 420/671/340 422/672/340 424/673/340 426/674/340 428/675/340 430/676/340
f 437/677/341 436/678/337 442/679/342 443/680/343
f 425/655/331 423/654/329 432/681/344 434/682/345
f 431/667/338 429/666/334 436/683/337 437/684/341
f 423/651/329 421/650/328 433/685/346 432/686/344
f 427/659/333 425/658/331 434/687/345 435/663/336
f 421/650/328 431/670/338 437/688/341 433/685/346
f 443/689/343 442/690/342 448/691/335 449/692/339
f 435/693/336 434/694/345 440/695/347 441/696/348
f 432/697/344 433/698/346 439/699/349 438/700/350
f 433/698/346 437/677/341 443/680/343 439/699/349
f 436/678/337 435/693/336 441/696/348 442/679/342
f 434/694/345 432/697/344 438/700/350 440/695/347
f 444/701/351 445/702/351 449/703/351 448/704/351 447/705/351 446/706/351
f 441/707/348 440/708/347 446/709/332 447/710/6
f 438/711/350 439/712/349 445/713/5 444/714/330
f 439/712/349 443/715/343 449/716/339 445/713/5
f 442/717/342 441/707/348 447/710/6 448/718/335
f 440/719/347 438/720/350 444/721/330 446/722/332
f 464/723/352 465/724/353 453/725/354 451/726/355
f 465/727/353 466/728/356 455/729/357 453/730/354
f 466/731/356 467/732/358 457/733/359 455/734/357
f 467/735/358 468/736/360 459/737/361 457/738/359
f 468/739/360 469/740/362 461/741/363 459/742/361
f 469/743/362 470/744/364 463/745/365 461/746/363
f 470/747/364 464/748/352 451/749/355 463/750/365
f 450/751/6 462/752/6 460/753/6 458/754/6 456/755/6 454/756/6 452/757/6
f 462/758/366 450/759/367 464/760/352 470/761/364
f 460/762/368 462/763/366 470/764/364 469/765/362
f 458/766/369 460/767/368 469/768/362 468/769/360
f 456/770/370 458/771/369 468/772/360 467/773/358
f 454/774/371 456/775/370 467/776/358 466/777/356
f 452/778/372 454/779/371 466/780/356 465/781/353
f 450/782/367 452/783/372 465/784/353 464/785/352
f 453/730/354 455/729/357 182/125/99 180/124/97
f 455/734/357 457/733/359 184/127/101 182/125/99
f 457/738/359 459/737/361 186/131/103 184/130/101
f 459/742/361 461/741/363 188/135/105 186/134/103
f 461/746/363 463/745/365 190/137/107 188/135/105
f 463/750/365 451/749/355 178/120/96 190/140/107
f 451/726/355 453/725/354 180/121/97 178/120/96
