# Blender 4.5.9 LTS
# www.blender.org
mtllib Trash_M_01.mtl
o Trash_M_01
v -0.092321 -0.079522 -0.660125
v -0.095849 0.061913 -0.658886
v -0.043349 -0.079522 -0.636542
v -0.045593 0.067526 -0.638955
v -0.031254 -0.079522 -0.583549
v -0.030385 0.078070 -0.587848
v -0.065143 -0.079522 -0.541053
v -0.061678 0.085605 -0.544048
v -0.119498 -0.079522 -0.541053
v -0.115907 0.084457 -0.540538
v -0.153388 -0.079522 -0.583549
v -0.152237 0.075490 -0.579961
v -0.141293 -0.079522 -0.636542
v -0.143311 0.065457 -0.632631
v -0.091085 -0.001790 -0.654625
v -0.043857 -0.013715 -0.630251
v -0.033171 -0.017639 -0.576986
v -0.067074 -0.010607 -0.534938
v -0.120036 0.002087 -0.535772
v -0.152176 0.010883 -0.578859
v -0.139292 0.009158 -0.631754
v -0.092361 -0.076767 -0.656390
v -0.095647 0.062261 -0.654262
v -0.046256 -0.076748 -0.634219
v -0.049214 0.067768 -0.636062
v -0.034822 -0.076647 -0.584289
v -0.034913 0.078073 -0.588868
v -0.066705 -0.076528 -0.544237
v -0.063850 0.085339 -0.548140
v -0.117880 -0.076535 -0.544215
v -0.114164 0.084135 -0.544827
v -0.149819 -0.076641 -0.584260
v -0.147797 0.075442 -0.581312
v -0.138432 -0.076730 -0.634184
v -0.139481 0.065726 -0.630022
v -0.091108 -0.001789 -0.649984
v -0.047552 -0.013756 -0.627442
v -0.037668 -0.017633 -0.578135
v -0.069035 -0.010574 -0.539145
v -0.118045 0.002051 -0.539964
v -0.147667 0.010865 -0.579960
v -0.135630 0.009198 -0.628903
v 0.389589 0.156667 -0.074273
v 0.361311 -0.080869 -0.045996
v 0.389589 0.156667 0.132524
v 0.361311 -0.080869 0.104245
v 0.182792 0.156667 -0.074273
v 0.211071 -0.080869 -0.045996
v 0.182792 0.156667 0.132524
v 0.211071 -0.080869 0.104245
v 0.433513 0.058170 -0.007677
v 0.433513 0.058170 0.065934
v 0.138868 0.058170 -0.007677
v 0.138868 0.058170 0.065934
v 0.322996 0.058269 -0.118194
v 0.322996 0.058269 0.176451
v 0.249385 0.058269 -0.118194
v 0.249385 0.058269 0.176451
v 0.389589 0.156667 -0.074273
v 0.361311 -0.080869 -0.045996
v 0.389589 0.156667 0.132524
v 0.361311 -0.080869 0.104245
v 0.182792 0.156667 -0.074273
v 0.211071 -0.080869 -0.045996
v 0.182792 0.156667 0.132524
v 0.211071 -0.080869 0.104245
v 0.433513 0.058170 -0.007677
v 0.433513 0.058170 0.065934
v 0.138868 0.058170 -0.007677
v 0.138868 0.058170 0.065934
v 0.322996 0.058269 -0.118194
v 0.322996 0.058269 0.176451
v 0.249385 0.058269 -0.118194
v 0.249385 0.058269 0.176451
v 0.288265 -0.085413 -0.374076
v 0.257290 -0.085413 -0.375818
v 0.255926 -0.024995 -0.351582
v 0.286902 -0.024995 -0.349840
v 0.173797 -0.085413 -0.469263
v 0.175539 -0.085413 -0.500238
v 0.151303 -0.024995 -0.501601
v 0.149561 -0.024995 -0.470626
v 0.383452 -0.085413 -0.488543
v 0.381710 -0.085413 -0.457568
v 0.405946 -0.024995 -0.456205
v 0.407688 -0.024995 -0.487180
v 0.268984 -0.085413 -0.583731
v 0.299959 -0.085413 -0.581988
v 0.301323 -0.024995 -0.606224
v 0.270347 -0.024995 -0.607967
v 0.462489 -0.044674 -0.529744
v 0.435567 -0.059130 -0.535108
v 0.407688 -0.024995 -0.487180
v 0.434609 -0.010540 -0.481816
v 0.352075 -0.059130 -0.628553
v 0.349763 -0.044674 -0.655906
v 0.299011 -0.010540 -0.633577
v 0.301323 -0.024995 -0.606224
v 0.530464 0.052356 -0.619898
v 0.532776 0.037901 -0.592545
v 0.524152 0.094656 -0.561822
v 0.521840 0.109112 -0.589175
v 0.420051 0.037901 -0.718708
v 0.446972 0.052356 -0.713343
v 0.415475 0.109112 -0.708219
v 0.388554 0.094656 -0.713583
v 0.510643 0.124723 -0.624081
v 0.448905 0.124723 -0.693178
v 0.288265 -0.085413 -0.374076
v 0.257290 -0.085413 -0.375818
v 0.255926 -0.024995 -0.351582
v 0.286902 -0.024995 -0.349840
v 0.173797 -0.085413 -0.469263
v 0.175539 -0.085413 -0.500238
v 0.151303 -0.024995 -0.501601
v 0.149561 -0.024995 -0.470626
v 0.383452 -0.085413 -0.488543
v 0.381710 -0.085413 -0.457568
v 0.405946 -0.024995 -0.456205
v 0.407688 -0.024995 -0.487180
v 0.268984 -0.085413 -0.583731
v 0.299959 -0.085413 -0.581988
v 0.301323 -0.024995 -0.606224
v 0.270347 -0.024995 -0.607967
v 0.462489 -0.044674 -0.529744
v 0.435567 -0.059130 -0.535108
v 0.407688 -0.024995 -0.487180
v 0.434609 -0.010540 -0.481816
v 0.352075 -0.059130 -0.628553
v 0.349763 -0.044674 -0.655906
v 0.299011 -0.010540 -0.633577
v 0.301323 -0.024995 -0.606224
v 0.530464 0.052356 -0.619898
v 0.532776 0.037901 -0.592545
v 0.524152 0.094656 -0.561822
v 0.521840 0.109112 -0.589175
v 0.420051 0.037901 -0.718708
v 0.446972 0.052356 -0.713343
v 0.415475 0.109112 -0.708219
v 0.388554 0.094656 -0.713583
v 0.510643 0.124723 -0.624081
v 0.448905 0.124723 -0.693178
v 0.286627 -0.080266 -0.378220
v 0.259382 -0.080266 -0.379753
v 0.258512 -0.022601 -0.357406
v 0.284985 -0.022601 -0.355917
v 0.177941 -0.080266 -0.470900
v 0.179474 -0.080266 -0.498146
v 0.157127 -0.022601 -0.499015
v 0.155638 -0.022601 -0.472543
v 0.379308 -0.080266 -0.486906
v 0.377775 -0.080266 -0.459660
v 0.400122 -0.022601 -0.458791
v 0.401611 -0.022601 -0.485264
v 0.270622 -0.080266 -0.579586
v 0.297867 -0.080266 -0.578054
v 0.298737 -0.022601 -0.600400
v 0.272264 -0.022601 -0.601889
v 0.458037 -0.039788 -0.531374
v 0.434358 -0.052503 -0.536093
v 0.408024 -0.019367 -0.490994
v 0.431032 -0.007012 -0.486409
v 0.352918 -0.052503 -0.627241
v 0.350884 -0.039788 -0.651300
v 0.303174 -0.007012 -0.629507
v 0.305150 -0.019367 -0.606130
v 0.524564 0.053472 -0.616692
v 0.526597 0.040757 -0.592632
v 0.517636 0.094731 -0.563789
v 0.515555 0.108190 -0.586729
v 0.419444 0.040757 -0.712558
v 0.443124 0.053472 -0.707839
v 0.412340 0.108190 -0.702247
v 0.389778 0.094731 -0.706887
v 0.506972 0.129424 -0.620801
v 0.445234 0.129424 -0.689898
v 0.286627 -0.080266 -0.378220
v 0.259382 -0.080266 -0.379753
v 0.258512 -0.022601 -0.357406
v 0.284985 -0.022601 -0.355917
v 0.177941 -0.080266 -0.470900
v 0.179474 -0.080266 -0.498146
v 0.157127 -0.022601 -0.499015
v 0.155638 -0.022601 -0.472543
v 0.379308 -0.080266 -0.486906
v 0.377775 -0.080266 -0.459660
v 0.400122 -0.022601 -0.458791
v 0.401611 -0.022601 -0.485264
v 0.270622 -0.080266 -0.579586
v 0.297867 -0.080266 -0.578054
v 0.298737 -0.022601 -0.600400
v 0.272264 -0.022601 -0.601889
v 0.458037 -0.039788 -0.531374
v 0.434358 -0.052503 -0.536093
v 0.408024 -0.019367 -0.490994
v 0.431032 -0.007012 -0.486409
v 0.352918 -0.052503 -0.627241
v 0.350884 -0.039788 -0.651300
v 0.303174 -0.007012 -0.629507
v 0.305150 -0.019367 -0.606130
v 0.524564 0.053472 -0.616692
v 0.526597 0.040757 -0.592632
v 0.517636 0.094731 -0.563789
v 0.515555 0.108190 -0.586729
v 0.419444 0.040757 -0.712558
v 0.443124 0.053472 -0.707839
v 0.412340 0.108190 -0.702247
v 0.389778 0.094731 -0.706887
v 0.506972 0.129424 -0.620801
v 0.445234 0.129424 -0.689898
v -0.569216 0.039769 -0.375683
v -0.353544 0.042971 -0.187173
v -0.474027 0.039769 -0.483928
v -0.252713 0.029906 -0.288157
v -0.581097 -0.081064 -0.386132
v -0.344806 -0.081064 -0.178339
v -0.485908 -0.081064 -0.494376
v -0.249617 -0.081064 -0.286584
v -0.319291 -0.010004 -0.155902
v -0.224102 -0.010004 -0.264147
v -0.224102 -0.020701 -0.264147
v -0.319291 -0.020701 -0.155902
v -0.301363 -0.005182 -0.141946
v -0.202259 -0.020320 -0.245181
v -0.202680 -0.031206 -0.243499
v -0.301784 -0.015538 -0.140264
v -0.493784 0.030824 -0.309852
v -0.399073 0.016074 -0.418014
v -0.399073 -0.081064 -0.418014
v -0.494262 -0.081064 -0.309770
v -0.407446 0.038510 -0.232922
v -0.311779 0.016074 -0.341249
v -0.311779 -0.081064 -0.341249
v -0.406968 -0.081064 -0.233005
v 0.524092 -0.086542 -0.199199
v 0.524092 0.068337 -0.215894
v 0.557902 -0.086542 -0.182917
v 0.571635 0.068337 -0.192998
v 0.566252 -0.086542 -0.146332
v 0.583377 0.068337 -0.141553
v 0.542855 -0.086542 -0.116993
v 0.550476 0.068337 -0.100296
v 0.505329 -0.086542 -0.116993
v 0.497708 0.068337 -0.100296
v 0.481932 -0.086542 -0.146332
v 0.464807 0.068337 -0.141553
v 0.490282 -0.086542 -0.182917
v 0.476549 0.068337 -0.192998
v 0.577937 0.068337 -0.197625
v 0.524092 0.068337 -0.223555
v 0.591236 0.068337 -0.139360
v 0.553974 0.068337 -0.092635
v 0.494210 0.068337 -0.092635
v 0.456948 0.068337 -0.139360
v 0.470247 0.068337 -0.197625
v 0.577937 0.078825 -0.197625
v 0.524092 0.078825 -0.223555
v 0.591236 0.078825 -0.139360
v 0.553974 0.078825 -0.092635
v 0.494210 0.078825 -0.092635
v 0.456948 0.078825 -0.139360
v 0.470247 0.078825 -0.197625
v 0.572368 0.078825 -0.193536
v 0.524092 0.078825 -0.216784
v 0.584291 0.078825 -0.141297
v 0.550883 0.078825 -0.099405
v 0.497301 0.078825 -0.099405
v 0.463893 0.078825 -0.141297
v 0.475816 0.078825 -0.193536
v 0.566988 0.094551 -0.189586
v 0.524092 0.094551 -0.210244
v 0.577582 0.094551 -0.143170
v 0.547897 0.094551 -0.105946
v 0.500287 0.094551 -0.105946
v 0.470602 0.094551 -0.143170
v 0.481196 0.094551 -0.189586
v 0.554613 0.093662 0.414757
v 0.599822 0.093662 0.440858
v 0.599822 0.093662 0.493061
v 0.554613 0.093662 0.519162
v 0.509404 0.093662 0.493061
v 0.509404 0.093662 0.440858
v 0.578714 0.120292 0.453046
v 0.554613 0.120292 0.439131
v 0.578714 0.120292 0.480875
v 0.554613 0.120292 0.494790
v 0.530512 0.120292 0.480875
v 0.530512 0.120292 0.453046
v 0.567002 0.214820 0.459808
v 0.554613 0.214820 0.452655
v 0.567002 0.214820 0.474114
v 0.554613 0.214820 0.481267
v 0.542223 0.214820 0.474114
v 0.542223 0.214820 0.459808
v 0.554613 -0.092278 0.430401
v 0.554613 -0.078730 0.414757
v 0.586273 -0.092278 0.448681
v 0.599822 -0.078730 0.440858
v 0.586273 -0.092278 0.485239
v 0.599822 -0.078730 0.493061
v 0.554613 -0.092278 0.503518
v 0.554613 -0.078730 0.519162
v 0.522952 -0.092278 0.485239
v 0.509404 -0.078730 0.493061
v 0.522952 -0.092278 0.448681
v 0.509404 -0.078730 0.440858
v -1.255846 -0.045150 -0.395404
v -1.222195 -0.023381 -0.398831
v -1.111861 -0.033801 -0.259759
v -1.110445 -0.037974 -0.293554
v -1.269779 -0.060286 -0.380614
v -1.244894 -0.082837 -0.374736
v -1.125794 -0.062998 -0.244969
v -1.133145 -0.079570 -0.269459
v -1.297644 -0.060834 -0.351036
v -1.290293 -0.085906 -0.326546
v -1.153659 -0.057595 -0.215390
v -1.178544 -0.077657 -0.221269
v -1.311577 -0.026915 -0.336246
v -1.312992 -0.033050 -0.302451
v -1.167592 -0.031847 -0.200601
v -1.201243 -0.021817 -0.197174
v -1.297644 -0.025861 -0.351036
v -1.290293 -0.010928 -0.326546
v -1.153659 -0.007655 -0.215390
v -1.178544 -0.006530 -0.221269
v -1.269779 -0.015897 -0.380614
v -1.244894 -0.008497 -0.374736
v -1.125794 -0.014390 -0.244969
v -1.133145 -0.004107 -0.269459
v -1.190832 -0.028661 -0.369299
v -1.213771 -0.082554 -0.345417
v -1.213777 -0.037980 -0.345435
v -1.259664 -0.077654 -0.297699
v -1.282615 -0.044156 -0.273852
v -1.259671 -0.026481 -0.297719
v -1.169060 -0.038542 -0.343729
v -1.182599 -0.034971 -0.313487
v -1.182889 -0.078482 -0.314018
v -1.210010 -0.077695 -0.253611
v -1.223281 -0.033898 -0.222878
v -1.209641 -0.022383 -0.252936
v -0.028779 0.119630 0.298058
v 0.016637 0.119630 0.324279
v 0.016637 0.119630 0.376721
v -0.028779 0.119630 0.402942
v -0.074196 0.119630 0.376721
v -0.074196 0.119630 0.324279
v -0.028779 -0.091438 0.310681
v -0.028779 -0.074594 0.298058
v 0.005705 -0.091438 0.330590
v 0.016637 -0.074594 0.324279
v 0.005705 -0.091438 0.370409
v 0.016637 -0.074594 0.376721
v -0.028779 -0.091438 0.390318
v -0.028779 -0.074594 0.402942
v -0.063263 -0.091438 0.370409
v -0.074196 -0.074594 0.376721
v -0.063263 -0.091438 0.330590
v -0.074196 -0.074594 0.324279
v -0.030910 0.168080 0.326552
v -0.010158 0.168080 0.338533
v -0.010158 0.168080 0.362496
v -0.030910 0.168080 0.374478
v -0.051662 0.168080 0.362496
v -0.051662 0.168080 0.338533
v -0.030581 0.203771 0.326497
v -0.009829 0.203771 0.338478
v -0.009829 0.203771 0.362441
v -0.030581 0.203771 0.374423
v -0.051333 0.203771 0.362441
v -0.051333 0.203771 0.338478
v 0.590025 -0.091745 0.301725
v 0.590025 0.278067 0.301725
v 0.520858 -0.091745 0.253910
v 0.520858 0.278067 0.253910
v 0.731039 -0.091745 0.097740
v 0.731039 0.278067 0.097740
v 0.661871 -0.091745 0.049925
v 0.661871 0.278067 0.049925
v -0.643306 -0.080058 0.877649
v -0.643306 -0.001676 0.877649
v -0.884007 -0.080058 0.419227
v -0.884007 -0.001676 0.419227
v -0.184883 -0.080058 0.636948
v -0.184883 -0.001676 0.636948
v -0.425585 -0.080058 0.178525
v -0.425585 -0.001676 0.178525
v -0.629423 -0.030777 -0.679421
v -0.603200 -0.002919 -0.667374
v -0.550753 0.007890 -0.643281
v -0.524529 -0.041763 -0.631234
v -0.550753 -0.074847 -0.643281
v -0.603200 -0.079763 -0.667374
v -0.519828 -0.023835 -0.884710
v -0.540190 -0.024060 -0.873664
v -0.499916 0.004913 -0.875563
v -0.513966 0.001991 -0.861618
v -0.460094 0.017438 -0.857269
v -0.461519 0.013641 -0.837524
v -0.440183 -0.028690 -0.848122
v -0.435296 -0.017086 -0.825477
v -0.460094 -0.057256 -0.857269
v -0.461519 -0.069383 -0.837524
v -0.499916 -0.064711 -0.875563
v -0.513966 -0.079783 -0.861618
v -0.623186 -0.042526 -0.617875
v -0.611204 -0.006886 -0.612371
v -0.587239 -0.009714 -0.601361
v -0.575256 -0.027904 -0.595857
v -0.587239 -0.051543 -0.601361
v -0.611204 -0.053003 -0.612371
v -0.639639 -0.024061 -0.582206
v -0.627657 -0.002928 -0.576701
v -0.603692 0.000241 -0.565692
v -0.591709 -0.019191 -0.560187
v -0.603692 -0.039928 -0.565692
v -0.627657 -0.040932 -0.576701
v -0.561132 -0.032978 -0.828077
v -0.534909 0.009495 -0.816030
v -0.534909 -0.077385 -0.816030
v -0.482462 0.004073 -0.791936
v -0.456238 -0.021880 -0.779889
v -0.482462 -0.069876 -0.791936
v -0.595278 -0.028097 -0.753749
v -0.569054 -0.072168 -0.741702
v -0.569054 -0.033961 -0.741702
v -0.516607 -0.037207 -0.717608
v -0.490384 -0.026720 -0.705562
v -0.516607 -0.081473 -0.717608
v -0.784166 -0.029182 -0.005219
v -0.783058 0.055144 -0.052752
v -0.767876 -0.083456 -0.115134
v -0.781722 0.008177 -0.126149
v -0.720623 -0.042191 -0.005493
v -0.720616 0.042640 -0.041469
v -0.720655 -0.076938 -0.089512
v -0.724407 0.009002 -0.130557
v -0.791716 -0.083124 -0.047051
v -0.795318 0.045842 -0.097151
v -0.708932 -0.069427 -0.043431
v -0.712924 0.035411 -0.093099
v -0.788576 0.022554 -0.024648
v -0.779119 -0.044210 -0.142178
v -0.709846 -0.037374 -0.117621
v -0.703072 0.017775 -0.020343
v -0.683280 -0.016521 -0.065261
v -0.820479 -0.016521 -0.065261
v 0.294455 -0.087982 0.740601
v 0.294455 -0.087982 0.467391
v 0.341615 -0.060754 0.740601
v 0.341615 -0.060754 0.467391
v 0.341615 -0.006298 0.740601
v 0.341615 -0.006298 0.467391
v 0.294455 0.020930 0.740601
v 0.294455 0.020930 0.467391
v 0.247295 -0.006298 0.740601
v 0.247295 -0.006298 0.467391
v 0.247295 -0.060754 0.740601
v 0.247295 -0.060754 0.467391
v 0.330522 -0.054350 0.443336
v 0.294455 -0.075173 0.443336
v 0.330522 -0.012703 0.443336
v 0.294455 0.008121 0.443336
v 0.258388 -0.012703 0.443336
v 0.258388 -0.054350 0.443336
v 0.307500 -0.041058 0.430329
v 0.294455 -0.048590 0.430329
v 0.307500 -0.025994 0.430329
v 0.294455 -0.018462 0.430329
v 0.281410 -0.025994 0.430329
v 0.281410 -0.041058 0.430329
v 0.307500 -0.041058 0.348884
v 0.294455 -0.048590 0.348884
v 0.307500 -0.025994 0.348884
v 0.294455 -0.018462 0.348884
v 0.281410 -0.025994 0.348884
v 0.281410 -0.041058 0.348884
vn 0.0048 -0.0002 -1.0000
vn -0.0490 0.5390 -0.8409
vn 0.5840 0.5629 -0.5848
vn 0.7960 0.0087 -0.6052
vn 0.7791 0.6232 0.0678
vn 0.9688 -0.0014 0.2477
vn 0.3759 0.6841 0.6251
vn 0.4226 -0.0071 0.9063
vn -0.3274 0.6859 0.6498
vn -0.4291 0.0078 0.9032
vn -0.7743 0.6212 0.1208
vn -0.9715 0.0038 0.2372
vn -0.6402 0.5565 -0.5296
vn -0.7891 -0.0088 -0.6142
vn -0.0000 -1.0000 -0.0000
vn -0.7707 0.0523 -0.6351
vn 0.0108 0.0750 -0.9971
vn -0.9807 -0.0004 0.1953
vn -0.4548 -0.0596 0.8886
vn 0.4394 -0.0625 0.8961
vn 0.9792 0.0036 0.2029
vn 0.7798 0.0618 -0.6230
vn -0.0050 -0.0070 1.0000
vn -0.7959 -0.0177 0.6051
vn -0.4915 0.8384 0.2358
vn 0.0064 0.8601 0.5102
vn -0.9691 -0.0072 -0.2466
vn -0.5315 0.8058 -0.2609
vn -0.4237 0.0005 -0.9058
vn -0.2457 0.7835 -0.5707
vn 0.4289 -0.0138 -0.9032
vn 0.1652 0.7761 -0.6085
vn 0.9716 -0.0095 -0.2365
vn 0.5153 0.7998 -0.3079
vn 0.7889 0.0031 0.6145
vn 0.4955 0.8420 0.2133
vn 0.0001 1.0000 -0.0022
vn 0.7689 -0.0652 0.6360
vn -0.0128 -0.0896 0.9959
vn 0.9809 -0.0115 -0.1939
vn 0.4553 0.0478 -0.8891
vn -0.4415 0.0486 -0.8960
vn -0.9794 -0.0201 -0.2011
vn -0.7793 -0.0782 0.6218
vn 0.9930 -0.1182 -0.0000
vn -0.0000 -0.1182 0.9930
vn -0.9930 -0.1182 -0.0000
vn -0.0000 -0.1182 -0.9930
vn -0.9133 0.4073 -0.0000
vn 0.9133 0.4073 -0.0000
vn -0.0000 0.4076 -0.9132
vn -0.0000 0.4076 0.9131
vn -0.9930 0.1182 -0.0000
vn -0.0000 0.1182 -0.9930
vn 0.9930 0.1182 -0.0000
vn -0.0000 0.1182 0.9930
vn -0.0000 1.0000 -0.0000
vn 0.9133 -0.4073 -0.0000
vn -0.9133 -0.4073 -0.0000
vn -0.0000 -0.4076 0.9132
vn -0.0000 -0.4076 -0.9131
vn 0.8295 -0.3427 0.4410
vn 0.8504 0.3596 0.3841
vn 0.2864 0.3596 0.8881
vn 0.3452 -0.3427 0.8737
vn 0.4410 -0.3427 -0.8295
vn 0.3841 0.3596 -0.8504
vn 0.8881 0.3596 -0.2864
vn 0.8737 -0.3427 -0.3452
vn -0.4410 -0.3427 0.8295
vn -0.3841 0.3596 0.8504
vn -0.8881 0.3596 0.2864
vn -0.8737 -0.3427 0.3452
vn -0.8295 -0.3427 -0.4410
vn -0.8504 0.3596 -0.3841
vn -0.2864 0.3596 -0.8881
vn -0.3452 -0.3427 -0.8737
vn 0.9379 -0.0438 0.3442
vn 0.6215 0.5082 0.5962
vn 0.1795 0.0213 0.9835
vn 0.5736 -0.4717 0.6696
vn 0.4465 0.3231 -0.8344
vn 0.0759 0.6344 -0.7693
vn 0.7729 0.6344 0.0109
vn 0.8792 0.3231 -0.3501
vn -0.1097 -0.8387 0.5335
vn -0.4032 -0.2916 0.8674
vn -0.9071 -0.2916 0.3034
vn -0.5424 -0.8387 0.0492
vn -0.6011 -0.4717 -0.6451
vn -0.9572 0.0213 -0.2887
vn -0.5228 0.5082 -0.6844
vn -0.2368 -0.0438 -0.9706
vn 0.4914 -0.7522 -0.4390
vn 0.5370 0.1935 -0.8211
vn 0.8761 0.1935 -0.4415
vn -0.8335 0.3297 -0.4434
vn -0.3471 0.3297 -0.8780
vn -0.0644 0.9673 -0.2452
vn -0.2365 0.9673 -0.0915
vn -0.4434 0.3297 0.8335
vn -0.8780 0.3297 0.3471
vn -0.2452 0.9673 0.0644
vn -0.0915 0.9673 0.2365
vn 0.4434 0.3297 -0.8335
vn 0.8780 0.3297 -0.3471
vn 0.2452 0.9673 -0.0644
vn 0.0915 0.9673 -0.2365
vn 0.8335 0.3297 0.4434
vn 0.3471 0.3297 0.8780
vn 0.0644 0.9673 0.2452
vn 0.2365 0.9673 0.0915
vn -0.9351 0.0337 -0.3529
vn -0.5694 0.4629 -0.6794
vn -0.5610 0.8036 0.1985
vn -0.6744 0.6625 0.3261
vn -0.4415 -0.3338 0.8329
vn -0.8771 -0.3338 0.3453
vn -0.5380 0.5849 0.6070
vn -0.6635 0.5849 0.4665
vn 0.1177 0.8318 -0.5425
vn 0.5522 0.8318 -0.0561
vn -0.2718 0.8764 0.3976
vn -0.4256 0.8764 0.2255
vn 0.6112 0.4629 0.6420
vn 0.2458 0.0337 0.9687
vn -0.3996 0.6625 0.6335
vn -0.2602 0.8036 0.5352
vn -0.4914 0.7522 0.4390
vn 0.0246 0.9668 0.2542
vn -0.2499 0.9668 -0.0530
vn -0.0073 0.9847 -0.1739
vn 0.6641 0.0042 -0.7476
vn -0.6543 0.0024 0.7562
vn -0.7446 0.1298 -0.6548
vn 0.6544 -0.4905 0.5755
vn -0.1104 -0.9935 -0.0278
vn 0.5625 0.6695 0.4852
vn -0.6688 0.0054 0.7435
vn 0.6498 0.0067 -0.7601
vn 0.7250 0.0796 0.6841
vn 0.1114 0.9933 0.0312
vn -0.6514 0.0734 0.7552
vn 0.6547 -0.0714 -0.7525
vn -0.6590 0.0015 0.7521
vn 0.6604 -0.0000 -0.7509
vn 0.1542 0.9857 0.0682
vn -0.6628 -0.0000 0.7488
vn 0.0601 0.9913 -0.1174
vn -0.0000 -0.1072 -0.9942
vn 0.7779 -0.1093 -0.6189
vn 0.7764 -0.1092 -0.6207
vn 0.9683 -0.1139 0.2225
vn 0.9689 -0.1139 0.2195
vn 0.4303 -0.1177 0.8950
vn 0.4315 -0.1177 0.8944
vn -0.4303 -0.1177 0.8950
vn -0.4315 -0.1177 0.8944
vn -0.9683 -0.1139 0.2225
vn -0.9689 -0.1139 0.2195
vn -0.7779 -0.1093 -0.6189
vn -0.7764 -0.1092 -0.6207
vn -0.0000 -0.0000 -1.0000
vn -0.7818 -0.0000 -0.6235
vn -0.9749 -0.0000 0.2225
vn -0.4339 -0.0000 0.9010
vn 0.4339 -0.0000 0.9010
vn 0.9749 -0.0000 0.2225
vn 0.7818 -0.0000 -0.6235
vn 0.3929 0.4158 0.8202
vn 0.8906 0.4047 0.2076
vn 0.8929 0.4045 0.1978
vn 0.3969 0.4157 0.8183
vn 0.7219 0.3905 -0.5713
vn -0.0000 0.3840 -0.9233
vn 0.7169 0.3904 -0.5777
vn -0.7219 0.3905 -0.5713
vn -0.8906 0.4047 0.2076
vn -0.8929 0.4045 0.1978
vn -0.7169 0.3904 -0.5777
vn -0.3929 0.4158 0.8202
vn -0.3969 0.4157 0.8183
vn -0.8037 -0.3724 -0.4640
vn -0.8181 0.3282 -0.4723
vn -0.0000 0.3282 -0.9446
vn -0.0000 -0.3724 -0.9281
vn 0.8037 -0.3724 0.4640
vn 0.8181 0.3282 0.4723
vn -0.0000 0.3282 0.9446
vn -0.0000 -0.3724 0.9281
vn -0.8181 0.3282 0.4723
vn -0.8037 -0.3724 0.4640
vn -0.0000 0.4688 0.8833
vn -0.7650 0.4688 0.4417
vn 0.8037 -0.3724 -0.4640
vn 0.8181 0.3282 -0.4723
vn -0.7650 0.4688 -0.4416
vn -0.8573 0.1416 0.4950
vn -0.8573 0.1416 -0.4950
vn 0.7650 0.4688 -0.4416
vn 0.7650 0.4688 0.4417
vn -0.0000 0.4688 -0.8833
vn 0.8573 0.1416 0.4950
vn -0.0000 0.1416 0.9899
vn -0.0000 0.1416 -0.9899
vn 0.8573 0.1416 -0.4950
vn 0.3830 -0.8969 -0.2211
vn -0.0000 -0.8969 -0.4423
vn 0.3830 -0.8969 0.2211
vn -0.0000 -0.8969 0.4423
vn -0.3830 -0.8969 0.2211
vn -0.3830 -0.8969 -0.2211
vn 0.0223 0.9709 -0.2386
vn 0.2809 0.9404 -0.1918
vn 0.8675 0.1174 -0.4834
vn 0.6288 0.2987 -0.7179
vn -0.2829 -0.8931 0.3497
vn -0.0794 -0.8146 0.5746
vn -0.4683 0.3284 0.8203
vn -0.7645 0.1909 0.6157
vn -0.1504 0.9545 0.2575
vn -0.2929 0.9557 -0.0301
vn 0.3007 -0.9010 -0.3128
vn 0.5326 -0.8440 -0.0627
vn 0.7561 -0.4500 0.4753
vn 0.9633 0.0955 0.2507
vn 0.7136 0.5692 0.4083
vn 0.4684 0.6424 0.6065
vn 0.3120 0.0460 0.9490
vn 0.4816 -0.4102 0.7745
vn 0.4113 0.4013 -0.8184
vn 0.0874 -0.8228 -0.5615
vn -0.5098 -0.3868 -0.7685
vn -0.2980 -0.0880 -0.9505
vn -0.5478 -0.8353 0.0464
vn -0.7976 -0.3679 -0.4779
vn -0.8462 0.2369 0.4772
vn -0.9152 0.3148 -0.2514
vn -0.2008 0.9662 0.1618
vn -0.7004 0.5114 -0.4980
vn 0.0357 0.9715 -0.2344
vn -0.5375 0.5571 -0.6330
vn 0.7620 0.4485 -0.4672
vn 0.3484 -0.8815 -0.3187
vn -0.2754 -0.8885 0.3671
vn -0.0132 0.9667 0.2557
vn 0.1965 0.9749 0.1052
vn -0.6139 0.1008 0.7829
vn -0.8290 -0.2894 -0.4786
vn -0.8414 0.2315 -0.4883
vn 0.0040 0.2438 -0.9698
vn -0.0000 -0.2894 -0.9572
vn 0.8290 -0.2894 0.4786
vn 0.8383 0.2551 0.4818
vn 0.0041 0.2436 0.9699
vn -0.0000 -0.2894 0.9572
vn -0.8415 0.2314 0.4882
vn -0.8290 -0.2894 0.4786
vn 0.8290 -0.2894 -0.4786
vn 0.8383 0.2552 -0.4818
vn 0.4764 -0.8351 -0.2751
vn -0.0000 -0.8351 -0.5501
vn 0.4764 -0.8351 0.2750
vn -0.0000 -0.8351 0.5501
vn -0.4764 -0.8351 0.2750
vn -0.4764 -0.8351 -0.2751
vn 0.8244 0.2985 -0.4809
vn 0.8240 0.2991 0.4812
vn -0.8350 0.2742 0.4771
vn -0.8354 0.2736 -0.4767
vn -0.0091 0.2869 0.9579
vn -0.0091 0.2857 -0.9583
vn -0.8655 0.0087 0.5009
vn -0.8651 0.0072 -0.5016
vn 0.8669 -0.0072 0.4984
vn 0.0029 0.0015 1.0000
vn 0.0029 -0.0016 -1.0000
vn 0.8665 -0.0088 -0.4991
vn -0.5686 -0.0000 0.8226
vn -0.8226 -0.0000 -0.5686
vn 0.5686 -0.0000 -0.8226
vn 0.8226 -0.0000 0.5686
vn -0.8854 -0.0000 0.4649
vn -0.4649 -0.0000 -0.8854
vn 0.8854 -0.0000 -0.4649
vn 0.4649 -0.0000 0.8854
vn -0.4529 -0.8635 -0.2217
vn -0.5037 -0.8639 -0.0011
vn -0.9564 0.1683 -0.2387
vn -0.8814 0.2659 -0.3903
vn 0.1769 0.9761 0.1264
vn 0.3208 0.9364 0.1421
vn 0.8061 0.0085 0.5917
vn 0.8627 0.2876 0.4160
vn 0.3241 -0.8532 0.4086
vn 0.4361 -0.8852 0.1619
vn -0.2173 0.9730 -0.0780
vn -0.3511 0.9246 -0.1480
vn -0.7622 0.1335 -0.6335
vn -0.4351 0.8577 -0.2740
vn -0.0275 0.6785 -0.7341
vn -0.1965 0.1175 -0.9734
vn 0.4071 0.9114 0.0610
vn 0.4060 0.7487 -0.5241
vn 0.9676 0.1686 0.1879
vn 0.8715 -0.0953 -0.4810
vn 0.6062 -0.7952 -0.0165
vn 0.6393 -0.4508 -0.6230
vn -0.2385 -0.8565 -0.4578
vn 0.1374 -0.4728 -0.8704
vn -0.4974 0.8582 -0.1269
vn 0.3743 0.8902 0.2596
vn 0.2367 -0.8105 0.5358
vn -0.4747 -0.8547 0.2101
vn 0.7533 0.0121 0.6576
vn -0.9775 -0.1938 -0.0838
vn 0.3951 -0.8085 0.4362
vn -0.4703 -0.8755 0.1111
vn 0.4590 0.8882 0.0185
vn 0.9109 0.1120 0.3971
vn -0.9218 -0.0047 -0.3877
vn -0.3978 0.8372 -0.3753
vn -0.4174 -0.0000 0.9087
vn -0.9300 0.0915 -0.3559
vn -0.3766 0.9258 0.0334
vn 0.1486 0.9377 0.3140
vn 0.5045 -0.8396 0.2013
vn -0.4136 -0.8890 -0.1967
vn 0.8351 0.2306 0.4995
vn -0.9995 -0.0249 0.0183
vn -0.5435 0.7527 -0.3715
vn -0.4067 0.3466 -0.8453
vn -0.3686 -0.3015 -0.8793
vn 0.4143 0.3704 -0.8314
vn 0.6875 -0.2126 -0.6944
vn 0.9998 -0.0017 -0.0214
vn 0.5830 0.7079 -0.3987
vn 0.4067 0.8561 0.3190
vn 0.6268 0.4178 0.6577
vn -0.3495 0.8918 0.2871
vn -0.5344 0.4196 0.7337
vn -0.5347 -0.7886 0.3036
vn 0.6060 -0.7184 0.3415
vn 0.3705 -0.2802 0.8856
vn -0.4166 -0.1602 0.8948
vn -0.1967 -0.8453 -0.4967
vn 0.5232 -0.8039 -0.2829
vn -0.0000 -0.9742 -0.2258
vn 0.8437 -0.4871 -0.2258
vn 0.8660 -0.5000 -0.0000
vn 0.8437 0.4871 -0.2258
vn 0.8660 0.5000 -0.0000
vn -0.0000 0.9742 -0.2258
vn -0.8437 0.4871 -0.2258
vn -0.8660 0.5000 -0.0000
vn -0.0000 0.7402 -0.6724
vn -0.6410 0.3701 -0.6724
vn -0.8437 -0.4871 -0.2258
vn -0.8660 -0.5000 -0.0000
vn -0.0000 -0.0000 1.0000
vn -0.6410 -0.3701 -0.6724
vn -0.6776 0.3912 -0.6227
vn -0.6776 -0.3912 -0.6227
vn 0.6410 -0.3701 -0.6724
vn 0.6410 0.3701 -0.6724
vn -0.0000 -0.7402 -0.6724
vn 0.6776 0.3912 -0.6227
vn -0.0000 0.7824 -0.6227
vn -0.0000 -0.7824 -0.6227
vn 0.6776 -0.3912 -0.6227
vt 0.338453 0.804507
vt 0.381008 0.807095
vt 0.384287 0.773505
vt 0.330056 0.773101
vt 0.696863 0.708126
vt 0.751171 0.703207
vt 0.757648 0.737428
vt 0.693661 0.743628
vt 0.762196 0.766739
vt 0.697893 0.771763
vt 0.750376 0.230719
vt 0.752629 0.294992
vt 0.716460 0.293467
vt 0.714858 0.238447
vt 0.067912 0.762196
vt 0.122781 0.757534
vt 0.116089 0.731394
vt 0.073005 0.733292
vt 0.108447 0.696435
vt 0.070902 0.698034
vt 0.346206 0.836576
vt 0.383814 0.838735
vt 0.893155 0.489428
vt 0.908895 0.456744
vt 0.893155 0.424060
vt 0.857788 0.415988
vt 0.829426 0.438606
vt 0.829426 0.474882
vt 0.857788 0.497500
vt 0.287045 0.838735
vt 0.286590 0.806054
vt 0.012606 0.731790
vt 0.011652 0.696435
vt 0.013371 0.760142
vt 0.752629 0.184762
vt 0.716360 0.184000
vt 0.652437 0.738570
vt 0.651972 0.766928
vt 0.653018 0.703207
vt 0.286136 0.773373
vt 0.816411 0.567661
vt 0.727960 0.567661
vt 0.740055 0.466062
vt 0.804316 0.466062
vt 0.253534 0.737527
vt 0.253534 0.825978
vt 0.151935 0.813883
vt 0.151935 0.749622
vt 0.553310 0.819600
vt 0.553310 0.731149
vt 0.451711 0.743244
vt 0.451711 0.807504
vt 0.832356 0.682469
vt 0.832356 0.594017
vt 0.730758 0.606113
vt 0.730758 0.670373
vt 0.726637 0.943975
vt 0.790898 0.943975
vt 0.790898 0.879714
vt 0.726637 0.879714
vt 0.511181 0.759633
vt 0.511181 0.791118
vt 0.756442 0.525532
vt 0.787927 0.525532
vt 0.548737 0.736480
vt 0.510278 0.762509
vt 0.510278 0.791280
vt 0.548737 0.817308
vt 0.547834 0.816693
vt 0.509375 0.790664
vt 0.509375 0.761893
vt 0.547834 0.735864
vt 0.202637 0.656956
vt 0.194827 0.629463
vt 0.267470 0.629463
vt 0.259659 0.656956
vt 0.881403 0.266834
vt 0.908895 0.259024
vt 0.908895 0.331667
vt 0.881403 0.323856
vt 0.884592 0.799033
vt 0.912084 0.806844
vt 0.912084 0.734201
vt 0.884592 0.742011
vt 0.597572 0.792240
vt 0.625065 0.800050
vt 0.625065 0.727407
vt 0.597572 0.735218
vt 0.277452 0.629463
vt 0.269642 0.656956
vt 0.597572 0.802222
vt 0.625065 0.810033
vt 0.625065 0.717425
vt 0.597572 0.725235
vt 0.192655 0.656956
vt 0.184844 0.629463
vt 0.476356 0.912084
vt 0.486338 0.902101
vt 0.486338 0.845080
vt 0.476356 0.835097
vt 0.419334 0.835097
vt 0.409352 0.845080
vt 0.409352 0.902101
vt 0.419334 0.912084
vt 0.912084 0.231372
vt 0.884592 0.239183
vt 0.884592 0.166540
vt 0.912084 0.174350
vt 0.573000 0.379633
vt 0.598826 0.371822
vt 0.598826 0.444465
vt 0.573000 0.436654
vt 0.799961 0.185097
vt 0.775970 0.177287
vt 0.775970 0.249930
vt 0.799961 0.242119
vt 0.900922 0.837684
vt 0.873430 0.829874
vt 0.873430 0.902517
vt 0.900922 0.894706
vt 0.807470 0.175115
vt 0.783479 0.167304
vt 0.783479 0.259912
vt 0.807470 0.252101
vt 0.566422 0.369650
vt 0.592248 0.361839
vt 0.592248 0.454447
vt 0.566422 0.446637
vt 0.850361 0.252101
vt 0.857869 0.242119
vt 0.857869 0.185097
vt 0.850361 0.175115
vt 0.605930 0.387061
vt 0.605930 0.429226
vt 0.420202 0.685658
vt 0.454810 0.685050
vt 0.459231 0.615325
vt 0.420351 0.614902
vt 0.235702 0.123685
vt 0.227637 0.162317
vt 0.281880 0.165776
vt 0.283232 0.125271
vt 0.514243 0.302302
vt 0.514243 0.342829
vt 0.443673 0.342829
vt 0.443673 0.302302
vt 0.369139 0.126679
vt 0.369139 0.167206
vt 0.308414 0.161138
vt 0.310598 0.126530
vt 0.012597 0.934408
vt 0.071755 0.934408
vt 0.071755 0.863837
vt 0.012597 0.863837
vt 0.242372 0.851081
vt 0.242372 0.921651
vt 0.212820 0.921651
vt 0.212820 0.851081
vt 0.924948 0.597614
vt 0.928030 0.668118
vt 0.913463 0.668088
vt 0.913463 0.598027
vt 0.296636 0.933667
vt 0.291377 0.863847
vt 0.317316 0.863847
vt 0.316166 0.934408
vt 0.339586 0.183840
vt 0.334350 0.183840
vt 0.246555 0.181241
vt 0.251789 0.181415
vt 0.620281 0.905536
vt 0.614901 0.905706
vt 0.615159 0.835321
vt 0.620281 0.835123
vt 0.189941 0.344013
vt 0.189941 0.414584
vt 0.201044 0.413918
vt 0.204103 0.343924
vt 0.337059 0.195333
vt 0.331989 0.194944
vt 0.251130 0.195563
vt 0.256444 0.196130
vt 0.369139 0.013155
vt 0.369139 0.069767
vt 0.314361 0.069916
vt 0.309982 0.020901
vt 0.514243 0.188777
vt 0.514243 0.245390
vt 0.443673 0.245390
vt 0.443673 0.188777
vt 0.227637 0.017578
vt 0.237600 0.066805
vt 0.285131 0.068391
vt 0.287019 0.011810
vt 0.314573 0.685473
vt 0.363588 0.685288
vt 0.363439 0.614902
vt 0.314573 0.614902
vt 0.011844 0.815701
vt 0.097268 0.815701
vt 0.097268 0.789479
vt 0.011844 0.797054
vt 0.654449 0.805922
vt 0.739872 0.800361
vt 0.739872 0.828736
vt 0.654449 0.826100
vt 0.739872 0.851491
vt 0.654449 0.842282
vt 0.853666 0.306837
vt 0.857869 0.392260
vt 0.828765 0.392260
vt 0.832968 0.306837
vt 0.825516 0.058086
vt 0.816307 0.143510
vt 0.839062 0.143510
vt 0.841698 0.058086
vt 0.159851 0.911154
vt 0.131476 0.904677
vt 0.128656 0.907938
vt 0.160792 0.915273
vt 0.867437 0.143510
vt 0.861876 0.058086
vt 0.011844 0.834349
vt 0.097268 0.841924
vt 0.982244 0.206362
vt 0.973264 0.187714
vt 0.953085 0.183109
vt 0.936904 0.196013
vt 0.936904 0.216711
vt 0.953085 0.229616
vt 0.973264 0.225010
vt 0.915867 0.537963
vt 0.915867 0.567661
vt 0.921651 0.567661
vt 0.921651 0.537963
vt 0.182606 0.863903
vt 0.182606 0.893007
vt 0.186563 0.894721
vt 0.186563 0.861759
vt 0.118848 0.878455
vt 0.131476 0.852232
vt 0.128656 0.848542
vt 0.114354 0.878240
vt 0.159851 0.845756
vt 0.160792 0.841207
vt 0.530483 0.914317
vt 0.516181 0.884618
vt 0.520153 0.884808
vt 0.532976 0.911434
vt 0.919056 0.393596
vt 0.919056 0.419367
vt 0.924841 0.419367
vt 0.924841 0.393596
vt 0.931812 0.315721
vt 0.931812 0.289950
vt 0.937597 0.289950
vt 0.937597 0.315721
vt 0.915867 0.508264
vt 0.921651 0.508264
vt 0.919056 0.361460
vt 0.924841 0.361460
vt 0.702196 0.502284
vt 0.702196 0.469322
vt 0.707981 0.469322
vt 0.707981 0.502284
vt 0.931812 0.257814
vt 0.937597 0.257814
vt 0.941680 0.063782
vt 0.941680 0.040677
vt 0.950353 0.039644
vt 0.950353 0.060175
vt 0.530483 0.854920
vt 0.562619 0.847585
vt 0.561788 0.851605
vt 0.532976 0.858181
vt 0.588390 0.868137
vt 0.588390 0.901100
vt 0.584893 0.899585
vt 0.584893 0.870031
vt 0.562619 0.921651
vt 0.561788 0.918011
vt 0.959689 0.922705
vt 0.971083 0.946364
vt 0.959689 0.970023
vt 0.934088 0.975866
vt 0.913557 0.959494
vt 0.913557 0.933234
vt 0.934088 0.916862
vt 0.935302 0.691403
vt 0.935302 0.718030
vt 0.943975 0.718030
vt 0.943975 0.694371
vt 0.948058 0.515743
vt 0.948058 0.544555
vt 0.956732 0.543523
vt 0.956732 0.517921
vt 0.785414 0.730305
vt 0.785414 0.700752
vt 0.794087 0.702399
vt 0.794087 0.728658
vt 0.941680 0.011864
vt 0.950353 0.014043
vt 0.935302 0.744656
vt 0.943975 0.741689
vt 0.948058 0.567661
vt 0.956732 0.564053
vt 0.659887 0.530303
vt 0.659887 0.615919
vt 0.682340 0.615919
vt 0.682340 0.530303
vt 0.480872 0.659887
vt 0.566488 0.659887
vt 0.566488 0.682340
vt 0.480872 0.682340
vt 0.566488 0.704792
vt 0.480872 0.704792
vt 0.446062 0.372442
vt 0.446062 0.458058
vt 0.471988 0.458058
vt 0.471988 0.372442
vt 0.579713 0.682340
vt 0.579713 0.694309
vt 0.733494 0.012073
vt 0.733494 0.097690
vt 0.707568 0.097690
vt 0.707568 0.012073
vt 0.704792 0.615919
vt 0.704792 0.530303
vt 0.465935 0.471284
vt 0.452114 0.471284
vt 0.455471 0.518230
vt 0.462576 0.518230
vt 0.727441 0.110915
vt 0.713620 0.110915
vt 0.682340 0.629144
vt 0.694309 0.629144
vt 0.579713 0.670370
vt 0.670370 0.629144
vt 0.097268 0.592810
vt 0.091115 0.596363
vt 0.084962 0.592810
vt 0.084962 0.585705
vt 0.091115 0.582153
vt 0.097268 0.585705
vt 0.626659 0.676187
vt 0.626659 0.682340
vt 0.682340 0.676090
vt 0.688493 0.676090
vt 0.676187 0.676090
vt 0.626659 0.688493
vt 0.724083 0.157861
vt 0.716978 0.157861
vt 0.959792 0.487933
vt 0.982244 0.474970
vt 0.975516 0.471085
vt 0.959792 0.480164
vt 0.982244 0.449044
vt 0.975516 0.452929
vt 0.959792 0.436081
vt 0.959792 0.443851
vt 0.937339 0.449044
vt 0.944068 0.452929
vt 0.468103 0.365713
vt 0.449946 0.365713
vt 0.937339 0.474970
vt 0.944068 0.471085
vt 0.834679 0.815770
vt 0.834679 0.841312
vt 0.849896 0.841312
vt 0.849896 0.815770
vt 0.913793 0.057635
vt 0.915273 0.083134
vt 0.889641 0.084511
vt 0.893559 0.058722
vt 0.789027 0.815770
vt 0.789027 0.841312
vt 0.804244 0.841312
vt 0.804244 0.815770
vt 0.889760 0.567020
vt 0.889760 0.592562
vt 0.859326 0.592562
vt 0.859326 0.567020
vt 0.366729 0.899841
vt 0.353956 0.910050
vt 0.344433 0.901322
vt 0.340106 0.882887
vt 0.350583 0.872831
vt 0.363012 0.881366
vt 0.866464 0.682439
vt 0.865948 0.707981
vt 0.885070 0.707981
vt 0.884698 0.682439
vt 0.859240 0.637405
vt 0.886571 0.637405
vt 0.876205 0.627226
vt 0.869247 0.627226
vt 0.374720 0.905200
vt 0.356649 0.921651
vt 0.849896 0.916264
vt 0.843962 0.886381
vt 0.834184 0.894852
vt 0.838423 0.913047
vt 0.883883 0.602741
vt 0.865203 0.602741
vt 0.816722 0.877440
vt 0.816805 0.889527
vt 0.345204 0.861408
vt 0.371825 0.874891
vt 0.789027 0.770736
vt 0.804244 0.770736
vt 0.810121 0.760556
vt 0.800781 0.760556
vt 0.800781 0.851491
vt 0.810121 0.851491
vt 0.834679 0.770736
vt 0.828802 0.760556
vt 0.828802 0.851491
vt 0.816722 0.924466
vt 0.827016 0.937597
vt 0.833910 0.923784
vt 0.818614 0.917945
vt 0.340106 0.907499
vt 0.818577 0.898711
vt 0.861661 0.656897
vt 0.886438 0.656897
vt 0.889760 0.521986
vt 0.889760 0.541478
vt 0.859326 0.541478
vt 0.859326 0.521986
vt 0.804244 0.790228
vt 0.834679 0.790228
vt 0.789027 0.790228
vt 0.915273 0.012456
vt 0.912534 0.032124
vt 0.897160 0.032950
vt 0.891011 0.013760
vt 0.849896 0.790228
vt 0.849896 0.770736
vt 0.020245 0.669712
vt 0.116264 0.669712
vt 0.116264 0.647260
vt 0.020245 0.647260
vt 0.679279 0.366263
vt 0.679279 0.462282
vt 0.656827 0.462282
vt 0.656827 0.366263
vt 0.634375 0.462282
vt 0.634375 0.366263
vt 0.662921 0.176511
vt 0.662921 0.272530
vt 0.688847 0.272530
vt 0.688847 0.176511
vt 0.150998 0.685245
vt 0.247017 0.685245
vt 0.247017 0.711170
vt 0.150998 0.711170
vt 0.116264 0.624807
vt 0.020245 0.624807
vt 0.011918 0.630212
vt 0.011918 0.647260
vt 0.142671 0.708050
vt 0.142671 0.688364
vt 0.656827 0.357936
vt 0.673875 0.357936
vt 0.639779 0.357936
vt 0.685727 0.168184
vt 0.666042 0.168184
vt 0.011918 0.664307
vt 0.253534 0.975591
vt 0.253534 0.955906
vt 0.236486 0.946063
vt 0.219438 0.955906
vt 0.219438 0.975591
vt 0.236486 0.985434
vt 0.270969 0.692291
vt 0.270969 0.704138
vt 0.669953 0.296482
vt 0.681800 0.296482
vt 0.666033 0.486234
vt 0.655774 0.486234
vt 0.140216 0.648313
vt 0.140216 0.638054
vt 0.140216 0.658572
vt 0.645514 0.486234
vt 0.669981 0.314127
vt 0.681827 0.314127
vt 0.666196 0.503879
vt 0.655936 0.503879
vt 0.157861 0.648150
vt 0.157861 0.637891
vt 0.157861 0.658410
vt 0.645677 0.503879
vt 0.288614 0.692264
vt 0.288614 0.704111
vt 0.033486 0.976321
vt 0.023226 0.982244
vt 0.012967 0.976321
vt 0.012967 0.964475
vt 0.023226 0.958551
vt 0.033486 0.964475
vt 0.190528 0.478366
vt 0.344423 0.478366
vt 0.344423 0.443374
vt 0.190528 0.443374
vt 0.011938 0.445677
vt 0.165833 0.445677
vt 0.165833 0.342481
vt 0.011938 0.342481
vt 0.011938 0.470481
vt 0.165833 0.470481
vt 0.165833 0.505473
vt 0.011938 0.505473
vt 0.496703 0.011938
vt 0.496703 0.165833
vt 0.393507 0.165833
vt 0.393507 0.011938
vt 0.794087 0.114808
vt 0.794087 0.011611
vt 0.759095 0.011611
vt 0.759095 0.114808
vt 0.803654 0.320955
vt 0.803654 0.424151
vt 0.768663 0.424151
vt 0.768663 0.320955
vt 0.204103 0.266290
vt 0.204103 0.237125
vt 0.011444 0.237125
vt 0.011444 0.266290
vt 0.204103 0.318910
vt 0.204103 0.289745
vt 0.011444 0.289745
vt 0.011444 0.318911
vt 0.011444 0.204103
vt 0.204103 0.204103
vt 0.204103 0.011444
vt 0.011444 0.011444
vt 0.420165 0.420165
vt 0.227506 0.420165
vt 0.227506 0.227506
vt 0.420165 0.227506
vt 0.496193 0.434870
vt 0.496193 0.472471
vt 0.519171 0.472471
vt 0.519171 0.434870
vt 0.259469 0.502571
vt 0.297070 0.502571
vt 0.297070 0.525549
vt 0.259469 0.525549
vt 0.297070 0.548526
vt 0.259469 0.548526
vt 0.520400 0.081677
vt 0.520400 0.119278
vt 0.546932 0.119278
vt 0.546932 0.081677
vt 0.080880 0.529967
vt 0.118480 0.529967
vt 0.118480 0.556499
vt 0.080880 0.556499
vt 0.542148 0.472471
vt 0.542148 0.434870
vt 0.519171 0.374207
vt 0.542148 0.374207
vt 0.536617 0.365686
vt 0.519171 0.365686
vt 0.020217 0.529967
vt 0.020217 0.556499
vt 0.011695 0.553305
vt 0.011695 0.533160
vt 0.198807 0.502571
vt 0.198807 0.525549
vt 0.190285 0.525549
vt 0.190285 0.508102
vt 0.198807 0.548526
vt 0.190285 0.542995
vt 0.520400 0.021014
vt 0.546932 0.021014
vt 0.543739 0.012493
vt 0.523593 0.012493
vt 0.496193 0.374207
vt 0.501724 0.365686
vt 0.865936 0.982244
vt 0.883382 0.972172
vt 0.883382 0.952026
vt 0.865936 0.941954
vt 0.848489 0.952026
vt 0.848489 0.972172
vt 0.142993 0.537178
vt 0.142993 0.549302
vt 0.527597 0.143790
vt 0.539720 0.143790
vt 0.321582 0.516128
vt 0.321582 0.526627
vt 0.518093 0.496983
vt 0.528592 0.496983
vt 0.507593 0.496983
vt 0.321582 0.537126
vt 0.527624 0.161847
vt 0.539748 0.161847
vt 0.339640 0.515961
vt 0.339640 0.526460
vt 0.518259 0.515040
vt 0.528758 0.515040
vt 0.507760 0.515040
vt 0.339640 0.536959
vt 0.161050 0.537151
vt 0.161050 0.549274
vt 0.838735 0.718498
vt 0.838735 0.730622
vt 0.828235 0.736683
vt 0.817736 0.730622
vt 0.817736 0.718498
vt 0.828235 0.712436
vt 0.519171 0.397269
vt 0.542148 0.397269
vt 0.043279 0.529967
vt 0.043279 0.556499
vt 0.520400 0.044076
vt 0.546932 0.044076
vt 0.221869 0.525549
vt 0.221869 0.548526
vt 0.221869 0.502571
vt 0.496193 0.397269
vt 0.670856 0.908040
vt 0.700009 0.921710
vt 0.699932 0.899859
vt 0.690997 0.876314
vt 0.591772 0.956379
vt 0.591772 0.975866
vt 0.618138 0.975370
vt 0.623470 0.953025
vt 0.493508 0.959185
vt 0.500191 0.985433
vt 0.476355 0.982954
vt 0.469676 0.969525
vt 0.420962 0.967832
vt 0.410404 0.980370
vt 0.380848 0.982244
vt 0.381816 0.963322
vt 0.925504 0.136243
vt 0.963110 0.129203
vt 0.956044 0.108816
vt 0.926736 0.108816
vt 0.135537 0.965446
vt 0.097825 0.961920
vt 0.105289 0.942015
vt 0.134110 0.942015
vt 0.128425 0.985433
vt 0.102341 0.981333
vt 0.938798 0.164239
vt 0.959448 0.150473
vt 0.519176 0.955666
vt 0.519824 0.977789
vt 0.667111 0.933675
vt 0.686500 0.937597
vt 0.645478 0.920355
vt 0.645478 0.888976
vt 0.511006 0.934906
vt 0.489614 0.933165
vt 0.418210 0.938740
vt 0.388491 0.938740
vt 0.469676 0.941126
vt 0.595615 0.934683
vt 0.617176 0.931630
vt 0.670117 0.869676
vt 0.561779 0.186426
vt 0.561779 0.322112
vt 0.585201 0.322112
vt 0.585201 0.186426
vt 0.144170 0.575696
vt 0.279856 0.575696
vt 0.279856 0.602741
vt 0.144170 0.602741
vt 0.364219 0.543141
vt 0.499904 0.543141
vt 0.499904 0.566563
vt 0.364219 0.566563
vt 0.499904 0.589984
vt 0.364219 0.589984
vt 0.511851 0.566563
vt 0.511851 0.584475
vt 0.610776 0.184034
vt 0.610776 0.319720
vt 0.637821 0.319720
vt 0.637821 0.184034
vt 0.538358 0.186426
vt 0.538358 0.322112
vt 0.972677 0.871454
vt 0.972677 0.844409
vt 0.949255 0.830887
vt 0.925834 0.844409
vt 0.925834 0.871454
vt 0.949255 0.884977
vt 0.961143 0.808438
vt 0.943230 0.798096
vt 0.954664 0.791495
vt 0.961143 0.795236
vt 0.291803 0.578877
vt 0.291803 0.599560
vt 0.613957 0.331667
vt 0.634640 0.331667
vt 0.561779 0.334059
vt 0.579692 0.334059
vt 0.511851 0.548650
vt 0.543867 0.334059
vt 0.892949 0.353406
vt 0.885468 0.353406
vt 0.885468 0.393854
vt 0.892949 0.393854
vt 0.943230 0.777413
vt 0.961143 0.767071
vt 0.961143 0.780274
vt 0.954664 0.784014
vt 0.979055 0.777413
vt 0.979055 0.798096
vt 0.967622 0.791495
vt 0.967622 0.784014
vt 0.411294 0.204103
vt 0.404815 0.200362
vt 0.404815 0.192881
vt 0.411294 0.189140
vt 0.417773 0.192881
vt 0.417773 0.200362
vt 0.956631 0.592589
vt 0.963110 0.592589
vt 0.963110 0.633037
vt 0.956631 0.633037
vt 0.966299 0.340650
vt 0.959820 0.340650
vt 0.959820 0.381098
vt 0.966299 0.381098
vt 0.953341 0.340650
vt 0.953341 0.381098
vt 0.950152 0.592589
vt 0.950152 0.633037
vt 0.965196 0.257733
vt 0.972677 0.257733
vt 0.972677 0.298181
vt 0.965196 0.298181
s 1
usemtl Trash
f 15/1/1 2/2/2 4/3/3 16/4/4
f 16/5/4 4/6/3 6/7/5 17/8/6
f 17/8/6 6/7/5 8/9/7 18/10/8
f 18/11/8 8/12/7 10/13/9 19/14/10
f 19/15/10 10/16/9 12/17/11 20/18/12
f 20/18/12 12/17/11 14/19/13 21/20/14
f 21/21/14 14/22/13 2/2/2 15/1/1
f 1/23/15 3/24/15 5/25/15 7/26/15 9/27/15 11/28/15 13/29/15
f 13/30/16 21/21/14 15/1/1 1/31/17
f 11/32/18 20/18/12 21/20/14 13/33/16
f 9/34/19 19/15/10 20/18/12 11/32/18
f 7/35/20 18/11/8 19/14/10 9/36/19
f 5/37/21 17/8/6 18/10/8 7/38/20
f 3/39/22 16/5/4 17/8/6 5/37/21
f 1/31/17 15/1/1 16/4/4 3/40/22
f 36/1/23 37/4/24 25/3/25 23/2/26
f 37/5/24 38/8/27 27/7/28 25/6/25
f 38/8/27 39/10/29 29/9/30 27/7/28
f 39/11/29 40/14/31 31/13/32 29/12/30
f 40/15/31 41/18/33 33/17/34 31/16/32
f 41/18/33 42/20/35 35/19/36 33/17/34
f 42/21/35 36/1/23 23/2/26 35/22/36
f 22/23/37 34/29/37 32/28/37 30/27/37 28/26/37 26/25/37 24/24/37
f 34/30/38 22/31/39 36/1/23 42/21/35
f 32/32/40 34/33/38 42/20/35 41/18/33
f 30/34/41 32/32/40 41/18/33 40/15/31
f 28/35/42 30/36/41 40/14/31 39/11/29
f 26/37/43 28/38/42 39/10/29 38/8/27
f 24/39/44 26/37/43 38/8/27 37/5/24
f 22/31/39 24/40/44 37/4/24 36/1/23
f 4/3/3 2/2/2 23/2/26 25/3/25
f 6/7/5 4/6/3 25/6/25 27/7/28
f 8/9/7 6/7/5 27/7/28 29/9/30
f 10/13/9 8/12/7 29/12/30 31/13/32
f 12/17/11 10/16/9 31/16/32 33/17/34
f 14/19/13 12/17/11 33/17/34 35/19/36
f 2/2/2 14/22/13 35/22/36 23/2/26
s 0
f 43/41/45 45/42/45 46/43/45 44/44/45
f 45/45/46 49/46/46 50/47/46 46/48/46
f 49/49/47 47/50/47 48/51/47 50/52/47
f 47/53/48 43/54/48 44/55/48 48/56/48
f 50/57/15 48/58/15 44/59/15 46/60/15
f 47/50/49 53/61/49 54/62/49 49/49/49
f 45/42/50 52/63/50 51/64/50 43/41/50
f 43/65/51 55/66/51 57/67/51 47/68/51
f 49/69/52 58/70/52 56/71/52 45/72/52
f 59/41/53 60/44/53 62/43/53 61/42/53
f 61/45/54 62/48/54 66/47/54 65/46/54
f 65/49/55 66/52/55 64/51/55 63/50/55
f 63/53/56 64/56/56 60/55/56 59/54/56
f 66/57/57 62/60/57 60/59/57 64/58/57
f 63/50/58 65/49/58 70/62/58 69/61/58
f 61/42/59 59/41/59 67/64/59 68/63/59
f 59/65/60 63/68/60 73/67/60 71/66/60
f 65/69/61 61/72/61 72/71/61 74/70/61
s 1
f 84/73/62 85/74/63 78/75/64 75/76/65
f 88/77/66 89/78/67 86/79/68 83/80/69
f 76/81/70 77/82/71 82/83/72 79/84/73
f 80/85/74 81/86/75 90/87/76 87/88/77
f 75/76/65 78/75/64 77/89/71 76/90/70
f 81/86/75 80/85/74 79/91/73 82/92/72
f 89/93/67 88/94/66 87/88/77 90/87/76
f 85/74/63 84/73/62 83/95/69 86/96/68
f 79/97/15 80/98/15 87/99/15 88/100/15 83/101/15 84/102/15 75/103/15 76/104/15
f 100/105/78 101/106/79 94/107/80 91/108/81
f 104/109/82 105/110/83 102/111/84 99/112/85
f 92/113/86 93/114/87 98/115/88 95/116/89
f 96/117/90 97/118/91 106/119/92 103/120/93
f 91/121/81 94/122/80 93/114/87 92/113/86
f 97/123/91 96/124/90 95/116/89 98/115/88
f 105/110/83 104/109/82 103/125/93 106/126/92
f 101/127/79 100/128/78 99/112/85 102/111/84
f 95/116/94 96/124/94 103/129/94 104/130/94 99/131/94 100/132/94 91/121/94 92/113/94
f 102/111/84 105/110/83 108/133/95 107/134/96
f 118/73/62 119/74/63 112/75/64 109/76/65
f 122/77/66 123/78/67 120/79/68 117/80/69
f 110/81/70 111/82/71 116/83/72 113/84/73
f 114/85/74 115/86/75 124/87/76 121/88/77
f 109/76/65 112/75/64 111/89/71 110/90/70
f 115/86/75 114/85/74 113/91/73 116/92/72
f 123/93/67 122/94/66 121/88/77 124/87/76
f 119/74/63 118/73/62 117/95/69 120/96/68
f 113/97/15 114/98/15 121/99/15 122/100/15 117/101/15 118/102/15 109/103/15 110/104/15
f 134/105/78 135/106/79 128/107/80 125/108/81
f 138/109/82 139/110/83 136/111/84 133/112/85
f 126/113/86 127/114/87 132/115/88 129/116/89
f 130/117/90 131/118/91 140/119/92 137/120/93
f 125/121/81 128/122/80 127/114/87 126/113/86
f 131/123/91 130/124/90 129/116/89 132/115/88
f 139/110/83 138/109/82 137/125/93 140/126/92
f 135/127/79 134/128/78 133/112/85 136/111/84
f 129/116/94 130/124/94 137/129/94 138/130/94 133/131/94 134/132/94 125/121/94 126/113/94
f 136/111/84 139/110/83 142/133/95 141/134/96
f 152/73/97 143/76/98 146/75/99 153/74/100
f 156/77/101 151/80/102 154/79/103 157/78/104
f 144/81/105 147/84/106 150/83/107 145/82/108
f 148/85/109 155/88/110 158/87/111 149/86/112
f 143/76/98 144/90/105 145/89/108 146/75/99
f 149/86/112 150/92/107 147/91/106 148/85/109
f 157/93/104 158/87/111 155/88/110 156/94/101
f 153/74/100 154/96/103 151/95/102 152/73/97
f 147/97/57 144/104/57 143/103/57 152/102/57 151/101/57 156/100/57 155/99/57 148/98/57
f 168/105/113 159/108/114 162/107/115 169/106/116
f 172/109/117 167/112/118 170/111/119 173/110/120
f 160/113/121 163/116/122 166/115/123 161/114/124
f 164/117/125 171/120/126 174/119/127 165/118/128
f 159/121/114 160/113/121 161/114/124 162/122/115
f 165/123/128 166/115/123 163/116/122 164/124/125
f 173/110/120 174/126/127 171/125/126 172/109/117
f 169/127/116 170/111/119 167/112/118 168/128/113
f 163/116/129 160/113/129 159/121/129 168/132/129 167/131/129 172/130/129 171/129/129 164/124/129
f 170/111/119 175/134/130 176/133/131 173/110/120
f 186/73/97 177/76/98 180/75/99 187/74/100
f 190/77/101 185/80/102 188/79/103 191/78/104
f 178/81/105 181/84/106 184/83/107 179/82/108
f 182/85/109 189/88/110 192/87/111 183/86/112
f 177/76/98 178/90/105 179/89/108 180/75/99
f 183/86/112 184/92/107 181/91/106 182/85/109
f 191/93/104 192/87/111 189/88/110 190/94/101
f 187/74/100 188/96/103 185/95/102 186/73/97
f 181/97/57 178/104/57 177/103/57 186/102/57 185/101/57 190/100/57 189/99/57 182/98/57
f 202/105/113 193/108/114 196/107/115 203/106/116
f 206/109/117 201/112/118 204/111/119 207/110/120
f 194/113/121 197/116/122 200/115/123 195/114/124
f 198/117/125 205/120/126 208/119/127 199/118/128
f 193/121/114 194/113/121 195/114/124 196/122/115
f 199/123/128 200/115/123 197/116/122 198/124/125
f 207/110/120 208/126/127 205/125/126 206/109/117
f 203/127/116 204/111/119 201/112/118 202/128/113
f 197/116/129 194/113/129 193/121/129 202/132/129 201/131/129 206/130/129 205/129/129 198/124/129
f 204/111/119 209/134/130 210/133/131 207/110/120
f 77/89/71 78/75/64 146/75/99 145/89/108
f 81/86/75 82/92/72 150/92/107 149/86/112
f 89/93/67 90/87/76 158/87/111 157/93/104
f 85/74/63 86/96/68 154/96/103 153/74/100
f 82/83/72 77/82/71 145/82/108 150/83/107
f 78/75/64 85/74/63 153/74/100 146/75/99
f 86/79/68 89/78/67 157/78/104 154/79/103
f 90/87/76 81/86/75 149/86/112 158/87/111
f 93/114/87 94/122/80 162/122/115 161/114/124
f 97/123/91 98/115/88 166/115/123 165/123/128
f 105/110/83 106/126/92 174/126/127 173/110/120
f 101/127/79 102/111/84 170/111/119 169/127/116
f 98/115/88 93/114/87 161/114/124 166/115/123
f 94/107/80 101/106/79 169/106/116 162/107/115
f 106/119/92 97/118/91 165/118/128 174/119/127
f 107/134/96 108/133/95 176/133/131 175/134/130
f 102/111/84 107/134/96 175/134/130 170/111/119
f 108/133/95 105/110/83 173/110/120 176/133/131
f 111/89/71 112/75/64 180/75/99 179/89/108
f 115/86/75 116/92/72 184/92/107 183/86/112
f 123/93/67 124/87/76 192/87/111 191/93/104
f 119/74/63 120/96/68 188/96/103 187/74/100
f 116/83/72 111/82/71 179/82/108 184/83/107
f 112/75/64 119/74/63 187/74/100 180/75/99
f 120/79/68 123/78/67 191/78/104 188/79/103
f 124/87/76 115/86/75 183/86/112 192/87/111
f 127/114/87 128/122/80 196/122/115 195/114/124
f 131/123/91 132/115/88 200/115/123 199/123/128
f 139/110/83 140/126/92 208/126/127 207/110/120
f 135/127/79 136/111/84 204/111/119 203/127/116
f 132/115/88 127/114/87 195/114/124 200/115/123
f 128/107/80 135/106/79 203/106/116 196/107/115
f 140/119/92 131/118/91 199/118/128 208/119/127
f 141/134/96 142/133/95 210/133/131 209/134/130
f 136/111/84 141/134/96 209/134/130 204/111/119
f 142/133/95 139/110/83 207/110/120 210/133/131
s 0
f 231/135/132 212/136/132 214/137/132 232/138/132
f 232/139/133 214/140/133 218/141/133 233/142/133
f 233/143/15 218/144/15 216/145/15 234/146/15
f 234/147/134 216/148/134 212/149/134 231/150/134
f 213/151/135 217/152/135 215/153/135 211/154/135
f 216/155/136 218/156/136 221/157/136 222/158/136
f 222/159/137 221/160/137 225/161/137 226/162/137
f 214/163/138 212/164/138 219/165/138 220/166/138
f 212/149/139 216/148/139 222/167/139 219/168/139
f 218/141/140 214/140/140 220/169/140 221/170/140
f 225/171/141 224/172/141 223/173/141 226/174/141
f 220/175/142 219/176/142 223/177/142 224/178/142
f 219/168/143 222/167/143 226/179/143 223/180/143
f 221/170/144 220/169/144 224/181/144 225/182/144
f 215/183/145 230/184/145 227/185/145 211/186/145
f 217/187/15 229/188/15 230/189/15 215/190/15
f 213/191/146 228/192/146 229/193/146 217/194/146
f 211/195/147 227/196/147 228/197/147 213/198/147
f 230/184/148 234/147/148 231/150/148 227/185/148
f 229/188/15 233/143/15 234/146/15 230/189/15
f 228/192/146 232/139/146 233/142/146 229/193/146
f 227/196/149 231/135/149 232/138/149 228/197/149
s 1
f 235/199/150 236/200/150 238/201/151 237/202/152
f 237/203/152 238/204/151 240/205/153 239/206/154
f 239/206/154 240/205/153 242/207/155 241/208/156
f 241/209/156 242/210/155 244/211/157 243/212/158
f 243/213/158 244/214/157 246/215/159 245/216/160
f 236/217/15 248/218/15 255/219/15 250/220/15
f 245/216/160 246/215/159 248/221/161 247/222/162
f 247/223/162 248/224/161 236/200/150 235/199/150
f 235/225/15 237/226/15 239/227/15 241/228/15 243/229/15 245/230/15 247/231/15
f 250/232/163 255/233/164 262/234/164 257/235/163
f 240/236/15 238/237/15 249/238/15 251/239/15
f 246/240/15 244/241/15 253/242/15 254/243/15
f 238/237/15 236/217/15 250/220/15 249/238/15
f 242/244/15 240/236/15 251/239/15 252/245/15
f 248/218/15 246/240/15 254/243/15 255/219/15
f 244/241/15 242/244/15 252/245/15 253/242/15
f 262/246/57 261/247/57 268/248/57 269/249/57
f 254/250/165 253/251/166 260/252/166 261/253/165
f 252/254/167 251/255/168 258/256/168 259/257/167
f 249/258/169 250/232/163 257/235/163 256/259/169
f 255/260/164 254/250/165 261/253/165 262/261/164
f 253/262/166 252/263/167 259/264/167 260/265/166
f 251/255/168 249/266/169 256/267/169 258/256/168
f 266/268/170 265/269/171 272/270/172 273/271/173
f 260/272/57 259/273/57 266/274/57 267/275/57
f 258/276/57 256/277/57 263/278/57 265/279/57
f 257/280/57 262/246/57 269/249/57 264/281/57
f 261/247/57 260/272/57 267/275/57 268/248/57
f 259/273/57 258/276/57 265/279/57 266/274/57
f 256/277/57 257/280/57 264/281/57 263/278/57
f 270/282/57 271/283/57 276/284/57 275/285/57 274/286/57 273/287/57 272/288/57
f 263/289/174 264/290/175 271/291/175 270/292/176
f 269/293/177 268/294/178 275/295/179 276/296/180
f 267/297/181 266/298/170 273/299/173 274/300/182
f 265/269/171 263/301/174 270/302/176 272/270/172
f 264/290/175 269/303/177 276/304/180 271/291/175
f 268/294/178 267/305/181 274/306/182 275/295/179
f 306/307/183 282/308/184 277/309/185 296/310/186
f 300/311/187 279/312/188 280/313/189 302/314/190
f 302/314/190 280/313/189 281/315/191 304/316/192
f 304/317/192 281/318/191 282/319/184 306/320/183
f 281/315/191 280/313/189 286/321/193 287/322/194
f 298/323/195 278/324/196 279/325/188 300/326/187
f 296/310/186 277/309/185 278/327/196 298/328/195
f 288/329/197 287/330/194 293/331/198 294/332/199
f 279/325/188 278/324/196 283/333/200 285/334/201
f 282/319/184 281/318/191 287/330/194 288/329/197
f 278/327/196 277/309/185 284/335/202 283/336/200
f 280/313/189 279/312/188 285/337/201 286/321/193
f 277/309/185 282/308/184 288/338/197 284/335/202
f 289/339/57 290/340/57 294/341/57 293/342/57 292/343/57 291/344/57
f 286/321/193 285/337/201 291/345/203 292/346/204
f 283/336/200 284/335/202 290/347/205 289/348/206
f 284/335/202 288/338/197 294/349/199 290/347/205
f 287/322/194 286/321/193 292/346/204 293/350/198
f 285/334/201 283/333/200 289/351/206 291/352/203
f 296/353/186 298/354/195 297/355/207 295/356/208
f 298/354/195 300/357/187 299/358/209 297/355/207
f 300/357/187 302/359/190 301/360/210 299/358/209
f 302/359/190 304/361/192 303/362/211 301/360/210
f 304/317/192 306/320/183 305/363/212 303/364/211
f 306/365/183 296/353/186 295/356/208 305/366/212
f 295/356/208 297/355/207 299/358/209 301/360/210 303/362/211 305/366/212
f 338/367/213 330/368/214 310/369/215 337/370/216
f 340/371/217 318/372/218 322/373/219 341/374/220
f 341/375/220 322/376/219 326/377/221 342/378/222
f 342/378/222 326/377/221 330/368/214 338/367/213
f 339/379/223 314/380/224 318/381/218 340/382/217
f 313/383/225 309/384/226 329/385/227 325/386/228 321/387/229 317/388/230
f 337/389/216 310/390/215 314/391/224 339/392/223
f 308/393/231 312/394/232 311/395/233 307/396/234
f 314/397/224 310/398/215 309/384/226 313/383/225
f 312/399/232 316/400/235 315/401/236 311/402/233
f 318/381/218 314/380/224 313/403/225 317/404/230
f 316/400/235 320/405/237 319/406/238 315/401/236
f 322/407/219 318/408/218 317/388/230 321/387/229
f 320/409/237 324/410/239 323/411/240 319/412/238
f 326/377/221 322/376/219 321/413/229 325/414/228
f 324/410/239 328/415/241 327/416/242 323/411/240
f 330/368/214 326/377/221 325/414/228 329/417/227
f 328/418/241 308/419/231 307/420/234 327/421/242
f 310/398/215 330/422/214 329/385/227 309/384/226
f 307/420/234 311/402/233 315/401/236 319/406/238 323/423/240 327/421/242
f 308/393/231 331/424/243 332/425/244 312/394/232
f 312/426/232 332/427/244 334/428/245 316/429/235
f 324/410/239 336/430/246 333/431/247 328/415/241
f 320/409/237 335/432/248 336/430/246 324/410/239
f 316/433/235 334/434/245 335/435/248 320/436/237
f 328/415/241 333/431/247 331/437/243 308/438/231
f 331/424/243 337/389/216 339/392/223 332/425/244
f 332/427/244 339/379/223 340/382/217 334/428/245
f 336/430/246 342/378/222 338/367/213 333/431/247
f 335/432/248 341/375/220 342/378/222 336/430/246
f 334/434/245 340/371/217 341/374/220 335/435/248
f 333/431/247 338/367/213 337/370/216 331/437/243
f 360/439/249 348/440/250 343/441/251 350/442/252
f 354/443/253 345/444/254 346/445/255 356/446/256
f 356/446/256 346/445/255 347/447/257 358/448/258
f 358/449/258 347/450/257 348/451/250 360/452/249
f 352/453/259 344/454/260 345/455/254 354/456/253
f 350/442/252 343/441/251 344/457/260 352/458/259
f 350/442/252 352/458/259 351/459/261 349/460/262
f 352/453/259 354/456/253 353/461/263 351/462/261
f 354/443/253 356/446/256 355/463/264 353/464/263
f 356/446/256 358/448/258 357/465/265 355/463/264
f 358/449/258 360/452/249 359/466/266 357/467/265
f 360/439/249 350/442/252 349/460/262 359/468/266
f 349/469/262 351/470/261 353/471/263 355/472/264 357/473/265 359/474/266
f 345/455/254 344/454/260 362/475/267 363/476/268
f 348/451/250 347/450/257 365/477/269 366/478/270
f 346/445/255 345/444/254 363/479/268 364/480/271
f 344/457/260 343/441/251 361/481/272 362/482/267
f 343/441/251 348/440/250 366/483/270 361/481/272
f 347/447/257 346/445/255 364/480/271 365/484/269
f 366/478/270 365/477/269 371/485/273 372/486/274
f 364/480/271 363/479/268 369/487/275 370/488/276
f 362/482/267 361/481/272 367/489/277 368/490/278
f 361/481/272 366/483/270 372/491/274 367/489/277
f 365/484/269 364/480/271 370/488/276 371/492/273
f 363/476/268 362/475/267 368/493/278 369/494/275
f 368/495/57 367/496/57 372/497/57 371/498/57 370/499/57 369/500/57
f 373/501/279 374/502/279 376/503/279 375/504/279
f 375/505/280 376/506/280 380/507/280 379/508/280
f 379/509/281 380/510/281 378/511/281 377/512/281
f 377/513/282 378/514/282 374/515/282 373/516/282
f 375/517/15 379/518/15 377/519/15 373/520/15
f 380/521/57 376/522/57 374/523/57 378/524/57
s 0
f 381/525/283 382/526/283 384/527/283 383/528/283
f 383/529/284 384/530/284 388/531/284 387/532/284
f 387/532/285 388/531/285 386/530/285 385/529/285
f 385/528/286 386/527/286 382/526/286 381/525/286
f 383/533/15 387/534/15 385/535/15 381/536/15
f 388/537/57 384/538/57 382/539/57 386/540/57
s 1
f 426/541/287 394/542/288 389/543/289 425/544/290
f 428/545/291 391/546/292 392/547/293 429/548/294
f 429/548/294 392/547/293 393/549/295 430/550/296
f 430/551/296 393/552/295 394/553/288 426/554/287
f 427/555/297 390/556/298 391/557/292 428/558/291
f 425/544/290 389/543/289 390/559/298 427/560/297
f 396/561/299 398/562/300 397/563/301 395/564/302
f 398/565/300 400/566/303 399/567/304 397/568/301
f 400/569/303 402/570/305 401/571/306 399/572/304
f 402/570/305 404/573/307 403/574/308 401/571/306
f 404/575/307 406/576/309 405/577/310 403/578/308
f 406/579/309 396/561/299 395/564/302 405/580/310
f 395/581/302 397/582/301 399/583/304 401/584/306 403/585/308 405/586/310
f 391/557/292 390/556/298 408/587/311 409/588/312
f 394/553/288 393/552/295 411/589/313 412/590/314
f 392/547/293 391/546/292 409/591/312 410/592/315
f 390/559/298 389/543/289 407/593/316 408/594/311
f 389/543/289 394/542/288 412/595/314 407/593/316
f 393/549/295 392/547/293 410/592/315 411/596/313
f 412/590/314 411/589/313 417/597/317 418/598/318
f 410/592/315 409/591/312 415/599/319 416/600/320
f 408/594/311 407/593/316 413/601/321 414/602/322
f 407/593/316 412/595/314 418/603/318 413/601/321
f 411/596/313 410/592/315 416/600/320 417/604/317
f 409/588/312 408/587/311 414/605/322 415/606/319
f 414/607/323 413/608/323 418/609/323 417/610/323 416/611/323 415/612/323
f 396/561/299 419/613/324 420/614/325 398/562/300
f 398/565/300 420/615/325 422/616/326 400/566/303
f 404/575/307 424/617/327 421/618/328 406/576/309
f 402/570/305 423/619/329 424/620/327 404/573/307
f 400/569/303 422/621/326 423/619/329 402/570/305
f 406/579/309 421/622/328 419/613/324 396/561/299
f 419/613/324 425/544/290 427/560/297 420/614/325
f 420/615/325 427/555/297 428/558/291 422/616/326
f 424/617/327 430/551/296 426/554/287 421/618/328
f 423/619/329 429/548/294 430/550/296 424/620/327
f 422/621/326 428/545/291 429/548/294 423/619/329
f 421/622/328 426/541/287 425/544/290 419/613/324
f 448/623/330 440/624/331 434/625/332 444/626/333
f 444/627/333 434/628/332 438/629/334 445/630/335
f 447/631/336 442/632/337 436/633/338 446/634/339
f 446/635/339 436/636/338 432/637/340 443/638/341
f 439/639/342 441/640/343 435/641/344 431/642/345
f 442/643/337 440/644/331 432/645/340 436/646/338
f 438/647/334 434/648/332 440/644/331 442/643/337
f 433/649/346 437/650/347 441/640/343 439/639/342
f 445/651/335 438/652/334 442/632/337 447/631/336
f 443/653/341 432/654/340 440/624/331 448/623/330
f 431/655/345 443/653/341 448/623/330 439/656/342
f 437/657/347 445/651/335 447/631/336 441/658/343
f 435/659/344 446/635/339 443/638/341 431/660/345
f 441/658/343 447/631/336 446/634/339 435/661/344
f 433/662/346 444/627/333 445/630/335 437/663/347
f 439/656/342 448/623/330 444/626/333 433/664/346
f 449/665/15 450/666/348 452/667/349 451/668/350
f 451/669/350 452/670/349 454/671/351 453/672/352
f 453/673/352 454/674/351 456/675/353 455/676/57
f 455/676/57 456/675/353 458/677/354 457/678/355
f 458/677/354 456/675/353 464/679/356 465/680/357
f 457/681/355 458/682/354 460/683/358 459/684/359
f 459/685/359 460/686/358 450/666/348 449/665/15
f 449/687/360 451/688/360 453/689/360 455/690/360 457/691/360 459/692/360
f 466/693/361 465/694/357 471/695/362 472/696/363
f 454/671/351 452/670/349 461/697/364 463/698/365
f 460/683/358 458/682/354 465/699/357 466/700/361
f 452/667/349 450/666/348 462/701/366 461/702/364
f 456/675/353 454/674/351 463/703/365 464/679/356
f 450/666/348 460/686/358 466/704/361 462/701/366
f 472/705/363 471/706/362 477/707/355 478/708/359
f 464/709/356 463/710/365 469/711/367 470/712/368
f 461/713/364 462/714/366 468/715/369 467/716/370
f 462/714/366 466/693/361 472/696/363 468/715/369
f 465/694/357 464/709/356 470/712/368 471/695/362
f 463/710/365 461/713/364 467/716/370 469/711/367
f 473/717/163 474/718/163 478/719/163 477/720/163 476/721/163 475/722/163
f 470/723/368 469/724/367 475/725/352 476/726/57
f 467/727/370 468/728/369 474/729/15 473/730/350
f 468/728/369 472/731/363 478/732/359 474/729/15
f 471/733/362 470/723/368 476/726/57 477/734/355
f 469/735/367 467/736/370 473/737/350 475/738/352
