# Blender 4.5.9 LTS
# www.blender.org
mtllib Trash_012.mtl
o Trash_012
v -0.032286 -0.010737 0.059248
v -0.031178 0.073589 0.011715
v -0.015997 -0.065011 -0.050667
v -0.029842 0.026623 -0.061682
v 0.031256 -0.023745 0.058974
v 0.031263 0.061085 0.022997
v 0.031224 -0.058493 -0.025045
v 0.027472 0.027448 -0.066091
v -0.039836 -0.064678 0.017416
v -0.043439 0.064287 -0.032684
v 0.042948 -0.050981 0.021036
v 0.038956 0.053856 -0.028632
v -0.036697 0.041000 0.039818
v -0.027240 -0.025764 -0.077711
v 0.042033 -0.018928 -0.053154
v 0.048808 0.036221 0.044123
v 0.068600 0.001925 -0.000794
v -0.068600 0.001925 -0.000794
vn -0.4166 -0.1602 0.8948
vn -0.3495 0.8918 0.2871
vn -0.1967 -0.8453 -0.4967
vn -0.4067 0.3466 -0.8453
vn 0.3705 -0.2802 0.8856
vn 0.4067 0.8561 0.3190
vn 0.5232 -0.8039 -0.2829
vn 0.4143 0.3704 -0.8314
vn -0.5347 -0.7886 0.3036
vn -0.5435 0.7527 -0.3715
vn 0.6060 -0.7184 0.3415
vn 0.5830 0.7079 -0.3987
vn -0.5344 0.4196 0.7337
vn -0.3686 -0.3015 -0.8793
vn 0.6875 -0.2126 -0.6944
vn 0.6268 0.4178 0.6577
vn 0.9998 -0.0017 -0.0214
vn -0.9995 -0.0249 0.0183
vt 0.670856 0.908040
vt 0.700009 0.921710
vt 0.699932 0.899859
vt 0.690997 0.876314
vt 0.591772 0.956379
vt 0.591772 0.975866
vt 0.618138 0.975370
vt 0.623470 0.953025
vt 0.493508 0.959185
vt 0.500191 0.985433
vt 0.476355 0.982954
vt 0.469676 0.969525
vt 0.420962 0.967832
vt 0.410404 0.980370
vt 0.380848 0.982244
vt 0.381816 0.963322
vt 0.925504 0.136243
vt 0.963110 0.129203
vt 0.956044 0.108816
vt 0.926736 0.108816
vt 0.135537 0.965446
vt 0.097825 0.961920
vt 0.105289 0.942015
vt 0.134110 0.942015
vt 0.128425 0.985433
vt 0.102341 0.981333
vt 0.938798 0.164239
vt 0.959448 0.150473
vt 0.519176 0.955666
vt 0.519824 0.977789
vt 0.667111 0.933675
vt 0.686500 0.937597
vt 0.645478 0.920355
vt 0.645478 0.888976
vt 0.511006 0.934906
vt 0.489614 0.933165
vt 0.418210 0.938740
vt 0.388491 0.938740
vt 0.469676 0.941126
vt 0.595615 0.934683
vt 0.617176 0.931630
vt 0.670117 0.869676
s 1
usemtl Trash
f 18/1/18 10/2/10 4/3/4 14/4/14
f 14/5/14 4/6/4 8/7/8 15/8/15
f 17/9/17 12/10/12 6/11/6 16/12/16
f 16/13/16 6/14/6 2/15/2 13/16/13
f 9/17/9 11/18/11 5/19/5 1/20/1
f 12/21/12 10/22/10 2/23/2 6/24/6
f 8/25/8 4/26/4 10/22/10 12/21/12
f 3/27/3 7/28/7 11/18/11 9/17/9
f 15/29/15 8/30/8 12/10/12 17/9/17
f 13/31/13 2/32/2 10/2/10 18/1/18
f 1/33/1 13/31/13 18/1/18 9/34/9
f 7/35/7 15/29/15 17/9/17 11/36/11
f 5/37/5 16/13/16 13/16/13 1/38/1
f 11/36/11 17/9/17 16/12/16 5/39/5
f 3/40/3 14/5/14 15/8/15 7/41/7
f 9/34/9 18/1/18 14/4/14 3/42/3
