# Blender 4.5.9 LTS
# www.blender.org
mtllib Trash_002.mtl
o Trash_002
v 0.000000 -0.062638 -0.062638
v -0.003528 0.078797 -0.061398
v 0.048972 -0.062638 -0.039054
v 0.046728 0.084410 -0.041468
v 0.061067 -0.062638 0.013938
v 0.061936 0.094954 0.009640
v 0.027177 -0.062638 0.056435
v 0.030643 0.102489 0.053440
v -0.027177 -0.062638 0.056435
v -0.023586 0.101342 0.056950
v -0.061067 -0.062638 0.013938
v -0.059916 0.092375 0.017527
v -0.048972 -0.062638 -0.039054
v -0.050990 0.082342 -0.035143
v 0.001235 0.015095 -0.057138
v 0.048464 0.003169 -0.032764
v 0.059150 -0.000755 0.020502
v 0.025247 0.006278 0.062549
v -0.027715 0.018971 0.061716
v -0.059855 0.027767 0.018629
v -0.046971 0.026042 -0.034266
v 0.000027 -0.057429 -0.058689
v -0.003278 0.075083 -0.057528
v 0.045910 -0.057429 -0.036593
v 0.043808 0.080342 -0.038855
v 0.057242 -0.057429 0.013056
v 0.058056 0.090221 0.009029
v 0.025490 -0.057429 0.052871
v 0.028738 0.097281 0.050065
v -0.025435 -0.057429 0.052871
v -0.022070 0.096205 0.053354
v -0.057187 -0.057429 0.013056
v -0.056109 0.087804 0.016418
v -0.045855 -0.057429 -0.036593
v -0.047745 0.078404 -0.032929
v 0.001185 0.015400 -0.053536
v 0.045434 0.004226 -0.030700
v 0.055445 0.000550 0.019205
v 0.023682 0.007139 0.058600
v -0.025939 0.019031 0.057819
v -0.056052 0.027273 0.017450
v -0.043980 0.025656 -0.032107
vn 0.0048 -0.0002 -1.0000
vn -0.0436 -0.0751 -0.9962
vn 0.7801 -0.0522 -0.6234
vn 0.7960 0.0087 -0.6052
vn 0.9756 -0.0006 0.2197
vn 0.9688 -0.0014 0.2477
vn 0.4682 0.0573 0.8818
vn 0.4226 -0.0071 0.9063
vn -0.3755 0.0693 0.9242
vn -0.4291 0.0078 0.9032
vn -0.9566 0.0105 0.2912
vn -0.9715 0.0038 0.2372
vn -0.8250 -0.0579 -0.5621
vn -0.7891 -0.0088 -0.6142
vn -0.0000 -1.0000 -0.0000
vn -0.7707 0.0523 -0.6351
vn 0.0108 0.0750 -0.9971
vn -0.9807 -0.0004 0.1953
vn -0.4548 -0.0596 0.8886
vn 0.4394 -0.0625 0.8961
vn 0.9792 0.0036 0.2029
vn 0.7798 0.0618 -0.6230
vn -0.0410 -0.4524 -0.8908
vn 0.7156 -0.4284 -0.5517
vn 0.8974 -0.3786 0.2264
vn 0.4353 -0.3343 0.8360
vn -0.3264 -0.3331 0.8846
vn -0.8683 -0.3824 0.3159
vn -0.7590 -0.4372 -0.4824
vn -0.6400 -0.7024 -0.3115
vn -0.0267 -0.7221 -0.6912
vn -0.6729 -0.6474 0.3580
vn -0.2254 -0.6025 0.7656
vn 0.3480 -0.5961 0.7236
vn 0.7285 -0.6315 0.2655
vn 0.6172 -0.6881 -0.3814
vt 0.338453 0.804507
vt 0.381008 0.807095
vt 0.384287 0.773505
vt 0.330056 0.773101
vt 0.696863 0.708126
vt 0.751171 0.703207
vt 0.757648 0.737428
vt 0.693661 0.743628
vt 0.762196 0.766739
vt 0.697893 0.771763
vt 0.750376 0.230719
vt 0.752629 0.294992
vt 0.716460 0.293467
vt 0.714858 0.238447
vt 0.067912 0.762196
vt 0.122781 0.757534
vt 0.116089 0.731394
vt 0.073005 0.733292
vt 0.108447 0.696435
vt 0.070902 0.698034
vt 0.346206 0.836576
vt 0.383814 0.838735
vt 0.893155 0.489428
vt 0.908895 0.456744
vt 0.893155 0.424060
vt 0.857788 0.415988
vt 0.829426 0.438606
vt 0.829426 0.474882
vt 0.857788 0.497500
vt 0.287045 0.838735
vt 0.286590 0.806054
vt 0.012606 0.731790
vt 0.011652 0.696435
vt 0.013371 0.760142
vt 0.752629 0.184762
vt 0.716360 0.184000
vt 0.652437 0.738570
vt 0.651972 0.766928
vt 0.653018 0.703207
vt 0.286136 0.773373
vt 0.338507 0.803650
vt 0.378374 0.806050
vt 0.381454 0.774627
vt 0.330640 0.774222
vt 0.697481 0.708972
vt 0.748362 0.704351
vt 0.754433 0.736440
vt 0.694481 0.742230
vt 0.694591 0.744243
vt 0.754542 0.738455
vt 0.758802 0.765868
vt 0.698557 0.770612
vt 0.749400 0.231469
vt 0.751513 0.291690
vt 0.717623 0.290254
vt 0.716124 0.238710
vt 0.068043 0.761195
vt 0.119455 0.756878
vt 0.113175 0.732287
vt 0.072814 0.734114
vt 0.072559 0.732066
vt 0.112921 0.730272
vt 0.105768 0.697550
vt 0.070589 0.699034
vt 0.345780 0.835585
vt 0.381012 0.837631
vt 0.378389 0.807943
vt 0.338516 0.805538
vt 0.891526 0.487356
vt 0.906273 0.456734
vt 0.891526 0.426112
vt 0.858391 0.418549
vt 0.831818 0.439740
vt 0.831818 0.473728
vt 0.858391 0.494919
vt 0.290644 0.837526
vt 0.346071 0.835496
vt 0.338807 0.805450
vt 0.290216 0.806892
vt 0.016119 0.730576
vt 0.072707 0.731987
vt 0.070737 0.698953
vt 0.015225 0.697458
vt 0.016742 0.759216
vt 0.067843 0.761117
vt 0.072614 0.734037
vt 0.016026 0.732615
vt 0.751390 0.188011
vt 0.749279 0.231071
vt 0.716003 0.238311
vt 0.717410 0.187302
vt 0.655802 0.739607
vt 0.694425 0.744340
vt 0.698391 0.770699
vt 0.655367 0.766162
vt 0.656564 0.704440
vt 0.697641 0.709054
vt 0.694641 0.742316
vt 0.656017 0.737586
vt 0.290205 0.805010
vt 0.338793 0.803579
vt 0.330926 0.774155
vt 0.289773 0.774434
s 1
usemtl Trash
f 15/1/1 2/2/2 4/3/3 16/4/4
f 16/5/4 4/6/3 6/7/5 17/8/6
f 17/8/6 6/7/5 8/9/7 18/10/8
f 18/11/8 8/12/7 10/13/9 19/14/10
f 19/15/10 10/16/9 12/17/11 20/18/12
f 20/18/12 12/17/11 14/19/13 21/20/14
f 21/21/14 14/22/13 2/2/2 15/1/1
f 1/23/15 3/24/15 5/25/15 7/26/15 9/27/15 11/28/15 13/29/15
f 13/30/16 21/21/14 15/1/1 1/31/17
f 11/32/18 20/18/12 21/20/14 13/33/16
f 9/34/19 19/15/10 20/18/12 11/32/18
f 7/35/20 18/11/8 19/14/10 9/36/19
f 5/37/21 17/8/6 18/10/8 7/38/20
f 3/39/22 16/5/4 17/8/6 5/37/21
f 1/31/17 15/1/1 16/4/4 3/40/22
f 36/41/1 23/42/23 25/43/24 37/44/4
f 37/45/4 25/46/24 27/47/25 38/48/6
f 38/49/6 27/50/25 29/51/26 39/52/8
f 39/53/8 29/54/26 31/55/27 40/56/10
f 40/57/10 31/58/27 33/59/28 41/60/12
f 41/61/12 33/62/28 35/63/29 42/64/14
f 42/65/14 35/66/29 23/67/23 36/68/1
f 22/69/15 24/70/15 26/71/15 28/72/15 30/73/15 32/74/15 34/75/15
f 34/76/16 42/77/14 36/78/1 22/79/17
f 32/80/18 41/81/12 42/82/14 34/83/16
f 30/84/19 40/85/10 41/86/12 32/87/18
f 28/88/20 39/89/8 40/90/10 30/91/19
f 26/92/21 38/93/6 39/94/8 28/95/20
f 24/96/22 37/97/4 38/98/6 26/99/21
f 22/100/17 36/101/1 37/102/4 24/103/22
f 23/67/23 35/66/29 14/22/30 2/2/31
f 35/63/29 33/62/28 12/17/32 14/19/30
f 33/59/28 31/58/27 10/16/33 12/17/32
f 31/55/27 29/54/26 8/12/34 10/13/33
f 29/51/26 27/50/25 6/7/35 8/9/34
f 27/47/25 25/46/24 4/6/36 6/7/35
f 25/43/24 23/42/23 2/2/31 4/3/36
