# Blender 4.5.9 LTS
# www.blender.org
mtllib Trash_006.mtl
o Trash_006
v -0.000023 0.143275 -0.052119
v 0.045186 0.143275 -0.026017
v 0.045186 0.143275 0.026186
v -0.000023 0.143275 0.052287
v -0.045232 0.143275 0.026186
v -0.045232 0.143275 -0.026017
v 0.024078 0.169905 -0.013830
v -0.000023 0.169905 -0.027745
v 0.024078 0.169905 0.014000
v -0.000023 0.169905 0.027915
v -0.024124 0.169905 0.014000
v -0.024124 0.169905 -0.013830
v 0.012367 0.264433 -0.007068
v -0.000023 0.264433 -0.014221
v 0.012367 0.264433 0.007239
v -0.000023 0.264433 0.014392
v -0.012412 0.264433 0.007239
v -0.012412 0.264433 -0.007068
v -0.000023 -0.042665 -0.036474
v -0.000023 -0.029117 -0.052119
v 0.031638 -0.042665 -0.018195
v 0.045186 -0.029117 -0.026017
v 0.031638 -0.042665 0.018363
v 0.045186 -0.029117 0.026186
v -0.000023 -0.042665 0.036643
v -0.000023 -0.029117 0.052287
v -0.031683 -0.042665 0.018363
v -0.045232 -0.029117 0.026186
v -0.031683 -0.042665 -0.018195
v -0.045232 -0.029117 -0.026017
vn -0.8037 -0.3724 -0.4640
vn -0.8181 0.3282 -0.4723
vn -0.0000 0.3282 -0.9446
vn -0.0000 -0.3724 -0.9281
vn 0.8037 -0.3724 0.4640
vn 0.8181 0.3282 0.4723
vn -0.0000 0.3282 0.9446
vn -0.0000 -0.3724 0.9281
vn -0.8181 0.3282 0.4723
vn -0.8037 -0.3724 0.4640
vn -0.0000 0.4688 0.8833
vn -0.7650 0.4688 0.4417
vn 0.8037 -0.3724 -0.4640
vn 0.8181 0.3282 -0.4723
vn -0.7650 0.4688 -0.4416
vn -0.8573 0.1416 0.4950
vn -0.8573 0.1416 -0.4950
vn 0.7650 0.4688 -0.4416
vn 0.7650 0.4688 0.4417
vn -0.0000 0.4688 -0.8833
vn -0.0000 1.0000 -0.0000
vn 0.8573 0.1416 0.4950
vn -0.0000 0.1416 0.9899
vn -0.0000 0.1416 -0.9899
vn 0.8573 0.1416 -0.4950
vn 0.3830 -0.8969 -0.2211
vn -0.0000 -0.8969 -0.4423
vn 0.3830 -0.8969 0.2211
vn -0.0000 -0.8969 0.4423
vn -0.3830 -0.8969 0.2211
vn -0.3830 -0.8969 -0.2211
vt 0.659887 0.530303
vt 0.659887 0.615919
vt 0.682340 0.615919
vt 0.682340 0.530303
vt 0.480872 0.659887
vt 0.566488 0.659887
vt 0.566488 0.682340
vt 0.480872 0.682340
vt 0.566488 0.704792
vt 0.480872 0.704792
vt 0.446062 0.372442
vt 0.446062 0.458058
vt 0.471988 0.458058
vt 0.471988 0.372442
vt 0.579713 0.682340
vt 0.579713 0.694309
vt 0.733494 0.012073
vt 0.733494 0.097690
vt 0.707568 0.097690
vt 0.707568 0.012073
vt 0.704792 0.615919
vt 0.704792 0.530303
vt 0.465935 0.471284
vt 0.452114 0.471284
vt 0.455471 0.518230
vt 0.462576 0.518230
vt 0.727441 0.110915
vt 0.713620 0.110915
vt 0.682340 0.629144
vt 0.694309 0.629144
vt 0.579713 0.670370
vt 0.670370 0.629144
vt 0.097268 0.592810
vt 0.091115 0.596363
vt 0.084962 0.592810
vt 0.084962 0.585705
vt 0.091115 0.582153
vt 0.097268 0.585705
vt 0.626659 0.676187
vt 0.626659 0.682340
vt 0.682340 0.676090
vt 0.688493 0.676090
vt 0.676187 0.676090
vt 0.626659 0.688493
vt 0.724083 0.157861
vt 0.716978 0.157861
vt 0.959792 0.487933
vt 0.982244 0.474970
vt 0.975516 0.471085
vt 0.959792 0.480164
vt 0.982244 0.449044
vt 0.975516 0.452929
vt 0.959792 0.436081
vt 0.959792 0.443851
vt 0.937339 0.449044
vt 0.944068 0.452929
vt 0.468103 0.365713
vt 0.449946 0.365713
vt 0.937339 0.474970
vt 0.944068 0.471085
s 1
usemtl Trash
f 30/1/1 6/2/2 1/3/3 20/4/4
f 24/5/5 3/6/6 4/7/7 26/8/8
f 26/8/8 4/7/7 5/9/9 28/10/10
f 28/11/10 5/12/9 6/13/2 30/14/1
f 5/9/9 4/7/7 10/15/11 11/16/12
f 22/17/13 2/18/14 3/19/6 24/20/5
f 20/4/4 1/3/3 2/21/14 22/22/13
f 12/23/15 11/24/12 17/25/16 18/26/17
f 3/19/6 2/18/14 7/27/18 9/28/19
f 6/13/2 5/12/9 11/24/12 12/23/15
f 2/21/14 1/3/3 8/29/20 7/30/18
f 4/7/7 3/6/6 9/31/19 10/15/11
f 1/3/3 6/2/2 12/32/15 8/29/20
f 13/33/21 14/34/21 18/35/21 17/36/21 16/37/21 15/38/21
f 10/15/11 9/31/19 15/39/22 16/40/23
f 7/30/18 8/29/20 14/41/24 13/42/25
f 8/29/20 12/32/15 18/43/17 14/41/24
f 11/16/12 10/15/11 16/40/23 17/44/16
f 9/28/19 7/27/18 13/45/25 15/46/22
f 20/47/4 22/48/13 21/49/26 19/50/27
f 22/48/13 24/51/5 23/52/28 21/49/26
f 24/51/5 26/53/8 25/54/29 23/52/28
f 26/53/8 28/55/10 27/56/30 25/54/29
f 28/11/10 30/14/1 29/57/31 27/58/30
f 30/59/1 20/47/4 19/50/27 29/60/31
f 19/50/27 21/49/26 23/52/28 25/54/29 27/56/30 29/60/31
