# Blender 4.5.9 LTS
# www.blender.org
mtllib Trash.mtl
o Trash
v 0.103399 0.183891 -0.103398
v 0.075120 -0.053644 -0.075120
v 0.103399 0.183891 0.103400
v 0.075120 -0.053644 0.075120
v -0.103399 0.183891 -0.103398
v -0.075120 -0.053644 -0.075120
v -0.103399 0.183891 0.103400
v -0.075120 -0.053644 0.075120
v 0.147322 0.085395 -0.036802
v 0.147322 0.085395 0.036809
v -0.147322 0.085395 -0.036802
v -0.147322 0.085395 0.036809
v 0.036805 0.085494 -0.147319
v 0.036805 0.085494 0.147326
v -0.036806 0.085494 -0.147319
v -0.036806 0.085494 0.147326
v 0.103399 0.183891 -0.103398
v 0.075120 -0.053644 -0.075120
v 0.103399 0.183891 0.103400
v 0.075120 -0.053644 0.075120
v -0.103399 0.183891 -0.103398
v -0.075120 -0.053644 -0.075120
v -0.103399 0.183891 0.103400
v -0.075120 -0.053644 0.075120
v 0.147322 0.085395 -0.036802
v 0.147322 0.085395 0.036809
v -0.147322 0.085395 -0.036802
v -0.147322 0.085395 0.036809
v 0.036805 0.085494 -0.147319
v 0.036805 0.085494 0.147326
v -0.036806 0.085494 -0.147319
v -0.036806 0.085494 0.147326
vn 0.9930 -0.1182 -0.0000
vn -0.0000 -0.1182 0.9930
vn -0.9930 -0.1182 -0.0000
vn -0.0000 -0.1182 -0.9930
vn -0.0000 -1.0000 -0.0000
vn -0.9133 0.4073 -0.0000
vn 0.9133 0.4073 -0.0000
vn -0.0000 0.4076 -0.9132
vn -0.0000 0.4076 0.9131
vn -0.9930 0.1182 -0.0000
vn -0.0000 0.1182 -0.9930
vn 0.9930 0.1182 -0.0000
vn -0.0000 0.1182 0.9930
vn -0.0000 1.0000 -0.0000
vn 0.9133 -0.4073 -0.0000
vn -0.9133 -0.4073 -0.0000
vn -0.0000 -0.4076 0.9132
vn -0.0000 -0.4076 -0.9131
vt 0.816411 0.567661
vt 0.727960 0.567661
vt 0.740055 0.466062
vt 0.804316 0.466062
vt 0.253534 0.737527
vt 0.253534 0.825978
vt 0.151935 0.813883
vt 0.151935 0.749622
vt 0.553310 0.819600
vt 0.553310 0.731149
vt 0.451711 0.743244
vt 0.451711 0.807504
vt 0.832356 0.682469
vt 0.832356 0.594017
vt 0.730758 0.606113
vt 0.730758 0.670373
vt 0.726637 0.943975
vt 0.790898 0.943975
vt 0.790898 0.879714
vt 0.726637 0.879714
vt 0.511181 0.759633
vt 0.511181 0.791118
vt 0.756442 0.525532
vt 0.787927 0.525532
vt 0.548737 0.736480
vt 0.510278 0.762509
vt 0.510278 0.791280
vt 0.548737 0.817308
vt 0.547834 0.816693
vt 0.509375 0.790664
vt 0.509375 0.761893
vt 0.547834 0.735864
s 0
usemtl Trash
f 1/1/1 3/2/1 4/3/1 2/4/1
f 3/5/2 7/6/2 8/7/2 4/8/2
f 7/9/3 5/10/3 6/11/3 8/12/3
f 5/13/4 1/14/4 2/15/4 6/16/4
f 8/17/5 6/18/5 2/19/5 4/20/5
f 5/10/6 11/21/6 12/22/6 7/9/6
f 3/2/7 10/23/7 9/24/7 1/1/7
f 1/25/8 13/26/8 15/27/8 5/28/8
f 7/29/9 16/30/9 14/31/9 3/32/9
f 17/1/10 18/4/10 20/3/10 19/2/10
f 19/5/11 20/8/11 24/7/11 23/6/11
f 23/9/12 24/12/12 22/11/12 21/10/12
f 21/13/13 22/16/13 18/15/13 17/14/13
f 24/17/14 20/20/14 18/19/14 22/18/14
f 21/10/15 23/9/15 28/22/15 27/21/15
f 19/2/16 17/1/16 25/24/16 26/23/16
f 17/25/17 21/28/17 31/27/17 29/26/17
f 23/29/18 19/32/18 30/31/18 32/30/18
