# Blender 4.5.9 LTS
# www.blender.org
mtllib Trash_013.mtl
o Trash_013
v 0.000000 -0.103717 -0.054456
v 0.000000 0.169492 -0.054456
v 0.047160 -0.103717 -0.027228
v 0.047160 0.169492 -0.027228
v 0.047160 -0.103717 0.027228
v 0.047160 0.169492 0.027228
v 0.000000 -0.103717 0.054456
v 0.000000 0.169492 0.054456
v -0.047160 -0.103717 0.027228
v -0.047160 0.169492 0.027228
v -0.047160 -0.103717 -0.027228
v -0.047160 0.169492 -0.027228
v 0.036067 0.193548 -0.020823
v 0.000000 0.193548 -0.041647
v 0.036067 0.193548 0.020823
v 0.000000 0.193548 0.041647
v -0.036067 0.193548 0.020823
v -0.036067 0.193548 -0.020823
v 0.013045 0.206555 -0.007532
v 0.000000 0.206555 -0.015064
v 0.013045 0.206555 0.007532
v 0.000000 0.206555 0.015064
v -0.013045 0.206555 0.007532
v -0.013045 0.206555 -0.007532
v 0.013045 0.288000 -0.007532
v 0.000000 0.288000 -0.015064
v 0.013045 0.288000 0.007532
v 0.000000 0.288000 0.015064
v -0.013045 0.288000 0.007532
v -0.013045 0.288000 -0.007532
vn -0.0000 -0.0000 -1.0000
vn -0.0000 0.2258 -0.9742
vn 0.8437 0.2258 -0.4871
vn 0.8660 -0.0000 -0.5000
vn 0.8437 0.2258 0.4871
vn 0.8660 -0.0000 0.5000
vn -0.0000 0.2258 0.9742
vn -0.0000 -0.0000 1.0000
vn -0.8437 0.2258 0.4871
vn -0.8660 -0.0000 0.5000
vn -0.0000 0.6724 0.7402
vn -0.6410 0.6724 0.3701
vn -0.8437 0.2258 -0.4871
vn -0.8660 -0.0000 -0.5000
vn -0.0000 -1.0000 -0.0000
vn -0.6410 0.6724 -0.3701
vn -0.6776 0.6227 0.3912
vn -0.6776 0.6227 -0.3912
vn 0.6410 0.6724 -0.3701
vn 0.6410 0.6724 0.3701
vn -0.0000 0.6724 -0.7402
vn 0.6776 0.6227 0.3912
vn -0.0000 0.6227 0.7824
vn -0.0000 0.6227 -0.7824
vn 0.6776 0.6227 -0.3912
vn -0.0000 1.0000 -0.0000
vt 0.561779 0.186426
vt 0.561779 0.322112
vt 0.585201 0.322112
vt 0.585201 0.186426
vt 0.144170 0.575696
vt 0.279856 0.575696
vt 0.279856 0.602741
vt 0.144170 0.602741
vt 0.364219 0.543141
vt 0.499904 0.543141
vt 0.499904 0.566563
vt 0.364219 0.566563
vt 0.499904 0.589984
vt 0.364219 0.589984
vt 0.511851 0.566563
vt 0.511851 0.584475
vt 0.610776 0.184034
vt 0.610776 0.319720
vt 0.637821 0.319720
vt 0.637821 0.184034
vt 0.538358 0.186426
vt 0.538358 0.322112
vt 0.972677 0.871454
vt 0.972677 0.844409
vt 0.949255 0.830887
vt 0.925834 0.844409
vt 0.925834 0.871454
vt 0.949255 0.884977
vt 0.961143 0.808438
vt 0.943230 0.798096
vt 0.954664 0.791495
vt 0.961143 0.795236
vt 0.291803 0.578877
vt 0.291803 0.599560
vt 0.613957 0.331667
vt 0.634640 0.331667
vt 0.561779 0.334059
vt 0.579692 0.334059
vt 0.511851 0.548650
vt 0.543867 0.334059
vt 0.892949 0.353406
vt 0.885468 0.353406
vt 0.885468 0.393854
vt 0.892949 0.393854
vt 0.943230 0.777413
vt 0.961143 0.767071
vt 0.961143 0.780274
vt 0.954664 0.784014
vt 0.979055 0.777413
vt 0.979055 0.798096
vt 0.967622 0.791495
vt 0.967622 0.784014
vt 0.411294 0.204103
vt 0.404815 0.200362
vt 0.404815 0.192881
vt 0.411294 0.189140
vt 0.417773 0.192881
vt 0.417773 0.200362
vt 0.956631 0.592589
vt 0.963110 0.592589
vt 0.963110 0.633037
vt 0.956631 0.633037
vt 0.966299 0.340650
vt 0.959820 0.340650
vt 0.959820 0.381098
vt 0.966299 0.381098
vt 0.953341 0.340650
vt 0.953341 0.381098
vt 0.950152 0.592589
vt 0.950152 0.633037
vt 0.965196 0.257733
vt 0.972677 0.257733
vt 0.972677 0.298181
vt 0.965196 0.298181
s 1
usemtl Trash
f 1/1/1 2/2/2 4/3/3 3/4/4
f 3/5/4 4/6/3 6/7/5 5/8/6
f 5/9/6 6/10/5 8/11/7 7/12/8
f 7/12/8 8/11/7 10/13/9 9/14/10
f 10/13/9 8/11/7 16/15/11 17/16/12
f 9/17/10 10/18/9 12/19/13 11/20/14
f 11/21/14 12/22/13 2/2/2 1/1/1
f 1/23/15 3/24/15 5/25/15 7/26/15 9/27/15 11/28/15
f 18/29/16 17/30/12 23/31/17 24/32/18
f 6/7/5 4/6/3 13/33/19 15/34/20
f 12/19/13 10/18/9 17/35/12 18/36/16
f 4/3/3 2/2/2 14/37/21 13/38/19
f 8/11/7 6/10/5 15/39/20 16/15/11
f 2/2/2 12/22/13 18/40/16 14/37/21
f 24/41/18 23/42/17 29/43/10 30/44/14
f 16/45/11 15/46/20 21/47/22 22/48/23
f 13/49/19 14/50/21 20/51/24 19/52/25
f 14/50/21 18/29/16 24/32/18 20/51/24
f 17/30/12 16/45/11 22/48/23 23/31/17
f 15/46/20 13/49/19 19/52/25 21/47/22
f 25/53/26 26/54/26 30/55/26 29/56/26 28/57/26 27/58/26
f 22/59/23 21/60/22 27/61/6 28/62/8
f 19/63/25 20/64/24 26/65/1 25/66/4
f 20/64/24 24/67/18 30/68/14 26/65/1
f 23/69/17 22/59/23 28/62/8 29/70/10
f 21/71/22 19/72/25 25/73/4 27/74/6
