# Blender 4.5.9 LTS
# www.blender.org
mtllib Trash_011.mtl
o Trash_011
v -0.088319 0.005633 -0.057936
v -0.088319 0.033492 -0.029078
v -0.088319 0.044300 0.028639
v -0.088319 -0.005352 0.057497
v -0.088319 -0.038437 0.028639
v -0.088319 -0.043352 -0.029078
v 0.143978 0.012576 -0.044044
v 0.125440 0.012350 -0.057936
v 0.143978 0.041323 -0.022132
v 0.125440 0.038401 -0.029078
v 0.143978 0.053849 0.021691
v 0.125440 0.050052 0.028639
v 0.143978 0.007721 0.043603
v 0.125440 0.019325 0.057497
v 0.143978 -0.020845 0.021691
v 0.125440 -0.032972 0.028639
v 0.143978 -0.028300 -0.022132
v 0.125440 -0.043373 -0.029078
v -0.141642 -0.006116 -0.026576
v -0.141642 0.029525 -0.013390
v -0.141642 0.026697 0.012983
v -0.141642 0.008507 0.026169
v -0.141642 -0.015132 0.012983
v -0.141642 -0.016592 -0.013390
v -0.180923 0.012350 -0.026637
v -0.180923 0.033483 -0.013450
v -0.180923 0.036651 0.012922
v -0.180923 0.017219 0.026109
v -0.180923 -0.003517 0.012922
v -0.180923 -0.004521 -0.013450
v 0.075272 0.003433 -0.057936
v 0.075272 0.045905 -0.029078
v 0.075272 -0.040974 -0.029078
v 0.075272 0.040484 0.028639
v 0.075272 0.014530 0.057497
v 0.075272 -0.033465 0.028639
v -0.006523 0.008314 -0.057936
v -0.006523 -0.035758 -0.029078
v -0.006523 0.002450 -0.029078
v -0.006523 -0.000797 0.028639
v -0.006523 0.009691 0.057497
v -0.006523 -0.045062 0.028639
vn 0.0124 -0.8635 -0.5041
vn -0.2092 -0.8639 -0.4582
vn -0.1823 0.1683 -0.9687
vn -0.0133 0.2659 -0.9639
vn -0.0410 0.9761 0.2135
vn 0.0048 0.9364 0.3508
vn -0.2011 0.0085 0.9795
vn -0.0179 0.2876 0.9576
vn -0.2360 -0.8532 0.4651
vn 0.0350 -0.8852 0.4639
vn -0.0199 0.9730 -0.2300
vn -0.0121 0.9246 -0.3808
vn 0.2575 0.1335 -0.9570
vn 0.0674 0.8577 -0.5098
vn 0.6556 0.6785 -0.3314
vn 0.8025 0.1175 -0.5849
vn 0.1146 0.9114 0.3954
vn 0.6457 0.7487 0.1501
vn 0.2332 0.1686 0.9577
vn 0.8009 -0.0953 0.5912
vn 0.2681 -0.7952 0.5439
vn 0.8330 -0.4508 0.3209
vn 0.3165 -0.8565 -0.4078
vn 0.8483 -0.4728 -0.2385
vn -0.0923 0.8582 -0.5049
vn -0.0797 0.8902 0.4486
vn -0.3881 -0.8105 0.4388
vn -0.3891 -0.8547 -0.3437
vn -0.2831 0.0121 0.9590
vn -0.3319 -0.1938 -0.9232
vn -0.2314 -0.8085 0.5411
vn -0.2973 -0.8755 -0.3809
vn 0.1748 0.8882 0.4248
vn 0.0194 0.1120 0.9935
vn -0.0325 -0.0047 -0.9995
vn 0.1749 0.8372 -0.5181
vn -1.0000 -0.0000 -0.0000
vn -0.0649 0.0915 -0.9937
vn -0.1876 0.9258 -0.3282
vn -0.2233 0.9377 0.2661
vn 0.0277 -0.8396 0.5424
vn 0.0061 -0.8890 -0.4579
vn -0.1053 0.2306 0.9673
vt 0.496193 0.434870
vt 0.496193 0.472471
vt 0.519171 0.472471
vt 0.519171 0.434870
vt 0.259469 0.502571
vt 0.297070 0.502571
vt 0.297070 0.525549
vt 0.259469 0.525549
vt 0.297070 0.548526
vt 0.259469 0.548526
vt 0.520400 0.081677
vt 0.520400 0.119278
vt 0.546932 0.119278
vt 0.546932 0.081677
vt 0.080880 0.529967
vt 0.118480 0.529967
vt 0.118480 0.556499
vt 0.080880 0.556499
vt 0.542148 0.472471
vt 0.542148 0.434870
vt 0.519171 0.374207
vt 0.542148 0.374207
vt 0.536617 0.365686
vt 0.519171 0.365686
vt 0.020217 0.529967
vt 0.020217 0.556499
vt 0.011695 0.553305
vt 0.011695 0.533160
vt 0.198807 0.502571
vt 0.198807 0.525549
vt 0.190285 0.525549
vt 0.190285 0.508102
vt 0.198807 0.548526
vt 0.190285 0.542995
vt 0.520400 0.021014
vt 0.546932 0.021014
vt 0.543739 0.012493
vt 0.523593 0.012493
vt 0.496193 0.374207
vt 0.501724 0.365686
vt 0.865936 0.982244
vt 0.883382 0.972172
vt 0.883382 0.952026
vt 0.865936 0.941954
vt 0.848489 0.952026
vt 0.848489 0.972172
vt 0.142993 0.537178
vt 0.142993 0.549302
vt 0.527597 0.143790
vt 0.539720 0.143790
vt 0.321582 0.516128
vt 0.321582 0.526627
vt 0.518093 0.496983
vt 0.528592 0.496983
vt 0.507593 0.496983
vt 0.321582 0.537126
vt 0.527624 0.161847
vt 0.539748 0.161847
vt 0.339640 0.515961
vt 0.339640 0.526460
vt 0.518259 0.515040
vt 0.528758 0.515040
vt 0.507760 0.515040
vt 0.339640 0.536959
vt 0.161050 0.537151
vt 0.161050 0.549274
vt 0.838735 0.718498
vt 0.838735 0.730622
vt 0.828235 0.736683
vt 0.817736 0.730622
vt 0.817736 0.718498
vt 0.828235 0.712436
vt 0.519171 0.397269
vt 0.542148 0.397269
vt 0.043279 0.529967
vt 0.043279 0.556499
vt 0.520400 0.044076
vt 0.546932 0.044076
vt 0.221869 0.525549
vt 0.221869 0.548526
vt 0.221869 0.502571
vt 0.496193 0.397269
s 1
usemtl Trash
f 38/1/1 6/2/2 1/3/3 37/4/4
f 40/5/5 3/6/6 4/7/7 41/8/8
f 41/8/8 4/7/7 5/9/9 42/10/10
f 42/11/10 5/12/9 6/13/2 38/14/1
f 39/15/11 2/16/12 3/17/6 40/18/5
f 37/4/4 1/3/3 2/19/12 39/20/11
f 8/21/13 10/22/14 9/23/15 7/24/16
f 10/25/14 12/26/17 11/27/18 9/28/15
f 12/29/17 14/30/19 13/31/20 11/32/18
f 14/30/19 16/33/21 15/34/22 13/31/20
f 16/35/21 18/36/23 17/37/24 15/38/22
f 18/39/23 8/21/13 7/24/16 17/40/24
f 7/41/16 9/42/15 11/43/18 13/44/20 15/45/22 17/46/24
f 3/17/6 2/16/12 20/47/25 21/48/26
f 6/13/2 5/12/9 23/49/27 24/50/28
f 4/7/7 3/6/6 21/51/26 22/52/29
f 2/19/12 1/3/3 19/53/30 20/54/25
f 1/3/3 6/2/2 24/55/28 19/53/30
f 5/9/9 4/7/7 22/52/29 23/56/27
f 24/50/28 23/49/27 29/57/31 30/58/32
f 22/52/29 21/51/26 27/59/33 28/60/34
f 20/54/25 19/53/30 25/61/35 26/62/36
f 19/53/30 24/55/28 30/63/32 25/61/35
f 23/56/27 22/52/29 28/60/34 29/64/31
f 21/48/26 20/47/25 26/65/36 27/66/33
f 26/67/37 25/68/37 30/69/37 29/70/37 28/71/37 27/72/37
f 8/21/13 31/73/38 32/74/39 10/22/14
f 10/25/14 32/75/39 34/76/40 12/26/17
f 16/35/21 36/77/41 33/78/42 18/36/23
f 14/30/19 35/79/43 36/80/41 16/33/21
f 12/29/17 34/81/40 35/79/43 14/30/19
f 18/39/23 33/82/42 31/73/38 8/21/13
f 31/73/38 37/4/4 39/20/11 32/74/39
f 32/75/39 39/15/11 40/18/5 34/76/40
f 36/77/41 42/11/10 38/14/1 33/78/42
f 35/79/43 41/8/8 42/10/10 36/80/41
f 34/81/40 40/5/5 41/8/8 35/79/43
f 33/82/42 38/1/1 37/4/4 31/73/38
