# Blender 4.5.9 LTS
# www.blender.org
mtllib Trash_010.mtl
o Trash_010
v -0.258886 -0.039191 0.258886
v -0.258886 0.039191 0.258886
v -0.258886 -0.039191 -0.258886
v -0.258886 0.039191 -0.258886
v 0.258886 -0.039191 0.258886
v 0.258886 0.039191 0.258886
v 0.258886 -0.039191 -0.258886
v 0.258886 0.039191 -0.258886
vn -1.0000 -0.0000 -0.0000
vn -0.0000 -0.0000 -1.0000
vn 1.0000 -0.0000 -0.0000
vn -0.0000 -0.0000 1.0000
vn -0.0000 -1.0000 -0.0000
vn -0.0000 1.0000 -0.0000
vt 0.204103 0.266290
vt 0.204103 0.237125
vt 0.011444 0.237125
vt 0.011444 0.266290
vt 0.204103 0.318910
vt 0.204103 0.289745
vt 0.011444 0.289745
vt 0.011444 0.318911
vt 0.011444 0.204103
vt 0.204103 0.204103
vt 0.204103 0.011444
vt 0.011444 0.011444
vt 0.420165 0.420165
vt 0.227506 0.420165
vt 0.227506 0.227506
vt 0.420165 0.227506
s 0
usemtl Trash
f 1/1/1 2/2/1 4/3/1 3/4/1
f 3/5/2 4/6/2 8/7/2 7/8/2
f 7/8/3 8/7/3 6/6/3 5/5/3
f 5/4/4 6/3/4 2/2/4 1/1/4
f 3/9/5 7/10/5 5/11/5 1/12/5
f 8/13/6 4/14/6 2/15/6 6/16/6
