# Blender 4.5.9 LTS
# www.blender.org
mtllib Trash_008.mtl
o Trash_008
v -0.000023 0.164974 -0.052357
v 0.045393 0.164974 -0.026136
v 0.045393 0.164974 0.026306
v -0.000023 0.164974 0.052527
v -0.045439 0.164974 0.026306
v -0.045439 0.164974 -0.026136
v -0.000023 -0.046094 -0.039735
v -0.000023 -0.029250 -0.052357
v 0.034461 -0.046094 -0.019826
v 0.045393 -0.029250 -0.026136
v 0.034461 -0.046094 0.019993
v 0.045393 -0.029250 0.026306
v -0.000023 -0.046094 0.039902
v -0.000023 -0.029250 0.052527
v -0.034507 -0.046094 0.019993
v -0.045439 -0.029250 0.026306
v -0.034507 -0.046094 -0.019826
v -0.045439 -0.029250 -0.026136
v -0.002154 0.213424 -0.023864
v 0.018599 0.213424 -0.011882
v 0.018599 0.213424 0.012080
v -0.002154 0.213424 0.024062
v -0.022906 0.213424 0.012080
v -0.022906 0.213424 -0.011882
v -0.001825 0.249116 -0.023919
v 0.018928 0.249116 -0.011937
v 0.018928 0.249116 0.012025
v -0.001825 0.249116 0.024007
v -0.022577 0.249116 0.012025
v -0.022577 0.249116 -0.011937
vn -0.8290 -0.2894 -0.4786
vn -0.8414 0.2315 -0.4883
vn 0.0040 0.2438 -0.9698
vn -0.0000 -0.2894 -0.9572
vn 0.8290 -0.2894 0.4786
vn 0.8383 0.2551 0.4818
vn 0.0041 0.2436 0.9699
vn -0.0000 -0.2894 0.9572
vn -0.8415 0.2314 0.4882
vn -0.8290 -0.2894 0.4786
vn 0.8290 -0.2894 -0.4786
vn 0.8383 0.2552 -0.4818
vn 0.4764 -0.8351 -0.2751
vn -0.0000 -0.8351 -0.5501
vn 0.4764 -0.8351 0.2750
vn -0.0000 -0.8351 0.5501
vn -0.4764 -0.8351 0.2750
vn -0.4764 -0.8351 -0.2751
vn 0.8244 0.2985 -0.4809
vn 0.8240 0.2991 0.4812
vn -0.8350 0.2742 0.4771
vn -0.8354 0.2736 -0.4767
vn -0.0091 0.2869 0.9579
vn -0.0091 0.2857 -0.9583
vn -0.8655 0.0087 0.5009
vn -0.8651 0.0072 -0.5016
vn 0.8669 -0.0072 0.4984
vn 0.0029 0.0015 1.0000
vn 0.0029 -0.0016 -1.0000
vn 0.8665 -0.0088 -0.4991
vn -0.0000 1.0000 -0.0000
vt 0.020245 0.669712
vt 0.116264 0.669712
vt 0.116264 0.647260
vt 0.020245 0.647260
vt 0.679279 0.366263
vt 0.679279 0.462282
vt 0.656827 0.462282
vt 0.656827 0.366263
vt 0.634375 0.462282
vt 0.634375 0.366263
vt 0.662921 0.176511
vt 0.662921 0.272530
vt 0.688847 0.272530
vt 0.688847 0.176511
vt 0.150998 0.685245
vt 0.247017 0.685245
vt 0.247017 0.711170
vt 0.150998 0.711170
vt 0.116264 0.624807
vt 0.020245 0.624807
vt 0.011918 0.630212
vt 0.011918 0.647260
vt 0.142671 0.708050
vt 0.142671 0.688364
vt 0.656827 0.357936
vt 0.673875 0.357936
vt 0.639779 0.357936
vt 0.685727 0.168184
vt 0.666042 0.168184
vt 0.011918 0.664307
vt 0.253534 0.975591
vt 0.253534 0.955906
vt 0.236486 0.946063
vt 0.219438 0.955906
vt 0.219438 0.975591
vt 0.236486 0.985434
vt 0.270969 0.692291
vt 0.270969 0.704138
vt 0.669953 0.296482
vt 0.681800 0.296482
vt 0.666033 0.486234
vt 0.655774 0.486234
vt 0.140216 0.648313
vt 0.140216 0.638054
vt 0.140216 0.658572
vt 0.645514 0.486234
vt 0.669981 0.314127
vt 0.681827 0.314127
vt 0.666196 0.503879
vt 0.655936 0.503879
vt 0.157861 0.648150
vt 0.157861 0.637891
vt 0.157861 0.658410
vt 0.645677 0.503879
vt 0.288614 0.692264
vt 0.288614 0.704111
vt 0.033486 0.976321
vt 0.023226 0.982244
vt 0.012967 0.976321
vt 0.012967 0.964475
vt 0.023226 0.958551
vt 0.033486 0.964475
s 1
usemtl Trash
f 18/1/1 6/2/2 1/3/3 8/4/4
f 12/5/5 3/6/6 4/7/7 14/8/8
f 14/8/8 4/7/7 5/9/9 16/10/10
f 16/11/10 5/12/9 6/13/2 18/14/1
f 10/15/11 2/16/12 3/17/6 12/18/5
f 8/4/4 1/3/3 2/19/12 10/20/11
f 8/4/4 10/20/11 9/21/13 7/22/14
f 10/15/11 12/18/5 11/23/15 9/24/13
f 12/5/5 14/8/8 13/25/16 11/26/15
f 14/8/8 16/10/10 15/27/17 13/25/16
f 16/11/10 18/14/1 17/28/18 15/29/17
f 18/1/1 8/4/4 7/22/14 17/30/18
f 7/31/14 9/32/13 11/33/15 13/34/16 15/35/17 17/36/18
f 3/17/6 2/16/12 20/37/19 21/38/20
f 6/13/2 5/12/9 23/39/21 24/40/22
f 4/7/7 3/6/6 21/41/20 22/42/23
f 2/19/12 1/3/3 19/43/24 20/44/19
f 1/3/3 6/2/2 24/45/22 19/43/24
f 5/9/9 4/7/7 22/42/23 23/46/21
f 24/40/22 23/39/21 29/47/25 30/48/26
f 22/42/23 21/41/20 27/49/27 28/50/28
f 20/44/19 19/43/24 25/51/29 26/52/30
f 19/43/24 24/45/22 30/53/26 25/51/29
f 23/46/21 22/42/23 28/50/28 29/54/25
f 21/38/20 20/37/19 26/55/30 27/56/27
f 26/57/31 25/58/31 30/59/31 29/60/31 28/61/31 27/62/31
