# Blender 4.5.8 LTS
# www.blender.org
mtllib door.mtl
o frame
v 20.922009 78.834366 5.315494
v 20.922009 78.834366 5.315494
v 20.922009 78.834366 5.315494
v 20.922009 78.834366 5.315494
v -24.864914 78.814873 5.016233
v -24.864914 78.814873 5.016233
v -24.864914 78.814873 5.016233
v -22.212126 78.808548 5.590205
v -22.212126 78.808548 5.590205
v -22.212126 78.808548 5.590205
v 20.922009 78.834366 -5.663873
v 20.922009 78.834366 -5.663873
v 20.922009 78.834366 -5.663873
v 20.922009 78.834366 -5.663873
v -22.212126 78.808548 -5.938585
v -22.212126 78.808548 -5.938585
v -22.212126 78.808548 -5.938585
v -24.864914 78.814873 -5.364614
v -24.864914 78.814873 -5.364614
v -24.864914 78.814873 -5.364614
v 23.214182 38.191399 -0.163132
v 23.214195 71.315964 -0.163141
v 23.214195 71.315964 -0.163141
v 24.865978 71.934486 -0.163141
v 24.865978 71.934486 -0.163141
v 24.865978 71.934486 -0.163141
v 24.865978 71.934486 -0.163141
v 24.865978 71.934486 -0.163141
v 24.865978 71.934486 -0.163141
v 29.654751 85.212265 -0.144617
v 29.654751 85.212265 -0.144617
v 29.654751 85.212265 -0.144617
v 29.654751 85.212265 -0.144617
v 29.654751 85.212265 -0.144617
v 29.654751 85.212265 -0.144617
v -29.521919 84.648056 -0.163192
v -29.521919 84.648056 -0.163192
v -29.620872 85.209244 -0.160216
v -29.620872 85.209244 -0.160216
v -29.620872 85.209244 -0.160216
v -29.620872 85.209244 -0.160216
v -29.620872 85.209244 -0.160216
v -29.620872 85.209244 -0.160216
v 29.555408 84.648872 -0.163153
v 29.555408 84.648872 -0.163153
v 23.214195 79.317490 -0.163143
v 23.214195 79.317490 -0.163143
v 24.865906 78.814079 -0.163157
v 24.865906 78.814079 -0.163157
v 24.865906 78.814079 -0.163157
v 24.865906 78.814079 -0.163157
v 24.865906 78.814079 -0.163157
v 24.865906 78.814079 -0.163157
v -24.866005 78.814079 -0.163157
v -24.866005 78.814079 -0.163157
v -24.866005 78.814079 -0.163157
v -24.866005 78.814079 -0.163157
v -24.866005 78.814079 -0.163157
v -24.866005 78.814079 -0.163157
v -23.214294 79.317490 -0.163143
v -23.214294 79.317490 -0.163143
v -24.865955 71.934486 -0.163142
v -24.865955 71.934486 -0.163142
v -24.865955 71.934486 -0.163142
v -24.865955 71.934486 -0.163142
v -24.865955 71.934486 -0.163142
v -24.865955 71.934486 -0.163142
v -23.214294 71.315964 -0.163141
v -23.214294 71.315964 -0.163141
v -23.214294 36.274677 -0.163131
v -24.865990 0.000027 -0.162985
v -24.865990 0.000027 -0.162985
v -24.865990 0.000027 -0.162985
v -24.865990 0.000027 -0.162985
v -24.865990 0.000027 -0.162985
v 20.787403 0.024895 4.819017
v 20.787403 0.024895 4.819017
v 20.690619 0.414643 3.376488
v 20.690619 0.170275 3.376488
v 20.690619 0.170275 3.376488
v 20.690619 0.170275 3.376488
v 21.216591 0.002430 5.479016
v 21.216591 0.002430 5.479016
v 20.690638 0.170377 -0.145824
v 20.690638 0.170377 -0.145824
v 20.690638 0.414746 -0.145824
v 23.988283 0.039803 5.318336
v 23.988283 0.039803 5.318336
v 24.865061 0.000558 5.009390
v 24.865061 0.000558 5.009390
v 24.865816 0.000053 -0.162765
v 24.865816 0.000053 -0.162765
v 24.865816 0.000053 -0.162765
v 24.865816 0.000053 -0.162765
v -29.233141 83.010315 -0.161726
v -29.233141 83.010315 -0.161726
v -29.233141 83.010315 -0.161726
v -28.802151 80.566048 -0.163357
v -28.887318 81.049057 -0.151707
v -28.887318 81.049057 -0.151707
v -28.887318 81.049057 -0.151707
v -28.502104 78.864403 -0.162671
v -28.502104 78.864403 -0.162671
v -28.502104 78.864403 -0.162671
v -28.502104 78.864403 -0.162671
v -28.502104 78.864403 -0.162671
v 20.690680 71.934525 -3.725667
v 20.690680 71.934525 -3.725667
v 20.690680 71.934525 -3.725667
v 20.690666 78.814049 -3.725600
v 20.690666 78.814049 -3.725600
v 20.690666 78.814049 -3.725600
v 20.974371 71.937538 -5.684253
v 20.974371 71.937538 -5.684253
v 23.945116 71.934586 -5.772504
v 23.945116 71.934586 -5.772504
v 24.813622 78.835419 -5.307342
v 24.813622 78.835419 -5.307342
v 24.813622 78.835419 -5.307342
v 23.939178 78.810127 -5.831788
v 24.864080 71.934448 -5.365550
v 24.864080 71.934448 -5.365550
v -20.605400 78.800400 -3.742763
v -20.605400 78.800400 -3.742763
v -20.605400 78.800400 -3.742763
v -20.690781 71.934525 -3.725596
v -20.690781 71.934525 -3.725596
v -20.690781 71.934525 -3.725596
v -21.000654 71.935760 -5.698332
v -21.000654 71.935760 -5.698332
v -23.943428 71.937424 -5.731871
v -23.943428 71.937424 -5.731871
v -24.863602 71.934456 -5.359479
v -24.863602 71.934456 -5.359479
v -20.751436 0.006705 -5.121860
v -20.751436 0.006705 -5.121860
v -20.690763 0.170258 -3.724014
v -20.690763 0.170258 -3.724014
v -20.690763 0.170258 -3.724014
v -20.690763 0.414626 -3.724014
v -21.216507 0.002378 -5.827449
v -21.216507 0.002378 -5.827449
v -20.690792 0.414860 -0.147822
v -20.690792 0.170492 -0.147822
v -20.690792 0.170492 -0.147822
v -23.977135 0.020947 -5.730271
v -23.977135 0.020947 -5.730271
v -24.864880 0.000686 -5.364988
v -24.864880 0.000686 -5.364988
v 28.535862 78.866737 -0.162568
v 28.535862 78.866737 -0.162568
v 28.535862 78.866737 -0.162568
v 28.535862 78.866737 -0.162568
v 28.535862 78.866737 -0.162568
v 28.536980 78.873070 -5.465995
v 28.536980 78.873070 -5.465995
v 28.760008 80.137939 -6.795893
v 28.760008 80.137939 -6.795893
v 28.938395 81.149612 -0.146424
v 28.938395 81.149612 -0.146424
v 28.938395 81.149612 -0.146424
v 28.896664 80.912949 -6.795893
v 28.896664 80.912949 -6.795893
v 29.226473 82.783394 -6.795893
v 29.226473 82.783394 -6.795893
v 29.272606 83.045021 -0.160987
v 29.272606 83.045021 -0.160987
v 29.272606 83.045021 -0.160987
v 29.413204 83.842392 -6.795893
v 29.413204 83.842392 -6.795893
v 29.552658 84.633270 -6.795893
v 29.552658 84.633270 -6.795893
v 29.655659 85.217415 -3.778303
v 29.655659 85.217415 -3.778303
v 20.690619 0.414642 -3.724823
v 20.690619 0.170273 -3.724823
v 20.690619 0.170273 -3.724823
v 20.690619 0.170273 -3.724823
v 20.787403 0.024892 -5.167353
v 20.787403 0.024892 -5.167353
v 21.216591 0.002427 -5.827352
v 21.216591 0.002427 -5.827352
v 23.988283 0.039799 -5.666672
v 23.988283 0.039799 -5.666672
v 24.865061 0.000556 -5.357725
v 24.865061 0.000556 -5.357725
v 20.690680 71.934525 3.377291
v 20.690680 71.934525 3.377291
v 20.690680 71.934525 3.377291
v 20.974371 71.937546 5.335877
v 20.974371 71.937546 5.335877
v 20.690666 78.814049 3.377220
v 20.690666 78.814049 3.377220
v 20.690666 78.814049 3.377220
v 23.945116 71.934593 5.424129
v 23.945116 71.934593 5.424129
v 23.939178 78.810135 5.483407
v 24.813622 78.835419 4.958962
v 24.813622 78.835419 4.958962
v 24.813622 78.835419 4.958962
v 24.864080 71.934448 5.017173
v 24.864080 71.934448 5.017173
v -29.500998 84.529404 6.447510
v -29.500998 84.529404 6.447510
v -29.624437 85.229462 3.369096
v -29.624437 85.229462 3.369096
v -29.181627 82.718163 6.447510
v -29.181627 82.718163 6.447510
v -28.873358 80.969879 6.447510
v -28.873358 80.969879 6.447510
v -28.705912 80.020241 6.447510
v -28.705912 80.020241 6.447510
v -28.522470 78.979897 5.153623
v -28.522470 78.979897 5.153623
v -20.605400 78.800400 3.394383
v -20.605400 78.800400 3.394383
v -20.605400 78.800400 3.394383
v -21.000654 71.935768 5.349956
v -21.000654 71.935768 5.349956
v -20.690781 71.934525 3.377220
v -20.690781 71.934525 3.377220
v -20.690781 71.934525 3.377220
v -23.943428 71.937424 5.383495
v -23.943428 71.937424 5.383495
v -24.863602 71.934464 5.011103
v -24.863602 71.934464 5.011103
v -20.751436 0.006708 4.773525
v -20.751436 0.006708 4.773525
v -21.216507 0.002383 5.479113
v -21.216507 0.002383 5.479113
v -20.690763 0.170261 3.375678
v -20.690763 0.170261 3.375678
v -20.690763 0.170261 3.375678
v -20.690763 0.414629 3.375678
v -23.977135 0.020949 5.381936
v -23.977135 0.020949 5.381936
v -24.864880 0.000688 5.016653
v -24.864880 0.000688 5.016653
v 28.835905 80.568367 -0.163088
v 29.655659 85.217422 3.429919
v 29.655659 85.217422 3.429919
v 29.552660 84.633278 6.447510
v 29.552660 84.633278 6.447510
v 29.413204 83.842392 6.447510
v 29.413204 83.842392 6.447510
v 29.226475 82.783401 6.447510
v 29.226475 82.783401 6.447510
v 28.896664 80.912949 6.447510
v 28.896664 80.912949 6.447510
v 28.760010 80.137939 6.447510
v 28.760010 80.137939 6.447510
v 28.536980 78.873070 5.117615
v 28.536980 78.873070 5.117615
v -29.500998 84.529404 -6.795893
v -29.500998 84.529404 -6.795893
v -29.624437 85.229462 -3.717479
v -29.624437 85.229462 -3.717479
v -29.181625 82.718155 -6.795893
v -29.181625 82.718155 -6.795893
v -28.873358 80.969879 -6.795893
v -28.873358 80.969879 -6.795893
v -28.705910 80.020233 -6.795893
v -28.705910 80.020233 -6.795893
v -28.522469 78.979889 -5.502003
v -28.522469 78.979889 -5.502003
v 2.016922 81.301506 6.447510
v 2.016922 81.301506 -6.795893
vn -0.0863 -0.8154 0.5724
vn -0.9414 -0.0000 0.3373
vn 0.1730 -0.7005 0.6924
vn -0.0861 -0.1802 -0.9798
vn -0.2517 -0.6057 -0.7548
vn -0.8919 -0.4343 0.1262
vn -0.0000 -0.0000 -1.0000
vn -0.3860 -0.0315 -0.9220
vn -0.1356 0.9808 -0.1401
vn 0.0194 0.0323 -0.9993
vn 0.1193 0.9679 -0.2210
vn -0.0293 0.0474 -0.9984
vn 0.1498 0.0631 -0.9867
vn -0.1574 0.0709 -0.9850
vn 0.3699 -0.0000 -0.9291
vn 0.3694 0.7310 -0.5738
vn -0.9740 -0.0941 0.2060
vn -0.6184 -0.2262 -0.7526
vn -0.0862 -0.0503 0.9950
vn 0.0266 -0.7696 0.6380
vn 0.1959 -0.0733 0.9779
vn 0.9946 -0.0041 0.1037
vn -0.0671 -0.7524 0.6553
vn -0.0476 -0.9989 -0.0054
vn -0.9876 -0.1532 -0.0351
vn -0.5020 -0.3024 0.8103
vn -0.9213 -0.1637 -0.3528
vn -0.1795 -0.1276 0.9754
vn -0.6901 -0.4742 -0.5467
vn -0.1566 0.0728 -0.9850
vn -0.0000 -0.0001 -1.0000
vn -0.7548 -0.6530 -0.0629
vn 0.3447 -0.8699 -0.3528
vn -0.6623 -0.0158 -0.7491
vn -0.0861 -0.1803 -0.9798
vn 0.1580 0.1262 -0.9793
vn 0.7922 -0.4236 0.4393
vn 0.4080 0.0706 -0.9102
vn 0.7923 -0.4234 0.4393
vn 0.8013 -0.2984 -0.5185
vn 0.7525 0.6586 -0.0000
vn 0.3710 -0.5367 -0.7579
vn -0.1658 -0.9072 -0.3866
vn 0.6063 -0.0000 0.7952
vn 0.6621 -0.0315 -0.7488
vn -0.1652 0.0786 -0.9831
vn -0.8920 -0.4341 0.1263
vn -0.7531 -0.4157 -0.5099
vn -0.3702 -0.0000 -0.9289
vn -0.3688 -0.5335 -0.7612
vn 0.9086 -0.0897 -0.4080
vn 0.9313 0.2120 0.2963
vn -0.3137 -0.4884 -0.8143
vn 0.0324 -0.7536 0.6565
vn -0.6427 -0.7029 -0.3047
vn -0.8043 0.0952 -0.5866
vn -0.9732 0.2298 0.0001
vn 0.2678 -0.4052 -0.8742
vn 0.5956 -0.6184 -0.5127
vn 0.4977 -0.8035 -0.3267
vn 0.5325 -0.0846 -0.8422
vn 0.5036 -0.5499 -0.6664
vn 0.2410 -0.9587 -0.1512
vn 0.4145 -0.0223 -0.9098
vn 0.5254 -0.4579 -0.7171
vn 0.3815 -0.2254 -0.8965
vn 0.9712 -0.1467 -0.1875
vn 0.3188 0.9414 -0.1102
vn 0.6063 0.0001 0.7952
vn 0.9314 0.2119 0.2960
vn 0.9086 -0.0897 -0.4079
vn -0.8043 0.0953 -0.5866
vn -0.9732 0.2298 -0.0002
vn -0.9518 0.0854 0.2946
vn -0.7548 -0.6529 -0.0629
vn -0.8889 -0.1118 -0.4442
vn 0.3147 -0.4822 -0.8176
vn 0.6367 -0.7049 -0.3126
vn 0.8087 0.1501 -0.5688
vn 0.7525 0.6586 0.0003
vn -0.0670 -0.7524 0.6553
vn -0.8017 0.0079 -0.5976
vn -0.6540 -0.0000 0.7565
vn -0.5678 -0.0709 -0.8201
vn 0.0631 -0.0157 0.9979
vn 0.0632 0.0711 0.9955
vn 0.9783 -0.1341 0.1577
vn 0.9632 -0.0000 0.2688
vn 0.7525 0.6586 0.0033
vn 0.7792 -0.4879 -0.3935
vn 0.0042 0.6778 0.7352
vn -0.3969 0.9113 0.1091
vn 0.1130 0.9620 -0.2487
vn -0.8888 -0.2790 -0.3635
vn 0.2422 0.0508 0.9689
vn -0.4172 -0.1817 0.8905
vn -0.9472 -0.2712 -0.1713
vn -0.3161 -0.4631 0.8280
vn -0.4053 -0.6657 0.6266
vn -0.7425 -0.5227 -0.4189
vn -0.1580 -0.9874 -0.0001
vn 0.6371 0.0079 0.7708
vn 0.5359 -0.8433 0.0396
vn -0.1026 -0.0000 0.9947
vn -0.9862 -0.0000 0.1657
vn -0.9788 -0.0000 -0.2049
vn -0.7876 -0.4804 -0.3860
vn 0.9772 -0.0773 0.1977
vn 0.0652 -0.0701 0.9954
vn 0.5517 -0.1584 -0.8189
vn -0.1844 -0.0808 0.9795
vn -0.9935 -0.0575 0.0981
vn -0.9732 0.2298 -0.0000
vn 0.5852 -0.2834 0.7598
vn 0.9852 -0.1604 -0.0600
vn 0.2546 0.6094 -0.7509
vn 0.9169 -0.1680 -0.3619
vn 0.1884 -0.0427 0.9812
vn 0.7444 0.3902 -0.5419
vn 0.1489 0.0650 -0.9867
vn -0.1227 0.9752 -0.1845
vn 0.3220 0.9435 0.0785
vn 0.1093 0.9187 0.3796
vn 0.3662 -0.1642 0.9159
vn 0.8415 -0.2387 -0.4847
vn -0.0711 0.3917 0.9174
vn 0.9693 -0.1870 -0.1595
vn 0.3309 -0.1632 0.9295
vn 0.3753 -0.4306 0.8208
vn 0.8855 -0.2658 -0.3812
vn 0.6010 -0.7911 0.1140
vn 0.5359 -0.8433 0.0395
vn 0.9772 -0.0772 0.1977
vn 0.5517 -0.1583 -0.8189
vn 0.0654 -0.0701 0.9954
vn -0.9862 0.0001 0.1657
vn 0.9946 -0.0001 0.1037
vn -0.0671 -0.7522 0.6556
vn 0.1959 -0.0734 0.9779
vn 0.0632 -0.0157 0.9979
vn -0.9740 -0.0941 0.2061
vn -0.8016 0.0079 -0.5977
vn -0.6184 -0.2261 -0.7526
vn -0.0862 -0.1803 -0.9798
vn 0.3447 -0.8700 -0.3526
vn -0.1581 -0.9874 -0.0000
vn -0.5678 -0.0710 -0.8201
vn -0.8888 -0.1118 -0.4445
vn 0.3147 -0.4823 -0.8175
vn -0.9517 0.0854 0.2949
vn 0.6367 -0.7048 -0.3128
vn 0.8086 0.1501 -0.5688
vn -0.0668 -0.7524 0.6554
vn -0.7193 0.0369 -0.6937
vn -0.4240 -0.1772 -0.8882
vn -0.3961 0.9126 -0.1019
vn -0.3859 -0.0043 -0.9225
vn 0.0174 -0.8510 -0.5250
vn -0.7147 -0.5333 -0.4524
vn -0.5363 -0.0337 -0.8433
vn -0.4485 -0.8094 -0.3792
vn -0.5523 -0.8272 0.1032
vn -0.3007 -0.2151 -0.9291
vn 0.3447 -0.8700 -0.3524
vn -0.7547 -0.6530 -0.0629
vn -0.8018 0.0079 -0.5976
vn -0.9518 0.0854 0.2945
vn 0.7863 -0.4764 -0.3934
vn 0.6705 -0.6281 -0.3949
vn 0.1576 -0.9847 0.0743
vn 0.9823 -0.0864 0.1659
vn -0.0887 -0.9115 0.4015
vn 0.1487 -0.3905 0.9085
vn 0.0446 -0.7948 0.6053
vn -0.9446 0.0686 0.3210
vn -0.7942 -0.4686 -0.3868
vn -0.4486 -0.7965 -0.4055
vn -0.1024 -0.4662 0.8787
vn 0.1030 -0.1297 0.9862
vn -0.2320 -0.1432 0.9621
vn 0.0009 0.3444 0.9388
vn -0.0009 0.4357 0.9001
vn -0.0515 0.0610 0.9968
vn 0.1883 -0.1869 0.9642
vn -0.2369 0.5871 0.7741
vn 0.0477 0.9299 0.3648
vn 0.0156 0.9939 0.1092
vn -0.0009 0.9969 0.0788
vn 0.1939 0.9700 -0.1464
vn -0.2088 0.9521 -0.2236
vn -0.5041 0.2206 0.8350
vn 0.5672 0.3073 0.7641
vn -0.0000 0.7525 -0.6586
vn -0.0603 0.7659 -0.6401
vn 0.9533 0.0393 -0.2994
vn -0.9505 -0.0862 -0.2985
vn 0.3789 -0.5310 -0.7580
vn 0.1978 -0.8065 -0.5572
vn 0.0644 -0.4861 -0.8715
vn 0.8044 -0.4281 0.4119
vn -0.0843 -0.3700 -0.9252
vn 0.3837 -0.7657 -0.5162
vn -0.0124 -0.9863 0.1644
vn -0.9022 -0.4216 0.0916
vn -0.3760 -0.5292 -0.7606
vn -0.1692 -0.3203 -0.9321
vn -0.3400 -0.8051 -0.4861
vn 0.4155 -0.5496 -0.7248
vn -0.6725 -0.5190 -0.5276
vn -0.0009 0.3444 -0.9388
vn 0.0088 -0.9171 -0.3986
vn 0.0779 -0.7757 -0.6263
vn 0.4274 -0.4849 -0.7630
vn -0.8807 -0.0862 -0.4658
vn 0.9670 -0.1322 -0.2176
vn 0.0155 0.9947 -0.1016
vn -0.0005 0.9939 -0.1107
vn 0.3091 -0.3855 -0.8694
vn -0.3551 -0.3454 -0.8686
vn 0.6063 -0.0000 0.7953
vn 0.5517 -0.1582 -0.8189
vn -0.1580 -0.9874 -0.0025
vn -0.1657 -0.9072 -0.3867
vt 0.361084 0.744629
vt 0.362061 0.571533
vt 0.359863 0.581787
vt 0.467773 0.592041
vt 0.467773 0.770874
vt 0.461670 0.774170
vt 0.293701 0.780151
vt 0.290039 0.559814
vt 0.293457 0.551025
vt 0.290039 0.771240
vt 0.524902 0.751587
vt 0.564941 0.745605
vt 0.562012 0.751709
vt 0.521484 0.745605
vt 0.977051 0.976334
vt 0.979492 0.982605
vt 0.939941 0.976395
vt 0.936523 0.982605
vt 0.975586 0.001465
vt 0.981934 0.193848
vt 0.975586 0.389648
vt 0.981934 0.004395
vt 0.296875 0.916748
vt 0.296387 0.910522
vt 0.298340 0.919617
vt 0.296387 0.895020
vt 0.308838 0.918945
vt 0.312256 0.917542
vt 0.312256 0.895081
vt 0.145630 0.356445
vt 0.148315 0.347656
vt 0.157349 0.350098
vt 0.170410 0.342285
vt 0.168091 0.353027
vt 0.179810 0.346191
vt 0.179565 0.334961
vt 0.176636 0.328613
vt 0.524414 0.798584
vt 0.561523 0.799316
vt 0.524414 0.789917
vt 0.562012 0.790771
vt 0.524902 0.778320
vt 0.564453 0.776001
vt 0.562012 0.779297
vt 0.562012 0.774414
vt 0.524902 0.774048
vt 0.976562 0.928772
vt 0.939453 0.929321
vt 0.939453 0.938080
vt 0.976562 0.942444
vt 0.939453 0.949554
vt 0.977051 0.953766
vt 0.939453 0.953949
vt 0.472900 0.810425
vt 0.472656 0.816406
vt 0.474609 0.807373
vt 0.472656 0.831909
vt 0.485107 0.807739
vt 0.488281 0.809326
vt 0.488281 0.831909
vt 0.718262 0.951080
vt 0.695312 0.951050
vt 0.691406 0.959625
vt 0.718262 0.966919
vt 0.689453 0.965607
vt 0.691895 0.977066
vt 0.718262 0.978348
vt 0.687988 0.984879
vt 0.718262 0.991867
vt 0.688477 0.989288
vt 0.702637 0.992435
vt 0.929199 0.000977
vt 0.927734 0.389648
vt 0.934082 0.389648
vt 0.937988 0.001465
vt 0.937500 0.389648
vt 0.949219 0.001465
vt 0.948730 0.389648
vt 0.953125 0.389648
vt 0.953613 0.001465
vt 0.413574 0.386230
vt 0.414795 0.774292
vt 0.420166 0.386230
vt 0.423584 0.774292
vt 0.423584 0.386230
vt 0.435059 0.774170
vt 0.434814 0.386230
vt 0.439209 0.774170
vt 0.438965 0.385742
vt 0.461670 0.385742
vt 0.985840 0.529297
vt 0.970215 0.533447
vt 0.954590 0.532715
vt 0.954590 0.519043
vt 0.981445 0.517578
vt 0.983398 0.507080
vt 0.955078 0.507080
vt 0.982422 0.500000
vt 0.978027 0.492188
vt 0.954590 0.492188
vt 0.956055 0.893250
vt 0.947266 0.895569
vt 0.944336 0.886414
vt 0.968750 0.901489
vt 0.966309 0.890198
vt 0.978516 0.897400
vt 0.978027 0.908875
vt 0.974609 0.914978
vt 0.288330 0.409668
vt 0.295410 0.390625
vt 0.104126 0.396973
vt 0.105164 0.413086
vt 0.288574 0.469238
vt 0.105286 0.472656
vt 0.104309 0.489258
vt 0.295654 0.487793
vt 0.469727 0.771606
vt 0.469727 0.738525
vt 0.425049 0.771606
vt 0.425049 0.738525
vt 0.469482 0.391113
vt 0.425049 0.391113
vt 0.384521 0.759521
vt 0.384766 0.770874
vt 0.361816 0.770874
vt 0.362305 0.759399
vt 0.353271 0.775024
vt 0.361084 0.560547
vt 0.384521 0.571777
vt 0.384766 0.560303
vt 0.353516 0.556152
vt 0.347412 0.776733
vt 0.346924 0.553955
vt 0.343750 0.673340
vt 0.334961 0.774414
vt 0.335449 0.556885
vt 0.328125 0.778931
vt 0.324707 0.551270
vt 0.323730 0.779297
vt 0.308594 0.551514
vt 0.309326 0.779541
vt 0.288818 0.469238
vt 0.288818 0.439453
vt 0.105225 0.443359
vt 0.288818 0.409668
vt 0.424805 0.771606
s 1
usemtl door_texture
f 3/1/1 6/2/2 9/3/3
f 12/1/4 16/3/5 18/2/6
f 21/4/7 22/5/7 28/6/8
f 32/7/9 37/8/10 41/9/11
f 44/10/12 37/8/10 32/7/9
f 29/11/8 46/12/7 48/13/13
f 29/11/8 23/14/7 46/12/7
f 55/15/14 61/16/7 62/17/15
f 61/16/7 68/18/7 62/17/15
f 63/19/15 70/20/7 71/21/16
f 63/19/15 69/22/7 70/20/7
f 76/23/17 79/24/18 82/25/19
f 79/24/18 85/26/20 82/25/19
f 82/25/19 85/26/20 87/27/21
f 85/26/20 89/28/22 87/27/21
f 91/29/23 89/28/22 85/26/20
f 40/30/24 36/31/25 96/32/26
f 96/32/26 36/31/25 98/33/27
f 96/32/26 98/33/27 100/34/28
f 100/34/28 98/33/27 106/35/29
f 106/35/29 98/33/27 54/36/30
f 98/33/27 60/37/31 54/36/30
f 109/38/32 112/39/33 114/40/34
f 114/40/34 112/39/33 14/41/35
f 114/40/34 14/41/35 116/42/36
f 14/41/35 119/43/37 120/44/38
f 116/42/36 14/41/35 120/44/38
f 118/45/39 116/42/36 120/44/38
f 116/42/36 118/45/39 122/46/40
f 118/45/39 27/11/41 122/46/40
f 118/45/39 51/13/42 27/11/41
f 125/47/43 128/48/44 130/49/45
f 17/50/5 125/47/43 130/49/45
f 131/51/46 17/50/5 130/49/45
f 20/52/47 17/50/5 131/51/46
f 20/52/47 131/51/46 133/53/48
f 64/17/49 20/52/47 133/53/48
f 64/17/49 57/15/50 20/52/47
f 135/54/51 138/55/52 141/56/53
f 141/56/53 138/55/52 144/57/54
f 144/57/54 146/58/55 141/56/53
f 148/59/56 146/58/55 144/57/54
f 148/59/56 144/57/54 72/60/57
f 151/61/58 156/62/59 158/63/60
f 151/61/58 158/63/60 159/64/61
f 158/63/60 163/65/62 159/64/61
f 163/65/62 165/66/63 159/64/61
f 165/66/63 166/67/64 159/64/61
f 165/66/63 170/68/65 166/67/64
f 170/68/65 35/69/66 166/67/64
f 170/68/65 172/70/67 35/69/66
f 35/69/66 172/70/67 174/71/68
f 127/72/69 139/73/70 136/74/71
f 127/72/69 136/74/71 129/75/45
f 129/75/45 136/74/71 142/76/53
f 132/77/46 129/75/45 142/76/53
f 132/77/46 142/76/53 147/78/55
f 149/79/72 132/77/46 147/78/55
f 134/80/48 132/77/46 149/79/72
f 65/19/49 134/80/48 149/79/72
f 75/21/73 65/19/49 149/79/72
f 177/81/74 107/82/75 180/83/76
f 180/83/76 107/82/75 113/84/34
f 180/83/76 113/84/34 182/85/77
f 182/85/77 113/84/34 115/86/36
f 184/87/78 182/85/77 115/86/36
f 184/87/78 115/86/36 121/88/40
f 184/87/78 121/88/40 186/89/79
f 121/88/40 24/6/80 186/89/79
f 186/89/79 24/6/80 93/90/81
f 189/38/82 191/40/83 194/39/84
f 191/40/83 4/41/1 194/39/84
f 191/40/83 196/42/85 4/41/1
f 4/41/1 197/44/86 200/43/87
f 196/42/85 197/44/86 4/41/1
f 199/45/87 197/44/86 196/42/85
f 196/42/85 202/46/88 199/45/87
f 199/45/87 202/46/88 26/11/89
f 199/45/87 26/11/89 53/13/90
f 204/91/91 206/92/92 39/93/93
f 204/91/91 39/93/93 97/94/94
f 204/91/91 97/94/94 208/95/95
f 97/94/94 210/96/96 208/95/95
f 97/94/94 101/97/97 210/96/96
f 101/97/97 212/98/98 210/96/96
f 101/97/97 214/99/99 212/98/98
f 214/99/99 101/97/97 105/100/100
f 217/47/101 219/49/102 222/48/103
f 10/50/3 219/49/102 217/47/101
f 223/51/104 219/49/102 10/50/3
f 7/52/2 223/51/104 10/50/3
f 7/52/2 225/53/105 223/51/104
f 66/17/106 225/53/105 7/52/2
f 66/17/106 7/52/2 59/15/107
f 227/54/108 229/56/109 232/55/110
f 229/56/109 145/57/54 232/55/110
f 145/57/54 229/56/109 235/58/111
f 237/59/112 145/57/54 235/58/111
f 237/59/112 73/60/113 145/57/54
f 167/101/114 45/102/115 33/103/116
f 239/104/117 45/102/115 167/101/114
f 160/105/118 239/104/117 167/101/114
f 154/106/119 239/104/117 160/105/118
f 49/107/120 239/104/117 154/106/119
f 49/107/120 47/108/7 239/104/117
f 31/69/121 241/71/122 243/70/123
f 245/68/124 31/69/121 243/70/123
f 245/68/124 168/67/125 31/69/121
f 247/66/126 168/67/125 245/68/124
f 247/66/126 161/64/127 168/67/125
f 249/65/128 161/64/127 247/66/126
f 251/63/129 161/64/127 249/65/128
f 153/61/130 161/64/127 251/63/129
f 153/61/130 251/63/129 253/62/131
f 221/72/132 228/74/133 233/73/134
f 221/72/132 218/75/102 228/74/133
f 218/75/102 230/76/135 228/74/133
f 224/77/104 230/76/135 218/75/102
f 224/77/104 236/78/111 230/76/135
f 238/79/112 236/78/111 224/77/104
f 226/80/136 238/79/112 224/77/104
f 67/19/106 238/79/112 226/80/136
f 74/21/113 238/79/112 67/19/106
f 90/89/137 94/90/138 25/6/41
f 201/88/88 90/89/137 25/6/41
f 88/87/139 90/89/137 201/88/88
f 88/87/139 201/88/88 195/86/140
f 88/87/139 195/86/140 83/85/19
f 83/85/19 195/86/140 190/84/83
f 77/83/141 83/85/19 190/84/83
f 77/83/141 190/84/83 187/82/142
f 80/81/143 77/83/141 187/82/142
f 123/109/43 15/110/5 11/111/144
f 11/111/144 110/112/145 123/109/43
f 123/109/43 110/112/145 215/113/146
f 192/114/147 215/113/146 110/112/145
f 1/115/1 215/113/146 192/114/147
f 215/113/146 1/115/1 8/116/3
f 179/23/148 181/25/149 176/24/150
f 176/24/150 181/25/149 84/26/20
f 181/25/149 183/27/151 84/26/20
f 84/26/20 183/27/151 185/28/152
f 92/29/153 84/26/20 185/28/152
f 255/91/154 43/93/155 257/92/156
f 255/91/154 95/94/157 43/93/155
f 255/91/154 259/95/158 95/94/157
f 95/94/157 259/95/158 261/96/159
f 95/94/157 261/96/159 99/97/160
f 99/97/160 261/96/159 263/98/161
f 99/97/160 263/98/161 265/99/162
f 265/99/162 103/100/163 99/97/160
f 111/117/164 108/118/165 193/119/147
f 193/119/147 108/118/165 188/120/166
f 178/121/167 188/120/166 108/118/165
f 188/120/166 178/121/167 81/122/18
f 52/123/168 152/124/169 252/125/170
f 52/123/168 252/125/170 198/126/171
f 252/125/170 2/1/172 198/126/171
f 252/125/170 250/127/173 2/1/172
f 250/127/173 213/128/174 2/1/172
f 2/1/172 213/128/174 5/2/175
f 213/128/174 58/129/176 5/2/175
f 104/130/177 58/129/176 213/128/174
f 250/127/173 211/131/178 213/128/174
f 250/127/173 248/132/179 211/131/178
f 248/132/179 209/133/180 211/131/178
f 266/134/181 209/133/180 248/132/179
f 248/132/179 246/135/182 266/134/181
f 266/134/181 207/136/183 209/133/180
f 246/135/182 207/136/183 266/134/181
f 246/135/182 244/137/184 207/136/183
f 244/137/184 203/138/185 207/136/183
f 242/139/186 203/138/185 244/137/184
f 205/140/187 203/138/185 242/139/186
f 240/141/188 205/140/187 242/139/186
f 240/141/188 30/7/189 205/140/187
f 205/140/187 30/7/189 38/9/190
f 234/142/191 78/114/192 143/143/193
f 78/114/192 86/144/194 143/143/193
f 175/112/195 143/143/193 86/144/194
f 140/145/196 143/143/193 175/112/195
f 50/123/197 155/125/198 150/124/199
f 50/123/197 117/126/200 155/125/198
f 155/125/198 117/126/200 13/1/201
f 155/125/198 13/1/201 157/127/202
f 157/127/202 13/1/201 264/128/203
f 13/1/201 19/2/204 264/128/203
f 264/128/203 19/2/204 56/129/205
f 102/130/206 264/128/203 56/129/205
f 157/127/202 264/128/203 262/131/207
f 157/127/202 262/131/207 162/132/208
f 162/132/208 262/131/207 260/133/209
f 267/134/210 162/132/208 260/133/209
f 162/132/208 267/134/210 164/135/211
f 267/134/210 260/133/209 258/136/212
f 164/135/211 267/134/210 258/136/212
f 164/135/211 258/136/212 169/137/213
f 169/137/213 258/136/212 254/138/214
f 171/139/215 169/137/213 254/138/214
f 256/140/216 171/139/215 254/138/214
f 173/141/217 171/139/215 256/140/216
f 173/141/217 256/140/216 34/7/218
f 256/140/216 42/9/219 34/7/218
f 126/118/220 231/122/221 137/121/70
f 220/120/132 231/122/221 126/118/220
f 126/118/220 216/146/222 220/120/132
f 216/146/222 126/118/220 124/117/223
o door
v 1.332260 34.225548 1.595159
v 1.332260 34.225548 1.595159
v 1.332260 34.225548 1.595159
v 1.332260 34.225548 1.595159
v 1.332260 34.225548 1.595159
v -1.789827 35.173229 1.595159
v -1.789827 35.173229 1.595159
v -1.789827 35.173229 1.595159
v -1.789827 35.173229 1.595159
v -1.375445 33.837887 1.595159
v -1.375445 33.837887 1.595159
v -1.375445 33.837887 1.595159
v -11.706217 35.173824 1.595159
v -11.706217 35.173824 1.595159
v -11.665943 35.509258 3.324613
v -11.665943 35.509258 3.324613
v -11.665943 35.509258 3.324613
v -11.665943 35.509258 3.324613
v -12.138968 34.225548 1.595159
v -12.138968 34.225548 1.595159
v -11.706217 35.173824 -1.417035
v -11.706217 35.173824 -1.417035
v -12.138968 34.225548 -1.417035
v -12.138968 34.225548 -1.417035
v -11.665943 35.509258 -3.960570
v -11.665943 35.509258 -3.960570
v -11.665943 35.509258 -3.960570
v -11.665943 35.509258 -3.960570
v 20.690680 71.934525 1.595159
v 20.690680 71.934525 1.595159
v 20.690680 71.934525 1.595159
v 16.804167 76.380089 1.595159
v 16.804167 76.380089 1.595159
v 16.804167 76.380089 1.595159
v 16.804167 76.380089 1.595159
v 16.804642 71.883881 1.595159
v 16.804642 71.883881 1.595159
v 16.804642 71.883881 1.595159
v 20.690666 78.814049 1.595159
v 20.690666 78.814049 1.595159
v 20.690666 78.814049 1.595159
v 20.690666 78.814049 1.595159
v -20.690781 71.934525 1.595159
v -20.690781 71.934525 1.595159
v -20.690781 71.934525 1.595159
v -16.804741 71.883881 1.595159
v -16.804741 71.883881 1.595159
v -16.804741 71.883881 1.595159
v -16.803783 76.370789 1.595159
v -16.803783 76.370789 1.595159
v -16.803783 76.370789 1.595159
v -16.803783 76.370789 1.595159
v -20.605400 78.800400 1.595159
v -20.605400 78.800400 1.595159
v -20.605400 78.800400 1.595159
v -20.605400 78.800400 1.595159
v -1.789827 35.173229 -1.417035
v -1.789827 35.173229 -1.417035
v -1.789827 35.173229 -1.417035
v -1.789827 35.173229 -1.417035
v -1.650921 36.313511 -1.417035
v -1.650921 36.313511 -1.417035
v -1.650921 36.313511 -1.417035
v 1.277304 36.474472 -1.417035
v 1.277304 36.474472 -1.417035
v 1.277304 36.474472 -1.417035
v 1.277304 36.474472 -1.417035
v 1.765009 35.173824 -1.417035
v 1.765009 35.173824 -1.417035
v 1.765009 35.173824 -1.417035
v 1.332260 34.225548 -1.417035
v 1.332260 34.225548 -1.417035
v 1.332260 34.225548 -1.417035
v 1.332260 34.225548 -1.417035
v 1.332260 34.225548 -1.417035
v -1.375445 33.837883 -1.417035
v -1.375445 33.837883 -1.417035
v -1.375445 33.837883 -1.417035
v 20.690680 71.934525 -1.417035
v 20.690680 71.934525 -1.417035
v 20.690680 71.934525 -1.417035
v 16.804642 71.883881 -1.417035
v 16.804642 71.883881 -1.417035
v 16.804642 71.883881 -1.417035
v 16.804167 76.380089 -1.417035
v 16.804167 76.380089 -1.417035
v 16.804167 76.380089 -1.417035
v 16.804167 76.380089 -1.417035
v 20.690666 78.814049 -1.417035
v 20.690666 78.814049 -1.417035
v 20.690666 78.814049 -1.417035
v -20.690781 71.934525 -1.417035
v -20.690781 71.934525 -1.417035
v -20.690781 71.934525 -1.417035
v -16.803783 76.370789 -1.417035
v -16.803783 76.370789 -1.417035
v -16.803783 76.370789 -1.417035
v -16.803783 76.370789 -1.417035
v -16.804741 71.883881 -1.417035
v -16.804741 71.883881 -1.417035
v -16.804741 71.883881 -1.417035
v -20.605400 78.800400 -1.417035
v -20.605400 78.800400 -1.417035
v -20.605400 78.800400 -1.417035
v -13.965619 36.545223 3.414231
v -13.965619 36.545223 3.414231
v -12.959866 34.010887 3.451729
v -12.959866 34.010887 3.451729
v -15.446717 35.061111 3.299397
v -15.446717 35.061111 3.299397
v -15.446717 35.061111 3.299397
v -12.959866 34.010887 -4.087684
v -12.959866 34.010887 -4.087684
v -13.965619 36.545223 -4.050188
v -13.965619 36.545223 -4.050188
v -15.446717 35.061111 -3.935353
v -15.446717 35.061111 -3.935353
v -15.446717 35.061111 -3.935353
v 1.329223 76.378403 1.595159
v 1.329223 76.378403 1.595159
v 1.328462 76.379204 1.595159
v 1.328462 76.379204 1.595159
v 1.328462 76.379204 1.595159
v 1.328462 76.379204 1.595159
v 1.303600 67.430481 1.595159
v 1.303600 67.430481 1.595159
v 1.303600 67.430481 1.595159
v 2.343060 75.571205 1.595159
v 4.769289 69.688004 1.595159
v 15.671010 75.467476 1.595159
v 15.243880 68.571266 1.595159
v 16.358583 67.581535 1.595159
v 16.358583 67.581535 1.595159
v 16.807144 65.250130 1.595159
v 16.807144 65.250130 1.595159
v 16.807144 65.250130 1.595159
v 16.807144 65.250130 1.595159
v 16.807144 65.250130 1.595159
v 1.319445 65.250137 1.595159
v 1.319445 65.250137 1.595159
v 1.319445 65.250137 1.595159
v 1.319445 65.250137 1.595159
v 1.319445 65.250137 1.595159
v -16.811018 22.615812 1.595159
v -16.811018 22.615812 1.595159
v -16.811018 22.615812 1.595159
v -16.805534 2.306507 1.595159
v -16.805534 2.306507 1.595159
v -16.805534 2.306507 1.595159
v -16.805534 2.306507 1.595159
v -15.465881 3.410416 1.595159
v -15.465881 3.410416 1.595159
v -15.632880 21.845438 1.595159
v -15.632880 21.845438 1.595159
v -13.454644 4.680809 1.595159
v -13.458120 20.411692 1.595159
v -4.689735 4.684689 1.595159
v -2.649024 3.350498 1.595159
v -2.649024 3.350498 1.595159
v -1.675185 2.302509 1.595159
v -1.675185 2.302509 1.595159
v -1.675185 2.302509 1.595159
v -4.686932 20.402187 1.595159
v -1.657704 22.420498 1.595159
v -1.657704 22.420498 1.595159
v -1.408611 25.082716 1.595159
v -1.408611 25.082716 1.595159
v -1.408611 25.082716 1.595159
v -16.804634 25.119556 1.595159
v -16.804634 25.119556 1.595159
v -16.804634 25.119556 1.595159
v -15.282547 26.160322 1.595159
v -4.703892 27.306223 1.595159
v -16.764009 34.018955 1.595159
v -16.764009 34.018955 1.595159
v -16.764009 34.018955 1.595159
v -15.243745 32.893181 1.595159
v -2.933333 32.951580 1.595159
v 1.330917 25.012440 1.595159
v 1.330917 25.012440 1.595159
v 1.330917 25.012440 1.595159
v 1.330917 25.012440 1.595159
v -16.813755 36.372375 1.595159
v -16.813755 36.372375 1.595159
v -16.813755 36.372375 1.595159
v -1.650921 36.313511 1.595159
v -1.650921 36.313511 1.595159
v -1.650921 36.313511 1.595159
v -15.468290 37.247059 1.595159
v -15.468290 37.247059 1.595159
v -2.767874 37.373745 1.595159
v -2.767874 37.373745 1.595159
v -4.690461 38.594913 1.595159
v -13.456836 38.589077 1.595159
v -13.439866 62.862392 1.595159
v -15.474962 64.227196 1.595159
v -15.474962 64.227196 1.595159
v -16.811663 65.251854 1.595159
v -16.811663 65.251854 1.595159
v -16.811663 65.251854 1.595159
v -16.811663 65.251854 1.595159
v -16.811663 65.251854 1.595159
v -4.657394 62.889378 1.595159
v -2.366235 64.400108 1.595159
v -2.366235 64.400108 1.595159
v -1.485320 65.254555 1.595159
v -1.485320 65.254555 1.595159
v -1.485320 65.254555 1.595159
v -1.485320 65.254555 1.595159
v 1.277304 36.474472 1.595159
v 1.277304 36.474472 1.595159
v 1.277304 36.474472 1.595159
v 1.277304 36.474472 1.595159
v -1.418185 67.454033 1.595159
v -1.418185 67.454033 1.595159
v -16.022238 67.905670 1.595159
v -16.022238 67.905670 1.595159
v -2.906902 68.565063 1.595159
v -13.395127 69.668350 1.595159
v -1.983112 75.801094 1.595159
v -1.328461 76.379204 1.595159
v -1.328461 76.379204 1.595159
v -1.328461 76.379204 1.595159
v -15.704564 75.513596 1.595159
v 1.330917 25.012440 -1.417035
v 1.330917 25.012440 -1.417035
v 1.330917 25.012440 -1.417035
v 1.330917 25.012440 -1.417035
v -1.408611 25.082716 -1.417035
v -1.408611 25.082716 -1.417035
v -1.408611 25.082716 -1.417035
v -2.933333 32.951580 -1.417035
v -4.703892 27.306223 -1.417035
v -15.243745 32.893181 -1.417035
v -16.764009 34.018951 -1.417035
v -16.764009 34.018951 -1.417035
v -16.764009 34.018951 -1.417035
v -16.813755 36.372375 -1.417035
v -16.813755 36.372375 -1.417035
v -16.813755 36.372375 -1.417035
v -15.468290 37.247051 -1.417035
v -15.468290 37.247051 -1.417035
v -2.767874 37.373745 -1.417035
v -2.767874 37.373745 -1.417035
v -4.690461 38.594913 -1.417035
v -13.456836 38.589077 -1.417035
v -15.282547 26.160322 -1.417035
v -16.804634 25.119555 -1.417035
v -16.804634 25.119555 -1.417035
v -16.804634 25.119555 -1.417035
v -16.811018 22.615812 -1.417035
v -16.811018 22.615812 -1.417035
v -16.811018 22.615812 -1.417035
v -1.657704 22.420498 -1.417035
v -1.657704 22.420498 -1.417035
v -15.632880 21.845438 -1.417035
v -15.632880 21.845438 -1.417035
v -13.458120 20.411692 -1.417035
v -4.686932 20.402187 -1.417035
v -4.689735 4.684689 -1.417035
v -2.649024 3.350494 -1.417035
v -2.649024 3.350494 -1.417035
v -1.675185 2.302509 -1.417035
v -1.675185 2.302509 -1.417035
v -1.675185 2.302509 -1.417035
v -13.454644 4.680809 -1.417035
v -15.465881 3.410416 -1.417035
v -15.465881 3.410416 -1.417035
v -16.805534 2.306507 -1.417035
v -16.805534 2.306507 -1.417035
v -16.805534 2.306507 -1.417035
v -16.805534 2.306507 -1.417035
v 1.322739 22.620157 -1.417035
v 1.322739 22.620157 -1.417035
v 1.322739 22.620157 -1.417035
v 1.313651 2.298424 -1.417035
v 1.313651 2.298424 -1.417035
v 1.313651 2.298424 -1.417035
v 1.313651 2.298424 -1.417035
v -15.474962 64.227196 -1.417035
v -15.474962 64.227196 -1.417035
v -16.811663 65.251854 -1.417035
v -16.811663 65.251854 -1.417035
v -16.811663 65.251854 -1.417035
v -16.811663 65.251854 -1.417035
v -16.811663 65.251854 -1.417035
v -13.439866 62.862392 -1.417035
v -4.657394 62.889378 -1.417035
v -2.366235 64.400108 -1.417035
v -2.366235 64.400108 -1.417035
v -1.485320 65.254555 -1.417035
v -1.485320 65.254555 -1.417035
v -1.485320 65.254555 -1.417035
v -1.485320 65.254555 -1.417035
v 1.319445 65.250137 -1.417035
v 1.319445 65.250137 -1.417035
v 1.319445 65.250137 -1.417035
v 1.319445 65.250137 -1.417035
v 1.319445 65.250137 -1.417035
v -15.704564 75.513596 -1.417035
v -16.022238 67.905670 -1.417035
v -16.022238 67.905670 -1.417035
v -13.395127 69.668350 -1.417035
v -1.983112 75.801094 -1.417035
v -1.328461 76.379204 -1.417035
v -1.328461 76.379204 -1.417035
v -1.328461 76.379204 -1.417035
v -2.906902 68.565063 -1.417035
v -1.418185 67.454033 -1.417035
v -1.418185 67.454033 -1.417035
v 1.328462 76.379204 -1.417035
v 1.328462 76.379204 -1.417035
v 1.328462 76.379204 -1.417035
v 1.328462 76.379204 -1.417035
v 1.303600 67.430481 -1.417035
v 1.303600 67.430481 -1.417035
v 1.303600 67.430481 -1.417035
v -15.261056 35.173229 1.595159
v -15.261056 35.173229 1.595159
v -15.261056 35.173229 -1.417035
v -15.261056 35.173229 -1.417035
v 1.765009 35.173824 1.595159
v 1.765009 35.173824 1.595159
v 1.765009 35.173824 1.595159
v 15.484432 3.395721 1.595159
v 15.484432 3.395721 1.595159
v 1.313651 2.298424 1.595159
v 1.313651 2.298424 1.595159
v 1.313651 2.298424 1.595159
v 1.313651 2.298424 1.595159
v 16.813070 2.302139 1.595159
v 16.813070 2.302139 1.595159
v 16.813070 2.302139 1.595159
v 16.813070 2.302139 1.595159
v 4.281867 4.410400 1.595159
v 13.456979 4.679138 1.595159
v 13.458865 20.412287 1.595159
v 15.663630 21.886467 1.595159
v 15.663630 21.886467 1.595159
v 16.810738 22.626038 1.595159
v 16.810738 22.626038 1.595159
v 16.810738 22.626038 1.595159
v 4.688023 20.401384 1.595159
v 2.594955 21.750399 1.595159
v 2.594955 21.750399 1.595159
v 1.322739 22.620157 1.595159
v 1.322739 22.620157 1.595159
v 1.322739 22.620157 1.595159
v 16.804535 25.105455 1.595159
v 16.804535 25.105455 1.595159
v 16.804535 25.105455 1.595159
v 15.479162 25.983095 1.595159
v 2.993136 26.247585 1.595159
v 2.885576 32.897221 1.595159
v 15.370173 33.001205 1.595159
v 16.768078 33.965439 1.595159
v 16.768078 33.965439 1.595159
v 16.768078 33.965439 1.595159
v 16.816458 36.386169 1.595159
v 16.816458 36.386169 1.595159
v 16.816458 36.386169 1.595159
v 2.627713 37.205341 1.595159
v 2.627713 37.205341 1.595159
v 15.729508 37.088394 1.595159
v 15.729508 37.088394 1.595159
v 4.678630 38.586334 1.595159
v 13.468287 38.579082 1.595159
v 13.437140 62.863632 1.595159
v 15.820887 64.477310 1.595159
v 15.820887 64.477310 1.595159
v 4.678942 62.870678 1.595159
v 2.713240 64.113800 1.595159
v 2.713240 64.113800 1.595159
v 16.807144 65.250130 -1.417035
v 16.807144 65.250130 -1.417035
v 16.807144 65.250130 -1.417035
v 16.807144 65.250130 -1.417035
v 16.807144 65.250130 -1.417035
v 15.671010 75.467476 -1.417035
v 16.358583 67.581535 -1.417035
v 16.358583 67.581535 -1.417035
v 15.243880 68.571266 -1.417035
v 4.769289 69.688004 -1.417035
v 2.343060 75.571205 -1.417035
v 1.329223 76.378403 -1.417035
v 1.329223 76.378403 -1.417035
v 15.484432 3.395721 -1.417035
v 15.484432 3.395721 -1.417035
v 16.813070 2.302139 -1.417035
v 16.813070 2.302139 -1.417035
v 16.813070 2.302139 -1.417035
v 16.813070 2.302139 -1.417035
v 4.281867 4.410400 -1.417035
v 13.456979 4.679138 -1.417035
v 13.458865 20.412287 -1.417035
v 15.663630 21.886467 -1.417035
v 15.663630 21.886467 -1.417035
v 16.810738 22.626038 -1.417035
v 16.810738 22.626038 -1.417035
v 16.810738 22.626038 -1.417035
v 4.688023 20.401384 -1.417035
v 2.594955 21.750399 -1.417035
v 2.594955 21.750399 -1.417035
v 16.804535 25.105455 -1.417035
v 16.804535 25.105455 -1.417035
v 16.804535 25.105455 -1.417035
v 15.479162 25.983095 -1.417035
v 2.993136 26.247585 -1.417035
v 2.885576 32.897221 -1.417035
v 15.370173 33.001205 -1.417035
v 16.768078 33.965435 -1.417035
v 16.768078 33.965435 -1.417035
v 16.768078 33.965435 -1.417035
v 16.816458 36.386166 -1.417035
v 16.816458 36.386166 -1.417035
v 16.816458 36.386166 -1.417035
v 2.627714 37.205341 -1.417035
v 2.627714 37.205341 -1.417035
v 15.729508 37.088394 -1.417035
v 15.729508 37.088394 -1.417035
v 4.678630 38.586334 -1.417035
v 13.468287 38.579082 -1.417035
v 13.437140 62.863632 -1.417035
v 15.820887 64.477310 -1.417035
v 15.820887 64.477310 -1.417035
v 4.678942 62.870678 -1.417035
v 2.713241 64.113800 -1.417035
v 2.713241 64.113800 -1.417035
v 20.690619 0.000050 1.595159
v 20.690619 0.000050 1.595159
v 20.690619 0.000050 1.595159
v 20.690619 0.000050 1.595159
v 20.690619 0.000050 -1.417035
v 20.690619 0.000050 -1.417035
v 20.690619 0.000050 -1.417035
v -20.690763 0.000034 -1.417035
v -20.690763 0.000034 -1.417035
v -20.690763 0.000034 -1.417035
v -20.690763 0.000034 1.595159
v -20.690763 0.000034 1.595159
v -20.690763 0.000034 1.595159
v -20.690763 0.000034 1.595159
v 19.490282 38.259602 1.595159
v 18.753838 39.370094 1.595159
v 19.490282 38.259602 -1.417035
v 18.753838 39.370094 -1.417035
vn -0.1086 0.1688 0.9797
vn 0.2182 0.1810 0.9590
vn -0.0650 -0.0245 0.9976
vn 0.4937 0.7463 -0.4463
vn 0.9044 0.1399 0.4032
vn 0.1772 -0.9775 0.1144
vn 0.9363 -0.1990 0.2895
vn 0.7063 -0.7075 -0.0244
vn 0.8685 0.3408 -0.3598
vn 0.7391 -0.6535 0.1634
vn -0.0448 -0.0689 0.9966
vn -0.0025 -0.0010 1.0000
vn 0.1500 0.9704 0.1893
vn -0.9623 0.0158 0.2716
vn 0.0019 -0.0023 1.0000
vn 0.0735 -0.1079 0.9914
vn 0.0306 0.9616 0.2728
vn 0.1956 -0.1245 -0.9727
vn -0.0520 0.1656 -0.9848
vn 0.0674 0.1269 -0.9896
vn -0.4113 -0.0116 -0.9114
vn -0.1239 -0.0599 -0.9905
vn -0.0651 -0.0168 -0.9977
vn 0.2327 0.0710 -0.9699
vn -0.1644 -0.1941 -0.9671
vn 0.1921 -0.0626 -0.9794
vn -0.4112 0.0380 -0.9107
vn 0.9961 0.0080 0.0878
vn -0.0024 -0.0007 -1.0000
vn -0.0761 -0.0375 -0.9964
vn 0.8722 0.4868 0.0489
vn -0.7991 -0.4113 -0.4385
vn 0.0732 -0.0447 -0.9963
vn 0.0018 -0.0028 -1.0000
vn 0.0023 0.2467 -0.9691
vn 0.8952 0.1101 0.4319
vn -0.1103 0.9372 0.3308
vn 0.1254 -0.5879 0.7992
vn -0.7253 -0.6307 0.2760
vn 0.8703 0.3481 -0.3483
vn 0.2114 -0.5953 -0.7752
vn -0.2906 0.7937 -0.5344
vn -0.9200 0.2437 -0.3070
vn -0.8900 0.2356 0.3903
vn -0.9694 0.2446 0.0199
vn -0.1152 0.0361 0.9927
vn -0.1387 0.0597 0.9885
vn -0.0275 -0.0432 0.9987
vn 0.1662 0.1478 0.9749
vn -0.0289 0.4934 0.8693
vn -0.2841 0.8631 0.4176
vn -0.2314 0.9724 0.0286
vn 0.2318 -0.1132 0.9662
vn 0.0492 -0.0068 0.9988
vn -0.4785 -0.0561 0.8763
vn -0.0788 -0.0431 0.9960
vn -0.1458 -0.0892 0.9853
vn -0.0719 -0.0108 0.9973
vn 0.1299 -0.0981 0.9867
vn 0.4286 -0.0615 0.9014
vn -0.9924 -0.0001 0.1232
vn -0.3878 -0.0407 0.9208
vn -0.4430 0.0305 0.8960
vn -0.1467 0.1024 0.9839
vn -0.3367 -0.1596 0.9280
vn 0.0083 0.0194 0.9998
vn 0.0302 -0.0069 0.9995
vn -0.0398 0.0325 0.9987
vn 0.1848 -0.3583 0.9151
vn -0.0702 -0.2975 0.9521
vn 0.0146 -0.5112 0.8594
vn -0.0967 -0.5318 0.8414
vn 0.0293 0.0514 0.9982
vn 0.3710 0.1749 0.9120
vn -0.1212 0.0383 0.9919
vn -0.0280 -0.0358 0.9990
vn 0.0164 0.4541 0.8908
vn 0.1123 0.0369 0.9930
vn 0.1121 0.1625 0.9803
vn -0.0587 0.0153 0.9982
vn 0.0697 -0.0994 0.9926
vn -0.1400 -0.0904 0.9860
vn 0.0284 -0.0454 0.9986
vn -0.3788 0.0787 0.9221
vn -0.3292 -0.0935 0.9396
vn -0.1706 0.0983 0.9804
vn 0.1159 0.1315 0.9845
vn 0.0306 0.0435 0.9986
vn 0.0760 0.0624 0.9952
vn 0.0943 -0.1070 0.9898
vn 0.1022 0.0879 0.9909
vn -0.0959 0.0827 0.9920
vn -0.0872 0.1545 0.9841
vn 0.1777 0.0799 0.9808
vn 0.1606 -0.1611 0.9738
vn -0.1986 -0.1671 0.9657
vn 0.0763 -0.4021 0.9124
vn -0.0701 -0.4020 0.9129
vn -0.0320 0.0334 0.9989
vn 0.0017 0.0204 0.9998
vn 0.0306 -0.0462 0.9985
vn -0.2054 -0.1160 0.9718
vn -0.2589 0.1824 0.9485
vn -0.3251 0.0310 0.9452
vn -0.3593 0.0028 0.9332
vn 0.0183 -0.0074 0.9998
vn 0.3326 0.0910 0.9387
vn 0.1163 0.3688 0.9222
vn 0.2247 -0.0994 0.9694
vn -0.2182 0.4085 0.8863
vn 0.0023 0.1026 0.9947
vn -0.0719 0.5280 0.8462
vn 0.1134 0.5714 0.8128
vn 0.1241 -0.0572 0.9906
vn 0.1456 0.0327 0.9888
vn 0.1380 -0.0595 0.9886
vn 0.1488 -0.1643 0.9751
vn -0.0853 -0.0610 0.9945
vn -0.0784 -0.0830 0.9935
vn 0.0376 0.0066 0.9993
vn 0.1534 -0.1319 0.9793
vn -0.0120 -0.0128 0.9998
vn 0.2654 0.1068 0.9582
vn 0.0061 0.0839 0.9965
vn -0.0492 0.5219 0.8516
vn 0.0619 0.4945 0.8670
vn -0.1450 0.1441 0.9789
vn -0.4209 0.1807 0.8889
vn -0.4039 -0.0049 0.9148
vn -0.4215 -0.1030 0.9009
vn 0.9311 -0.0019 0.3647
vn 0.1488 -0.1241 0.9810
vn 0.0158 -0.0178 0.9997
vn 0.0358 0.0644 0.9973
vn 0.1192 -0.0806 0.9896
vn -0.0801 -0.0612 0.9949
vn -0.1115 -0.1463 -0.9829
vn 0.0705 0.0482 -0.9963
vn 0.0943 -0.0998 -0.9905
vn 0.0766 -0.0025 -0.9971
vn 0.1645 0.0564 -0.9848
vn -0.0447 -0.0210 -0.9988
vn -0.0135 -0.1999 -0.9797
vn 0.0687 0.0624 -0.9957
vn -0.0873 0.1615 -0.9830
vn 0.1916 -0.0273 -0.9811
vn 0.0332 -0.2871 -0.9573
vn -0.0475 -0.0289 -0.9985
vn 0.3155 -0.3203 -0.8932
vn -0.4283 -0.2305 -0.8738
vn 0.0445 0.0182 -0.9988
vn -0.0138 0.0126 -0.9998
vn 0.1703 -0.0183 -0.9852
vn -0.3366 -0.0934 -0.9370
vn -0.4015 0.0541 -0.9143
vn -0.0131 -0.0303 -0.9995
vn 0.0483 -0.1208 -0.9915
vn 0.0140 0.1617 -0.9867
vn -0.1057 0.0153 -0.9943
vn 0.4029 0.1823 -0.8969
vn 0.0068 0.0243 -0.9997
vn 0.0534 0.0270 -0.9982
vn -0.0474 0.0096 -0.9988
vn 0.3696 0.2010 -0.9072
vn -0.0122 -0.0594 -0.9982
vn 0.1418 0.1077 -0.9840
vn -0.0072 0.0194 -0.9998
vn 0.0495 -0.3875 -0.9205
vn 0.2759 -0.1462 -0.9500
vn -0.0457 0.3059 -0.9510
vn -0.0712 -0.2737 -0.9592
vn -0.4870 -0.0386 -0.8725
vn -0.4001 0.0073 -0.9165
vn 0.0620 -0.5311 -0.8450
vn -0.0661 -0.4642 -0.8832
vn 0.1006 -0.0633 -0.9929
vn 0.1320 -0.0899 -0.9872
vn 0.0394 0.0322 -0.9987
vn 0.0663 0.0358 -0.9972
vn -0.2296 -0.1322 -0.9643
vn -0.0163 0.2463 -0.9691
vn -0.4513 -0.1150 -0.8849
vn -0.4255 -0.0360 -0.9042
vn -0.0153 -0.0540 -0.9984
vn -0.0052 0.0160 -0.9999
vn -0.0319 0.2306 -0.9725
vn 0.0906 0.3542 -0.9308
vn 0.3140 -0.1547 -0.9367
vn -0.1251 0.3605 -0.9243
vn 0.1528 0.2366 -0.9595
vn -0.0564 0.5011 -0.8635
vn 0.0418 0.5408 -0.8401
vn 0.1388 -0.0858 -0.9866
vn 0.0671 0.2135 -0.9746
vn 0.0750 0.0035 -0.9972
vn 0.9311 -0.0024 -0.3647
vn -0.4232 -0.0392 -0.9052
vn -0.4672 -0.0454 -0.8830
vn 0.1966 0.0338 -0.9799
vn -0.1926 0.3353 -0.9222
vn 0.0197 -0.0129 -0.9997
vn 0.0113 0.2833 -0.9590
vn 0.0602 0.5486 -0.8339
vn 0.0864 0.2226 0.9711
vn -0.1952 -0.0287 -0.9803
vn 0.2404 0.1555 -0.9581
vn -0.0280 -0.1262 -0.9916
vn 0.0782 -0.2036 -0.9759
vn -0.0694 -0.0926 -0.9933
vn 0.0580 0.0386 -0.9976
vn -0.0945 0.8647 0.4933
vn 0.0158 -0.0178 -0.9997
vn 0.0038 0.0638 -0.9980
vn 0.0564 -0.0181 -0.9982
vn -0.0642 -0.0928 -0.9936
vn 0.8722 0.4867 0.0485
vn -0.0771 -0.0349 -0.9964
vn 0.0047 0.2461 -0.9692
vn 0.0156 -0.0185 -0.9997
vn 0.0778 -0.0326 -0.9964
vn 0.0765 0.0008 0.9971
vn 0.8937 0.1388 0.4267
vn 0.1183 -0.6154 0.7793
vn 0.2848 -0.9566 0.0611
vn -0.7261 -0.6420 0.2463
vn -0.8531 -0.2819 -0.4390
vn -0.9188 0.2442 -0.3100
vn -0.7720 0.3014 0.5596
vn -0.2875 0.7779 -0.5588
vn 0.9369 -0.1887 0.2942
vn 0.8697 0.3442 -0.3538
vn 0.1813 -0.0146 0.9833
vn 0.1459 -0.0542 0.9878
vn -0.2180 0.0170 0.9758
vn -0.1533 0.3522 0.9233
vn 0.1779 0.0479 0.9829
vn -0.1494 0.0340 0.9882
vn -0.1528 0.4022 0.9027
vn -0.1633 -0.3215 0.9327
vn 0.0859 -0.2416 0.9666
vn -0.0900 -0.5113 0.8547
vn -0.0706 -0.0532 0.9961
vn -0.0012 0.0109 0.9999
vn -0.0153 -0.0134 0.9998
vn 0.3414 -0.2213 0.9135
vn 0.1822 0.1600 0.9702
vn 0.4004 -0.0256 0.9160
vn 0.3852 0.0382 0.9220
vn 0.0129 -0.0220 0.9997
vn 0.1152 0.4599 0.8804
vn -0.2218 -0.1049 0.9694
vn -0.0101 0.4054 0.9141
vn -0.0988 0.0218 0.9949
vn -0.4453 -0.0627 0.8932
vn 0.0447 0.1322 0.9902
vn -0.1107 0.1830 0.9769
vn 0.0612 -0.0859 0.9944
vn -0.1012 -0.1199 0.9876
vn 0.1873 -0.1423 0.9719
vn -0.1442 -0.0750 0.9867
vn -0.1471 0.1258 0.9811
vn -0.3564 0.0805 0.9309
vn -0.5757 0.0920 0.8124
vn 0.1327 0.0848 0.9875
vn 0.3601 0.0642 0.9307
vn 0.4198 -0.0525 0.9061
vn -0.1496 0.2406 0.9590
vn -0.0576 0.1301 0.9898
vn -0.1543 0.3781 0.9128
vn -0.1032 -0.1683 0.9803
vn 0.1287 -0.2590 0.9573
vn 0.0869 -0.4532 0.8871
vn -0.0949 -0.5075 0.8564
vn 0.0117 0.0160 0.9998
vn 0.0014 0.0138 0.9999
vn -0.0015 -0.0104 0.9999
vn 0.2480 -0.1301 0.9600
vn 0.2667 0.1149 0.9569
vn 0.4090 0.0478 0.9113
vn 0.3952 -0.0155 0.9184
vn 0.0217 -0.0254 0.9994
vn -0.0873 0.3564 0.9302
vn -0.1772 -0.0989 0.9792
vn 0.1578 0.3738 0.9140
vn -0.2322 0.2005 0.9518
vn 0.1190 0.5019 0.8567
vn -0.0659 0.5393 0.8395
vn -0.3374 0.0290 0.9409
vn -0.3580 -0.0529 0.9322
vn 0.0156 -0.0185 0.9997
vn 0.0780 -0.0958 0.9923
vn -0.0672 0.6991 0.7118
vn 0.0324 0.9638 0.2648
vn -0.0458 -0.0663 0.9967
vn 0.1497 0.9708 0.1873
vn 0.0322 0.9608 0.2753
vn 0.1498 0.9704 0.1894
vn -0.1461 -0.0892 -0.9852
vn 0.4004 -0.0302 -0.9158
vn -0.9924 0.0001 -0.1232
vn -0.2195 0.0187 -0.9754
vn -0.2877 0.2739 -0.9177
vn 0.0808 -0.2487 -0.9652
vn 0.0053 0.0539 -0.9985
vn 0.0180 -0.0072 -0.9998
vn 0.1838 0.2985 -0.9366
vn -0.0722 -0.0108 -0.9973
vn 0.0668 -0.0354 -0.9971
vn -0.0553 -0.1344 -0.9894
vn -0.1474 0.0358 -0.9884
vn -0.0601 0.5202 -0.8519
vn 0.5223 -0.7516 -0.4030
vn -0.9694 0.2446 -0.0199
vn 0.8127 -0.4146 -0.4093
vn -0.2314 0.9724 -0.0287
vn -0.2417 -0.2978 -0.9235
vn -0.0749 -0.4636 -0.8829
vn 0.0939 -0.3705 -0.9241
vn 0.0866 -0.0119 -0.9962
vn 0.0066 0.0109 -0.9999
vn 0.0080 -0.0134 -0.9999
vn 0.1965 -0.1231 -0.9727
vn 0.1038 0.1788 -0.9784
vn 0.4916 -0.0790 -0.8672
vn 0.3990 0.0937 -0.9122
vn 0.0207 -0.0142 -0.9997
vn 0.0371 0.4150 -0.9090
vn -0.2945 -0.1543 -0.9431
vn -0.1673 0.4931 -0.8538
vn -0.0900 -0.1133 -0.9895
vn -0.4524 -0.0626 -0.8896
vn 0.0377 0.1322 -0.9905
vn -0.0197 0.1328 -0.9909
vn 0.0316 -0.1229 -0.9919
vn -0.0660 -0.1551 -0.9857
vn -0.2332 -0.0462 -0.9713
vn 0.1608 0.0197 -0.9868
vn -0.0442 0.1866 -0.9814
vn -0.3871 0.0399 -0.9212
vn -0.5879 -0.1391 -0.7969
vn 0.0973 0.1225 -0.9877
vn 0.3973 0.0233 -0.9174
vn 0.4339 -0.0602 -0.8989
vn -0.1596 0.0280 -0.9868
vn -0.0434 0.1227 -0.9915
vn -0.4100 0.0169 -0.9119
vn -0.0963 -0.1752 -0.9798
vn 0.0590 -0.0981 -0.9934
vn 0.2932 -0.3915 -0.8722
vn -0.3766 -0.4014 -0.8349
vn -0.0194 0.0083 -0.9998
vn 0.0092 0.0138 -0.9999
vn -0.0015 -0.0104 -0.9999
vn 0.2238 -0.1136 -0.9680
vn -0.0151 0.1991 -0.9799
vn 0.4161 0.0398 -0.9085
vn 0.3950 -0.0154 -0.9186
vn 0.0217 -0.0176 -0.9996
vn -0.1128 0.3716 -0.9215
vn -0.2512 -0.1471 -0.9567
vn 0.0783 0.3294 -0.9409
vn -0.0287 0.2457 -0.9689
vn 0.0534 0.5577 -0.8284
vn -0.0662 0.5393 -0.8395
vn -0.4016 0.2107 -0.8912
vn -0.4163 0.0120 -0.9092
vn 0.1499 0.9704 0.1893
vn 0.7389 -0.6535 0.1643
vn 0.8722 0.4868 0.0481
vn 0.9962 0.0079 0.0871
vn 0.6316 0.0869 0.7704
vn 0.0080 -0.3796 -0.9251
vn -0.7044 -0.0061 -0.7098
vn -0.1025 -0.4260 0.8989
vn 0.0047 -0.3780 -0.9258
vn 0.0766 0.0178 -0.9969
vn -0.0775 0.1328 -0.9881
vn 0.1313 0.0265 -0.9910
vn -0.0855 0.1109 -0.9901
vn -0.7974 -0.4107 -0.4422
vn 0.0322 0.9611 0.2743
vn 0.0082 0.2458 -0.9693
vn -0.9612 0.0162 0.2755
vn -0.7050 -0.0076 -0.7092
vn -0.1026 -0.4259 0.8989
vn -0.7304 -0.6329 0.2571
vn -0.1102 0.9729 0.2031
vn -0.8186 -0.3988 -0.4133
vn 0.5143 0.7104 -0.4804
vn 0.9002 0.1328 0.4148
vn 0.8695 0.3416 -0.3567
vn 0.6815 -0.7301 -0.0496
vn 0.2135 -0.5883 -0.7800
vn -0.9174 0.2492 -0.3104
vn -0.7812 0.2728 0.5615
vn 0.1085 -0.0633 0.9921
vn 0.0980 0.0755 0.9923
vn -0.0073 0.0788 0.9969
vn 0.1245 0.0439 0.9912
vn -0.1026 -0.4218 0.9009
vn 0.6311 0.0972 0.7696
vn 0.0295 0.0415 0.9987
vn -0.1095 0.0539 0.9925
vn 0.1237 0.1594 0.9794
vn -0.1016 0.0559 0.9933
vn -0.1226 -0.0285 0.9920
vn -0.1082 0.0447 0.9931
vn 0.6258 0.0868 0.7752
vn -0.1259 0.0689 0.9896
vn -0.1077 -0.0654 0.9920
vn -0.1267 0.0521 0.9906
vn 0.0066 -0.0015 1.0000
vn 0.7391 -0.6533 0.1640
vn -0.0031 -0.0008 1.0000
vn -0.0763 -0.0205 0.9969
vn -0.0025 0.0011 1.0000
vn -0.0200 -0.0833 -0.9963
vn 0.0010 -0.3798 -0.9251
vn -0.0921 0.0997 -0.9907
vn -0.0864 0.0290 -0.9958
vn -0.0920 -0.0733 -0.9931
vn -0.1190 0.0443 -0.9919
vn -0.0091 0.0064 -0.9999
vn 0.9960 0.0077 0.0885
vn 0.0047 -0.0008 -1.0000
vn -0.0766 -0.0205 -0.9969
vn -0.0025 0.0014 -1.0000
vn -0.9610 0.0156 0.2761
vn -0.1001 -0.4259 0.8992
vn 0.0327 0.0370 0.9988
vn 0.1530 -0.0446 0.9872
vn 0.0921 0.0845 0.9922
vn 0.0564 -0.1104 0.9923
vn 0.3115 0.0508 0.9489
vn 0.1256 -0.0036 0.9921
vn 0.0019 -0.0002 1.0000
vn -0.7972 -0.4112 -0.4420
vn 0.0018 -0.0007 -1.0000
vn 0.0544 -0.0430 -0.9976
vn 0.1730 -0.0904 -0.9808
vn 0.0486 -0.1104 -0.9927
vn 0.0681 0.0605 -0.9958
vn 0.0430 -0.0445 -0.9981
vn 0.0798 0.0134 -0.9967
vn -0.7032 -0.0076 -0.7110
vt 0.139038 0.671387
vt 0.135254 0.658203
vt 0.141235 0.661377
vt 0.761719 0.397461
vt 0.752930 0.400879
vt 0.760742 0.399414
vt 0.524414 0.798584
vt 0.548340 0.813843
vt 0.523926 0.813232
vt 0.561523 0.799316
vt 0.939453 0.929321
vt 0.938965 0.914612
vt 0.962891 0.914246
vt 0.976562 0.928772
vt 0.140869 0.677490
vt 0.134888 0.678711
vt 0.134155 0.690186
vt 0.140747 0.693115
vt 0.141296 0.664181
vt 0.145386 0.337891
vt 0.150513 0.327637
vt 0.155029 0.341797
vt 0.160767 0.331055
vt 0.913086 0.886108
vt 0.913574 0.886108
vt 0.912109 0.934082
vt 0.907227 0.889771
vt 0.897461 0.922180
vt 0.855469 0.890686
vt 0.851562 0.883789
vt 0.910645 0.883850
vt 0.910645 0.883057
vt 0.856934 0.928406
vt 0.910645 0.936340
vt 0.851074 0.933411
vt 0.853516 0.935486
vt 0.849121 0.945862
vt 0.851562 0.949188
vt 0.910645 0.948822
vt 0.849121 0.886230
vt 0.848633 0.910339
vt 0.567871 0.631104
vt 0.567871 0.739990
vt 0.561523 0.734131
vt 0.562012 0.635254
vt 0.553223 0.727295
vt 0.552734 0.642822
vt 0.519531 0.727295
vt 0.560547 0.734863
vt 0.511719 0.735352
vt 0.565918 0.742188
vt 0.508301 0.742188
vt 0.519043 0.643066
vt 0.510742 0.734375
vt 0.507812 0.630371
vt 0.505859 0.632324
vt 0.561035 0.634277
vt 0.505371 0.739990
vt 0.565430 0.628418
vt 0.506836 0.614258
vt 0.565430 0.614258
vt 0.560059 0.606445
vt 0.519531 0.600098
vt 0.567871 0.611572
vt 0.567383 0.563965
vt 0.559570 0.569580
vt 0.512695 0.569336
vt 0.504883 0.611816
vt 0.565430 0.561279
vt 0.503906 0.564941
vt 0.493652 0.612305
vt 0.493408 0.562988
vt 0.506836 0.562500
vt 0.508301 0.554443
vt 0.565430 0.547852
vt 0.507812 0.547852
vt 0.560547 0.541016
vt 0.512207 0.540527
vt 0.519531 0.532959
vt 0.553223 0.532959
vt 0.552734 0.402832
vt 0.561523 0.395508
vt 0.561523 0.540039
vt 0.567871 0.544922
vt 0.567871 0.390137
vt 0.519043 0.402832
vt 0.511230 0.539551
vt 0.560547 0.395020
vt 0.509277 0.395020
vt 0.510742 0.393555
vt 0.505371 0.545166
vt 0.507324 0.388184
vt 0.565430 0.388184
vt 0.504395 0.390137
vt 0.493896 0.544434
vt 0.493408 0.390137
vt 0.669922 0.850952
vt 0.669922 0.909241
vt 0.657715 0.909485
vt 0.653809 0.854004
vt 0.649414 0.904236
vt 0.643066 0.863892
vt 0.609375 0.907776
vt 0.654785 0.912231
vt 0.604004 0.909790
vt 0.604980 0.850952
vt 0.611328 0.854736
vt 0.652832 0.852783
vt 0.666992 0.848633
vt 0.607422 0.848389
vt 0.631348 0.847778
vt 0.606934 0.913025
vt 0.606934 0.923096
vt 0.655273 0.922974
vt 0.666992 0.922974
vt 0.666504 0.912354
vt 0.493652 0.631348
vt 0.493652 0.740234
vt 0.503906 0.617920
vt 0.493652 0.618408
vt 0.665527 0.642090
vt 0.652344 0.656982
vt 0.665527 0.798218
vt 0.652344 0.715332
vt 0.652344 0.783813
vt 0.652344 0.725342
vt 0.754395 0.391602
vt 0.763672 0.385254
vt 0.768066 0.392090
vt 0.765137 0.413574
vt 0.768555 0.405762
vt 0.756348 0.409668
vt 0.132324 0.688354
vt 0.152100 0.898376
vt 0.206055 0.905457
vt 0.147095 0.905579
vt 0.194946 0.892151
vt 0.159546 0.890747
vt 0.159668 0.806274
vt 0.150513 0.798462
vt 0.151245 0.897522
vt 0.144897 0.794556
vt 0.144897 0.903381
vt 0.193481 0.806396
vt 0.201172 0.798340
vt 0.202148 0.799194
vt 0.151489 0.797485
vt 0.208130 0.903381
vt 0.208252 0.794556
vt 0.206055 0.791992
vt 0.147095 0.791748
vt 0.206055 0.778198
vt 0.147095 0.777832
vt 0.151855 0.770874
vt 0.200073 0.769409
vt 0.200317 0.732910
vt 0.208008 0.775635
vt 0.208252 0.726318
vt 0.152222 0.732422
vt 0.145020 0.775024
vt 0.145142 0.727783
vt 0.206055 0.723633
vt 0.147339 0.724854
vt 0.204346 0.718018
vt 0.147095 0.710938
vt 0.206177 0.710205
vt 0.201050 0.704834
vt 0.151245 0.705566
vt 0.193604 0.696533
vt 0.159546 0.696533
vt 0.159912 0.566406
vt 0.149658 0.557861
vt 0.150146 0.704590
vt 0.145020 0.708252
vt 0.144409 0.553711
vt 0.193359 0.566162
vt 0.150879 0.556641
vt 0.201660 0.559814
vt 0.200806 0.558838
vt 0.202026 0.703857
vt 0.206055 0.551514
vt 0.147095 0.551025
vt 0.208374 0.707764
vt 0.208374 0.553711
vt 0.420410 0.762085
vt 0.420410 0.730225
vt 0.468262 0.762085
vt 0.468262 0.730225
vt 0.420410 0.397949
vt 0.468262 0.397949
vt 0.614746 0.799316
vt 0.413574 0.386230
vt 0.614746 0.643066
vt 0.626953 0.784668
vt 0.626953 0.727539
vt 0.626953 0.716309
vt 0.626953 0.657715
vt 0.419922 0.761963
vt 0.468750 0.761963
vt 0.399414 0.508057
vt 0.398926 0.398438
vt 0.399414 0.521484
vt 0.399414 0.569336
vt 0.399658 0.582520
vt 0.409912 0.592529
vt 0.414795 0.774292
vt 0.406982 0.598633
vt 0.400146 0.738281
vt 0.400146 0.774048
vt 0.929199 0.000977
vt 0.927734 0.389648
vt 0.913086 0.376953
vt 0.913574 0.267578
vt 0.913574 0.253906
vt 0.913574 0.206055
vt 0.913574 0.193359
vt 0.914062 0.037109
vt 0.914551 0.001465
s 1
usemtl door_texture
f 269/147/224 273/148/225 277/149/226
f 280/150/227 283/151/228 286/152/229
f 288/150/230 290/152/231 294/151/232
f 298/153/233 299/154/234 304/155/235
f 298/153/233 307/156/236 299/154/234
f 312/157/237 315/158/238 319/159/239
f 323/160/240 312/157/237 319/159/239
f 326/161/241 328/162/242 331/163/243
f 326/161/241 331/163/243 335/164/244
f 339/147/245 343/149/246 325/148/247
f 338/147/248 324/148/249 336/165/250
f 348/153/251 350/155/252 352/154/253
f 348/153/251 352/154/253 357/156/254
f 361/157/255 365/159/256 368/158/257
f 371/160/258 365/159/256 361/157/255
f 282/166/259 372/167/260 374/168/261
f 376/169/262 374/168/261 372/167/260
f 292/166/263 379/168/264 381/167/265
f 383/169/266 381/167/265 379/168/264
f 387/170/267 391/171/268 394/172/269
f 394/172/269 395/173/270 387/170/267
f 394/172/269 396/174/271 395/173/270
f 395/173/270 396/174/271 397/175/272
f 395/173/270 397/175/272 302/176/273
f 386/177/274 395/173/270 302/176/273
f 302/176/273 390/178/275 386/177/274
f 397/175/272 396/174/271 398/179/276
f 398/179/276 396/174/271 393/180/277
f 398/179/276 399/181/278 397/175/272
f 393/180/277 400/182/279 398/179/276
f 397/175/272 399/181/278 404/183/280
f 405/184/281 400/182/279 393/180/277
f 393/180/277 410/185/282 405/184/281
f 301/186/283 397/175/272 404/183/280
f 404/183/280 305/187/284 301/186/283
f 412/188/285 415/189/286 419/190/287
f 419/190/287 421/191/288 412/188/285
f 422/192/289 421/191/288 419/190/287
f 422/192/289 423/193/290 421/191/288
f 423/193/290 422/192/289 424/194/291
f 424/194/291 422/192/289 418/195/292
f 424/194/291 418/195/292 426/196/293
f 414/197/294 426/196/293 418/195/292
f 414/197/294 428/198/295 426/196/293
f 424/194/291 430/199/296 423/193/290
f 425/200/297 430/199/296 424/194/291
f 423/193/290 430/199/296 432/201/298
f 425/200/297 431/202/299 430/199/296
f 423/193/290 432/201/298 420/203/300
f 425/200/297 427/204/301 431/202/299
f 411/205/302 420/203/300 432/201/298
f 411/205/302 432/201/298 435/206/303
f 411/205/302 435/206/303 436/207/304
f 435/206/303 439/208/305 436/207/304
f 440/209/306 439/208/305 435/206/303
f 437/210/307 439/208/305 442/211/308
f 439/208/305 444/212/309 442/211/308
f 440/209/306 444/212/309 439/208/305
f 440/209/306 445/213/310 444/212/309
f 440/209/306 434/214/311 445/213/310
f 444/212/309 445/213/310 441/215/312
f 278/216/313 445/213/310 434/214/311
f 278/216/313 434/214/311 449/217/314
f 272/218/315 278/216/313 449/217/314
f 441/215/312 445/213/310 279/219/316
f 276/220/317 441/215/312 279/219/316
f 450/221/318 441/215/312 276/220/317
f 455/222/319 450/221/318 276/220/317
f 455/222/319 456/223/320 450/221/318
f 455/222/319 459/224/321 456/223/320
f 460/225/322 456/223/320 459/224/321
f 460/225/322 461/226/323 456/223/320
f 462/227/324 461/226/323 460/225/322
f 464/228/325 461/226/323 462/227/324
f 464/228/325 457/229/326 461/226/323
f 451/230/327 457/229/326 464/228/325
f 464/228/325 466/231/328 451/230/327
f 462/227/324 460/225/322 470/232/329
f 470/232/329 460/225/322 458/233/330
f 462/227/324 470/232/329 463/234/331
f 470/232/329 458/233/330 471/235/332
f 470/232/329 472/236/333 463/234/331
f 454/237/334 471/235/332 458/233/330
f 474/238/335 463/234/331 472/236/333
f 474/238/335 465/239/336 463/234/331
f 454/237/334 473/240/337 471/235/332
f 473/240/337 454/237/334 480/241/338
f 473/240/337 480/241/338 408/242/339
f 468/243/340 476/244/341 482/245/342
f 482/245/342 484/246/343 468/243/340
f 482/245/342 485/247/344 484/246/343
f 486/248/345 484/246/343 485/247/344
f 486/248/345 485/247/344 487/249/346
f 487/249/346 485/247/344 481/250/347
f 488/251/348 316/252/349 487/249/346
f 491/253/350 487/249/346 316/252/349
f 486/248/345 487/249/346 491/253/350
f 486/248/345 491/253/350 483/254/351
f 483/254/351 491/253/350 467/255/352
f 467/255/352 491/253/350 317/256/353
f 313/257/354 467/255/352 317/256/353
f 481/250/347 489/258/355 487/249/346
f 388/259/356 489/258/355 392/260/357
f 489/258/355 481/250/347 392/260/357
f 481/250/347 409/261/358 392/260/357
f 481/250/347 475/262/359 409/261/358
f 342/218/360 495/217/361 344/216/362
f 344/216/362 495/217/361 497/214/363
f 344/216/362 497/214/363 499/213/364
f 500/209/365 499/213/364 497/214/363
f 500/209/365 501/212/366 499/213/364
f 501/212/366 502/215/367 499/213/364
f 502/215/367 345/219/368 499/213/364
f 327/220/369 345/219/368 502/215/367
f 505/221/370 327/220/369 502/215/367
f 330/222/371 327/220/369 505/221/370
f 330/222/371 505/221/370 508/223/372
f 330/222/371 508/223/372 511/224/373
f 512/225/374 511/224/373 508/223/372
f 512/225/374 508/223/372 513/226/375
f 500/209/365 514/208/376 501/212/366
f 514/208/376 503/211/377 501/212/366
f 516/210/378 503/211/377 514/208/376
f 500/209/365 498/206/379 514/208/376
f 498/206/379 515/207/380 514/208/376
f 518/205/381 515/207/380 498/206/379
f 518/205/381 498/206/379 522/201/382
f 518/205/381 522/201/382 523/203/383
f 525/193/384 523/203/383 522/201/382
f 525/193/384 522/201/382 526/199/385
f 527/194/386 525/193/384 526/199/385
f 528/200/387 527/194/386 526/199/385
f 528/200/387 526/199/385 521/202/388
f 528/200/387 521/202/388 530/204/389
f 525/193/384 527/194/386 533/192/390
f 533/192/390 524/191/391 525/193/384
f 527/194/386 534/195/392 533/192/390
f 533/192/390 535/190/393 524/191/391
f 527/194/386 529/196/394 534/195/392
f 535/190/393 519/188/395 524/191/391
f 519/188/395 535/190/393 537/189/396
f 536/197/397 534/195/392 529/196/394
f 536/197/397 529/196/394 531/198/398
f 542/263/399 545/264/400 530/204/389
f 542/263/399 530/204/389 521/202/388
f 542/263/399 521/202/388 496/265/401
f 542/263/399 496/265/401 494/266/402
f 548/228/403 513/226/375 509/229/404
f 506/230/405 548/228/403 509/229/404
f 548/228/403 506/230/405 550/231/406
f 548/228/403 554/227/407 513/226/375
f 554/227/407 512/225/374 513/226/375
f 554/227/407 555/232/408 512/225/374
f 555/232/408 510/233/409 512/225/374
f 554/227/407 547/234/410 555/232/408
f 555/232/408 556/235/411 510/233/409
f 555/232/408 547/234/410 557/236/412
f 329/237/413 510/233/409 556/235/411
f 559/238/414 557/236/412 547/234/410
f 559/238/414 547/234/410 549/239/415
f 329/237/413 556/235/411 558/240/416
f 558/240/416 334/241/417 329/237/413
f 558/240/416 564/242/418 334/241/417
f 366/257/419 363/256/420 551/255/421
f 551/255/421 363/256/420 567/253/422
f 568/254/423 551/255/421 567/253/422
f 570/248/424 568/254/423 567/253/422
f 570/248/424 567/253/422 571/249/425
f 567/253/422 362/252/426 571/249/425
f 572/251/427 571/249/425 362/252/426
f 570/248/424 571/249/425 575/247/428
f 570/248/424 575/247/428 569/246/429
f 577/245/430 569/246/429 575/247/428
f 577/245/430 552/243/431 569/246/429
f 552/243/431 577/245/430 561/244/432
f 571/249/425 576/250/433 575/247/428
f 576/250/433 571/249/425 573/258/434
f 578/259/435 582/260/436 573/258/434
f 573/258/434 582/260/436 576/250/433
f 576/250/433 582/260/436 565/261/437
f 576/250/433 565/261/437 560/262/438
f 358/267/439 353/268/440 370/269/441
f 370/269/441 353/268/440 579/270/442
f 370/269/441 579/270/442 364/271/443
f 579/270/442 574/272/444 364/271/443
f 284/151/445 375/273/446 287/152/447
f 287/152/447 375/273/446 377/274/448
f 287/152/447 377/274/448 585/275/449
f 385/276/450 588/277/451 382/278/452
f 588/277/451 289/150/453 382/278/452
f 382/278/452 289/150/453 293/151/454
f 274/161/455 477/163/456 453/162/457
f 274/161/455 589/164/458 477/163/456
f 275/161/459 268/279/460 590/164/461
f 593/280/462 594/281/463 599/282/464
f 602/283/465 594/281/463 593/280/462
f 593/280/462 603/284/466 602/283/465
f 602/283/465 603/284/466 604/285/467
f 604/285/467 603/284/466 605/286/468
f 605/286/468 603/284/466 592/287/469
f 605/286/468 592/287/469 607/288/470
f 592/287/469 598/289/471 607/288/470
f 610/290/472 602/283/465 604/285/467
f 610/290/472 604/285/467 611/291/473
f 610/290/472 612/292/474 602/283/465
f 611/291/473 604/285/467 606/293/475
f 595/294/476 602/283/465 612/292/474
f 612/292/474 614/295/477 595/294/476
f 606/293/475 613/296/478 611/291/473
f 606/293/475 608/297/479 613/296/478
f 446/298/480 613/296/478 608/297/479
f 446/298/480 608/297/479 617/299/481
f 619/300/482 446/298/480 617/299/481
f 620/301/483 446/298/480 619/300/482
f 620/301/483 619/300/482 621/302/484
f 620/301/483 621/302/484 447/303/485
f 271/304/486 447/303/485 621/302/484
f 621/302/484 619/300/482 622/305/487
f 619/300/482 616/306/488 622/305/487
f 622/305/487 616/306/488 623/307/489
f 621/302/484 622/305/487 270/308/490
f 622/305/487 624/309/491 270/308/490
f 270/308/490 624/309/491 591/310/492
f 591/310/492 624/309/491 627/311/493
f 591/310/492 627/311/493 478/312/494
f 629/313/495 478/312/494 627/311/493
f 629/313/495 627/311/493 632/314/496
f 632/314/496 633/315/497 629/313/495
f 634/316/498 633/315/497 632/314/496
f 634/316/498 635/317/499 633/315/497
f 635/317/499 634/316/498 636/318/500
f 634/316/498 631/319/501 636/318/500
f 631/319/501 626/320/502 636/318/500
f 401/321/503 636/318/500 626/320/502
f 633/315/497 635/317/499 638/322/504
f 637/323/505 638/322/504 635/317/499
f 638/322/504 640/324/506 633/315/497
f 639/325/507 638/322/504 637/323/505
f 630/326/508 633/315/497 640/324/506
f 639/325/507 637/323/505 406/327/509
f 406/327/509 637/323/505 402/328/510
f 640/324/506 479/329/511 630/326/508
f 640/324/506 407/330/512 479/329/511
f 389/270/513 318/271/514 490/272/515
f 322/269/516 318/271/514 389/270/513
f 322/269/516 389/270/513 300/268/517
f 309/267/518 322/269/516 300/268/517
f 358/267/439 321/269/519 308/267/520
f 321/269/519 358/267/439 370/269/441
f 644/183/521 354/186/522 351/187/523
f 354/186/522 644/183/521 646/175/524
f 646/175/524 644/183/521 647/181/525
f 649/179/526 646/175/524 647/181/525
f 646/175/524 649/179/526 650/174/527
f 649/179/526 583/180/528 650/174/527
f 583/180/528 649/179/526 648/182/529
f 645/184/530 583/180/528 648/182/529
f 583/180/528 645/184/530 566/185/531
f 651/173/532 646/175/524 650/174/527
f 584/172/533 651/173/532 650/174/527
f 651/173/532 355/176/534 646/175/524
f 584/172/533 653/170/535 651/173/532
f 653/170/535 584/172/533 581/171/536
f 652/177/537 355/176/534 651/173/532
f 355/176/534 652/177/537 580/178/538
f 655/280/539 657/282/540 543/281/541
f 660/283/542 655/280/539 543/281/541
f 655/280/539 660/283/542 661/284/543
f 660/283/542 662/285/544 661/284/543
f 662/285/544 663/286/545 661/284/543
f 663/286/545 654/287/546 661/284/543
f 663/286/545 665/288/547 654/287/546
f 654/287/546 665/288/547 656/289/548
f 668/290/549 662/285/544 660/283/542
f 668/290/549 669/291/550 662/285/544
f 668/290/549 660/283/542 670/292/551
f 669/291/550 664/293/552 662/285/544
f 544/294/553 670/292/551 660/283/542
f 670/292/551 544/294/553 541/295/554
f 664/293/552 669/291/550 540/296/555
f 664/293/552 540/296/555 666/297/556
f 492/298/557 666/297/556 540/296/555
f 492/298/557 672/299/558 666/297/556
f 674/300/559 672/299/558 492/298/557
f 675/301/560 674/300/559 492/298/557
f 675/301/560 676/302/561 674/300/559
f 675/301/560 493/303/562 676/302/561
f 341/304/563 676/302/561 493/303/562
f 676/302/561 677/305/564 674/300/559
f 674/300/559 677/305/564 671/306/565
f 677/305/564 678/307/566 671/306/565
f 676/302/561 340/308/567 677/305/564
f 677/305/564 340/308/567 679/309/568
f 340/308/567 337/310/569 679/309/568
f 337/310/569 682/311/570 679/309/568
f 337/310/569 332/312/571 682/311/570
f 684/313/572 682/311/570 332/312/571
f 684/313/572 687/314/573 682/311/570
f 687/314/573 684/313/572 688/315/574
f 689/316/575 687/314/573 688/315/574
f 689/316/575 688/315/574 690/317/576
f 690/317/576 691/318/577 689/316/575
f 689/316/575 691/318/577 686/319/578
f 686/319/578 691/318/577 681/320/579
f 641/321/580 681/320/579 691/318/577
f 688/315/574 693/322/581 690/317/576
f 692/323/582 690/317/576 693/322/581
f 693/322/581 688/315/574 695/324/583
f 694/325/584 692/323/582 693/322/581
f 685/326/585 695/324/583 688/315/574
f 694/325/584 562/327/586 692/323/582
f 562/327/586 642/328/587 692/323/582
f 695/324/583 685/326/585 333/329/588
f 695/324/583 333/329/588 563/330/589
f 306/331/590 297/332/591 356/333/592
f 356/333/592 297/332/591 347/334/593
f 297/332/591 698/335/594 347/334/593
f 347/334/593 698/335/594 701/336/595
f 704/337/596 696/338/594 707/337/597
f 696/338/594 704/337/596 702/339/598
f 704/337/596 538/340/599 702/339/598
f 702/339/598 538/340/599 532/341/600
f 702/339/598 532/341/600 546/342/601
f 546/342/601 659/343/602 702/339/598
f 359/334/603 320/344/604 369/345/605
f 320/344/604 359/334/603 310/332/606
f 359/334/603 703/336/607 310/332/606
f 310/332/606 703/336/607 706/335/608
f 378/276/609 373/278/610 586/277/611
f 586/277/611 373/278/610 281/150/612
f 373/278/610 285/151/613 281/150/612
f 295/151/614 291/152/615 380/273/616
f 291/152/615 384/274/617 380/273/616
f 291/152/615 587/275/618 384/274/617
f 615/263/619 448/266/620 433/265/621
f 615/263/619 433/265/621 431/202/299
f 615/263/619 431/202/299 427/204/301
f 615/263/619 427/204/301 596/264/622
f 708/337/623 699/339/624 416/340/625
f 699/339/624 429/341/626 416/340/625
f 699/339/624 597/342/627 429/341/626
f 597/342/627 699/339/624 601/343/628
f 609/346/629 600/347/630 697/338/631
f 609/346/629 697/338/631 618/348/632
f 697/338/631 625/349/633 618/348/632
f 625/349/633 697/338/631 628/350/634
f 710/351/635 628/350/634 697/338/631
f 697/338/631 296/352/636 710/351/635
f 710/351/635 711/353/637 628/350/634
f 711/353/637 710/351/635 296/352/636
f 711/353/637 403/354/638 628/350/634
f 296/352/636 403/354/638 711/353/637
f 403/354/638 296/352/636 303/355/639
f 667/346/640 700/338/641 658/347/642
f 667/346/640 673/348/643 700/338/641
f 700/338/641 673/348/643 680/349/644
f 680/349/644 683/350/645 700/338/641
f 712/351/646 700/338/641 683/350/645
f 700/338/641 712/351/646 346/352/647
f 712/351/646 683/350/645 713/353/648
f 713/353/648 346/352/647 712/351/646
f 713/353/648 683/350/645 643/354/649
f 346/352/647 713/353/648 643/354/649
f 643/354/649 349/355/650 346/352/647
f 311/356/651 709/357/652 417/358/653
f 417/358/653 413/359/654 311/356/651
f 438/360/655 311/356/651 413/359/654
f 311/356/651 438/360/655 443/361/656
f 311/356/651 443/361/656 452/362/657
f 469/363/658 311/356/651 452/362/657
f 311/356/651 469/363/658 314/364/659
f 360/356/660 367/364/661 553/363/662
f 553/363/662 507/362/663 360/356/660
f 360/356/660 507/362/663 504/361/664
f 360/356/660 504/361/664 517/360/665
f 517/360/665 520/359/666 360/356/660
f 539/358/667 360/356/660 520/359/666
f 360/356/660 539/358/667 705/357/668
