# Blender 4.5.8 LTS
# www.blender.org
mtllib shotgunAmmo.mtl
o 12Cal
v 5.000415 0.131060 -4.971035
v 5.000415 7.460033 -4.971036
v 5.000413 0.131061 4.971038
v 5.000413 7.460034 4.971037
v -5.000413 0.131060 -4.971037
v -5.000413 7.460033 -4.971038
v -5.000415 0.131061 4.971036
v -5.000415 7.460034 4.971035
vn -1.0000 -0.0000 -0.0000
vn -0.0000 -0.0000 -1.0000
vn -0.0000 -1.0000 -0.0000
vn -0.0000 1.0000 -0.0000
vn 1.0000 -0.0000 -0.0000
vn -0.0000 -0.0000 1.0000
vt 0.966209 0.584239
vt 0.679812 0.964810
vt 0.966209 0.964810
vt 0.002269 0.997870
vt 0.391065 0.713609
vt 0.391065 0.997870
vt 0.386729 0.704745
vt 0.016928 0.303237
vt 0.386729 0.303237
vt 0.411110 0.002141
vt 0.777937 0.387928
vt 0.411110 0.387928
vt 0.407469 0.588819
vt 0.714790 0.965925
vt 0.407469 0.965925
vt 0.016767 0.282052
vt 0.386926 0.006902
vt 0.388942 0.282052
vt 0.679812 0.584239
vt 0.002269 0.713609
vt 0.016928 0.704745
vt 0.777937 0.002141
vt 0.714790 0.588819
vt 0.014751 0.006902
s 1
usemtl 12Cal
f 6/1/1 7/2/1 8/3/1
f 2/4/2 5/5/2 6/6/2
f 5/7/3 3/8/3 7/9/3
f 2/10/4 8/11/4 4/12/4
f 4/13/5 1/14/5 2/15/5
f 8/16/6 3/17/6 4/18/6
f 6/1/1 5/19/1 7/2/1
f 2/4/2 1/20/2 5/5/2
f 5/7/3 1/21/3 3/8/3
f 2/10/4 6/22/4 8/11/4
f 4/13/5 3/23/5 1/14/5
f 8/16/6 7/24/6 3/17/6
